<?xml version="1.0" encoding="utf-8"?>
<!-- Generator: Adobe Illustrator 23.0.4, SVG Export Plug-In . SVG Version: 6.00 Build 0)  -->
<svg version="1.1" id="Layer_1" xmlns="http://www.w3.org/2000/svg" xmlns:xlink="http://www.w3.org/1999/xlink" x="0px" y="0px"
	 viewBox="0 0 24 24" style="enable-background:new 0 0 24 24;" xml:space="preserve">
<style type="text/css">
	.st0{fill:#4E65AF;}
</style>
<g>
	<path class="st0" d="M22,9.6c-0.4,5.2-5.6,9.4-12,9.4c-0.5,0-0.9,0-1.4-0.1c2,1.6,4.9,2.4,7.9,2l5.4,2.7v-5.2c1.3-1.2,2-2.8,2-4.4
		C24,12.4,23.3,10.8,22,9.6z"/>
	<path class="st0" d="M10,1C4.5,1,0,4.6,0,9c0,1.8,0.8,3.4,2,4.8V19l4.8-2.4c1,0.3,2.1,0.4,3.2,0.4c5.5,0,10-3.6,10-8S15.5,1,10,1z"
		/>
</g>
</svg>
