<?xml version="1.0" encoding="utf-8"?>
<!-- Generator: Adobe Illustrator 23.0.4, SVG Export Plug-In . SVG Version: 6.00 Build 0)  -->
<svg version="1.1" id="Layer_1" xmlns="http://www.w3.org/2000/svg" xmlns:xlink="http://www.w3.org/1999/xlink" x="0px" y="0px"
	 viewBox="0 0 24 24" style="enable-background:new 0 0 24 24;" xml:space="preserve">
<style type="text/css">
	.st0{fill:#4E65AF;}
</style>
<g>
	<path class="st0" d="M21.2,3l-9-2c-0.1,0-0.3,0-0.4,0l-9,2C2.3,3.1,2,3.5,2,4v10c0,5.5,4.5,10,10,10s10-4.5,10-10V4
		C22,3.5,21.7,3.1,21.2,3z M17,17c0,0.6-0.4,1-1,1H8c-0.6,0-1-0.4-1-1v-5c0-0.6,0.4-1,1-1h1V9c0-1.7,1.3-3,3-3s3,1.3,3,3v2h1
		c0.6,0,1,0.4,1,1V17z"/>
	<path class="st0" d="M12,8c-0.6,0-1,0.4-1,1v2h2V9C13,8.4,12.6,8,12,8z"/>
</g>
</svg>
