<?xml version="1.0" encoding="utf-8"?>
<!-- Generator: Adobe Illustrator 23.0.4, SVG Export Plug-In . SVG Version: 6.00 Build 0)  -->
<svg version="1.1" id="Layer_1" xmlns="http://www.w3.org/2000/svg" xmlns:xlink="http://www.w3.org/1999/xlink" x="0px" y="0px"
	 viewBox="0 0 24 24" style="enable-background:new 0 0 24 24;" xml:space="preserve">
<style type="text/css">
	.st0{fill:#4E65AF;}
</style>
<g>
	<path class="st0" d="M2,6h18v1h2V5c0-0.6-0.4-1-1-1h-2.7l-6.8-3.9c-0.3-0.2-0.7-0.2-1,0L3.7,4H1C0.4,4,0,4.4,0,5v14
		c0,0.6,0.4,1,1,1h13v-2H2V6z M11,2.2L14.2,4H7.8L11,2.2z"/>
	<rect x="4" y="9" class="st0" width="9" height="2"/>
	<rect x="4" y="13" class="st0" width="6" height="2"/>
	<path class="st0" d="M16,19.3V24l3-2l3,2v-4.7c-0.9,0.4-1.9,0.7-3,0.7S16.9,19.7,16,19.3z"/>
	<circle class="st0" cx="19" cy="13" r="5"/>
</g>
</svg>
