<?xml version="1.0" encoding="utf-8"?>
<!-- Generator: Adobe Illustrator 23.0.4, SVG Export Plug-In . SVG Version: 6.00 Build 0)  -->
<svg version="1.1" id="Layer_1" xmlns="http://www.w3.org/2000/svg" xmlns:xlink="http://www.w3.org/1999/xlink" x="0px" y="0px"
	 viewBox="0 0 32 32" style="enable-background:new 0 0 32 32;" xml:space="preserve">
<style type="text/css">
	.st0{fill:#086BB5;}
</style>
<g>
	<path class="st0" d="M22.1,13H9.9C9.5,15,8,16.5,6,16.9v4.2C8,21.5,9.5,23,9.9,25h12.2c0.4-2,1.9-3.5,3.9-3.9v-4.2
		C24,16.5,22.5,15,22.1,13z M16,22c-1.7,0-3-1.3-3-3s1.3-3,3-3s3,1.3,3,3S17.7,22,16,22z"/>
	<path class="st0" d="M31,7H1C0.4,7,0,7.4,0,8v22c0,0.6,0.4,1,1,1h30c0.6,0,1-0.4,1-1V8C32,7.4,31.6,7,31,7z M28,23h-1
		c-1.7,0-3,1.3-3,3v1H8v-1c0-1.7-1.3-3-3-3H4v-8h1c1.7,0,3-1.3,3-3v-1h16v1c0,1.7,1.3,3,3,3h1V23z"/>
	<path class="st0" d="M29,5H3V2c0-0.6,0.4-1,1-1h24c0.6,0,1,0.4,1,1V5z"/>
</g>
</svg>
