<?xml version="1.0" encoding="utf-8"?>
<!-- Generator: Adobe Illustrator 23.0.4, SVG Export Plug-In . SVG Version: 6.00 Build 0)  -->
<svg version="1.1" id="Layer_1" xmlns="http://www.w3.org/2000/svg" xmlns:xlink="http://www.w3.org/1999/xlink" x="0px" y="0px"
	 viewBox="0 0 32 32" style="enable-background:new 0 0 32 32;" xml:space="preserve">
<style type="text/css">
	.st0{fill:#086BB5;}
</style>
<g>
	<path class="st0" d="M32,27.3l-2.8-14.1c-0.5-2.6-2.8-4.5-5.5-4.5c-1.5,0-2.9,0.6-4,1.7L19,11H13l-0.6-0.6c-1.1-1.1-2.5-1.7-4-1.7
		c-2.7,0-5,1.9-5.5,4.5L0,27.3c-0.2,1,0.2,2,1.1,2.5c0.9,0.5,1.9,0.5,2.8-0.1l3.4-2.6C8.1,27.7,9,28,10,28c2.4,0,4.4-1.7,4.9-4h2.2
		c0.5,2.3,2.5,4,4.9,4c1,0,1.9-0.3,2.7-0.8l3.4,2.6c0.4,0.3,0.9,0.5,1.5,0.5c0.4,0,0.9-0.1,1.3-0.4C31.7,29.3,32.2,28.3,32,27.3z
		 M10,26c-1.7,0-3-1.3-3-3s1.3-3,3-3s3,1.3,3,3S11.7,26,10,26z M19,23c0-1.7,1.3-3,3-3s3,1.3,3,3s-1.3,3-3,3S19,24.7,19,23z"/>
	<path class="st0" d="M17,2c0-0.6-0.4-1-1-1s-1,0.4-1,1v7h2V2z"/>
</g>
</svg>
