<?xml version="1.0" encoding="utf-8"?>
<!-- Generator: Adobe Illustrator 23.0.4, SVG Export Plug-In . SVG Version: 6.00 Build 0)  -->
<svg version="1.1" id="Layer_1" xmlns="http://www.w3.org/2000/svg" xmlns:xlink="http://www.w3.org/1999/xlink" x="0px" y="0px"
	 viewBox="0 0 32 32" style="enable-background:new 0 0 32 32;" xml:space="preserve">
<style type="text/css">
	.st0{fill:#086BB5;}
</style>
<g>
	<path class="st0" d="M27.1,16c-4.6-2.4-11.5-0.2-14.6,2.3c-0.1-0.2-0.2-0.3-0.4-0.5c-0.9-1.1-1.5-2.3-2-3.7
		c-0.2-1.2-0.3-2.5-0.3-3.8c0.3,0,0.5,0,0.8,0l0.1,0c1.4-0.4,2.6-1.2,3.5-2.3c0.6-0.9,0.6-2,0-2.9c0.2-0.7,0.4-1.4,0.3-2.2
		c0-0.7-0.3-1.4-0.9-1.9c-1.1-0.9-3.1-1-4.9-1c-4,0-6.3,8.9-7.4,14.1c-1.4,7.1,1,13.9,2.3,15.3c2.1,2.1,6.7,1.9,7.9,1.7
		c2.1,0.6,4.2,0.9,6.4,0.8c0.4,0,0.7,0,1.1,0c3.3,0,6.6-0.9,9.5-2.6c2-1.4,3.1-3.7,3-6.2C31.6,20.4,30,17.8,27.1,16z M25.7,23.7
		c-2.1,1.2-4.5,1.9-6.9,1.9c-1.1,0-2.3-0.1-3.4-0.4c-0.5-0.1-0.9-0.6-0.8-1.2s0.6-0.9,1.2-0.8c0,0,0,0,0.1,0c3,0.8,6.1,0.3,8.8-1.2
		c0.5-0.3,1.1-0.1,1.4,0.3C26.3,22.8,26.2,23.4,25.7,23.7L25.7,23.7L25.7,23.7z"/>
</g>
</svg>
