<?xml version="1.0" encoding="utf-8"?>
<!-- Generator: Adobe Illustrator 23.0.4, SVG Export Plug-In . SVG Version: 6.00 Build 0)  -->
<svg version="1.1" id="Layer_1" xmlns="http://www.w3.org/2000/svg" xmlns:xlink="http://www.w3.org/1999/xlink" x="0px" y="0px"
	 viewBox="0 0 32 32" style="enable-background:new 0 0 32 32;" xml:space="preserve">
<style type="text/css">
	.st0{fill:#086BB5;}
</style>
<g>
	<rect x="20" y="8" class="st0" width="3" height="2"/>
	<rect x="20" y="15" class="st0" width="3" height="2"/>
	<rect x="7" y="8" class="st0" width="10" height="2"/>
	<rect x="7" y="15" class="st0" width="10" height="2"/>
	<rect x="7" y="22" class="st0" width="10" height="2"/>
	<path class="st0" d="M17,32H3c-0.6,0-1-0.4-1-1V1c0-0.6,0.4-1,1-1h24c0.6,0,1,0.4,1,1v11h-2V2H4v28h13V32z"/>
	<path class="st0" d="M25.5,31.4l1.4,0.5c1.3,0.4,2.7-0.2,3.2-1.5l1.6-4.7c0.7-2.3-0.6-4.8-2.9-5.5c-0.8-0.3-1.8-0.3-2.6,0l-0.8,0.2
		l-0.8-0.2c-2.3-0.7-4.8,0.6-5.5,2.9c-0.3,0.8-0.3,1.8,0,2.6l1.6,4.7c0.5,1.3,1.9,2,3.2,1.5L25.5,31.4z"/>
	<path class="st0" d="M30,14L30,14v1c0,2.2-1.8,4-4,4l0,0v-1C26,15.8,27.8,14,30,14z"/>
</g>
</svg>
