<?xml version="1.0" encoding="utf-8"?>
<!-- Generator: Adobe Illustrator 23.0.3, SVG Export Plug-In . SVG Version: 6.00 Build 0)  -->
<svg version="1.1" id="Layer_1" xmlns="http://www.w3.org/2000/svg" xmlns:xlink="http://www.w3.org/1999/xlink" x="0px" y="0px"
	 viewBox="0 0 398.9 457.8" style="enable-background:new 0 0 398.9 457.8;" xml:space="preserve">
<style type="text/css">
	.st0{fill:url(#SVGID_1_);}
	.st1{fill:#FFFFFF;}
</style>
<linearGradient id="SVGID_1_" gradientUnits="userSpaceOnUse" x1="-1594.9219" y1="126.974" x2="-1301.2654" y2="-166.6825" gradientTransform="matrix(4.489700e-11 -1 -1 -4.489700e-11 179.1389 -1220.8611)">
	<stop  offset="3.605769e-04" style="stop-color:#ED1179"/>
	<stop  offset="0.1841" style="stop-color:#EE2D70"/>
	<stop  offset="0.59" style="stop-color:#F05154"/>
	<stop  offset="1" style="stop-color:#F36B21"/>
</linearGradient>
<polygon class="st0" points="12.8,119.4 12.8,334.7 199,441.9 385.6,334.7 385.6,119.4 199,12.2 "/>
<g>
	<path class="st1" d="M57.7,194.3c1.1-0.2,2.3-0.3,3.7-0.3c2.5,0,4.3,0.6,5.5,1.7c1.2,1.1,1.9,2.7,1.9,4.8c0,2.2-0.7,4-1.9,5.2
		c-1.3,1.3-3.3,1.9-6,1.9c-1.2,0-2.3-0.1-3.2-0.2V194.3z M59.4,206.2c0.4,0.1,1.1,0.1,1.8,0.1c3.7,0,5.7-2.1,5.7-5.7
		c0-3.2-1.8-5.2-5.5-5.2c-0.9,0-1.6,0.1-2,0.2V206.2z"/>
	<path class="st1" d="M79.8,202.7c0,3.6-2.5,5.1-4.8,5.1c-2.6,0-4.6-1.9-4.6-5c0-3.2,2.1-5.1,4.8-5.1
		C77.9,197.7,79.8,199.7,79.8,202.7z M72.1,202.8c0,2.1,1.2,3.7,2.9,3.7c1.7,0,2.9-1.6,2.9-3.8c0-1.6-0.8-3.7-2.9-3.7
		C73,199,72.1,200.9,72.1,202.8z"/>
	<path class="st1" d="M82,200.5c0-1,0-1.8-0.1-2.6h1.6l0.1,1.6h0c0.5-0.9,1.6-1.8,3.2-1.8c1.3,0,3.4,0.8,3.4,4.1v5.8h-1.8V202
		c0-1.6-0.6-2.9-2.2-2.9c-1.2,0-2.1,0.8-2.4,1.8c-0.1,0.2-0.1,0.5-0.1,0.8v5.8H82V200.5z"/>
	<path class="st1" d="M94.3,193.9l-0.3,4.8h-1.1l-0.3-4.8H94.3z"/>
	<path class="st1" d="M99.3,195.1v2.8h2.5v1.3h-2.5v5.2c0,1.2,0.3,1.9,1.3,1.9c0.5,0,0.8-0.1,1-0.1l0.1,1.3
		c-0.3,0.1-0.9,0.2-1.6,0.2c-0.8,0-1.5-0.3-1.9-0.7c-0.5-0.5-0.7-1.4-0.7-2.5v-5.3h-1.5v-1.3h1.5v-2.3L99.3,195.1z"/>
	<path class="st1" d="M108.1,200.5c0-1,0-1.8-0.1-2.6h1.5l0.1,1.6h0.1c0.5-0.9,1.4-1.8,3-1.8c1.3,0,2.3,0.8,2.7,1.9h0
		c0.3-0.5,0.7-1,1.1-1.3c0.6-0.4,1.2-0.7,2.1-0.7c1.3,0,3.2,0.8,3.2,4.2v5.7h-1.7v-5.5c0-1.9-0.7-3-2.1-3c-1,0-1.8,0.7-2.1,1.6
		c-0.1,0.2-0.1,0.6-0.1,0.9v6h-1.7v-5.8c0-1.5-0.7-2.7-2-2.7c-1.1,0-1.9,0.9-2.2,1.8c-0.1,0.3-0.1,0.6-0.1,0.9v5.8h-1.7V200.5z"/>
	<path class="st1" d="M130.1,207.6l-0.1-1.2h-0.1c-0.5,0.8-1.6,1.4-3,1.4c-2,0-3-1.4-3-2.8c0-2.3,2.1-3.6,5.8-3.6v-0.2
		c0-0.8-0.2-2.2-2.2-2.2c-0.9,0-1.8,0.3-2.5,0.7l-0.4-1.2c0.8-0.5,2-0.9,3.2-0.9c3,0,3.7,2,3.7,4v3.6c0,0.8,0,1.7,0.2,2.3H130.1z
		 M129.9,202.7c-1.9,0-4.1,0.3-4.1,2.2c0,1.1,0.8,1.7,1.7,1.7c1.3,0,2.1-0.8,2.3-1.6c0.1-0.2,0.1-0.4,0.1-0.6V202.7z"/>
	<path class="st1" d="M136.1,202.4L136.1,202.4c0.3-0.3,0.6-0.8,0.9-1.1l2.8-3.3h2.1l-3.7,4l4.3,5.7h-2.1L137,203l-0.9,1v3.6h-1.7
		v-14.2h1.7V202.4z"/>
	<path class="st1" d="M144.8,203.1c0,2.4,1.6,3.4,3.3,3.4c1.3,0,2-0.2,2.7-0.5l0.3,1.3c-0.6,0.3-1.7,0.6-3.2,0.6c-3,0-4.8-2-4.8-4.9
		c0-2.9,1.7-5.2,4.5-5.2c3.2,0,4,2.8,4,4.6c0,0.4,0,0.6-0.1,0.8H144.8z M149.9,201.8c0-1.1-0.5-2.9-2.4-2.9c-1.8,0-2.6,1.6-2.7,2.9
		H149.9z"/>
	<path class="st1" d="M160,195.2c0,0.6-0.4,1.1-1.1,1.1c-0.6,0-1.1-0.5-1.1-1.1c0-0.6,0.5-1.1,1.1-1.1
		C159.6,194.1,160,194.6,160,195.2z M158,207.6v-9.7h1.8v9.7H158z"/>
	<path class="st1" d="M164.8,195.1v2.8h2.5v1.3h-2.5v5.2c0,1.2,0.3,1.9,1.3,1.9c0.5,0,0.8-0.1,1-0.1l0.1,1.3
		c-0.3,0.1-0.9,0.2-1.6,0.2c-0.8,0-1.5-0.3-1.9-0.7c-0.5-0.5-0.7-1.4-0.7-2.5v-5.3h-1.5v-1.3h1.5v-2.3L164.8,195.1z"/>
	<path class="st1" d="M173.6,193.4h1.8v6h0c0.3-0.5,0.7-0.9,1.3-1.2c0.5-0.3,1.1-0.5,1.8-0.5c1.3,0,3.4,0.8,3.4,4.1v5.8h-1.8V202
		c0-1.6-0.6-2.9-2.2-2.9c-1.1,0-2,0.8-2.4,1.8c-0.1,0.2-0.1,0.5-0.1,0.8v5.8h-1.8V193.4z"/>
	<path class="st1" d="M190,207.6l-0.1-1.2h-0.1c-0.5,0.8-1.6,1.4-3,1.4c-2,0-3-1.4-3-2.8c0-2.3,2.1-3.6,5.8-3.6v-0.2
		c0-0.8-0.2-2.2-2.2-2.2c-0.9,0-1.8,0.3-2.5,0.7l-0.4-1.2c0.8-0.5,2-0.9,3.2-0.9c3,0,3.7,2,3.7,4v3.6c0,0.8,0,1.7,0.2,2.3H190z
		 M189.8,202.7c-1.9,0-4.1,0.3-4.1,2.2c0,1.1,0.8,1.7,1.7,1.7c1.3,0,2.1-0.8,2.3-1.6c0.1-0.2,0.1-0.4,0.1-0.6V202.7z"/>
	<path class="st1" d="M194.3,200.9c0-1.1,0-2.1-0.1-3h1.5l0.1,1.9h0.1c0.4-1.3,1.5-2.1,2.7-2.1c0.2,0,0.3,0,0.5,0.1v1.7
		c-0.2,0-0.4-0.1-0.6-0.1c-1.2,0-2.1,0.9-2.4,2.3c0,0.2-0.1,0.5-0.1,0.8v5.2h-1.7V200.9z"/>
	<path class="st1" d="M209,193.4v11.7c0,0.9,0,1.8,0.1,2.5h-1.6l-0.1-1.7h0c-0.5,1.1-1.7,1.9-3.3,1.9c-2.3,0-4.1-2-4.1-4.9
		c0-3.2,2-5.2,4.3-5.2c1.5,0,2.5,0.7,2.9,1.5h0v-5.8H209z M207.3,201.9c0-0.2,0-0.5-0.1-0.7c-0.3-1.1-1.2-2-2.5-2
		c-1.8,0-2.9,1.6-2.9,3.7c0,2,1,3.6,2.9,3.6c1.2,0,2.3-0.8,2.6-2.1c0.1-0.2,0.1-0.5,0.1-0.8V201.9z"/>
	<path class="st1" d="M224.9,202.7c0,3.6-2.5,5.1-4.8,5.1c-2.6,0-4.6-1.9-4.6-5c0-3.2,2.1-5.1,4.8-5.1
		C223.1,197.7,224.9,199.7,224.9,202.7z M217.3,202.8c0,2.1,1.2,3.7,2.9,3.7c1.7,0,2.9-1.6,2.9-3.8c0-1.6-0.8-3.7-2.9-3.7
		S217.3,200.9,217.3,202.8z"/>
	<path class="st1" d="M227.2,200.5c0-1,0-1.8-0.1-2.6h1.6l0.1,1.6h0c0.5-0.9,1.6-1.8,3.2-1.8c1.3,0,3.4,0.8,3.4,4.1v5.8h-1.8V202
		c0-1.6-0.6-2.9-2.2-2.9c-1.2,0-2.1,0.8-2.4,1.8c-0.1,0.2-0.1,0.5-0.1,0.8v5.8h-1.8V200.5z"/>
	<path class="st1" d="M243.1,197.9l2.1,5.7c0.2,0.6,0.5,1.4,0.6,2h0c0.2-0.6,0.4-1.3,0.6-2l1.9-5.7h1.9l-2.6,6.9
		c-1.3,3.3-2.1,5-3.3,6.1c-0.9,0.8-1.7,1.1-2.2,1.1l-0.4-1.5c0.4-0.1,1-0.4,1.5-0.9c0.5-0.4,1.1-1.1,1.5-2c0.1-0.2,0.1-0.3,0.1-0.4
		c0-0.1,0-0.2-0.1-0.5l-3.6-8.9H243.1z"/>
	<path class="st1" d="M260.5,202.7c0,3.6-2.5,5.1-4.8,5.1c-2.6,0-4.6-1.9-4.6-5c0-3.2,2.1-5.1,4.8-5.1
		C258.6,197.7,260.5,199.7,260.5,202.7z M252.8,202.8c0,2.1,1.2,3.7,2.9,3.7c1.7,0,2.9-1.6,2.9-3.8c0-1.6-0.8-3.7-2.9-3.7
		C253.7,199,252.8,200.9,252.8,202.8z"/>
	<path class="st1" d="M270.8,205c0,1,0,1.9,0.1,2.6h-1.6l-0.1-1.6h0c-0.5,0.8-1.5,1.8-3.2,1.8c-1.5,0-3.3-0.8-3.3-4.2v-5.7h1.8v5.4
		c0,1.8,0.6,3.1,2.2,3.1c1.2,0,2-0.8,2.3-1.6c0.1-0.3,0.2-0.6,0.2-0.9v-5.9h1.8V205z"/>
	<path class="st1" d="M273.7,200.9c0-1.1,0-2.1-0.1-3h1.5l0.1,1.9h0.1c0.4-1.3,1.5-2.1,2.7-2.1c0.2,0,0.3,0,0.5,0.1v1.7
		c-0.2,0-0.4-0.1-0.6-0.1c-1.2,0-2.1,0.9-2.4,2.3c0,0.2-0.1,0.5-0.1,0.8v5.2h-1.7V200.9z"/>
	<path class="st1" d="M285.2,197.9l1.3,4.9c0.3,1.1,0.5,2.1,0.7,3.1h0.1c0.2-1,0.5-2,0.9-3.1l1.6-4.9h1.5l1.5,4.8
		c0.4,1.2,0.6,2.2,0.9,3.2h0.1c0.2-1,0.4-2,0.7-3.1l1.4-4.9h1.7l-3.1,9.7h-1.6l-1.5-4.6c-0.3-1.1-0.6-2-0.9-3.2h0
		c-0.2,1.2-0.5,2.2-0.9,3.2l-1.6,4.6h-1.6l-2.9-9.7H285.2z"/>
	<path class="st1" d="M300,203.1c0,2.4,1.6,3.4,3.3,3.4c1.3,0,2-0.2,2.7-0.5l0.3,1.3c-0.6,0.3-1.7,0.6-3.2,0.6c-3,0-4.8-2-4.8-4.9
		c0-2.9,1.7-5.2,4.5-5.2c3.2,0,4,2.8,4,4.6c0,0.4,0,0.6-0.1,0.8H300z M305.2,201.8c0-1.1-0.5-2.9-2.4-2.9c-1.8,0-2.6,1.6-2.7,2.9
		H305.2z"/>
	<path class="st1" d="M309,207.6c0-0.7,0.1-1.6,0.1-2.5v-11.7h1.7v6.1h0c0.6-1.1,1.7-1.8,3.3-1.8c2.4,0,4.1,2,4.1,4.9
		c0,3.5-2.2,5.2-4.3,5.2c-1.4,0-2.5-0.5-3.2-1.8h-0.1l-0.1,1.6H309z M310.8,203.7c0,0.2,0,0.4,0.1,0.6c0.3,1.2,1.4,2.1,2.6,2.1
		c1.8,0,2.9-1.5,2.9-3.7c0-1.9-1-3.6-2.9-3.6c-1.2,0-2.3,0.8-2.7,2.2c0,0.2-0.1,0.4-0.1,0.7V203.7z"/>
	<path class="st1" d="M320.2,205.8c0.5,0.3,1.4,0.7,2.3,0.7c1.3,0,1.9-0.6,1.9-1.4c0-0.8-0.5-1.3-1.8-1.8c-1.7-0.6-2.6-1.6-2.6-2.7
		c0-1.6,1.3-2.8,3.3-2.8c1,0,1.8,0.3,2.4,0.6l-0.4,1.3c-0.4-0.2-1.1-0.6-2-0.6c-1,0-1.6,0.6-1.6,1.3c0,0.8,0.6,1.2,1.8,1.6
		c1.7,0.6,2.5,1.5,2.5,2.9c0,1.7-1.3,2.9-3.6,2.9c-1.1,0-2-0.3-2.7-0.7L320.2,205.8z"/>
	<path class="st1" d="M330.3,195.2c0,0.6-0.4,1.1-1.1,1.1c-0.6,0-1.1-0.5-1.1-1.1c0-0.6,0.5-1.1,1.1-1.1
		C329.9,194.1,330.3,194.6,330.3,195.2z M328.3,207.6v-9.7h1.8v9.7H328.3z"/>
	<path class="st1" d="M335.1,195.1v2.8h2.5v1.3h-2.5v5.2c0,1.2,0.3,1.9,1.3,1.9c0.5,0,0.8-0.1,1-0.1l0.1,1.3
		c-0.3,0.1-0.9,0.2-1.6,0.2c-0.8,0-1.5-0.3-1.9-0.7c-0.5-0.5-0.7-1.4-0.7-2.5v-5.3h-1.5v-1.3h1.5v-2.3L335.1,195.1z"/>
	<path class="st1" d="M340.5,203.1c0,2.4,1.6,3.4,3.3,3.4c1.3,0,2-0.2,2.7-0.5l0.3,1.3c-0.6,0.3-1.7,0.6-3.2,0.6c-3,0-4.8-2-4.8-4.9
		c0-2.9,1.7-5.2,4.5-5.2c3.2,0,4,2.8,4,4.6c0,0.4,0,0.6-0.1,0.8H340.5z M345.7,201.8c0-1.1-0.5-2.9-2.4-2.9c-1.8,0-2.6,1.6-2.7,2.9
		H345.7z"/>
	<path class="st1" d="M58.3,221.9l1.9,5.4c0.3,0.9,0.6,1.7,0.8,2.5h0.1c0.2-0.8,0.5-1.6,0.8-2.5l1.9-5.4h1.8l-3.8,9.7h-1.7l-3.7-9.7
		H58.3z"/>
	<path class="st1" d="M69.2,219.2c0,0.6-0.4,1.1-1.1,1.1c-0.6,0-1.1-0.5-1.1-1.1c0-0.6,0.5-1.1,1.1-1.1
		C68.8,218.1,69.2,218.6,69.2,219.2z M67.3,231.6v-9.7H69v9.7H67.3z"/>
	<path class="st1" d="M71.7,229.8c0.5,0.3,1.4,0.7,2.3,0.7c1.3,0,1.9-0.6,1.9-1.4c0-0.8-0.5-1.3-1.8-1.8c-1.7-0.6-2.6-1.6-2.6-2.7
		c0-1.6,1.3-2.8,3.3-2.8c1,0,1.8,0.3,2.4,0.6l-0.4,1.3c-0.4-0.2-1.1-0.6-2-0.6c-1,0-1.6,0.6-1.6,1.3c0,0.8,0.6,1.2,1.8,1.6
		c1.7,0.6,2.5,1.5,2.5,2.9c0,1.7-1.3,2.9-3.6,2.9c-1.1,0-2-0.3-2.7-0.7L71.7,229.8z"/>
	<path class="st1" d="M81.8,219.2c0,0.6-0.4,1.1-1.1,1.1c-0.6,0-1.1-0.5-1.1-1.1c0-0.6,0.5-1.1,1.1-1.1
		C81.4,218.1,81.8,218.6,81.8,219.2z M79.9,231.6v-9.7h1.8v9.7H79.9z"/>
	<path class="st1" d="M86.7,219.1v2.8h2.5v1.3h-2.5v5.2c0,1.2,0.3,1.9,1.3,1.9c0.5,0,0.8-0.1,1-0.1l0.1,1.3
		c-0.3,0.1-0.9,0.2-1.6,0.2c-0.8,0-1.5-0.3-1.9-0.7c-0.5-0.5-0.7-1.4-0.7-2.5v-5.3h-1.5v-1.3h1.5v-2.3L86.7,219.1z"/>
	<path class="st1" d="M99.8,226.7c0,3.6-2.5,5.1-4.8,5.1c-2.6,0-4.6-1.9-4.6-5c0-3.2,2.1-5.1,4.8-5.1
		C97.9,221.7,99.8,223.7,99.8,226.7z M92.1,226.8c0,2.1,1.2,3.7,2.9,3.7c1.7,0,2.9-1.6,2.9-3.8c0-1.6-0.8-3.7-2.9-3.7
		C93,223,92.1,224.9,92.1,226.8z"/>
	<path class="st1" d="M102,224.9c0-1.1,0-2.1-0.1-3h1.5l0.1,1.9h0.1c0.4-1.3,1.5-2.1,2.7-2.1c0.2,0,0.3,0,0.5,0.1v1.7
		c-0.2,0-0.4-0.1-0.6-0.1c-1.2,0-2.1,0.9-2.4,2.3c0,0.2-0.1,0.5-0.1,0.8v5.2H102V224.9z"/>
	<path class="st1" d="M108.3,229.8c0.5,0.3,1.4,0.7,2.3,0.7c1.3,0,1.9-0.6,1.9-1.4c0-0.8-0.5-1.3-1.8-1.8c-1.7-0.6-2.6-1.6-2.6-2.7
		c0-1.6,1.3-2.8,3.3-2.8c1,0,1.8,0.3,2.4,0.6l-0.4,1.3c-0.4-0.2-1.1-0.6-2-0.6c-1,0-1.6,0.6-1.6,1.3c0,0.8,0.6,1.2,1.8,1.6
		c1.7,0.6,2.5,1.5,2.5,2.9c0,1.7-1.3,2.9-3.6,2.9c-1.1,0-2-0.3-2.7-0.7L108.3,229.8z"/>
	<path class="st1" d="M122.8,219.1v2.8h2.5v1.3h-2.5v5.2c0,1.2,0.3,1.9,1.3,1.9c0.5,0,0.8-0.1,1-0.1l0.1,1.3
		c-0.3,0.1-0.9,0.2-1.6,0.2c-0.8,0-1.5-0.3-1.9-0.7c-0.5-0.5-0.7-1.4-0.7-2.5v-5.3h-1.5v-1.3h1.5v-2.3L122.8,219.1z"/>
	<path class="st1" d="M136,226.7c0,3.6-2.5,5.1-4.8,5.1c-2.6,0-4.6-1.9-4.6-5c0-3.2,2.1-5.1,4.8-5.1
		C134.1,221.7,136,223.7,136,226.7z M128.3,226.8c0,2.1,1.2,3.7,2.9,3.7c1.7,0,2.9-1.6,2.9-3.8c0-1.6-0.8-3.7-2.9-3.7
		C129.2,223,128.3,224.9,128.3,226.8z"/>
	<path class="st1" d="M149.3,231.2c-0.5,0.2-1.5,0.6-2.8,0.6c-2.9,0-4.8-2-4.8-4.9c0-3,2-5.1,5.2-5.1c1,0,2,0.3,2.4,0.5l-0.4,1.4
		c-0.4-0.2-1.1-0.5-2-0.5c-2.2,0-3.4,1.6-3.4,3.7c0,2.2,1.4,3.6,3.4,3.6c1,0,1.7-0.3,2.2-0.5L149.3,231.2z"/>
	<path class="st1" d="M160,226.7c0,3.6-2.5,5.1-4.8,5.1c-2.6,0-4.6-1.9-4.6-5c0-3.2,2.1-5.1,4.8-5.1
		C158.2,221.7,160,223.7,160,226.7z M152.4,226.8c0,2.1,1.2,3.7,2.9,3.7c1.7,0,2.9-1.6,2.9-3.8c0-1.6-0.8-3.7-2.9-3.7
		C153.3,223,152.4,224.9,152.4,226.8z"/>
	<path class="st1" d="M162.3,224.5c0-1,0-1.8-0.1-2.6h1.6l0.1,1.6h0c0.5-0.9,1.6-1.8,3.2-1.8c1.3,0,3.4,0.8,3.4,4.1v5.8h-1.8V226
		c0-1.6-0.6-2.9-2.2-2.9c-1.2,0-2.1,0.8-2.4,1.8c-0.1,0.2-0.1,0.5-0.1,0.8v5.8h-1.8V224.5z"/>
	<path class="st1" d="M175.4,219.1v2.8h2.5v1.3h-2.5v5.2c0,1.2,0.3,1.9,1.3,1.9c0.5,0,0.8-0.1,1-0.1l0.1,1.3
		c-0.3,0.1-0.9,0.2-1.6,0.2c-0.8,0-1.5-0.3-1.9-0.7c-0.5-0.5-0.7-1.4-0.7-2.5v-5.3h-1.5v-1.3h1.5v-2.3L175.4,219.1z"/>
	<path class="st1" d="M185.3,231.6l-0.1-1.2h-0.1c-0.5,0.8-1.6,1.4-3,1.4c-2,0-3-1.4-3-2.8c0-2.3,2.1-3.6,5.8-3.6v-0.2
		c0-0.8-0.2-2.2-2.2-2.2c-0.9,0-1.8,0.3-2.5,0.7l-0.4-1.2c0.8-0.5,2-0.9,3.2-0.9c3,0,3.7,2,3.7,4v3.6c0,0.8,0,1.7,0.2,2.3H185.3z
		 M185,226.7c-1.9,0-4.1,0.3-4.1,2.2c0,1.1,0.8,1.7,1.7,1.7c1.3,0,2.1-0.8,2.3-1.6c0.1-0.2,0.1-0.4,0.1-0.6V226.7z"/>
	<path class="st1" d="M196.4,231.2c-0.5,0.2-1.5,0.6-2.8,0.6c-2.9,0-4.8-2-4.8-4.9c0-3,2-5.1,5.2-5.1c1,0,2,0.3,2.4,0.5l-0.4,1.4
		c-0.4-0.2-1.1-0.5-2-0.5c-2.2,0-3.4,1.6-3.4,3.7c0,2.2,1.4,3.6,3.4,3.6c1,0,1.7-0.3,2.2-0.5L196.4,231.2z"/>
	<path class="st1" d="M200.9,219.1v2.8h2.5v1.3h-2.5v5.2c0,1.2,0.3,1.9,1.3,1.9c0.5,0,0.8-0.1,1-0.1l0.1,1.3
		c-0.3,0.1-0.9,0.2-1.6,0.2c-0.8,0-1.5-0.3-1.9-0.7c-0.5-0.5-0.7-1.4-0.7-2.5v-5.3h-1.5v-1.3h1.5v-2.3L200.9,219.1z"/>
	<path class="st1" d="M210.3,221.9l2.1,5.7c0.2,0.6,0.5,1.4,0.6,2h0c0.2-0.6,0.4-1.3,0.6-2l1.9-5.7h1.9l-2.6,6.9
		c-1.3,3.3-2.1,5-3.3,6.1c-0.9,0.8-1.7,1.1-2.2,1.1l-0.4-1.5c0.4-0.1,1-0.4,1.5-0.9c0.5-0.4,1.1-1.1,1.5-2c0.1-0.2,0.1-0.3,0.1-0.4
		s0-0.2-0.1-0.5l-3.6-8.9H210.3z"/>
	<path class="st1" d="M227.6,226.7c0,3.6-2.5,5.1-4.8,5.1c-2.6,0-4.6-1.9-4.6-5c0-3.2,2.1-5.1,4.8-5.1
		C225.7,221.7,227.6,223.7,227.6,226.7z M219.9,226.8c0,2.1,1.2,3.7,2.9,3.7c1.7,0,2.9-1.6,2.9-3.8c0-1.6-0.8-3.7-2.9-3.7
		S219.9,224.9,219.9,226.8z"/>
	<path class="st1" d="M237.9,229c0,1,0,1.9,0.1,2.6h-1.6l-0.1-1.6h0c-0.5,0.8-1.5,1.8-3.2,1.8c-1.5,0-3.3-0.8-3.3-4.2v-5.7h1.8v5.4
		c0,1.8,0.6,3.1,2.2,3.1c1.2,0,2-0.8,2.3-1.6c0.1-0.3,0.2-0.6,0.2-0.9v-5.9h1.8V229z"/>
	<path class="st1" d="M240.8,224.9c0-1.1,0-2.1-0.1-3h1.5l0.1,1.9h0.1c0.4-1.3,1.5-2.1,2.7-2.1c0.2,0,0.3,0,0.5,0.1v1.7
		c-0.2,0-0.4-0.1-0.6-0.1c-1.2,0-2.1,0.9-2.4,2.3c0,0.2-0.1,0.5-0.1,0.8v5.2h-1.7V224.9z"/>
	<path class="st1" d="M251.6,225.1c0-1.2,0-2.2-0.1-3.2h1.6l0.1,1.7h0c0.7-1.2,1.9-1.9,3.4-1.9c2.3,0,4.1,2,4.1,4.9
		c0,3.5-2.1,5.2-4.4,5.2c-1.3,0-2.4-0.6-3-1.5h0v5.3h-1.7V225.1z M253.4,227.7c0,0.3,0,0.5,0.1,0.7c0.3,1.2,1.4,2.1,2.6,2.1
		c1.9,0,2.9-1.5,2.9-3.7c0-1.9-1-3.6-2.9-3.6c-1.2,0-2.3,0.9-2.7,2.2c-0.1,0.2-0.1,0.5-0.1,0.7V227.7z"/>
	<path class="st1" d="M263,224.9c0-1.1,0-2.1-0.1-3h1.5l0.1,1.9h0.1c0.4-1.3,1.5-2.1,2.7-2.1c0.2,0,0.3,0,0.5,0.1v1.7
		c-0.2,0-0.4-0.1-0.6-0.1c-1.2,0-2.1,0.9-2.4,2.3c0,0.2-0.1,0.5-0.1,0.8v5.2H263V224.9z"/>
	<path class="st1" d="M274.8,231.6l-0.1-1.2h-0.1c-0.5,0.8-1.6,1.4-3,1.4c-2,0-3-1.4-3-2.8c0-2.3,2.1-3.6,5.8-3.6v-0.2
		c0-0.8-0.2-2.2-2.2-2.2c-0.9,0-1.8,0.3-2.5,0.7l-0.4-1.2c0.8-0.5,2-0.9,3.2-0.9c3,0,3.7,2,3.7,4v3.6c0,0.8,0,1.7,0.2,2.3H274.8z
		 M274.5,226.7c-1.9,0-4.1,0.3-4.1,2.2c0,1.1,0.8,1.7,1.7,1.7c1.3,0,2.1-0.8,2.3-1.6c0.1-0.2,0.1-0.4,0.1-0.6V226.7z"/>
	<path class="st1" d="M286,231.2c-0.5,0.2-1.5,0.6-2.8,0.6c-2.9,0-4.8-2-4.8-4.9c0-3,2-5.1,5.2-5.1c1,0,2,0.3,2.4,0.5l-0.4,1.4
		c-0.4-0.2-1.1-0.5-2-0.5c-2.2,0-3.4,1.6-3.4,3.7c0,2.2,1.4,3.6,3.4,3.6c1,0,1.7-0.3,2.2-0.5L286,231.2z"/>
	<path class="st1" d="M290.4,219.1v2.8h2.5v1.3h-2.5v5.2c0,1.2,0.3,1.9,1.3,1.9c0.5,0,0.8-0.1,1-0.1l0.1,1.3
		c-0.3,0.1-0.9,0.2-1.6,0.2c-0.8,0-1.5-0.3-1.9-0.7c-0.5-0.5-0.7-1.4-0.7-2.5v-5.3h-1.5v-1.3h1.5v-2.3L290.4,219.1z"/>
	<path class="st1" d="M296.9,219.2c0,0.6-0.4,1.1-1.1,1.1c-0.6,0-1.1-0.5-1.1-1.1c0-0.6,0.5-1.1,1.1-1.1
		C296.5,218.1,296.9,218.6,296.9,219.2z M294.9,231.6v-9.7h1.8v9.7H294.9z"/>
	<path class="st1" d="M306.5,231.2c-0.5,0.2-1.5,0.6-2.8,0.6c-2.9,0-4.8-2-4.8-4.9c0-3,2-5.1,5.2-5.1c1,0,2,0.3,2.4,0.5l-0.4,1.4
		c-0.4-0.2-1.1-0.5-2-0.5c-2.2,0-3.4,1.6-3.4,3.7c0,2.2,1.4,3.6,3.4,3.6c1,0,1.7-0.3,2.2-0.5L306.5,231.2z"/>
	<path class="st1" d="M309.4,227.1c0,2.4,1.6,3.4,3.3,3.4c1.3,0,2-0.2,2.7-0.5l0.3,1.3c-0.6,0.3-1.7,0.6-3.2,0.6c-3,0-4.8-2-4.8-4.9
		c0-2.9,1.7-5.2,4.5-5.2c3.2,0,4,2.8,4,4.6c0,0.4,0,0.6-0.1,0.8H309.4z M314.6,225.8c0-1.1-0.5-2.9-2.4-2.9c-1.8,0-2.6,1.6-2.7,2.9
		H314.6z"/>
	<path class="st1" d="M317.8,230.6c0-0.7,0.5-1.3,1.2-1.3s1.2,0.5,1.2,1.3c0,0.7-0.5,1.3-1.2,1.3
		C318.3,231.8,317.8,231.3,317.8,230.6z"/>
	<path class="st1" d="M64.7,249.3h-5.2v4.9h5.8v1.5h-7.6v-13.5H65v1.5h-5.5v4.3h5.2V249.3z"/>
	<path class="st1" d="M68,245.9l1.9,5.4c0.3,0.9,0.6,1.7,0.8,2.5h0.1c0.2-0.8,0.5-1.6,0.8-2.5l1.9-5.4h1.8l-3.8,9.7h-1.7l-3.7-9.7
		H68z"/>
	<path class="st1" d="M77.7,251.1c0,2.4,1.6,3.4,3.3,3.4c1.3,0,2-0.2,2.7-0.5l0.3,1.3c-0.6,0.3-1.7,0.6-3.2,0.6c-3,0-4.8-2-4.8-4.9
		s1.7-5.2,4.5-5.2c3.2,0,4,2.8,4,4.6c0,0.4,0,0.6-0.1,0.8H77.7z M82.9,249.8c0-1.1-0.5-2.9-2.4-2.9c-1.8,0-2.6,1.6-2.7,2.9H82.9z"/>
	<path class="st1" d="M86.8,248.9c0-1.1,0-2.1-0.1-3h1.5l0.1,1.9h0.1c0.4-1.3,1.5-2.1,2.7-2.1c0.2,0,0.3,0,0.5,0.1v1.7
		c-0.2,0-0.4-0.1-0.6-0.1c-1.2,0-2.1,0.9-2.4,2.3c0,0.2-0.1,0.5-0.1,0.8v5.2h-1.7V248.9z"/>
	<path class="st1" d="M94.5,245.9l2.1,5.7c0.2,0.6,0.5,1.4,0.6,2h0c0.2-0.6,0.4-1.3,0.6-2l1.9-5.7h1.9l-2.6,6.9
		c-1.3,3.3-2.1,5-3.3,6.1c-0.9,0.8-1.7,1.1-2.2,1.1l-0.4-1.5c0.4-0.1,1-0.4,1.5-0.9c0.5-0.4,1.1-1.1,1.5-2c0.1-0.2,0.1-0.3,0.1-0.4
		s0-0.2-0.1-0.5l-3.6-8.9H94.5z"/>
	<path class="st1" d="M115.8,245.9c0,0.7-0.1,1.5-0.1,2.7v5.6c0,2.2-0.4,3.6-1.4,4.4c-0.9,0.9-2.3,1.2-3.5,1.2
		c-1.2,0-2.4-0.3-3.2-0.8l0.4-1.3c0.6,0.4,1.6,0.8,2.8,0.8c1.8,0,3.1-0.9,3.1-3.4v-1.1h0c-0.5,0.9-1.6,1.6-3.1,1.6
		c-2.4,0-4.1-2-4.1-4.7c0-3.3,2.1-5.1,4.4-5.1c1.7,0,2.6,0.9,3,1.7h0l0.1-1.5H115.8z M114,249.7c0-0.3,0-0.6-0.1-0.8
		c-0.3-1-1.2-1.9-2.5-1.9c-1.7,0-2.9,1.4-2.9,3.7c0,1.9,1,3.5,2.9,3.5c1.1,0,2.1-0.7,2.4-1.8c0.1-0.3,0.1-0.6,0.1-0.9V249.7z"/>
	<path class="st1" d="M124,255.6l-0.1-1.2h-0.1c-0.5,0.8-1.6,1.4-3,1.4c-2,0-3-1.4-3-2.8c0-2.3,2.1-3.6,5.8-3.6v-0.2
		c0-0.8-0.2-2.2-2.2-2.2c-0.9,0-1.8,0.3-2.5,0.7l-0.4-1.2c0.8-0.5,2-0.9,3.2-0.9c3,0,3.7,2,3.7,4v3.6c0,0.8,0,1.7,0.2,2.3H124z
		 M123.8,250.7c-1.9,0-4.1,0.3-4.1,2.2c0,1.1,0.8,1.7,1.7,1.7c1.3,0,2.1-0.8,2.3-1.6c0.1-0.2,0.1-0.4,0.1-0.6V250.7z"/>
	<path class="st1" d="M128.3,241.4h1.8v14.2h-1.8V241.4z"/>
	<path class="st1" d="M133,241.4h1.8v14.2H133V241.4z"/>
	<path class="st1" d="M138.7,251.1c0,2.4,1.6,3.4,3.3,3.4c1.3,0,2-0.2,2.7-0.5l0.3,1.3c-0.6,0.3-1.7,0.6-3.2,0.6c-3,0-4.8-2-4.8-4.9
		s1.7-5.2,4.5-5.2c3.2,0,4,2.8,4,4.6c0,0.4,0,0.6-0.1,0.8H138.7z M143.9,249.8c0-1.1-0.5-2.9-2.4-2.9c-1.8,0-2.6,1.6-2.7,2.9H143.9z
		"/>
	<path class="st1" d="M147.8,248.9c0-1.1,0-2.1-0.1-3h1.5l0.1,1.9h0.1c0.4-1.3,1.5-2.1,2.7-2.1c0.2,0,0.3,0,0.5,0.1v1.7
		c-0.2,0-0.4-0.1-0.6-0.1c-1.2,0-2.1,0.9-2.4,2.3c0,0.2-0.1,0.5-0.1,0.8v5.2h-1.7V248.9z"/>
	<path class="st1" d="M155.4,245.9l2.1,5.7c0.2,0.6,0.5,1.4,0.6,2h0c0.2-0.6,0.4-1.3,0.6-2l1.9-5.7h1.9l-2.6,6.9
		c-1.3,3.3-2.1,5-3.3,6.1c-0.9,0.8-1.7,1.1-2.2,1.1l-0.4-1.5c0.4-0.1,1-0.4,1.5-0.9c0.5-0.4,1.1-1.1,1.5-2c0.1-0.2,0.1-0.3,0.1-0.4
		s0-0.2-0.1-0.5l-3.6-8.9H155.4z"/>
	<path class="st1" d="M168.5,249.1c0-1.2,0-2.2-0.1-3.2h1.6l0.1,1.7h0c0.7-1.2,1.9-1.9,3.4-1.9c2.3,0,4.1,2,4.1,4.9
		c0,3.5-2.1,5.2-4.4,5.2c-1.3,0-2.4-0.6-3-1.5h0v5.3h-1.7V249.1z M170.2,251.7c0,0.3,0,0.5,0.1,0.7c0.3,1.2,1.4,2.1,2.6,2.1
		c1.9,0,2.9-1.5,2.9-3.7c0-1.9-1-3.6-2.9-3.6c-1.2,0-2.3,0.9-2.7,2.2c-0.1,0.2-0.1,0.5-0.1,0.7V251.7z"/>
	<path class="st1" d="M185.2,255.6l-0.1-1.2H185c-0.5,0.8-1.6,1.4-3,1.4c-2,0-3-1.4-3-2.8c0-2.3,2.1-3.6,5.8-3.6v-0.2
		c0-0.8-0.2-2.2-2.2-2.2c-0.9,0-1.8,0.3-2.5,0.7l-0.4-1.2c0.8-0.5,2-0.9,3.2-0.9c3,0,3.7,2,3.7,4v3.6c0,0.8,0,1.7,0.2,2.3H185.2z
		 M184.9,250.7c-1.9,0-4.1,0.3-4.1,2.2c0,1.1,0.8,1.7,1.7,1.7c1.3,0,2.1-0.8,2.3-1.6c0.1-0.2,0.1-0.4,0.1-0.6V250.7z"/>
	<path class="st1" d="M197.8,245.9c0,0.7-0.1,1.5-0.1,2.7v5.6c0,2.2-0.4,3.6-1.4,4.4c-0.9,0.9-2.3,1.2-3.5,1.2
		c-1.2,0-2.4-0.3-3.2-0.8l0.4-1.3c0.6,0.4,1.6,0.8,2.8,0.8c1.8,0,3.1-0.9,3.1-3.4v-1.1h0c-0.5,0.9-1.6,1.6-3.1,1.6
		c-2.4,0-4.1-2-4.1-4.7c0-3.3,2.1-5.1,4.4-5.1c1.7,0,2.6,0.9,3,1.7h0l0.1-1.5H197.8z M196,249.7c0-0.3,0-0.6-0.1-0.8
		c-0.3-1-1.2-1.9-2.5-1.9c-1.7,0-2.9,1.4-2.9,3.7c0,1.9,1,3.5,2.9,3.5c1.1,0,2.1-0.7,2.4-1.8c0.1-0.3,0.1-0.6,0.1-0.9V249.7z"/>
	<path class="st1" d="M201.6,251.1c0,2.4,1.6,3.4,3.3,3.4c1.3,0,2-0.2,2.7-0.5l0.3,1.3c-0.6,0.3-1.7,0.6-3.2,0.6c-3,0-4.8-2-4.8-4.9
		s1.7-5.2,4.5-5.2c3.2,0,4,2.8,4,4.6c0,0.4,0,0.6-0.1,0.8H201.6z M206.8,249.8c0-1.1-0.5-2.9-2.4-2.9c-1.8,0-2.6,1.6-2.7,2.9H206.8z
		"/>
	<path class="st1" d="M216.9,243.2c0,0.6-0.4,1.1-1.1,1.1c-0.6,0-1.1-0.5-1.1-1.1c0-0.6,0.5-1.1,1.1-1.1
		C216.5,242.1,216.9,242.6,216.9,243.2z M214.9,255.6v-9.7h1.8v9.7H214.9z"/>
	<path class="st1" d="M219.6,248.5c0-1,0-1.8-0.1-2.6h1.6l0.1,1.6h0c0.5-0.9,1.6-1.8,3.2-1.8c1.3,0,3.4,0.8,3.4,4.1v5.8h-1.8V250
		c0-1.6-0.6-2.9-2.2-2.9c-1.2,0-2.1,0.8-2.4,1.8c-0.1,0.2-0.1,0.5-0.1,0.8v5.8h-1.8V248.5z"/>
	<path class="st1" d="M237.6,255.2c-0.5,0.2-1.5,0.6-2.8,0.6c-2.9,0-4.8-2-4.8-4.9c0-3,2-5.1,5.2-5.1c1,0,2,0.3,2.4,0.5l-0.4,1.4
		c-0.4-0.2-1.1-0.5-2-0.5c-2.2,0-3.4,1.6-3.4,3.7c0,2.2,1.4,3.6,3.4,3.6c1,0,1.7-0.3,2.2-0.5L237.6,255.2z"/>
	<path class="st1" d="M239.7,241.4h1.8v14.2h-1.8V241.4z"/>
	<path class="st1" d="M252.5,253c0,1,0,1.9,0.1,2.6H251l-0.1-1.6h0c-0.5,0.8-1.5,1.8-3.2,1.8c-1.5,0-3.3-0.8-3.3-4.2v-5.7h1.8v5.4
		c0,1.8,0.6,3.1,2.2,3.1c1.2,0,2-0.8,2.3-1.6c0.1-0.3,0.2-0.6,0.2-0.9v-5.9h1.8V253z"/>
	<path class="st1" d="M263.8,241.4v11.7c0,0.9,0,1.8,0.1,2.5h-1.6l-0.1-1.7h0c-0.5,1.1-1.7,1.9-3.3,1.9c-2.3,0-4.1-2-4.1-4.9
		c0-3.2,2-5.2,4.3-5.2c1.5,0,2.5,0.7,2.9,1.5h0v-5.8H263.8z M262,249.9c0-0.2,0-0.5-0.1-0.7c-0.3-1.1-1.2-2-2.5-2
		c-1.8,0-2.9,1.6-2.9,3.7c0,2,1,3.6,2.9,3.6c1.2,0,2.3-0.8,2.6-2.1c0.1-0.2,0.1-0.5,0.1-0.8V249.9z"/>
	<path class="st1" d="M267.7,251.1c0,2.4,1.6,3.4,3.3,3.4c1.3,0,2-0.2,2.7-0.5l0.3,1.3c-0.6,0.3-1.7,0.6-3.2,0.6c-3,0-4.8-2-4.8-4.9
		s1.7-5.2,4.5-5.2c3.2,0,4,2.8,4,4.6c0,0.4,0,0.6-0.1,0.8H267.7z M272.8,249.8c0-1.1-0.5-2.9-2.4-2.9c-1.8,0-2.6,1.6-2.7,2.9H272.8z
		"/>
	<path class="st1" d="M276.5,253.8c0.5,0.3,1.4,0.7,2.3,0.7c1.3,0,1.9-0.6,1.9-1.4c0-0.8-0.5-1.3-1.8-1.8c-1.7-0.6-2.6-1.6-2.6-2.7
		c0-1.6,1.3-2.8,3.3-2.8c1,0,1.8,0.3,2.4,0.6l-0.4,1.3c-0.4-0.2-1.1-0.6-2-0.6c-1,0-1.6,0.6-1.6,1.3c0,0.8,0.6,1.2,1.8,1.6
		c1.7,0.6,2.5,1.5,2.5,2.9c0,1.7-1.3,2.9-3.6,2.9c-1.1,0-2-0.3-2.7-0.7L276.5,253.8z"/>
	<path class="st1" d="M294.2,255.6l-0.1-1.2H294c-0.5,0.8-1.6,1.4-3,1.4c-2,0-3-1.4-3-2.8c0-2.3,2.1-3.6,5.8-3.6v-0.2
		c0-0.8-0.2-2.2-2.2-2.2c-0.9,0-1.8,0.3-2.5,0.7l-0.4-1.2c0.8-0.5,2-0.9,3.2-0.9c3,0,3.7,2,3.7,4v3.6c0,0.8,0,1.7,0.2,2.3H294.2z
		 M294,250.7c-1.9,0-4.1,0.3-4.1,2.2c0,1.1,0.8,1.7,1.7,1.7c1.3,0,2.1-0.8,2.3-1.6c0.1-0.2,0.1-0.4,0.1-0.6V250.7z"/>
	<path class="st1" d="M64.5,279.2c-0.5,0.2-1.5,0.6-2.8,0.6c-2.9,0-4.8-2-4.8-4.9c0-3,2-5.1,5.2-5.1c1,0,2,0.3,2.4,0.5l-0.4,1.4
		c-0.4-0.2-1.1-0.5-2-0.5c-2.2,0-3.4,1.6-3.4,3.7c0,2.2,1.4,3.6,3.4,3.6c1,0,1.7-0.3,2.2-0.5L64.5,279.2z"/>
	<path class="st1" d="M75.2,274.7c0,3.6-2.5,5.1-4.8,5.1c-2.6,0-4.6-1.9-4.6-5c0-3.2,2.1-5.1,4.8-5.1
		C73.4,269.7,75.2,271.7,75.2,274.7z M67.6,274.8c0,2.1,1.2,3.7,2.9,3.7c1.7,0,2.9-1.6,2.9-3.8c0-1.6-0.8-3.7-2.9-3.7
		C68.5,271,67.6,272.9,67.6,274.8z"/>
	<path class="st1" d="M77.5,272.5c0-1,0-1.8-0.1-2.6h1.6l0.1,1.6h0c0.5-0.9,1.6-1.8,3.2-1.8c1.3,0,3.4,0.8,3.4,4.1v5.8h-1.8V274
		c0-1.6-0.6-2.9-2.2-2.9c-1.2,0-2.1,0.8-2.4,1.8c-0.1,0.2-0.1,0.5-0.1,0.8v5.8h-1.8V272.5z"/>
	<path class="st1" d="M90.6,267.1v2.8h2.5v1.3h-2.5v5.2c0,1.2,0.3,1.9,1.3,1.9c0.5,0,0.8-0.1,1-0.1l0.1,1.3
		c-0.3,0.1-0.9,0.2-1.6,0.2c-0.8,0-1.5-0.3-1.9-0.7c-0.5-0.5-0.7-1.4-0.7-2.5v-5.3h-1.5v-1.3h1.5v-2.3L90.6,267.1z"/>
	<path class="st1" d="M100.5,279.6l-0.1-1.2h-0.1c-0.5,0.8-1.6,1.4-3,1.4c-2,0-3-1.4-3-2.8c0-2.3,2.1-3.6,5.8-3.6v-0.2
		c0-0.8-0.2-2.2-2.2-2.2c-0.9,0-1.8,0.3-2.5,0.7l-0.4-1.2c0.8-0.5,2-0.9,3.2-0.9c3,0,3.7,2,3.7,4v3.6c0,0.8,0,1.7,0.2,2.3H100.5z
		 M100.2,274.7c-1.9,0-4.1,0.3-4.1,2.2c0,1.1,0.8,1.7,1.7,1.7c1.3,0,2.1-0.8,2.3-1.6c0.1-0.2,0.1-0.4,0.1-0.6V274.7z"/>
	<path class="st1" d="M111.6,279.2c-0.5,0.2-1.5,0.6-2.8,0.6c-2.9,0-4.8-2-4.8-4.9c0-3,2-5.1,5.2-5.1c1,0,2,0.3,2.4,0.5l-0.4,1.4
		c-0.4-0.2-1.1-0.5-2-0.5c-2.2,0-3.4,1.6-3.4,3.7c0,2.2,1.4,3.6,3.4,3.6c1,0,1.7-0.3,2.2-0.5L111.6,279.2z"/>
	<path class="st1" d="M116.1,267.1v2.8h2.5v1.3h-2.5v5.2c0,1.2,0.3,1.9,1.3,1.9c0.5,0,0.8-0.1,1-0.1l0.1,1.3
		c-0.3,0.1-0.9,0.2-1.6,0.2c-0.8,0-1.5-0.3-1.9-0.7c-0.5-0.5-0.7-1.4-0.7-2.5v-5.3h-1.5v-1.3h1.5v-2.3L116.1,267.1z"/>
	<path class="st1" d="M125,279.6v-8.3h-1.4v-1.3h1.4v-0.5c0-1.4,0.3-2.6,1.1-3.4c0.7-0.6,1.5-0.9,2.4-0.9c0.6,0,1.2,0.1,1.5,0.3
		l-0.2,1.4c-0.3-0.1-0.6-0.2-1.1-0.2c-1.5,0-1.9,1.3-1.9,2.8v0.5h2.3v1.3h-2.3v8.3H125z"/>
	<path class="st1" d="M139.2,274.7c0,3.6-2.5,5.1-4.8,5.1c-2.6,0-4.6-1.9-4.6-5c0-3.2,2.1-5.1,4.8-5.1
		C137.3,269.7,139.2,271.7,139.2,274.7z M131.5,274.8c0,2.1,1.2,3.7,2.9,3.7c1.7,0,2.9-1.6,2.9-3.8c0-1.6-0.8-3.7-2.9-3.7
		C132.4,271,131.5,272.9,131.5,274.8z"/>
	<path class="st1" d="M141.4,272.9c0-1.1,0-2.1-0.1-3h1.5l0.1,1.9h0.1c0.4-1.3,1.5-2.1,2.7-2.1c0.2,0,0.3,0,0.5,0.1v1.7
		c-0.2,0-0.4-0.1-0.6-0.1c-1.2,0-2.1,0.9-2.4,2.3c0,0.2-0.1,0.5-0.1,0.8v5.2h-1.7V272.9z"/>
	<path class="st1" d="M148,272.5c0-1,0-1.8-0.1-2.6h1.5l0.1,1.6h0.1c0.5-0.9,1.4-1.8,3-1.8c1.3,0,2.3,0.8,2.7,1.9h0
		c0.3-0.5,0.7-1,1.1-1.3c0.6-0.4,1.2-0.7,2.1-0.7c1.3,0,3.2,0.8,3.2,4.2v5.7h-1.7v-5.5c0-1.9-0.7-3-2.1-3c-1,0-1.8,0.7-2.1,1.6
		c-0.1,0.2-0.1,0.6-0.1,0.9v6h-1.7v-5.8c0-1.5-0.7-2.7-2-2.7c-1.1,0-1.9,0.9-2.2,1.8c-0.1,0.3-0.1,0.6-0.1,0.9v5.8H148V272.5z"/>
	<path class="st1" d="M168.7,277.8c0.5,0.3,1.4,0.7,2.3,0.7c1.3,0,1.9-0.6,1.9-1.4c0-0.8-0.5-1.3-1.8-1.8c-1.7-0.6-2.6-1.6-2.6-2.7
		c0-1.6,1.3-2.8,3.3-2.8c1,0,1.8,0.3,2.4,0.6l-0.4,1.3c-0.4-0.2-1.1-0.6-2-0.6c-1,0-1.6,0.6-1.6,1.3c0,0.8,0.6,1.2,1.8,1.6
		c1.7,0.6,2.5,1.5,2.5,2.9c0,1.7-1.3,2.9-3.6,2.9c-1.1,0-2-0.3-2.7-0.7L168.7,277.8z"/>
	<path class="st1" d="M185.6,274.7c0,3.6-2.5,5.1-4.8,5.1c-2.6,0-4.6-1.9-4.6-5c0-3.2,2.1-5.1,4.8-5.1
		C183.7,269.7,185.6,271.7,185.6,274.7z M177.9,274.8c0,2.1,1.2,3.7,2.9,3.7c1.7,0,2.9-1.6,2.9-3.8c0-1.6-0.8-3.7-2.9-3.7
		C178.8,271,177.9,272.9,177.9,274.8z"/>
	<path class="st1" d="M192.1,273.1c0-1.2,0-2.2-0.1-3.2h1.6l0.1,1.7h0c0.7-1.2,1.9-1.9,3.4-1.9c2.3,0,4.1,2,4.1,4.9
		c0,3.5-2.1,5.2-4.4,5.2c-1.3,0-2.4-0.6-3-1.5h0v5.3h-1.7V273.1z M193.8,275.7c0,0.3,0,0.5,0.1,0.7c0.3,1.2,1.4,2.1,2.6,2.1
		c1.9,0,2.9-1.5,2.9-3.7c0-1.9-1-3.6-2.9-3.6c-1.2,0-2.3,0.9-2.7,2.2c-0.1,0.2-0.1,0.5-0.1,0.7V275.7z"/>
	<path class="st1" d="M208.8,279.6l-0.1-1.2h-0.1c-0.5,0.8-1.6,1.4-3,1.4c-2,0-3-1.4-3-2.8c0-2.3,2.1-3.6,5.8-3.6v-0.2
		c0-0.8-0.2-2.2-2.2-2.2c-0.9,0-1.8,0.3-2.5,0.7l-0.4-1.2c0.8-0.5,2-0.9,3.2-0.9c3,0,3.7,2,3.7,4v3.6c0,0.8,0,1.7,0.2,2.3H208.8z
		 M208.5,274.7c-1.9,0-4.1,0.3-4.1,2.2c0,1.1,0.8,1.7,1.7,1.7c1.3,0,2.1-0.8,2.3-1.6c0.1-0.2,0.1-0.4,0.1-0.6V274.7z"/>
	<path class="st1" d="M215.1,267.1v2.8h2.5v1.3h-2.5v5.2c0,1.2,0.3,1.9,1.3,1.9c0.5,0,0.8-0.1,1-0.1l0.1,1.3
		c-0.3,0.1-0.9,0.2-1.6,0.2c-0.8,0-1.5-0.3-1.9-0.7c-0.5-0.5-0.7-1.4-0.7-2.5v-5.3h-1.5v-1.3h1.5v-2.3L215.1,267.1z"/>
	<path class="st1" d="M221.6,267.2c0,0.6-0.4,1.1-1.1,1.1c-0.6,0-1.1-0.5-1.1-1.1c0-0.6,0.5-1.1,1.1-1.1
		C221.2,266.1,221.6,266.6,221.6,267.2z M219.6,279.6v-9.7h1.8v9.7H219.6z"/>
	<path class="st1" d="M225.3,275.1c0,2.4,1.6,3.4,3.3,3.4c1.3,0,2-0.2,2.7-0.5l0.3,1.3c-0.6,0.3-1.7,0.6-3.2,0.6c-3,0-4.8-2-4.8-4.9
		s1.7-5.2,4.5-5.2c3.2,0,4,2.8,4,4.6c0,0.4,0,0.6-0.1,0.8H225.3z M230.4,273.8c0-1.1-0.5-2.9-2.4-2.9c-1.8,0-2.6,1.6-2.7,2.9H230.4z
		"/>
	<path class="st1" d="M234.3,272.5c0-1,0-1.8-0.1-2.6h1.6l0.1,1.6h0c0.5-0.9,1.6-1.8,3.2-1.8c1.3,0,3.4,0.8,3.4,4.1v5.8h-1.8V274
		c0-1.6-0.6-2.9-2.2-2.9c-1.2,0-2.1,0.8-2.4,1.8c-0.1,0.2-0.1,0.5-0.1,0.8v5.8h-1.8V272.5z"/>
	<path class="st1" d="M247.5,267.1v2.8h2.5v1.3h-2.5v5.2c0,1.2,0.3,1.9,1.3,1.9c0.5,0,0.8-0.1,1-0.1l0.1,1.3
		c-0.3,0.1-0.9,0.2-1.6,0.2c-0.8,0-1.5-0.3-1.9-0.7c-0.5-0.5-0.7-1.4-0.7-2.5v-5.3h-1.5v-1.3h1.5v-2.3L247.5,267.1z"/>
	<path class="st1" d="M251.7,277.8c0.5,0.3,1.4,0.7,2.3,0.7c1.3,0,1.9-0.6,1.9-1.4c0-0.8-0.5-1.3-1.8-1.8c-1.7-0.6-2.6-1.6-2.6-2.7
		c0-1.6,1.3-2.8,3.3-2.8c1,0,1.8,0.3,2.4,0.6l-0.4,1.3c-0.4-0.2-1.1-0.6-2-0.6c-1,0-1.6,0.6-1.6,1.3c0,0.8,0.6,1.2,1.8,1.6
		c1.7,0.6,2.5,1.5,2.5,2.9c0,1.7-1.3,2.9-3.6,2.9c-1.1,0-2-0.3-2.7-0.7L251.7,277.8z"/>
	<path class="st1" d="M271,279.2c-0.5,0.2-1.5,0.6-2.8,0.6c-2.9,0-4.8-2-4.8-4.9c0-3,2-5.1,5.2-5.1c1,0,2,0.3,2.4,0.5l-0.4,1.4
		c-0.4-0.2-1.1-0.5-2-0.5c-2.2,0-3.4,1.6-3.4,3.7c0,2.2,1.4,3.6,3.4,3.6c1,0,1.7-0.3,2.2-0.5L271,279.2z"/>
	<path class="st1" d="M278.4,279.6l-0.1-1.2h-0.1c-0.5,0.8-1.6,1.4-3,1.4c-2,0-3-1.4-3-2.8c0-2.3,2.1-3.6,5.8-3.6v-0.2
		c0-0.8-0.2-2.2-2.2-2.2c-0.9,0-1.8,0.3-2.5,0.7l-0.4-1.2c0.8-0.5,2-0.9,3.2-0.9c3,0,3.7,2,3.7,4v3.6c0,0.8,0,1.7,0.2,2.3H278.4z
		 M278.2,274.7c-1.9,0-4.1,0.3-4.1,2.2c0,1.1,0.8,1.7,1.7,1.7c1.3,0,2.1-0.8,2.3-1.6c0.1-0.2,0.1-0.4,0.1-0.6V274.7z"/>
	<path class="st1" d="M282.7,272.5c0-1,0-1.8-0.1-2.6h1.6l0.1,1.6h0c0.5-0.9,1.6-1.8,3.2-1.8c1.3,0,3.4,0.8,3.4,4.1v5.8h-1.8V274
		c0-1.6-0.6-2.9-2.2-2.9c-1.2,0-2.1,0.8-2.4,1.8c-0.1,0.2-0.1,0.5-0.1,0.8v5.8h-1.8V272.5z"/>
	<path class="st1" d="M57.4,301.8c0.5,0.3,1.4,0.7,2.3,0.7c1.3,0,1.9-0.6,1.9-1.4c0-0.8-0.5-1.3-1.8-1.8c-1.7-0.6-2.6-1.6-2.6-2.7
		c0-1.6,1.3-2.8,3.3-2.8c1,0,1.8,0.3,2.4,0.6l-0.4,1.3c-0.4-0.2-1.1-0.6-2-0.6c-1,0-1.6,0.6-1.6,1.3c0,0.8,0.6,1.2,1.8,1.6
		c1.7,0.6,2.5,1.5,2.5,2.9c0,1.7-1.3,2.9-3.6,2.9c-1.1,0-2-0.3-2.7-0.7L57.4,301.8z"/>
	<path class="st1" d="M72.5,303.2c-0.5,0.2-1.5,0.6-2.8,0.6c-2.9,0-4.8-2-4.8-4.9c0-3,2-5.1,5.2-5.1c1,0,2,0.3,2.4,0.5l-0.4,1.4
		c-0.4-0.2-1.1-0.5-2-0.5c-2.2,0-3.4,1.6-3.4,3.7c0,2.2,1.4,3.6,3.4,3.6c1,0,1.7-0.3,2.2-0.5L72.5,303.2z"/>
	<path class="st1" d="M74.5,289.4h1.8v6h0c0.3-0.5,0.7-0.9,1.3-1.2c0.5-0.3,1.1-0.5,1.8-0.5c1.3,0,3.4,0.8,3.4,4.1v5.8H81V298
		c0-1.6-0.6-2.9-2.2-2.9c-1.1,0-2,0.8-2.4,1.8c-0.1,0.2-0.1,0.5-0.1,0.8v5.8h-1.8V289.4z"/>
	<path class="st1" d="M86.6,299.1c0,2.4,1.6,3.4,3.3,3.4c1.3,0,2-0.2,2.7-0.5l0.3,1.3c-0.6,0.3-1.7,0.6-3.2,0.6c-3,0-4.8-2-4.8-4.9
		c0-2.9,1.7-5.2,4.5-5.2c3.2,0,4,2.8,4,4.6c0,0.4,0,0.6-0.1,0.8H86.6z M91.8,297.8c0-1.1-0.5-2.9-2.4-2.9c-1.8,0-2.6,1.6-2.7,2.9
		H91.8z"/>
	<path class="st1" d="M104,289.4v11.7c0,0.9,0,1.8,0.1,2.5h-1.6l-0.1-1.7h0c-0.5,1.1-1.7,1.9-3.3,1.9c-2.3,0-4.1-2-4.1-4.9
		c0-3.2,2-5.2,4.3-5.2c1.5,0,2.5,0.7,2.9,1.5h0v-5.8H104z M102.2,297.9c0-0.2,0-0.5-0.1-0.7c-0.3-1.1-1.2-2-2.5-2
		c-1.8,0-2.9,1.6-2.9,3.7c0,2,1,3.6,2.9,3.6c1.2,0,2.3-0.8,2.6-2.1c0.1-0.2,0.1-0.5,0.1-0.8V297.9z"/>
	<path class="st1" d="M115,301c0,1,0,1.9,0.1,2.6h-1.6l-0.1-1.6h0c-0.5,0.8-1.5,1.8-3.2,1.8c-1.5,0-3.3-0.8-3.3-4.2v-5.7h1.8v5.4
		c0,1.8,0.6,3.1,2.2,3.1c1.2,0,2-0.8,2.3-1.6c0.1-0.3,0.2-0.6,0.2-0.9v-5.9h1.8V301z"/>
	<path class="st1" d="M117.9,289.4h1.8v14.2h-1.8V289.4z"/>
	<path class="st1" d="M123.6,299.1c0,2.4,1.6,3.4,3.3,3.4c1.3,0,2-0.2,2.7-0.5l0.3,1.3c-0.6,0.3-1.7,0.6-3.2,0.6c-3,0-4.8-2-4.8-4.9
		c0-2.9,1.7-5.2,4.5-5.2c3.2,0,4,2.8,4,4.6c0,0.4,0,0.6-0.1,0.8H123.6z M128.8,297.8c0-1.1-0.5-2.9-2.4-2.9c-1.8,0-2.6,1.6-2.7,2.9
		H128.8z"/>
	<path class="st1" d="M142.3,303.6l-0.1-1.2h-0.1c-0.5,0.8-1.6,1.4-3,1.4c-2,0-3-1.4-3-2.8c0-2.3,2.1-3.6,5.8-3.6v-0.2
		c0-0.8-0.2-2.2-2.2-2.2c-0.9,0-1.8,0.3-2.5,0.7l-0.4-1.2c0.8-0.5,2-0.9,3.2-0.9c3,0,3.7,2,3.7,4v3.6c0,0.8,0,1.7,0.2,2.3H142.3z
		 M142,298.7c-1.9,0-4.1,0.3-4.1,2.2c0,1.1,0.8,1.7,1.7,1.7c1.3,0,2.1-0.8,2.3-1.6c0.1-0.2,0.1-0.4,0.1-0.6V298.7z"/>
	<path class="st1" d="M157.7,303.2c-0.5,0.2-1.5,0.6-2.8,0.6c-2.9,0-4.8-2-4.8-4.9c0-3,2-5.1,5.2-5.1c1,0,2,0.3,2.4,0.5l-0.4,1.4
		c-0.4-0.2-1.1-0.5-2-0.5c-2.2,0-3.4,1.6-3.4,3.7c0,2.2,1.4,3.6,3.4,3.6c1,0,1.7-0.3,2.2-0.5L157.7,303.2z"/>
	<path class="st1" d="M168.4,298.7c0,3.6-2.5,5.1-4.8,5.1c-2.6,0-4.6-1.9-4.6-5c0-3.2,2.1-5.1,4.8-5.1
		C166.5,293.7,168.4,295.7,168.4,298.7z M160.7,298.8c0,2.1,1.2,3.7,2.9,3.7c1.7,0,2.9-1.6,2.9-3.8c0-1.6-0.8-3.7-2.9-3.7
		C161.6,295,160.7,296.9,160.7,298.8z"/>
	<path class="st1" d="M170.6,296.5c0-1,0-1.8-0.1-2.6h1.6l0.1,1.6h0c0.5-0.9,1.6-1.8,3.2-1.8c1.3,0,3.4,0.8,3.4,4.1v5.8h-1.8V298
		c0-1.6-0.6-2.9-2.2-2.9c-1.2,0-2.1,0.8-2.4,1.8c-0.1,0.2-0.1,0.5-0.1,0.8v5.8h-1.8V296.5z"/>
	<path class="st1" d="M181.5,301.8c0.5,0.3,1.4,0.7,2.3,0.7c1.3,0,1.9-0.6,1.9-1.4c0-0.8-0.5-1.3-1.8-1.8c-1.7-0.6-2.6-1.6-2.6-2.7
		c0-1.6,1.3-2.8,3.3-2.8c1,0,1.8,0.3,2.4,0.6l-0.4,1.3c-0.4-0.2-1.1-0.6-2-0.6c-1,0-1.6,0.6-1.6,1.3c0,0.8,0.6,1.2,1.8,1.6
		c1.7,0.6,2.5,1.5,2.5,2.9c0,1.7-1.3,2.9-3.6,2.9c-1.1,0-2-0.3-2.7-0.7L181.5,301.8z"/>
	<path class="st1" d="M197.7,301c0,1,0,1.9,0.1,2.6h-1.6l-0.1-1.6h0c-0.5,0.8-1.5,1.8-3.2,1.8c-1.5,0-3.3-0.8-3.3-4.2v-5.7h1.8v5.4
		c0,1.8,0.6,3.1,2.2,3.1c1.2,0,2-0.8,2.3-1.6c0.1-0.3,0.2-0.6,0.2-0.9v-5.9h1.8V301z"/>
	<path class="st1" d="M200.7,289.4h1.8v14.2h-1.8V289.4z"/>
	<path class="st1" d="M207.5,291.1v2.8h2.5v1.3h-2.5v5.2c0,1.2,0.3,1.9,1.3,1.9c0.5,0,0.8-0.1,1-0.1l0.1,1.3
		c-0.3,0.1-0.9,0.2-1.6,0.2c-0.8,0-1.5-0.3-1.9-0.7c-0.5-0.5-0.7-1.4-0.7-2.5v-5.3h-1.5v-1.3h1.5v-2.3L207.5,291.1z"/>
	<path class="st1" d="M217.4,303.6l-0.1-1.2h-0.1c-0.5,0.8-1.6,1.4-3,1.4c-2,0-3-1.4-3-2.8c0-2.3,2.1-3.6,5.8-3.6v-0.2
		c0-0.8-0.2-2.2-2.2-2.2c-0.9,0-1.8,0.3-2.5,0.7l-0.4-1.2c0.8-0.5,2-0.9,3.2-0.9c3,0,3.7,2,3.7,4v3.6c0,0.8,0,1.7,0.2,2.3H217.4z
		 M217.1,298.7c-1.9,0-4.1,0.3-4.1,2.2c0,1.1,0.8,1.7,1.7,1.7c1.3,0,2.1-0.8,2.3-1.6c0.1-0.2,0.1-0.4,0.1-0.6V298.7z"/>
	<path class="st1" d="M223.7,291.1v2.8h2.5v1.3h-2.5v5.2c0,1.2,0.3,1.9,1.3,1.9c0.5,0,0.8-0.1,1-0.1l0.1,1.3
		c-0.3,0.1-0.9,0.2-1.6,0.2c-0.8,0-1.5-0.3-1.9-0.7c-0.5-0.5-0.7-1.4-0.7-2.5v-5.3h-1.5v-1.3h1.5v-2.3L223.7,291.1z"/>
	<path class="st1" d="M230.1,291.2c0,0.6-0.4,1.1-1.1,1.1c-0.6,0-1.1-0.5-1.1-1.1c0-0.6,0.5-1.1,1.1-1.1
		C229.7,290.1,230.1,290.6,230.1,291.2z M228.2,303.6v-9.7h1.8v9.7H228.2z"/>
	<path class="st1" d="M241.6,298.7c0,3.6-2.5,5.1-4.8,5.1c-2.6,0-4.6-1.9-4.6-5c0-3.2,2.1-5.1,4.8-5.1
		C239.7,293.7,241.6,295.7,241.6,298.7z M233.9,298.8c0,2.1,1.2,3.7,2.9,3.7c1.7,0,2.9-1.6,2.9-3.8c0-1.6-0.8-3.7-2.9-3.7
		S233.9,296.9,233.9,298.8z"/>
	<path class="st1" d="M243.8,296.5c0-1,0-1.8-0.1-2.6h1.6l0.1,1.6h0c0.5-0.9,1.6-1.8,3.2-1.8c1.3,0,3.4,0.8,3.4,4.1v5.8h-1.8V298
		c0-1.6-0.6-2.9-2.2-2.9c-1.2,0-2.1,0.8-2.4,1.8c-0.1,0.2-0.1,0.5-0.1,0.8v5.8h-1.8V296.5z"/>
	<path class="st1" d="M254.5,302.6c0-0.7,0.5-1.3,1.2-1.3c0.7,0,1.2,0.5,1.2,1.3c0,0.7-0.5,1.3-1.2,1.3
		C255,303.8,254.5,303.3,254.5,302.6z"/>
</g>
<g>
	<path class="st1" d="M74.2,172.7c-1,0.5-3.1,1-5.7,1c-6.1,0-10.7-3.8-10.7-10.9c0-6.8,4.6-11.3,11.3-11.3c2.7,0,4.4,0.6,5.1,1
		l-0.7,2.3c-1.1-0.5-2.6-0.9-4.4-0.9c-5.1,0-8.4,3.2-8.4,8.9c0,5.3,3,8.7,8.3,8.7c1.7,0,3.4-0.4,4.5-0.9L74.2,172.7z"/>
	<path class="st1" d="M85.9,173.4l-0.2-2h-0.1c-0.9,1.2-2.5,2.3-4.7,2.3c-3.1,0-4.7-2.2-4.7-4.4c0-3.7,3.3-5.8,9.3-5.8v-0.3
		c0-1.3-0.4-3.6-3.5-3.6c-1.4,0-2.9,0.4-4,1.2l-0.6-1.9c1.3-0.8,3.1-1.4,5.1-1.4c4.7,0,5.9,3.2,5.9,6.3v5.8c0,1.3,0.1,2.7,0.3,3.7
		H85.9z M85.5,165.5c-3.1-0.1-6.6,0.5-6.6,3.5c0,1.8,1.2,2.7,2.7,2.7c2,0,3.3-1.3,3.7-2.6c0.1-0.3,0.2-0.6,0.2-0.9V165.5z"/>
	<path class="st1" d="M92.7,163c0-2-0.1-3.6-0.1-5.1h2.5l0.1,2.7h0.1c1.2-1.9,3-3,5.5-3c3.7,0,6.6,3.2,6.6,7.9c0,5.6-3.4,8.3-7,8.3
		c-2,0-3.8-0.9-4.8-2.4h-0.1v8.4h-2.8V163z M95.5,167.1c0,0.4,0.1,0.8,0.1,1.2c0.5,2,2.2,3.3,4.2,3.3c3,0,4.7-2.4,4.7-6
		c0-3.1-1.6-5.8-4.6-5.8c-1.9,0-3.7,1.4-4.3,3.5c-0.1,0.4-0.2,0.8-0.2,1.2V167.1z"/>
	<path class="st1" d="M114.3,153.5v4.4h4v2.1h-4v8.4c0,1.9,0.5,3,2.1,3c0.7,0,1.3-0.1,1.6-0.2l0.1,2.1c-0.5,0.2-1.4,0.4-2.5,0.4
		c-1.3,0-2.4-0.4-3-1.2c-0.8-0.8-1.1-2.2-1.1-4v-8.4h-2.4v-2.1h2.4v-3.7L114.3,153.5z"/>
	<path class="st1" d="M134.5,169.2c0,1.6,0,3,0.1,4.2h-2.5l-0.2-2.5h-0.1c-0.7,1.2-2.4,2.9-5.1,2.9c-2.4,0-5.3-1.3-5.3-6.8v-9.1h2.8
		v8.6c0,2.9,0.9,4.9,3.5,4.9c1.9,0,3.2-1.3,3.7-2.6c0.2-0.4,0.3-0.9,0.3-1.4v-9.5h2.8V169.2z"/>
	<path class="st1" d="M139.2,162.7c0-1.8,0-3.4-0.1-4.8h2.5l0.1,3h0.1c0.7-2.1,2.4-3.4,4.3-3.4c0.3,0,0.5,0,0.8,0.1v2.7
		c-0.3-0.1-0.6-0.1-1-0.1c-2,0-3.4,1.5-3.8,3.6c-0.1,0.4-0.1,0.8-0.1,1.3v8.3h-2.8V162.7z"/>
	<path class="st1" d="M150.9,166.2c0.1,3.8,2.5,5.4,5.3,5.4c2,0,3.2-0.4,4.3-0.8l0.5,2c-1,0.4-2.7,1-5.2,1c-4.8,0-7.6-3.1-7.6-7.8
		c0-4.7,2.8-8.4,7.3-8.4c5.1,0,6.4,4.4,6.4,7.3c0,0.6-0.1,1-0.1,1.3H150.9z M159.1,164.1c0-1.8-0.7-4.6-3.9-4.6
		c-2.8,0-4.1,2.6-4.3,4.6H159.1z"/>
	<path class="st1" d="M175,154.2h-6.6v-2.4h16v2.4h-6.6v19.2H175V154.2z"/>
	<path class="st1" d="M186.5,150.7h2.8v9.7h0.1c0.4-0.8,1.2-1.5,2-2c0.8-0.5,1.8-0.8,2.9-0.8c2.1,0,5.4,1.3,5.4,6.6v9.2h-2.8v-8.9
		c0-2.5-0.9-4.6-3.6-4.6c-1.8,0-3.3,1.3-3.8,2.8c-0.2,0.4-0.2,0.8-0.2,1.3v9.3h-2.8V150.7z"/>
	<path class="st1" d="M205.8,166.2c0.1,3.8,2.5,5.4,5.3,5.4c2,0,3.2-0.4,4.3-0.8l0.5,2c-1,0.4-2.7,1-5.2,1c-4.8,0-7.6-3.1-7.6-7.8
		c0-4.7,2.8-8.4,7.3-8.4c5.1,0,6.4,4.4,6.4,7.3c0,0.6-0.1,1-0.1,1.3H205.8z M214.1,164.1c0-1.8-0.7-4.6-3.9-4.6
		c-2.8,0-4.1,2.6-4.3,4.6H214.1z"/>
	<path class="st1" d="M227.2,151.8h2.8v19.2h9.2v2.3h-12V151.8z"/>
	<path class="st1" d="M243.3,166.2c0.1,3.8,2.5,5.4,5.3,5.4c2,0,3.2-0.4,4.3-0.8l0.5,2c-1,0.4-2.7,1-5.2,1c-4.8,0-7.6-3.1-7.6-7.8
		c0-4.7,2.8-8.4,7.3-8.4c5.1,0,6.4,4.4,6.4,7.3c0,0.6-0.1,1-0.1,1.3H243.3z M251.6,164.1c0-1.8-0.7-4.6-3.9-4.6
		c-2.8,0-4.1,2.6-4.3,4.6H251.6z"/>
	<path class="st1" d="M266.3,173.4l-0.2-2H266c-0.9,1.2-2.5,2.3-4.7,2.3c-3.1,0-4.7-2.2-4.7-4.4c0-3.7,3.3-5.8,9.3-5.8v-0.3
		c0-1.3-0.4-3.6-3.5-3.6c-1.4,0-2.9,0.4-4,1.2l-0.6-1.9c1.3-0.8,3.1-1.4,5.1-1.4c4.7,0,5.9,3.2,5.9,6.3v5.8c0,1.3,0.1,2.7,0.3,3.7
		H266.3z M265.9,165.5c-3.1-0.1-6.6,0.5-6.6,3.5c0,1.8,1.2,2.7,2.7,2.7c2,0,3.3-1.3,3.7-2.6c0.1-0.3,0.2-0.6,0.2-0.9V165.5z"/>
	<path class="st1" d="M286.6,150.7v18.7c0,1.4,0,2.9,0.1,4h-2.5l-0.1-2.7H284c-0.9,1.7-2.8,3-5.3,3c-3.7,0-6.6-3.2-6.6-7.9
		c0-5.2,3.2-8.3,6.9-8.3c2.4,0,4,1.1,4.7,2.4h0.1v-9.2H286.6z M283.7,164.2c0-0.4,0-0.8-0.1-1.2c-0.4-1.8-2-3.3-4.1-3.3
		c-2.9,0-4.6,2.6-4.6,6c0,3.1,1.5,5.7,4.6,5.7c1.9,0,3.6-1.2,4.1-3.4c0.1-0.4,0.1-0.8,0.1-1.2V164.2z"/>
</g>
</svg>
