<?xml version="1.0" encoding="utf-8"?>
<!-- Generator: Adobe Illustrator 23.0.3, SVG Export Plug-In . SVG Version: 6.00 Build 0)  -->
<svg version="1.1" id="Layer_1" xmlns="http://www.w3.org/2000/svg" xmlns:xlink="http://www.w3.org/1999/xlink" x="0px" y="0px"
	 viewBox="0 0 398.9 457.8" style="enable-background:new 0 0 398.9 457.8;" xml:space="preserve">
<style type="text/css">
	.st0{fill:url(#SVGID_1_);}
	.st1{fill:#FFFFFF;}
</style>
<linearGradient id="SVGID_1_" gradientUnits="userSpaceOnUse" x1="-1594.9219" y1="126.9075" x2="-1301.2654" y2="-166.749" gradientTransform="matrix(4.489700e-11 -1 -1 -4.489700e-11 179.1389 -1220.8611)">
	<stop  offset="3.605769e-04" style="stop-color:#ED1179"/>
	<stop  offset="0.1841" style="stop-color:#EE2D70"/>
	<stop  offset="0.59" style="stop-color:#F05154"/>
	<stop  offset="1" style="stop-color:#F36B21"/>
</linearGradient>
<polygon class="st0" points="12.9,119.4 12.9,334.7 199,441.9 385.6,334.7 385.6,119.4 199,12.2 "/>
<g>
	<path class="st1" d="M57.8,194.3c0.8-0.1,1.9-0.3,3.3-0.3c1.7,0,3,0.4,3.8,1.1c0.7,0.6,1.2,1.6,1.2,2.8c0,1.2-0.4,2.2-1,2.9
		c-0.9,1-2.4,1.5-4.1,1.5c-0.5,0-1,0-1.4-0.1v5.4h-1.7V194.3z M59.5,200.8c0.4,0.1,0.9,0.1,1.4,0.1c2.1,0,3.4-1,3.4-2.9
		c0-1.8-1.3-2.6-3.2-2.6c-0.8,0-1.3,0.1-1.6,0.1V200.8z"/>
	<path class="st1" d="M70,195.2c0,0.6-0.4,1.1-1.1,1.1c-0.6,0-1.1-0.5-1.1-1.1c0-0.6,0.5-1.1,1.1-1.1C69.6,194.1,70,194.6,70,195.2z
		 M68,207.6v-9.7h1.8v9.7H68z"/>
	<path class="st1" d="M79.6,207.2c-0.5,0.2-1.5,0.6-2.8,0.6c-2.9,0-4.8-2-4.8-4.9c0-3,2-5.1,5.2-5.1c1,0,2,0.3,2.4,0.5l-0.4,1.4
		c-0.4-0.2-1.1-0.5-2-0.5c-2.2,0-3.4,1.6-3.4,3.7c0,2.2,1.4,3.6,3.4,3.6c1,0,1.7-0.3,2.2-0.5L79.6,207.2z"/>
	<path class="st1" d="M84.1,195.1v2.8h2.5v1.3h-2.5v5.2c0,1.2,0.3,1.9,1.3,1.9c0.5,0,0.8-0.1,1-0.1l0.1,1.3
		c-0.3,0.1-0.9,0.2-1.6,0.2c-0.8,0-1.5-0.3-1.9-0.7c-0.5-0.5-0.7-1.4-0.7-2.5v-5.3h-1.5v-1.3h1.5v-2.3L84.1,195.1z"/>
	<path class="st1" d="M96.7,205c0,1,0,1.9,0.1,2.6h-1.6l-0.1-1.6h0c-0.5,0.8-1.5,1.8-3.2,1.8c-1.5,0-3.3-0.8-3.3-4.2v-5.7h1.8v5.4
		c0,1.8,0.6,3.1,2.2,3.1c1.2,0,2-0.8,2.3-1.6c0.1-0.3,0.2-0.6,0.2-0.9v-5.9h1.8V205z"/>
	<path class="st1" d="M99.6,200.9c0-1.1,0-2.1-0.1-3h1.5l0.1,1.9h0.1c0.4-1.3,1.5-2.1,2.7-2.1c0.2,0,0.3,0,0.5,0.1v1.7
		c-0.2,0-0.4-0.1-0.6-0.1c-1.2,0-2.1,0.9-2.4,2.3c0,0.2-0.1,0.5-0.1,0.8v5.2h-1.7V200.9z"/>
	<path class="st1" d="M106.9,203.1c0,2.4,1.6,3.4,3.3,3.4c1.3,0,2-0.2,2.7-0.5l0.3,1.3c-0.6,0.3-1.7,0.6-3.2,0.6c-3,0-4.8-2-4.8-4.9
		c0-2.9,1.7-5.2,4.5-5.2c3.2,0,4,2.8,4,4.6c0,0.4,0,0.6-0.1,0.8H106.9z M112.1,201.8c0-1.1-0.5-2.9-2.4-2.9c-1.8,0-2.6,1.6-2.7,2.9
		H112.1z"/>
	<path class="st1" d="M115.7,205.8c0.5,0.3,1.4,0.7,2.3,0.7c1.3,0,1.9-0.6,1.9-1.4c0-0.8-0.5-1.3-1.8-1.8c-1.7-0.6-2.6-1.6-2.6-2.7
		c0-1.6,1.3-2.8,3.3-2.8c1,0,1.8,0.3,2.4,0.6l-0.4,1.3c-0.4-0.2-1.1-0.6-2-0.6c-1,0-1.6,0.6-1.6,1.3c0,0.8,0.6,1.2,1.8,1.6
		c1.7,0.6,2.5,1.5,2.5,2.9c0,1.7-1.3,2.9-3.6,2.9c-1.1,0-2-0.3-2.7-0.7L115.7,205.8z"/>
	<path class="st1" d="M127.9,205.8c0.5,0.3,1.4,0.7,2.3,0.7c1.3,0,1.9-0.6,1.9-1.4c0-0.8-0.5-1.3-1.8-1.8c-1.7-0.6-2.6-1.6-2.6-2.7
		c0-1.6,1.3-2.8,3.3-2.8c1,0,1.8,0.3,2.4,0.6l-0.4,1.3c-0.4-0.2-1.1-0.6-2-0.6c-1,0-1.6,0.6-1.6,1.3c0,0.8,0.6,1.2,1.8,1.6
		c1.7,0.6,2.5,1.5,2.5,2.9c0,1.7-1.3,2.9-3.6,2.9c-1.1,0-2-0.3-2.7-0.7L127.9,205.8z"/>
	<path class="st1" d="M136,201.1c0-1.2,0-2.2-0.1-3.2h1.6l0.1,1.7h0c0.7-1.2,1.9-1.9,3.4-1.9c2.3,0,4.1,2,4.1,4.9
		c0,3.5-2.1,5.2-4.4,5.2c-1.3,0-2.4-0.6-3-1.5h0v5.3H136V201.1z M137.8,203.7c0,0.3,0,0.5,0.1,0.7c0.3,1.2,1.4,2.1,2.6,2.1
		c1.9,0,2.9-1.5,2.9-3.7c0-1.9-1-3.6-2.9-3.6c-1.2,0-2.3,0.9-2.7,2.2c-0.1,0.2-0.1,0.5-0.1,0.7V203.7z"/>
	<path class="st1" d="M148.4,203.1c0,2.4,1.6,3.4,3.3,3.4c1.3,0,2-0.2,2.7-0.5l0.3,1.3c-0.6,0.3-1.7,0.6-3.2,0.6c-3,0-4.8-2-4.8-4.9
		c0-2.9,1.7-5.2,4.5-5.2c3.2,0,4,2.8,4,4.6c0,0.4,0,0.6-0.1,0.8H148.4z M153.5,201.8c0-1.1-0.5-2.9-2.4-2.9c-1.8,0-2.6,1.6-2.7,2.9
		H153.5z"/>
	<path class="st1" d="M162.8,207.6l-0.1-1.2h-0.1c-0.5,0.8-1.6,1.4-3,1.4c-2,0-3-1.4-3-2.8c0-2.3,2.1-3.6,5.8-3.6v-0.2
		c0-0.8-0.2-2.2-2.2-2.2c-0.9,0-1.8,0.3-2.5,0.7l-0.4-1.2c0.8-0.5,2-0.9,3.2-0.9c3,0,3.7,2,3.7,4v3.6c0,0.8,0,1.7,0.2,2.3H162.8z
		 M162.5,202.7c-1.9,0-4.1,0.3-4.1,2.2c0,1.1,0.8,1.7,1.7,1.7c1.3,0,2.1-0.8,2.3-1.6c0.1-0.2,0.1-0.4,0.1-0.6V202.7z"/>
	<path class="st1" d="M168.8,202.4L168.8,202.4c0.3-0.3,0.6-0.8,0.9-1.1l2.8-3.3h2.1l-3.7,4l4.3,5.7H173l-3.3-4.6l-0.9,1v3.6h-1.7
		v-14.2h1.7V202.4z"/>
	<path class="st1" d="M186,207.6l-0.1-1.2h-0.1c-0.5,0.8-1.6,1.4-3,1.4c-2,0-3-1.4-3-2.8c0-2.3,2.1-3.6,5.8-3.6v-0.2
		c0-0.8-0.2-2.2-2.2-2.2c-0.9,0-1.8,0.3-2.5,0.7l-0.4-1.2c0.8-0.5,2-0.9,3.2-0.9c3,0,3.7,2,3.7,4v3.6c0,0.8,0,1.7,0.2,2.3H186z
		 M185.8,202.7c-1.9,0-4.1,0.3-4.1,2.2c0,1.1,0.8,1.7,1.7,1.7c1.3,0,2.1-0.8,2.3-1.6c0.1-0.2,0.1-0.4,0.1-0.6V202.7z"/>
	<path class="st1" d="M196.7,195.1v2.8h2.5v1.3h-2.5v5.2c0,1.2,0.3,1.9,1.3,1.9c0.5,0,0.8-0.1,1-0.1l0.1,1.3
		c-0.3,0.1-0.9,0.2-1.6,0.2c-0.8,0-1.5-0.3-1.9-0.7c-0.5-0.5-0.7-1.4-0.7-2.5v-5.3h-1.5v-1.3h1.5v-2.3L196.7,195.1z"/>
	<path class="st1" d="M201.2,193.4h1.8v6h0c0.3-0.5,0.7-0.9,1.3-1.2c0.5-0.3,1.1-0.5,1.8-0.5c1.3,0,3.4,0.8,3.4,4.1v5.8h-1.8V202
		c0-1.6-0.6-2.9-2.2-2.9c-1.1,0-2,0.8-2.4,1.8c-0.1,0.2-0.1,0.5-0.1,0.8v5.8h-1.8V193.4z"/>
	<path class="st1" d="M221,202.7c0,3.6-2.5,5.1-4.8,5.1c-2.6,0-4.6-1.9-4.6-5c0-3.2,2.1-5.1,4.8-5.1
		C219.2,197.7,221,199.7,221,202.7z M213.3,202.8c0,2.1,1.2,3.7,2.9,3.7c1.7,0,2.9-1.6,2.9-3.8c0-1.6-0.8-3.7-2.9-3.7
		C214.2,199,213.3,200.9,213.3,202.8z"/>
	<path class="st1" d="M231.4,205c0,1,0,1.9,0.1,2.6h-1.6l-0.1-1.6h0c-0.5,0.8-1.5,1.8-3.2,1.8c-1.5,0-3.3-0.8-3.3-4.2v-5.7h1.8v5.4
		c0,1.8,0.6,3.1,2.2,3.1c1.2,0,2-0.8,2.3-1.6c0.1-0.3,0.2-0.6,0.2-0.9v-5.9h1.8V205z"/>
	<path class="st1" d="M234,205.8c0.5,0.3,1.4,0.7,2.3,0.7c1.3,0,1.9-0.6,1.9-1.4c0-0.8-0.5-1.3-1.8-1.8c-1.7-0.6-2.6-1.6-2.6-2.7
		c0-1.6,1.3-2.8,3.3-2.8c1,0,1.8,0.3,2.4,0.6l-0.4,1.3c-0.4-0.2-1.1-0.6-2-0.6c-1,0-1.6,0.6-1.6,1.3c0,0.8,0.6,1.2,1.8,1.6
		c1.7,0.6,2.5,1.5,2.5,2.9c0,1.7-1.3,2.9-3.6,2.9c-1.1,0-2-0.3-2.7-0.7L234,205.8z"/>
	<path class="st1" d="M247.6,207.6l-0.1-1.2h-0.1c-0.5,0.8-1.6,1.4-3,1.4c-2,0-3-1.4-3-2.8c0-2.3,2.1-3.6,5.8-3.6v-0.2
		c0-0.8-0.2-2.2-2.2-2.2c-0.9,0-1.8,0.3-2.5,0.7l-0.4-1.2c0.8-0.5,2-0.9,3.2-0.9c3,0,3.7,2,3.7,4v3.6c0,0.8,0,1.7,0.2,2.3H247.6z
		 M247.3,202.7c-1.9,0-4.1,0.3-4.1,2.2c0,1.1,0.8,1.7,1.7,1.7c1.3,0,2.1-0.8,2.3-1.6c0.1-0.2,0.1-0.4,0.1-0.6V202.7z"/>
	<path class="st1" d="M251.8,200.5c0-1,0-1.8-0.1-2.6h1.6l0.1,1.6h0c0.5-0.9,1.6-1.8,3.2-1.8c1.3,0,3.4,0.8,3.4,4.1v5.8h-1.8V202
		c0-1.6-0.6-2.9-2.2-2.9c-1.2,0-2.1,0.8-2.4,1.8c-0.1,0.2-0.1,0.5-0.1,0.8v5.8h-1.8V200.5z"/>
	<path class="st1" d="M271.3,193.4v11.7c0,0.9,0,1.8,0.1,2.5h-1.6l-0.1-1.7h0c-0.5,1.1-1.7,1.9-3.3,1.9c-2.3,0-4.1-2-4.1-4.9
		c0-3.2,2-5.2,4.3-5.2c1.5,0,2.5,0.7,2.9,1.5h0v-5.8H271.3z M269.5,201.9c0-0.2,0-0.5-0.1-0.7c-0.3-1.1-1.2-2-2.5-2
		c-1.8,0-2.9,1.6-2.9,3.7c0,2,1,3.6,2.9,3.6c1.2,0,2.3-0.8,2.6-2.1c0.1-0.2,0.1-0.5,0.1-0.8V201.9z"/>
	<path class="st1" d="M279.1,197.9l1.3,4.9c0.3,1.1,0.5,2.1,0.7,3.1h0.1c0.2-1,0.5-2,0.9-3.1l1.6-4.9h1.5l1.5,4.8
		c0.4,1.2,0.6,2.2,0.9,3.2h0.1c0.2-1,0.4-2,0.7-3.1l1.4-4.9h1.7l-3.1,9.7h-1.6l-1.5-4.6c-0.3-1.1-0.6-2-0.9-3.2h0
		c-0.2,1.2-0.5,2.2-0.9,3.2l-1.6,4.6h-1.6l-2.9-9.7H279.1z"/>
	<path class="st1" d="M301.7,202.7c0,3.6-2.5,5.1-4.8,5.1c-2.6,0-4.6-1.9-4.6-5c0-3.2,2.1-5.1,4.8-5.1
		C299.8,197.7,301.7,199.7,301.7,202.7z M294,202.8c0,2.1,1.2,3.7,2.9,3.7c1.7,0,2.9-1.6,2.9-3.8c0-1.6-0.8-3.7-2.9-3.7
		C294.9,199,294,200.9,294,202.8z"/>
	<path class="st1" d="M303.9,200.9c0-1.1,0-2.1-0.1-3h1.5l0.1,1.9h0.1c0.4-1.3,1.5-2.1,2.7-2.1c0.2,0,0.3,0,0.5,0.1v1.7
		c-0.2,0-0.4-0.1-0.6-0.1c-1.2,0-2.1,0.9-2.4,2.3c0,0.2-0.1,0.5-0.1,0.8v5.2h-1.7V200.9z"/>
	<path class="st1" d="M318.7,193.4v11.7c0,0.9,0,1.8,0.1,2.5h-1.6l-0.1-1.7h0c-0.5,1.1-1.7,1.9-3.3,1.9c-2.3,0-4.1-2-4.1-4.9
		c0-3.2,2-5.2,4.3-5.2c1.5,0,2.5,0.7,2.9,1.5h0v-5.8H318.7z M316.9,201.9c0-0.2,0-0.5-0.1-0.7c-0.3-1.1-1.2-2-2.5-2
		c-1.8,0-2.9,1.6-2.9,3.7c0,2,1,3.6,2.9,3.6c1.2,0,2.3-0.8,2.6-2.1c0.1-0.2,0.1-0.5,0.1-0.8V201.9z"/>
	<path class="st1" d="M321.3,205.8c0.5,0.3,1.4,0.7,2.3,0.7c1.3,0,1.9-0.6,1.9-1.4c0-0.8-0.5-1.3-1.8-1.8c-1.7-0.6-2.6-1.6-2.6-2.7
		c0-1.6,1.3-2.8,3.3-2.8c1,0,1.8,0.3,2.4,0.6l-0.4,1.3c-0.4-0.2-1.1-0.6-2-0.6c-1,0-1.6,0.6-1.6,1.3c0,0.8,0.6,1.2,1.8,1.6
		c1.7,0.6,2.5,1.5,2.5,2.9c0,1.7-1.3,2.9-3.6,2.9c-1.1,0-2-0.3-2.7-0.7L321.3,205.8z"/>
	<path class="st1" d="M328.8,206.6c0-0.7,0.5-1.3,1.2-1.3c0.7,0,1.2,0.5,1.2,1.3c0,0.7-0.5,1.3-1.2,1.3
		C329.3,207.8,328.8,207.3,328.8,206.6z"/>
	<path class="st1" d="M59.5,218.1v8c0,3,1.3,4.3,3.1,4.3c2,0,3.3-1.3,3.3-4.3v-8h1.8v7.9c0,4.1-2.2,5.8-5.1,5.8
		c-2.8,0-4.8-1.6-4.8-5.8v-7.9H59.5z"/>
	<path class="st1" d="M70.7,225.1c0-1.2,0-2.2-0.1-3.2h1.6l0.1,1.7h0c0.7-1.2,1.9-1.9,3.4-1.9c2.3,0,4.1,2,4.1,4.9
		c0,3.5-2.1,5.2-4.4,5.2c-1.3,0-2.4-0.6-3-1.5h0v5.3h-1.7V225.1z M72.4,227.7c0,0.3,0,0.5,0.1,0.7c0.3,1.2,1.4,2.1,2.6,2.1
		c1.9,0,2.9-1.5,2.9-3.7c0-1.9-1-3.6-2.9-3.6c-1.2,0-2.3,0.9-2.7,2.2c-0.1,0.2-0.1,0.5-0.1,0.7V227.7z"/>
	<path class="st1" d="M82,217.4h1.8v14.2H82V217.4z"/>
	<path class="st1" d="M95.5,226.7c0,3.6-2.5,5.1-4.8,5.1c-2.6,0-4.6-1.9-4.6-5c0-3.2,2.1-5.1,4.8-5.1
		C93.6,221.7,95.5,223.7,95.5,226.7z M87.8,226.8c0,2.1,1.2,3.7,2.9,3.7c1.7,0,2.9-1.6,2.9-3.8c0-1.6-0.8-3.7-2.9-3.7
		C88.7,223,87.8,224.9,87.8,226.8z"/>
	<path class="st1" d="M103.1,231.6l-0.1-1.2h-0.1c-0.5,0.8-1.6,1.4-3,1.4c-2,0-3-1.4-3-2.8c0-2.3,2.1-3.6,5.8-3.6v-0.2
		c0-0.8-0.2-2.2-2.2-2.2c-0.9,0-1.8,0.3-2.5,0.7l-0.4-1.2c0.8-0.5,2-0.9,3.2-0.9c3,0,3.7,2,3.7,4v3.6c0,0.8,0,1.7,0.2,2.3H103.1z
		 M102.8,226.7c-1.9,0-4.1,0.3-4.1,2.2c0,1.1,0.8,1.7,1.7,1.7c1.3,0,2.1-0.8,2.3-1.6c0.1-0.2,0.1-0.4,0.1-0.6V226.7z"/>
	<path class="st1" d="M115.7,217.4v11.7c0,0.9,0,1.8,0.1,2.5h-1.6l-0.1-1.7h0c-0.5,1.1-1.7,1.9-3.3,1.9c-2.3,0-4.1-2-4.1-4.9
		c0-3.2,2-5.2,4.3-5.2c1.5,0,2.5,0.7,2.9,1.5h0v-5.8H115.7z M114,225.9c0-0.2,0-0.5-0.1-0.7c-0.3-1.1-1.2-2-2.5-2
		c-1.8,0-2.9,1.6-2.9,3.7c0,2,1,3.6,2.9,3.6c1.2,0,2.3-0.8,2.6-2.1c0.1-0.2,0.1-0.5,0.1-0.8V225.9z"/>
	<path class="st1" d="M128.3,231.6l-0.1-1.2h-0.1c-0.5,0.8-1.6,1.4-3,1.4c-2,0-3-1.4-3-2.8c0-2.3,2.1-3.6,5.8-3.6v-0.2
		c0-0.8-0.2-2.2-2.2-2.2c-0.9,0-1.8,0.3-2.5,0.7l-0.4-1.2c0.8-0.5,2-0.9,3.2-0.9c3,0,3.7,2,3.7,4v3.6c0,0.8,0,1.7,0.2,2.3H128.3z
		 M128,226.7c-1.9,0-4.1,0.3-4.1,2.2c0,1.1,0.8,1.7,1.7,1.7c1.3,0,2.1-0.8,2.3-1.6c0.1-0.2,0.1-0.4,0.1-0.6V226.7z"/>
	<path class="st1" d="M132.5,224.5c0-1,0-1.8-0.1-2.6h1.6l0.1,1.6h0c0.5-0.9,1.6-1.8,3.2-1.8c1.3,0,3.4,0.8,3.4,4.1v5.8H139V226
		c0-1.6-0.6-2.9-2.2-2.9c-1.2,0-2.1,0.8-2.4,1.8c-0.1,0.2-0.1,0.5-0.1,0.8v5.8h-1.8V224.5z"/>
	<path class="st1" d="M156,229c0,1,0,1.9,0.1,2.6h-1.6l-0.1-1.6h0c-0.5,0.8-1.5,1.8-3.2,1.8c-1.5,0-3.3-0.8-3.3-4.2v-5.7h1.8v5.4
		c0,1.8,0.6,3.1,2.2,3.1c1.2,0,2-0.8,2.3-1.6c0.1-0.3,0.2-0.6,0.2-0.9v-5.9h1.8V229z"/>
	<path class="st1" d="M158.9,224.5c0-1,0-1.8-0.1-2.6h1.6l0.1,1.6h0c0.5-0.9,1.6-1.8,3.2-1.8c1.3,0,3.4,0.8,3.4,4.1v5.8h-1.8V226
		c0-1.6-0.6-2.9-2.2-2.9c-1.2,0-2.1,0.8-2.4,1.8c-0.1,0.2-0.1,0.5-0.1,0.8v5.8h-1.8V224.5z"/>
	<path class="st1" d="M170,217.4h1.8v14.2H170V217.4z"/>
	<path class="st1" d="M176.7,219.2c0,0.6-0.4,1.1-1.1,1.1c-0.6,0-1.1-0.5-1.1-1.1c0-0.6,0.5-1.1,1.1-1.1
		C176.2,218.1,176.7,218.6,176.7,219.2z M174.7,231.6v-9.7h1.8v9.7H174.7z"/>
	<path class="st1" d="M179.4,224.5c0-1,0-1.8-0.1-2.6h1.5l0.1,1.6h0.1c0.5-0.9,1.4-1.8,3-1.8c1.3,0,2.3,0.8,2.7,1.9h0
		c0.3-0.5,0.7-1,1.1-1.3c0.6-0.4,1.2-0.7,2.1-0.7c1.3,0,3.2,0.8,3.2,4.2v5.7h-1.7v-5.5c0-1.9-0.7-3-2.1-3c-1,0-1.8,0.7-2.1,1.6
		c-0.1,0.2-0.1,0.6-0.1,0.9v6h-1.7v-5.8c0-1.5-0.7-2.7-2-2.7c-1.1,0-1.9,0.9-2.2,1.8c-0.1,0.3-0.1,0.6-0.1,0.9v5.8h-1.7V224.5z"/>
	<path class="st1" d="M198,219.2c0,0.6-0.4,1.1-1.1,1.1c-0.6,0-1.1-0.5-1.1-1.1c0-0.6,0.5-1.1,1.1-1.1
		C197.6,218.1,198,218.6,198,219.2z M196.1,231.6v-9.7h1.8v9.7H196.1z"/>
	<path class="st1" d="M202.9,219.1v2.8h2.5v1.3h-2.5v5.2c0,1.2,0.3,1.9,1.3,1.9c0.5,0,0.8-0.1,1-0.1l0.1,1.3
		c-0.3,0.1-0.9,0.2-1.6,0.2c-0.8,0-1.5-0.3-1.9-0.7c-0.5-0.5-0.7-1.4-0.7-2.5v-5.3h-1.5v-1.3h1.5v-2.3L202.9,219.1z"/>
	<path class="st1" d="M208.2,227.1c0,2.4,1.6,3.4,3.3,3.4c1.3,0,2-0.2,2.7-0.5l0.3,1.3c-0.6,0.3-1.7,0.6-3.2,0.6c-3,0-4.8-2-4.8-4.9
		c0-2.9,1.7-5.2,4.5-5.2c3.2,0,4,2.8,4,4.6c0,0.4,0,0.6-0.1,0.8H208.2z M213.4,225.8c0-1.1-0.5-2.9-2.4-2.9c-1.8,0-2.6,1.6-2.7,2.9
		H213.4z"/>
	<path class="st1" d="M225.6,217.4v11.7c0,0.9,0,1.8,0.1,2.5h-1.6l-0.1-1.7h0c-0.5,1.1-1.7,1.9-3.3,1.9c-2.3,0-4.1-2-4.1-4.9
		c0-3.2,2-5.2,4.3-5.2c1.5,0,2.5,0.7,2.9,1.5h0v-5.8H225.6z M223.9,225.9c0-0.2,0-0.5-0.1-0.7c-0.3-1.1-1.2-2-2.5-2
		c-1.8,0-2.9,1.6-2.9,3.7c0,2,1,3.6,2.9,3.6c1.2,0,2.3-0.8,2.6-2.1c0.1-0.2,0.1-0.5,0.1-0.8V225.9z"/>
	<path class="st1" d="M232.8,224.5c0-1,0-1.8-0.1-2.6h1.6l0.1,1.6h0c0.5-0.9,1.6-1.8,3.2-1.8c1.3,0,3.4,0.8,3.4,4.1v5.8h-1.8V226
		c0-1.6-0.6-2.9-2.2-2.9c-1.2,0-2.1,0.8-2.4,1.8c-0.1,0.2-0.1,0.5-0.1,0.8v5.8h-1.8V224.5z"/>
	<path class="st1" d="M252,229c0,1,0,1.9,0.1,2.6h-1.6l-0.1-1.6h0c-0.5,0.8-1.5,1.8-3.2,1.8c-1.5,0-3.3-0.8-3.3-4.2v-5.7h1.8v5.4
		c0,1.8,0.6,3.1,2.2,3.1c1.2,0,2-0.8,2.3-1.6c0.1-0.3,0.2-0.6,0.2-0.9v-5.9h1.8V229z"/>
	<path class="st1" d="M254.9,224.5c0-1,0-1.8-0.1-2.6h1.5l0.1,1.6h0.1c0.5-0.9,1.4-1.8,3-1.8c1.3,0,2.3,0.8,2.7,1.9h0
		c0.3-0.5,0.7-1,1.1-1.3c0.6-0.4,1.2-0.7,2.1-0.7c1.3,0,3.2,0.8,3.2,4.2v5.7H267v-5.5c0-1.9-0.7-3-2.1-3c-1,0-1.8,0.7-2.1,1.6
		c-0.1,0.2-0.1,0.6-0.1,0.9v6H261v-5.8c0-1.5-0.7-2.7-2-2.7c-1.1,0-1.9,0.9-2.2,1.8c-0.1,0.3-0.1,0.6-0.1,0.9v5.8h-1.7V224.5z"/>
	<path class="st1" d="M271.5,231.6c0-0.7,0.1-1.6,0.1-2.5v-11.7h1.7v6.1h0c0.6-1.1,1.7-1.8,3.3-1.8c2.4,0,4.1,2,4.1,4.9
		c0,3.5-2.2,5.2-4.3,5.2c-1.4,0-2.5-0.5-3.2-1.8h-0.1l-0.1,1.6H271.5z M273.3,227.7c0,0.2,0,0.4,0.1,0.6c0.3,1.2,1.4,2.1,2.6,2.1
		c1.8,0,2.9-1.5,2.9-3.7c0-1.9-1-3.6-2.9-3.6c-1.2,0-2.3,0.8-2.7,2.2c0,0.2-0.1,0.4-0.1,0.7V227.7z"/>
	<path class="st1" d="M283.9,227.1c0,2.4,1.6,3.4,3.3,3.4c1.3,0,2-0.2,2.7-0.5l0.3,1.3c-0.6,0.3-1.7,0.6-3.2,0.6c-3,0-4.8-2-4.8-4.9
		c0-2.9,1.7-5.2,4.5-5.2c3.2,0,4,2.8,4,4.6c0,0.4,0,0.6-0.1,0.8H283.9z M289.1,225.8c0-1.1-0.5-2.9-2.4-2.9c-1.8,0-2.6,1.6-2.7,2.9
		H289.1z"/>
	<path class="st1" d="M293,224.9c0-1.1,0-2.1-0.1-3h1.5l0.1,1.9h0.1c0.4-1.3,1.5-2.1,2.7-2.1c0.2,0,0.3,0,0.5,0.1v1.7
		c-0.2,0-0.4-0.1-0.6-0.1c-1.2,0-2.1,0.9-2.4,2.3c0,0.2-0.1,0.5-0.1,0.8v5.2H293V224.9z"/>
	<path class="st1" d="M312.5,226.7c0,3.6-2.5,5.1-4.8,5.1c-2.6,0-4.6-1.9-4.6-5c0-3.2,2.1-5.1,4.8-5.1
		C310.6,221.7,312.5,223.7,312.5,226.7z M304.8,226.8c0,2.1,1.2,3.7,2.9,3.7c1.7,0,2.9-1.6,2.9-3.8c0-1.6-0.8-3.7-2.9-3.7
		C305.7,223,304.8,224.9,304.8,226.8z"/>
	<path class="st1" d="M314.9,231.6v-8.3h-1.4v-1.3h1.4v-0.5c0-1.4,0.3-2.6,1.1-3.4c0.7-0.6,1.5-0.9,2.4-0.9c0.6,0,1.2,0.1,1.5,0.3
		l-0.2,1.4c-0.3-0.1-0.6-0.2-1.1-0.2c-1.5,0-1.9,1.3-1.9,2.8v0.5h2.3v1.3h-2.3v8.3H314.9z"/>
	<path class="st1" d="M57.7,249.1c0-1.2,0-2.2-0.1-3.2h1.6l0.1,1.7h0c0.7-1.2,1.9-1.9,3.4-1.9c2.3,0,4.1,2,4.1,4.9
		c0,3.5-2.1,5.2-4.4,5.2c-1.3,0-2.4-0.6-3-1.5h0v5.3h-1.7V249.1z M59.5,251.7c0,0.3,0,0.5,0.1,0.7c0.3,1.2,1.4,2.1,2.6,2.1
		c1.9,0,2.9-1.5,2.9-3.7c0-1.9-1-3.6-2.9-3.6c-1.2,0-2.3,0.9-2.7,2.2c-0.1,0.2-0.1,0.5-0.1,0.7V251.7z"/>
	<path class="st1" d="M69.1,241.4h1.8v6h0c0.3-0.5,0.7-0.9,1.3-1.2c0.5-0.3,1.1-0.5,1.8-0.5c1.3,0,3.4,0.8,3.4,4.1v5.8h-1.8V250
		c0-1.6-0.6-2.9-2.2-2.9c-1.1,0-2,0.8-2.4,1.8c-0.1,0.2-0.1,0.5-0.1,0.8v5.8h-1.8V241.4z"/>
	<path class="st1" d="M89,250.7c0,3.6-2.5,5.1-4.8,5.1c-2.6,0-4.6-1.9-4.6-5c0-3.2,2.1-5.1,4.8-5.1C87.1,245.7,89,247.7,89,250.7z
		 M81.3,250.8c0,2.1,1.2,3.7,2.9,3.7c1.7,0,2.9-1.6,2.9-3.8c0-1.6-0.8-3.7-2.9-3.7C82.2,247,81.3,248.9,81.3,250.8z"/>
	<path class="st1" d="M93.3,243.1v2.8h2.5v1.3h-2.5v5.2c0,1.2,0.3,1.9,1.3,1.9c0.5,0,0.8-0.1,1-0.1l0.1,1.3
		c-0.3,0.1-0.9,0.2-1.6,0.2c-0.8,0-1.5-0.3-1.9-0.7c-0.5-0.5-0.7-1.4-0.7-2.5v-5.3h-1.5v-1.3h1.5v-2.3L93.3,243.1z"/>
	<path class="st1" d="M106.4,250.7c0,3.6-2.5,5.1-4.8,5.1c-2.6,0-4.6-1.9-4.6-5c0-3.2,2.1-5.1,4.8-5.1
		C104.6,245.7,106.4,247.7,106.4,250.7z M98.8,250.8c0,2.1,1.2,3.7,2.9,3.7c1.7,0,2.9-1.6,2.9-3.8c0-1.6-0.8-3.7-2.9-3.7
		C99.7,247,98.8,248.9,98.8,250.8z"/>
	<path class="st1" d="M108.4,253.8c0.5,0.3,1.4,0.7,2.3,0.7c1.3,0,1.9-0.6,1.9-1.4c0-0.8-0.5-1.3-1.8-1.8c-1.7-0.6-2.6-1.6-2.6-2.7
		c0-1.6,1.3-2.8,3.3-2.8c1,0,1.8,0.3,2.4,0.6l-0.4,1.3c-0.4-0.2-1.1-0.6-2-0.6c-1,0-1.6,0.6-1.6,1.3c0,0.8,0.6,1.2,1.8,1.6
		c1.7,0.6,2.5,1.5,2.5,2.9c0,1.7-1.3,2.9-3.6,2.9c-1.1,0-2-0.3-2.7-0.7L108.4,253.8z"/>
	<path class="st1" d="M122.9,243.1v2.8h2.5v1.3h-2.5v5.2c0,1.2,0.3,1.9,1.3,1.9c0.5,0,0.8-0.1,1-0.1l0.1,1.3
		c-0.3,0.1-0.9,0.2-1.6,0.2c-0.8,0-1.5-0.3-1.9-0.7c-0.5-0.5-0.7-1.4-0.7-2.5v-5.3h-1.5v-1.3h1.5v-2.3L122.9,243.1z"/>
	<path class="st1" d="M127.4,241.4h1.8v6h0c0.3-0.5,0.7-0.9,1.3-1.2c0.5-0.3,1.1-0.5,1.8-0.5c1.3,0,3.4,0.8,3.4,4.1v5.8h-1.8V250
		c0-1.6-0.6-2.9-2.2-2.9c-1.1,0-2,0.8-2.4,1.8c-0.1,0.2-0.1,0.5-0.1,0.8v5.8h-1.8V241.4z"/>
	<path class="st1" d="M143.9,255.6l-0.1-1.2h-0.1c-0.5,0.8-1.6,1.4-3,1.4c-2,0-3-1.4-3-2.8c0-2.3,2.1-3.6,5.8-3.6v-0.2
		c0-0.8-0.2-2.2-2.2-2.2c-0.9,0-1.8,0.3-2.5,0.7l-0.4-1.2c0.8-0.5,2-0.9,3.2-0.9c3,0,3.7,2,3.7,4v3.6c0,0.8,0,1.7,0.2,2.3H143.9z
		 M143.6,250.7c-1.9,0-4.1,0.3-4.1,2.2c0,1.1,0.8,1.7,1.7,1.7c1.3,0,2.1-0.8,2.3-1.6c0.1-0.2,0.1-0.4,0.1-0.6V250.7z"/>
	<path class="st1" d="M150.2,243.1v2.8h2.5v1.3h-2.5v5.2c0,1.2,0.3,1.9,1.3,1.9c0.5,0,0.8-0.1,1-0.1l0.1,1.3
		c-0.3,0.1-0.9,0.2-1.6,0.2c-0.8,0-1.5-0.3-1.9-0.7c-0.5-0.5-0.7-1.4-0.7-2.5v-5.3H147v-1.3h1.5v-2.3L150.2,243.1z"/>
	<path class="st1" d="M165.9,255.2c-0.5,0.2-1.5,0.6-2.8,0.6c-2.9,0-4.8-2-4.8-4.9c0-3,2-5.1,5.2-5.1c1,0,2,0.3,2.4,0.5l-0.4,1.4
		c-0.4-0.2-1.1-0.5-2-0.5c-2.2,0-3.4,1.6-3.4,3.7c0,2.2,1.4,3.6,3.4,3.6c1,0,1.7-0.3,2.2-0.5L165.9,255.2z"/>
	<path class="st1" d="M173.3,255.6l-0.1-1.2h-0.1c-0.5,0.8-1.6,1.4-3,1.4c-2,0-3-1.4-3-2.8c0-2.3,2.1-3.6,5.8-3.6v-0.2
		c0-0.8-0.2-2.2-2.2-2.2c-0.9,0-1.8,0.3-2.5,0.7l-0.4-1.2c0.8-0.5,2-0.9,3.2-0.9c3,0,3.7,2,3.7,4v3.6c0,0.8,0,1.7,0.2,2.3H173.3z
		 M173,250.7c-1.9,0-4.1,0.3-4.1,2.2c0,1.1,0.8,1.7,1.7,1.7c1.3,0,2.1-0.8,2.3-1.6c0.1-0.2,0.1-0.4,0.1-0.6V250.7z"/>
	<path class="st1" d="M177.6,248.5c0-1,0-1.8-0.1-2.6h1.6l0.1,1.6h0c0.5-0.9,1.6-1.8,3.2-1.8c1.3,0,3.4,0.8,3.4,4.1v5.8H184V250
		c0-1.6-0.6-2.9-2.2-2.9c-1.2,0-2.1,0.8-2.4,1.8c-0.1,0.2-0.1,0.5-0.1,0.8v5.8h-1.8V248.5z"/>
	<path class="st1" d="M193.9,251.1c0,2.4,1.6,3.4,3.3,3.4c1.3,0,2-0.2,2.7-0.5l0.3,1.3c-0.6,0.3-1.7,0.6-3.2,0.6c-3,0-4.8-2-4.8-4.9
		s1.7-5.2,4.5-5.2c3.2,0,4,2.8,4,4.6c0,0.4,0,0.6-0.1,0.8H193.9z M199,249.8c0-1.1-0.5-2.9-2.4-2.9c-1.8,0-2.6,1.6-2.7,2.9H199z"/>
	<path class="st1" d="M208.3,255.6l-0.1-1.2h-0.1c-0.5,0.8-1.6,1.4-3,1.4c-2,0-3-1.4-3-2.8c0-2.3,2.1-3.6,5.8-3.6v-0.2
		c0-0.8-0.2-2.2-2.2-2.2c-0.9,0-1.8,0.3-2.5,0.7l-0.4-1.2c0.8-0.5,2-0.9,3.2-0.9c3,0,3.7,2,3.7,4v3.6c0,0.8,0,1.7,0.2,2.3H208.3z
		 M208,250.7c-1.9,0-4.1,0.3-4.1,2.2c0,1.1,0.8,1.7,1.7,1.7c1.3,0,2.1-0.8,2.3-1.6c0.1-0.2,0.1-0.4,0.1-0.6V250.7z"/>
	<path class="st1" d="M212.3,253.8c0.5,0.3,1.4,0.7,2.3,0.7c1.3,0,1.9-0.6,1.9-1.4c0-0.8-0.5-1.3-1.8-1.8c-1.7-0.6-2.6-1.6-2.6-2.7
		c0-1.6,1.3-2.8,3.3-2.8c1,0,1.8,0.3,2.4,0.6l-0.4,1.3c-0.4-0.2-1.1-0.6-2-0.6c-1,0-1.6,0.6-1.6,1.3c0,0.8,0.6,1.2,1.8,1.6
		c1.7,0.6,2.5,1.5,2.5,2.9c0,1.7-1.3,2.9-3.6,2.9c-1.1,0-2-0.3-2.7-0.7L212.3,253.8z"/>
	<path class="st1" d="M222.4,243.2c0,0.6-0.4,1.1-1.1,1.1c-0.6,0-1.1-0.5-1.1-1.1c0-0.6,0.5-1.1,1.1-1.1
		C222,242.1,222.4,242.6,222.4,243.2z M220.5,255.6v-9.7h1.8v9.7H220.5z"/>
	<path class="st1" d="M225.1,241.4h1.8v14.2h-1.8V241.4z"/>
	<path class="st1" d="M230.5,245.9l2.1,5.7c0.2,0.6,0.5,1.4,0.6,2h0c0.2-0.6,0.4-1.3,0.6-2l1.9-5.7h1.9l-2.6,6.9
		c-1.3,3.3-2.1,5-3.3,6.1c-0.9,0.8-1.7,1.1-2.2,1.1l-0.4-1.5c0.4-0.1,1-0.4,1.5-0.9c0.5-0.4,1.1-1.1,1.5-2c0.1-0.2,0.1-0.3,0.1-0.4
		s0-0.2-0.1-0.5l-3.6-8.9H230.5z"/>
	<path class="st1" d="M243.4,255.6c0-0.7,0.1-1.6,0.1-2.5v-11.7h1.7v6.1h0c0.6-1.1,1.7-1.8,3.3-1.8c2.4,0,4.1,2,4.1,4.9
		c0,3.5-2.2,5.2-4.3,5.2c-1.4,0-2.5-0.5-3.2-1.8H245l-0.1,1.6H243.4z M245.3,251.7c0,0.2,0,0.4,0.1,0.6c0.3,1.2,1.4,2.1,2.6,2.1
		c1.8,0,2.9-1.5,2.9-3.7c0-1.9-1-3.6-2.9-3.6c-1.2,0-2.3,0.8-2.7,2.2c0,0.2-0.1,0.4-0.1,0.7V251.7z"/>
	<path class="st1" d="M255.9,251.1c0,2.4,1.6,3.4,3.3,3.4c1.3,0,2-0.2,2.7-0.5l0.3,1.3c-0.6,0.3-1.7,0.6-3.2,0.6c-3,0-4.8-2-4.8-4.9
		s1.7-5.2,4.5-5.2c3.2,0,4,2.8,4,4.6c0,0.4,0,0.6-0.1,0.8H255.9z M261,249.8c0-1.1-0.5-2.9-2.4-2.9c-1.8,0-2.6,1.6-2.7,2.9H261z"/>
	<path class="st1" d="M276.1,255.2c-0.5,0.2-1.5,0.6-2.8,0.6c-2.9,0-4.8-2-4.8-4.9c0-3,2-5.1,5.2-5.1c1,0,2,0.3,2.4,0.5l-0.4,1.4
		c-0.4-0.2-1.1-0.5-2-0.5c-2.2,0-3.4,1.6-3.4,3.7c0,2.2,1.4,3.6,3.4,3.6c1,0,1.7-0.3,2.2-0.5L276.1,255.2z"/>
	<path class="st1" d="M278.1,248.9c0-1.1,0-2.1-0.1-3h1.5l0.1,1.9h0.1c0.4-1.3,1.5-2.1,2.7-2.1c0.2,0,0.3,0,0.5,0.1v1.7
		c-0.2,0-0.4-0.1-0.6-0.1c-1.2,0-2.1,0.9-2.4,2.3c0,0.2-0.1,0.5-0.1,0.8v5.2h-1.7V248.9z"/>
	<path class="st1" d="M293.2,250.7c0,3.6-2.5,5.1-4.8,5.1c-2.6,0-4.6-1.9-4.6-5c0-3.2,2.1-5.1,4.8-5.1
		C291.3,245.7,293.2,247.7,293.2,250.7z M285.5,250.8c0,2.1,1.2,3.7,2.9,3.7c1.7,0,2.9-1.6,2.9-3.8c0-1.6-0.8-3.7-2.9-3.7
		C286.4,247,285.5,248.9,285.5,250.8z"/>
	<path class="st1" d="M295.4,249.1c0-1.2,0-2.2-0.1-3.2h1.6l0.1,1.7h0c0.7-1.2,1.9-1.9,3.4-1.9c2.3,0,4.1,2,4.1,4.9
		c0,3.5-2.1,5.2-4.4,5.2c-1.3,0-2.4-0.6-3-1.5h0v5.3h-1.7V249.1z M297.2,251.7c0,0.3,0,0.5,0.1,0.7c0.3,1.2,1.4,2.1,2.6,2.1
		c1.9,0,2.9-1.5,2.9-3.7c0-1.9-1-3.6-2.9-3.6c-1.2,0-2.3,0.9-2.7,2.2c-0.1,0.2-0.1,0.5-0.1,0.7V251.7z"/>
	<path class="st1" d="M306.8,249.1c0-1.2,0-2.2-0.1-3.2h1.6l0.1,1.7h0c0.7-1.2,1.9-1.9,3.4-1.9c2.3,0,4.1,2,4.1,4.9
		c0,3.5-2.1,5.2-4.4,5.2c-1.3,0-2.4-0.6-3-1.5h0v5.3h-1.7V249.1z M308.6,251.7c0,0.3,0,0.5,0.1,0.7c0.3,1.2,1.4,2.1,2.6,2.1
		c1.9,0,2.9-1.5,2.9-3.7c0-1.9-1-3.6-2.9-3.6c-1.2,0-2.3,0.9-2.7,2.2c-0.1,0.2-0.1,0.5-0.1,0.7V251.7z"/>
	<path class="st1" d="M319.2,251.1c0,2.4,1.6,3.4,3.3,3.4c1.3,0,2-0.2,2.7-0.5l0.3,1.3c-0.6,0.3-1.7,0.6-3.2,0.6c-3,0-4.8-2-4.8-4.9
		s1.7-5.2,4.5-5.2c3.2,0,4,2.8,4,4.6c0,0.4,0,0.6-0.1,0.8H319.2z M324.3,249.8c0-1.1-0.5-2.9-2.4-2.9c-1.8,0-2.6,1.6-2.7,2.9H324.3z
		"/>
	<path class="st1" d="M336.6,241.4v11.7c0,0.9,0,1.8,0.1,2.5h-1.6l-0.1-1.7h0c-0.5,1.1-1.7,1.9-3.3,1.9c-2.3,0-4.1-2-4.1-4.9
		c0-3.2,2-5.2,4.3-5.2c1.5,0,2.5,0.7,2.9,1.5h0v-5.8H336.6z M334.8,249.9c0-0.2,0-0.5-0.1-0.7c-0.3-1.1-1.2-2-2.5-2
		c-1.8,0-2.9,1.6-2.9,3.7c0,2,1,3.6,2.9,3.6c1.2,0,2.3-0.8,2.6-2.1c0.1-0.2,0.1-0.5,0.1-0.8V249.9z"/>
	<path class="st1" d="M338.2,258.1c0.4-1.2,1-3.3,1.2-4.8l2-0.2c-0.5,1.7-1.3,3.9-1.9,4.9L338.2,258.1z"/>
	<path class="st1" d="M58.7,275.1c0,2.4,1.6,3.4,3.3,3.4c1.3,0,2-0.2,2.7-0.5l0.3,1.3c-0.6,0.3-1.7,0.6-3.2,0.6c-3,0-4.8-2-4.8-4.9
		s1.7-5.2,4.5-5.2c3.2,0,4,2.8,4,4.6c0,0.4,0,0.6-0.1,0.8H58.7z M63.9,273.8c0-1.1-0.5-2.9-2.4-2.9c-1.8,0-2.6,1.6-2.7,2.9H63.9z"/>
	<path class="st1" d="M76.1,265.4v11.7c0,0.9,0,1.8,0.1,2.5h-1.6l-0.1-1.7h0c-0.5,1.1-1.7,1.9-3.3,1.9c-2.3,0-4.1-2-4.1-4.9
		c0-3.2,2-5.2,4.3-5.2c1.5,0,2.5,0.7,2.9,1.5h0v-5.8H76.1z M74.3,273.9c0-0.2,0-0.5-0.1-0.7c-0.3-1.1-1.2-2-2.5-2
		c-1.8,0-2.9,1.6-2.9,3.7c0,2,1,3.6,2.9,3.6c1.2,0,2.3-0.8,2.6-2.1c0.1-0.2,0.1-0.5,0.1-0.8V273.9z"/>
	<path class="st1" d="M81,267.2c0,0.6-0.4,1.1-1.1,1.1c-0.6,0-1.1-0.5-1.1-1.1c0-0.6,0.5-1.1,1.1-1.1C80.6,266.1,81,266.6,81,267.2z
		 M79,279.6v-9.7h1.8v9.7H79z"/>
	<path class="st1" d="M85.8,267.1v2.8h2.5v1.3h-2.5v5.2c0,1.2,0.3,1.9,1.3,1.9c0.5,0,0.8-0.1,1-0.1l0.1,1.3
		c-0.3,0.1-0.9,0.2-1.6,0.2c-0.8,0-1.5-0.3-1.9-0.7c-0.5-0.5-0.7-1.4-0.7-2.5v-5.3h-1.5v-1.3h1.5v-2.3L85.8,267.1z"/>
	<path class="st1" d="M91.2,275.1c0,2.4,1.6,3.4,3.3,3.4c1.3,0,2-0.2,2.7-0.5l0.3,1.3c-0.6,0.3-1.7,0.6-3.2,0.6c-3,0-4.8-2-4.8-4.9
		s1.7-5.2,4.5-5.2c3.2,0,4,2.8,4,4.6c0,0.4,0,0.6-0.1,0.8H91.2z M96.3,273.8c0-1.1-0.5-2.9-2.4-2.9c-1.8,0-2.6,1.6-2.7,2.9H96.3z"/>
	<path class="st1" d="M108.6,265.4v11.7c0,0.9,0,1.8,0.1,2.5h-1.6l-0.1-1.7h0c-0.5,1.1-1.7,1.9-3.3,1.9c-2.3,0-4.1-2-4.1-4.9
		c0-3.2,2-5.2,4.3-5.2c1.5,0,2.5,0.7,2.9,1.5h0v-5.8H108.6z M106.8,273.9c0-0.2,0-0.5-0.1-0.7c-0.3-1.1-1.2-2-2.5-2
		c-1.8,0-2.9,1.6-2.9,3.7c0,2,1,3.6,2.9,3.6c1.2,0,2.3-0.8,2.6-2.1c0.1-0.2,0.1-0.5,0.1-0.8V273.9z"/>
	<path class="st1" d="M110.2,282.1c0.4-1.2,1-3.3,1.2-4.8l2-0.2c-0.5,1.7-1.3,3.9-1.9,4.9L110.2,282.1z"/>
	<path class="st1" d="M125,279.6l-0.1-1.2h-0.1c-0.5,0.8-1.6,1.4-3,1.4c-2,0-3-1.4-3-2.8c0-2.3,2.1-3.6,5.8-3.6v-0.2
		c0-0.8-0.2-2.2-2.2-2.2c-0.9,0-1.8,0.3-2.5,0.7l-0.4-1.2c0.8-0.5,2-0.9,3.2-0.9c3,0,3.7,2,3.7,4v3.6c0,0.8,0,1.7,0.2,2.3H125z
		 M124.8,274.7c-1.9,0-4.1,0.3-4.1,2.2c0,1.1,0.8,1.7,1.7,1.7c1.3,0,2.1-0.8,2.3-1.6c0.1-0.2,0.1-0.4,0.1-0.6V274.7z"/>
	<path class="st1" d="M129.3,272.5c0-1,0-1.8-0.1-2.6h1.6l0.1,1.6h0c0.5-0.9,1.6-1.8,3.2-1.8c1.3,0,3.4,0.8,3.4,4.1v5.8h-1.8V274
		c0-1.6-0.6-2.9-2.2-2.9c-1.2,0-2.1,0.8-2.4,1.8c-0.1,0.2-0.1,0.5-0.1,0.8v5.8h-1.8V272.5z"/>
	<path class="st1" d="M148.8,265.4v11.7c0,0.9,0,1.8,0.1,2.5h-1.6l-0.1-1.7h0c-0.5,1.1-1.7,1.9-3.3,1.9c-2.3,0-4.1-2-4.1-4.9
		c0-3.2,2-5.2,4.3-5.2c1.5,0,2.5,0.7,2.9,1.5h0v-5.8H148.8z M147,273.9c0-0.2,0-0.5-0.1-0.7c-0.3-1.1-1.2-2-2.5-2
		c-1.8,0-2.9,1.6-2.9,3.7c0,2,1,3.6,2.9,3.6c1.2,0,2.3-0.8,2.6-2.1c0.1-0.2,0.1-0.5,0.1-0.8V273.9z"/>
	<path class="st1" d="M164.7,274.7c0,3.6-2.5,5.1-4.8,5.1c-2.6,0-4.6-1.9-4.6-5c0-3.2,2.1-5.1,4.8-5.1
		C162.8,269.7,164.7,271.7,164.7,274.7z M157,274.8c0,2.1,1.2,3.7,2.9,3.7c1.7,0,2.9-1.6,2.9-3.8c0-1.6-0.8-3.7-2.9-3.7
		S157,272.9,157,274.8z"/>
	<path class="st1" d="M166.9,272.9c0-1.1,0-2.1-0.1-3h1.5l0.1,1.9h0.1c0.4-1.3,1.5-2.1,2.7-2.1c0.2,0,0.3,0,0.5,0.1v1.7
		c-0.2,0-0.4-0.1-0.6-0.1c-1.2,0-2.1,0.9-2.4,2.3c0,0.2-0.1,0.5-0.1,0.8v5.2h-1.7V272.9z"/>
	<path class="st1" d="M181.6,269.9c0,0.7-0.1,1.5-0.1,2.7v5.6c0,2.2-0.4,3.6-1.4,4.4c-0.9,0.9-2.3,1.2-3.5,1.2
		c-1.2,0-2.4-0.3-3.2-0.8l0.4-1.3c0.6,0.4,1.6,0.8,2.8,0.8c1.8,0,3.1-0.9,3.1-3.4v-1.1h0c-0.5,0.9-1.6,1.6-3.1,1.6
		c-2.4,0-4.1-2-4.1-4.7c0-3.3,2.1-5.1,4.4-5.1c1.7,0,2.6,0.9,3,1.7h0l0.1-1.5H181.6z M179.8,273.7c0-0.3,0-0.6-0.1-0.8
		c-0.3-1-1.2-1.9-2.5-1.9c-1.7,0-2.9,1.4-2.9,3.7c0,1.9,1,3.5,2.9,3.5c1.1,0,2.1-0.7,2.4-1.8c0.1-0.3,0.1-0.6,0.1-0.9V273.7z"/>
	<path class="st1" d="M189.8,279.6l-0.1-1.2h-0.1c-0.5,0.8-1.6,1.4-3,1.4c-2,0-3-1.4-3-2.8c0-2.3,2.1-3.6,5.8-3.6v-0.2
		c0-0.8-0.2-2.2-2.2-2.2c-0.9,0-1.8,0.3-2.5,0.7l-0.4-1.2c0.8-0.5,2-0.9,3.2-0.9c3,0,3.7,2,3.7,4v3.6c0,0.8,0,1.7,0.2,2.3H189.8z
		 M189.6,274.7c-1.9,0-4.1,0.3-4.1,2.2c0,1.1,0.8,1.7,1.7,1.7c1.3,0,2.1-0.8,2.3-1.6c0.1-0.2,0.1-0.4,0.1-0.6V274.7z"/>
	<path class="st1" d="M194.1,272.5c0-1,0-1.8-0.1-2.6h1.6l0.1,1.6h0c0.5-0.9,1.6-1.8,3.2-1.8c1.3,0,3.4,0.8,3.4,4.1v5.8h-1.8V274
		c0-1.6-0.6-2.9-2.2-2.9c-1.2,0-2.1,0.8-2.4,1.8c-0.1,0.2-0.1,0.5-0.1,0.8v5.8h-1.8V272.5z"/>
	<path class="st1" d="M207.2,267.2c0,0.6-0.4,1.1-1.1,1.1c-0.6,0-1.1-0.5-1.1-1.1c0-0.6,0.5-1.1,1.1-1.1
		C206.7,266.1,207.2,266.6,207.2,267.2z M205.2,279.6v-9.7h1.8v9.7H205.2z"/>
	<path class="st1" d="M208.8,278.6l4.4-5.7c0.4-0.5,0.8-1,1.3-1.5v0h-5.2v-1.4h7.4l0,1.1l-4.3,5.6c-0.4,0.5-0.8,1-1.2,1.5v0h5.7v1.4
		h-7.9V278.6z"/>
	<path class="st1" d="M219.3,275.1c0,2.4,1.6,3.4,3.3,3.4c1.3,0,2-0.2,2.7-0.5l0.3,1.3c-0.6,0.3-1.7,0.6-3.2,0.6c-3,0-4.8-2-4.8-4.9
		s1.7-5.2,4.5-5.2c3.2,0,4,2.8,4,4.6c0,0.4,0,0.6-0.1,0.8H219.3z M224.4,273.8c0-1.1-0.5-2.9-2.4-2.9c-1.8,0-2.6,1.6-2.7,2.9H224.4z
		"/>
	<path class="st1" d="M236.7,265.4v11.7c0,0.9,0,1.8,0.1,2.5h-1.6l-0.1-1.7h0c-0.5,1.1-1.7,1.9-3.3,1.9c-2.3,0-4.1-2-4.1-4.9
		c0-3.2,2-5.2,4.3-5.2c1.5,0,2.5,0.7,2.9,1.5h0v-5.8H236.7z M234.9,273.9c0-0.2,0-0.5-0.1-0.7c-0.3-1.1-1.2-2-2.5-2
		c-1.8,0-2.9,1.6-2.9,3.7c0,2,1,3.6,2.9,3.6c1.2,0,2.3-0.8,2.6-2.1c0.1-0.2,0.1-0.5,0.1-0.8V273.9z"/>
	<path class="st1" d="M245.8,267.2c0,0.6-0.4,1.1-1.1,1.1c-0.6,0-1.1-0.5-1.1-1.1c0-0.6,0.5-1.1,1.1-1.1
		C245.4,266.1,245.8,266.6,245.8,267.2z M243.8,279.6v-9.7h1.8v9.7H243.8z"/>
	<path class="st1" d="M248.5,272.5c0-1,0-1.8-0.1-2.6h1.6l0.1,1.6h0c0.5-0.9,1.6-1.8,3.2-1.8c1.3,0,3.4,0.8,3.4,4.1v5.8H255V274
		c0-1.6-0.6-2.9-2.2-2.9c-1.2,0-2.1,0.8-2.4,1.8c-0.1,0.2-0.1,0.5-0.1,0.8v5.8h-1.8V272.5z"/>
	<path class="st1" d="M272.6,274.7c0,3.6-2.5,5.1-4.8,5.1c-2.6,0-4.6-1.9-4.6-5c0-3.2,2.1-5.1,4.8-5.1
		C270.7,269.7,272.6,271.7,272.6,274.7z M264.9,274.8c0,2.1,1.2,3.7,2.9,3.7c1.7,0,2.9-1.6,2.9-3.8c0-1.6-0.8-3.7-2.9-3.7
		C265.8,271,264.9,272.9,264.9,274.8z"/>
	<path class="st1" d="M274.8,272.5c0-1,0-1.8-0.1-2.6h1.6l0.1,1.6h0c0.5-0.9,1.6-1.8,3.2-1.8c1.3,0,3.4,0.8,3.4,4.1v5.8h-1.8V274
		c0-1.6-0.6-2.9-2.2-2.9c-1.2,0-2.1,0.8-2.4,1.8c-0.1,0.2-0.1,0.5-0.1,0.8v5.8h-1.8V272.5z"/>
	<path class="st1" d="M286.9,275.1c0,2.4,1.6,3.4,3.3,3.4c1.3,0,2-0.2,2.7-0.5l0.3,1.3c-0.6,0.3-1.7,0.6-3.2,0.6c-3,0-4.8-2-4.8-4.9
		s1.7-5.2,4.5-5.2c3.2,0,4,2.8,4,4.6c0,0.4,0,0.6-0.1,0.8H286.9z M292.1,273.8c0-1.1-0.5-2.9-2.4-2.9c-1.8,0-2.6,1.6-2.7,2.9H292.1z
		"/>
	<path class="st1" d="M57.5,301.8c0.5,0.3,1.4,0.7,2.3,0.7c1.3,0,1.9-0.6,1.9-1.4c0-0.8-0.5-1.3-1.8-1.8c-1.7-0.6-2.6-1.6-2.6-2.7
		c0-1.6,1.3-2.8,3.3-2.8c1,0,1.8,0.3,2.4,0.6l-0.4,1.3c-0.4-0.2-1.1-0.6-2-0.6c-1,0-1.6,0.6-1.6,1.3c0,0.8,0.6,1.2,1.8,1.6
		c1.7,0.6,2.5,1.5,2.5,2.9c0,1.7-1.3,2.9-3.6,2.9c-1.1,0-2-0.3-2.7-0.7L57.5,301.8z"/>
	<path class="st1" d="M67.6,291.2c0,0.6-0.4,1.1-1.1,1.1c-0.6,0-1.1-0.5-1.1-1.1c0-0.6,0.5-1.1,1.1-1.1
		C67.2,290.1,67.6,290.6,67.6,291.2z M65.6,303.6v-9.7h1.8v9.7H65.6z"/>
	<path class="st1" d="M70.3,296.5c0-1,0-1.8-0.1-2.6h1.6l0.1,1.6h0c0.5-0.9,1.6-1.8,3.2-1.8c1.3,0,3.4,0.8,3.4,4.1v5.8h-1.8V298
		c0-1.6-0.6-2.9-2.2-2.9c-1.2,0-2.1,0.8-2.4,1.8c-0.1,0.2-0.1,0.5-0.1,0.8v5.8h-1.8V296.5z"/>
	<path class="st1" d="M89.8,293.9c0,0.7-0.1,1.5-0.1,2.7v5.6c0,2.2-0.4,3.6-1.4,4.4c-0.9,0.9-2.3,1.2-3.5,1.2
		c-1.2,0-2.4-0.3-3.2-0.8l0.4-1.3c0.6,0.4,1.6,0.8,2.8,0.8c1.8,0,3.1-0.9,3.1-3.4v-1.1h0c-0.5,0.9-1.6,1.6-3.1,1.6
		c-2.4,0-4.1-2-4.1-4.7c0-3.3,2.1-5.1,4.4-5.1c1.7,0,2.6,0.9,3,1.7h0l0.1-1.5H89.8z M87.9,297.7c0-0.3,0-0.6-0.1-0.8
		c-0.3-1-1.2-1.9-2.5-1.9c-1.7,0-2.9,1.4-2.9,3.7c0,1.9,1,3.5,2.9,3.5c1.1,0,2.1-0.7,2.4-1.8c0.1-0.3,0.1-0.6,0.1-0.9V297.7z"/>
	<path class="st1" d="M92.6,289.4h1.8v14.2h-1.8V289.4z"/>
	<path class="st1" d="M98.3,299.1c0,2.4,1.6,3.4,3.3,3.4c1.3,0,2-0.2,2.7-0.5l0.3,1.3c-0.6,0.3-1.7,0.6-3.2,0.6c-3,0-4.8-2-4.8-4.9
		c0-2.9,1.7-5.2,4.5-5.2c3.2,0,4,2.8,4,4.6c0,0.4,0,0.6-0.1,0.8H98.3z M103.5,297.8c0-1.1-0.5-2.9-2.4-2.9c-1.8,0-2.6,1.6-2.7,2.9
		H103.5z"/>
	<path class="st1" d="M111.6,297.1c0-1.2,0-2.2-0.1-3.2h1.6l0.1,1.7h0c0.7-1.2,1.9-1.9,3.4-1.9c2.3,0,4.1,2,4.1,4.9
		c0,3.5-2.1,5.2-4.4,5.2c-1.3,0-2.4-0.6-3-1.5h0v5.3h-1.7V297.1z M113.3,299.7c0,0.3,0,0.5,0.1,0.7c0.3,1.2,1.4,2.1,2.6,2.1
		c1.9,0,2.9-1.5,2.9-3.7c0-1.9-1-3.6-2.9-3.6c-1.2,0-2.3,0.9-2.7,2.2c-0.1,0.2-0.1,0.5-0.1,0.7V299.7z"/>
	<path class="st1" d="M122.9,289.4h1.8v14.2h-1.8V289.4z"/>
	<path class="st1" d="M133,303.6l-0.1-1.2h-0.1c-0.5,0.8-1.6,1.4-3,1.4c-2,0-3-1.4-3-2.8c0-2.3,2.1-3.6,5.8-3.6v-0.2
		c0-0.8-0.2-2.2-2.2-2.2c-0.9,0-1.8,0.3-2.5,0.7l-0.4-1.2c0.8-0.5,2-0.9,3.2-0.9c3,0,3.7,2,3.7,4v3.6c0,0.8,0,1.7,0.2,2.3H133z
		 M132.8,298.7c-1.9,0-4.1,0.3-4.1,2.2c0,1.1,0.8,1.7,1.7,1.7c1.3,0,2.1-0.8,2.3-1.6c0.1-0.2,0.1-0.4,0.1-0.6V298.7z"/>
	<path class="st1" d="M144.2,303.2c-0.5,0.2-1.5,0.6-2.8,0.6c-2.9,0-4.8-2-4.8-4.9c0-3,2-5.1,5.2-5.1c1,0,2,0.3,2.4,0.5l-0.4,1.4
		c-0.4-0.2-1.1-0.5-2-0.5c-2.2,0-3.4,1.6-3.4,3.7c0,2.2,1.4,3.6,3.4,3.6c1,0,1.7-0.3,2.2-0.5L144.2,303.2z"/>
	<path class="st1" d="M147.1,299.1c0,2.4,1.6,3.4,3.3,3.4c1.3,0,2-0.2,2.7-0.5l0.3,1.3c-0.6,0.3-1.7,0.6-3.2,0.6c-3,0-4.8-2-4.8-4.9
		c0-2.9,1.7-5.2,4.5-5.2c3.2,0,4,2.8,4,4.6c0,0.4,0,0.6-0.1,0.8H147.1z M152.3,297.8c0-1.1-0.5-2.9-2.4-2.9c-1.8,0-2.6,1.6-2.7,2.9
		H152.3z"/>
	<path class="st1" d="M155.5,302.6c0-0.7,0.5-1.3,1.2-1.3s1.2,0.5,1.2,1.3c0,0.7-0.5,1.3-1.2,1.3C156,303.8,155.5,303.3,155.5,302.6
		z"/>
</g>
<g>
	<path class="st1" d="M58.8,170c1.2,0.8,3.1,1.4,5,1.4c2.8,0,4.5-1.5,4.5-3.7c0-2-1.2-3.2-4.1-4.3c-3.5-1.2-5.7-3.1-5.7-6.1
		c0-3.4,2.8-5.9,7-5.9c2.2,0,3.8,0.5,4.8,1.1l-0.8,2.3c-0.7-0.4-2.1-1-4.1-1c-2.9,0-4.1,1.8-4.1,3.2c0,2,1.3,3,4.3,4.2
		c3.6,1.4,5.5,3.2,5.5,6.3c0,3.3-2.5,6.2-7.6,6.2c-2.1,0-4.4-0.6-5.5-1.4L58.8,170z"/>
	<path class="st1" d="M78.1,153.5v4.4h4v2.1h-4v8.4c0,1.9,0.5,3,2.1,3c0.7,0,1.3-0.1,1.6-0.2l0.1,2.1c-0.5,0.2-1.4,0.4-2.5,0.4
		c-1.3,0-2.4-0.4-3-1.2c-0.8-0.8-1.1-2.2-1.1-4v-8.4H73v-2.1h2.4v-3.7L78.1,153.5z"/>
	<path class="st1" d="M98.3,169.2c0,1.6,0,3,0.1,4.2h-2.5l-0.2-2.5h-0.1c-0.7,1.2-2.4,2.9-5.1,2.9c-2.4,0-5.3-1.3-5.3-6.8v-9.1H88
		v8.6c0,2.9,0.9,4.9,3.5,4.9c1.9,0,3.2-1.3,3.7-2.6c0.2-0.4,0.3-0.9,0.3-1.4v-9.5h2.8V169.2z"/>
	<path class="st1" d="M103,162.1c0-1.6,0-2.9-0.1-4.2h2.5l0.2,2.6h0.1c0.8-1.5,2.6-2.9,5.1-2.9c2.1,0,5.5,1.3,5.5,6.6v9.2h-2.8v-8.9
		c0-2.5-0.9-4.6-3.6-4.6c-1.9,0-3.3,1.3-3.8,2.9c-0.1,0.4-0.2,0.8-0.2,1.3v9.3H103V162.1z"/>
	<path class="st1" d="M120.7,162.1c0-1.6,0-2.9-0.1-4.2h2.5l0.2,2.6h0.1c0.8-1.5,2.6-2.9,5.1-2.9c2.1,0,5.5,1.3,5.5,6.6v9.2h-2.8
		v-8.9c0-2.5-0.9-4.6-3.6-4.6c-1.9,0-3.3,1.3-3.8,2.9c-0.1,0.4-0.2,0.8-0.2,1.3v9.3h-2.8V162.1z"/>
	<path class="st1" d="M141.6,153.6c0,1-0.7,1.7-1.8,1.7c-1,0-1.7-0.8-1.7-1.7c0-1,0.7-1.8,1.8-1.8
		C140.9,151.8,141.6,152.6,141.6,153.6z M138.5,173.4v-15.5h2.8v15.5H138.5z"/>
	<path class="st1" d="M146,162.1c0-1.6,0-2.9-0.1-4.2h2.5l0.2,2.6h0.1c0.8-1.5,2.6-2.9,5.1-2.9c2.1,0,5.5,1.3,5.5,6.6v9.2h-2.8v-8.9
		c0-2.5-0.9-4.6-3.6-4.6c-1.9,0-3.3,1.3-3.8,2.9c-0.1,0.4-0.2,0.8-0.2,1.3v9.3H146V162.1z"/>
	<path class="st1" d="M177.1,157.9c-0.1,1.1-0.1,2.4-0.1,4.3v9c0,3.6-0.7,5.7-2.2,7.1c-1.5,1.4-3.7,1.9-5.6,1.9
		c-1.9,0-3.9-0.4-5.2-1.3l0.7-2.1c1,0.6,2.6,1.2,4.5,1.2c2.9,0,5-1.5,5-5.4v-1.7h-0.1c-0.9,1.4-2.5,2.6-4.9,2.6
		c-3.8,0-6.6-3.3-6.6-7.6c0-5.2,3.4-8.2,7-8.2c2.7,0,4.2,1.4,4.8,2.7h0.1l0.1-2.3H177.1z M174.2,164c0-0.5,0-0.9-0.2-1.3
		c-0.5-1.6-1.9-3-3.9-3c-2.7,0-4.6,2.3-4.6,5.9c0,3,1.5,5.6,4.6,5.6c1.7,0,3.3-1.1,3.9-2.9c0.2-0.5,0.2-1,0.2-1.5V164z"/>
	<path class="st1" d="M188.5,152.1c1.3-0.2,3.1-0.4,5.3-0.4c2.8,0,4.8,0.6,6,1.8c1.2,1,1.9,2.6,1.9,4.5c0,2-0.6,3.5-1.7,4.6
		c-1.5,1.6-3.9,2.4-6.6,2.4c-0.8,0-1.6,0-2.2-0.2v8.6h-2.8V152.1z M191.3,162.5c0.6,0.2,1.4,0.2,2.3,0.2c3.4,0,5.4-1.6,5.4-4.6
		c0-2.8-2-4.2-5.1-4.2c-1.2,0-2.1,0.1-2.6,0.2V162.5z"/>
	<path class="st1" d="M205.3,150.7h2.8v9.7h0.1c0.4-0.8,1.2-1.5,2-2c0.8-0.5,1.8-0.8,2.9-0.8c2.1,0,5.4,1.3,5.4,6.6v9.2h-2.8v-8.9
		c0-2.5-0.9-4.6-3.6-4.6c-1.8,0-3.3,1.3-3.8,2.8c-0.2,0.4-0.2,0.8-0.2,1.3v9.3h-2.8V150.7z"/>
	<path class="st1" d="M237,165.5c0,5.7-4,8.2-7.7,8.2c-4.2,0-7.4-3.1-7.4-8c0-5.2,3.4-8.2,7.7-8.2C234,157.6,237,160.8,237,165.5z
		 M224.7,165.7c0,3.4,2,6,4.7,6c2.7,0,4.7-2.5,4.7-6c0-2.6-1.3-6-4.6-6C226.2,159.7,224.7,162.7,224.7,165.7z"/>
	<path class="st1" d="M244,153.5v4.4h4v2.1h-4v8.4c0,1.9,0.5,3,2.1,3c0.7,0,1.3-0.1,1.6-0.2l0.1,2.1c-0.5,0.2-1.4,0.4-2.5,0.4
		c-1.3,0-2.4-0.4-3-1.2c-0.8-0.8-1.1-2.2-1.1-4v-8.4h-2.4v-2.1h2.4v-3.7L244,153.5z"/>
	<path class="st1" d="M265,165.5c0,5.7-4,8.2-7.7,8.2c-4.2,0-7.4-3.1-7.4-8c0-5.2,3.4-8.2,7.7-8.2C262,157.6,265,160.8,265,165.5z
		 M252.7,165.7c0,3.4,2,6,4.7,6c2.7,0,4.7-2.5,4.7-6c0-2.6-1.3-6-4.6-6C254.2,159.7,252.7,162.7,252.7,165.7z"/>
	<path class="st1" d="M268.2,170.5c0.8,0.5,2.3,1.1,3.7,1.1c2,0,3-1,3-2.3c0-1.3-0.8-2.1-2.9-2.8c-2.8-1-4.1-2.5-4.1-4.4
		c0-2.5,2-4.5,5.3-4.5c1.6,0,2.9,0.4,3.8,1l-0.7,2c-0.6-0.4-1.7-0.9-3.2-0.9c-1.7,0-2.6,1-2.6,2.1c0,1.3,0.9,1.9,2.9,2.6
		c2.7,1,4.1,2.4,4.1,4.7c0,2.7-2.1,4.6-5.8,4.6c-1.7,0-3.3-0.4-4.4-1.1L268.2,170.5z"/>
</g>
</svg>
