<?xml version="1.0" encoding="utf-8"?>
<!-- Generator: Adobe Illustrator 23.0.4, SVG Export Plug-In . SVG Version: 6.00 Build 0)  -->
<svg version="1.1" id="Layer_1" xmlns="http://www.w3.org/2000/svg" xmlns:xlink="http://www.w3.org/1999/xlink" x="0px" y="0px"
	 viewBox="0 0 24 24" style="enable-background:new 0 0 24 24;" xml:space="preserve">
<style type="text/css">
	.st0{fill:#4E65AF;}
</style>
<g>
	<path class="st0" d="M1,10h7c0.6,0,1-0.4,1-1l0,0c0-0.6-0.4-1-1-1H1C0.4,8,0,8.4,0,9S0.4,10,1,10z"/>
	<path class="st0" d="M1,16h7c0.6,0,1-0.4,1-1l0,0c0-0.6-0.4-1-1-1H1c-0.6,0-1,0.4-1,1S0.4,16,1,16z"/>
	<path class="st0" d="M16,20H1c-0.6,0-1,0.4-1,1s0.4,1,1,1h15c0.6,0,1-0.4,1-1S16.6,20,16,20z"/>
	<path class="st0" d="M1,4h15c0.6,0,1-0.4,1-1s-0.4-1-1-1H1C0.4,2,0,2.4,0,3S0.4,4,1,4z"/>
	<path class="st0" d="M23.7,18.3l-3.5-3.5C20.7,14,21,13,21,12c0-2.8-2.2-5-5-5s-5,2.2-5,5s2.2,5,5,5c1,0,2-0.3,2.8-0.8l3.5,3.5
		c0.2,0.2,0.5,0.3,0.7,0.3s0.5-0.1,0.7-0.3C24.1,19.3,24.1,18.7,23.7,18.3z M16,15c-1.7,0-3-1.3-3-3s1.3-3,3-3s3,1.3,3,3
		S17.7,15,16,15z"/>
</g>
</svg>
