<?xml version="1.0" encoding="utf-8"?>
<!-- Generator: Adobe Illustrator 23.0.4, SVG Export Plug-In . SVG Version: 6.00 Build 0)  -->
<svg version="1.1" id="Layer_1" xmlns="http://www.w3.org/2000/svg" xmlns:xlink="http://www.w3.org/1999/xlink" x="0px" y="0px"
	 viewBox="0 0 24 24" style="enable-background:new 0 0 24 24;" xml:space="preserve">
<style type="text/css">
	.st0{fill:#4E65AF;}
</style>
<g>
	<path class="st0" d="M13.6,15.6c0.2-0.2,0.5-0.5,0.5-1.2c0-0.5-0.4-0.9-1.1-1.2v2.7C13.2,15.8,13.4,15.7,13.6,15.6z"/>
	<path class="st0" d="M12,0C5.4,0,0,5.4,0,12s5.4,12,12,12s12-5.4,12-12S18.6,0,12,0z M16.1,14.4c0,1.5-0.8,2.4-1.4,2.9
		c-0.5,0.3-1.1,0.6-1.7,0.7V20h-2v-2c-1.2-0.1-2.3-0.4-3.3-0.7l-0.9-0.3L7.4,15l0.9,0.3c0.9,0.3,1.8,0.5,2.7,0.6v-3.5
		C9.4,11.9,7.6,11,7.6,8.7c0-1.1,0.5-2.1,1.5-2.6c0.5-0.3,1.2-0.5,1.9-0.6V4h2v1.6c1.2,0.1,2.3,0.5,2.9,0.8l0.9,0.5l-1,1.8l-0.9-0.5
		c-0.4-0.2-1.1-0.4-1.9-0.5V11C14.5,11.6,16.1,12.3,16.1,14.4z"/>
	<path class="st0" d="M10.1,7.8C9.8,8,9.6,8.3,9.6,8.7c0,0.8,0.4,1.2,1.4,1.6V7.6C10.7,7.6,10.4,7.7,10.1,7.8z"/>
</g>
</svg>
