<?xml version="1.0" encoding="utf-8"?>
<!-- Generator: Adobe Illustrator 23.0.4, SVG Export Plug-In . SVG Version: 6.00 Build 0)  -->
<svg version="1.1" id="Layer_1" xmlns="http://www.w3.org/2000/svg" xmlns:xlink="http://www.w3.org/1999/xlink" x="0px" y="0px"
	 viewBox="0 0 24 24" style="enable-background:new 0 0 24 24;" xml:space="preserve">
<style type="text/css">
	.st0{fill:#4E65AF;}
</style>
<g>
	<path class="st0" d="M10,24C4.5,24,0,19.5,0,14S4.5,4,10,4c0.4,0,0.7,0,1.1,0.1l1,0.1l-0.2,2l-1-0.1c-0.3,0-0.6,0-0.9,0
		c-4.4,0-8,3.6-8,8s3.6,8,8,8s8-3.6,8-8c0-0.3,0-0.6,0-0.9l-0.1-1l2-0.2l0.1,1c0,0.4,0.1,0.7,0.1,1.1C20,19.5,15.5,24,10,24z"/>
	<path class="st0" d="M10,20c-3.3,0-6-2.7-6-6s2.7-6,6-6s6,2.7,6,6S13.3,20,10,20z M10,10c-2.2,0-4,1.8-4,4s1.8,4,4,4s4-1.8,4-4
		S12.2,10,10,10z"/>
	<path class="st0" d="M19.3,10.1l4.6-4.6l-3-1l1.9-1.9l-1.4-1.4l-1.9,1.9l-1-3l-4.6,4.6l1,3l-4.3,4.3C10.3,12,10.2,12,10,12
		c-1.1,0-2,0.9-2,2s0.9,2,2,2s2-0.9,2-2c0-0.2,0-0.3-0.1-0.5l4.3-4.3L19.3,10.1z"/>
</g>
</svg>
