<svg xmlns="http://www.w3.org/2000/svg" width="48" height="48" viewBox="0 0 48 48"><g class="nc-icon-wrapper" fill="#111111"><path d="M27.551,21.273a2.072,2.072,0,0,0-.838-1.815,4.44,4.44,0,0,0-2.546-.591h-2.6v4.974H24.3a4.015,4.015,0,0,0,2.433-.618A2.278,2.278,0,0,0,27.551,21.273Z" fill="#111111"></path> <path d="M24,46a1,1,0,0,0,.707-.293C25.373,45.042,41,29.285,41,18A16.836,16.836,0,0,0,24,1,16.836,16.836,0,0,0,7,18C7,29.285,22.627,45.042,23.293,45.707A1,1,0,0,0,24,46ZM19,10.3h4.662a8.85,8.85,0,0,1,4.689.945A3.312,3.312,0,0,1,29.8,14.227a3.616,3.616,0,0,1-.709,2.288,3.167,3.167,0,0,1-2.041,1.149v.107A4.06,4.06,0,0,1,29.479,19a3.724,3.724,0,0,1,.779,2.487A4.033,4.033,0,0,1,28.781,24.8,6.353,6.353,0,0,1,24.672,26H19Z" fill="#111111"></path> <path d="M26.391,16.273a1.955,1.955,0,0,0,.741-1.735,1.738,1.738,0,0,0-.8-1.6,5,5,0,0,0-2.541-.5H21.567v4.34h2.471A4.236,4.236,0,0,0,26.391,16.273Z" fill="#111111"></path></g></svg>