<?xml version="1.0" encoding="utf-8"?>
<!-- Generator: Adobe Illustrator 23.0.3, SVG Export Plug-In . SVG Version: 6.00 Build 0)  -->
<svg version="1.1" id="Layer_1" xmlns="http://www.w3.org/2000/svg" xmlns:xlink="http://www.w3.org/1999/xlink" x="0px" y="0px"
	 viewBox="0 0 24 24" style="enable-background:new 0 0 24 24;" xml:space="preserve">
<style type="text/css">
	.st0{fill:#FFFFFF;}
</style>
<g>
	<path class="st0" d="M23,9H10c-0.6,0-1,0.4-1,1v13c0,0.6,0.4,1,1,1h13c0.6,0,1-0.4,1-1V10C24,9.4,23.6,9,23,9z"/>
	<path class="st0" d="M7,9c0-1.1,0.9-2,2-2h8.8c-1-4.5-5.4-7.7-10.3-6.9C3.7,0.8,0.8,3.7,0.1,7.4c-0.8,4.9,2.4,9.3,6.9,10.3V9z"/>
</g>
</svg>
