<?xml version="1.0" encoding="utf-8"?>
<!-- Generator: Adobe Illustrator 23.0.3, SVG Export Plug-In . SVG Version: 6.00 Build 0)  -->
<svg version="1.1" id="Layer_1" xmlns="http://www.w3.org/2000/svg" xmlns:xlink="http://www.w3.org/1999/xlink" x="0px" y="0px"
	 viewBox="0 0 24 24" style="enable-background:new 0 0 24 24;" xml:space="preserve">
<style type="text/css">
	.st0{fill:#FFFFFF;}
</style>
<g>
	<path class="st0" d="M18,1H6C3.2,1,1,3.2,1,6v12c0,2.8,2.2,5,5,5h12c2.8,0,5-2.2,5-5V6C23,3.2,20.8,1,18,1z M12,5c2.8,0,5,2.2,5,5
		s-2.2,5-5,5s-5-2.2-5-5S9.2,5,12,5z M5,4c0.6,0,1,0.4,1,1S5.6,6,5,6S4,5.6,4,5S4.4,4,5,4z M19,20H5v-2h14V20z"/>
</g>
</svg>
