<?xml version="1.0" encoding="utf-8"?>
<!-- Generator: Adobe Illustrator 23.0.3, SVG Export Plug-In . SVG Version: 6.00 Build 0)  -->
<svg version="1.1" id="Layer_1" xmlns="http://www.w3.org/2000/svg" xmlns:xlink="http://www.w3.org/1999/xlink" x="0px" y="0px"
	 viewBox="0 0 24 24" style="enable-background:new 0 0 24 24;" xml:space="preserve">
<style type="text/css">
	.st0{fill:#FFFFFF;}
</style>
<g>
	<path class="st0" d="M9,12L9,12c-2.8,0-5-3.2-5-6V5c0-2.8,2.2-5,5-5l0,0c2.8,0,5,2.2,5,5v1C14,8.8,11.8,12,9,12z"/>
	<path class="st0" d="M12,18c0-1.3,0.4-2.5,1-3.6c-1.2-0.2-2.6-0.4-4-0.4c-2.8,0-5.3,0.6-7,1.2c-1.2,0.4-2,1.6-2,2.8v4h13.3
		C12.5,20.9,12,19.5,12,18z"/>
	<polygon class="st0" points="19,13 20.5,16.1 24,16.6 21.5,19.1 22.1,22.5 19,20.9 15.9,22.5 16.5,19.1 14,16.6 17.5,16.1 	"/>
</g>
</svg>
