<?xml version="1.0" encoding="utf-8"?>
<!-- Generator: Adobe Illustrator 23.0.3, SVG Export Plug-In . SVG Version: 6.00 Build 0)  -->
<svg version="1.1" id="图层_1" xmlns="http://www.w3.org/2000/svg" xmlns:xlink="http://www.w3.org/1999/xlink" x="0px" y="0px"
	 viewBox="0 0 300.4 459.2" style="enable-background:new 0 0 300.4 459.2;" xml:space="preserve">
<style type="text/css">
	.st0{fill-rule:evenodd;clip-rule:evenodd;fill:#26387A;}
</style>
<g id="XMLID_18_">
	<g>
		<path class="st0" d="M127.3,118.3L111,140.7c-8.1,11.2-5.6,31,5.5,39.1l30.1,21.7c5.3,3.7,5.6,7.4,3.2,11.3l4.3,3.3l15.2-21.1
			c9.4-13,8.6-30.8-5.4-41l-30.3-22.2c-3.7-2.7-3.9-6.4-2.1-10.4L127.3,118.3L127.3,118.3z M153.3,19.6l-25.2,35
			c-11.8,16.4-7.5,44.4,8.7,56.3l41.5,30.4c8.4,6.3,9.6,21.8,3.4,30.1l3.6,2.7l28.6-40.4c12.9-18,12.1-44.8-8-59.6l-44.4-32.3
			c-6.3-4.4-9.3-12.3-4.2-19.5L153.3,19.6L153.3,19.6z M86.8,238.7h33.5l6,20.2c18.2,0,36.6,0,54.7,0l6-20.2h33.4l-4.3-14.9
			c-41.6,0-83.3,0-124.9,0L86.8,238.7L86.8,238.7z M38.4,2.5h227c14.6,0,26.7,12,26.7,26.7v401.1c0,14.6-12,26.7-26.7,26.7h-227
			c-14.6,0-26.7-12-26.7-26.7v-401C11.6,14.5,23.5,2.5,38.4,2.5L38.4,2.5z M38.4,4.4h227c13.5,0,24.7,11.1,24.7,24.7v401.1
			c0,13.6-11.2,24.8-24.8,24.8H38.4c-13.6,0-24.8-11.2-24.8-24.8V29.3C13.3,15.5,24.5,4.4,38.4,4.4L38.4,4.4z M284.6,367.9v62.5
			c0,10.7-8.7,19.4-19.4,19.4H38.4c-10.7,0-19.4-8.8-19.4-19.4v-62.5H284.6L284.6,367.9z M63.6,402.3l-9.9-24.8h-5l-10.1,24.8h5.6
			l2.1-5.5h9.6l2.1,5.5H63.6L63.6,402.3z M54,392h-6.1l1.6-4.4c0.2-0.7,0.5-1.4,0.7-2.2c0.2-0.7,0.4-1.2,0.5-1.8
			c0.1,0.5,0.2,1,0.5,1.8c0.2,0.6,0.5,1.4,0.7,2.2L54,392L54,392z M85.6,381.5c-1.5-1.8-3.9-3.4-6.3-4.1c-1-0.2-2.2-0.4-3.3-0.4
			c-1.8,0-3.3,0.2-4.7,0.9c-1.4,0.7-2.7,1.5-3.7,2.7s-1.8,2.4-2.4,4.1c-0.6,1.5-0.9,3.3-0.9,5.3c0,2,0.2,3.7,0.7,5.4
			c0.5,1.5,1.2,2.9,2.3,4.1c1,1.1,2.2,2,3.6,2.6c1.4,0.6,2.9,0.9,4.7,0.9c3.2,0,8.7-1.8,10.2-4.8l-3.7-3.3c-1,1.6-4.3,3.2-6.4,3.2
			c-1,0-1.8-0.2-2.7-0.6c-0.7-0.4-1.4-1-2-1.6c-0.5-0.7-0.9-1.5-1.2-2.6c-0.2-1-0.4-2.1-0.4-3.1c0-1.1,0.1-2.2,0.4-3.2
			c0.2-1,0.6-1.8,1.1-2.6c0.5-0.6,1.1-1.2,2-1.6c0.7-0.4,1.6-0.6,2.7-0.6c2,0,4.7,1.2,6,3.1L85.6,381.5L85.6,381.5z M135.4,402.3
			l-5.9-9.4c1.6-0.6,3.6-1.8,4.3-2.9c0.9-1.1,1.2-2.7,1.2-4.5c0-1.2-0.2-2.4-0.7-3.4s-1.1-1.8-2-2.4c-0.7-0.6-1.8-1.1-2.9-1.5
			s-2.3-0.5-3.4-0.5h-12.3v24.8h5.3v-8.9l4.7,0.2l5.5,8.8h6.1V402.3z M129.9,385.4c0,2.2-1.2,3.2-3.7,3.2h-6.9v-6.4h6.9
			c1.1,0,2.1,0.2,2.8,0.7C129.4,383.5,129.9,384.3,129.9,385.4L129.9,385.4z M157.5,402.3v-4.8H144v-6h10.8v-4.8H144v-4.3h13v-4.8
			h-18.2v24.8L157.5,402.3L157.5,402.3z M182.5,389.8c0-2.3-0.4-4.2-1-5.8c-0.6-1.5-1.5-2.8-2.7-3.8c-1.1-1-2.6-1.6-4.1-2.2
			c-1.5-0.4-3.3-0.6-5.3-0.6h-8.1v24.8h7.7c1.6,0,3.3-0.2,4.9-0.7c1.6-0.5,3.1-1.2,4.3-2.2c1.2-1,2.3-2.3,3.1-3.8
			C182.2,393.9,182.5,392,182.5,389.8L182.5,389.8z M177.1,389.8c0,1.1-0.1,2.2-0.5,3.1c-0.4,0.9-0.7,1.8-1.4,2.4
			c-0.6,0.6-1.5,1.1-2.6,1.5s-2.2,0.5-3.6,0.5h-2.6v-15.1h2.8c2.8,0,4.7,0.6,6,2C176.5,385.4,177.1,387.3,177.1,389.8L177.1,389.8z
			 M192.8,402.3v-24.8h-5.3v24.8H192.8L192.8,402.3z M217.1,382.4v-4.8h-20.2v4.8h7.5v20h5.3v-20H217.1L217.1,382.4z M264.5,389.8
			c0-2.3-0.4-4.2-1-5.8s-1.5-2.8-2.7-3.8c-1.1-1-2.6-1.6-4.1-2.2c-1.5-0.4-3.3-0.6-5.3-0.6h-8.2v24.8h7.7c1.6,0,3.3-0.2,4.9-0.7
			c1.6-0.5,3.1-1.2,4.3-2.2c1.2-1,2.3-2.3,3.1-3.8C264.1,393.9,264.5,392,264.5,389.8L264.5,389.8z M259.1,389.8
			c0,1.1-0.1,2.2-0.5,3.1s-0.7,1.8-1.4,2.4c-0.6,0.6-1.5,1.1-2.6,1.5s-2.2,0.5-3.6,0.5h-2.6v-15.1h2.8c2.8,0,4.7,0.6,6,2
			C258.3,385.4,259.1,387.3,259.1,389.8L259.1,389.8z M239.3,402.3v-4.8h-13.5v-6h10.8v-4.8h-10.8v-4.3h13v-4.8h-18.2v24.8
			L239.3,402.3L239.3,402.3z M195.5,434.4v-4.8H182v-6h10.8v-4.8H182v-4.3h13v-4.8h-18.2v24.8H195.5L195.5,434.4z M109.9,381.5
			c-1.5-1.8-3.9-3.4-6.3-4.1c-1-0.2-2.2-0.4-3.3-0.4c-1.8,0-3.3,0.2-4.7,0.9c-1.4,0.6-2.7,1.5-3.7,2.7s-1.8,2.4-2.4,4.1
			c-0.6,1.5-0.9,3.3-0.9,5.3c0,2,0.2,3.7,0.7,5.4c0.5,1.5,1.2,2.9,2.3,4.1c1,1.2,2.2,2,3.6,2.6c1.4,0.6,2.9,0.9,4.7,0.9
			c3.2,0,8.7-1.8,10.2-4.8l-3.7-3.3c-1,1.6-4.3,3.2-6.4,3.2c-1,0-1.8-0.2-2.7-0.6c-0.7-0.4-1.4-1-2-1.6c-0.5-0.7-0.9-1.5-1.2-2.6
			c-0.2-1-0.4-2.1-0.4-3.1c0-1.1,0.1-2.2,0.4-3.2c0.2-1,0.6-1.8,1.1-2.6c0.5-0.6,1.1-1.2,2-1.6c0.7-0.4,1.6-0.6,2.7-0.6
			c2,0,4.7,1.2,6,3.1L109.9,381.5L109.9,381.5z M88.4,426.4c0-1.4-0.4-2.6-1-3.4c-0.6-0.8-1.5-1.5-2.6-2.1c0.9-0.5,1.5-1.1,2.1-2.1
			c0.5-0.9,0.7-1.8,0.7-2.8c0-2.2-0.7-3.8-2.2-4.8c-1.4-1.1-3.4-1.6-5.9-1.6H67.9v24.8h11.5c1.4,0,2.6-0.1,3.7-0.5s2.1-0.9,2.8-1.5
			c0.7-0.6,1.4-1.5,1.8-2.6C88.2,428.8,88.4,427.6,88.4,426.4L88.4,426.4z M82.5,416.5c0,0.6-0.2,1.2-0.6,1.6
			c-0.4,0.4-1.1,0.6-2.3,0.6h-6.7V414h6.5c1.1,0,2,0.2,2.4,0.6C82.2,415.1,82.5,415.7,82.5,416.5L82.5,416.5z M83.3,426.4
			c0,1-0.2,1.8-0.9,2.4c-0.6,0.6-1.5,0.9-2.8,0.9h-6.7v-6.4h6.7C81.9,423.2,83.3,424.3,83.3,426.4L83.3,426.4z M112.5,423.5v-13.9
			h-5v14c0,2.1-0.5,3.6-1.4,4.7c-0.9,1.1-2.2,1.6-3.8,1.6s-2.9-0.6-3.8-1.8s-1.4-2.8-1.4-4.7v-13.9h-5v14c0,1.8,0.2,3.4,0.7,4.8
			c0.5,1.4,1.1,2.6,2.1,3.6c0.9,1,2.1,1.6,3.3,2.2c1.2,0.5,2.7,0.7,4.2,0.7c3.3,0,5.9-1,7.6-2.9C111.6,429.8,112.5,427,112.5,423.5
			L112.5,423.5z M135.9,426.9c0-1.4-0.2-2.4-0.7-3.3c-0.5-0.9-1.1-1.6-2.1-2.2c-0.7-0.5-1.8-1-2.7-1.2c-1-0.4-2.1-0.6-3.1-0.9
			c-1-0.2-2-0.5-2.6-0.6c-0.6-0.1-1.1-0.4-1.5-0.6c-0.4-0.2-0.6-0.5-0.7-0.7s-0.2-0.6-0.2-1c0-0.2,0-0.5,0.1-0.7s0.4-0.5,0.6-0.7
			c0.2-0.2,0.6-0.4,1.1-0.5c0.5-0.1,1-0.2,1.6-0.2c1.1,0,2.2,0.2,3.2,0.6c0.9,0.4,1.8,1,2.7,2l3.7-3.4c-1.2-1.2-2.6-2.2-4.1-2.9
			c-1.5-0.6-3.2-1-5.3-1c-1.2,0-2.4,0.1-3.6,0.5c-1.1,0.4-2.1,0.7-2.9,1.4c-0.7,0.6-1.5,1.4-2,2.3c-0.5,0.9-0.7,2-0.7,3.1
			c0,1.2,0.2,2.3,0.6,3.1c0.4,0.9,0.9,1.5,1.6,2.1c0.7,0.5,1.5,1,2.6,1.4s2.1,0.6,3.2,0.9c1.1,0.2,2.2,0.5,2.9,0.7
			c0.7,0.2,1.2,0.5,1.8,0.7c0.4,0.2,0.6,0.5,0.7,0.9c0.1,0.2,0.2,0.6,0.2,1c0,0.9-0.4,1.6-1,2.1c-0.7,0.4-1.8,0.6-3.3,0.6
			c-1.2,0-2.4-0.2-3.6-0.6c-1.1-0.4-2.2-1.1-3.1-2.2l-3.7,3.2c1,1.4,2.3,2.6,4.1,3.3c1.8,0.7,3.7,1.1,5.9,1.1c1.8,0,3.3-0.1,4.4-0.5
			c1.2-0.4,2.3-0.9,3.1-1.6c0.7-0.6,1.4-1.5,1.8-2.6C135.8,429.1,135.9,428,135.9,426.9L135.9,426.9z M145.2,434.4v-24.8h-5v24.8
			H145.2L145.2,434.4z M171.2,434.4v-24.8h-5v10.6c0,0.4,0,0.7,0,1.2s0,1,0,1.6c0,0.5,0,1,0,1.5s0,0.7,0,1c-0.1-0.4-0.4-0.7-0.7-1.2
			c-0.4-0.5-0.6-1-1-1.5l-9.1-13.1h-4.8v24.8h5v-10.9c0-0.4,0-0.7,0-1.2c0-0.5,0-1,0-1.5c0-0.5,0-1,0-1.5s0-0.7,0-1
			c0.1,0.4,0.4,0.7,0.7,1.2c0.4,0.5,0.6,1,1,1.5l9.4,13.6h4.4v-0.3H171.2z M216.4,426.9c0-1.4-0.2-2.4-0.7-3.3
			c-0.5-0.9-1.1-1.6-2.1-2.2c-0.7-0.5-1.8-1-2.7-1.2c-1-0.4-2.1-0.6-3.1-0.9c-1-0.2-2-0.5-2.6-0.6c-0.6-0.1-1.1-0.4-1.5-0.6
			c-0.4-0.2-0.6-0.5-0.7-0.7c-0.1-0.2-0.2-0.6-0.2-1c0-0.2,0-0.5,0.1-0.7c0.1-0.2,0.4-0.5,0.6-0.7s0.6-0.4,1.1-0.5
			c0.5-0.1,1-0.2,1.6-0.2c1.1,0,2.2,0.2,3.2,0.6c0.9,0.4,1.8,1,2.7,2l3.7-3.4c-1.2-1.2-2.6-2.2-4.1-2.9c-1.5-0.6-3.2-1-5.3-1
			c-1.2,0-2.4,0.1-3.6,0.5c-1.1,0.4-2.1,0.7-2.9,1.4c-0.7,0.6-1.5,1.4-2,2.3c-0.5,0.9-0.7,2-0.7,3.1c0,1.2,0.2,2.3,0.6,3.1
			c0.4,0.9,0.9,1.5,1.6,2.1c0.7,0.5,1.5,1,2.6,1.4s2.1,0.6,3.2,0.9c1.1,0.2,2.2,0.5,2.9,0.7c0.7,0.2,1.2,0.5,1.8,0.7
			c0.4,0.2,0.6,0.5,0.7,0.9c0.1,0.2,0.2,0.6,0.2,1c0,0.9-0.4,1.6-1,2.1c-0.7,0.4-1.8,0.6-3.3,0.6c-1.2,0-2.4-0.2-3.6-0.6
			c-1.1-0.4-2.2-1.1-3.1-2.2l-3.7,3.2c1,1.4,2.3,2.6,4.1,3.3c1.8,0.7,3.7,1.1,5.9,1.1c1.8,0,3.3-0.1,4.4-0.5
			c1.2-0.4,2.3-0.9,3.1-1.6c0.7-0.6,1.4-1.5,1.8-2.6C216.1,429.1,216.4,428,216.4,426.9L216.4,426.9z M238.2,426.9
			c0-1.4-0.2-2.4-0.7-3.3c-0.5-0.9-1.1-1.6-2.1-2.2c-0.7-0.5-1.8-1-2.7-1.2c-1-0.4-2.1-0.6-3.1-0.9c-1-0.2-2-0.5-2.6-0.6
			c-0.6-0.1-1.1-0.4-1.5-0.6c-0.4-0.2-0.6-0.5-0.7-0.7c-0.1-0.2-0.2-0.6-0.2-1c0-0.2,0-0.5,0.1-0.7c0.1-0.2,0.4-0.5,0.6-0.7
			s0.6-0.4,1.1-0.5c0.5-0.1,1-0.2,1.6-0.2c1.1,0,2.2,0.2,3.2,0.6c0.9,0.4,1.8,1,2.7,2l3.7-3.4c-1.2-1.2-2.6-2.2-4.1-2.9
			c-1.5-0.6-3.2-1-5.3-1c-1.2,0-2.4,0.1-3.6,0.5c-1.1,0.4-2.1,0.7-2.9,1.4c-0.7,0.6-1.5,1.4-2,2.3c-0.5,0.9-0.7,2-0.7,3.1
			c0,1.2,0.2,2.3,0.6,3.1c0.4,0.9,0.9,1.5,1.6,2.1c0.7,0.5,1.5,1,2.6,1.4s2.1,0.6,3.2,0.9c1.1,0.2,2.2,0.5,2.9,0.7
			c0.7,0.2,1.2,0.5,1.8,0.7c0.4,0.2,0.6,0.5,0.7,0.9c0.1,0.2,0.2,0.6,0.2,1c0,0.9-0.4,1.6-1,2.1c-0.7,0.4-1.8,0.6-3.3,0.6
			c-1.2,0-2.4-0.2-3.6-0.6c-1.1-0.4-2.2-1.1-3.1-2.2l-3.7,3.2c1,1.4,2.3,2.6,4.1,3.3c1.8,0.7,3.7,1.1,5.9,1.1c1.8,0,3.3-0.1,4.4-0.5
			c1.2-0.4,2.3-0.9,3.1-1.6c0.9-0.6,1.4-1.5,1.8-2.6C238,429.1,238.2,428,238.2,426.9L238.2,426.9z M89.3,331.3h-20v-16.8h20
			C104,314.5,103.1,331.3,89.3,331.3L89.3,331.3z M158,331.3h-20.1v-16.8H158C172.7,314.5,171.8,331.3,158,331.3L158,331.3z
			 M226.7,331.3h-20.1v-16.8h20.1C241.4,314.5,240.6,331.3,226.7,331.3L226.7,331.3z M87.9,301.4H69.3v-15.7h17.9
			C98.4,285.8,98.9,301.4,87.9,301.4L87.9,301.4z M156.6,301.4h-18.8v-15.7h17.9C167.2,285.8,167.7,301.4,156.6,301.4L156.6,301.4z
			 M225.5,301.4h-18.8v-15.7h17.9C235.9,285.8,236.4,301.4,225.5,301.4L225.5,301.4z M115.5,322c-1.4-9.7-5.4-12-13.1-15.4
			c5.9-3.4,9.6-8.6,9.6-15.4c0-13.9-11.3-19.5-23.8-19.5H53.6v73.6h34.2C102.4,345.3,118,338.8,115.5,322L115.5,322z M184.4,322
			c-1.4-9.7-5.4-12-13.1-15.4c5.9-3.4,9.6-8.6,9.6-15.4c0-13.9-11.3-19.5-23.8-19.5h-34.6v73.6h34.2
			C171.2,345.3,186.7,338.8,184.4,322L184.4,322z M253.1,322c-1.4-9.7-5.4-12-13.1-15.4c5.9-3.4,9.6-8.6,9.6-15.4
			c0-13.9-11.3-19.5-23.8-19.5h-34.6v73.6h34.2C239.9,345.3,255.5,338.8,253.1,322L253.1,322z M259.7,342.9c0-0.2,0-0.6-0.1-0.7
			c-0.1-0.2-0.2-0.5-0.4-0.6c-0.2-0.2-0.4-0.4-0.7-0.5c-0.2-0.1-0.7-0.4-1.1-0.5c-0.4-0.1-0.7-0.2-1-0.4c-0.2-0.1-0.5-0.2-0.6-0.4
			c-0.1-0.1-0.2-0.2-0.2-0.4c0-0.1-0.1-0.2-0.1-0.5c0-0.1,0-0.4,0.1-0.5c0-0.1,0.1-0.2,0.2-0.4c0.1-0.1,0.2-0.2,0.5-0.2
			c0.2-0.1,0.5-0.1,0.7-0.1c0.4,0,0.7,0.1,1.1,0.2c0.2,0.1,0.6,0.4,0.9,0.6l0.6-0.7c-0.4-0.2-0.7-0.5-1.1-0.6
			c-0.4-0.1-0.9-0.2-1.4-0.2c-0.4,0-0.7,0-1.1,0.1c-0.4,0.1-0.6,0.2-0.9,0.4c-0.2,0.1-0.4,0.4-0.5,0.6s-0.2,0.5-0.2,0.9
			c0,0.2,0,0.5,0.1,0.7c0.1,0.2,0.2,0.4,0.4,0.6c0.2,0.1,0.4,0.4,0.7,0.5c0.2,0.1,0.7,0.4,1.1,0.5c0.4,0.1,0.7,0.2,1,0.4
			c0.2,0.1,0.5,0.2,0.6,0.4c0.1,0.1,0.2,0.2,0.4,0.4c0.1,0.1,0.1,0.4,0.1,0.5c0,0.4-0.1,0.7-0.5,1c-0.4,0.2-0.7,0.4-1.4,0.4
			c-0.4,0-0.9-0.1-1.2-0.2c-0.4-0.1-0.7-0.4-1-0.7l-0.6,0.6c0.4,0.4,0.7,0.6,1.2,0.7c0.5,0.2,1,0.4,1.6,0.4c0.5,0,0.9,0,1.1-0.1
			c0.4-0.1,0.6-0.2,0.9-0.5c0.2-0.2,0.4-0.5,0.5-0.7C259.6,343.6,259.7,343.1,259.7,342.9L259.7,342.9z M268.4,345.1v-8.2h-1
			l-2.1,4.9c0,0.1-0.1,0.2-0.1,0.4c0,0.1-0.1,0.2-0.1,0.5c0,0.1-0.1,0.2-0.1,0.4c0,0.1-0.1,0.2-0.1,0.4c0-0.1,0-0.2-0.1-0.4
			c0-0.1-0.1-0.2-0.1-0.4c0-0.1-0.1-0.2-0.1-0.5c0-0.1-0.1-0.2-0.1-0.4l-2.1-4.9h-1v8.2h0.9v-5.6v-0.9c0,0.1,0,0.1,0.1,0.2
			c0,0.1,0.1,0.2,0.1,0.4c0,0.1,0.1,0.2,0.1,0.4c0,0.1,0.1,0.2,0.1,0.4l2.3,5.4l2.3-5.4c0-0.1,0.1-0.2,0.1-0.4
			c0-0.1,0.1-0.2,0.1-0.4c0-0.1,0.1-0.2,0.1-0.4c0-0.1,0.1-0.2,0.1-0.2v0.9v5.6H268.4L268.4,345.1z"/>
	</g>
</g>
</svg>
