<?xml version="1.0" encoding="utf-8"?>
<!-- Generator: Adobe Illustrator 23.0.3, SVG Export Plug-In . SVG Version: 6.00 Build 0)  -->
<svg version="1.1" id="图层_1" xmlns="http://www.w3.org/2000/svg" xmlns:xlink="http://www.w3.org/1999/xlink" x="0px" y="0px"
	 viewBox="0 0 962.8 459.2" style="enable-background:new 0 0 962.8 459.2;" xml:space="preserve">
<style type="text/css">
	.st0{fill:url(#SVGID_1_);}
	.st1{fill:url(#SVGID_2_);}
	.st2{fill:url(#SVGID_3_);}
	.st3{fill:url(#SVGID_4_);}
	.st4{fill:url(#SVGID_5_);}
	.st5{fill:url(#SVGID_6_);}
	.st6{fill:url(#SVGID_7_);}
	.st7{fill:url(#SVGID_8_);}
	.st8{fill:url(#SVGID_9_);}
	.st9{fill:url(#SVGID_10_);}
	.st10{fill:url(#SVGID_11_);}
	.st11{fill:url(#SVGID_12_);}
	.st12{fill:url(#SVGID_13_);}
	.st13{fill:url(#SVGID_14_);}
	.st14{fill:url(#SVGID_15_);}
	.st15{fill:#414042;}
</style>
<g>
	<g>
		<g>
			
				<linearGradient id="SVGID_1_" gradientUnits="userSpaceOnUse" x1="57.2834" y1="-1217.764" x2="400.2086" y2="-1188.7026" gradientTransform="matrix(1 0 0 -1 0 -1113.1497)">
				<stop  offset="3.605769e-04" style="stop-color:#0E6CB6"/>
				<stop  offset="0.2538" style="stop-color:#0D7CB6"/>
				<stop  offset="0.8087" style="stop-color:#04A8B8"/>
				<stop  offset="1" style="stop-color:#02B9B6"/>
			</linearGradient>
			<path class="st0" d="M233,52.6c-17.2-4-28.3,24.2-28.3,24.2v49.9c63.8,4.6,63.2-12.5,63.2-12.5c61.2-0.6,99.4-49.9,99.4-49.9
				C310.6,80.5,250,56.7,233,52.6z"/>
			
				<linearGradient id="SVGID_2_" gradientUnits="userSpaceOnUse" x1="56.7638" y1="-1211.6346" x2="399.6892" y2="-1182.5732" gradientTransform="matrix(1 0 0 -1 0 -1113.1497)">
				<stop  offset="3.605769e-04" style="stop-color:#0E6CB6"/>
				<stop  offset="0.2538" style="stop-color:#0D7CB6"/>
				<stop  offset="0.8087" style="stop-color:#04A8B8"/>
				<stop  offset="1" style="stop-color:#02B9B6"/>
			</linearGradient>
			<path class="st1" d="M173,127V77.1c0,0-11.1-28.3-28.3-24.2S67.2,80.7,10.6,64.8c0,0,38.2,49.3,99.4,49.9
				C109.8,114.5,109.2,131.6,173,127z"/>
			
				<linearGradient id="SVGID_3_" gradientUnits="userSpaceOnUse" x1="57.6764" y1="-1222.4026" x2="400.6018" y2="-1193.3411" gradientTransform="matrix(1 0 0 -1 0 -1113.1497)">
				<stop  offset="3.605769e-04" style="stop-color:#0E6CB6"/>
				<stop  offset="0.2538" style="stop-color:#0D7CB6"/>
				<stop  offset="0.8087" style="stop-color:#04A8B8"/>
				<stop  offset="1" style="stop-color:#02B9B6"/>
			</linearGradient>
			<path class="st2" d="M180.1,54.5v130.3c2.6,0.4,5.5,0.6,8.7,1c3-0.4,5.9-0.6,8.5-1V54.5c8.3-3.4,14.1-11.5,14.1-21
				c0-12.5-10.1-22.8-22.8-22.8c-12.5,0-22.8,10.1-22.8,22.8C166,43,171.8,51,180.1,54.5z"/>
			
				<linearGradient id="SVGID_4_" gradientUnits="userSpaceOnUse" x1="69.2706" y1="-1359.2134" x2="412.1958" y2="-1330.1519" gradientTransform="matrix(1 0 0 -1 0 -1113.1497)">
				<stop  offset="3.605769e-04" style="stop-color:#0E6CB6"/>
				<stop  offset="0.2538" style="stop-color:#0D7CB6"/>
				<stop  offset="0.8087" style="stop-color:#04A8B8"/>
				<stop  offset="1" style="stop-color:#02B9B6"/>
			</linearGradient>
			<path class="st3" d="M188.8,251.2c0.8-0.4,1.6-0.6,2.4-1c2-0.8,4-1.8,6.1-2.8v-25.4c-2.6-0.6-5.5-1-8.5-1.2
				c-3,0.2-5.9,0.6-8.7,1.2v25.4c2,1,4,2,6.1,2.8C187.2,250.6,188,250.8,188.8,251.2z"/>
			
				<linearGradient id="SVGID_5_" gradientUnits="userSpaceOnUse" x1="78.2711" y1="-1465.4198" x2="421.1965" y2="-1436.3583" gradientTransform="matrix(1 0 0 -1 0 -1113.1497)">
				<stop  offset="3.605769e-04" style="stop-color:#0E6CB6"/>
				<stop  offset="0.2538" style="stop-color:#0D7CB6"/>
				<stop  offset="0.8087" style="stop-color:#04A8B8"/>
				<stop  offset="1" style="stop-color:#02B9B6"/>
			</linearGradient>
			<path class="st4" d="M197.1,344.3c0.2,0,0.2-0.2,0.4-0.2v-4.4c-1-0.6-2.8-1.2-5-1.8c-1-0.2-2.2-0.6-3.4-0.8
				c-1.2,0.2-2.2,0.4-3.2,0.8c-2.4,0.6-4.2,1.4-5.5,2v4.2c0.2,0.2,0.4,0.2,0.6,0.4c2.2,1.4,5,2.8,8.1,4.2
				C192,347.1,194.8,345.7,197.1,344.3z"/>
			
				<linearGradient id="SVGID_6_" gradientUnits="userSpaceOnUse" x1="86.156" y1="-1558.4608" x2="429.0812" y2="-1529.3993" gradientTransform="matrix(1 0 0 -1 0 -1113.1497)">
				<stop  offset="3.605769e-04" style="stop-color:#0E6CB6"/>
				<stop  offset="0.2538" style="stop-color:#0D7CB6"/>
				<stop  offset="0.8087" style="stop-color:#04A8B8"/>
				<stop  offset="1" style="stop-color:#02B9B6"/>
			</linearGradient>
			<path class="st5" d="M188.8,425.9c-2.4,0.8-5,1.6-7.9,2.2c-0.2,0-0.6,0.2-0.8,0.2l1.2,10.5c1.4,3.6,2.6,8.5,7.3,8.5
				c4.6,0,5.5-3,7.3-8.5l1.4-10.5c-0.2,0-0.4,0-0.6-0.2C193.8,427.5,191.4,426.9,188.8,425.9z"/>
			
				<linearGradient id="SVGID_7_" gradientUnits="userSpaceOnUse" x1="82.1197" y1="-1510.8329" x2="425.0449" y2="-1481.7715" gradientTransform="matrix(1 0 0 -1 0 -1113.1497)">
				<stop  offset="3.605769e-04" style="stop-color:#0E6CB6"/>
				<stop  offset="0.2538" style="stop-color:#0D7CB6"/>
				<stop  offset="0.8087" style="stop-color:#04A8B8"/>
				<stop  offset="1" style="stop-color:#02B9B6"/>
			</linearGradient>
			<path class="st6" d="M197.1,386.5c-0.2-1.2-0.6-2.2-1.2-3c-0.6-1-2.4-2.8-7.1-5.3c-4.4,2.4-6.3,4.2-6.9,5.3c-0.6,1-1,1.8-1.2,3
				c0,0.2-0.2,0.4-0.2,0.6c0,0,0,0.2,0,0.4v0.8v1.4c0,0.2,0.2,0.6,0.2,0.8c0.4,1.8,1.8,3.8,4,5.7c1.2,1,2.8,2,4.2,2.8
				c1.4-0.8,2.8-1.8,4.2-2.8c2-1.8,3.6-3.8,4-5.7c0-0.2,0-0.6,0.2-0.8v-1.4v-0.8c0-0.2,0-0.2,0-0.4
				C197.1,386.7,197.1,386.5,197.1,386.5z"/>
			
				<linearGradient id="SVGID_8_" gradientUnits="userSpaceOnUse" x1="74.3523" y1="-1419.1791" x2="417.2777" y2="-1390.1176" gradientTransform="matrix(1 0 0 -1 0 -1113.1497)">
				<stop  offset="3.605769e-04" style="stop-color:#0E6CB6"/>
				<stop  offset="0.2538" style="stop-color:#0D7CB6"/>
				<stop  offset="0.8087" style="stop-color:#04A8B8"/>
				<stop  offset="1" style="stop-color:#02B9B6"/>
			</linearGradient>
			<path class="st7" d="M188.8,307.3c0.2,0,0.2,0,0.4,0c1.4-0.2,2.6-0.6,4-0.8c1.4-0.4,2.8-0.6,4.2-1v-17c-2.6-1.4-5.5-2.6-8.5-3.6
				c-3.2,1.2-6.3,2.6-8.7,4.2v16.6c2.6,0.8,5.5,1.4,8.3,2C188.6,307.3,188.8,307.3,188.8,307.3z"/>
			
				<linearGradient id="SVGID_9_" gradientUnits="userSpaceOnUse" x1="82.1672" y1="-1511.3938" x2="425.0926" y2="-1482.3323" gradientTransform="matrix(1 0 0 -1 0 -1113.1497)">
				<stop  offset="3.605769e-04" style="stop-color:#0E6CB6"/>
				<stop  offset="0.2538" style="stop-color:#0D7CB6"/>
				<stop  offset="0.8087" style="stop-color:#04A8B8"/>
				<stop  offset="1" style="stop-color:#02B9B6"/>
			</linearGradient>
			<path class="st8" d="M205.8,388.1L205.8,388.1l-0.2,2.2c0,0.4,0,0.8-0.2,1.2c0,0.2,0,0.2,0,0.2c-0.8,3.8-3.2,7.7-6.9,10.7
				c-0.2,0.2-0.4,0.2-0.4,0.4c1.8,0.6,3.4,1.2,5,1.6c1.4,0.4,2.8,0.8,4.2,1c2.8-2.8,5.5-6.9,6.7-11.9c0.2-0.8,0.4-1.8,0.4-2.8
				l0.2-2.8v-2c0-0.8,0-1.4-0.2-2.4c-0.6-3.6-1.8-7.3-3.8-10.1c-1-1.4-1.8-2.6-3-3.6c-3.2,1.8-6.5,3-9.3,4.2c2,1.4,3.6,3,4.6,4.6
				c1.4,1.8,2.2,3.8,2.6,6.3c0,0.4,0.2,1,0.2,1.6c0,0.4,0.2,0.6,0.2,1C205.8,387.7,205.8,387.9,205.8,388.1L205.8,388.1z"/>
			
				<linearGradient id="SVGID_10_" gradientUnits="userSpaceOnUse" x1="66.3139" y1="-1324.3243" x2="409.2393" y2="-1295.2631" gradientTransform="matrix(1 0 0 -1 0 -1113.1497)">
				<stop  offset="3.605769e-04" style="stop-color:#0E6CB6"/>
				<stop  offset="0.2538" style="stop-color:#0D7CB6"/>
				<stop  offset="0.8087" style="stop-color:#04A8B8"/>
				<stop  offset="1" style="stop-color:#02B9B6"/>
			</linearGradient>
			<path class="st9" d="M275.6,166.2l-0.2-2.8c-0.6-3.6-1.4-7.1-3-9.9c-1.6-3.2-4-6.3-6.9-8.5c-5.9-4.6-11.7-5.9-16.4-6.5
				c-4.2-0.4-9.1-0.2-11.9,0.2c-0.8,0-1.4,0.2-2,0.2c-7.7-2.4-19.4-3.4-27.5,7.9c-12.9,18.2,4.8,24.6,9.9,24
				c4.2-0.6,16.8-2.6,23.6-11.3c1.8-0.2,3.8-0.4,5.9-0.2c1.6,0,3.8,0.6,5.3,1.4c0.6,0.4,1.2,0.8,1.8,1.6c0,0.2,0.2,0.2,0.2,0.4
				c0.4,0.8,0.8,1.8,1,2.6c0.2,0.6,0.4,1.2,0.4,1.8v0.2c0,0.2,0,0.4,0,0.6v1.2c0,0.6,0,1,0,1.2c0,0.4-0.2,1-0.4,1.4
				c-0.2,0.8-0.8,1.4-1.2,2.2c-1.2,1.8-3.6,4-7.1,6.1c-1,0.6-2,1.2-3.2,1.8c-7.3,3.6-17.6,6.7-30.3,9.1c-1.6,0.2-3.2,0.6-4.8,0.8
				c-1.6,0.2-3.2,0.6-4.8,0.8c-2,0.4-4.2,0.6-6.5,0.8c-2.6,0.4-5.5,0.6-8.5,1c-0.4,0-0.6,0-1,0.2c-2.6,0.2-5,0.6-7.7,1
				c-5.9,1-11.5,2.6-16.6,4.4c-4.6,1.8-8.5,3.8-11.9,6.3c-0.2,0.2-0.6,0.4-0.8,0.6c-1.6,1.2-2.8,2.2-4,3.4c-1.2,1.2-2.2,2.4-3.2,3.6
				c-0.8,1.2-1.6,2.4-2.2,3.6c-1.2,2-2,4.4-2.4,6.7c-0.2,0.4-0.2,1-0.4,1.4c0,0.6-0.2,1.4-0.2,2.2v1.6l0,0l0.2,2.2
				c0,0.2,0,0.4,0,0.6s0,0.4,0.2,0.8c0.2,1.6,0.6,3.4,0.8,4.4c0.2,0.4,0.2,0.8,0.4,1.2c0.2,1,0.6,1.8,0.8,2.4v0.2
				c1,2.2,2.2,4.4,3.6,6.7c5,7.1,11.3,11.7,17.2,15.4c5.3-3.6,10.7-6.3,15.8-8.5c-1.4-0.8-3-1.4-4.4-2.4c-7.1-4-12.7-8.9-15.6-13.5
				c-3.4-5.3-3-9.5-2.2-12.1c0.4-1,1-2.2,1.6-3.2h-0.4c1.6-2.2,4.4-4.2,7.7-6.1c0.2-0.2,0.4-0.2,0.6-0.4c0,0,0.2,0,0.2-0.2
				c0.6-0.2,1-0.6,1.6-0.8c0.2,0,0.4-0.2,0.6-0.2c0.8-0.4,1.6-0.6,2.4-1h0.2l0,0c1-0.4,2.2-0.8,3.4-1c2.2-0.6,4.6-1.2,7.1-1.6
				c1.4-0.2,3-0.4,4.4-0.6c1.4-0.2,2.8-0.4,4.2-0.4c0.2,0,0.4,0,0.6,0c2.8-0.2,5.5-0.4,7.9-0.6c5.3-0.4,9.9-1,14.1-1.6
				c5-0.8,10.3-1.6,15.4-2.6c1.8-0.4,3.6-0.8,5.3-1.2c1.6-0.4,3.2-0.8,4.8-1.2c5-1.4,10.3-3.2,15.1-5.5c6.1-2.8,12.3-6.5,17.6-13.3
				c0.4-0.4,0.6-1,1-1.4c2-3,3.6-6.5,4.2-9.5c0-0.2,0-0.2,0-0.4c0.2-0.6,0.4-1.8,0.4-2.8l0.2-4.6L275.6,166.2
				C275.6,166.4,275.6,166.4,275.6,166.2z"/>
			
				<linearGradient id="SVGID_11_" gradientUnits="userSpaceOnUse" x1="76.0707" y1="-1439.4554" x2="418.9961" y2="-1410.3939" gradientTransform="matrix(1 0 0 -1 0 -1113.1497)">
				<stop  offset="3.605769e-04" style="stop-color:#0E6CB6"/>
				<stop  offset="0.2538" style="stop-color:#0D7CB6"/>
				<stop  offset="0.8087" style="stop-color:#04A8B8"/>
				<stop  offset="1" style="stop-color:#02B9B6"/>
			</linearGradient>
			<path class="st10" d="M226.4,288.4c-1.6-4.6-4.6-8.7-8.7-12.5c-0.8-0.6-1.4-1.2-2.2-1.8c-4.2,2.2-8.3,4-12.3,5.5
				c-0.8,0.2-1.4,0.6-2.2,0.8c4.6,2.4,8.9,5.9,11.5,10.7c0.4,0.8,0.6,1.4,1,2.2l0,0v0.2c0,0.2,0.2,0.4,0.2,0.4
				c0.2,0.8,0.4,1.6,0.4,2.6l0,0c0.2,1.6,0,3.4-0.6,5.3c0,0.2,0,0.2-0.2,0.4c-0.2,0.4-0.4,0.8-0.4,1.2c-0.2,0.4-0.2,0.8-0.4,1
				c0,0.2-0.2,0.4-0.2,0.6l-0.2,0.4l0,0v0.2c-0.2,0.2-0.4,0.4-0.6,0.6c-1.8,2.4-3.8,4-6.5,5.3c-0.2,0-0.2,0.2-0.4,0.2
				c-0.6,0.2-1.2,0.6-1.8,0.8l0,0c-1.4,0.4-3,1-4.4,1.4c-0.2,0-0.4,0.2-0.8,0.2l0,0c-2,0.4-4,1-6.1,1.4l0,0
				c-0.8,0.2-1.4,0.4-2.2,0.4c-2.8,0.6-5.7,1.2-8.7,2.2l0,0c-3.6,1-7.5,2.4-11.3,5c-0.2,0.2-0.4,0.2-0.6,0.4c-1,0.8-2,1.6-3,2.6
				c-0.8,0.8-1.6,1.8-2.2,2.6c-0.2,0.2-0.4,0.6-0.4,0.8c-1,1.8-1.8,3.8-2.4,6.1c-0.2,0.8-0.4,2.2-0.6,3.4v2.6v1v1.2
				c0.2,0.8,0.2,1.4,0.4,2.2c0.4,1.4,0.8,2.4,1.4,3.8c2,4.2,5.3,6.9,8.1,8.9c3.2-2.4,6.5-4.2,9.7-6.1c-1-0.6-2-1.2-3-1.8
				c-1.6-1-4.4-3.2-5.5-5.9v-0.2c0-0.2-0.2-0.4-0.2-0.6c-0.2-0.4-0.2-1-0.2-1.6c0-0.2,0-0.4,0-0.6v-0.2c0-0.2,0-0.2,0-0.4
				c0,0,0,0,0-0.2l0,0l0,0c0-0.2,0-0.2,0-0.4c0-0.4,0-0.6,0.2-1c0-0.4,0.2-0.8,0.2-1.2v-0.2c0-0.2,0-0.4,0.2-0.6
				c0.6-2,1.6-3.2,3-4.4c0.4-0.2,0.6-0.6,1-0.8c1.2-0.8,2.8-1.6,4.6-2.2c0.2-0.2,0.6-0.2,0.8-0.2c1-0.4,2-0.6,3.2-1
				c1.6-0.4,3.4-0.8,5.5-1.2c1.2-0.2,2.4-0.4,3.6-0.6c1.6-0.2,3.2-0.6,4.8-1c2.8-0.6,5.9-1.2,9.1-2.2c0.8-0.2,1.6-0.6,2.4-0.8
				c1.4-0.6,3-1.2,4.4-2c1.2-0.6,2.6-1.4,3.8-2.4c0.6-0.4,1.2-1,1.8-1.4l1.4-1.4c0.6-0.6,1-1.2,1.6-1.8c0.4-0.6,0.6-0.8,0.8-1l1.2-2
				c1.2-2.2,2.2-4.6,2.8-6.9c1-3.4,1.2-7.3,0.6-10.9C227.4,291.6,227,290,226.4,288.4z"/>
			
				<linearGradient id="SVGID_12_" gradientUnits="userSpaceOnUse" x1="84.4855" y1="-1538.7506" x2="427.4109" y2="-1509.6891" gradientTransform="matrix(1 0 0 -1 0 -1113.1497)">
				<stop  offset="3.605769e-04" style="stop-color:#0E6CB6"/>
				<stop  offset="0.2538" style="stop-color:#0D7CB6"/>
				<stop  offset="0.8087" style="stop-color:#04A8B8"/>
				<stop  offset="1" style="stop-color:#02B9B6"/>
			</linearGradient>
			<path class="st11" d="M167.8,414.8c-2.4,0.4-4.6,0.8-6.5,1c-2,0.2-4,0.6-5.5,0.6h-0.2c-1,0-1.8,0.4-2.4,1.2
				c-0.6,0.6-1,1.6-0.8,2.4c0.2,1.8,1.6,3.2,3.4,3.2h0.2c0,0,0.6,0,1.6-0.2l4.4-0.4c3.6-0.4,8.3-1,14.1-2.4c-2.4-1.4-5-3-7.7-5
				C168.4,415.4,168,415,167.8,414.8z"/>
			
				<linearGradient id="SVGID_13_" gradientUnits="userSpaceOnUse" x1="81.371" y1="-1501.9984" x2="424.2964" y2="-1472.9369" gradientTransform="matrix(1 0 0 -1 0 -1113.1497)">
				<stop  offset="3.605769e-04" style="stop-color:#0E6CB6"/>
				<stop  offset="0.2538" style="stop-color:#0D7CB6"/>
				<stop  offset="0.8087" style="stop-color:#04A8B8"/>
				<stop  offset="1" style="stop-color:#02B9B6"/>
			</linearGradient>
			<path class="st12" d="M222.1,416.6L222.1,416.6L222.1,416.6L222.1,416.6C222.1,416.6,221.9,416.6,222.1,416.6c-1,0-3-0.2-5.7-0.6
				c-1.8-0.2-4-0.6-6.5-1c-1.6-0.4-3.4-0.8-5.5-1.2c-1.2-0.2-2.4-0.6-3.8-1c-0.6-0.2-1.2-0.4-1.8-0.6s-1-0.4-1.6-0.6
				c-2.6-0.8-5.7-2-8.5-3.2c-1.6-0.8-3.2-1.6-4.8-2.6c-1.2-0.8-2.6-1.6-3.8-2.6c-0.2-0.2-0.4-0.2-0.4-0.4c-0.2-0.2-0.4-0.2-0.6-0.4
				c-3.6-3-6.1-6.9-6.9-10.7v-0.2c-0.2-0.4-0.2-0.8-0.2-1.2v-2c0-0.6,0-1.2,0-1.6c0-0.8,0.2-1.4,0.2-1.8c0.4-2.2,1.2-4.4,2.6-6.3
				c1-1.6,2.6-3,4.6-4.4c0.2-0.2,0.4-0.4,0.8-0.4c1-0.8,2.2-1.6,3.6-2.2c1.4-0.8,2.8-1.4,4.4-2.2c0.2,0,0.4-0.2,0.6-0.2
				c1.6-0.8,3.4-1.4,5.3-2.2c1-0.4,2.2-1,3.2-1.4c1-0.4,1.8-0.8,2.8-1.2c1.4-0.6,2.8-1.4,4.4-2.2c1-0.6,1.8-1,2.8-1.6
				c0.4-0.2,0.8-0.4,1-0.8c2.8-1.8,6.1-4.6,8.1-8.9c0.6-1.2,1-2.2,1.2-3.6c0.2-0.8,0.4-1.4,0.4-2.2v-1.2v-1l-0.2-2.6
				c0-1-0.4-2.4-0.6-3.4c-0.6-2.2-1.4-4.2-2.4-5.9c-2.2,1-4.4,1.8-6.3,2.4c-1.6,0.4-3.2,1-4.8,1.4c1.6,1.2,2.4,2.6,3,4.4
				c0,0.2,0.2,0.4,0.2,0.6v0.4c0,0.4,0.2,0.8,0.2,1.2c0.2,0.4,0.2,1,0.2,1.4l0,0l0,0c0,0.2,0,0.2,0,0.2c0,0.2,0,0.2,0,0.4v0.6v0.6
				c0,0.6-0.2,1.2-0.4,1.8l0,0c-1,2.6-3.8,4.8-5.5,5.9c-1,0.6-2,1.2-3,1.8c-0.4,0.2-0.8,0.4-1.4,0.8c-1,0.6-2.2,1.2-3.4,1.6
				c-1.2,0.6-2.4,1.2-3.6,1.6c-0.4,0.2-1,0.4-1.4,0.6c-1.6,0.8-3.2,1.4-4.8,2.2c-1.2,0.6-2.6,1.4-3.8,2c-0.8,0.4-1.8,1-2.6,1.4
				c-1.4,0.8-2.6,1.8-4,2.8c-1.2,1-2.2,2-3.4,3c-1,1.2-2,2.2-3,3.6c-2,3-3.4,6.5-3.8,10.1c-0.2,0.8-0.2,1.6-0.2,2.4v2l0.2,2.8
				c0.2,1,0.4,2,0.6,3c1.2,5,3.8,8.9,6.7,11.9c1.2,1.2,2.4,2.4,3.6,3.2l0.2,0.2c1.6,1.2,3,2.2,4.6,3.2c0.4,0.2,1,0.6,1.4,0.8
				c2.4,1.4,4.8,2.4,6.9,3.2c0.6,0.2,1.2,0.4,1.8,0.6c2,0.8,4,1.4,6.3,2c0.8,0.2,1.4,0.4,2.2,0.6c0.4,0.2,1,0.2,1.4,0.4
				c0.8,0.2,1.8,0.4,2.6,0.6c5.7,1.2,10.3,2,14.1,2.4c2,0.2,3.4,0.4,4.4,0.4l1.8,0.2c1.8,0,3.4-1.4,3.4-3.2
				C225.5,418.4,223.9,416.6,222.1,416.6z"/>
			
				<linearGradient id="SVGID_14_" gradientUnits="userSpaceOnUse" x1="71.9098" y1="-1390.3561" x2="414.8351" y2="-1361.2946" gradientTransform="matrix(1 0 0 -1 0 -1113.1497)">
				<stop  offset="3.605769e-04" style="stop-color:#0E6CB6"/>
				<stop  offset="0.2538" style="stop-color:#0D7CB6"/>
				<stop  offset="0.8087" style="stop-color:#04A8B8"/>
				<stop  offset="1" style="stop-color:#02B9B6"/>
			</linearGradient>
			<path class="st13" d="M239.5,228c0-0.6-0.2-1.4-0.2-2.2c0-0.4-0.2-1-0.2-1.4c-0.4-2.2-1.4-4.4-2.4-6.7c-0.6-1.2-1.4-2.4-2.2-3.6
				c-7.1,1.6-14.1,2.8-20.8,3.8c3.6,1.8,6.5,4,8.1,6.5c0.6,0.8,1.2,1.8,1.6,2.8c1,2.4,1.4,6.3-1.2,10.9c-3,5.5-8.7,10.5-17,15.1
				c-1.6,0.8-3,1.6-4.4,2.4c-1,0.4-2,1-3,1.4c-0.8,0.4-1.6,0.8-2.4,1c0,0-0.2,0-0.2,0.2c-1.8,0.8-3.8,1.4-5.9,2.2c0,0-0.2,0-0.2,0.2
				c-1.6,0.6-3.2,1.2-5.3,2c-1,0.4-2,0.8-3,1.2c-3.2,1.4-6.5,3-9.9,4.8c-1.4,0.8-2.8,1.8-4.2,2.6c-1.2,0.8-2.6,1.8-3.8,2.8
				c-0.8,0.6-1.4,1.2-2.2,1.8c-4,3.8-7.1,7.9-8.7,12.3c-0.6,1.6-1,3.2-1.2,5c-0.6,3.6-0.4,7.5,0.6,10.7c0.6,2.4,1.6,4.6,2.8,6.9
				l0.6,1v0.2l0.6,1c0.2,0.2,0.4,0.6,0.8,1c0.4,0.6,1,1.4,1.6,1.8l1.6,1.6c0.6,0.4,1.2,1,1.8,1.4c0.8-0.8,1.8-1.6,2.6-2.2
				c3.2-2.4,6.7-3.8,9.7-5c-4.8-2.2-8.3-6.3-9.3-11.1c-0.4-2.4-0.2-4.8,0.6-7.3c1-2.6,2.6-5.3,5.3-7.5c2.4-2,5-3.8,7.9-5.5
				c1-0.6,2-1,3-1.6c0.8-0.4,1.6-0.8,2.4-1.2c2-0.8,4-1.6,5.7-2.2c0.2,0,0.4-0.2,0.4-0.2c1-0.4,2.4-0.8,3.8-1.2c1.4-0.4,3-1,4.6-1.6
				c0.8-0.4,1.8-0.6,2.6-1c2.4-0.8,4.8-2,7.3-3c1.4-0.6,3-1.4,4.4-2.2c0,0,0,0,0.2,0c1.2-0.8,2.6-1.4,4-2.2
				c5.9-3.6,12.1-8.3,17.2-15.4c1.4-2.2,2.8-4.4,3.6-6.7v-0.2c0.4-0.6,0.6-1.6,0.8-2.4c0.2-0.4,0.2-0.8,0.4-1.2
				c0.4-1,0.6-2.8,0.8-4.4c0-0.6,0.2-0.8,0.2-1c0-0.2,0-0.4,0-0.8l0.2-2v-0.2L239.5,228z"/>
			
				<linearGradient id="SVGID_15_" gradientUnits="userSpaceOnUse" x1="63.4877" y1="-1290.976" x2="406.4131" y2="-1261.9146" gradientTransform="matrix(1 0 0 -1 0 -1113.1497)">
				<stop  offset="3.605769e-04" style="stop-color:#0E6CB6"/>
				<stop  offset="0.2538" style="stop-color:#0D7CB6"/>
				<stop  offset="0.8087" style="stop-color:#04A8B8"/>
				<stop  offset="1" style="stop-color:#02B9B6"/>
			</linearGradient>
			<path class="st14" d="M146.8,199.5c4-2.8,8.5-5.3,13.7-7.3c1.2-0.4,2.4-0.8,3.6-1.2c-12.7-2.4-23-5.5-30.3-9.1
				c-1.2-0.6-2.2-1.2-3.2-1.8c-3.2-2-5.9-4.2-7.1-6.3c-0.4-0.6-0.8-1.2-1.2-2c-0.2-0.4-0.4-0.8-0.4-1.2c0-0.6,0-1,0-1.4V169v-0.8
				c0-0.2,0-0.4,0-0.6v-0.2v-0.2c0-0.6,0.2-1,0.4-1.4c0.2-1,0.6-2,1-2.8c0-0.2,0.2-0.2,0.2-0.4c0.6-0.6,1-1.2,1.8-1.6
				c1.4-0.8,3.6-1.2,5.3-1.4c0.6,0,1.2,0,1.8,0c1.2,0,2.6,0,3.8,0.2c6.9,8.9,19.4,10.9,23.6,11.3c4.8,0.6,22.8-5.9,9.9-24
				c-8.1-11.5-20-10.3-27.5-7.9c-0.6,0-1.2-0.2-2-0.2c-2.8-0.4-7.5-0.6-11.9-0.2c-4.4,0.6-10.5,1.8-16.2,6.5
				c-2.8,2.2-5.3,5.3-6.9,8.5c-1.4,3-2.4,6.3-3,10.1l-0.4,3.6l0.2,4.6c0.2,0.8,0.2,2.2,0.4,2.6c0,0.2,0,0.2,0,0.4
				c0.4,1.6,1,3.4,1.8,5.3c1,2,2,4,3.4,5.9c5.3,6.7,11.5,10.3,17.6,13.3c4.8,2.2,10.1,4,15.1,5.5
				C142.5,202.9,144.6,201.1,146.8,199.5z"/>
		</g>
	</g>
</g>
<g>
	<path class="st15" d="M390.4,360.8c4.6,0,8.5-0.8,11.8-2.3c3.3-1.5,6.8-4,10.4-7.4l8.6,8.8c-8.3,9.3-18.5,13.9-30.4,13.9
		c-11.9,0-21.8-3.8-29.7-11.5c-7.9-7.7-11.8-17.4-11.8-29.1c0-11.7,4-21.5,12-29.3c8-7.8,18.1-11.7,30.4-11.7
		c12.2,0,22.4,4.5,30.6,13.5l-8.5,9.3c-3.8-3.6-7.3-6.1-10.7-7.6c-3.3-1.4-7.3-2.1-11.8-2.1c-8,0-14.7,2.6-20.1,7.7
		c-5.4,5.2-8.1,11.7-8.1,19.7s2.7,14.7,8.1,20.1C376.7,358.1,383.1,360.8,390.4,360.8z"/>
	<path class="st15" d="M492.9,294v12.5h-42.1v20.9h37.8v11.8h-37.8v21.1h43.4v12.5h-56.8V294H492.9z"/>
	<path class="st15" d="M574.2,319.6c0,13-5.7,21.2-17,24.6l20.6,28.7h-16.9l-18.8-26.5h-17.5v26.5h-13.3V294h29.3
		c12,0,20.6,2,25.8,6.1C571.6,304.1,574.2,310.6,574.2,319.6z M556.5,330.8c2.7-2.3,4.1-6.1,4.1-11.2c0-5.2-1.4-8.7-4.2-10.6
		c-2.8-1.9-7.7-2.9-14.9-2.9h-16.9v28.2h16.6C548.7,334.3,553.8,333.1,556.5,330.8z"/>
	<path class="st15" d="M622.1,306.2v66.7h-13.3v-66.7h-23.9V294H646v12.2H622.1z"/>
	<path class="st15" d="M660.4,294h13.3v78.9h-13.3V294z"/>
	<path class="st15" d="M708.9,306.4v21.7h35v12.3h-35v32.5h-13.3V294h52.6l-0.1,12.4H708.9z"/>
	<path class="st15" d="M763.8,294h13.3v78.9h-13.3V294z"/>
	<path class="st15" d="M854.4,294v12.5h-42.1v20.9h37.8v11.8h-37.8v21.1h43.4v12.5H799V294H854.4z"/>
	<path class="st15" d="M932.5,304.3c7.6,6.9,11.4,16.5,11.4,28.7c0,12.3-3.7,22-11.1,29.1c-7.4,7.1-18.7,10.7-33.8,10.7h-26.2V294
		h27.1C914,294,924.9,297.4,932.5,304.3z M930.4,333.4c0-18.1-10.3-27.1-31-27.1h-13.3v54h14.8c9.6,0,16.9-2.3,21.9-6.8
		C927.9,348.9,930.4,342.2,930.4,333.4z"/>
</g>
<g>
	<path class="st15" d="M361.5,252.8V123.1h21.9v56.2h64.4v-56.2h21.9v129.7h-21.9v-53.1h-64.4v53.1H361.5z"/>
	<path class="st15" d="M505.7,123.1h21.9v129.7h-21.9V123.1z"/>
	<path class="st15" d="M651.1,134.4c9,7.5,13.5,19.2,13.5,34.9c0,15.7-4.6,27.2-13.8,34.5c-9.2,7.3-23.3,10.9-42.4,10.9h-23v38
		h-21.9V123.1h44.5C627.7,123.1,642.1,126.9,651.1,134.4z M635.6,187.9c4.4-4.6,6.6-11.4,6.6-20.4c0-9-2.8-15.3-8.3-19
		s-14.3-5.6-26.2-5.6h-22.3v52h25.4C623,194.9,631.2,192.6,635.6,187.9z"/>
	<path class="st15" d="M701.8,223.3l-13,29.5h-23.4l57.1-129.7h23.4l57.1,129.7h-23.4l-13-29.5H701.8z M757.8,203.1l-23.6-53.4
		l-23.6,53.4H757.8z"/>
	<path class="st15" d="M839.4,223.3l-13,29.5h-23.4l57.1-129.7h23.4l57.1,129.7h-23.4l-13-29.5H839.4z M895.5,203.1l-23.6-53.4
		l-23.6,53.4H895.5z"/>
</g>
</svg>
