<?xml version="1.0" encoding="utf-8"?>
<!-- Generator: Adobe Illustrator 23.0.3, SVG Export Plug-In . SVG Version: 6.00 Build 0)  -->
<svg version="1.1" id="图层_1" xmlns="http://www.w3.org/2000/svg" xmlns:xlink="http://www.w3.org/1999/xlink" x="0px" y="0px"
	 viewBox="0 0 652 459.2" style="enable-background:new 0 0 652 459.2;" xml:space="preserve">
<style type="text/css">
	.st0{fill:#F1CF3E;}
	.st1{fill:#4A81B7;}
	.st2{fill:#67A352;}
	.st3{fill:#D84138;}
	.st4{fill:#EC7E44;}
	.st5{fill:#525352;}
	.st6{fill:#FFFFFF;}
	.st7{fill:none;stroke:#8E9198;stroke-width:3.5902;stroke-miterlimit:10;}
</style>
<g id="XMLID_18_">
	<g>
		<path class="st0" d="M256.1,402.1c-13.8,0-23-10.1-27-26.4c-2.4-11-2.8-22.7-2.8-34c0-20.9,1.2-48.2,9.2-61.6
			c5.8-9.5,14.7-13.2,21.7-13.2c14.7,0,22.4,11.9,25.5,25.1c3.1,13.2,3.6,36.2,3.6,45.7C286.4,367.8,281.8,402.1,256.1,402.1
			 M330.6,262.2c-13.4-20.9-35.5-36.5-70.9-37c-29.4-0.4-51.5,9.7-67.1,26.3l-2.4,22.4h-13c-4.8,9.7-8.3,20.5-10.5,32
			c21.1,12.1,34.5,33.1,34.5,59.4c0,17-5.8,34.2-15.9,47.4c16.1,21.2,40,32.6,68.5,32.6c35.2,0,58.9-15.2,73.7-37
			c-11.4-17.6-18-40.9-18-69.2C309.7,309.9,316.4,282.7,330.6,262.2"/>
		<path class="st1" d="M476.9,263.6c-0.4-0.7-0.9-1.4-1.4-2.1c-6.4-9.7-14.8-18.1-25.6-24.3c-11.7-6.7-26.3-10.9-44.2-11.1H404
			c-34,0-58.1,14.1-73.4,36.2c13.6,21.4,18.1,48.2,18.1,70c0,26.1-6.1,54.4-21,76.1c16,24.5,41.5,37.8,72.2,37.8
			c20.3,0,36.8-5.1,50-13.6c8.6-5.6,15.8-12.6,21.7-20.6c1-1.4,2-2.8,2.9-4.2c-11.2-17.5-17.6-40.6-17.6-68.6
			C456.9,310.6,463.3,283.9,476.9,263.6 M402,402.9c-13.8,0-23-10.1-26.9-26.4c-2.5-11-2.8-22.7-2.8-34c0-20.8,1.2-48.1,9.2-61.6
			c5.8-9.5,14.7-13.2,21.7-13.2c14.7,0,22.4,11.9,25.5,25.1c3.1,13.2,3.7,36.2,3.7,45.7C432.3,368.6,427.7,402.9,402,402.9"/>
		<path id="XMLID_13_" class="st2" d="M330.6,262.2c-14.2,20.4-20.9,47.7-20.9,76.9c0,28.3,6.6,51.6,18,69.2
			c14.9-21.7,21-50,21-76.1C348.6,310.4,344.2,283.6,330.6,262.2"/>
		<path id="XMLID_12_" class="st3" d="M166.8,306c-12.8-7.4-28.5-11.4-45.8-11.4c-11.4,0-25.1,2.2-34.3,5.8
			c-2.2,0.9-4.3,2.1-6.4,3.4l3.1-29.7h94c4.1-8.4,9.3-15.9,15.4-22.4l2.2-21.4H38.6l-11.6,114l52.4,6.5c3.7-5.5,8.6-13.5,25.7-13.5
			c21.8,0,32.2,13.8,32.2,32.8c0,16.5-8.9,32.8-31.3,32.8c-12.6,0-22.7-5.8-26.3-17.8c-1.6-4.9-1.6-10.1-1.6-15.3l-62.5,6.4
			C19,392,22,406.7,35.5,420.8C59.4,445,94.4,445,105.7,445c17.8,0,50.6-1.6,73.6-25.1c2.2-2.2,4.2-4.6,6.2-7.2
			c-13.7-18-21.7-43.2-21.7-74.4C163.8,327.2,164.8,316.3,166.8,306"/>
		<path id="XMLID_11_" class="st4" d="M190.3,274l2.4-22.4c-6.1,6.5-11.2,14.1-15.3,22.4H190.3z"/>
		<path id="XMLID_10_" class="st4" d="M166.8,306c-2,10.3-3,21.2-3,32.4c0,31.2,8,56.4,21.7,74.4c10.1-13.2,15.9-30.4,15.9-47.4
			C201.3,339,188,318.1,166.8,306"/>
		<polygon id="XMLID_9_" class="st5" points="71.2,191.3 71.2,152.5 94.4,152.5 94.4,55.1 71.2,55.1 71.2,13.3 195.1,13.3 
			195.1,55.1 171.9,55.1 171.9,152.5 195.1,152.5 195.1,191.3 		"/>
		<path id="XMLID_8_" class="st5" d="M306.9,191.3v-38.8h18v-40.6c0-12.3-8.7-17.7-19.9-17.7c-14.2,0-25,10.5-25,24.7v33.6h18.5
			v38.8h-96.9v-38.8H219V94h-17.4V55.1h76.4v26.8c1.2-1,2.5-2.5,3.5-3.7c14-16,30-21.7,50.9-21.7c29.5,0,53.5,12,53.5,44.7v51.4
			h15.7v38.8H306.9z"/>
		<path id="XMLID_7_" class="st5" d="M555.6,112.6l-52.3,5.8c-0.7-14.5-3.6-29.9-21.3-29.9c-22.5,0-24.3,18.7-24.3,36.7v0v0.4
			c0,17.9,1.8,36.7,24.3,36.7c11.8,0,22.2-6.8,22.2-21.1l1.7,0l50.4,0l-0.4,4.5c-8.6,42.4-46.8,49-74.4,49
			c-43.2,0-85.7-21.2-85.7-69.4v0.1c0-48.2,42.5-69.4,85.7-69.4C481.5,56,549.3,51.6,555.6,112.6"/>
		<path id="XMLID_6_" class="st6" d="M596.1,169.9c0,12.2-9.9,22-22,22c-12.2,0-22-9.8-22-22c0-12.2,9.8-22.1,22-22.1
			C586.3,147.8,596.1,157.7,596.1,169.9"/>
		<path class="st6" d="M550.3,226l-1.7,0c-33.9,0-58.1,14.1-73.4,36.2c-14.2,20.5-20.9,47.7-20.9,76.9c0,28.3,6.5,51.6,18,69.1
			c15.9,24.5,41.4,37.8,72.1,37.8c70.2,0,94.7-60.7,94.7-113.1C639.2,289.7,621.7,226.9,550.3,226 M546.6,402.9
			c-5.7,0-10.5-1.7-14.6-4.8c-5.8-4.5-10-12-12.3-21.5c-2.5-11-2.7-22.7-2.7-34c0-20.8,1.2-48.2,9.2-61.6c3.7-6,8.6-9.7,13.6-11.6
			c2.8-1.1,5.7-1.6,8.2-1.6c14.7,0,22.4,11.9,25.4,25.1c3.1,13.2,3.7,36.2,3.7,45.7C577,368.5,572.4,402.9,546.6,402.9"/>
		<path id="XMLID_3_" class="st7" d="M550.3,226l-1.7,0c-33.9,0-58.1,14.1-73.4,36.2c-14.2,20.5-20.9,47.7-20.9,76.9
			c0,28.3,6.5,51.6,18,69.1c15.9,24.5,41.4,37.8,72.1,37.8c70.2,0,94.7-60.7,94.7-113.1C639.2,289.7,621.7,226.9,550.3,226z
			 M546.6,402.9c-5.7,0-10.5-1.7-14.6-4.8c-5.8-4.5-10-12-12.3-21.5c-2.5-11-2.7-22.7-2.7-34c0-20.8,1.2-48.2,9.2-61.6
			c3.7-6,8.6-9.7,13.6-11.6c2.8-1.1,5.7-1.6,8.2-1.6c14.7,0,22.4,11.9,25.4,25.1c3.1,13.2,3.7,36.2,3.7,45.7
			C577,368.5,572.4,402.9,546.6,402.9z"/>
	</g>
</g>
</svg>
