<?xml version="1.0" encoding="utf-8"?>
<!-- Generator: Adobe Illustrator 22.0.1, SVG Export Plug-In . SVG Version: 6.00 Build 0)  -->
<!DOCTYPE svg PUBLIC "-//W3C//DTD SVG 1.1//EN" "http://www.w3.org/Graphics/SVG/1.1/DTD/svg11.dtd">
<svg version="1.1" id="Layer_1" xmlns="http://www.w3.org/2000/svg" xmlns:xlink="http://www.w3.org/1999/xlink" x="0px" y="0px"
	 viewBox="0 0 93 100.6" style="enable-background:new 0 0 93 100.6;" xml:space="preserve">
<style type="text/css">
	.st0{fill:url(#SVGID_1_);}
	.st1{fill:#FFFFFF;}
</style>
<g id="Content_Multiplier">
	
		<linearGradient id="SVGID_1_" gradientUnits="userSpaceOnUse" x1="-1632.725" y1="-164.525" x2="-1568.3597" y2="-228.8902" gradientTransform="matrix(4.489700e-11 -1 -1 -4.489700e-11 -150.5 -1550.5)">
		<stop  offset="3.605769e-04" style="stop-color:#ED1979"/>
		<stop  offset="0.3956" style="stop-color:#EE365A"/>
		<stop  offset="1" style="stop-color:#F36C24"/>
	</linearGradient>
	<polygon class="st0" points="5.4,26.4 5.4,73.6 46.2,97.1 87.1,73.6 87.1,26.4 46.2,2.9 	"/>
	<g>
		<path class="st1" d="M69.4,38.2L45.9,24.7c-0.3-0.2-0.6-0.2-0.9,0L21.5,38.2c-0.3,0.2-0.4,0.4-0.4,0.7s0.2,0.6,0.4,0.7L45,53.1
			c0.2,0.1,0.3,0.1,0.4,0.1s0.3,0,0.4-0.1l23.5-13.4c0.3-0.2,0.4-0.4,0.4-0.7C69.8,38.6,69.6,38.4,69.4,38.2z"/>
		<path class="st1" d="M69.4,60.4L63.6,57l-16.9,9.6c-0.4,0.3-0.9,0.3-1.3,0.3s-0.9-0.1-1.3-0.3L27.4,57l-5.9,3.4
			c-0.3,0.2-0.4,0.4-0.4,0.7s0.2,0.6,0.4,0.7L45,75.2c0.1,0.1,0.2,0.1,0.4,0.1s0.3,0,0.4-0.1l23.5-13.4c0.3-0.2,0.4-0.4,0.4-0.7
			C69.8,60.8,69.6,60.5,69.4,60.4z"/>
		<path class="st1" d="M69.4,49.3L63.6,46l-16.9,9.6c-0.4,0.3-0.9,0.3-1.3,0.3s-0.9-0.1-1.3-0.3L27.4,46l-5.9,3.4
			c-0.3,0.1-0.5,0.4-0.5,0.7s0.2,0.6,0.4,0.7L45,64.2c0.2,0.1,0.3,0.1,0.4,0.1s0.3,0,0.4-0.1l23.5-13.4c0.3-0.2,0.4-0.4,0.4-0.7
			S69.6,49.4,69.4,49.3z"/>
	</g>
</g>
</svg>
