<?xml version="1.0" encoding="utf-8"?>
<!-- Generator: Adobe Illustrator 22.0.1, SVG Export Plug-In . SVG Version: 6.00 Build 0)  -->
<!DOCTYPE svg PUBLIC "-//W3C//DTD SVG 1.1//EN" "http://www.w3.org/Graphics/SVG/1.1/DTD/svg11.dtd">
<svg version="1.1" id="Layer_1" xmlns="http://www.w3.org/2000/svg" xmlns:xlink="http://www.w3.org/1999/xlink" x="0px" y="0px"
	 viewBox="0 0 93 100.6" style="enable-background:new 0 0 93 100.6;" xml:space="preserve">
<style type="text/css">
	.st0{fill:url(#SVGID_1_);}
	.st1{fill:#FFFFFF;}
</style>
<g id="Growth_Accelerators">
	
		<linearGradient id="SVGID_1_" gradientUnits="userSpaceOnUse" x1="-1632.725" y1="-164.775" x2="-1568.3597" y2="-229.1402" gradientTransform="matrix(4.489700e-11 -1 -1 -4.489700e-11 -150.5 -1550.5)">
		<stop  offset="1.983173e-03" style="stop-color:#EF496C"/>
		<stop  offset="0.1943" style="stop-color:#D65177"/>
		<stop  offset="0.6143" style="stop-color:#995E92"/>
		<stop  offset="1" style="stop-color:#4F65AF"/>
	</linearGradient>
	<polygon class="st0" points="5.6,26.4 5.6,73.6 46.5,97.1 87.3,73.6 87.3,26.4 46.5,2.9 	"/>
	<g>
		<path class="st1" d="M45.9,35.1c-5.1-1.5-10.7-0.1-14.5,3.8c-0.9,0.9-1.6,1.9-2.3,3c-0.2,0.3-0.1,0.6,0.1,0.8l4.8,4.8
			C36.2,43.8,40.1,39,45.9,35.1z"/>
		<path class="st1" d="M48.8,62.3l4.8,4.8c0.1,0.1,0.3,0.2,0.5,0.2c0.1,0,0.2,0,0.3-0.1c1.1-0.7,2.1-1.4,3-2.3
			c3.9-3.9,5.3-9.5,3.8-14.6C57.2,56.1,52.4,60,48.8,62.3z"/>
		<path class="st1" d="M31.3,60.4c-2.6,0-4.6,2.1-4.6,4.6v4c0,0.4,0.3,0.7,0.7,0.7h4c2.6,0,4.6-2.1,4.6-4.6
			C35.9,62.4,33.8,60.4,31.3,60.4z"/>
		<path class="st1" d="M63.5,43.3c1.5-3.7,2.6-7.9,2.9-12.7c0-0.2-0.1-0.4-0.2-0.5c-0.1-0.1-0.3-0.2-0.5-0.2
			c-4.8,0.3-9.1,1.3-12.7,2.9L63.5,43.3z"/>
		<path class="st1" d="M51.6,33.3c-13.7,6.4-19.1,19.4-19.2,19.6c-0.1,0.2,0,0.5,0.1,0.7l10,10c0.1,0.1,0.3,0.2,0.5,0.2
			c0.1,0,0.2,0,0.3,0c0.2-0.1,13.1-5.5,19.5-19.2L51.6,33.3z M51.9,49.4c-1.4,1.4-3.6,1.4-5,0c-1.4-1.4-1.4-3.6,0-5
			c1.4-1.4,3.6-1.4,5,0C53.3,45.7,53.3,48,51.9,49.4z"/>
	</g>
</g>
</svg>
