<?xml version="1.0" encoding="utf-8"?>
<!-- Generator: Adobe Illustrator 22.0.1, SVG Export Plug-In . SVG Version: 6.00 Build 0)  -->
<!DOCTYPE svg PUBLIC "-//W3C//DTD SVG 1.1//EN" "http://www.w3.org/Graphics/SVG/1.1/DTD/svg11.dtd">
<svg version="1.1" id="Layer_1" xmlns="http://www.w3.org/2000/svg" xmlns:xlink="http://www.w3.org/1999/xlink" x="0px" y="0px"
	 viewBox="0 0 93 100.6" style="enable-background:new 0 0 93 100.6;" xml:space="preserve">
<style type="text/css">
	.st0{fill:url(#SVGID_1_);}
	.st1{fill:#FFFFFF;}
</style>
<g id="Lead_Generator">
	
		<linearGradient id="SVGID_1_" gradientUnits="userSpaceOnUse" x1="-1632.725" y1="-164.775" x2="-1568.3597" y2="-229.1402" gradientTransform="matrix(4.489700e-11 -1 -1 -4.489700e-11 -150.5 -1550.5)">
		<stop  offset="3.605769e-04" style="stop-color:#6A53A3"/>
		<stop  offset="0.5806" style="stop-color:#8B52A1"/>
		<stop  offset="1" style="stop-color:#A5519F"/>
	</linearGradient>
	<polygon class="st0" points="5.7,26.4 5.7,73.6 46.5,97.1 87.3,73.6 87.3,26.4 46.5,2.9 	"/>
	<g>
		<path class="st1" d="M64,44.3c-0.6,9.2-9.8,16.5-21,16.5c-0.8,0-1.6,0-2.4-0.1c3.5,2.8,8.7,4.2,13.9,3.5L64,69v-9.1
			c2.3-2.2,3.5-4.9,3.5-7.7C67.6,49.3,66.3,46.5,64,44.3z"/>
		<path class="st1" d="M43,29.3c-9.7,0-17.5,6.3-17.5,14c0,3.2,1.3,6.1,3.5,8.4v9.1l8.5-4.2c1.7,0.5,3.6,0.7,5.6,0.7
			c9.7,0,17.5-6.3,17.5-14S52.7,29.3,43,29.3z"/>
	</g>
</g>
</svg>
