<?xml version="1.0" encoding="utf-8"?>
<!-- Generator: Adobe Illustrator 22.0.1, SVG Export Plug-In . SVG Version: 6.00 Build 0)  -->
<!DOCTYPE svg PUBLIC "-//W3C//DTD SVG 1.1//EN" "http://www.w3.org/Graphics/SVG/1.1/DTD/svg11.dtd">
<svg version="1.1" id="Layer_1" xmlns="http://www.w3.org/2000/svg" xmlns:xlink="http://www.w3.org/1999/xlink" x="0px" y="0px"
	 viewBox="0 0 93 100.6" style="enable-background:new 0 0 93 100.6;" xml:space="preserve">
<style type="text/css">
	.st0{fill:url(#SVGID_1_);}
	.st1{fill:#FFFFFF;}
</style>
<g id="Search_Amplifier">
	
		<linearGradient id="SVGID_1_" gradientUnits="userSpaceOnUse" x1="-1632.725" y1="-164.775" x2="-1568.3597" y2="-229.1402" gradientTransform="matrix(4.489700e-11 -1 -1 -4.489700e-11 -150.5 -1550.5)">
		<stop  offset="0" style="stop-color:#6583C1"/>
		<stop  offset="0.4764" style="stop-color:#59A3CB"/>
		<stop  offset="0.9996" style="stop-color:#4EC5D4"/>
	</linearGradient>
	<polygon class="st0" points="5.7,26.4 5.7,73.6 46.5,97.1 87.3,73.6 87.3,26.4 46.5,2.9 	"/>
	<g>
		<path class="st1" d="M45.7,37.9c-6.7,0-12.1,5.4-12.1,12.1S39,62.1,45.7,62.1S57.8,56.7,57.8,50S52.3,37.9,45.7,37.9z M45.7,59.4
			c-5.2,0-9.4-4.2-9.4-9.4s4.2-9.4,9.4-9.4s9.4,4.2,9.4,9.4S50.8,59.4,45.7,59.4z"/>
		<circle class="st1" cx="45.7" cy="50" r="2.7"/>
		<path class="st1" d="M63.8,45.3c0.4,1.5,0.6,3.1,0.6,4.7c0,10.4-8.4,18.8-18.8,18.8S26.9,60.4,26.9,50s8.4-18.8,18.8-18.8
			c3.7,0,7.1,1.1,10,2.9c-0.4,0.7-0.6,1.6-0.6,2.5c0,3,2.4,5.4,5.4,5.4s5.4-2.4,5.4-5.4s-2.4-5.4-5.4-5.4c-1.1,0-2.1,0.3-3,0.9
			c-3.4-2.3-7.5-3.6-11.8-3.6c-11.9,0-21.5,9.6-21.5,21.5s9.6,21.5,21.5,21.5S67.2,61.9,67.2,50c0-2.1-0.3-4.1-0.9-6.1
			C65.6,44.5,64.8,45,63.8,45.3z"/>
	</g>
</g>
</svg>
