<?xml version="1.0" encoding="utf-8"?>
<!-- Generator: Adobe Illustrator 22.0.1, SVG Export Plug-In . SVG Version: 6.00 Build 0)  -->
<!DOCTYPE svg PUBLIC "-//W3C//DTD SVG 1.1//EN" "http://www.w3.org/Graphics/SVG/1.1/DTD/svg11.dtd">
<svg version="1.1" id="Layer_1" xmlns="http://www.w3.org/2000/svg" xmlns:xlink="http://www.w3.org/1999/xlink" x="0px" y="0px"
	 viewBox="0 0 93 100.6" style="enable-background:new 0 0 93 100.6;" xml:space="preserve">
<style type="text/css">
	.st0{fill:url(#SVGID_1_);}
	.st1{fill:#FFFFFF;}
</style>
<g id="Social_Reputation">
	
		<linearGradient id="SVGID_1_" gradientUnits="userSpaceOnUse" x1="-1632.725" y1="-164.525" x2="-1568.3597" y2="-228.8902" gradientTransform="matrix(4.489700e-11 -1 -1 -4.489700e-11 -150.5 -1550.5)">
		<stop  offset="0" style="stop-color:#109A8F"/>
		<stop  offset="1" style="stop-color:#70C172"/>
	</linearGradient>
	<polygon class="st0" points="5.4,26.4 5.4,73.6 46.2,97.1 87.1,73.6 87.1,26.4 46.2,2.9 	"/>
	<g>
		<path class="st1" d="M60.2,43.8h-8.6v-4.9c0-3.8-2.3-8.2-6.6-9.5c-0.7-0.2-1.6-0.1-2.2,0.4c-0.6,0.5-1,1.1-1,2v6.8l-6.1,7.9v19.1
			l2.3,1.2c2.3,1.1,4.9,1.7,7.5,1.7h12.3c2.7,0,5-2,5.5-4.8l1.8-14.8v-0.1C65.2,46,62.9,43.8,60.2,43.8z"/>
		<path class="st1" d="M32,45h-4.9c-0.7,0-1.2,0.5-1.2,1.2v20.9c0,0.7,0.5,1.2,1.2,1.2H32c0.7,0,1.2-0.5,1.2-1.2V46.2
			C33.2,45.5,32.7,45,32,45z"/>
	</g>
</g>
</svg>
