<?xml version="1.0" encoding="utf-8"?>
<!-- Generator: Adobe Illustrator 22.0.1, SVG Export Plug-In . SVG Version: 6.00 Build 0)  -->
<!DOCTYPE svg PUBLIC "-//W3C//DTD SVG 1.1//EN" "http://www.w3.org/Graphics/SVG/1.1/DTD/svg11.dtd">
<svg version="1.1" id="Layer_1" xmlns="http://www.w3.org/2000/svg" xmlns:xlink="http://www.w3.org/1999/xlink" x="0px" y="0px"
	 viewBox="0 0 93 100.6" style="enable-background:new 0 0 93 100.6;" xml:space="preserve">
<style type="text/css">
	.st0{fill:url(#SVGID_1_);}
	.st1{fill:#FFFFFF;}
</style>
<g id="Website_Engineering">
	
		<linearGradient id="SVGID_1_" gradientUnits="userSpaceOnUse" x1="-1632.975" y1="-164.525" x2="-1568.6097" y2="-228.8902" gradientTransform="matrix(4.489700e-11 -1 -1 -4.489700e-11 -150.5 -1550.5)">
		<stop  offset="3.605769e-04" style="stop-color:#0E6CB6"/>
		<stop  offset="0.4511" style="stop-color:#108CB5"/>
		<stop  offset="1" style="stop-color:#02B9B6"/>
	</linearGradient>
	<polygon class="st0" points="5.4,26.6 5.4,73.8 46.2,97.3 87.1,73.8 87.1,26.6 46.2,3.2 	"/>
	<g>
		<path class="st1" d="M27.4,39.7c0-1.3,1.1-2.4,2.4-2.4h33c1.3,0,2.4,1.1,2.4,2.4v21.2h4.7V39.7c0-3.9-3.2-7.1-7.1-7.1h-33
			c-3.9,0-7.1,3.2-7.1,7.1v21.2h4.7L27.4,39.7z"/>
		<path class="st1" d="M18,60.8v1.8c0,2.9,3.2,5.3,7.1,5.3h42.4c3.9,0,7.1-2.4,7.1-5.3v-1.8H18z"/>
	</g>
</g>
</svg>
