<?xml version="1.0" encoding="utf-8"?>
<!-- Generator: Adobe Illustrator 23.0.3, SVG Export Plug-In . SVG Version: 6.00 Build 0)  -->
<svg version="1.1" id="Layer_1" xmlns="http://www.w3.org/2000/svg" xmlns:xlink="http://www.w3.org/1999/xlink" x="0px" y="0px"
	 viewBox="0 0 97 97" style="enable-background:new 0 0 97 97;" xml:space="preserve">
<style type="text/css">
	.st0{fill:#1877F2;}
	.st1{fill:#FFFFFF;}
</style>
<g>
	<path class="st0" d="M97,48.5C97,21.7,75.3,0,48.5,0S0,21.7,0,48.5c0,24.2,17.7,44.3,40.9,47.9V62.5H28.6v-14h12.3V37.8
		c0-12.2,7.2-18.9,18.3-18.9c5.3,0,10.9,0.9,10.9,0.9v11.9H64c-6,0-7.9,3.7-7.9,7.6v9.1h13.5l-2.2,14H56.1v33.9
		C79.3,92.8,97,72.7,97,48.5z"/>
	<path class="st1" d="M67.4,62.5l2.2-14H56.1v-9.1c0-3.8,1.9-7.6,7.9-7.6h6.1V19.9c0,0-5.6-0.9-10.9-0.9c-11.1,0-18.3,6.7-18.3,18.9
		v10.7H28.6v14h12.3v33.9c2.5,0.4,5,0.6,7.6,0.6s5.1-0.2,7.6-0.6V62.5H67.4z"/>
</g>
</svg>
