<?xml version="1.0" encoding="utf-8"?>
<!-- Generator: Adobe Illustrator 21.1.0, SVG Export Plug-In . SVG Version: 6.00 Build 0)  -->
<svg version="1.1" id="Layer_1" xmlns="http://www.w3.org/2000/svg" xmlns:xlink="http://www.w3.org/1999/xlink" x="0px" y="0px"
	 viewBox="0 0 97 97" style="enable-background:new 0 0 97 97;" xml:space="preserve">
<style type="text/css">
	.st0{fill:#F94877;}
	.st1{fill:#FFFFFF;}
</style>
<g id="foursquare">
	<g id="Layer_1_6_">
		<circle id="XMLID_5_" class="st0" cx="48.5" cy="48.5" r="47.5"/>
		<path id="Shape_11_" class="st1" d="M66.8,21.7H37.3c-4.1,0-5.3,3-5.3,5v46.9c0,2.2,1.2,3,1.8,3.2c0.7,0.3,2.5,0.5,3.6-0.8
			c0,0,13.9-16.2,14.2-16.4c0.4-0.4,0.4-0.4,0.7-0.4h9c3.8,0,4.4-2.7,4.8-4.3c0.3-1.3,4-20.2,5.3-26.3
			C72.3,24.2,71.2,21.7,66.8,21.7z M66.1,55c0.3-1.3,4-20.2,5.3-26.3L66.1,55z M65.1,29.7l-1.2,6.5c-0.1,0.7-1,1.4-1.9,1.4H50.5
			c-1.3,0-2.2,0.9-2.2,2.2v1.4c0,1.3,1,2.2,2.2,2.2h9.7c0.9,0,1.8,1,1.6,2c-0.2,1-1.1,5.8-1.2,6.4c-0.1,0.5-0.7,1.4-1.8,1.4h-8
			c-1.4,0-1.9,0.2-2.8,1.4c-1,1.2-9.7,11.7-9.7,11.7c-0.1,0.1-0.2,0.1-0.2,0V29.6c0-0.8,0.7-1.8,1.8-1.8h23.7
			C64.5,27.8,65.3,28.6,65.1,29.7z"/>
	</g>
</g>
</svg>
