<?xml version="1.0" encoding="utf-8"?>
<!-- Generator: Adobe Illustrator 21.1.0, SVG Export Plug-In . SVG Version: 6.00 Build 0)  -->
<svg version="1.1" id="Layer_1" xmlns="http://www.w3.org/2000/svg" xmlns:xlink="http://www.w3.org/1999/xlink" x="0px" y="0px"
	 viewBox="0 0 98 98" style="enable-background:new 0 0 98 98;" xml:space="preserve">
<style type="text/css">
	.st0{fill:#F0F2F4;}
	.st1{fill:#E94435;}
	.st2{fill:#38A952;}
	.st3{fill:#567FBF;}
	.st4{fill:#F8BB18;}
</style>
<g id="Google">
	<g id="google">
		<g id="Layer_1_4_">
			<circle id="_Path_" class="st0" cx="49" cy="49" r="49"/>
			<g id="_Group_" transform="translate(45.898438, 44.726562)">
				<path id="_Path_2" class="st1" d="M-20.5-7.8c0.4-0.9,0.9-1.8,1.5-2.6c0.9-1.3,1.9-2.6,3-3.8c1.3-1.3,2.6-2.5,4.1-3.6
					c2.3-1.6,4.8-2.9,7.5-3.7c1.9-0.6,3.8-1,5.8-1.1c2.3-0.2,4.6-0.1,6.9,0.3c1.2,0.2,2.4,0.5,3.5,0.8c2.6,0.8,5.1,2.1,7.3,3.7
					c0.9,0.6,1.8,1.3,2.5,2.1l-7.6,7.5c-0.3-0.2-0.6-0.5-0.9-0.8c-1.5-1.2-3.2-2.2-5.1-2.6c-2.5-0.7-5.2-0.8-7.8-0.2
					c-1.2,0.2-2.3,0.6-3.3,1.2c-2.7,1.3-5,3.4-6.7,5.9c-0.7,1.1-1.3,2.3-1.8,3.6c0,0,0,0.1-0.1,0.1c-0.3-0.2-0.7-0.5-1-0.8
					c-0.8-0.6-1.6-1.3-2.4-1.9c-1-0.8-2.1-1.6-3.1-2.4C-18.9-6.7-19.7-7.3-20.5-7.8z"/>
				<path id="_Path_3" class="st2" d="M21.5,24.8c-1,0.9-2.1,1.8-3.3,2.5c-2.2,1.4-4.5,2.4-7,3c-4,1-8.2,1.2-12.2,0.5
					c-2.4-0.4-4.6-1.1-6.8-2.1c-1.6-0.7-3.1-1.6-4.5-2.6c-1.6-1.2-3-2.5-4.3-4c-1.5-1.7-2.8-3.6-3.9-5.7c0-0.1,0.1-0.1,0.2-0.2
					c0.6-0.4,1.2-0.9,1.8-1.4c1.3-1,2.5-2,3.8-2.9c1-0.8,2.1-1.6,3.1-2.4c0.2,0.5,0.4,1,0.6,1.5c1.6,3.5,4.3,6.3,7.6,8
					c1.5,0.8,3.2,1.3,4.9,1.5c2,0.2,4,0.2,6-0.2c1.5-0.3,3-0.8,4.4-1.6c0.4-0.2,0.8-0.5,1.2-0.7c0,0.1,0.1,0.2,0.2,0.2
					c0.6,0.3,1,0.9,1.6,1.3c0.3,0.2,0.6,0.5,1,0.8c0.3,0.2,0.6,0.5,1,0.7c0.4,0.3,0.9,0.6,1.3,1c0.4,0.3,0.9,0.6,1.3,1
					c0.3,0.2,0.6,0.5,0.9,0.7c0.1,0,0.1,0.1,0.2,0.2C20.9,24.3,21.2,24.5,21.5,24.8z"/>
				<path id="_Path_4" class="st3" d="M21.5,24.8c-0.2-0.3-0.6-0.5-0.9-0.7c-0.1,0-0.1-0.1-0.2-0.2c-0.3-0.2-0.6-0.4-0.9-0.7
					c-0.4-0.4-0.9-0.7-1.3-1c-0.4-0.3-0.9-0.6-1.3-1c-0.3-0.2-0.6-0.5-1-0.7c-0.3-0.2-0.6-0.5-1-0.8c-0.6-0.4-1-0.9-1.6-1.3
					c-0.1,0-0.1-0.1-0.2-0.2c0.8-0.6,1.5-1.2,2.2-1.9c1.6-1.8,2.7-3.9,3.1-6.3c0,0,0-0.1,0-0.1H3.7c-0.1-0.1,0-0.2,0-0.3
					c0-3.3,0-6.6,0-9.9c0-0.3,0.1-0.3,0.3-0.3c8.3,0,16.5,0,24.8,0h0.3c0.1,0.6,0.2,1.1,0.3,1.7c0.2,1.5,0.3,3,0.2,4.5
					c-0.1,4.1-0.8,8-2.5,11.8c-1.3,2.8-3.1,5.4-5.4,7.5C21.6,24.7,21.5,24.8,21.5,24.8L21.5,24.8z"/>
				<path id="_Path_5" class="st4" d="M-11.6,9.5c-1,0.8-2.1,1.6-3.1,2.4c-1.3,1-2.5,2-3.8,2.9c-0.6,0.4-1.2,0.9-1.8,1.4
					c0,0-0.1,0.1-0.1,0.2c-0.4-0.8-0.8-1.7-1.1-2.5c-0.3-0.7-0.5-1.5-0.7-2.2c-0.1-0.5-0.3-0.9-0.4-1.4C-22.8,9.9-22.9,9.5-23,9
					c-0.1-0.5-0.1-1-0.2-1.5c0-0.3,0-0.7-0.1-1c-0.1-1.1-0.1-2.2-0.1-3.3c0-0.9,0.1-1.8,0.2-2.6c0.1-1,0.3-2,0.6-2.9
					c0.2-0.9,0.5-1.9,0.8-2.7c0.3-1,0.7-1.9,1.3-2.8c0.7,0.6,1.5,1.2,2.3,1.7c1,0.8,2.1,1.6,3.1,2.4c0.8,0.6,1.6,1.2,2.4,1.9
					c0.3,0.3,0.7,0.5,1,0.8c0,0.3-0.2,0.6-0.2,1c-0.1,0.3-0.2,0.7-0.2,1c-0.1,0.7-0.2,1.5-0.3,2.2c0,0.8,0,1.5,0,2.3
					c0,0.3,0,0.6,0.1,1c0,0.5,0.2,1.1,0.3,1.7C-11.9,8.6-11.8,9.1-11.6,9.5z"/>
			</g>
		</g>
	</g>
</g>
</svg>
