<?xml version="1.0" encoding="utf-8"?>
<!-- Generator: Adobe Illustrator 21.1.0, SVG Export Plug-In . SVG Version: 6.00 Build 0)  -->
<svg version="1.1" id="Layer_1" xmlns="http://www.w3.org/2000/svg" xmlns:xlink="http://www.w3.org/1999/xlink" x="0px" y="0px"
	 viewBox="0 0 97 97" style="enable-background:new 0 0 97 97;" xml:space="preserve">
<style type="text/css">
	.st0{fill:#0202EA;}
	.st1{fill:#FFFFFF;}
</style>
<circle id="XMLID_45_" class="st0" cx="48.5" cy="48.5" r="47.5"/>
<g transform="matrix(0.760673, 0, 0, 0.760673, -72.776001, -188.887695)">
	<path class="st1" d="M177.1,308.3c0.7,0.7,1.7,1.1,2.7,1.1c1,0,1.9-0.4,2.7-1.1l13.8-13.8c1.5-1.5,1.5-3.9,0-5.4
		c-1.5-1.5-3.9-1.5-5.4,0l-13.8,13.8C175.6,304.4,175.6,306.8,177.1,308.3z"/>
	<path class="st1" d="M189.5,314.8c-1.5-1.5-3.7-1.5-5.3-0.1l-19.8,19.8c-1.1,1.1-2.9,1.1-4,0c-1.1-1.1-1.1-2.9,0-4l7.1-7.1v-0.1
		l7.3-7.3c1.5-1.5,1.5-3.9,0-5.4c-1.5-1.5-3.9-1.5-5.4,0l-4.3,4.3l0,0l-0.7,0.7c-1.1,1.1-2.9,1.1-4,0c-1.1-1.1-1.1-2.9,0-4l2.9-2.9
		l0,0l14.2-14.2c1.5-1.5,1.5-3.9,0-5.4c-1.5-1.5-3.9-1.5-5.4,0l-8.5,8.3c-0.7,0.7-1.7,1.1-2.7,1.1s-1.9-0.3-2.6-1l-7.9-7.9
		c-6.7-6.7-17.7-6.7-24.4,0c-3.3,3.3-5.1,7.6-5.1,12.2c0,4.6,1.8,8.9,5.1,12.2l32,32c0,0.1,0.1,0.1,0.1,0.1c0.7,0.7,1.7,1.1,2.7,1.1
		s1.9-0.4,2.7-1.1l25.8-25.8C191,318.8,191,316.4,189.5,314.8z"/>
	<circle class="st1" cx="194" cy="309.4" r="3.8"/>
</g>
</svg>
