<svg version="1.1" id="el_dOCnwusML" xmlns="http://www.w3.org/2000/svg" xmlns:xlink="http://www.w3.org/1999/xlink" x="0px" y="0px" viewBox="0 0 433 423" style="enable-background:new 0 0 433.7 423.1;" xml:space="preserve"><style>@-webkit-keyframes kf_el_FGMI88RtsDy_an_ATXwi9eUc{0%{-webkit-transform: translate(287.8000030517578px, 198.6500015258789px) scale(1, 1) translate(-287.8000030517578px, -198.6500015258789px);transform: translate(287.8000030517578px, 198.6500015258789px) scale(1, 1) translate(-287.8000030517578px, -198.6500015258789px);}21.11%{-webkit-transform: translate(287.8000030517578px, 198.6500015258789px) scale(1, 1) translate(-287.8000030517578px, -198.6500015258789px);transform: translate(287.8000030517578px, 198.6500015258789px) scale(1, 1) translate(-287.8000030517578px, -198.6500015258789px);}31.11%{-webkit-transform: translate(287.8000030517578px, 198.6500015258789px) scale(1.2, 1.2) translate(-287.8000030517578px, -198.6500015258789px);transform: translate(287.8000030517578px, 198.6500015258789px) scale(1.2, 1.2) translate(-287.8000030517578px, -198.6500015258789px);}40%{-webkit-transform: translate(287.8000030517578px, 198.6500015258789px) scale(1, 1) translate(-287.8000030517578px, -198.6500015258789px);transform: translate(287.8000030517578px, 198.6500015258789px) scale(1, 1) translate(-287.8000030517578px, -198.6500015258789px);}100%{-webkit-transform: translate(287.8000030517578px, 198.6500015258789px) scale(1, 1) translate(-287.8000030517578px, -198.6500015258789px);transform: translate(287.8000030517578px, 198.6500015258789px) scale(1, 1) translate(-287.8000030517578px, -198.6500015258789px);}}@keyframes kf_el_FGMI88RtsDy_an_ATXwi9eUc{0%{-webkit-transform: translate(287.8000030517578px, 198.6500015258789px) scale(1, 1) translate(-287.8000030517578px, -198.6500015258789px);transform: translate(287.8000030517578px, 198.6500015258789px) scale(1, 1) translate(-287.8000030517578px, -198.6500015258789px);}21.11%{-webkit-transform: translate(287.8000030517578px, 198.6500015258789px) scale(1, 1) translate(-287.8000030517578px, -198.6500015258789px);transform: translate(287.8000030517578px, 198.6500015258789px) scale(1, 1) translate(-287.8000030517578px, -198.6500015258789px);}31.11%{-webkit-transform: translate(287.8000030517578px, 198.6500015258789px) scale(1.2, 1.2) translate(-287.8000030517578px, -198.6500015258789px);transform: translate(287.8000030517578px, 198.6500015258789px) scale(1.2, 1.2) translate(-287.8000030517578px, -198.6500015258789px);}40%{-webkit-transform: translate(287.8000030517578px, 198.6500015258789px) scale(1, 1) translate(-287.8000030517578px, -198.6500015258789px);transform: translate(287.8000030517578px, 198.6500015258789px) scale(1, 1) translate(-287.8000030517578px, -198.6500015258789px);}100%{-webkit-transform: translate(287.8000030517578px, 198.6500015258789px) scale(1, 1) translate(-287.8000030517578px, -198.6500015258789px);transform: translate(287.8000030517578px, 198.6500015258789px) scale(1, 1) translate(-287.8000030517578px, -198.6500015258789px);}}@-webkit-keyframes kf_el_jw_HzFs-Qn4_an_RXahOwtC3{0%{-webkit-transform: translate(340.6000061035156px, 111.19999694824219px) translate(-340.6000061035156px, -111.19999694824219px) translate(0px, 0px);transform: translate(340.6000061035156px, 111.19999694824219px) translate(-340.6000061035156px, -111.19999694824219px) translate(0px, 0px);}31.11%{-webkit-transform: translate(340.6000061035156px, 111.19999694824219px) translate(-340.6000061035156px, -111.19999694824219px) translate(0px, 0px);transform: translate(340.6000061035156px, 111.19999694824219px) translate(-340.6000061035156px, -111.19999694824219px) translate(0px, 0px);}38.89%{-webkit-transform: translate(340.6000061035156px, 111.19999694824219px) translate(-340.6000061035156px, -111.19999694824219px) translate(0px, -10px);transform: translate(340.6000061035156px, 111.19999694824219px) translate(-340.6000061035156px, -111.19999694824219px) translate(0px, -10px);}46.67%{-webkit-transform: translate(340.6000061035156px, 111.19999694824219px) translate(-340.6000061035156px, -111.19999694824219px) translate(0px, 0px);transform: translate(340.6000061035156px, 111.19999694824219px) translate(-340.6000061035156px, -111.19999694824219px) translate(0px, 0px);}100%{-webkit-transform: translate(340.6000061035156px, 111.19999694824219px) translate(-340.6000061035156px, -111.19999694824219px) translate(0px, 0px);transform: translate(340.6000061035156px, 111.19999694824219px) translate(-340.6000061035156px, -111.19999694824219px) translate(0px, 0px);}}@keyframes kf_el_jw_HzFs-Qn4_an_RXahOwtC3{0%{-webkit-transform: translate(340.6000061035156px, 111.19999694824219px) translate(-340.6000061035156px, -111.19999694824219px) translate(0px, 0px);transform: translate(340.6000061035156px, 111.19999694824219px) translate(-340.6000061035156px, -111.19999694824219px) translate(0px, 0px);}31.11%{-webkit-transform: translate(340.6000061035156px, 111.19999694824219px) translate(-340.6000061035156px, -111.19999694824219px) translate(0px, 0px);transform: translate(340.6000061035156px, 111.19999694824219px) translate(-340.6000061035156px, -111.19999694824219px) translate(0px, 0px);}38.89%{-webkit-transform: translate(340.6000061035156px, 111.19999694824219px) translate(-340.6000061035156px, -111.19999694824219px) translate(0px, -10px);transform: translate(340.6000061035156px, 111.19999694824219px) translate(-340.6000061035156px, -111.19999694824219px) translate(0px, -10px);}46.67%{-webkit-transform: translate(340.6000061035156px, 111.19999694824219px) translate(-340.6000061035156px, -111.19999694824219px) translate(0px, 0px);transform: translate(340.6000061035156px, 111.19999694824219px) translate(-340.6000061035156px, -111.19999694824219px) translate(0px, 0px);}100%{-webkit-transform: translate(340.6000061035156px, 111.19999694824219px) translate(-340.6000061035156px, -111.19999694824219px) translate(0px, 0px);transform: translate(340.6000061035156px, 111.19999694824219px) translate(-340.6000061035156px, -111.19999694824219px) translate(0px, 0px);}}@-webkit-keyframes kf_el_vUozOE_oERP_an_avoFLllky{0%{-webkit-transform: translate(315.6999816894531px, 111.19999694824219px) translate(-315.6999816894531px, -111.19999694824219px) translate(0px, 0px);transform: translate(315.6999816894531px, 111.19999694824219px) translate(-315.6999816894531px, -111.19999694824219px) translate(0px, 0px);}23.33%{-webkit-transform: translate(315.6999816894531px, 111.19999694824219px) translate(-315.6999816894531px, -111.19999694824219px) translate(0px, 0px);transform: translate(315.6999816894531px, 111.19999694824219px) translate(-315.6999816894531px, -111.19999694824219px) translate(0px, 0px);}30%{-webkit-transform: translate(315.6999816894531px, 111.19999694824219px) translate(-315.6999816894531px, -111.19999694824219px) translate(0px, -10px);transform: translate(315.6999816894531px, 111.19999694824219px) translate(-315.6999816894531px, -111.19999694824219px) translate(0px, -10px);}36.67%{-webkit-transform: translate(315.6999816894531px, 111.19999694824219px) translate(-315.6999816894531px, -111.19999694824219px) translate(0px, 0px);transform: translate(315.6999816894531px, 111.19999694824219px) translate(-315.6999816894531px, -111.19999694824219px) translate(0px, 0px);}100%{-webkit-transform: translate(315.6999816894531px, 111.19999694824219px) translate(-315.6999816894531px, -111.19999694824219px) translate(0px, 0px);transform: translate(315.6999816894531px, 111.19999694824219px) translate(-315.6999816894531px, -111.19999694824219px) translate(0px, 0px);}}@keyframes kf_el_vUozOE_oERP_an_avoFLllky{0%{-webkit-transform: translate(315.6999816894531px, 111.19999694824219px) translate(-315.6999816894531px, -111.19999694824219px) translate(0px, 0px);transform: translate(315.6999816894531px, 111.19999694824219px) translate(-315.6999816894531px, -111.19999694824219px) translate(0px, 0px);}23.33%{-webkit-transform: translate(315.6999816894531px, 111.19999694824219px) translate(-315.6999816894531px, -111.19999694824219px) translate(0px, 0px);transform: translate(315.6999816894531px, 111.19999694824219px) translate(-315.6999816894531px, -111.19999694824219px) translate(0px, 0px);}30%{-webkit-transform: translate(315.6999816894531px, 111.19999694824219px) translate(-315.6999816894531px, -111.19999694824219px) translate(0px, -10px);transform: translate(315.6999816894531px, 111.19999694824219px) translate(-315.6999816894531px, -111.19999694824219px) translate(0px, -10px);}36.67%{-webkit-transform: translate(315.6999816894531px, 111.19999694824219px) translate(-315.6999816894531px, -111.19999694824219px) translate(0px, 0px);transform: translate(315.6999816894531px, 111.19999694824219px) translate(-315.6999816894531px, -111.19999694824219px) translate(0px, 0px);}100%{-webkit-transform: translate(315.6999816894531px, 111.19999694824219px) translate(-315.6999816894531px, -111.19999694824219px) translate(0px, 0px);transform: translate(315.6999816894531px, 111.19999694824219px) translate(-315.6999816894531px, -111.19999694824219px) translate(0px, 0px);}}@-webkit-keyframes kf_el_NuOQ663E-H9_an_pDY2-vtTm{0%{-webkit-transform: translate(290.79998779296875px, 111.19999694824219px) translate(-290.79998779296875px, -111.19999694824219px) translate(0px, 0px);transform: translate(290.79998779296875px, 111.19999694824219px) translate(-290.79998779296875px, -111.19999694824219px) translate(0px, 0px);}15.56%{-webkit-transform: translate(290.79998779296875px, 111.19999694824219px) translate(-290.79998779296875px, -111.19999694824219px) translate(0px, 0px);transform: translate(290.79998779296875px, 111.19999694824219px) translate(-290.79998779296875px, -111.19999694824219px) translate(0px, 0px);}22.22%{-webkit-transform: translate(290.79998779296875px, 111.19999694824219px) translate(-290.79998779296875px, -111.19999694824219px) translate(0px, -10px);transform: translate(290.79998779296875px, 111.19999694824219px) translate(-290.79998779296875px, -111.19999694824219px) translate(0px, -10px);}28.89%{-webkit-transform: translate(290.79998779296875px, 111.19999694824219px) translate(-290.79998779296875px, -111.19999694824219px) translate(0px, 0px);transform: translate(290.79998779296875px, 111.19999694824219px) translate(-290.79998779296875px, -111.19999694824219px) translate(0px, 0px);}100%{-webkit-transform: translate(290.79998779296875px, 111.19999694824219px) translate(-290.79998779296875px, -111.19999694824219px) translate(0px, 0px);transform: translate(290.79998779296875px, 111.19999694824219px) translate(-290.79998779296875px, -111.19999694824219px) translate(0px, 0px);}}@keyframes kf_el_NuOQ663E-H9_an_pDY2-vtTm{0%{-webkit-transform: translate(290.79998779296875px, 111.19999694824219px) translate(-290.79998779296875px, -111.19999694824219px) translate(0px, 0px);transform: translate(290.79998779296875px, 111.19999694824219px) translate(-290.79998779296875px, -111.19999694824219px) translate(0px, 0px);}15.56%{-webkit-transform: translate(290.79998779296875px, 111.19999694824219px) translate(-290.79998779296875px, -111.19999694824219px) translate(0px, 0px);transform: translate(290.79998779296875px, 111.19999694824219px) translate(-290.79998779296875px, -111.19999694824219px) translate(0px, 0px);}22.22%{-webkit-transform: translate(290.79998779296875px, 111.19999694824219px) translate(-290.79998779296875px, -111.19999694824219px) translate(0px, -10px);transform: translate(290.79998779296875px, 111.19999694824219px) translate(-290.79998779296875px, -111.19999694824219px) translate(0px, -10px);}28.89%{-webkit-transform: translate(290.79998779296875px, 111.19999694824219px) translate(-290.79998779296875px, -111.19999694824219px) translate(0px, 0px);transform: translate(290.79998779296875px, 111.19999694824219px) translate(-290.79998779296875px, -111.19999694824219px) translate(0px, 0px);}100%{-webkit-transform: translate(290.79998779296875px, 111.19999694824219px) translate(-290.79998779296875px, -111.19999694824219px) translate(0px, 0px);transform: translate(290.79998779296875px, 111.19999694824219px) translate(-290.79998779296875px, -111.19999694824219px) translate(0px, 0px);}}@-webkit-keyframes kf_el_qWh5rII5sIj_an_nPTn58bDW{0%{-webkit-transform: translate(265.9499969482422px, 111.14999771118164px) translate(-265.9499969482422px, -111.14999771118164px) translate(0px, 0px);transform: translate(265.9499969482422px, 111.14999771118164px) translate(-265.9499969482422px, -111.14999771118164px) translate(0px, 0px);}7.78%{-webkit-transform: translate(265.9499969482422px, 111.14999771118164px) translate(-265.9499969482422px, -111.14999771118164px) translate(0px, 0px);transform: translate(265.9499969482422px, 111.14999771118164px) translate(-265.9499969482422px, -111.14999771118164px) translate(0px, 0px);}14.44%{-webkit-transform: translate(265.9499969482422px, 111.14999771118164px) translate(-265.9499969482422px, -111.14999771118164px) translate(0px, -10px);transform: translate(265.9499969482422px, 111.14999771118164px) translate(-265.9499969482422px, -111.14999771118164px) translate(0px, -10px);}21.11%{-webkit-transform: translate(265.9499969482422px, 111.14999771118164px) translate(-265.9499969482422px, -111.14999771118164px) translate(0px, 0px);transform: translate(265.9499969482422px, 111.14999771118164px) translate(-265.9499969482422px, -111.14999771118164px) translate(0px, 0px);}100%{-webkit-transform: translate(265.9499969482422px, 111.14999771118164px) translate(-265.9499969482422px, -111.14999771118164px) translate(0px, 0px);transform: translate(265.9499969482422px, 111.14999771118164px) translate(-265.9499969482422px, -111.14999771118164px) translate(0px, 0px);}}@keyframes kf_el_qWh5rII5sIj_an_nPTn58bDW{0%{-webkit-transform: translate(265.9499969482422px, 111.14999771118164px) translate(-265.9499969482422px, -111.14999771118164px) translate(0px, 0px);transform: translate(265.9499969482422px, 111.14999771118164px) translate(-265.9499969482422px, -111.14999771118164px) translate(0px, 0px);}7.78%{-webkit-transform: translate(265.9499969482422px, 111.14999771118164px) translate(-265.9499969482422px, -111.14999771118164px) translate(0px, 0px);transform: translate(265.9499969482422px, 111.14999771118164px) translate(-265.9499969482422px, -111.14999771118164px) translate(0px, 0px);}14.44%{-webkit-transform: translate(265.9499969482422px, 111.14999771118164px) translate(-265.9499969482422px, -111.14999771118164px) translate(0px, -10px);transform: translate(265.9499969482422px, 111.14999771118164px) translate(-265.9499969482422px, -111.14999771118164px) translate(0px, -10px);}21.11%{-webkit-transform: translate(265.9499969482422px, 111.14999771118164px) translate(-265.9499969482422px, -111.14999771118164px) translate(0px, 0px);transform: translate(265.9499969482422px, 111.14999771118164px) translate(-265.9499969482422px, -111.14999771118164px) translate(0px, 0px);}100%{-webkit-transform: translate(265.9499969482422px, 111.14999771118164px) translate(-265.9499969482422px, -111.14999771118164px) translate(0px, 0px);transform: translate(265.9499969482422px, 111.14999771118164px) translate(-265.9499969482422px, -111.14999771118164px) translate(0px, 0px);}}@-webkit-keyframes kf_el_jMNezD7K6w_an_D_sR-JndW{0%{-webkit-transform: translate(241px, 111.19999694824219px) translate(-241px, -111.19999694824219px) translate(0px, 0px);transform: translate(241px, 111.19999694824219px) translate(-241px, -111.19999694824219px) translate(0px, 0px);}6.67%{-webkit-transform: translate(241px, 111.19999694824219px) translate(-241px, -111.19999694824219px) translate(0px, -10px);transform: translate(241px, 111.19999694824219px) translate(-241px, -111.19999694824219px) translate(0px, -10px);}13.33%{-webkit-transform: translate(241px, 111.19999694824219px) translate(-241px, -111.19999694824219px) translate(0px, 0px);transform: translate(241px, 111.19999694824219px) translate(-241px, -111.19999694824219px) translate(0px, 0px);}100%{-webkit-transform: translate(241px, 111.19999694824219px) translate(-241px, -111.19999694824219px) translate(0px, 0px);transform: translate(241px, 111.19999694824219px) translate(-241px, -111.19999694824219px) translate(0px, 0px);}}@keyframes kf_el_jMNezD7K6w_an_D_sR-JndW{0%{-webkit-transform: translate(241px, 111.19999694824219px) translate(-241px, -111.19999694824219px) translate(0px, 0px);transform: translate(241px, 111.19999694824219px) translate(-241px, -111.19999694824219px) translate(0px, 0px);}6.67%{-webkit-transform: translate(241px, 111.19999694824219px) translate(-241px, -111.19999694824219px) translate(0px, -10px);transform: translate(241px, 111.19999694824219px) translate(-241px, -111.19999694824219px) translate(0px, -10px);}13.33%{-webkit-transform: translate(241px, 111.19999694824219px) translate(-241px, -111.19999694824219px) translate(0px, 0px);transform: translate(241px, 111.19999694824219px) translate(-241px, -111.19999694824219px) translate(0px, 0px);}100%{-webkit-transform: translate(241px, 111.19999694824219px) translate(-241px, -111.19999694824219px) translate(0px, 0px);transform: translate(241px, 111.19999694824219px) translate(-241px, -111.19999694824219px) translate(0px, 0px);}}#el_dOCnwusML *{-webkit-animation-duration: 3s;animation-duration: 3s;-webkit-animation-iteration-count: infinite;animation-iteration-count: infinite;-webkit-animation-timing-function: cubic-bezier(0, 0, 1, 1);animation-timing-function: cubic-bezier(0, 0, 1, 1);}#el_pBGoBVQ9ma{fill: #FFFFFF;}#el_zlOIzEtYX3{fill: #E6E6E6;}#el_lCULOZPCwf{fill: #10998E;}#el_Z58suKFKzg{fill: #FFFFFF;}#el_32Le0mD4FY{fill: #FFFFFF;}#el_KabKrSVJX7{fill: #FFFFFF;}#el_co9KO1GdaZ{fill: #70C072;}#el_vwNLB-o2wu{fill: #FFFFFF;}#el_xifIS3pSTU{fill: #FFFFFF;}#el_AzKgAceFGA{fill: #FFFFFF;}#el_ysjK2b7_ES{fill: #DDECF1;}#el_ZXb9aWckVds{fill: #FAAF40;}#el_fGp1dsVJNW9{fill: #FAAF40;}#el_iRDynPRIqj-{fill: #FAAF40;}#el_kAQqLILsxRD{fill: #FAAF40;}#el_ZydfnqfP8W6{fill: #FAAF40;}#el_5aOVPXNnTnA{fill: url(#SVGID_1_);}#el_VVwtxK3raqZ{fill: #FFFFFF;}#el_wimFGI3L0NU{fill: #FFFFFF;}#el_0ILthrA09v1{fill: url(#SVGID_2_);}#el_8J5inI2VVvt{fill: url(#SVGID_3_);}#el_jKRGIOSiv-P{-webkit-transform: translate(19.30118px, 132px);transform: translate(19.30118px, 132px);}#el_g1PMuMEL4zZ{fill: url(#SVGID_4_);}#el_KNR_aqDzE29{opacity: 0.3;-webkit-clip-path: url(#SVGID_5_);clip-path: url(#SVGID_5_);fill: #141730;enable-background: new;}#el_m_OMRMvvR1C{opacity: 0.3;-webkit-clip-path: url(#SVGID_6_);clip-path: url(#SVGID_6_);fill: #141730;enable-background: new;}#el_gJbbxySASui{fill: url(#SVGID_7_);}#el_RzpTpbQN5oO{opacity: 0.12;-webkit-mask: url(#mask-11_20_);mask: url(#mask-11_20_);fill: #FFFFFF;enable-background: new;}#el_WYBuAvNkj2s{opacity: 0.3;fill: #A6A8AB;enable-background: new;}#el_y8UzxMb-B1F{opacity: 0.3;fill: #A6A8AB;enable-background: new;}#el_5tFmF3C051T{opacity: 0.3;fill: #A6A8AB;enable-background: new;}#el_cJdiYLURDHZ{-webkit-mask: url(#mask-11_16_);mask: url(#mask-11_16_);fill: url(#Path-56_2_);}#el_04FwK_JqkYX{opacity: 0.3;-webkit-mask: url(#mask-11_15_);mask: url(#mask-11_15_);fill: #383A5B;enable-background: new;}#el_w2O3qRpbZLs{opacity: 0.3;enable-background: new;}#el_W3PzAF89LOW{fill: #A6A8AB;}#el_UACrE7ltCV-{opacity: 0.2;-webkit-mask: url(#mask-11_12_);mask: url(#mask-11_12_);fill: #FFFFFF;enable-background: new;}#el_ML8R1znteuR{fill: url(#Path-60_2_);}#el__1x1PFu1xRz{-webkit-transform: translate(2px, 26px);transform: translate(2px, 26px);}#el_wDIeFo3hxYK{fill: url(#SVGID_8_);}#el_B-NT4q8TOFI{opacity: 0.2;fill: #50211F;enable-background: new;}#el_cyehzWxhYa_{fill: url(#SVGID_9_);}#el_jMrgT1PHjFn{opacity: 0.2;fill: #50211F;enable-background: new;}#el_LvVxannMf1r{fill: url(#SVGID_10_);}#el_9pzK2rW2hEt{fill: url(#SVGID_11_);}#el_gsav6epV9K5{-webkit-transform: translate(51px, 43px);transform: translate(51px, 43px);}#el_aOtKmS2Ien8{-webkit-transform: translate(59px, 0px);transform: translate(59px, 0px);}#el_Rfn5WGlqRwE{fill: url(#SVGID_12_);}#el_w4YuH-w7IsK{opacity: 0.2;-webkit-mask: url(#mask-21_4_);mask: url(#mask-21_4_);fill: #50211F;enable-background: new;}#el_wrj1onDObfp{opacity: 0.2;-webkit-mask: url(#mask-21_3_);mask: url(#mask-21_3_);fill: #50211F;enable-background: new;}#el_1thd3P8aKMm{-webkit-transform: translate(0px, 30px);transform: translate(0px, 30px);}#el_oEd6VBfhPD0{fill: url(#Path-49_1_);}#el_w3FYt1QxtUf{fill: url(#Path-46_1_);}#el_jMNezD7K6w_an_D_sR-JndW{-webkit-animation-fill-mode: backwards;animation-fill-mode: backwards;-webkit-transform: translate(241px, 111.19999694824219px) translate(-241px, -111.19999694824219px) translate(0px, 0px);transform: translate(241px, 111.19999694824219px) translate(-241px, -111.19999694824219px) translate(0px, 0px);-webkit-animation-name: kf_el_jMNezD7K6w_an_D_sR-JndW;animation-name: kf_el_jMNezD7K6w_an_D_sR-JndW;-webkit-animation-timing-function: cubic-bezier(0.42, 0, 0.58, 1);animation-timing-function: cubic-bezier(0.42, 0, 0.58, 1);}#el_qWh5rII5sIj_an_nPTn58bDW{-webkit-animation-fill-mode: backwards;animation-fill-mode: backwards;-webkit-transform: translate(265.9499969482422px, 111.14999771118164px) translate(-265.9499969482422px, -111.14999771118164px) translate(0px, 0px);transform: translate(265.9499969482422px, 111.14999771118164px) translate(-265.9499969482422px, -111.14999771118164px) translate(0px, 0px);-webkit-animation-name: kf_el_qWh5rII5sIj_an_nPTn58bDW;animation-name: kf_el_qWh5rII5sIj_an_nPTn58bDW;-webkit-animation-timing-function: cubic-bezier(0.42, 0, 0.58, 1);animation-timing-function: cubic-bezier(0.42, 0, 0.58, 1);}#el_NuOQ663E-H9_an_pDY2-vtTm{-webkit-animation-fill-mode: backwards;animation-fill-mode: backwards;-webkit-transform: translate(290.79998779296875px, 111.19999694824219px) translate(-290.79998779296875px, -111.19999694824219px) translate(0px, 0px);transform: translate(290.79998779296875px, 111.19999694824219px) translate(-290.79998779296875px, -111.19999694824219px) translate(0px, 0px);-webkit-animation-name: kf_el_NuOQ663E-H9_an_pDY2-vtTm;animation-name: kf_el_NuOQ663E-H9_an_pDY2-vtTm;-webkit-animation-timing-function: cubic-bezier(0.42, 0, 0.58, 1);animation-timing-function: cubic-bezier(0.42, 0, 0.58, 1);}#el_vUozOE_oERP_an_avoFLllky{-webkit-animation-fill-mode: backwards;animation-fill-mode: backwards;-webkit-transform: translate(315.6999816894531px, 111.19999694824219px) translate(-315.6999816894531px, -111.19999694824219px) translate(0px, 0px);transform: translate(315.6999816894531px, 111.19999694824219px) translate(-315.6999816894531px, -111.19999694824219px) translate(0px, 0px);-webkit-animation-name: kf_el_vUozOE_oERP_an_avoFLllky;animation-name: kf_el_vUozOE_oERP_an_avoFLllky;-webkit-animation-timing-function: cubic-bezier(0.42, 0, 0.58, 1);animation-timing-function: cubic-bezier(0.42, 0, 0.58, 1);}#el_jw_HzFs-Qn4_an_RXahOwtC3{-webkit-animation-fill-mode: backwards;animation-fill-mode: backwards;-webkit-transform: translate(340.6000061035156px, 111.19999694824219px) translate(-340.6000061035156px, -111.19999694824219px) translate(0px, 0px);transform: translate(340.6000061035156px, 111.19999694824219px) translate(-340.6000061035156px, -111.19999694824219px) translate(0px, 0px);-webkit-animation-name: kf_el_jw_HzFs-Qn4_an_RXahOwtC3;animation-name: kf_el_jw_HzFs-Qn4_an_RXahOwtC3;-webkit-animation-timing-function: cubic-bezier(0.42, 0, 0.58, 1);animation-timing-function: cubic-bezier(0.42, 0, 0.58, 1);}#el_FGMI88RtsDy_an_ATXwi9eUc{-webkit-animation-fill-mode: backwards;animation-fill-mode: backwards;-webkit-transform: translate(287.8000030517578px, 198.6500015258789px) scale(1, 1) translate(-287.8000030517578px, -198.6500015258789px);transform: translate(287.8000030517578px, 198.6500015258789px) scale(1, 1) translate(-287.8000030517578px, -198.6500015258789px);-webkit-animation-name: kf_el_FGMI88RtsDy_an_ATXwi9eUc;animation-name: kf_el_FGMI88RtsDy_an_ATXwi9eUc;-webkit-animation-timing-function: cubic-bezier(0, 0, 1, 1);animation-timing-function: cubic-bezier(0, 0, 1, 1);}</style>

<g id="el_NbM7IqATeU">
	<path d="M366.3,136.6c0,4.9-3.9,8.8-8.8,8.8H224.5c-4.9,0-8.8-3.9-8.8-8.8V88.1c0-4.9,3.9-8.8,8.8-8.8h132.9&#xA;&#9;&#9;c4.9,0,8.8,3.9,8.8,8.8V136.6z" id="el_pBGoBVQ9ma"/>
	<path d="M357.4,146.5H224.5c-5.4,0-9.8-4.4-9.8-9.8V88.1c0-5.4,4.4-9.8,9.8-9.8h132.9c5.4,0,9.8,4.4,9.8,9.8v48.5&#xA;&#9;&#9;C367.3,142.1,362.9,146.5,357.4,146.5z M224.5,80.3c-4.3,0-7.8,3.5-7.8,7.8v48.5c0,4.3,3.5,7.8,7.8,7.8h132.9&#xA;&#9;&#9;c4.3,0,7.8-3.5,7.8-7.8V88.1c0-4.3-3.5-7.8-7.8-7.8H224.5z" id="el_zlOIzEtYX3"/>
</g>
<g id="el_VmnO9Y8WBR">
	<path d="M190.2,62.7H60.3c-4.8,0-8.6,3.9-8.6,8.6v47.4c0,4.8,3.9,8.6,8.6,8.6h23.3l6.2,18.7l4.7-18.7h95.8&#xA;&#9;&#9;c4.8,0,8.6-3.9,8.6-8.6V71.3C198.8,66.5,195,62.7,190.2,62.7z" id="el_lCULOZPCwf"/>
	<path d="M188.6,79.6c0,2-1.6,3.6-3.6,3.6H71.5c-2,0-3.6-1.6-3.6-3.6l0,0c0-2,1.6-3.6,3.6-3.6H185&#xA;&#9;&#9;C187,76,188.6,77.6,188.6,79.6L188.6,79.6z" id="el_Z58suKFKzg"/>
	<path d="M188.6,95c0,2-1.6,3.6-3.6,3.6H71.5c-2,0-3.6-1.6-3.6-3.6l0,0c0-2,1.6-3.6,3.6-3.6H185&#xA;&#9;&#9;C187,91.3,188.6,93,188.6,95L188.6,95z" id="el_32Le0mD4FY"/>
	<path d="M128.3,108.6c0,2-0.8,3.6-1.8,3.6H69.7c-1,0-1.8-1.6-1.8-3.6l0,0c0-2,0.8-3.6,1.8-3.6h56.7&#xA;&#9;&#9;C127.4,105,128.3,106.6,128.3,108.6L128.3,108.6z" id="el_KabKrSVJX7"/>
</g>
<g id="el_XpeSunWff-">
	<path d="M91.3,152.3h129.9c4.8,0,8.6,3.9,8.6,8.6v47.4c0,4.8-3.9,8.6-8.6,8.6H198l-6.2,18.7l-4.7-18.7H91.3&#xA;&#9;&#9;c-4.8,0-8.6-3.9-8.6-8.6v-47.4C82.7,156.1,86.6,152.3,91.3,152.3z" id="el_co9KO1GdaZ"/>
	<path d="M92.9,169.2c0,2,1.6,3.6,3.6,3.6H210c2,0,3.6-1.6,3.6-3.6l0,0c0-2-1.6-3.6-3.6-3.6H96.6&#xA;&#9;&#9;C94.5,165.6,92.9,167.2,92.9,169.2L92.9,169.2z" id="el_vwNLB-o2wu"/>
	<path d="M92.9,184.6c0,2,1.6,3.6,3.6,3.6H210c2,0,3.6-1.6,3.6-3.6l0,0c0-2-1.6-3.6-3.6-3.6H96.6&#xA;&#9;&#9;C94.5,181,92.9,182.6,92.9,184.6L92.9,184.6z" id="el_xifIS3pSTU"/>
	<path d="M153.3,198.2c0,2,0.8,3.6,1.8,3.6h56.7c1,0,1.8-1.6,1.8-3.6l0,0c0-2-0.8-3.6-1.8-3.6h-56.7&#xA;&#9;&#9;C154.1,194.6,153.3,196.2,153.3,198.2L153.3,198.2z" id="el_AzKgAceFGA"/>
</g>
<ellipse id="el_ysjK2b7_ES" cx="169.9" cy="374" rx="111.8" ry="4.9"/>
<g id="el_jMNezD7K6w_an_D_sR-JndW" data-animator-group="true" data-animator-type="0"><g id="el_jMNezD7K6w">
	<path d="M241.1,116.7l5.9,3.6l-1.6-6.7l5.2-4.5l-6.9-0.6l-2.7-6.4l-2.7,6.4l-6.9,0.6l5.2,4.5l-1.6,6.7L241.1,116.7z" id="el_ZXb9aWckVds"/>
</g></g>
<g id="el_qWh5rII5sIj_an_nPTn58bDW" data-animator-group="true" data-animator-type="0"><g id="el_qWh5rII5sIj">
	<path d="M266,116.7l5.9,3.6l-1.6-6.7l5.2-4.5l-6.9-0.6L266,102l-2.7,6.4l-6.9,0.6l5.2,4.5l-1.6,6.7L266,116.7z" id="el_fGp1dsVJNW9"/>
</g></g>
<g id="el_NuOQ663E-H9_an_pDY2-vtTm" data-animator-group="true" data-animator-type="0"><g id="el_NuOQ663E-H9">
	<path d="M290.9,116.7l5.9,3.6l-1.6-6.7l5.2-4.5l-6.9-0.6l-2.7-6.4l-2.7,6.4l-6.9,0.6l5.2,4.5l-1.6,6.7L290.9,116.7z" id="el_iRDynPRIqj-"/>
</g></g>
<g id="el_vUozOE_oERP_an_avoFLllky" data-animator-group="true" data-animator-type="0"><g id="el_vUozOE_oERP">
	<path d="M315.8,116.7l5.9,3.6l-1.6-6.7l5.2-4.5l-6.9-0.6l-2.7-6.4l-2.7,6.4l-6.9,0.6l5.2,4.5l-1.6,6.7L315.8,116.7z" id="el_kAQqLILsxRD"/>
</g></g>
<g id="el_jw_HzFs-Qn4_an_RXahOwtC3" data-animator-group="true" data-animator-type="0"><g id="el_jw_HzFs-Qn4">
	<path d="M340.7,116.7l5.9,3.6l-1.6-6.7l5.2-4.5l-6.9-0.6l-2.7-6.4l-2.7,6.4l-6.9,0.6l5.2,4.5l-1.6,6.7L340.7,116.7z" id="el_ZydfnqfP8W6"/>
</g></g>
<g id="el_FGMI88RtsDy_an_ATXwi9eUc" data-animator-group="true" data-animator-type="2"><g id="el_FGMI88RtsDy">
	
		<linearGradient id="SVGID_1_" gradientUnits="userSpaceOnUse" x1="-2341.9802" y1="1409.4474" x2="-2294.3838" y2="1457.0437" gradientTransform="matrix(4.489700e-11 -1 1 4.489700e-11 -1145.5 -2119.5)">
		<stop offset="0" style="stop-color:#10998E"/>
		<stop offset="1" style="stop-color:#70C072"/>
	</linearGradient>
	<polygon points="257.6,181.2 257.6,216.1 287.7,233.5 318,216.1 318,181.2 287.7,163.8 &#9;" id="el_5aOVPXNnTnA"/>
	<g id="el_ZsHepAPoMtD">
		<path d="M298.1,194.1h-6.4v-3.6c0-2.8-1.7-6.1-4.9-7c-0.5-0.1-1.2-0.1-1.6,0.3s-0.7,0.8-0.7,1.5v5l-4.5,5.8v14.1&#xA;&#9;&#9;&#9;l1.7,0.9c1.7,0.8,3.6,1.3,5.5,1.3h9.1c2,0,3.7-1.5,4.1-3.5l1.3-10.9v-0.1C301.8,195.7,300.1,194.1,298.1,194.1z" id="el_VVwtxK3raqZ"/>
		<path d="M277.2,195h-3.6c-0.5,0-0.9,0.4-0.9,0.9v15.5c0,0.5,0.4,0.9,0.9,0.9h3.6c0.5,0,0.9-0.4,0.9-0.9v-15.5&#xA;&#9;&#9;&#9;C278.1,195.3,277.8,195,277.2,195z" id="el_wimFGI3L0NU"/>
	</g>
</g></g>
<g id="el_ZJJzoAbMlO4">
	<g id="el_trQhPjBqpwP">
		<linearGradient id="SVGID_2_" gradientUnits="userSpaceOnUse" x1="216.9279" y1="390.2305" x2="172.0174" y2="360.2057">
			<stop offset="0" style="stop-color:#404782"/>
			<stop offset="1" style="stop-color:#383A5B"/>
		</linearGradient>
		<path d="M201.2,367.2c-7.3-0.4-11.6-3-12.8-7.9h-16.1l-3,11.4c-1,2.9,0.6,4.4,4.6,4.4c4,0,16.3,0,36.7,0&#xA;&#9;&#9;&#9;C211.6,370.2,208.5,367.6,201.2,367.2z" id="el_0ILthrA09v1"/>
		<linearGradient id="SVGID_3_" gradientUnits="userSpaceOnUse" x1="156.761" y1="384.1275" x2="124.2342" y2="362.3817">
			<stop offset="0" style="stop-color:#404782"/>
			<stop offset="1" style="stop-color:#383A5B"/>
		</linearGradient>
		<path d="M149.3,367.2c-3.1-2.3-5.5-5-7.1-7.9H126l-7.2,11.4c-1,2.9,0.6,4.4,4.6,4.4c6.1,0,23.6,0,26.2,0&#xA;&#9;&#9;&#9;C152.1,375.2,153.9,370.7,149.3,367.2z" id="el_8J5inI2VVvt"/>
	</g>
	<g id="el_jKRGIOSiv-P">
		<g id="el_lqaB4mGl1im">
			
				<linearGradient id="SVGID_4_" gradientUnits="userSpaceOnUse" x1="-394.1204" y1="1224.9659" x2="-394.1204" y2="1223.9659" gradientTransform="matrix(72.296 0 0 -165.6956 28631.4121 203034.4219)">
				<stop offset="0" style="stop-color:#2B388F"/>
				<stop offset="1" style="stop-color:#262261"/>
			</linearGradient>
			<path d="M104.1,62.9c-6.2,42.7,2.9,60.4,0,98c-0.7,8.7,0,41.6,0.8,58.2c0.2,3.6-2.2,8,1.7,8.9&#xA;&#9;&#9;&#9;&#9;c3.9,0.8,15.6,0.5,18.1,0.5s1.2-4.4,1.2-7.9c0-26.1,4-27.8,3.1-41.5c-1.1-17.4,1.6-41.4,8-72.2c2,16,5.1,31.4,9.3,46.3&#xA;&#9;&#9;&#9;&#9;c3.5,12.4,0.3,28.3,3.3,52.4c0.4,3.5-1,21.2,2.9,21.8s14,0.6,16.7,0.5c2.7-0.1,2.3-10.8,4.1-22.3c1.8-11.5,0-38.2,0-52.4&#xA;&#9;&#9;&#9;&#9;c0-9.5-4.5-39.6-13.5-90.4H104.1z" id="el_g1PMuMEL4zZ"/>
		</g>
		<g id="el_9F1f511o3Y-">
			<defs>
				<path id="SVGID_19_" d="M104.1,62.9c-6.2,42.7,2.9,60.4,0,98c-0.7,8.7,0,41.6,0.8,58.2c0.2,3.6-2.2,8,1.7,8.9&#xA;&#9;&#9;&#9;&#9;&#9;c3.9,0.8,15.6,0.5,18.1,0.5s1.2-4.4,1.2-7.9c0-26.1,4-27.8,3.1-41.5c-1.1-17.4,1.6-41.4,8-72.2c2,16,5.1,31.4,9.3,46.3&#xA;&#9;&#9;&#9;&#9;&#9;c3.5,12.4,0.3,28.3,3.3,52.4c0.4,3.5-1,21.2,2.9,21.8s14,0.6,16.7,0.5c2.7-0.1,2.3-10.8,4.1-22.3c1.8-11.5,0-38.2,0-52.4&#xA;&#9;&#9;&#9;&#9;&#9;c0-9.5-4.5-39.6-13.5-90.4H104.1z"/>
			</defs>
			<clipPath id="SVGID_5_">
				<use xlink:href="#SVGID_19_" style="overflow:visible;"/>
			</clipPath>
			<path d="M160.3,62.9c-0.5,9.2-7.8,13.9-21.9,13.9c-21.2,0-3.1,23.6-24.7,29.1c-21.6,5.5-9.1,32.1-22.2,32.1&#xA;&#9;&#9;&#9;&#9;c-8.8,0-5-24.5,11.3-73.5L160.3,62.9z" id="el_KNR_aqDzE29"/>
		</g>
		<g id="el_VANw1wPs8hQ">
			<defs>
				<path id="SVGID_21_" d="M104.1,62.9c-6.2,42.7,2.9,60.4,0,98c-0.7,8.7,0,41.6,0.8,58.2c0.2,3.6-2.2,8,1.7,8.9&#xA;&#9;&#9;&#9;&#9;&#9;c3.9,0.8,15.6,0.5,18.1,0.5s1.2-4.4,1.2-7.9c0-26.1,4-27.8,3.1-41.5c-1.1-17.4,1.6-41.4,8-72.2c2,16,5.1,31.4,9.3,46.3&#xA;&#9;&#9;&#9;&#9;&#9;c3.5,12.4,0.3,28.3,3.3,52.4c0.4,3.5-1,21.2,2.9,21.8s14,0.6,16.7,0.5c2.7-0.1,2.3-10.8,4.1-22.3c1.8-11.5,0-38.2,0-52.4&#xA;&#9;&#9;&#9;&#9;&#9;c0-9.5-4.5-39.6-13.5-90.4H104.1z"/>
			</defs>
			<clipPath id="SVGID_6_">
				<use xlink:href="#SVGID_21_" style="overflow:visible;"/>
			</clipPath>
			<path d="M135.7,112l6.7-25.4c3,6,3.9,12.9,2.9,20.8c-1.5,11.9,9.3,20.8,4.2,29.6c-5.1,8.9,10.3,28.1-0.8,42&#xA;&#9;&#9;&#9;&#9;c-7.4,9.3-9.4,8.9-6-1.2L135.7,112z" id="el_m_OMRMvvR1C"/>
		</g>
	</g>
	<g id="el_AKWHacTnpqb">
		
			<linearGradient id="SVGID_7_" gradientUnits="userSpaceOnUse" x1="-377.3082" y1="1352.9811" x2="-377.9197" y2="1351.9811" gradientTransform="matrix(120.8314 0 0 -99.8922 45776.3438 135255.8594)">
			<stop offset="0" style="stop-color:#F1F1F2"/>
			<stop offset="1" style="stop-color:#D0D2D3"/>
		</linearGradient>
		<path d="M164.4,105.5c-7.2-2.3-20.9-4.4-37.4-1.3c-7.9,1.4-13.2,7.8-16.2,15C100.3,144,96.8,171,112,171&#xA;&#9;&#9;&#9;c6.7,0,4.9,0,9.2,0c-0.3,14.5-0.4,22.1-0.4,22.8c0.1,3-1.1,6.5,7,7.8c8.1,1.3,32.2,1.3,40.1,0.5c7.9-0.7,15.9-1.7,12.2-9.9&#xA;&#9;&#9;&#9;c-2.5-5.5-3.9-18.1-4.4-37.7l15.1,8.9c5.6,1.7,9.8,0.7,12.6-3.2s9.2-15.1,19.1-33.6c0-4.5-3.8-6.5-11.3-6l-17.1,21.7L175.7,114&#xA;&#9;&#9;&#9;C173,109.9,169.2,107.1,164.4,105.5z" id="el_gJbbxySASui"/>
	</g>
	<defs>
		<filter id="Adobe_OpacityMaskFilter" filterUnits="userSpaceOnUse" x="147.6" y="104" width="14.2" height="105.9">
			<feColorMatrix type="matrix" values="1 0 0 0 0  0 1 0 0 0  0 0 1 0 0  0 0 0 1 0"/>
		</filter>
	</defs>
	<mask maskUnits="userSpaceOnUse" x="147.6" y="104" width="14.2" height="105.9" id="mask-11_20_">
		<g class="st13">
			<path id="path-10_20_" class="st14" d="M164.4,105.5c-7.2-2.3-20.9-4.4-37.4-1.3c-7.9,1.4-13.2,7.8-16.2,15&#xA;&#9;&#9;&#9;&#9;C100.3,144,96.8,171,112,171c6.7,0,4.9,0,9.2,0c-0.3,14.5-0.4,22.1-0.4,22.8c0.1,3-1.1,6.5,7,7.8c8.1,1.3,32.2,1.3,40.1,0.5&#xA;&#9;&#9;&#9;&#9;c7.9-0.7,15.9-1.7,12.2-9.9c-2.5-5.5-3.9-18.1-4.4-37.7l15.1,8.9c5.6,1.7,9.8,0.7,12.6-3.2s9.2-15.1,19.1-33.6&#xA;&#9;&#9;&#9;&#9;c0-4.5-3.8-6.5-11.3-6l-17.1,21.7L175.7,114C173,109.9,169.2,107.1,164.4,105.5z"/>
		</g>
	</mask>
	<path id="el_RzpTpbQN5oO" d="M147.6,111.5c6.1,19,8.7,38.2,7.7,57.7c-1.5,29.3,1.8,21.4,1.8,30.8s3.9,14.7,4.6,4.4&#xA;&#9;&#9;s-2.3-9-2.3-19s0.2-36.5-2.2-50.9c-1.6-9.6-4.8-19.7-9.6-30.5V111.5z"/>
	<path d="M159.3,128.5h11v3h-11V128.5z" id="el_WYBuAvNkj2s"/>
	<path d="M175.3,149.7c0-9.1-0.8-16.4-2.5-22c3,1.7,4.8,5.4,5.2,11c0.7,8.4,5.2,0.3,8,9.8c2.9,9.5,10.1,3.3,11.8,5.8&#xA;&#9;&#9;c1.1,1.7-1.8,4.2-8.9,7.6L175.3,149.7z" id="el_y8UzxMb-B1F"/>
	<path d="M138.1,102.7c3.8,0.4,7.1,2.9,10.1,7.6c7.6,4.1,11.2,6.5,10.9,7.1c-0.7,1.7-8.7-0.4-12.4-0.3&#xA;&#9;&#9;c-1.9,0.1-3.5,2.9-4.2,3.9c-0.4,0.6-3.8-4.7-4.9-4.7c-10.2,0-15.2-3.5-15-10.6C129.2,103.3,134.3,102.3,138.1,102.7z" id="el_5tFmF3C051T"/>
	<defs>
		<filter id="Adobe_OpacityMaskFilter_1_" filterUnits="userSpaceOnUse" x="134.3" y="96.9" width="25.5" height="22.2">
			<feColorMatrix type="matrix" values="1 0 0 0 0  0 1 0 0 0  0 0 1 0 0  0 0 0 1 0"/>
		</filter>
	</defs>
	<mask maskUnits="userSpaceOnUse" x="134.3" y="96.9" width="25.5" height="22.2" id="mask-11_16_">
		<g class="st17">
			<path id="path-10_16_" class="st14" d="M164.4,105.5c-7.2-2.3-20.9-4.4-37.4-1.3c-7.9,1.4-13.2,7.8-16.2,15&#xA;&#9;&#9;&#9;&#9;C100.3,144,96.8,171,112,171c6.7,0,4.9,0,9.2,0c-0.3,14.5-0.4,22.1-0.4,22.8c0.1,3-1.1,6.5,7,7.8c8.1,1.3,32.2,1.3,40.1,0.5&#xA;&#9;&#9;&#9;&#9;c7.9-0.7,15.9-1.7,12.2-9.9c-2.5-5.5-3.9-18.1-4.4-37.7l15.1,8.9c5.6,1.7,9.8,0.7,12.6-3.2s9.2-15.1,19.1-33.6&#xA;&#9;&#9;&#9;&#9;c0-4.5-3.8-6.5-11.3-6l-17.1,21.7L175.7,114C173,109.9,169.2,107.1,164.4,105.5z"/>
		</g>
	</mask>
	<linearGradient id="Path-56_2_" gradientUnits="userSpaceOnUse" x1="134.2626" y1="107.998" x2="159.7243" y2="107.998">
		<stop offset="0" style="stop-color:#F1F1F2"/>
		<stop offset="1" style="stop-color:#D0D2D3"/>
	</linearGradient>
	<path id="el_cJdiYLURDHZ" d="M134.6,99.5l7.3,18.9c0.2,0.5,0.8,0.8,1.3,0.6c0.2-0.1,0.3-0.2,0.4-0.3l6-7.3l8.7,4.4&#xA;&#9;&#9;c0.5,0.2,1.1,0,1.3-0.4c0.2-0.3,0.1-0.7,0-1l-8.4-14l-12.4-3.5l-4.5,2.6"/>
	<defs>
		<filter id="Adobe_OpacityMaskFilter_2_" filterUnits="userSpaceOnUse" x="110.5" y="184.6" width="10.1" height="10.3">
			<feColorMatrix type="matrix" values="1 0 0 0 0  0 1 0 0 0  0 0 1 0 0  0 0 0 1 0"/>
		</filter>
	</defs>
	<mask maskUnits="userSpaceOnUse" x="110.5" y="184.6" width="10.1" height="10.3" id="mask-11_15_">
		<g class="st19">
			<path id="path-10_15_" class="st14" d="M164.4,105.5c-7.2-2.3-20.9-4.4-37.4-1.3c-7.9,1.4-13.2,7.8-16.2,15&#xA;&#9;&#9;&#9;&#9;C100.3,144,96.8,171,112,171c6.7,0,4.9,0,9.2,0c-0.3,14.5-0.4,22.1-0.4,22.8c0.1,3-1.1,6.5,7,7.8c8.1,1.3,32.2,1.3,40.1,0.5&#xA;&#9;&#9;&#9;&#9;c7.9-0.7,15.9-1.7,12.2-9.9c-2.5-5.5-3.9-18.1-4.4-37.7l15.1,8.9c5.6,1.7,9.8,0.7,12.6-3.2s9.2-15.1,19.1-33.6&#xA;&#9;&#9;&#9;&#9;c0-4.5-3.8-6.5-11.3-6l-17.1,21.7L175.7,114C173,109.9,169.2,107.1,164.4,105.5z"/>
		</g>
	</mask>
	<path id="el_04FwK_JqkYX" d="M110.5,193.8c1.7-4.1,5.1-7.2,10.1-9.2l-0.6,7.1l-7.4,3.2L110.5,193.8z"/>
	<g id="el_w2O3qRpbZLs">
		<path d="M121.8,171.1c13.6-0.3,23.8-0.6,30.7-1.1c6.9-0.4,11.2-1,12.8-1.6c-9.3,3.3-15.6,5-18.8,5&#xA;&#9;&#9;&#9;c-4.9,0-4.8-3.6-9.9,3.9c-4.9,7.5-9.6-2-13.7,12C120.3,198.7,119.9,192.6,121.8,171.1z M136.7,151c-3.7-6.2-12.9,2.6-9.8-6.9&#xA;&#9;&#9;&#9;c2.2-6.3,1.6-11.2-1.7-14.6l-4.5,24.1l32.2,5.1C144.5,157.8,139.1,155.2,136.7,151z" id="el_W3PzAF89LOW"/>
	</g>
	<defs>
		<filter id="Adobe_OpacityMaskFilter_3_" filterUnits="userSpaceOnUse" x="147" y="158.2" width="6.5" height="12.1">
			<feColorMatrix type="matrix" values="1 0 0 0 0  0 1 0 0 0  0 0 1 0 0  0 0 0 1 0"/>
		</filter>
	</defs>
	<mask maskUnits="userSpaceOnUse" x="147" y="158.2" width="6.5" height="12.1" id="mask-11_12_">
		<g class="st23">
			<path id="path-10_12_" class="st14" d="M164.4,105.5c-7.2-2.3-20.9-4.4-37.4-1.3c-7.9,1.4-13.2,7.8-16.2,15&#xA;&#9;&#9;&#9;&#9;C100.3,144,96.8,171,112,171c6.7,0,4.9,0,9.2,0c-0.3,14.5-0.4,22.1-0.4,22.8c0.1,3-1.1,6.5,7,7.8c8.1,1.3,32.2,1.3,40.1,0.5&#xA;&#9;&#9;&#9;&#9;c7.9-0.7,15.9-1.7,12.2-9.9c-2.5-5.5-3.9-18.1-4.4-37.7l15.1,8.9c5.6,1.7,9.8,0.7,12.6-3.2s9.2-15.1,19.1-33.6&#xA;&#9;&#9;&#9;&#9;c0-4.5-3.8-6.5-11.3-6l-17.1,21.7L175.7,114C173,109.9,169.2,107.1,164.4,105.5z"/>
		</g>
	</mask>
	<path id="el_UACrE7ltCV-" d="M148.7,158.2l4.6,0.6c0.2,2.7,0.2,4.8,0,6.2c-0.2,1.4-0.6,3.1-0.9,5l-5.4,0.3&#xA;&#9;&#9;C148.3,165.3,148.9,161.2,148.7,158.2z"/>
	
		<linearGradient id="Path-60_2_" gradientUnits="userSpaceOnUse" x1="-364.1428" y1="1327.6853" x2="-363.0548" y2="1328.6096" gradientTransform="matrix(27.2254 0 0 -28.7174 10052.042 38205.6484)">
		<stop offset="0" style="stop-color:#311747"/>
		<stop offset="1" style="stop-color:#834B87"/>
	</linearGradient>
	<path id="el_ML8R1znteuR" d="M163.9,71.9c-0.5-6.8-3.5-11-9-12.7c-8.2-2.5-19.1-0.7-22.1,9.1c-2,6.5-0.2,14.4,5.4,23.5&#xA;&#9;&#9;L163.9,71.9z"/>
	<g id="el__1x1PFu1xRz">
		<g id="el_MajIwlhjYfl">
			
				<linearGradient id="SVGID_8_" gradientUnits="userSpaceOnUse" x1="-353.2464" y1="1288.9159" x2="-352.4614" y2="1289.7863" gradientTransform="matrix(15.7109 0 0 -21.2511 5684.7339 27476.9453)">
				<stop offset="0" style="stop-color:#843E3F"/>
				<stop offset="1" style="stop-color:#7B4938"/>
			</linearGradient>
			<path d="M134.7,77c6.8,5.6,10.9,8.3,12.2,8.3s2.5-2.8,3.5-8.3l-1.1-6.7l-11.9-6.2L134.7,77z" id="el_wDIeFo3hxYK"/>
		</g>
		<path d="M150.2,73c0.3,4.6-1.5,6.6-5.6,5.9c-4-0.7-6.5-5.6-7.4-14.5L150.2,73z" id="el_B-NT4q8TOFI"/>
	</g>
	<g id="el_jPqu5ydcm3E">
		
			<linearGradient id="SVGID_9_" gradientUnits="userSpaceOnUse" x1="-364.2176" y1="1324.2277" x2="-363.2972" y2="1325.2482" gradientTransform="matrix(27.0654 0 0 -26.5474 9991.0879 35258.3438)">
			<stop offset="0" style="stop-color:#843E3F"/>
			<stop offset="1" style="stop-color:#BF8675"/>
		</linearGradient>
		<path d="M144.7,70.7c6.3,2.3,15.1,3.8,19.1,1.2c-0.8,19.8-4,29.7-9,29.7c-7.6,0-15.9-3.9-17.8-12.1&#xA;&#9;&#9;&#9;c0-0.1,0-0.2-0.1-0.3c-0.2,0-0.4,0-0.6,0c-2.3,0-4.2-1.9-4.2-4.2c0-2.3,1.9-4.2,4.2-4.2c1.5,0,2.7,0.7,3.5,1.9&#xA;&#9;&#9;&#9;C140.3,82.9,138.4,68.3,144.7,70.7z" id="el_cyehzWxhYa_"/>
	</g>
	<path d="M164,72.1c-5.4,3.5-10.2,4.7-14.5,3.9c-6.5-1.3-5.1,8.5-10.5,5.9l2.2-12.8L164,72.1z" id="el_jMrgT1PHjFn"/>
	<linearGradient id="SVGID_10_" gradientUnits="userSpaceOnUse" x1="153.7331" y1="91.3717" x2="161.9007" y2="98.3106">
		<stop offset="0" style="stop-color:#311747"/>
		<stop offset="1" style="stop-color:#834B87"/>
	</linearGradient>
	<path d="M161.6,92.1c0,1.8-2,1.1-6.1-2c-5.8,3.8-8.2,4.7-7.3,2.6c0.9-2.1,3.4-3.4,7.3-3.9&#xA;&#9;&#9;C159.6,89.2,161.6,90.2,161.6,92.1z" id="el_LvVxannMf1r"/>
	<linearGradient id="SVGID_11_" gradientUnits="userSpaceOnUse" x1="144.2357" y1="142.3501" x2="209.3396" y2="197.6605">
		<stop offset="0" style="stop-color:#311747"/>
		<stop offset="1" style="stop-color:#834B87"/>
	</linearGradient>
	<path d="M154.2,115.2c0,0.8-0.4,2.1-1.1,3.9c4.9,16.2,7.3,29,7.3,38.3c0,9.3,1.1,16.7,3.3,22l-7.3,8l-7.2-5&#xA;&#9;&#9;c0.5-4.3,1-8.4,1.8-12.2l1.6-0.3c0.6-3.4,1-5.5,1.2-6.4c0.2-1,0-2.6-0.7-4.8c0.6-6.2-0.4-19-3-38.7c-2.7-1.6-4-2.8-4-3.7&#xA;&#9;&#9;s0.9-2.5,2.6-5C152.3,113.2,154.2,114.4,154.2,115.2z" id="el_9pzK2rW2hEt"/>
	<g id="el_gsav6epV9K5">
		<g id="el_aOtKmS2Ien8">
			<g id="el_mwVT4xpKRz5">
				
					<linearGradient id="SVGID_12_" gradientUnits="userSpaceOnUse" x1="-461.7113" y1="1274.9059" x2="-460.9264" y2="1275.7762" gradientTransform="matrix(15.9728 0 0 -22.7115 7476.8594 29042.5234)">
					<stop offset="0" style="stop-color:#843E3F"/>
					<stop offset="1" style="stop-color:#EE8869"/>
				</linearGradient>
				<path d="M105.7,70.2c2.2-2.6,0-7,2.5-7c0.5,0,2,1.1,2.3,2.3c0.2,1,0.2,2.2,0,3.5c3.3,0.3,5.3,0.9,6.1,1.9&#xA;&#9;&#9;&#9;&#9;&#9;c1.2,1.5,0.7,7.4,0,9.3c-1,2.7-2.3,2.7-5,3.6c-0.9,0.3-2.1,0.9-3.9,2c-1.1,0.3-2.3,0-3.6-1s-2.2-3.2-2.8-6.7&#xA;&#9;&#9;&#9;&#9;&#9;C102.7,74.6,104.2,72,105.7,70.2z" id="el_Rfn5WGlqRwE"/>
			</g>
			<defs>
				<filter id="Adobe_OpacityMaskFilter_4_" filterUnits="userSpaceOnUse" x="101.2" y="77.2" width="9.6" height="10.1">
					<feColorMatrix type="matrix" values="1 0 0 0 0  0 1 0 0 0  0 0 1 0 0  0 0 0 1 0"/>
				</filter>
			</defs>
			<mask maskUnits="userSpaceOnUse" x="101.2" y="77.2" width="9.6" height="10.1" id="mask-21_4_">
				<g class="st32">
					<path id="path-20_4_" class="st14" d="M105.7,70.2c2.2-2.6,0-7,2.5-7c0.5,0,2,1.1,2.3,2.3c0.2,1,0.2,2.2,0,3.5&#xA;&#9;&#9;&#9;&#9;&#9;&#9;c3.3,0.3,5.3,0.9,6.1,1.9c1.2,1.5,0.7,7.4,0,9.3c-1,2.7-2.3,2.7-5,3.6c-0.9,0.3-2.1,0.9-3.9,2c-1.1,0.3-2.3,0-3.6-1&#xA;&#9;&#9;&#9;&#9;&#9;&#9;s-2.2-3.2-2.8-6.7C102.7,74.6,104.2,72,105.7,70.2z"/>
				</g>
			</mask>
			<path id="el_w4YuH-w7IsK" d="M101.2,77.2c1.9,5.3,5.1,7.5,9.6,6.7l-3.3,3.5l-6.3-2.6V77.2z"/>
			<defs>
				<filter id="Adobe_OpacityMaskFilter_5_" filterUnits="userSpaceOnUse" x="105.8" y="69.5" width="5.7" height="13.8">
					<feColorMatrix type="matrix" values="1 0 0 0 0  0 1 0 0 0  0 0 1 0 0  0 0 0 1 0"/>
				</filter>
			</defs>
			<mask maskUnits="userSpaceOnUse" x="105.8" y="69.5" width="5.7" height="13.8" id="mask-21_3_">
				<g class="st34">
					<path id="path-20_3_" class="st14" d="M105.7,70.2c2.2-2.6,0-7,2.5-7c0.5,0,2,1.1,2.3,2.3c0.2,1,0.2,2.2,0,3.5&#xA;&#9;&#9;&#9;&#9;&#9;&#9;c3.3,0.3,5.3,0.9,6.1,1.9c1.2,1.5,0.7,7.4,0,9.3c-1,2.7-2.3,2.7-5,3.6c-0.9,0.3-2.1,0.9-3.9,2c-1.1,0.3-2.3,0-3.6-1&#xA;&#9;&#9;&#9;&#9;&#9;&#9;s-2.2-3.2-2.8-6.7C102.7,74.6,104.2,72,105.7,70.2z"/>
				</g>
			</mask>
			<path id="el_wrj1onDObfp" d="M111.5,69.9c-2.4,0.3-3.7,1.9-3.7,4.6c0,4.2,0.1,7.9,3.7,8.8c-4.2-0.3-6.1-3-5.7-7.9&#xA;&#9;&#9;&#9;&#9;C106.3,70.5,108.2,68.6,111.5,69.9z"/>
		</g>
		<g id="el_1thd3P8aKMm">
			
				<linearGradient id="Path-49_1_" gradientUnits="userSpaceOnUse" x1="-420.8989" y1="1267.3024" x2="-420.8989" y2="1266.3024" gradientTransform="matrix(41.6335 0 0 -44.0493 17649.2285 55886.918)">
				<stop offset="0" style="stop-color:#AADDE1"/>
				<stop offset="1" style="stop-color:#A4CBEC"/>
			</linearGradient>
			<polygon id="el_oEd6VBfhPD0" points="114.3,63.2 104.9,107.2 136.5,106.5 146.5,63.2 &#9;&#9;&#9;"/>
			
				<linearGradient id="Path-46_1_" gradientUnits="userSpaceOnUse" x1="-408.1069" y1="1222.0287" x2="-407.322" y2="1222.899" gradientTransform="matrix(19.3959 0 0 -14.9331 8016.7671 18346.0312)">
				<stop offset="0" style="stop-color:#843E3F"/>
				<stop offset="1" style="stop-color:#EE8869"/>
			</linearGradient>
			<path id="el_w3FYt1QxtUf" d="M101.4,97c1-4.3,1.3-7.6,1-10c3.2-2.8,5.7-4.2,7.6-4.2l-0.7,3.4c4.5-0.2,7.7-1.3,9.8-3.4&#xA;&#9;&#9;&#9;&#9;c3.1-3.1,1.6,3.8-0.4,4.9s-1.1,7.3-6,8.2C109.3,96.7,105.6,97,101.4,97z"/>
		</g>
	</g>
</g>
</svg>