<?xml version="1.0" encoding="utf-8"?>
<!-- Generator: Adobe Illustrator 23.0.2, SVG Export Plug-In . SVG Version: 6.00 Build 0)  -->
<svg version="1.1" id="Layer_1" xmlns="http://www.w3.org/2000/svg" xmlns:xlink="http://www.w3.org/1999/xlink" x="0px" y="0px"
	 viewBox="0 0 948 948" style="enable-background:new 0 0 948 948;" xml:space="preserve">
<style type="text/css">
	.st0{fill:none;}
	.st1{opacity:0.3;fill:url(#Rectangle-Copy_2_);enable-background:new    ;}
	.st2{opacity:0.37;fill:url(#SVGID_1_);}
	.st3{opacity:0.16;fill:url(#Rectangle-Copy-2_1_);enable-background:new    ;}
</style>
<path class="st0" d="M186.1,1c138.6,0,179.5,179.1,120.3,296.5S213,570.2,402.8,607.7s313.4,22,313.4,223.3
	c0,105,77.7,137.7,233,98.1V1C348.1,1,93.7,1,186.1,1z"/>
<linearGradient id="Rectangle-Copy_2_" gradientUnits="userSpaceOnUse" x1="-245.4028" y1="953.7328" x2="-244.4226" y2="955.0019" gradientTransform="matrix(795.5433 0 0 -865.4521 195307.5781 826501.75)">
	<stop  offset="0" style="stop-color:#0F998E"/>
	<stop  offset="1" style="stop-color:#6FC171"/>
</linearGradient>
<path id="Rectangle-Copy_1_" class="st1" d="M153.5,1H949v851.1l-374.6,14.2c-90.6,3.4-172.2-54.5-198.8-141.2L153.5,1z"/>
<linearGradient id="SVGID_1_" gradientUnits="userSpaceOnUse" x1="-245.4263" y1="953.7507" x2="-244.446" y2="955.0198" gradientTransform="matrix(795.5433 0 0 -830.0618 195307.5781 792704.0625)">
	<stop  offset="0" style="stop-color:#0F998E"/>
	<stop  offset="1" style="stop-color:#6FC171"/>
</linearGradient>
<path class="st2" d="M153.5,1H949v735.8l-343.4,88c-103.5,26.5-209.5-33-240.8-135.1L153.5,1z"/>
<linearGradient id="Rectangle-Copy-2_1_" gradientUnits="userSpaceOnUse" x1="-245.5627" y1="953.7774" x2="-244.5824" y2="955.0464" gradientTransform="matrix(626.5429 0 0 -280.359 154071.4688 267739.375)">
	<stop  offset="0" style="stop-color:#0F998E"/>
	<stop  offset="1" style="stop-color:#6FC171"/>
</linearGradient>
<path id="Rectangle-Copy-2_2_" class="st3" d="M949,2.5v186.1l-343.4,88c-103.5,26.5-209.5-33-240.8-135.1
	C346,80.2,331.9,34.2,322.5,3.6L949,2.5z"/>
</svg>
