<?xml version="1.0" encoding="utf-8"?>
<!-- Generator: Adobe Illustrator 21.1.0, SVG Export Plug-In . SVG Version: 6.00 Build 0)  -->
<svg version="1.1" id="Layer_1" xmlns="http://www.w3.org/2000/svg" xmlns:xlink="http://www.w3.org/1999/xlink" x="0px" y="0px"
	 viewBox="0 0 97 97" style="enable-background:new 0 0 97 97;" xml:space="preserve">
<style type="text/css">
	.st0{fill:#52A2A6;}
	.st1{fill:#3D9A9E;}
	.st2{fill:#FFFFFF;}
</style>
<path class="st0" d="M48,92.6C23.9,92.6,4.4,73.1,4.4,49C4.4,24.9,23.9,5.4,48,5.4c24.1,0,43.6,19.6,43.6,43.6
	C91.6,73.1,72.1,92.6,48,92.6L48,92.6z"/>
<path class="st1" d="M48,8.7c22.2,0,40.3,18,40.3,40.3c0,22.2-18,40.3-40.3,40.3S7.7,71.2,7.7,49S25.8,8.7,48,8.7 M48,2
	C22.1,2,1,23.1,1,49c0,25.9,21.1,47,47,47c25.9,0,47-21.1,47-47C95,23.1,73.9,2,48,2L48,2z"/>
<path class="st2" d="M47.3,87.5c-1.5,0-2.5-1.1-3-3.3L34.2,43.3l-3.9,16.8c-0.4,1.9-1.6,3.3-3.1,3.6c-1.5,0.3-3.1-0.4-4.3-1.9
	l-1.3-1.7c-1.1-1.4-3.8-2.7-5.6-2.7H8.6c0,0-0.2-1-0.4-2c-0.2-1-0.3-2.1-0.3-2.1H16c3.1,0,6.9,1.9,8.8,4.3l1.3,1.7
	c0,0,0.1,0.1,0.1,0.1c0,0,0-0.1,0-0.1l4.8-20.9c0.5-2.2,1.5-3.4,3-3.4h0c1.5,0,2.5,1.1,3.1,3.4l10,40.5l12.7-60.7
	c0.5-2.3,1.5-3.4,2.9-3.5c1.5-0.1,2.5,1.1,3.1,3.4l8,32.7c0.4,1.5,2,2.7,3.5,2.7H88c0,0-0.1,1.3-0.2,2c-0.1,0.7-0.4,2.1-0.4,2.1h-10
	c-3.4,0-6.7-2.6-7.5-5.9L63,23.3L50.3,84C49.8,86.3,48.8,87.5,47.3,87.5L47.3,87.5L47.3,87.5z"/>
</svg>
