<?xml version="1.0" encoding="utf-8"?>
<!-- Generator: Adobe Illustrator 21.1.0, SVG Export Plug-In . SVG Version: 6.00 Build 0)  -->
<svg version="1.1" id="Layer_1" xmlns="http://www.w3.org/2000/svg" xmlns:xlink="http://www.w3.org/1999/xlink" x="0px" y="0px"
	 viewBox="0 0 97 97" style="enable-background:new 0 0 97 97;" xml:space="preserve">
<style type="text/css">
	.st0{fill:#177488;}
	.st1{fill:#FFFFFF;}
	.st2{fill:#9FBC58;}
</style>
<circle id="XMLID_48_" class="st0" cx="48.5" cy="48.7" r="47.5"/>
<path class="st1" d="M17.2,43.5c-1,0-2.1,0.4-2.9,1c-0.9,0.7-1.4,1.6-1.7,2.7v8h-1.2V42.4h1.1v3.2c0.4-0.9,0.9-1.6,1.7-2.2
	c0.6-0.5,1.4-0.9,2.2-1c0.1,0,0.3,0,0.4,0c0.1,0,0.2,0,0.3,0V43.5z"/>
<path class="st1" d="M23.8,55.5c-0.9,0-1.7-0.2-2.4-0.5c-0.7-0.3-1.4-0.9-1.9-1.5c-0.6-0.6-1-1.4-1.3-2.1c-0.3-0.8-0.5-1.7-0.5-2.6
	c0-0.9,0.1-1.8,0.5-2.6c0.3-0.8,0.7-1.5,1.3-2.1c0.5-0.6,1.2-1.1,1.9-1.4c0.8-0.3,1.6-0.5,2.4-0.5c0.8,0,1.7,0.2,2.4,0.5
	c0.7,0.3,1.4,0.9,1.9,1.4c0.5,0.6,0.9,1.3,1.3,2.1c0.3,0.8,0.5,1.7,0.5,2.5c0,0.1,0,0.2,0,0.3c0,0.1,0,0.2,0,0.2H19
	c0,0.7,0.2,1.4,0.5,2.1c0.3,0.6,0.6,1.1,1.1,1.7c0.4,0.5,0.9,0.8,1.5,1.1c0.6,0.3,1.2,0.4,1.8,0.4c0.4,0,0.9,0,1.3-0.2
	c0.4-0.1,0.8-0.3,1.1-0.5c0.3-0.2,0.7-0.5,0.9-0.8c0.2-0.3,0.5-0.6,0.6-1l1,0.3c-0.2,0.5-0.5,0.9-0.8,1.3c-0.3,0.4-0.8,0.7-1.2,1
	C26,55.2,24.9,55.5,23.8,55.5L23.8,55.5z M28.6,48.3c0-0.7-0.2-1.4-0.5-2.1c-0.2-0.6-0.6-1.1-1-1.6c-0.4-0.4-0.9-0.8-1.5-1
	c-1.1-0.5-2.5-0.5-3.7,0c-0.6,0.2-1.1,0.6-1.5,1c-0.4,0.5-0.8,1-1,1.6c-0.3,0.7-0.4,1.4-0.5,2.1H28.6z"/>
<path class="st1" d="M35.2,55.5c-0.5,0-1.1-0.1-1.6-0.3c-0.5-0.2-0.9-0.5-1.3-0.9c-0.4-0.4-0.7-0.8-0.9-1.3s-0.3-1-0.3-1.6
	c0-0.5,0.1-1,0.4-1.5c0.3-0.5,0.6-0.9,1-1.2c0.5-0.3,1-0.6,1.6-0.8c0.7-0.2,1.4-0.3,2-0.3s1.3,0,2,0.2c0.6,0.1,1.2,0.3,1.8,0.5v-1.2
	c0-1.2-0.3-2.2-1-2.9c-0.7-0.7-1.7-1.1-2.7-1.1c-0.7,0-1.3,0.1-1.9,0.4c-0.7,0.3-1.4,0.7-2,1.1L32,43.8c1.6-1.1,3.1-1.7,4.5-1.7
	c1.5,0,2.7,0.4,3.5,1.3c0.9,0.9,1.3,2.1,1.3,3.7v6.3c0,0.4,0.1,0.6,0.5,0.6v1.1c-0.1,0-0.1,0-0.2,0h-0.2c-0.3,0-0.6-0.1-0.8-0.3
	c-0.2-0.2-0.4-0.5-0.3-0.8v-0.9c-0.6,0.8-1.3,1.4-2.1,1.8C37.2,55.3,36.2,55.5,35.2,55.5z M35.5,54.5c0.9,0,1.7-0.2,2.5-0.5
	c0.7-0.3,1.3-0.8,1.7-1.4c0.2-0.3,0.4-0.6,0.4-1v-2.3c-1.2-0.5-2.4-0.7-3.7-0.7c-1.2,0-2.2,0.3-3,0.8c-0.7,0.4-1.1,1.2-1.1,2.1
	c0,0.4,0.1,0.8,0.2,1.2c0.1,0.4,0.4,0.7,0.7,1c0.3,0.3,0.6,0.5,1,0.7C34.6,54.4,35,54.5,35.5,54.5L35.5,54.5z"/>
<path class="st2" d="M53.5,55.5c-0.9,0-1.9-0.1-2.7-0.5c-0.9-0.3-1.6-0.8-2.3-1.5l0.6-0.9c0.6,0.6,1.3,1,2,1.4
	c0.8,0.3,1.5,0.5,2.3,0.4c0.9,0,1.8-0.2,2.6-0.7c0.6-0.4,1-1.2,0.9-1.9c0-0.3-0.1-0.7-0.2-1c-0.2-0.3-0.4-0.5-0.8-0.7
	c-0.4-0.2-0.8-0.4-1.2-0.5c-0.5-0.1-1-0.3-1.7-0.5c-0.7-0.1-1.3-0.3-1.8-0.5c-0.4-0.1-0.9-0.3-1.3-0.6c-0.3-0.2-0.6-0.5-0.8-0.9
	c-0.2-0.4-0.3-0.8-0.2-1.3c0-0.6,0.1-1.1,0.3-1.7c0.2-0.5,0.6-0.9,1-1.2c0.4-0.3,0.9-0.6,1.4-0.7c0.6-0.1,1.1-0.2,1.8-0.2
	c0.9,0,1.8,0.1,2.6,0.5c0.7,0.3,1.3,0.7,1.7,1.3l-0.7,0.7c-0.4-0.5-0.9-0.9-1.6-1.1c-0.7-0.2-1.4-0.4-2.1-0.4c-0.4,0-0.9,0-1.3,0.1
	c-0.4,0.1-0.7,0.2-1,0.5c-0.3,0.2-0.5,0.5-0.7,0.9c-0.2,0.4-0.3,0.8-0.2,1.2c0,0.3,0,0.6,0.2,0.9c0.1,0.2,0.3,0.4,0.6,0.6
	c0.3,0.2,0.7,0.3,1,0.4c0.4,0.1,0.9,0.2,1.5,0.4c0.8,0.2,1.5,0.4,2,0.6c0.5,0.1,1,0.4,1.5,0.7c0.4,0.2,0.7,0.6,0.9,0.9
	c0.2,0.4,0.3,0.9,0.3,1.4c0,1.1-0.4,2.1-1.3,2.8C56.1,55.2,55,55.5,53.5,55.5z"/>
<path class="st2" d="M65.8,55.5c-0.9,0-1.7-0.2-2.4-0.5c-0.7-0.3-1.4-0.9-1.9-1.5c-0.6-0.6-1-1.4-1.3-2.1c-0.3-0.8-0.5-1.7-0.5-2.6
	c0-0.9,0.1-1.8,0.5-2.6c0.3-0.8,0.7-1.5,1.3-2.1c0.5-0.6,1.2-1.1,1.9-1.4c0.8-0.3,1.6-0.5,2.4-0.5s1.7,0.2,2.4,0.5
	c0.7,0.3,1.4,0.9,1.9,1.4c0.5,0.6,0.9,1.3,1.3,2.1c0.3,0.8,0.5,1.7,0.5,2.5c0,0.1,0,0.2,0,0.3c0,0.1,0,0.2,0,0.2H61
	c0,0.7,0.2,1.4,0.5,2.1c0.3,0.6,0.6,1.1,1.1,1.7c0.4,0.5,0.9,0.8,1.5,1.1c0.6,0.3,1.2,0.4,1.8,0.4c0.4,0,0.9,0,1.3-0.2
	c0.4-0.1,0.8-0.3,1.1-0.5c0.3-0.2,0.7-0.5,0.9-0.8c0.3-0.3,0.5-0.6,0.7-1l1,0.3c-0.2,0.5-0.5,0.9-0.8,1.3c-0.3,0.4-0.8,0.7-1.2,1
	C68,55.2,67,55.5,65.8,55.5L65.8,55.5z M70.7,48.3c0-0.7-0.2-1.4-0.5-2.1c-0.2-0.6-0.6-1.1-1-1.6c-0.4-0.4-0.9-0.8-1.5-1
	c-1.1-0.5-2.5-0.5-3.7,0c-0.6,0.2-1.1,0.6-1.5,1c-0.4,0.5-0.8,1-1,1.6c-0.3,0.7-0.4,1.4-0.5,2.1H70.7z"/>
<path class="st2" d="M79.7,55.2V44.9H78v-1h1.7V42c0-1.6,0.3-2.8,0.9-3.7c0.6-0.9,1.5-1.3,2.6-1.3c0.5,0,0.9,0.1,1.3,0.2
	c0.4,0.1,0.8,0.3,1.1,0.6l-0.4,0.9c-0.2-0.2-0.5-0.3-0.8-0.4c-0.3-0.1-0.7-0.2-1-0.2c-0.8,0-1.5,0.4-1.9,1c-0.4,0.7-0.7,1.6-0.7,2.9
	v1.9h3.5v1h-3.5v10.3L79.7,55.2L79.7,55.2z"/>
<path class="st1" d="M47.2,55.4c-0.3,0-0.7,0.1-1,0.1c-0.6,0-1.2-0.2-1.6-0.6c-0.4-0.5-0.6-1.1-0.6-1.7V37.3h1.2v15.5
	c0,0.4,0.1,0.8,0.4,1.1c0.3,0.3,0.7,0.4,1.1,0.4c0.1,0,0.2,0,0.4,0"/>
<path class="st2" d="M77.2,55.4c-0.3,0-0.7,0.1-1,0.1c-0.6,0-1.2-0.2-1.6-0.6c-0.4-0.5-0.6-1.1-0.6-1.7V37.3h1.2v15.5
	c0,0.4,0.1,0.8,0.4,1.1c0.3,0.3,0.7,0.4,1.1,0.4c0.1,0,0.2,0,0.4,0"/>
</svg>
