<?xml version="1.0" encoding="utf-8"?>
<!-- Generator: Adobe Illustrator 23.0.3, SVG Export Plug-In . SVG Version: 6.00 Build 0)  -->
<svg version="1.1" id="Layer_1" xmlns="http://www.w3.org/2000/svg" xmlns:xlink="http://www.w3.org/1999/xlink" x="0px" y="0px"
	 viewBox="0 0 97 97" style="enable-background:new 0 0 97 97;" xml:space="preserve">
<style type="text/css">
	.st0{fill:#F0F2F4;}
	.st1{fill:#3D3935;}
	.st2{fill:#F5817E;}
</style>
<circle id="XMLID_48_" class="st0" cx="48.5" cy="48.7" r="47.5"/>
<g>
	<g>
		<g>
			<g>
				<g>
					<g>
						<path class="st1" d="M53.4,67.4c-4.7,0-9.6-1.6-13.6-4.5l4.3-6.3c2.3,2,5.9,3.3,9.4,3.3c2.6,0,4.5-1.3,4.5-3
							c0-2.2-2.8-3.2-6.1-4.3c-4.7-1.6-10.5-3.6-10.5-10c0-3.9,2.2-6.3,4-7.7c2.4-1.8,5.7-2.8,9-2.8c4.5,0,9.2,1.7,11.4,3.3
							l-4.1,6.4c-1.3-0.9-3.7-2.3-6.5-2.3c-2.9,0-4.8,1.2-4.8,2.9c0,1.8,2.4,2.6,5.5,3.6c5,1.6,11.1,3.7,11.1,10.9
							c0,3.1-1.4,5.7-4,7.6C60.3,66.4,57,67.4,53.4,67.4z"/>
						<path class="st2" d="M75.4,67.4c-3.4,0-6-2.6-6-6c0-3.4,2.6-6.1,6-6.1c3.4,0,6.1,2.7,6.1,6.1C81.4,64.8,78.8,67.4,75.4,67.4z"
							/>
					</g>
					<rect x="15.6" y="32.8" class="st1" width="8.9" height="33.9"/>
					<path class="st1" d="M32.9,44.2c-3.4,0-6-2.6-6-6c0-3.4,2.6-6.1,6-6.1c3.4,0,6.1,2.7,6.1,6.1C39,41.5,36.3,44.2,32.9,44.2z"/>
				</g>
			</g>
		</g>
	</g>
</g>
</svg>
