<?xml version="1.0" encoding="utf-8"?>
<!-- Generator: Adobe Illustrator 21.1.0, SVG Export Plug-In . SVG Version: 6.00 Build 0)  -->
<svg version="1.1" id="Layer_1" xmlns="http://www.w3.org/2000/svg" xmlns:xlink="http://www.w3.org/1999/xlink" x="0px" y="0px"
	 viewBox="0 0 97 97" style="enable-background:new 0 0 97 97;" xml:space="preserve">
<style type="text/css">
	.st0{fill:#400090;}
	.st1{fill:#FFFFFF;}
</style>
<g id="yahoo">
	<g id="Layer_1_8_">
		<circle id="XMLID_8_" class="st0" cx="48.5" cy="48.5" r="48.5"/>
		<g id="XMLID_16_" transform="translate(31.640625, 83.789062)">
			<path id="XMLID_9_" class="st1" d="M38-28c-0.9-0.1-1.7-0.1-2.6-0.4c-2.9-0.8-4.8-3.2-4.8-6.3c0-0.9,0-1.8,0.2-2.7
				c0.7-2.8,3.1-4.8,6-5c1.4-0.1,2.9-0.1,4.2,0.4c2.1,0.7,3.6,2.1,4.3,4.4c0.5,1.6,0.5,3.1,0,4.7c-0.8,3-3.4,4.9-6.7,4.9L38-28
				C38-28,38-28,38-28z M32.5-35.3c0.1,1,0.1,1.7,0.3,2.5c0.5,2.3,2.3,3.8,4.6,4c2.9,0.1,4.8-1,5.6-3.5c0.5-1.4,0.5-2.9,0.3-4.4
				c-0.4-2.7-2-4.4-4.7-4.7C36-41.7,33.9-40.6,33-38C32.7-37.1,32.7-36.1,32.5-35.3z"/>
			<path id="XMLID_28_" class="st1" d="M22.9-28.5c-0.8-0.1-1.7-0.2-2.5-0.4c-2.5-0.7-4.1-2.8-4.2-5.3c0-0.7,0-1.4,0-2
				c0.5-3,2.7-5,5.7-5.1c1,0,2.1,0,3.2,0.2c3.6,0.9,4.9,4.1,4.5,7.2C29.2-30.4,26.8-28.6,22.9-28.5z M22.9-29.4c2,0,3.4-0.8,4.2-2.3
				c1-2.1,1-4.4,0-6.5c-0.8-1.8-2.4-2.4-4.3-2.4c-1.9,0-3.4,0.9-4.2,2.8c-0.6,1.6-0.7,3.3-0.2,5C19-30.6,20.6-29.4,22.9-29.4z"/>
			<path id="XMLID_10_" class="st1" d="M13.9-28.9V-35H6.7c-0.2,2,0,4,0.1,6.1H5v-12.2h1.8c0,1.7-0.1,3.3-0.2,5.1
				c2.5,0.2,4.9,0.1,7.3,0v-5.1h1.7v12.2C15.1-28.9,14.6-28.9,13.9-28.9z"/>
			<path id="XMLID_13_" class="st1" d="M-8.9-27.5H-11c0-0.2-0.1-0.4-0.1-0.5c0-1.7,0.1-3.4,0.1-5.1c0-0.4-0.1-0.8-0.3-1.2
				c-1.5-2.5-3-5-4.5-7.5c-0.1-0.3-0.3-0.6-0.5-0.9h2.6c1.4,2.4,2.7,4.9,4.1,7.5c1.6-2.5,2.9-5,4.2-7.5h1.8
				c-0.2,0.3-0.3,0.6-0.5,0.8c-1.5,2.4-3,4.8-4.5,7.3c-0.2,0.4-0.3,0.9-0.3,1.4C-8.9-31.4-8.9-29.5-8.9-27.5z"/>
			<path id="XMLID_11_" class="st1" d="M2.5-28.9c-0.6-1.5-1.2-3-1.8-4.6h-4.4c-0.6,1.5-1.1,3-1.7,4.6h-1.4
				c1.9-4.3,3.7-8.4,5.6-12.6c0.1,0,0.2,0,0.2,0c0.1,0.2,0.3,0.5,0.4,0.8c1.5,3.4,2.9,6.7,4.3,10.1c0.2,0.5,0.4,1,0.7,1.6
				C3.7-28.9,3.2-28.9,2.5-28.9z M-1.5-38.5h-0.2c-0.5,1.3-1.1,2.6-1.7,4c1.3,0,2.4,0.1,3.6,0C-0.3-36-0.9-37.3-1.5-38.5z"/>
			<path id="XMLID_12_" class="st1" d="M47.5-31.7c-0.6-0.1-0.5-0.4-0.4-0.7c0-1.3,0.1-2.6,0.2-3.9c0.1-1.5,0.2-3,0.3-4.5
				c0-0.5,0-1,0.1-1.5c0.1-0.7,0.7-1,1.3-0.9c0.7,0.1,1,0.6,0.9,1.4c-0.3,1.6-0.7,3.2-1.1,4.8c-0.4,1.6-0.8,3.2-1.2,4.8
				C47.7-32,47.6-31.8,47.5-31.7z"/>
			<path id="XMLID_15_" class="st1" d="M46.9-26.8c-0.7,0-1.3-0.6-1.4-1.2c0-0.7,0.6-1.4,1.3-1.4c0.6,0,1.3,0.6,1.3,1.3
				C48.2-27.3,47.6-26.8,46.9-26.8z"/>
		</g>
	</g>
</g>
</svg>
