<?xml version="1.0" encoding="utf-8"?>
<!-- Generator: Adobe Illustrator 21.1.0, SVG Export Plug-In . SVG Version: 6.00 Build 0)  -->
<svg version="1.1" id="Layer_1" xmlns="http://www.w3.org/2000/svg" xmlns:xlink="http://www.w3.org/1999/xlink" x="0px" y="0px"
	 viewBox="0 0 97 97" style="enable-background:new 0 0 97 97;" xml:space="preserve">
<style type="text/css">
	.st0{fill:#D9272E;}
	.st1{fill:#FFFFFF;}
</style>
<g id="Yelp" transform="translate(252.000000, 0.000000)">
	<g id="yelp">
		<g id="Layer_1_5_">
			<circle id="XMLID_4_" class="st0" cx="-203.5" cy="48.5" r="48.5"/>
			<g id="XMLID_29_" transform="translate(31.445312, 64.453125)">
				<path id="XMLID_53_" class="st1" d="M-228-20.9L-228-20.9L-228-20.9L-228-20.9z M-202.9-15c-0.4-0.3-0.5-0.4-3.1-1.2
					c2.2-0.5,2.3-0.6,2.7-0.9c0.9-0.6,1.4-1.6,1.3-2.7v-0.1c-0.2-1.7-2.4-5-3.9-5.8c-1-0.5-2.1-0.4-3,0.2c-0.4,0.3-0.5,0.3-2.1,2.6
					c-0.1-2.7-0.5-7.4-0.6-7.9v-0.1l0-0.1c-0.3-1-1.1-1.8-2.2-2.1c-1.8-0.4-6.5,0.9-7.9,2.2c-0.7,0.8-1,1.8-0.8,2.8l0,0.2l0.1,0.2
					c0.1,0.2,0.4,0.8,3.2,5.1l1,1.6c-2.5-1-2.6-1-3.1-1c-1,0-1.9,0.5-2.5,1.4l0,0c-0.3,0.5-0.5,1.2-0.6,1.8c-0.8-1.1-2-1.9-3.8-2.3
					c-1.3-0.2-2.5-0.1-3.6,0.3c-1-0.7-2.5-0.7-3.7,0c-0.4,0.2-0.6,0.5-0.9,0.7v-1.5l-0.1-0.9l0-0.1c-0.2-1-1-1.7-1.9-2.1l0,0
					c-1.1-0.5-2.3-0.4-3.2,0.1c-1.1,0.6-1.6,1.7-1.6,3.1v3c-0.4-0.6-0.9-1.1-1.4-1.5c-1.5-1.1-3.5-1.5-5.8-1.1
					c-1.4,0.2-2.5,0.8-3.3,1.6c0,0,0,0,0-0.1c-0.4-0.8-1.2-1.4-2.1-1.6c-1.6-0.4-3.5,0.1-4.4,2.9c0,0-0.1,0.4-0.3,1.1
					c-0.3-0.6-1.3-2.4-1.3-2.5c-0.8-1.3-2.5-1.8-4-1.2c-1.5,0.5-2.3,1.8-2.3,3.3c0,0.5,0.1,1,0.2,1.5l0,0.1c0,0,3,6.1,3.8,7.8
					c-1.4,0.3-2.4,1.4-2.5,2.8c0,0.1,0,0.2,0,0.4c0,0.9,0.4,1.7,1.1,2.4c1,1,2.7,1.3,4.6,0.9c2-0.4,3.2-1.6,4.1-4.3l1.3-4
					c0.4,1.6,1.2,2.8,1.8,3.4c1,1,2.9,2.1,6,1.7c2.3-0.3,3.9-1.4,4.8-2.6l0,0.3c0.2,0.9,0.9,1.6,1.8,2c0.9,0.4,2,0.4,3,0
					c0.5-0.2,0.9-0.6,1.3-1v1.3c0,2.1,1.2,3,1.9,3.3c0.9,0.5,2,0.5,3,0.1c0.9-0.4,1.6-1.2,1.8-2.1l0-0.1l0.1-0.9v-0.4
					c1.3,0.1,2.5-0.1,3.7-0.7c0.5-0.2,1-0.6,1.4-0.9h0.8c0.4,0.2,1,0.4,1.6,0.4s1.1-0.1,1.6-0.4h2.4c1.6,0.9,4,1.6,5.2,1.4
					c1.1-0.2,1.9-0.9,2.3-1.9v0c0.1-0.4,0.2-0.5,0.2-3.1c1.4,2.2,1.5,2.3,1.8,2.6c0.8,0.6,1.9,0.8,3,0.4c1.6-0.6,4.1-3.8,4.4-5.5
					c0-0.1,0-0.3,0-0.4C-201.7-13.6-202.1-14.5-202.9-15z"/>
				<g id="XMLID_46_" transform="translate(94.531250, 4.492188)">
					<g id="XMLID_47_">
						<path id="XMLID_24_" class="st0" d="M-316.4-23.8c-0.4,0.6-0.6,2.6-0.4,3.9c0,0.4,0.1,0.8,0.2,1c0.1,0.3,0.4,0.5,0.7,0.5
							c0.2,0,0.3,0,3.9-1.2l1.6-0.5c0.4-0.1,0.7-0.5,0.7-1c0-0.5-0.2-0.9-0.6-1.1l-1.1-0.5c-3.9-1.6-4.1-1.7-4.3-1.7
							C-315.9-24.3-316.2-24.1-316.4-23.8z"/>
						<path id="XMLID_23_" class="st0" d="M-307.7-11.8c0-0.2,0.1-0.3,0.1-4.1v-1.7c0-0.4-0.2-0.8-0.7-1c-0.4-0.2-0.9,0-1.2,0.3
							l-0.8,1c-2.7,3.2-2.9,3.3-2.9,3.5c0,0.1,0,0.2,0,0.3c0,0.2,0.1,0.3,0.2,0.5c0.6,0.8,3.7,1.9,4.7,1.7
							C-308-11.4-307.8-11.5-307.7-11.8z"/>
						<path id="XMLID_22_" class="st0" d="M-301.5-13.1c0.9-0.3,2.9-2.9,3.1-3.9c0-0.3,0-0.6-0.3-0.8c-0.1-0.1-0.3-0.1-3.9-1.4
							l-1.6-0.5c-0.4-0.1-0.8,0-1.1,0.3c-0.3,0.4-0.3,0.9-0.1,1.3l0.6,1c2.2,3.5,2.3,3.7,2.5,3.9C-302.1-13.1-301.8-13.1-301.5-13.1
							L-301.5-13.1z"/>
						<path id="XMLID_21_" class="st0" d="M-303.3-22.2c4.1-1,4.3-1.1,4.5-1.2c0.2-0.2,0.4-0.4,0.3-0.8v0c-0.1-1-1.9-3.6-2.8-4.1
							c-0.3-0.1-0.6-0.1-0.9,0c-0.1,0.1-0.3,0.2-2.5,3.3l-1,1.4c-0.2,0.3-0.2,0.8,0,1.2c0.2,0.4,0.7,0.6,1.1,0.5v0
							C-304.4-21.9-304-22-303.3-22.2z"/>
						<path id="XMLID_20_" class="st0" d="M-307.5-25.6L-307.5-25.6c-0.1-1.6-0.6-8.9-0.6-9.3c-0.1-0.3-0.3-0.5-0.7-0.6
							c-1.1-0.2-5.1,0.9-5.8,1.6c-0.2,0.3-0.3,0.6-0.2,0.9c0.1,0.2,5.1,8.1,5.1,8.1c0.7,1.2,1.4,1,1.6,1
							C-308-24-307.4-24.2-307.5-25.6z"/>
					</g>
				</g>
				<g id="XMLID_36_" transform="translate(4.296875, 21.484375)">
					<g id="XMLID_37_">
						<path id="XMLID_18_" class="st0" d="M-268.4-25.3c0.5,0.5,1.5,0.6,2.7,0.4c1.1-0.2,1.8-0.7,2.5-2.9l3.3-10.5
							c0.2-0.6,0.1-1,0-1.4c-0.1-0.3-0.4-0.5-0.8-0.6c-0.6-0.1-1.4-0.1-1.8,1.5l-1.7,5.9c0,0-3.5-6.7-3.6-6.7
							c-0.2-0.4-0.9-0.8-1.6-0.5c-0.8,0.3-1.2,1.1-0.8,2.1c0,0,4.3,8.8,4.4,8.8c0,0,0.1,0.3,0.1,0.3l0,0.2c0,0.3-0.1,0.6-0.3,0.8
							c-0.2,0.2-0.5,0.3-0.8,0.3c0,0-0.7,0-0.7,0c-0.7,0.1-1.1,0.5-1.2,1.1C-268.8-25.9-268.7-25.6-268.4-25.3z"/>
						<path id="XMLID_42_" class="st0" d="M-248.4-36.1c-0.1-1.5-0.7-2.7-1.7-3.4c-1-0.8-2.5-1-4.2-0.7c-2.1,0.4-3.4,1.9-3.7,4.4
							c-0.3,3,0.1,5.3,1.5,6.6c1,1,2.4,1.4,4.2,1.1c2.5-0.3,3.7-1.7,3.7-2.6c0-0.6-0.4-1.2-1-1.2c-0.3,0-0.6,0-1.2,0.5
							c-0.9,0.8-1.9,1.1-2.8,0.9c-0.7-0.2-1.2-0.6-1.5-1.3c0,0-0.1-0.4-0.1-0.4c-0.1-0.4-0.1-0.8,0.1-0.9l0,0h5.5
							c0.5,0,0.8,0,0.9-0.2C-248.3-33.7-248.3-34.7-248.4-36.1z M-251.3-35.2h-4.7c-0.1-0.1-0.2-0.2-0.1-0.7c0-0.2,0.1-0.5,0.3-0.8
							c0-0.1,0.1-0.2,0.2-0.3c0.3-0.4,0.8-0.7,1.3-0.8c1.6-0.4,2.8,0.4,3,1.8C-251.2-35.4-251.2-35.2-251.3-35.2z"/>
						<path id="XMLID_14_" class="st0" d="M-243.4-44.1c-0.4-0.2-0.9-0.1-1.4,0.1c-0.4,0.2-0.6,0.6-0.6,1.3v13.2l0.1,0.5
							c0.1,0.3,0.3,0.6,0.7,0.8c0.4,0.2,0.8,0.2,1.2,0c0.5-0.2,0.8-0.7,0.8-1.3v-13.3l-0.1-0.6C-242.8-43.7-243.1-43.9-243.4-44.1z"
							/>
						<path id="XMLID_38_" class="st0" d="M-232.8-40.3c-1.2-0.2-2.3,0-3.3,0.6c0,0-0.1,0.1-0.1,0.1l-0.1,0l-0.2,0.1l-0.1-0.3l0-0.1
							v0l0,0c0,0,0-0.1-0.1-0.1c-0.3-0.4-1.1-0.7-1.8-0.2c-0.3,0.2-0.5,0.5-0.5,1.3v13c0,0.7,0.2,1.2,0.7,1.4c0.4,0.2,0.9,0.2,1.3,0
							c0.3-0.1,0.6-0.4,0.7-0.7l0.1-0.6V-28v-0.3v-0.1v0l0.1-0.4l0.4,0.3c0,0,0.1,0,0.1,0.1l0.1,0.1l0.1,0.1l0.1,0
							c1.1,0.5,2.6,0.4,3.7-0.1c1.5-0.8,2.2-2.1,2.4-4.5C-228.9-37.6-229.9-39.8-232.8-40.3z M-232.9-30.6c-1.8,0-2.1-1.6-2.2-2.9
							l0-0.7c0,0,0-0.5,0-0.6c0.1-2.1,0.6-3,1.7-3.2c0.8-0.2,1.4-0.1,1.7,0.2c0.6,0.5,0.9,1.6,0.9,3.5
							C-230.7-32-231.1-30.6-232.9-30.6z"/>
					</g>
				</g>
				<g id="XMLID_30_" transform="translate(92.382812, 50.195312)">
					<path id="XMLID_31_" class="st0" d="M-315-59c0.4,0,0.8,0.3,0.8,0.8s-0.3,0.8-0.8,0.8s-0.8-0.3-0.8-0.8
						C-315.7-58.7-315.4-59-315-59z M-315-57.6c0.4,0,0.7-0.3,0.7-0.6s-0.3-0.7-0.7-0.7s-0.6,0.3-0.6,0.7
						C-315.6-57.9-315.3-57.6-315-57.6z M-315.2-58.7h0.3c0.2,0,0.3,0.1,0.3,0.2s-0.1,0.2-0.2,0.2l0.2,0.4h-0.1l-0.2-0.4h-0.1v0.4
						h-0.1L-315.2-58.7L-315.2-58.7z M-315.1-58.3h0.1c0.1,0,0.2,0,0.2-0.1s-0.1-0.1-0.2-0.1h-0.2V-58.3z"/>
				</g>
			</g>
		</g>
	</g>
</g>
</svg>
