<?xml version="1.0" encoding="utf-8"?>
<!-- Generator: Adobe Illustrator 23.0.3, SVG Export Plug-In . SVG Version: 6.00 Build 0)  -->
<svg version="1.1" id="Layer_1" xmlns="http://www.w3.org/2000/svg" xmlns:xlink="http://www.w3.org/1999/xlink" x="0px" y="0px"
	 viewBox="0 0 604.4 354.4" style="enable-background:new 0 0 604.4 354.4;" xml:space="preserve">
<style type="text/css">
	.st0{fill:url(#SVGID_1_);}
	.st1{fill:#FFFFFF;}
</style>
<linearGradient id="SVGID_1_" gradientUnits="userSpaceOnUse" x1="-6003.7563" y1="177.2661" x2="-5416.8281" y2="177.2661" gradientTransform="matrix(-1 0 0 1 -5408.0703 0)">
	<stop  offset="0" style="stop-color:#5264AC"/>
	<stop  offset="1" style="stop-color:#4E64AE"/>
</linearGradient>
<path class="st0" d="M28.8,9.9h546.9c11,0,20,9,20,20v238.7c0,11-9,20-20,20h-55.1l-37.9,55.9l-1.6-55.9H28.8c-11,0-20-9-20-20V29.9
	C8.8,18.9,17.8,9.9,28.8,9.9z"/>
<g>
	<path class="st1" d="M39.8,48.2h5v29.4h-5V48.2z"/>
	<path class="st1" d="M81.9,77.5h-4.3v-3c-1.8,2.2-4.3,3.3-7.4,3.3c-2.3,0-4.2-0.7-5.8-2c-1.5-1.3-2.3-3.1-2.3-5.3
		c0-2.2,0.8-3.8,2.4-4.9c1.6-1.1,3.8-1.6,6.6-1.6h6.1v-0.8c0-3-1.7-4.5-5-4.5c-2.1,0-4.2,0.8-6.5,2.3l-2.1-2.9
		c2.7-2.2,5.8-3.2,9.2-3.2c2.6,0,4.8,0.7,6.4,2c1.7,1.3,2.5,3.4,2.5,6.3V77.5z M77.1,69.2v-1.9h-5.3c-3.4,0-5.1,1.1-5.1,3.2
		c0,1.1,0.4,1.9,1.3,2.5c0.8,0.6,2,0.9,3.5,0.9c1.5,0,2.8-0.4,3.9-1.3C76.6,71.8,77.1,70.6,77.1,69.2z"/>
	<path class="st1" d="M93.1,65.4v12.1h-4.7V55.2h4.7v4.1c0.7-1.4,1.7-2.4,3-3.2c1.4-0.8,2.8-1.2,4.4-1.2c3.5,0,5.9,1.5,7.2,4.4
		c2.2-2.9,5-4.4,8.3-4.4c2.5,0,4.6,0.8,6.1,2.3c1.6,1.5,2.3,3.8,2.3,6.7v13.7h-4.7V65.2c0-4.1-1.7-6.2-5.1-6.2c-1.6,0-3,0.5-4.2,1.5
		c-1.2,1-1.8,2.5-1.9,4.5v12.4h-4.7V65.2c0-2.1-0.4-3.7-1.1-4.7c-0.8-1-1.9-1.5-3.6-1.5c-1.6,0-3,0.5-4.2,1.6
		C93.7,61.8,93.1,63.3,93.1,65.4z"/>
	<path class="st1" d="M152.4,77.8c-3.1,0-5.8-1.1-8-3.2c-2.2-2.1-3.4-4.9-3.4-8.3c0-3.4,1.2-6.2,3.5-8.3c2.3-2.1,5.2-3.2,8.5-3.2
		c3.4,0,6.2,1.2,8.5,3.5l-2.8,3.4c-1.9-1.7-3.9-2.5-5.8-2.5c-2,0-3.7,0.7-5.1,2c-1.4,1.3-2.2,3-2.2,5c0,2.1,0.7,3.8,2.1,5.2
		c1.4,1.4,3.2,2.1,5.3,2.1s4.1-1,5.9-2.9l2.8,3C159.1,76.5,156,77.8,152.4,77.8z"/>
	<path class="st1" d="M184.9,74.5c-2.2,2.2-5,3.3-8.4,3.3s-6.2-1.1-8.4-3.3c-2.2-2.2-3.4-4.9-3.4-8.2c0-3.2,1.1-5.9,3.4-8.2
		c2.2-2.2,5-3.3,8.4-3.3s6.2,1.1,8.4,3.3c2.2,2.2,3.4,4.9,3.4,8.2C188.3,69.6,187.2,72.3,184.9,74.5z M171.5,71.6c1.3,1.4,3,2,5.1,2
		c2,0,3.7-0.7,5.1-2c1.3-1.4,2-3.1,2-5.3c0-2.2-0.7-3.9-2-5.3c-1.3-1.4-3-2-5.1-2c-2,0-3.7,0.7-5.1,2c-1.3,1.4-2,3.1-2,5.3
		C169.5,68.5,170.1,70.3,171.5,71.6z"/>
	<path class="st1" d="M199.2,77.5l-9-22.3h4.9l6.8,16.9l6.8-16.9h4.9l-9,22.3H199.2z"/>
	<path class="st1" d="M238,68.4h-17.5c0.1,1.6,0.9,2.9,2.2,3.9c1.4,1,2.9,1.5,4.7,1.5c2.8,0,4.9-0.9,6.4-2.6l2.7,2.9
		c-2.4,2.5-5.5,3.7-9.4,3.7c-3.1,0-5.8-1-8-3.1c-2.2-2.1-3.3-4.9-3.3-8.4c0-3.5,1.1-6.3,3.4-8.4c2.2-2.1,4.9-3.1,7.9-3.1
		c3,0,5.6,0.9,7.7,2.8c2.1,1.8,3.2,4.4,3.2,7.6V68.4z M220.5,64.7h12.8c0-1.9-0.6-3.3-1.8-4.3c-1.2-1-2.6-1.5-4.3-1.5
		s-3.3,0.5-4.6,1.6C221.2,61.5,220.5,62.9,220.5,64.7z"/>
	<path class="st1" d="M254.9,59.6c-2.3,0-4.1,0.8-5.2,2.3c-1.2,1.5-1.8,3.5-1.8,6.1v9.6h-4.7V55.2h4.7v4.5c0.8-1.4,1.8-2.5,3.1-3.4
		c1.3-0.9,2.7-1.4,4.1-1.4l0,4.7C255.1,59.6,255,59.6,254.9,59.6z"/>
	<path class="st1" d="M280.7,68.4h-17.5c0.1,1.6,0.9,2.9,2.2,3.9c1.4,1,2.9,1.5,4.7,1.5c2.8,0,4.9-0.9,6.4-2.6l2.7,2.9
		c-2.4,2.5-5.5,3.7-9.4,3.7c-3.1,0-5.8-1-8-3.1c-2.2-2.1-3.3-4.9-3.3-8.4c0-3.5,1.1-6.3,3.4-8.4c2.2-2.1,4.9-3.1,7.9-3.1
		c3,0,5.6,0.9,7.7,2.8c2.1,1.8,3.2,4.4,3.2,7.6V68.4z M263.2,64.7H276c0-1.9-0.6-3.3-1.8-4.3c-1.2-1-2.6-1.5-4.3-1.5
		s-3.3,0.5-4.6,1.6C263.8,61.5,263.2,62.9,263.2,64.7z"/>
	<path class="st1" d="M287.6,74.7c-2.1-2.1-3.1-4.9-3.1-8.4c0-3.5,1.1-6.2,3.2-8.3c2.2-2.1,4.7-3.1,7.7-3.1s5.4,1.3,7.2,3.8V46.3
		h4.7v31.2h-4.7v-3.4c-1.7,2.5-4.3,3.7-7.6,3.7C292.1,77.8,289.7,76.8,287.6,74.7z M289.1,66.4c0,2.1,0.7,3.9,2.1,5.2
		c1.4,1.3,3,2,4.8,2s3.4-0.7,4.7-2c1.3-1.4,1.9-3.1,1.9-5.2c0-2.1-0.6-3.9-1.9-5.3c-1.3-1.4-2.9-2.1-4.7-2.1c-1.9,0-3.5,0.7-4.8,2.1
		C289.8,62.5,289.1,64.3,289.1,66.4z"/>
	<path class="st1" d="M331.4,58.9v11.3c0,1.1,0.3,1.9,0.8,2.5c0.6,0.6,1.3,0.9,2.4,0.9s2-0.5,2.9-1.5l1.9,3.3
		c-1.7,1.5-3.5,2.2-5.5,2.2s-3.7-0.7-5.1-2.1c-1.4-1.4-2.1-3.3-2.1-5.6V58.9h-2.8v-3.8h2.8v-7h4.7v7h5.9v3.8H331.4z"/>
	<path class="st1" d="M347.8,65.4v12.1h-4.7V46.4h4.7v12.9c0.7-1.4,1.7-2.4,3-3.2c1.4-0.8,2.8-1.2,4.4-1.2c2.5,0,4.6,0.8,6.1,2.3
		c1.6,1.5,2.3,3.8,2.3,6.7v13.7H359V65.2c0-4.1-1.7-6.2-5.1-6.2c-1.6,0-3,0.5-4.2,1.6C348.4,61.8,347.8,63.3,347.8,65.4z"/>
	<path class="st1" d="M382,59.6c-2.3,0-4.1,0.8-5.2,2.3s-1.8,3.5-1.8,6.1v9.6h-4.7V55.2h4.7v4.5c0.8-1.4,1.8-2.5,3.1-3.4
		c1.3-0.9,2.7-1.4,4.1-1.4l0,4.7C382.1,59.6,382.1,59.6,382,59.6z"/>
	<path class="st1" d="M405.2,74.5c-2.2,2.2-5,3.3-8.4,3.3c-3.4,0-6.2-1.1-8.4-3.3s-3.4-4.9-3.4-8.2c0-3.2,1.1-5.9,3.4-8.2
		c2.2-2.2,5-3.3,8.4-3.3c3.4,0,6.2,1.1,8.4,3.3c2.2,2.2,3.4,4.9,3.4,8.2C408.6,69.6,407.4,72.3,405.2,74.5z M391.7,71.6
		c1.3,1.4,3,2,5.1,2c2,0,3.7-0.7,5.1-2c1.3-1.4,2-3.1,2-5.3c0-2.2-0.7-3.9-2-5.3c-1.3-1.4-3-2-5.1-2c-2,0-3.7,0.7-5.1,2
		c-1.3,1.4-2,3.1-2,5.3C389.7,68.5,390.4,70.3,391.7,71.6z"/>
	<path class="st1" d="M429.5,67.3V55.2h4.7v22.3h-4.7v-4.1c-0.8,1.4-1.8,2.5-3.1,3.2c-1.3,0.8-2.8,1.2-4.3,1.2
		c-2.5,0-4.6-0.8-6.1-2.3c-1.6-1.5-2.3-3.8-2.3-6.7V55.2h4.7v12.3c0,4.1,1.7,6.2,5.1,6.2c1.6,0,3-0.5,4.2-1.6
		C428.9,70.9,429.5,69.3,429.5,67.3z"/>
	<path class="st1" d="M461.7,55.2v19.5c0,3.9-1.1,6.9-3.2,8.9c-2.1,2-4.9,3-8.3,3c-3.4,0-6.4-1-9.1-3.1l2.2-3.6
		c2.2,1.7,4.4,2.5,6.6,2.5s4-0.6,5.3-1.7c1.3-1.1,2-3,2-5.5v-2.9c-0.7,1.3-1.7,2.4-3,3.1c-1.3,0.8-2.8,1.2-4.4,1.2
		c-3,0-5.4-1-7.3-3.1c-1.9-2.1-2.9-4.6-2.9-7.7c0-3.1,1-5.7,2.9-7.7c1.9-2.1,4.3-3.1,7.3-3.1c3,0,5.4,1.2,7.2,3.7v-3.3H461.7z
		 M444.3,65.5c0,1.8,0.6,3.4,1.7,4.7c1.1,1.3,2.7,2,4.6,2s3.5-0.6,4.7-1.9c1.2-1.3,1.8-2.9,1.8-4.8c0-1.9-0.6-3.5-1.8-4.9
		c-1.2-1.3-2.8-2-4.7-2s-3.4,0.7-4.6,2.1C444.8,62,444.3,63.6,444.3,65.5z"/>
	<path class="st1" d="M473.2,65.4v12.1h-4.7V46.4h4.7v12.9c0.7-1.4,1.7-2.4,3-3.2c1.4-0.8,2.8-1.2,4.4-1.2c2.5,0,4.6,0.8,6.1,2.3
		c1.6,1.5,2.3,3.8,2.3,6.7v13.7h-4.7V65.2c0-4.1-1.7-6.2-5.1-6.2c-1.6,0-3,0.5-4.2,1.6C473.8,61.8,473.2,63.3,473.2,65.4z"/>
	<path class="st1" d="M44,121.2l-2.9,6.7h-5.3l12.9-29.4H54l12.9,29.4h-5.3l-2.9-6.7H44z M56.7,116.7l-5.3-12.1L46,116.7H56.7z"/>
	<path class="st1" d="M78.9,128.2c-2.7,0-5.1-0.8-7-2.3c-1.9-1.5-2.9-3.6-2.9-6.3c0-3.2,2.3-6,6.9-8.4c-1.1-1.3-2-2.4-2.4-3.2
		c-0.5-0.8-0.7-1.9-0.7-3.2c0-2.2,0.8-4,2.5-5.2c1.7-1.2,3.6-1.8,5.8-1.8c2.2,0,4.1,0.6,5.7,1.7c1.6,1.1,2.4,2.8,2.4,4.8
		c0,2.8-2.2,5.4-6.7,7.9c2.2,2.7,4.1,4.8,5.5,6.3c0.9-1.3,1.5-2.8,2-4.5l3.4,2.4c-0.7,1.9-1.6,3.6-2.5,5.1c1.1,1.1,2.5,2.5,4.3,4.2
		l-3.1,2.9l-3.9-3.8C85.6,127.1,82.6,128.2,78.9,128.2z M75.2,123c1.1,0.8,2.5,1.2,4.2,1.2c1.8,0,3.6-0.8,5.6-2.4
		c-2.8-3-5.1-5.5-6.7-7.5c-3.2,1.7-4.7,3.6-4.7,5.6C73.6,121.1,74.2,122.2,75.2,123z M81,101.6c-0.9,0-1.8,0.3-2.5,0.9
		c-0.7,0.6-1.1,1.3-1.1,2.1c0,0.8,0.2,1.5,0.6,2.1s1,1.5,2,2.6c3.2-1.6,4.7-3,4.7-4.4c0-1.1-0.4-2-1.1-2.5
		C82.8,101.8,82,101.6,81,101.6z"/>
	<path class="st1" d="M113,127.9h-12.9V98.6h11.4c2,0,3.7,0.2,5.1,0.7c1.4,0.5,2.5,1.1,3.2,1.9c1.3,1.5,2,3.2,2,5.1
		c0,2.3-0.7,4-2.2,5.1c-0.5,0.4-0.9,0.6-1.1,0.7c-0.2,0.1-0.5,0.3-1.1,0.5c1.8,0.4,3.3,1.2,4.3,2.5c1.1,1.2,1.6,2.8,1.6,4.6
		c0,2-0.7,3.9-2.1,5.4C119.8,127,117,127.9,113,127.9z M105.1,110.7h6.3c3.6,0,5.4-1.2,5.4-3.7c0-1.4-0.4-2.4-1.3-3
		c-0.9-0.6-2.2-0.9-4-0.9h-6.3V110.7z M105.1,123.3h7.8c1.8,0,3.2-0.3,4.2-0.9c1-0.6,1.4-1.7,1.4-3.3c0-2.6-2.1-3.9-6.3-3.9h-7.1
		V123.3z"/>
	<path class="st1" d="M141.3,98.6h5v29.4h-5V98.6z"/>
	<path class="st1" d="M158.2,115.8v12.1h-4.7v-22.3h4.7v4.1c0.8-1.4,1.8-2.4,3.1-3.2c1.3-0.8,2.8-1.2,4.3-1.2c2.5,0,4.6,0.8,6.1,2.3
		c1.6,1.5,2.3,3.8,2.3,6.7v13.7h-4.7v-12.3c0-4.1-1.7-6.2-5.1-6.2c-1.6,0-3,0.5-4.2,1.6C158.8,112.2,158.2,113.7,158.2,115.8z"/>
	<path class="st1" d="M196.6,121.2c0,2.1-0.8,3.8-2.3,5.1c-1.5,1.3-3.5,1.9-5.9,1.9c-1.6,0-3.3-0.3-5.1-0.9
		c-1.8-0.6-3.3-1.4-4.6-2.5l2.3-3.7c2.6,2,5.1,2.9,7.6,2.9c1.1,0,1.9-0.2,2.5-0.7c0.6-0.5,0.9-1.1,0.9-1.9c0-1.1-1.5-2.1-4.5-3
		c-0.2-0.1-0.4-0.1-0.5-0.2c-4.6-1.3-7-3.4-7-6.3c0-2.1,0.8-3.7,2.4-5c1.6-1.2,3.7-1.9,6.3-1.9s5,0.8,7.3,2.3l-1.8,3.5
		c-1.8-1.2-3.8-1.8-5.9-1.8c-1.1,0-2,0.2-2.7,0.6c-0.7,0.4-1,1-1,1.8c0,0.7,0.4,1.3,1.1,1.6c0.5,0.3,1.2,0.5,2.1,0.7
		c0.9,0.2,1.7,0.4,2.4,0.7c0.7,0.2,1.4,0.5,2,0.8c0.7,0.3,1.4,0.7,2.1,1.2C195.8,117.5,196.6,119.1,196.6,121.2z"/>
	<path class="st1" d="M217.5,117.7v-12.1h4.7v22.3h-4.7v-4.1c-0.8,1.4-1.8,2.5-3.1,3.2c-1.3,0.8-2.8,1.2-4.3,1.2
		c-2.5,0-4.6-0.8-6.1-2.3c-1.6-1.5-2.3-3.8-2.3-6.7v-13.7h4.7v12.3c0,4.1,1.7,6.2,5.1,6.2c1.6,0,3-0.5,4.2-1.6
		C216.9,121.3,217.5,119.7,217.5,117.7z"/>
	<path class="st1" d="M240.7,110c-2.3,0-4.1,0.8-5.2,2.3c-1.2,1.5-1.8,3.5-1.8,6.1v9.6H229v-22.3h4.7v4.5c0.8-1.4,1.8-2.5,3.1-3.4
		c1.3-0.9,2.7-1.4,4.1-1.4l0,4.7C240.9,110,240.8,110,240.7,110z"/>
	<path class="st1" d="M263.6,127.9h-4.3v-3c-1.8,2.2-4.3,3.3-7.4,3.3c-2.3,0-4.2-0.7-5.8-2c-1.5-1.3-2.3-3.1-2.3-5.3
		c0-2.2,0.8-3.8,2.4-4.9c1.6-1.1,3.8-1.6,6.6-1.6h6.1v-0.8c0-3-1.7-4.5-5-4.5c-2.1,0-4.2,0.8-6.5,2.3l-2.1-2.9
		c2.7-2.2,5.8-3.2,9.2-3.2c2.6,0,4.8,0.7,6.4,2c1.7,1.3,2.5,3.4,2.5,6.3V127.9z M258.9,119.6v-1.9h-5.3c-3.4,0-5.1,1.1-5.1,3.2
		c0,1.1,0.4,1.9,1.3,2.5c0.8,0.6,2,0.9,3.5,0.9c1.5,0,2.8-0.4,3.9-1.3C258.3,122.2,258.9,121,258.9,119.6z"/>
	<path class="st1" d="M274.8,115.8v12.1h-4.7v-22.3h4.7v4.1c0.8-1.4,1.8-2.4,3.1-3.2c1.3-0.8,2.8-1.2,4.3-1.2c2.5,0,4.6,0.8,6.1,2.3
		c1.6,1.5,2.3,3.8,2.3,6.7v13.7H286v-12.3c0-4.1-1.7-6.2-5.1-6.2c-1.6,0-3,0.5-4.2,1.6C275.4,112.2,274.8,113.7,274.8,115.8z"/>
	<path class="st1" d="M307.2,128.2c-3.1,0-5.8-1.1-8-3.2c-2.2-2.1-3.4-4.9-3.4-8.3c0-3.4,1.2-6.2,3.5-8.3c2.3-2.1,5.2-3.2,8.5-3.2
		c3.4,0,6.2,1.2,8.5,3.5l-2.8,3.4c-1.9-1.7-3.9-2.5-5.8-2.5c-2,0-3.7,0.7-5.1,2c-1.4,1.3-2.2,3-2.2,5c0,2.1,0.7,3.8,2.1,5.2
		c1.4,1.4,3.2,2.1,5.3,2.1s4.1-1,5.9-2.9l2.8,3C313.9,126.9,310.7,128.2,307.2,128.2z"/>
	<path class="st1" d="M342.2,118.8h-17.5c0.1,1.6,0.9,2.9,2.2,3.9c1.4,1,2.9,1.5,4.7,1.5c2.8,0,4.9-0.9,6.4-2.6l2.7,2.9
		c-2.4,2.5-5.5,3.7-9.4,3.7c-3.1,0-5.8-1-8-3.1c-2.2-2.1-3.3-4.9-3.3-8.4c0-3.5,1.1-6.3,3.4-8.4c2.2-2.1,4.9-3.1,7.9-3.1
		c3,0,5.6,0.9,7.7,2.8c2.1,1.8,3.2,4.4,3.2,7.6V118.8z M324.7,115.1h12.8c0-1.9-0.6-3.3-1.8-4.3c-1.2-1-2.6-1.5-4.3-1.5
		s-3.3,0.5-4.6,1.6C325.4,111.9,324.7,113.3,324.7,115.1z"/>
	<path class="st1" d="M347.7,127.3c-0.6-0.6-0.9-1.4-0.9-2.2c0-0.9,0.3-1.6,0.9-2.2c0.6-0.6,1.3-0.9,2.2-0.9s1.6,0.3,2.2,0.9
		c0.6,0.6,0.9,1.3,0.9,2.2c0,0.9-0.3,1.6-0.9,2.2c-0.6,0.6-1.4,0.9-2.2,0.9S348.3,127.9,347.7,127.3z"/>
</g>
</svg>
