<?xml version="1.0" encoding="utf-8"?>
<!-- Generator: Adobe Illustrator 23.0.3, SVG Export Plug-In . SVG Version: 6.00 Build 0)  -->
<svg version="1.1" id="Layer_1" xmlns="http://www.w3.org/2000/svg" xmlns:xlink="http://www.w3.org/1999/xlink" x="0px" y="0px"
	 viewBox="0 0 604.4 354.4" style="enable-background:new 0 0 604.4 354.4;" xml:space="preserve">
<style type="text/css">
	.st0{fill:url(#SVGID_1_);}
	.st1{fill:#FFFFFF;}
</style>
<linearGradient id="SVGID_1_" gradientUnits="userSpaceOnUse" x1="9.1789" y1="177.2661" x2="596.107" y2="177.2661">
	<stop  offset="1.983173e-03" style="stop-color:#EF486C"/>
	<stop  offset="1" style="stop-color:#E04D72"/>
</linearGradient>
<path class="st0" d="M576.1,9.9H29.2c-11,0-20,9-20,20v238.7c0,11,9,20,20,20h55.1l37.9,55.9l1.6-55.9h452.3c11,0,20-9,20-20V29.9
	C596.1,18.9,587.1,9.9,576.1,9.9z"/>
<g>
	<path class="st1" d="M51.8,77.5h-5V65.9L35.8,48.2h5.4l8,13.4l8-13.4h5.4L51.8,65.9V77.5z"/>
	<path class="st1" d="M86.6,68.4H69c0.1,1.6,0.9,2.9,2.2,3.9c1.4,1,2.9,1.5,4.7,1.5c2.8,0,4.9-0.9,6.4-2.6l2.7,2.9
		c-2.4,2.5-5.5,3.7-9.4,3.7c-3.1,0-5.8-1-8-3.1c-2.2-2.1-3.3-4.9-3.3-8.4c0-3.5,1.1-6.3,3.4-8.4c2.2-2.1,4.9-3.1,7.9-3.1
		s5.6,0.9,7.7,2.8c2.1,1.8,3.2,4.4,3.2,7.6V68.4z M69,64.7h12.8c0-1.9-0.6-3.3-1.8-4.3c-1.2-1-2.6-1.5-4.3-1.5
		c-1.7,0-3.3,0.5-4.6,1.6C69.7,61.5,69,62.9,69,64.7z"/>
	<path class="st1" d="M107.6,70.8c0,2.1-0.8,3.8-2.3,5.1c-1.5,1.3-3.5,1.9-5.9,1.9c-1.6,0-3.3-0.3-5.1-0.9c-1.8-0.6-3.3-1.4-4.6-2.5
		l2.3-3.7c2.6,2,5.1,2.9,7.6,2.9c1.1,0,1.9-0.2,2.5-0.7c0.6-0.5,0.9-1.1,0.9-1.9c0-1.1-1.5-2.1-4.5-3C98.3,68.1,98.1,68,98,68
		c-4.6-1.3-7-3.4-7-6.3c0-2.1,0.8-3.7,2.4-5c1.6-1.2,3.7-1.9,6.3-1.9s5,0.8,7.3,2.3l-1.8,3.5c-1.8-1.2-3.8-1.8-5.9-1.8
		c-1.1,0-2,0.2-2.7,0.6c-0.7,0.4-1,1-1,1.8c0,0.7,0.4,1.3,1.1,1.6c0.5,0.3,1.2,0.5,2.1,0.7c0.9,0.2,1.7,0.4,2.4,0.7
		c0.7,0.2,1.4,0.5,2,0.8c0.7,0.3,1.4,0.7,2.1,1.2C106.9,67.1,107.6,68.7,107.6,70.8z"/>
	<path class="st1" d="M134.9,77.5h-5.4l-7.7-22.3h4.9l5.5,16.9l5.5-16.9h4.9l5.5,16.9l5.5-16.9h4.9l-7.7,22.3h-5.4l-5.3-15.3
		L134.9,77.5z"/>
	<path class="st1" d="M183.6,68.4h-17.5c0.1,1.6,0.9,2.9,2.2,3.9c1.4,1,2.9,1.5,4.7,1.5c2.8,0,4.9-0.9,6.4-2.6l2.7,2.9
		c-2.4,2.5-5.5,3.7-9.4,3.7c-3.1,0-5.8-1-8-3.1c-2.2-2.1-3.3-4.9-3.3-8.4c0-3.5,1.1-6.3,3.4-8.4c2.2-2.1,4.9-3.1,7.9-3.1
		s5.6,0.9,7.7,2.8c2.1,1.8,3.2,4.4,3.2,7.6V68.4z M166.1,64.7h12.8c0-1.9-0.6-3.3-1.8-4.3c-1.2-1-2.6-1.5-4.3-1.5
		c-1.7,0-3.3,0.5-4.6,1.6C166.7,61.5,166.1,62.9,166.1,64.7z"/>
	<path class="st1" d="M202,74.7c-2.1-2.1-3.2-4.9-3.2-8.4c0-3.5,1.1-6.2,3.2-8.3c2.2-2.1,4.7-3.1,7.7-3.1c3,0,5.4,1.3,7.2,3.8V46.3
		h4.7v31.2H217v-3.4c-1.7,2.5-4.3,3.7-7.6,3.7C206.5,77.8,204.1,76.8,202,74.7z M203.5,66.4c0,2.1,0.7,3.9,2.1,5.2
		c1.4,1.3,3,2,4.8,2c1.8,0,3.4-0.7,4.7-2c1.3-1.4,1.9-3.1,1.9-5.2c0-2.1-0.6-3.9-1.9-5.3c-1.3-1.4-2.9-2.1-4.7-2.1s-3.5,0.7-4.8,2.1
		C204.2,62.5,203.5,64.3,203.5,66.4z"/>
	<path class="st1" d="M247.2,74.5c-2.2,2.2-5,3.3-8.4,3.3c-3.4,0-6.2-1.1-8.4-3.3s-3.4-4.9-3.4-8.2c0-3.2,1.1-5.9,3.4-8.2
		c2.2-2.2,5-3.3,8.4-3.3c3.4,0,6.2,1.1,8.4,3.3c2.2,2.2,3.4,4.9,3.4,8.2C250.5,69.6,249.4,72.3,247.2,74.5z M233.7,71.6
		c1.3,1.4,3,2,5.1,2c2,0,3.7-0.7,5.1-2c1.3-1.4,2-3.1,2-5.3c0-2.2-0.7-3.9-2-5.3c-1.3-1.4-3-2-5.1-2c-2,0-3.7,0.7-5.1,2
		c-1.3,1.4-2,3.1-2,5.3C231.7,68.5,232.4,70.3,233.7,71.6z"/>
	<path class="st1" d="M256.1,76.9c-0.6-0.6-0.9-1.4-0.9-2.2c0-0.9,0.3-1.6,0.9-2.2c0.6-0.6,1.3-0.9,2.2-0.9s1.6,0.3,2.2,0.9
		c0.6,0.6,0.9,1.3,0.9,2.2c0,0.9-0.3,1.6-0.9,2.2c-0.6,0.6-1.4,0.9-2.2,0.9S256.7,77.5,256.1,76.9z"/>
	<path class="st1" d="M300.5,69.3l6.6-21.1h4.5l6.6,21.1l7.4-21.1h5.3l-10.2,29.4h-4.9l-6.2-20.1h-0.3l-6.2,20.1H298l-10.2-29.4h5.3
		L300.5,69.3z"/>
	<path class="st1" d="M351.7,74.5c-2.2,2.2-5,3.3-8.4,3.3c-3.4,0-6.2-1.1-8.4-3.3s-3.4-4.9-3.4-8.2c0-3.2,1.1-5.9,3.4-8.2
		c2.2-2.2,5-3.3,8.4-3.3c3.4,0,6.2,1.1,8.4,3.3c2.2,2.2,3.4,4.9,3.4,8.2C355.1,69.6,354,72.3,351.7,74.5z M338.3,71.6
		c1.3,1.4,3,2,5.1,2c2,0,3.7-0.7,5.1-2c1.3-1.4,2-3.1,2-5.3c0-2.2-0.7-3.9-2-5.3c-1.3-1.4-3-2-5.1-2c-2,0-3.7,0.7-5.1,2
		c-1.3,1.4-2,3.1-2,5.3C336.3,68.5,336.9,70.3,338.3,71.6z"/>
	<path class="st1" d="M376.1,67.3V55.2h4.7v22.3h-4.7v-4.1c-0.8,1.4-1.8,2.5-3.1,3.2c-1.3,0.8-2.8,1.2-4.3,1.2
		c-2.5,0-4.6-0.8-6.1-2.3c-1.6-1.5-2.3-3.8-2.3-6.7V55.2h4.7v12.3c0,4.1,1.7,6.2,5.1,6.2c1.6,0,3-0.5,4.2-1.6
		C375.5,70.9,376.1,69.3,376.1,67.3z"/>
	<path class="st1" d="M392.3,77.5h-4.7V46.3h4.7V77.5z"/>
	<path class="st1" d="M400.8,74.7c-2.1-2.1-3.2-4.9-3.2-8.4c0-3.5,1.1-6.2,3.2-8.3c2.2-2.1,4.7-3.1,7.7-3.1c3,0,5.4,1.3,7.2,3.8
		V46.3h4.7v31.2h-4.7v-3.4c-1.7,2.5-4.3,3.7-7.6,3.7C405.4,77.8,402.9,76.8,400.8,74.7z M402.3,66.4c0,2.1,0.7,3.9,2.1,5.2
		c1.4,1.3,3,2,4.8,2c1.8,0,3.4-0.7,4.7-2c1.3-1.4,1.9-3.1,1.9-5.2c0-2.1-0.6-3.9-1.9-5.3c-1.3-1.4-2.9-2.1-4.7-2.1s-3.5,0.7-4.8,2.1
		C403,62.5,402.3,64.3,402.3,66.4z"/>
	<path class="st1" d="M441.6,86.4c-2,0-3.9-0.7-5.5-2.2l2.1-3.8c1,0.9,2,1.4,3,1.4c1.1,0,1.9-0.4,2.6-1.1c0.7-0.8,1-1.6,1-2.5
		c0-0.4-3-8-9-23h5l6.7,16.5l6.7-16.5h5l-10.8,26.5c-0.6,1.5-1.6,2.6-2.8,3.4C444.4,86,443.1,86.4,441.6,86.4z"/>
	<path class="st1" d="M481.2,74.5c-2.2,2.2-5,3.3-8.4,3.3c-3.4,0-6.2-1.1-8.4-3.3s-3.4-4.9-3.4-8.2c0-3.2,1.1-5.9,3.4-8.2
		c2.2-2.2,5-3.3,8.4-3.3c3.4,0,6.2,1.1,8.4,3.3c2.2,2.2,3.4,4.9,3.4,8.2C484.6,69.6,483.5,72.3,481.2,74.5z M467.8,71.6
		c1.3,1.4,3,2,5.1,2c2,0,3.7-0.7,5.1-2c1.3-1.4,2-3.1,2-5.3c0-2.2-0.7-3.9-2-5.3c-1.3-1.4-3-2-5.1-2c-2,0-3.7,0.7-5.1,2
		c-1.3,1.4-2,3.1-2,5.3C465.8,68.5,466.4,70.3,467.8,71.6z"/>
	<path class="st1" d="M505.5,67.3V55.2h4.7v22.3h-4.7v-4.1c-0.8,1.4-1.8,2.5-3.1,3.2c-1.3,0.8-2.8,1.2-4.3,1.2
		c-2.5,0-4.6-0.8-6.1-2.3c-1.6-1.5-2.3-3.8-2.3-6.7V55.2h4.7v12.3c0,4.1,1.7,6.2,5.1,6.2c1.6,0,3-0.5,4.2-1.6
		C504.9,70.9,505.5,69.3,505.5,67.3z"/>
	<path class="st1" d="M44.3,127.9h-4.7V96.7h4.7V127.9z"/>
	<path class="st1" d="M51.4,101.1c-0.6-0.6-0.9-1.3-0.9-2.1c0-0.8,0.3-1.5,0.9-2.1s1.3-0.9,2.1-0.9s1.5,0.3,2.1,0.9s0.9,1.3,0.9,2.1
		c0,0.8-0.3,1.5-0.9,2.1s-1.3,0.9-2.1,0.9S51.9,101.7,51.4,101.1z M55.8,127.9h-4.7v-22.3h4.7V127.9z"/>
	<path class="st1" d="M67.3,127.9h-4.7V96.7h4.7v18.3l9.1-9.5h6l-8.5,8.9l9.1,13.5h-5.7l-6.6-9.8l-3.4,3.4V127.9z"/>
	<path class="st1" d="M107.8,118.8H90.3c0.1,1.6,0.9,2.9,2.2,3.9c1.4,1,2.9,1.5,4.7,1.5c2.8,0,4.9-0.9,6.4-2.6l2.7,2.9
		c-2.4,2.5-5.5,3.7-9.4,3.7c-3.1,0-5.8-1-8-3.1c-2.2-2.1-3.3-4.9-3.3-8.4c0-3.5,1.1-6.3,3.4-8.4c2.2-2.1,4.9-3.1,7.9-3.1
		s5.6,0.9,7.7,2.8c2.1,1.8,3.2,4.4,3.2,7.6V118.8z M90.3,115.1h12.8c0-1.9-0.6-3.3-1.8-4.3c-1.2-1-2.6-1.5-4.3-1.5
		c-1.7,0-3.3,0.5-4.6,1.6C90.9,111.9,90.3,113.3,90.3,115.1z"/>
	<path class="st1" d="M130.2,109.3v11.3c0,1.1,0.3,1.9,0.8,2.5c0.6,0.6,1.3,0.9,2.4,0.9s2-0.5,2.9-1.5l1.9,3.3
		c-1.7,1.5-3.5,2.2-5.5,2.2s-3.7-0.7-5.1-2.1c-1.4-1.4-2.1-3.3-2.1-5.6v-11.2h-2.8v-3.8h2.8v-7h4.7v7h5.9v3.8H130.2z"/>
	<path class="st1" d="M160.5,124.9c-2.2,2.2-5,3.3-8.4,3.3c-3.4,0-6.2-1.1-8.4-3.3s-3.4-4.9-3.4-8.2c0-3.2,1.1-5.9,3.4-8.2
		c2.2-2.2,5-3.3,8.4-3.3c3.4,0,6.2,1.1,8.4,3.3c2.2,2.2,3.4,4.9,3.4,8.2C163.9,120,162.8,122.7,160.5,124.9z M147.1,122
		c1.3,1.4,3,2,5.1,2c2,0,3.7-0.7,5.1-2c1.3-1.4,2-3.1,2-5.3c0-2.2-0.7-3.9-2-5.3c-1.3-1.4-3-2-5.1-2c-2,0-3.7,0.7-5.1,2
		c-1.3,1.4-2,3.1-2,5.3C145.1,118.9,145.7,120.7,147.1,122z"/>
	<path class="st1" d="M196.6,121.2c0,2.1-0.8,3.8-2.3,5.1c-1.5,1.3-3.5,1.9-5.9,1.9c-1.6,0-3.3-0.3-5.1-0.9s-3.3-1.4-4.6-2.5
		l2.3-3.7c2.6,2,5.1,2.9,7.6,2.9c1.1,0,1.9-0.2,2.5-0.7c0.6-0.5,0.9-1.1,0.9-1.9c0-1.1-1.5-2.1-4.5-3c-0.2-0.1-0.4-0.1-0.5-0.2
		c-4.6-1.3-7-3.4-7-6.3c0-2.1,0.8-3.7,2.4-5c1.6-1.2,3.7-1.9,6.3-1.9s5,0.8,7.3,2.3l-1.8,3.5c-1.8-1.2-3.8-1.8-5.9-1.8
		c-1.1,0-2,0.2-2.7,0.6c-0.7,0.4-1,1-1,1.8c0,0.7,0.4,1.3,1.1,1.6c0.5,0.3,1.2,0.5,2.1,0.7s1.7,0.4,2.4,0.7c0.7,0.2,1.4,0.5,2,0.8
		c0.7,0.3,1.4,0.7,2.1,1.2C195.9,117.5,196.6,119.1,196.6,121.2z"/>
	<path class="st1" d="M211.9,128.2c-3.1,0-5.8-1.1-8-3.2c-2.2-2.1-3.4-4.9-3.4-8.3c0-3.4,1.2-6.2,3.5-8.3c2.3-2.1,5.2-3.2,8.5-3.2
		c3.4,0,6.2,1.2,8.5,3.5l-2.8,3.4c-1.9-1.7-3.9-2.5-5.8-2.5s-3.7,0.7-5.1,2c-1.4,1.3-2.2,3-2.2,5c0,2.1,0.7,3.8,2.1,5.2
		c1.4,1.4,3.2,2.1,5.3,2.1s4.1-1,5.9-2.9l2.8,3C218.6,126.9,215.4,128.2,211.9,128.2z"/>
	<path class="st1" d="M230.9,115.8v12.1h-4.7V96.8h4.7v12.9c0.7-1.4,1.7-2.4,3-3.2c1.4-0.8,2.8-1.2,4.4-1.2c2.5,0,4.6,0.8,6.1,2.3
		c1.6,1.5,2.3,3.8,2.3,6.7v13.7H242v-12.3c0-4.1-1.7-6.2-5.1-6.2c-1.6,0-3,0.5-4.2,1.6C231.5,112.2,230.9,113.7,230.9,115.8z"/>
	<path class="st1" d="M274.1,118.8h-17.5c0.1,1.6,0.9,2.9,2.2,3.9c1.4,1,2.9,1.5,4.7,1.5c2.8,0,4.9-0.9,6.4-2.6l2.7,2.9
		c-2.4,2.5-5.5,3.7-9.4,3.7c-3.1,0-5.8-1-8-3.1c-2.2-2.1-3.3-4.9-3.3-8.4c0-3.5,1.1-6.3,3.4-8.4c2.2-2.1,4.9-3.1,7.9-3.1
		c3,0,5.6,0.9,7.7,2.8c2.1,1.8,3.2,4.4,3.2,7.6V118.8z M256.6,115.1h12.8c0-1.9-0.6-3.3-1.8-4.3c-1.2-1-2.6-1.5-4.3-1.5
		c-1.7,0-3.3,0.5-4.6,1.6C257.3,111.9,256.6,113.3,256.6,115.1z"/>
	<path class="st1" d="M281,125.1c-2.1-2.1-3.2-4.9-3.2-8.4c0-3.5,1.1-6.2,3.2-8.3c2.2-2.1,4.7-3.1,7.7-3.1c3,0,5.4,1.3,7.2,3.8V96.7
		h4.7v31.2H296v-3.4c-1.7,2.5-4.3,3.7-7.6,3.7C285.5,128.2,283.1,127.2,281,125.1z M282.5,116.8c0,2.1,0.7,3.9,2.1,5.2
		c1.4,1.3,3,2,4.8,2c1.8,0,3.4-0.7,4.7-2c1.3-1.4,1.9-3.1,1.9-5.2c0-2.1-0.6-3.9-1.9-5.3c-1.3-1.4-2.9-2.1-4.7-2.1s-3.5,0.7-4.8,2.1
		C283.2,112.9,282.5,114.7,282.5,116.8z"/>
	<path class="st1" d="M323.1,117.7v-12.1h4.7v22.3h-4.7v-4.1c-0.8,1.4-1.8,2.5-3.1,3.2c-1.3,0.8-2.8,1.2-4.3,1.2
		c-2.5,0-4.6-0.8-6.1-2.3c-1.6-1.5-2.3-3.8-2.3-6.7v-13.7h4.7v12.3c0,4.1,1.7,6.2,5.1,6.2c1.6,0,3-0.5,4.2-1.6
		C322.5,121.3,323.1,119.7,323.1,117.7z"/>
	<path class="st1" d="M339.3,127.9h-4.7V96.7h4.7V127.9z"/>
	<path class="st1" d="M366.9,118.8h-17.5c0.1,1.6,0.9,2.9,2.2,3.9c1.4,1,2.9,1.5,4.7,1.5c2.8,0,4.9-0.9,6.4-2.6l2.7,2.9
		c-2.4,2.5-5.5,3.7-9.4,3.7c-3.1,0-5.8-1-8-3.1c-2.2-2.1-3.3-4.9-3.3-8.4c0-3.5,1.1-6.3,3.4-8.4c2.2-2.1,4.9-3.1,7.9-3.1
		c3,0,5.6,0.9,7.7,2.8c2.1,1.8,3.2,4.4,3.2,7.6V118.8z M349.4,115.1h12.8c0-1.9-0.6-3.3-1.8-4.3c-1.2-1-2.6-1.5-4.3-1.5
		c-1.7,0-3.3,0.5-4.6,1.6C350.1,111.9,349.4,113.3,349.4,115.1z"/>
	<path class="st1" d="M401.7,127.9h-4.3v-3c-1.8,2.2-4.3,3.3-7.4,3.3c-2.3,0-4.2-0.7-5.8-2c-1.5-1.3-2.3-3.1-2.3-5.3
		c0-2.2,0.8-3.8,2.4-4.9c1.6-1.1,3.8-1.6,6.6-1.6h6.1v-0.8c0-3-1.7-4.5-5-4.5c-2.1,0-4.2,0.8-6.5,2.3l-2.1-2.9
		c2.7-2.2,5.8-3.2,9.2-3.2c2.6,0,4.8,0.7,6.4,2c1.7,1.3,2.5,3.4,2.5,6.3V127.9z M397,119.6v-1.9h-5.3c-3.4,0-5.1,1.1-5.1,3.2
		c0,1.1,0.4,1.9,1.3,2.5c0.8,0.6,2,0.9,3.5,0.9c1.5,0,2.8-0.4,3.9-1.3S397,121,397,119.6z"/>
	<path class="st1" d="M412.9,115.8v12.1h-4.7v-22.3h4.7v4.1c0.8-1.4,1.8-2.4,3.1-3.2c1.3-0.8,2.8-1.2,4.3-1.2c2.5,0,4.6,0.8,6.1,2.3
		c1.6,1.5,2.3,3.8,2.3,6.7v13.7h-4.7v-12.3c0-4.1-1.7-6.2-5.1-6.2c-1.6,0-3,0.5-4.2,1.6C413.5,112.2,412.9,113.7,412.9,115.8z"/>
	<path class="st1" d="M57.7,178.3h-4.3v-3c-1.8,2.2-4.3,3.3-7.4,3.3c-2.3,0-4.2-0.7-5.8-2c-1.5-1.3-2.3-3.1-2.3-5.3
		c0-2.2,0.8-3.8,2.4-4.9c1.6-1.1,3.8-1.6,6.6-1.6H53V164c0-3-1.7-4.5-5-4.5c-2.1,0-4.2,0.8-6.5,2.3l-2.1-2.9
		c2.7-2.2,5.8-3.2,9.2-3.2c2.6,0,4.8,0.7,6.4,2c1.7,1.3,2.5,3.4,2.5,6.3V178.3z M53,170v-1.9h-5.3c-3.4,0-5.1,1.1-5.1,3.2
		c0,1.1,0.4,1.9,1.3,2.5c0.8,0.6,2,0.9,3.5,0.9s2.8-0.4,3.9-1.3C52.4,172.6,53,171.4,53,170z"/>
	<path class="st1" d="M76.2,155.6c3,0,5.6,1,7.7,3.1c2.1,2.1,3.2,4.8,3.2,8.3c0,3.4-1.1,6.2-3.2,8.4c-2.1,2.2-4.6,3.2-7.4,3.2
		c-2.8,0-5.3-1.2-7.6-3.7v11.5h-4.7V156h4.7v3.9C70.8,157,73.2,155.6,76.2,155.6z M68.8,167.2c0,2.1,0.6,3.9,1.9,5.2
		c1.3,1.4,2.9,2,4.7,2s3.5-0.7,4.8-2c1.4-1.3,2.1-3.1,2.1-5.2s-0.7-3.9-2-5.3c-1.3-1.4-3-2.1-4.8-2.1s-3.5,0.7-4.7,2.1
		C69.5,163.3,68.8,165.1,68.8,167.2z"/>
	<path class="st1" d="M104.4,155.6c3,0,5.6,1,7.7,3.1c2.1,2.1,3.2,4.8,3.2,8.3c0,3.4-1.1,6.2-3.2,8.4c-2.1,2.2-4.6,3.2-7.4,3.2
		c-2.8,0-5.3-1.2-7.6-3.7v11.5h-4.7V156h4.7v3.9C99,157,101.4,155.6,104.4,155.6z M97.1,167.2c0,2.1,0.6,3.9,1.9,5.2
		c1.3,1.4,2.9,2,4.7,2s3.5-0.7,4.8-2c1.4-1.3,2.1-3.1,2.1-5.2s-0.7-3.9-2-5.3c-1.3-1.4-3-2.1-4.8-2.1s-3.5,0.7-4.7,2.1
		C97.7,163.3,97.1,165.1,97.1,167.2z"/>
	<path class="st1" d="M139.3,175.3c-2.2,2.2-5,3.3-8.4,3.3c-3.4,0-6.2-1.1-8.4-3.3s-3.4-4.9-3.4-8.2c0-3.2,1.1-5.9,3.4-8.2
		c2.2-2.2,5-3.3,8.4-3.3c3.4,0,6.2,1.1,8.4,3.3c2.2,2.2,3.4,4.9,3.4,8.2C142.7,170.4,141.6,173.1,139.3,175.3z M125.9,172.4
		c1.3,1.4,3,2,5.1,2c2,0,3.7-0.7,5.1-2c1.3-1.4,2-3.1,2-5.3c0-2.2-0.7-3.9-2-5.3c-1.3-1.4-3-2-5.1-2c-2,0-3.7,0.7-5.1,2
		c-1.3,1.4-2,3.1-2,5.3C123.9,169.3,124.6,171.1,125.9,172.4z"/>
	<path class="st1" d="M148.3,151.5c-0.6-0.6-0.9-1.3-0.9-2.1c0-0.8,0.3-1.5,0.9-2.1s1.3-0.9,2.1-0.9s1.5,0.3,2.1,0.9
		s0.9,1.3,0.9,2.1c0,0.8-0.3,1.5-0.9,2.1s-1.3,0.9-2.1,0.9S148.9,152.1,148.3,151.5z M152.7,178.3H148V156h4.7V178.3z"/>
	<path class="st1" d="M164.3,166.2v12.1h-4.7V156h4.7v4.1c0.8-1.4,1.8-2.4,3.1-3.2c1.3-0.8,2.8-1.2,4.3-1.2c2.5,0,4.6,0.8,6.1,2.3
		c1.6,1.5,2.3,3.8,2.3,6.7v13.7h-4.7V166c0-4.1-1.7-6.2-5.1-6.2c-1.6,0-3,0.5-4.2,1.6C164.9,162.6,164.3,164.1,164.3,166.2z"/>
	<path class="st1" d="M192.2,159.7v11.3c0,1.1,0.3,1.9,0.8,2.5c0.6,0.6,1.3,0.9,2.4,0.9c1,0,2-0.5,2.9-1.5l1.9,3.3
		c-1.7,1.5-3.5,2.2-5.5,2.2s-3.7-0.7-5.1-2.1c-1.4-1.4-2.1-3.3-2.1-5.6v-11.2h-2.8V156h2.8v-7h4.7v7h5.9v3.8H192.2z"/>
	<path class="st1" d="M208.6,166.2v12.1h-4.7V156h4.7v4.1c0.7-1.4,1.7-2.4,3-3.2c1.4-0.8,2.8-1.2,4.4-1.2c3.5,0,5.9,1.5,7.2,4.4
		c2.2-2.9,5-4.4,8.3-4.4c2.5,0,4.6,0.8,6.1,2.3c1.6,1.5,2.3,3.8,2.3,6.7v13.7h-4.7V166c0-4.1-1.7-6.2-5.1-6.2c-1.6,0-3,0.5-4.2,1.5
		c-1.2,1-1.8,2.5-1.9,4.5v12.4h-4.7V166c0-2.1-0.4-3.7-1.1-4.7c-0.8-1-1.9-1.5-3.6-1.5s-3,0.5-4.2,1.6
		C209.3,162.6,208.6,164.1,208.6,166.2z"/>
	<path class="st1" d="M267.3,169.2h-17.5c0.1,1.6,0.9,2.9,2.2,3.9c1.4,1,2.9,1.5,4.7,1.5c2.8,0,4.9-0.9,6.4-2.6l2.7,2.9
		c-2.4,2.5-5.5,3.7-9.4,3.7c-3.1,0-5.8-1-8-3.1c-2.2-2.1-3.3-4.9-3.3-8.4c0-3.5,1.1-6.3,3.4-8.4c2.2-2.1,4.9-3.1,7.9-3.1
		c3,0,5.6,0.9,7.7,2.8c2.1,1.8,3.2,4.4,3.2,7.6V169.2z M249.8,165.5h12.8c0-1.9-0.6-3.3-1.8-4.3c-1.2-1-2.6-1.5-4.3-1.5
		c-1.7,0-3.3,0.5-4.6,1.6C250.5,162.3,249.8,163.7,249.8,165.5z"/>
	<path class="st1" d="M277.2,166.2v12.1h-4.7V156h4.7v4.1c0.8-1.4,1.8-2.4,3.1-3.2c1.3-0.8,2.8-1.2,4.3-1.2c2.5,0,4.6,0.8,6.1,2.3
		c1.6,1.5,2.3,3.8,2.3,6.7v13.7h-4.7V166c0-4.1-1.7-6.2-5.1-6.2c-1.6,0-3,0.5-4.2,1.6C277.8,162.6,277.2,164.1,277.2,166.2z"/>
	<path class="st1" d="M305.1,159.7v11.3c0,1.1,0.3,1.9,0.8,2.5c0.6,0.6,1.3,0.9,2.4,0.9c1,0,2-0.5,2.9-1.5l1.9,3.3
		c-1.7,1.5-3.5,2.2-5.5,2.2s-3.7-0.7-5.1-2.1c-1.4-1.4-2.1-3.3-2.1-5.6v-11.2h-2.8V156h2.8v-7h4.7v7h5.9v3.8H305.1z"/>
	<path class="st1" d="M326.2,169.2h-4.7v-2.6c0-1.1,0.1-2,0.4-2.5c0.3-0.5,0.8-1.3,1.7-2.2l3.1-3.1c0.6-0.7,1-1.6,1-2.6
		c0-1-0.3-1.9-1-2.6s-1.5-1-2.6-1c-1.1,0-2,0.3-2.7,1c-0.7,0.7-1.1,1.5-1.2,2.6H315c0.3-2.5,1.3-4.4,2.9-5.9
		c1.7-1.4,3.7-2.1,6.2-2.1c2.5,0,4.5,0.7,6.1,2c1.6,1.4,2.4,3.3,2.4,5.7c0,1.7-0.5,3.1-1.4,4.2c-0.5,0.7-0.9,1.1-1.2,1.4
		c-0.3,0.3-0.7,0.6-1.1,1.1c-0.5,0.4-0.9,0.8-1.2,1.1c-0.3,0.3-0.6,0.6-0.8,0.8c-0.5,0.6-0.8,1.5-0.8,2.6V169.2z M323.9,178.5
		c-0.9,0-1.6-0.3-2.3-0.9c-0.6-0.6-1-1.3-1-2.2c0-0.9,0.3-1.6,0.9-2.2c0.6-0.6,1.4-0.9,2.3-0.9s1.6,0.3,2.3,0.9c0.6,0.6,1,1.3,1,2.2
		c0,0.9-0.3,1.6-0.9,2.2C325.5,178.2,324.8,178.5,323.9,178.5z"/>
</g>
</svg>
