<?xml version="1.0" encoding="utf-8"?>
<!-- Generator: Adobe Illustrator 23.0.3, SVG Export Plug-In . SVG Version: 6.00 Build 0)  -->
<svg version="1.1" id="Layer_1" xmlns="http://www.w3.org/2000/svg" xmlns:xlink="http://www.w3.org/1999/xlink" x="0px" y="0px"
	 viewBox="0 0 604.4 354.4" style="enable-background:new 0 0 604.4 354.4;" xml:space="preserve">
<style type="text/css">
	.st0{fill:url(#SVGID_1_);}
	.st1{fill:#FFFFFF;}
</style>
<linearGradient id="SVGID_1_" gradientUnits="userSpaceOnUse" x1="-6003.7563" y1="177.2661" x2="-5416.8281" y2="177.2661" gradientTransform="matrix(-1 0 0 1 -5408.0703 0)">
	<stop  offset="0" style="stop-color:#5264AC"/>
	<stop  offset="1" style="stop-color:#4E64AE"/>
</linearGradient>
<path class="st0" d="M28.8,9.9h546.9c11,0,20,9,20,20v238.7c0,11-9,20-20,20h-55.1l-37.9,55.9l-1.6-55.9H28.8c-11,0-20-9-20-20V29.9
	C8.8,18.9,17.8,9.9,28.8,9.9z"/>
<g>
	<path class="st1" d="M44.8,52.8v8.1h13v4.6h-13v12.1h-5V48.2h19.6l0,4.6H44.8z"/>
	<path class="st1" d="M81.7,77.5h-4.3v-3c-1.8,2.2-4.3,3.3-7.4,3.3c-2.3,0-4.2-0.7-5.8-2c-1.5-1.3-2.3-3.1-2.3-5.3
		c0-2.2,0.8-3.8,2.4-4.9c1.6-1.1,3.8-1.6,6.6-1.6H77v-0.8c0-3-1.7-4.5-5-4.5c-2.1,0-4.2,0.8-6.5,2.3l-2.1-2.9
		c2.7-2.2,5.8-3.2,9.2-3.2c2.6,0,4.8,0.7,6.4,2c1.7,1.3,2.5,3.4,2.5,6.3V77.5z M77,69.2v-1.9h-5.3c-3.4,0-5.1,1.1-5.1,3.2
		c0,1.1,0.4,1.9,1.3,2.5c0.8,0.6,2,0.9,3.5,0.9c1.5,0,2.8-0.4,3.9-1.3C76.4,71.8,77,70.6,77,69.2z"/>
	<path class="st1" d="M92.9,65.4v12.1h-4.7V55.2h4.7v4.1c0.8-1.4,1.8-2.4,3.1-3.2c1.3-0.8,2.8-1.2,4.3-1.2c2.5,0,4.6,0.8,6.1,2.3
		c1.6,1.5,2.3,3.8,2.3,6.7v13.7h-4.7V65.2c0-4.1-1.7-6.2-5.1-6.2c-1.6,0-3,0.5-4.2,1.6C93.5,61.8,92.9,63.3,92.9,65.4z"/>
	<path class="st1" d="M120.9,58.9v11.3c0,1.1,0.3,1.9,0.8,2.5c0.6,0.6,1.3,0.9,2.4,0.9c1,0,2-0.5,2.9-1.5l1.9,3.3
		c-1.7,1.5-3.5,2.2-5.5,2.2s-3.7-0.7-5.1-2.1c-1.4-1.4-2.1-3.3-2.1-5.6V58.9h-2.8v-3.8h2.8v-7h4.7v7h5.9v3.8H120.9z"/>
	<path class="st1" d="M150.7,77.5h-4.3v-3c-1.8,2.2-4.3,3.3-7.4,3.3c-2.3,0-4.2-0.7-5.8-2c-1.5-1.3-2.3-3.1-2.3-5.3
		c0-2.2,0.8-3.8,2.4-4.9c1.6-1.1,3.8-1.6,6.6-1.6h6.1v-0.8c0-3-1.7-4.5-5-4.5c-2.1,0-4.2,0.8-6.5,2.3l-2.1-2.9
		c2.7-2.2,5.8-3.2,9.2-3.2c2.6,0,4.8,0.7,6.4,2c1.7,1.3,2.5,3.4,2.5,6.3V77.5z M146,69.2v-1.9h-5.3c-3.4,0-5.1,1.1-5.1,3.2
		c0,1.1,0.4,1.9,1.3,2.5c0.8,0.6,2,0.9,3.5,0.9c1.5,0,2.8-0.4,3.9-1.3C145.5,71.8,146,70.6,146,69.2z"/>
	<path class="st1" d="M173.2,70.8c0,2.1-0.8,3.8-2.3,5.1c-1.5,1.3-3.5,1.9-5.9,1.9c-1.6,0-3.3-0.3-5.1-0.9c-1.8-0.6-3.3-1.4-4.6-2.5
		l2.3-3.7c2.6,2,5.1,2.9,7.6,2.9c1.1,0,1.9-0.2,2.5-0.7c0.6-0.5,0.9-1.1,0.9-1.9c0-1.1-1.5-2.1-4.5-3c-0.2-0.1-0.4-0.1-0.5-0.2
		c-4.6-1.3-7-3.4-7-6.3c0-2.1,0.8-3.7,2.4-5c1.6-1.2,3.7-1.9,6.3-1.9s5,0.8,7.3,2.3l-1.8,3.5c-1.8-1.2-3.8-1.8-5.9-1.8
		c-1.1,0-2,0.2-2.7,0.6c-0.7,0.4-1,1-1,1.8c0,0.7,0.4,1.3,1.1,1.6c0.5,0.3,1.2,0.5,2.1,0.7c0.9,0.2,1.7,0.4,2.4,0.7
		c0.7,0.2,1.4,0.5,2,0.8c0.7,0.3,1.4,0.7,2.1,1.2C172.4,67.1,173.2,68.7,173.2,70.8z"/>
	<path class="st1" d="M184.3,58.9v11.3c0,1.1,0.3,1.9,0.8,2.5c0.6,0.6,1.3,0.9,2.4,0.9c1,0,2-0.5,2.9-1.5l1.9,3.3
		c-1.7,1.5-3.5,2.2-5.5,2.2s-3.7-0.7-5.1-2.1c-1.4-1.4-2.1-3.3-2.1-5.6V58.9h-2.8v-3.8h2.8v-7h4.7v7h5.9v3.8H184.3z"/>
	<path class="st1" d="M196.4,50.7c-0.6-0.6-0.9-1.3-0.9-2.1c0-0.8,0.3-1.5,0.9-2.1c0.6-0.6,1.3-0.9,2.1-0.9c0.8,0,1.5,0.3,2.1,0.9
		s0.9,1.3,0.9,2.1c0,0.8-0.3,1.5-0.9,2.1s-1.3,0.9-2.1,0.9C197.7,51.6,197,51.3,196.4,50.7z M200.8,77.5h-4.7V55.2h4.7V77.5z"/>
	<path class="st1" d="M217.5,77.8c-3.1,0-5.8-1.1-8-3.2c-2.2-2.1-3.4-4.9-3.4-8.3c0-3.4,1.2-6.2,3.5-8.3c2.3-2.1,5.2-3.2,8.5-3.2
		c3.4,0,6.2,1.2,8.5,3.5l-2.8,3.4c-1.9-1.7-3.9-2.5-5.8-2.5c-2,0-3.7,0.7-5.1,2c-1.4,1.3-2.2,3-2.2,5c0,2.1,0.7,3.8,2.1,5.2
		c1.4,1.4,3.2,2.1,5.3,2.1s4.1-1,5.9-2.9l2.8,3C224.2,76.5,221.1,77.8,217.5,77.8z"/>
	<path class="st1" d="M232.1,76.9c-0.6-0.6-0.9-1.4-0.9-2.2c0-0.9,0.3-1.6,0.9-2.2c0.6-0.6,1.3-0.9,2.2-0.9c0.9,0,1.6,0.3,2.2,0.9
		c0.6,0.6,0.9,1.3,0.9,2.2c0,0.9-0.3,1.6-0.9,2.2c-0.6,0.6-1.4,0.9-2.2,0.9C233.4,77.8,232.7,77.5,232.1,76.9z"/>
	<path class="st1" d="M267.3,77.5h-5V65.9l-10.9-17.8h5.4l8,13.4l8-13.4h5.4l-10.9,17.8V77.5z"/>
	<path class="st1" d="M302.1,68.4h-17.5c0.1,1.6,0.9,2.9,2.2,3.9c1.4,1,2.9,1.5,4.7,1.5c2.8,0,4.9-0.9,6.4-2.6l2.7,2.9
		c-2.4,2.5-5.5,3.7-9.4,3.7c-3.1,0-5.8-1-8-3.1c-2.2-2.1-3.3-4.9-3.3-8.4c0-3.5,1.1-6.3,3.4-8.4c2.2-2.1,4.9-3.1,7.9-3.1
		c3,0,5.6,0.9,7.7,2.8c2.1,1.8,3.2,4.4,3.2,7.6V68.4z M284.5,64.7h12.8c0-1.9-0.6-3.3-1.8-4.3c-1.2-1-2.6-1.5-4.3-1.5
		s-3.3,0.5-4.6,1.6C285.2,61.5,284.5,62.9,284.5,64.7z"/>
	<path class="st1" d="M323.1,70.8c0,2.1-0.8,3.8-2.3,5.1c-1.5,1.3-3.5,1.9-5.9,1.9c-1.6,0-3.3-0.3-5.1-0.9c-1.8-0.6-3.3-1.4-4.6-2.5
		l2.3-3.7c2.6,2,5.1,2.9,7.6,2.9c1.1,0,1.9-0.2,2.5-0.7c0.6-0.5,0.9-1.1,0.9-1.9c0-1.1-1.5-2.1-4.5-3c-0.2-0.1-0.4-0.1-0.5-0.2
		c-4.6-1.3-7-3.4-7-6.3c0-2.1,0.8-3.7,2.4-5c1.6-1.2,3.7-1.9,6.3-1.9s5,0.8,7.3,2.3l-1.8,3.5c-1.8-1.2-3.8-1.8-5.9-1.8
		c-1.1,0-2,0.2-2.7,0.6c-0.7,0.4-1.1,1-1.1,1.8c0,0.7,0.4,1.3,1.1,1.6c0.5,0.3,1.2,0.5,2.1,0.7s1.7,0.4,2.4,0.7
		c0.7,0.2,1.4,0.5,2,0.8c0.7,0.3,1.4,0.7,2.1,1.2C322.4,67.1,323.1,68.7,323.1,70.8z"/>
	<path class="st1" d="M327.8,74.8c0-0.9,0.3-1.6,0.9-2.2c0.6-0.6,1.3-0.9,2.2-0.9c0.8,0,1.6,0.3,2.2,0.9c0.6,0.6,0.9,1.3,0.9,2.2
		s-0.4,1.9-1.1,3.1l-2.5,4.2H328l1.6-4.4C328.4,77,327.8,76.1,327.8,74.8z"/>
	<path class="st1" d="M352.5,48.2h5v29.4h-5V48.2z"/>
	<path class="st1" d="M386.9,77.5h-5.4l-7.7-22.3h4.9l5.5,16.9l5.5-16.9h4.9l5.5,16.9l5.5-16.9h4.9l-7.7,22.3h-5.4l-5.3-15.3
		L386.9,77.5z"/>
	<path class="st1" d="M433.1,74.5c-2.2,2.2-5,3.3-8.4,3.3s-6.2-1.1-8.4-3.3c-2.2-2.2-3.4-4.9-3.4-8.2c0-3.2,1.1-5.9,3.4-8.2
		c2.2-2.2,5-3.3,8.4-3.3s6.2,1.1,8.4,3.3c2.2,2.2,3.4,4.9,3.4,8.2C436.5,69.6,435.3,72.3,433.1,74.5z M419.6,71.6c1.3,1.4,3,2,5.1,2
		s3.7-0.7,5.1-2c1.3-1.4,2-3.1,2-5.3c0-2.2-0.7-3.9-2-5.3c-1.3-1.4-3-2-5.1-2s-3.7,0.7-5.1,2c-1.3,1.4-2,3.1-2,5.3
		C417.6,68.5,418.3,70.3,419.6,71.6z"/>
	<path class="st1" d="M457.4,67.3V55.2h4.7v22.3h-4.7v-4.1c-0.8,1.4-1.8,2.5-3.1,3.2c-1.3,0.8-2.8,1.2-4.3,1.2
		c-2.5,0-4.6-0.8-6.1-2.3c-1.6-1.5-2.3-3.8-2.3-6.7V55.2h4.7v12.3c0,4.1,1.7,6.2,5.1,6.2c1.6,0,3-0.5,4.2-1.6
		C456.8,70.9,457.4,69.3,457.4,67.3z"/>
	<path class="st1" d="M473.6,77.5h-4.7V46.3h4.7V77.5z"/>
	<path class="st1" d="M482.1,74.7c-2.1-2.1-3.1-4.9-3.1-8.4c0-3.5,1.1-6.2,3.2-8.3c2.2-2.1,4.7-3.1,7.7-3.1s5.4,1.3,7.2,3.8V46.3
		h4.7v31.2h-4.7v-3.4c-1.7,2.5-4.3,3.7-7.6,3.7C486.7,77.8,484.2,76.8,482.1,74.7z M483.7,66.4c0,2.1,0.7,3.9,2.1,5.2
		c1.4,1.3,3,2,4.8,2c1.8,0,3.4-0.7,4.7-2c1.3-1.4,1.9-3.1,1.9-5.2c0-2.1-0.6-3.9-1.9-5.3c-1.3-1.4-2.9-2.1-4.7-2.1
		c-1.9,0-3.5,0.7-4.8,2.1C484.4,62.5,483.7,64.3,483.7,66.4z"/>
	<path class="st1" d="M43.8,127.9h-4.7V96.7h4.7V127.9z"/>
	<path class="st1" d="M50.9,101.1c-0.6-0.6-0.9-1.3-0.9-2.1c0-0.8,0.3-1.5,0.9-2.1c0.6-0.6,1.3-0.9,2.1-0.9c0.8,0,1.5,0.3,2.1,0.9
		S56,98.2,56,99c0,0.8-0.3,1.5-0.9,2.1S53.9,102,53,102C52.2,102,51.5,101.7,50.9,101.1z M55.3,127.9h-4.7v-22.3h4.7V127.9z"/>
	<path class="st1" d="M66.9,127.9h-4.7V96.7h4.7v18.3l9.1-9.5h6l-8.5,8.9l9.1,13.5h-5.7l-6.6-9.8l-3.4,3.4V127.9z"/>
	<path class="st1" d="M107.3,118.8H89.8c0.1,1.6,0.9,2.9,2.2,3.9c1.4,1,2.9,1.5,4.7,1.5c2.8,0,4.9-0.9,6.4-2.6l2.7,2.9
		c-2.4,2.5-5.5,3.7-9.4,3.7c-3.1,0-5.8-1-8-3.1c-2.2-2.1-3.3-4.9-3.3-8.4c0-3.5,1.1-6.3,3.4-8.4c2.2-2.1,4.9-3.1,7.9-3.1
		c3,0,5.6,0.9,7.7,2.8c2.1,1.8,3.2,4.4,3.2,7.6V118.8z M89.8,115.1h12.8c0-1.9-0.6-3.3-1.8-4.3c-1.2-1-2.6-1.5-4.3-1.5
		s-3.3,0.5-4.6,1.6C90.5,111.9,89.8,113.3,89.8,115.1z"/>
	<path class="st1" d="M129.8,109.3v11.3c0,1.1,0.3,1.9,0.8,2.5c0.6,0.6,1.3,0.9,2.4,0.9c1,0,2-0.5,2.9-1.5l1.9,3.3
		c-1.7,1.5-3.5,2.2-5.5,2.2s-3.7-0.7-5.1-2.1c-1.4-1.4-2.1-3.3-2.1-5.6v-11.2h-2.8v-3.8h2.8v-7h4.7v7h5.9v3.8H129.8z"/>
	<path class="st1" d="M160.1,124.9c-2.2,2.2-5,3.3-8.4,3.3s-6.2-1.1-8.4-3.3c-2.2-2.2-3.4-4.9-3.4-8.2c0-3.2,1.1-5.9,3.4-8.2
		c2.2-2.2,5-3.3,8.4-3.3s6.2,1.1,8.4,3.3c2.2,2.2,3.4,4.9,3.4,8.2C163.5,120,162.3,122.7,160.1,124.9z M146.6,122c1.3,1.4,3,2,5.1,2
		c2,0,3.7-0.7,5.1-2c1.3-1.4,2-3.1,2-5.3c0-2.2-0.7-3.9-2-5.3c-1.3-1.4-3-2-5.1-2c-2,0-3.7,0.7-5.1,2c-1.3,1.4-2,3.1-2,5.3
		C144.6,118.9,145.3,120.7,146.6,122z"/>
	<path class="st1" d="M196.2,121.2c0,2.1-0.8,3.8-2.3,5.1c-1.5,1.3-3.5,1.9-5.9,1.9c-1.6,0-3.3-0.3-5.1-0.9
		c-1.8-0.6-3.3-1.4-4.6-2.5l2.3-3.7c2.6,2,5.1,2.9,7.6,2.9c1.1,0,1.9-0.2,2.5-0.7c0.6-0.5,0.9-1.1,0.9-1.9c0-1.1-1.5-2.1-4.5-3
		c-0.2-0.1-0.4-0.1-0.5-0.2c-4.6-1.3-7-3.4-7-6.3c0-2.1,0.8-3.7,2.4-5c1.6-1.2,3.7-1.9,6.3-1.9s5,0.8,7.3,2.3l-1.8,3.5
		c-1.8-1.2-3.8-1.8-5.9-1.8c-1.1,0-2,0.2-2.7,0.6c-0.7,0.4-1,1-1,1.8c0,0.7,0.4,1.3,1.1,1.6c0.5,0.3,1.2,0.5,2.1,0.7
		c0.9,0.2,1.7,0.4,2.4,0.7c0.7,0.2,1.4,0.5,2,0.8c0.7,0.3,1.4,0.7,2.1,1.2C195.5,117.5,196.2,119.1,196.2,121.2z"/>
	<path class="st1" d="M211.5,128.2c-3.1,0-5.8-1.1-8-3.2c-2.2-2.1-3.4-4.9-3.4-8.3c0-3.4,1.2-6.2,3.5-8.3c2.3-2.1,5.2-3.2,8.5-3.2
		c3.4,0,6.2,1.2,8.5,3.5l-2.8,3.4c-1.9-1.7-3.9-2.5-5.8-2.5c-2,0-3.7,0.7-5.1,2c-1.4,1.3-2.2,3-2.2,5c0,2.1,0.7,3.8,2.1,5.2
		c1.4,1.4,3.2,2.1,5.3,2.1s4.1-1,5.9-2.9l2.8,3C218.2,126.9,215,128.2,211.5,128.2z"/>
	<path class="st1" d="M230.4,115.8v12.1h-4.7V96.8h4.7v12.9c0.7-1.4,1.7-2.4,3-3.2c1.4-0.8,2.8-1.2,4.4-1.2c2.5,0,4.6,0.8,6.1,2.3
		c1.6,1.5,2.3,3.8,2.3,6.7v13.7h-4.7v-12.3c0-4.1-1.7-6.2-5.1-6.2c-1.6,0-3,0.5-4.2,1.6C231,112.2,230.4,113.7,230.4,115.8z"/>
	<path class="st1" d="M273.7,118.8h-17.5c0.1,1.6,0.9,2.9,2.2,3.9c1.4,1,2.9,1.5,4.7,1.5c2.8,0,4.9-0.9,6.4-2.6l2.7,2.9
		c-2.4,2.5-5.5,3.7-9.4,3.7c-3.1,0-5.8-1-8-3.1c-2.2-2.1-3.3-4.9-3.3-8.4c0-3.5,1.1-6.3,3.4-8.4c2.2-2.1,4.9-3.1,7.9-3.1
		c3,0,5.6,0.9,7.7,2.8c2.1,1.8,3.2,4.4,3.2,7.6V118.8z M256.1,115.1H269c0-1.9-0.6-3.3-1.8-4.3c-1.2-1-2.6-1.5-4.3-1.5
		s-3.3,0.5-4.6,1.6C256.8,111.9,256.1,113.3,256.1,115.1z"/>
	<path class="st1" d="M280.5,125.1c-2.1-2.1-3.1-4.9-3.1-8.4c0-3.5,1.1-6.2,3.2-8.3c2.2-2.1,4.7-3.1,7.7-3.1s5.4,1.3,7.2,3.8V96.7
		h4.7v31.2h-4.7v-3.4c-1.7,2.5-4.3,3.7-7.6,3.7C285.1,128.2,282.6,127.2,280.5,125.1z M282.1,116.8c0,2.1,0.7,3.9,2.1,5.2
		c1.4,1.3,3,2,4.8,2s3.4-0.7,4.7-2c1.3-1.4,1.9-3.1,1.9-5.2c0-2.1-0.6-3.9-1.9-5.3c-1.3-1.4-2.9-2.1-4.7-2.1c-1.9,0-3.5,0.7-4.8,2.1
		C282.8,112.9,282.1,114.7,282.1,116.8z"/>
	<path class="st1" d="M322.7,117.7v-12.1h4.7v22.3h-4.7v-4.1c-0.8,1.4-1.8,2.5-3.1,3.2c-1.3,0.8-2.8,1.2-4.3,1.2
		c-2.5,0-4.6-0.8-6.1-2.3c-1.6-1.5-2.3-3.8-2.3-6.7v-13.7h4.7v12.3c0,4.1,1.7,6.2,5.1,6.2c1.6,0,3-0.5,4.2-1.6
		C322.1,121.3,322.7,119.7,322.7,117.7z"/>
	<path class="st1" d="M338.9,127.9h-4.7V96.7h4.7V127.9z"/>
	<path class="st1" d="M366.5,118.8H349c0.1,1.6,0.9,2.9,2.2,3.9c1.4,1,2.9,1.5,4.7,1.5c2.8,0,4.9-0.9,6.4-2.6l2.7,2.9
		c-2.4,2.5-5.5,3.7-9.4,3.7c-3.1,0-5.8-1-8-3.1c-2.2-2.1-3.3-4.9-3.3-8.4c0-3.5,1.1-6.3,3.4-8.4c2.2-2.1,4.9-3.1,7.9-3.1
		c3,0,5.6,0.9,7.7,2.8c2.1,1.8,3.2,4.4,3.2,7.6V118.8z M349,115.1h12.8c0-1.9-0.6-3.3-1.8-4.3c-1.2-1-2.6-1.5-4.3-1.5
		s-3.3,0.5-4.6,1.6C349.7,111.9,349,113.3,349,115.1z"/>
	<path class="st1" d="M387.9,115.8v12.1h-4.7v-22.3h4.7v4.1c0.8-1.4,1.8-2.4,3.1-3.2c1.3-0.8,2.8-1.2,4.3-1.2c2.5,0,4.6,0.8,6.1,2.3
		c1.6,1.5,2.3,3.8,2.3,6.7v13.7H399v-12.3c0-4.1-1.7-6.2-5.1-6.2c-1.6,0-3,0.5-4.2,1.6C388.5,112.2,387.9,113.7,387.9,115.8z"/>
	<path class="st1" d="M429,124.9c-2.2,2.2-5,3.3-8.4,3.3s-6.2-1.1-8.4-3.3c-2.2-2.2-3.4-4.9-3.4-8.2c0-3.2,1.1-5.9,3.4-8.2
		c2.2-2.2,5-3.3,8.4-3.3s6.2,1.1,8.4,3.3c2.2,2.2,3.4,4.9,3.4,8.2C432.3,120,431.2,122.7,429,124.9z M415.5,122c1.3,1.4,3,2,5.1,2
		s3.7-0.7,5.1-2c1.3-1.4,2-3.1,2-5.3c0-2.2-0.7-3.9-2-5.3c-1.3-1.4-3-2-5.1-2s-3.7,0.7-5.1,2c-1.3,1.4-2,3.1-2,5.3
		C413.5,118.9,414.2,120.7,415.5,122z"/>
	<path class="st1" d="M447.8,127.9h-5.4l-7.7-22.3h4.9l5.5,16.9l5.5-16.9h4.9l5.5,16.9l5.5-16.9h4.9l-7.7,22.3h-5.4l-5.3-15.3
		L447.8,127.9z"/>
	<path class="st1" d="M51.1,155.6c3,0,5.6,1,7.7,3.1c2.1,2.1,3.2,4.8,3.2,8.3c0,3.4-1.1,6.2-3.2,8.4c-2.1,2.2-4.6,3.2-7.4,3.2
		s-5.3-1.2-7.6-3.7v11.5h-4.7V156h4.7v3.9C45.7,157,48.1,155.6,51.1,155.6z M43.8,167.2c0,2.1,0.6,3.9,1.9,5.2c1.3,1.4,2.9,2,4.7,2
		c1.8,0,3.5-0.7,4.8-2c1.4-1.3,2.1-3.1,2.1-5.2s-0.7-3.9-2-5.3c-1.3-1.4-3-2.1-4.8-2.1c-1.9,0-3.5,0.7-4.7,2.1
		C44.4,163.3,43.8,165.1,43.8,167.2z"/>
	<path class="st1" d="M72.1,178.3h-4.7v-31.2h4.7V178.3z"/>
	<path class="st1" d="M99.7,169.2H82.1c0.1,1.6,0.9,2.9,2.2,3.9c1.4,1,2.9,1.5,4.7,1.5c2.8,0,4.9-0.9,6.4-2.6l2.7,2.9
		c-2.4,2.5-5.5,3.7-9.4,3.7c-3.1,0-5.8-1-8-3.1c-2.2-2.1-3.3-4.9-3.3-8.4c0-3.5,1.1-6.3,3.4-8.4c2.2-2.1,4.9-3.1,7.9-3.1
		c3,0,5.6,0.9,7.7,2.8c2.1,1.8,3.2,4.4,3.2,7.6V169.2z M82.1,165.5H95c0-1.9-0.6-3.3-1.8-4.3c-1.2-1-2.6-1.5-4.3-1.5
		s-3.3,0.5-4.6,1.6C82.8,162.3,82.1,163.7,82.1,165.5z"/>
	<path class="st1" d="M122.9,178.3h-4.3v-3c-1.8,2.2-4.3,3.3-7.4,3.3c-2.3,0-4.2-0.7-5.8-2c-1.5-1.3-2.3-3.1-2.3-5.3
		c0-2.2,0.8-3.8,2.4-4.9c1.6-1.1,3.8-1.6,6.6-1.6h6.1V164c0-3-1.7-4.5-5-4.5c-2.1,0-4.2,0.8-6.5,2.3l-2.1-2.9
		c2.7-2.2,5.8-3.2,9.2-3.2c2.6,0,4.8,0.7,6.4,2c1.7,1.3,2.5,3.4,2.5,6.3V178.3z M118.2,170v-1.9h-5.3c-3.4,0-5.1,1.1-5.1,3.2
		c0,1.1,0.4,1.9,1.3,2.5c0.8,0.6,2,0.9,3.5,0.9c1.5,0,2.8-0.4,3.9-1.3C117.7,172.6,118.2,171.4,118.2,170z"/>
	<path class="st1" d="M145.4,171.6c0,2.1-0.8,3.8-2.3,5.1c-1.5,1.3-3.5,1.9-5.9,1.9c-1.6,0-3.3-0.3-5.1-0.9
		c-1.8-0.6-3.3-1.4-4.6-2.5l2.3-3.7c2.6,2,5.1,2.9,7.6,2.9c1.1,0,1.9-0.2,2.5-0.7c0.6-0.5,0.9-1.1,0.9-1.9c0-1.1-1.5-2.1-4.5-3
		c-0.2-0.1-0.4-0.1-0.5-0.2c-4.6-1.3-7-3.4-7-6.3c0-2.1,0.8-3.7,2.4-5c1.6-1.2,3.7-1.9,6.3-1.9s5,0.8,7.3,2.3l-1.8,3.5
		c-1.8-1.2-3.8-1.8-5.9-1.8c-1.1,0-2,0.2-2.7,0.6c-0.7,0.4-1,1-1,1.8c0,0.7,0.4,1.3,1.1,1.6c0.5,0.3,1.2,0.5,2.1,0.7
		c0.9,0.2,1.7,0.4,2.4,0.7c0.7,0.2,1.4,0.5,2,0.8c0.7,0.3,1.4,0.7,2.1,1.2C144.6,167.9,145.4,169.5,145.4,171.6z"/>
	<path class="st1" d="M171.5,169.2H154c0.1,1.6,0.9,2.9,2.2,3.9c1.4,1,2.9,1.5,4.7,1.5c2.8,0,4.9-0.9,6.4-2.6l2.7,2.9
		c-2.4,2.5-5.5,3.7-9.4,3.7c-3.1,0-5.8-1-8-3.1c-2.2-2.1-3.3-4.9-3.3-8.4c0-3.5,1.1-6.3,3.4-8.4c2.2-2.1,4.9-3.1,7.9-3.1
		c3,0,5.6,0.9,7.7,2.8c2.1,1.8,3.2,4.4,3.2,7.6V169.2z M154,165.5h12.8c0-1.9-0.6-3.3-1.8-4.3c-1.2-1-2.6-1.5-4.3-1.5
		s-3.3,0.5-4.6,1.6C154.7,162.3,154,163.7,154,165.5z"/>
	<path class="st1" d="M177,177.7c-0.6-0.6-0.9-1.4-0.9-2.2c0-0.9,0.3-1.6,0.9-2.2c0.6-0.6,1.3-0.9,2.2-0.9c0.9,0,1.6,0.3,2.2,0.9
		c0.6,0.6,0.9,1.3,0.9,2.2c0,0.9-0.3,1.6-0.9,2.2c-0.6,0.6-1.4,0.9-2.2,0.9C178.3,178.6,177.6,178.3,177,177.7z"/>
</g>
</svg>
