<?xml version="1.0" encoding="utf-8"?>
<!-- Generator: Adobe Illustrator 23.0.3, SVG Export Plug-In . SVG Version: 6.00 Build 0)  -->
<svg version="1.1" id="Layer_1" xmlns="http://www.w3.org/2000/svg" xmlns:xlink="http://www.w3.org/1999/xlink" x="0px" y="0px"
	 viewBox="0 0 604.4 354.4" style="enable-background:new 0 0 604.4 354.4;" xml:space="preserve">
<style type="text/css">
	.st0{fill:url(#SVGID_1_);}
	.st1{fill:#FFFFFF;}
</style>
<linearGradient id="SVGID_1_" gradientUnits="userSpaceOnUse" x1="8.7582" y1="177.2222" x2="595.6863" y2="177.2222">
	<stop  offset="1.983173e-03" style="stop-color:#EF486C"/>
	<stop  offset="1" style="stop-color:#E04D72"/>
</linearGradient>
<path class="st0" d="M575.7,9.9H28.8c-11,0-20,9-20,20v238.7c0,11,9,20,20,20h55.1l37.9,55.9l1.6-55.9h452.3c11,0,20-9,20-20V29.9
	C595.7,18.9,586.7,9.9,575.7,9.9z"/>
<g>
	<path class="st1" d="M60.1,63.2h5v10c-2.8,3.1-6.7,4.6-11.9,4.6c-4.3,0-8-1.4-10.9-4.3c-2.9-2.9-4.4-6.5-4.4-10.8
		c0-4.4,1.5-8,4.5-10.9c3-2.9,6.6-4.4,10.8-4.4c4.2,0,7.7,1.2,10.5,3.7l-2.6,3.8c-1.1-1-2.3-1.7-3.5-2c-1.2-0.4-2.5-0.6-4.1-0.6
		c-3,0-5.5,1-7.5,2.9c-2,1.9-3,4.4-3,7.6s1,5.6,2.9,7.5c2,1.9,4.3,2.8,7.1,2.8c2.8,0,5.1-0.6,7-1.8V63.2z"/>
	<path class="st1" d="M82.6,59.5c-2.3,0-4.1,0.8-5.2,2.3c-1.2,1.5-1.8,3.5-1.8,6.1v9.6h-4.7V55.1h4.7v4.5c0.8-1.4,1.8-2.5,3.1-3.4
		c1.3-0.9,2.7-1.4,4.1-1.4l0,4.7C82.8,59.5,82.7,59.5,82.6,59.5z"/>
	<path class="st1" d="M108.4,68.4H90.9c0.1,1.6,0.9,2.9,2.2,3.9c1.4,1,2.9,1.5,4.7,1.5c2.8,0,4.9-0.9,6.4-2.6l2.7,2.9
		c-2.4,2.5-5.5,3.7-9.4,3.7c-3.1,0-5.8-1-8-3.1c-2.2-2.1-3.3-4.9-3.3-8.4s1.1-6.3,3.4-8.4c2.2-2.1,4.9-3.1,7.9-3.1
		c3,0,5.6,0.9,7.7,2.8c2.1,1.8,3.2,4.4,3.2,7.6V68.4z M90.9,64.7h12.8c0-1.9-0.6-3.3-1.8-4.3c-1.2-1-2.6-1.5-4.3-1.5
		s-3.3,0.5-4.6,1.6C91.6,61.4,90.9,62.9,90.9,64.7z"/>
	<path class="st1" d="M131.7,77.5h-4.3v-3c-1.8,2.2-4.3,3.3-7.4,3.3c-2.3,0-4.2-0.7-5.8-2c-1.5-1.3-2.3-3.1-2.3-5.3
		c0-2.2,0.8-3.8,2.4-4.9c1.6-1.1,3.8-1.6,6.6-1.6h6.1v-0.8c0-3-1.7-4.5-5-4.5c-2.1,0-4.2,0.8-6.5,2.3l-2.1-2.9
		c2.7-2.2,5.8-3.2,9.2-3.2c2.6,0,4.8,0.7,6.4,2c1.7,1.3,2.5,3.4,2.5,6.3V77.5z M127,69.2v-1.9h-5.3c-3.4,0-5.1,1.1-5.1,3.2
		c0,1.1,0.4,1.9,1.3,2.5c0.8,0.6,2,0.9,3.5,0.9c1.5,0,2.8-0.4,3.9-1.3C126.4,71.7,127,70.6,127,69.2z"/>
	<path class="st1" d="M143.8,58.9v11.3c0,1.1,0.3,1.9,0.8,2.5c0.6,0.6,1.3,0.9,2.4,0.9c1,0,2-0.5,2.9-1.5l1.9,3.3
		c-1.7,1.5-3.5,2.2-5.5,2.2s-3.7-0.7-5.1-2.1c-1.4-1.4-2.1-3.3-2.1-5.6V58.9h-2.8v-3.8h2.8v-7h4.7v7h5.9v3.8H143.8z"/>
	<path class="st1" d="M158.4,77.8c-0.9,0-1.6-0.3-2.2-0.9c-0.6-0.6-0.9-1.4-0.9-2.2c0-0.9,0.3-1.6,0.9-2.2c0.6-0.6,1.4-0.9,2.2-0.9
		c0.9,0,1.6,0.3,2.2,0.9c0.6,0.6,0.9,1.4,0.9,2.2c0,0.9-0.3,1.6-0.9,2.2C159.9,77.5,159.2,77.8,158.4,77.8z M155.4,47.4h5.9v5.4
		L160,68h-3.4l-1.3-15.2V47.4z"/>
	<path class="st1" d="M180.1,48.1h5v29.4h-5V48.1z"/>
	<path class="st1" d="M213.9,77.8c-3.1,0-5.8-1.1-8-3.2c-2.2-2.1-3.4-4.9-3.4-8.3c0-3.4,1.2-6.2,3.5-8.3c2.3-2.1,5.2-3.2,8.5-3.2
		c3.4,0,6.2,1.2,8.5,3.5l-2.8,3.4c-1.9-1.7-3.9-2.5-5.8-2.5c-2,0-3.7,0.7-5.1,2c-1.4,1.3-2.2,3-2.2,5c0,2.1,0.7,3.8,2.1,5.2
		c1.4,1.4,3.2,2.1,5.3,2.1s4.1-1,5.9-2.9l2.8,3C220.6,76.4,217.5,77.8,213.9,77.8z"/>
	<path class="st1" d="M246.2,77.5h-4.3v-3c-1.8,2.2-4.3,3.3-7.4,3.3c-2.3,0-4.2-0.7-5.8-2c-1.5-1.3-2.3-3.1-2.3-5.3
		c0-2.2,0.8-3.8,2.4-4.9c1.6-1.1,3.8-1.6,6.6-1.6h6.1v-0.8c0-3-1.7-4.5-5-4.5c-2.1,0-4.2,0.8-6.5,2.3L228,58
		c2.7-2.2,5.8-3.2,9.2-3.2c2.6,0,4.8,0.7,6.4,2c1.7,1.3,2.5,3.4,2.5,6.3V77.5z M241.4,69.2v-1.9h-5.3c-3.4,0-5.1,1.1-5.1,3.2
		c0,1.1,0.4,1.9,1.3,2.5c0.8,0.6,2,0.9,3.5,0.9c1.5,0,2.8-0.4,3.9-1.3C240.9,71.7,241.4,70.6,241.4,69.2z"/>
	<path class="st1" d="M257.4,65.4v12.1h-4.7V55.1h4.7v4.1c0.8-1.4,1.8-2.5,3.1-3.2c1.3-0.8,2.8-1.2,4.3-1.2c2.5,0,4.6,0.8,6.1,2.3
		c1.6,1.5,2.3,3.8,2.3,6.7v13.7h-4.7V65.2c0-4.1-1.7-6.2-5.1-6.2c-1.6,0-3,0.5-4.2,1.6C258,61.7,257.4,63.3,257.4,65.4z"/>
	<path class="st1" d="M296,65.4v12.1h-4.7V46.3h4.7v12.9c0.7-1.4,1.7-2.5,3-3.2c1.4-0.8,2.8-1.2,4.4-1.2c2.5,0,4.6,0.8,6.1,2.3
		c1.6,1.5,2.3,3.8,2.3,6.7v13.7h-4.7V65.2c0-4.1-1.7-6.2-5.1-6.2c-1.6,0-3,0.5-4.2,1.6C296.6,61.7,296,63.3,296,65.4z"/>
	<path class="st1" d="M339.3,68.4h-17.5c0.1,1.6,0.9,2.9,2.2,3.9c1.4,1,2.9,1.5,4.7,1.5c2.8,0,4.9-0.9,6.4-2.6l2.7,2.9
		c-2.4,2.5-5.5,3.7-9.4,3.7c-3.1,0-5.8-1-8-3.1c-2.2-2.1-3.3-4.9-3.3-8.4s1.1-6.3,3.4-8.4s4.9-3.1,7.9-3.1s5.6,0.9,7.7,2.8
		c2.1,1.8,3.2,4.4,3.2,7.6V68.4z M321.8,64.7h12.8c0-1.9-0.6-3.3-1.8-4.3c-1.2-1-2.6-1.5-4.3-1.5s-3.3,0.5-4.6,1.6
		C322.4,61.4,321.8,62.9,321.8,64.7z"/>
	<path class="st1" d="M349.1,77.5h-4.7V46.3h4.7V77.5z"/>
	<path class="st1" d="M367.9,54.8c3,0,5.6,1,7.7,3.1c2.1,2.1,3.2,4.8,3.2,8.3s-1.1,6.2-3.2,8.4c-2.1,2.2-4.6,3.2-7.4,3.2
		s-5.3-1.2-7.6-3.7v11.5h-4.7V55.1h4.7V59C362.5,56.2,364.9,54.8,367.9,54.8z M360.6,66.3c0,2.1,0.6,3.9,1.9,5.2
		c1.3,1.4,2.9,2,4.7,2s3.5-0.7,4.8-2c1.4-1.3,2.1-3.1,2.1-5.2c0-2.1-0.7-3.9-2-5.3c-1.3-1.4-3-2.1-4.8-2.1c-1.9,0-3.5,0.7-4.7,2.1
		C361.2,62.4,360.6,64.2,360.6,66.3z"/>
	<path class="st1" d="M398.5,86.4c-2,0-3.9-0.7-5.5-2.2l2.1-3.8c1,0.9,2,1.4,3,1.4c1.1,0,1.9-0.4,2.6-1.1s1-1.6,1-2.5
		c0-0.4-3-8-9-23h5l6.7,16.5l6.7-16.5h5l-10.8,26.5c-0.6,1.5-1.6,2.6-2.8,3.4C401.3,86,399.9,86.4,398.5,86.4z"/>
	<path class="st1" d="M438.1,74.5c-2.2,2.2-5,3.3-8.4,3.3s-6.2-1.1-8.4-3.3c-2.2-2.2-3.4-4.9-3.4-8.2c0-3.2,1.1-5.9,3.4-8.2
		c2.2-2.2,5-3.3,8.4-3.3s6.2,1.1,8.4,3.3s3.4,4.9,3.4,8.2C441.5,69.5,440.3,72.2,438.1,74.5z M424.6,71.6c1.3,1.4,3,2,5.1,2
		s3.7-0.7,5.1-2c1.3-1.4,2-3.1,2-5.3c0-2.2-0.7-3.9-2-5.3c-1.3-1.4-3-2-5.1-2s-3.7,0.7-5.1,2s-2,3.1-2,5.3
		C422.6,68.5,423.3,70.2,424.6,71.6z"/>
	<path class="st1" d="M462.4,67.2V55.1h4.7v22.3h-4.7v-4.1c-0.8,1.4-1.8,2.5-3.1,3.2c-1.3,0.8-2.8,1.2-4.3,1.2
		c-2.5,0-4.6-0.8-6.1-2.3s-2.3-3.8-2.3-6.7V55.1h4.7v12.3c0,4.1,1.7,6.2,5.1,6.2c1.6,0,3-0.5,4.2-1.6
		C461.8,70.9,462.4,69.3,462.4,67.2z"/>
	<path class="st1" d="M49.6,127.9h-5.4l-7.7-22.3h4.9l5.5,16.9l5.5-16.9h4.9l5.5,16.9l5.5-16.9h4.9l-7.7,22.3h-5.4l-5.3-15.3
		L49.6,127.9z"/>
	<path class="st1" d="M77.7,101.1c-0.6-0.6-0.9-1.3-0.9-2.1c0-0.8,0.3-1.5,0.9-2.1c0.6-0.6,1.3-0.9,2.1-0.9c0.8,0,1.5,0.3,2.1,0.9
		s0.9,1.3,0.9,2.1c0,0.8-0.3,1.5-0.9,2.1s-1.3,0.9-2.1,0.9C79,102,78.3,101.7,77.7,101.1z M82.1,127.9h-4.7v-22.3h4.7V127.9z"/>
	<path class="st1" d="M94.7,109.3v11.3c0,1.1,0.3,1.9,0.8,2.5c0.6,0.6,1.3,0.9,2.4,0.9c1,0,2-0.5,2.9-1.5l1.9,3.3
		c-1.7,1.5-3.5,2.2-5.5,2.2s-3.7-0.7-5.1-2.1c-1.4-1.4-2.1-3.3-2.1-5.6v-11.2h-2.8v-3.8H90v-7h4.7v7h5.9v3.8H94.7z"/>
	<path class="st1" d="M111.2,115.8v12.1h-4.7V96.7h4.7v12.9c0.7-1.4,1.7-2.4,3-3.2c1.4-0.8,2.8-1.2,4.4-1.2c2.5,0,4.6,0.8,6.1,2.3
		c1.6,1.5,2.3,3.8,2.3,6.7v13.7h-4.7v-12.3c0-4.1-1.7-6.2-5.1-6.2c-1.6,0-3,0.5-4.2,1.6C111.8,112.1,111.2,113.7,111.2,115.8z"/>
	<path class="st1" d="M150.9,109.3v11.3c0,1.1,0.3,1.9,0.8,2.5c0.6,0.6,1.3,0.9,2.4,0.9c1,0,2-0.5,2.9-1.5l1.9,3.3
		c-1.7,1.5-3.5,2.2-5.5,2.2s-3.7-0.7-5.1-2.1c-1.4-1.4-2.1-3.3-2.1-5.6v-11.2h-2.8v-3.8h2.8v-7h4.7v7h5.9v3.8H150.9z"/>
	<path class="st1" d="M167.4,115.8v12.1h-4.7V96.7h4.7v12.9c0.7-1.4,1.7-2.4,3-3.2c1.4-0.8,2.8-1.2,4.4-1.2c2.5,0,4.6,0.8,6.1,2.3
		c1.6,1.5,2.3,3.8,2.3,6.7v13.7h-4.7v-12.3c0-4.1-1.7-6.2-5.1-6.2c-1.6,0-3,0.5-4.2,1.6C168,112.1,167.4,113.7,167.4,115.8z"/>
	<path class="st1" d="M207.9,127.9h-4.3v-3c-1.8,2.2-4.3,3.3-7.4,3.3c-2.3,0-4.2-0.7-5.8-2c-1.5-1.3-2.3-3.1-2.3-5.3
		s0.8-3.8,2.4-4.9c1.6-1.1,3.8-1.6,6.6-1.6h6.1v-0.8c0-3-1.7-4.5-5-4.5c-2.1,0-4.2,0.8-6.5,2.3l-2.1-2.9c2.7-2.2,5.8-3.2,9.2-3.2
		c2.6,0,4.8,0.7,6.4,2c1.7,1.3,2.5,3.4,2.5,6.3V127.9z M203.2,119.6v-1.9h-5.3c-3.4,0-5.1,1.1-5.1,3.2c0,1.1,0.4,1.9,1.3,2.5
		c0.8,0.6,2,0.9,3.5,0.9c1.5,0,2.8-0.4,3.9-1.3C202.7,122.1,203.2,121,203.2,119.6z"/>
	<path class="st1" d="M220,109.3v11.3c0,1.1,0.3,1.9,0.8,2.5c0.6,0.6,1.3,0.9,2.4,0.9c1,0,2-0.5,2.9-1.5l1.9,3.3
		c-1.7,1.5-3.5,2.2-5.5,2.2s-3.7-0.7-5.1-2.1c-1.4-1.4-2.1-3.3-2.1-5.6v-11.2h-2.8v-3.8h2.8v-7h4.7v7h5.9v3.8H220z"/>
	<path class="st1" d="M232.1,127.3c-0.6-0.6-0.9-1.4-0.9-2.2c0-0.9,0.3-1.6,0.9-2.2c0.6-0.6,1.3-0.9,2.2-0.9c0.9,0,1.6,0.3,2.2,0.9
		c0.6,0.6,0.9,1.3,0.9,2.2c0,0.9-0.3,1.6-0.9,2.2c-0.6,0.6-1.4,0.9-2.2,0.9C233.4,128.2,232.7,127.9,232.1,127.3z"/>
	<path class="st1" d="M276.4,119.6l6.6-21.1h4.5l6.6,21.1l7.4-21.1h5.3l-10.2,29.4h-4.9l-6.2-20.1H285l-6.2,20.1h-4.9l-10.2-29.4
		h5.3L276.4,119.6z"/>
	<path class="st1" d="M315.3,115.8v12.1h-4.7V96.7h4.7v12.9c0.7-1.4,1.7-2.4,3-3.2s2.8-1.2,4.4-1.2c2.5,0,4.6,0.8,6.1,2.3
		s2.3,3.8,2.3,6.7v13.7h-4.7v-12.3c0-4.1-1.7-6.2-5.1-6.2c-1.6,0-3,0.5-4.2,1.6C315.9,112.1,315.3,113.7,315.3,115.8z"/>
	<path class="st1" d="M356.4,124.9c-2.2,2.2-5,3.3-8.4,3.3s-6.2-1.1-8.4-3.3c-2.2-2.2-3.4-4.9-3.4-8.2s1.1-5.9,3.4-8.2
		c2.2-2.2,5-3.3,8.4-3.3s6.2,1.1,8.4,3.3c2.2,2.2,3.4,4.9,3.4,8.2S358.6,122.6,356.4,124.9z M342.9,122c1.3,1.4,3,2,5.1,2
		c2,0,3.7-0.7,5.1-2c1.3-1.4,2-3.1,2-5.3s-0.7-3.9-2-5.3c-1.3-1.4-3-2-5.1-2c-2,0-3.7,0.7-5.1,2c-1.3,1.4-2,3.1-2,5.3
		S341.6,120.6,342.9,122z"/>
	<path class="st1" d="M376.9,101.1c-0.6-0.6-0.9-1.3-0.9-2.1c0-0.8,0.3-1.5,0.9-2.1c0.6-0.6,1.3-0.9,2.1-0.9c0.8,0,1.5,0.3,2.1,0.9
		s0.9,1.3,0.9,2.1c0,0.8-0.3,1.5-0.9,2.1s-1.3,0.9-2.1,0.9C378.2,102,377.5,101.7,376.9,101.1z M381.3,127.9h-4.7v-22.3h4.7V127.9z"
		/>
	<path class="st1" d="M404,121.2c0,2.1-0.8,3.8-2.3,5.1c-1.5,1.3-3.5,1.9-5.9,1.9c-1.6,0-3.3-0.3-5.1-0.9c-1.8-0.6-3.3-1.4-4.6-2.5
		l2.3-3.7c2.6,2,5.1,2.9,7.6,2.9c1.1,0,1.9-0.2,2.5-0.7c0.6-0.5,0.9-1.1,0.9-1.9c0-1.1-1.5-2.1-4.5-3c-0.2-0.1-0.4-0.1-0.5-0.2
		c-4.6-1.3-7-3.4-7-6.3c0-2.1,0.8-3.7,2.4-5c1.6-1.2,3.7-1.9,6.3-1.9s5,0.8,7.3,2.3l-1.8,3.5c-1.8-1.2-3.8-1.8-5.9-1.8
		c-1.1,0-2,0.2-2.7,0.6c-0.7,0.4-1,1-1,1.8c0,0.7,0.4,1.3,1.1,1.6c0.5,0.3,1.2,0.5,2.1,0.7c0.9,0.2,1.7,0.4,2.4,0.7
		c0.7,0.2,1.4,0.5,2,0.8c0.7,0.3,1.4,0.7,2.1,1.2C403.3,117.5,404,119.1,404,121.2z"/>
	<path class="st1" d="M423.7,136.8c-2,0-3.9-0.7-5.5-2.2l2.1-3.8c1,0.9,2,1.4,3,1.4c1.1,0,1.9-0.4,2.6-1.1s1-1.6,1-2.5
		c0-0.4-3-8-9-23h5l6.7,16.5l6.7-16.5h5l-10.8,26.5c-0.6,1.5-1.6,2.6-2.8,3.4C426.5,136.4,425.1,136.8,423.7,136.8z"/>
	<path class="st1" d="M463.3,124.9c-2.2,2.2-5,3.3-8.4,3.3s-6.2-1.1-8.4-3.3c-2.2-2.2-3.4-4.9-3.4-8.2s1.1-5.9,3.4-8.2
		c2.2-2.2,5-3.3,8.4-3.3s6.2,1.1,8.4,3.3c2.2,2.2,3.4,4.9,3.4,8.2S465.5,122.6,463.3,124.9z M449.8,122c1.3,1.4,3,2,5.1,2
		s3.7-0.7,5.1-2c1.3-1.4,2-3.1,2-5.3s-0.7-3.9-2-5.3c-1.3-1.4-3-2-5.1-2s-3.7,0.7-5.1,2c-1.3,1.4-2,3.1-2,5.3S448.5,120.6,449.8,122
		z"/>
	<path class="st1" d="M487.6,117.6v-12.1h4.7v22.3h-4.7v-4.1c-0.8,1.4-1.8,2.5-3.1,3.2s-2.8,1.2-4.3,1.2c-2.5,0-4.6-0.8-6.1-2.3
		c-1.6-1.5-2.3-3.8-2.3-6.7v-13.7h4.7v12.3c0,4.1,1.7,6.2,5.1,6.2c1.6,0,3-0.5,4.2-1.6C487,121.3,487.6,119.7,487.6,117.6z"/>
	<path class="st1" d="M510.8,109.9c-2.3,0-4.1,0.8-5.2,2.3c-1.2,1.5-1.8,3.5-1.8,6.1v9.6h-4.7v-22.3h4.7v4.5
		c0.8-1.4,1.8-2.5,3.1-3.4c1.3-0.9,2.7-1.4,4.1-1.4l0,4.7C511,109.9,510.9,109.9,510.8,109.9z"/>
	<path class="st1" d="M51.1,155.6c3,0,5.6,1,7.7,3.1c2.1,2.1,3.2,4.8,3.2,8.3s-1.1,6.2-3.2,8.4c-2.1,2.2-4.6,3.2-7.4,3.2
		s-5.3-1.2-7.6-3.7v11.5h-4.7v-30.5h4.7v3.9C45.7,157,48.1,155.6,51.1,155.6z M43.8,167.1c0,2.1,0.6,3.9,1.9,5.2
		c1.3,1.4,2.9,2,4.7,2c1.8,0,3.5-0.7,4.8-2c1.4-1.3,2.1-3.1,2.1-5.2c0-2.1-0.7-3.9-2-5.3c-1.3-1.4-3-2.1-4.8-2.1
		c-1.9,0-3.5,0.7-4.7,2.1C44.4,163.2,43.8,165,43.8,167.1z"/>
	<path class="st1" d="M79.1,160.3c-2.3,0-4.1,0.8-5.2,2.3c-1.2,1.5-1.8,3.5-1.8,6.1v9.6h-4.7v-22.3h4.7v4.5c0.8-1.4,1.8-2.5,3.1-3.4
		c1.3-0.9,2.7-1.4,4.1-1.4l0,4.7C79.2,160.3,79.2,160.3,79.1,160.3z"/>
	<path class="st1" d="M102.3,175.3c-2.2,2.2-5,3.3-8.4,3.3s-6.2-1.1-8.4-3.3c-2.2-2.2-3.4-4.9-3.4-8.2c0-3.2,1.1-5.9,3.4-8.2
		c2.2-2.2,5-3.3,8.4-3.3s6.2,1.1,8.4,3.3c2.2,2.2,3.4,4.9,3.4,8.2C105.7,170.3,104.5,173,102.3,175.3z M88.8,172.4
		c1.3,1.4,3,2,5.1,2c2,0,3.7-0.7,5.1-2c1.3-1.4,2-3.1,2-5.3c0-2.2-0.7-3.9-2-5.3c-1.3-1.4-3-2-5.1-2c-2,0-3.7,0.7-5.1,2
		c-1.3,1.4-2,3.1-2,5.3C86.8,169.3,87.5,171,88.8,172.4z"/>
	<path class="st1" d="M116.5,178.3l-9-22.3h4.9l6.8,16.9l6.8-16.9h4.9l-9,22.3H116.5z"/>
	<path class="st1" d="M134.9,151.5c-0.6-0.6-0.9-1.3-0.9-2.1s0.3-1.5,0.9-2.1c0.6-0.6,1.3-0.9,2.1-0.9c0.8,0,1.5,0.3,2.1,0.9
		s0.9,1.3,0.9,2.1s-0.3,1.5-0.9,2.1s-1.3,0.9-2.1,0.9C136.2,152.4,135.5,152.1,134.9,151.5z M139.3,178.3h-4.7v-22.3h4.7V178.3z"/>
	<path class="st1" d="M147.9,175.4c-2.1-2.1-3.1-4.9-3.1-8.4c0-3.5,1.1-6.2,3.2-8.3c2.2-2.1,4.7-3.1,7.7-3.1s5.4,1.3,7.2,3.8v-12.3
		h4.7v31.2h-4.7v-3.4c-1.7,2.5-4.3,3.7-7.6,3.7C152.4,178.6,150,177.5,147.9,175.4z M149.4,167.2c0,2.1,0.7,3.9,2.1,5.2
		c1.4,1.3,3,2,4.8,2s3.4-0.7,4.7-2c1.3-1.4,1.9-3.1,1.9-5.2c0-2.1-0.6-3.9-1.9-5.3c-1.3-1.4-2.9-2.1-4.7-2.1c-1.9,0-3.5,0.7-4.8,2.1
		C150.1,163.3,149.4,165.1,149.4,167.2z"/>
	<path class="st1" d="M195.2,169.2h-17.5c0.1,1.6,0.9,2.9,2.2,3.9c1.4,1,2.9,1.5,4.7,1.5c2.8,0,4.9-0.9,6.4-2.6l2.7,2.9
		c-2.4,2.5-5.5,3.7-9.4,3.7c-3.1,0-5.8-1-8-3.1c-2.2-2.1-3.3-4.9-3.3-8.4s1.1-6.3,3.4-8.4c2.2-2.1,4.9-3.1,7.9-3.1
		c3,0,5.6,0.9,7.7,2.8c2.1,1.8,3.2,4.4,3.2,7.6V169.2z M177.7,165.5h12.8c0-1.9-0.6-3.3-1.8-4.3c-1.2-1-2.6-1.5-4.3-1.5
		s-3.3,0.5-4.6,1.6C178.3,162.2,177.7,163.7,177.7,165.5z"/>
	<path class="st1" d="M212,160.3c-2.3,0-4.1,0.8-5.2,2.3c-1.2,1.5-1.8,3.5-1.8,6.1v9.6h-4.7v-22.3h4.7v4.5c0.8-1.4,1.8-2.5,3.1-3.4
		c1.3-0.9,2.7-1.4,4.1-1.4l0,4.7C212.2,160.3,212.1,160.3,212,160.3z"/>
	<path class="st1" d="M226.3,169.2h-4.7v-2.6c0-1.1,0.1-2,0.4-2.5c0.3-0.5,0.8-1.3,1.7-2.2l3.1-3.1c0.6-0.7,1-1.6,1-2.6
		c0-1-0.3-1.9-1-2.6c-0.7-0.7-1.5-1-2.6-1c-1.1,0-2,0.3-2.7,1c-0.7,0.7-1.1,1.5-1.2,2.6h-5.1c0.3-2.5,1.3-4.4,2.9-5.9
		c1.7-1.4,3.7-2.1,6.2-2.1c2.5,0,4.5,0.7,6.1,2c1.6,1.4,2.4,3.3,2.4,5.7c0,1.7-0.5,3.1-1.4,4.2c-0.5,0.7-0.9,1.1-1.2,1.4
		c-0.3,0.3-0.7,0.6-1.1,1.1c-0.5,0.4-0.9,0.8-1.2,1.1c-0.3,0.3-0.6,0.6-0.8,0.8c-0.5,0.6-0.8,1.5-0.8,2.6V169.2z M224,178.5
		c-0.9,0-1.6-0.3-2.3-0.9c-0.6-0.6-1-1.3-1-2.2c0-0.9,0.3-1.6,0.9-2.2c0.6-0.6,1.4-0.9,2.3-0.9s1.6,0.3,2.3,0.9c0.6,0.6,1,1.3,1,2.2
		c0,0.9-0.3,1.6-0.9,2.2C225.6,178.2,224.9,178.5,224,178.5z"/>
</g>
</svg>
