<?xml version="1.0" encoding="utf-8"?>
<!-- Generator: Adobe Illustrator 23.0.3, SVG Export Plug-In . SVG Version: 6.00 Build 0)  -->
<svg version="1.1" id="Layer_1" xmlns="http://www.w3.org/2000/svg" xmlns:xlink="http://www.w3.org/1999/xlink" x="0px" y="0px"
	 viewBox="0 0 604.4 354.4" style="enable-background:new 0 0 604.4 354.4;" xml:space="preserve">
<style type="text/css">
	.st0{fill:url(#SVGID_1_);}
	.st1{fill:#FFFFFF;}
</style>
<linearGradient id="SVGID_1_" gradientUnits="userSpaceOnUse" x1="9.2171" y1="177.5466" x2="596.1452" y2="177.5466">
	<stop  offset="1.983173e-03" style="stop-color:#EF486C"/>
	<stop  offset="1" style="stop-color:#E04D72"/>
</linearGradient>
<path class="st0" d="M576.1,10.2H29.2c-11,0-20,9-20,20v238.7c0,11,9,20,20,20h55.1l37.9,55.9l1.6-55.9h452.3c11,0,20-9,20-20V30.2
	C596.1,19.2,587.1,10.2,576.1,10.2z"/>
<g>
	<path class="st1" d="M40.3,77.8V48.4h5v12.7h14.6V48.4h5v29.4h-5v-12H45.2v12H40.3z"/>
	<path class="st1" d="M93,68.7H75.5c0.1,1.6,0.9,2.9,2.2,3.9c1.4,1,2.9,1.5,4.7,1.5c2.8,0,4.9-0.9,6.4-2.6l2.7,2.9
		c-2.4,2.5-5.5,3.7-9.4,3.7c-3.1,0-5.8-1-8-3.1c-2.2-2.1-3.3-4.9-3.3-8.4c0-3.5,1.1-6.3,3.4-8.4c2.2-2.1,4.9-3.1,7.9-3.1
		c3,0,5.6,0.9,7.7,2.8c2.1,1.8,3.2,4.4,3.2,7.6V68.7z M75.5,65h12.8c0-1.9-0.6-3.3-1.8-4.3c-1.2-1-2.6-1.5-4.3-1.5s-3.3,0.5-4.6,1.6
		C76.2,61.8,75.5,63.2,75.5,65z"/>
	<path class="st1" d="M102.9,77.8h-4.7V46.6h4.7V77.8z"/>
	<path class="st1" d="M114.4,77.8h-4.7V46.6h4.7V77.8z"/>
	<path class="st1" d="M139.9,74.8c-2.2,2.2-5,3.3-8.4,3.3s-6.2-1.1-8.4-3.3c-2.2-2.2-3.4-4.9-3.4-8.2c0-3.2,1.1-5.9,3.4-8.2
		c2.2-2.2,5-3.3,8.4-3.3s6.2,1.1,8.4,3.3c2.2,2.2,3.4,4.9,3.4,8.2C143.3,69.8,142.1,72.6,139.9,74.8z M126.4,71.9c1.3,1.4,3,2,5.1,2
		c2,0,3.7-0.7,5.1-2c1.3-1.4,2-3.1,2-5.3c0-2.2-0.7-3.9-2-5.3c-1.3-1.4-3-2-5.1-2c-2,0-3.7,0.7-5.1,2c-1.3,1.4-2,3.1-2,5.3
		C124.4,68.8,125.1,70.5,126.4,71.9z"/>
	<path class="st1" d="M148,75.1c0-0.9,0.3-1.6,0.9-2.2c0.6-0.6,1.3-0.9,2.2-0.9c0.8,0,1.6,0.3,2.2,0.9c0.6,0.6,0.9,1.3,0.9,2.2
		s-0.4,1.9-1.1,3.1l-2.5,4.2h-2.4l1.6-4.4C148.5,77.3,148,76.4,148,75.1z"/>
	<path class="st1" d="M176.6,65.7v12.1h-4.7V46.7h4.7v12.9c0.7-1.4,1.7-2.4,3-3.2c1.4-0.8,2.8-1.2,4.4-1.2c2.5,0,4.6,0.8,6.1,2.3
		c1.6,1.5,2.3,3.8,2.3,6.7v13.7h-4.7V65.5c0-4.1-1.7-6.2-5.1-6.2c-1.6,0-3,0.5-4.2,1.6C177.2,62,176.6,63.6,176.6,65.7z"/>
	<path class="st1" d="M217.7,74.8c-2.2,2.2-5,3.3-8.4,3.3s-6.2-1.1-8.4-3.3c-2.2-2.2-3.4-4.9-3.4-8.2c0-3.2,1.1-5.9,3.4-8.2
		c2.2-2.2,5-3.3,8.4-3.3s6.2,1.1,8.4,3.3c2.2,2.2,3.4,4.9,3.4,8.2C221.1,69.8,220,72.6,217.7,74.8z M204.3,71.9c1.3,1.4,3,2,5.1,2
		c2,0,3.7-0.7,5.1-2c1.3-1.4,2-3.1,2-5.3c0-2.2-0.7-3.9-2-5.3c-1.3-1.4-3-2-5.1-2c-2,0-3.7,0.7-5.1,2c-1.3,1.4-2,3.1-2,5.3
		C202.3,68.8,202.9,70.5,204.3,71.9z"/>
	<path class="st1" d="M236.6,77.8h-5.4l-7.7-22.3h4.9l5.5,16.9l5.5-16.9h4.9l5.5,16.9l5.5-16.9h4.9l-7.7,22.3h-5.4l-5.3-15.3
		L236.6,77.8z"/>
	<path class="st1" d="M285.8,78.1c-3.1,0-5.8-1.1-8-3.2c-2.2-2.1-3.4-4.9-3.4-8.3c0-3.4,1.2-6.2,3.5-8.3c2.3-2.1,5.2-3.2,8.5-3.2
		c3.4,0,6.2,1.2,8.5,3.5l-2.8,3.4c-1.9-1.7-3.9-2.5-5.8-2.5c-2,0-3.7,0.7-5.1,2c-1.4,1.3-2.2,3-2.2,5c0,2.1,0.7,3.8,2.1,5.2
		c1.4,1.4,3.2,2.1,5.3,2.1s4.1-1,5.9-2.9l2.8,3C292.5,76.8,289.4,78.1,285.8,78.1z"/>
	<path class="st1" d="M318.1,77.8h-4.3v-3c-1.8,2.2-4.3,3.3-7.4,3.3c-2.3,0-4.2-0.7-5.8-2c-1.5-1.3-2.3-3.1-2.3-5.3
		c0-2.2,0.8-3.8,2.4-4.9c1.6-1.1,3.8-1.6,6.6-1.6h6.1v-0.8c0-3-1.7-4.5-5-4.5c-2.1,0-4.2,0.8-6.5,2.3l-2.1-2.9
		c2.7-2.2,5.8-3.2,9.2-3.2c2.6,0,4.8,0.7,6.4,2c1.7,1.3,2.5,3.4,2.5,6.3V77.8z M313.3,69.5v-1.9h-5.3c-3.4,0-5.1,1.1-5.1,3.2
		c0,1.1,0.4,1.9,1.3,2.5c0.8,0.6,2,0.9,3.5,0.9s2.8-0.4,3.9-1.3C312.8,72,313.3,70.9,313.3,69.5z"/>
	<path class="st1" d="M329.3,65.7v12.1h-4.7V55.4h4.7v4.1c0.8-1.4,1.8-2.4,3.1-3.2c1.3-0.8,2.8-1.2,4.3-1.2c2.5,0,4.6,0.8,6.1,2.3
		c1.6,1.5,2.3,3.8,2.3,6.7v13.7h-4.7V65.5c0-4.1-1.7-6.2-5.1-6.2c-1.6,0-3,0.5-4.2,1.6C329.9,62,329.3,63.6,329.3,65.7z"/>
	<path class="st1" d="M363.9,48.4h5v29.4h-5V48.4z"/>
	<path class="st1" d="M392.6,65.7v12.1h-4.7V46.7h4.7v12.9c0.7-1.4,1.7-2.4,3-3.2c1.4-0.8,2.8-1.2,4.4-1.2c2.5,0,4.6,0.8,6.1,2.3
		c1.6,1.5,2.3,3.8,2.3,6.7v13.7h-4.7V65.5c0-4.1-1.7-6.2-5.1-6.2c-1.6,0-3,0.5-4.2,1.6C393.2,62,392.6,63.6,392.6,65.7z"/>
	<path class="st1" d="M435.8,68.7h-17.5c0.1,1.6,0.9,2.9,2.2,3.9c1.4,1,2.9,1.5,4.7,1.5c2.8,0,4.9-0.9,6.4-2.6l2.7,2.9
		c-2.4,2.5-5.5,3.7-9.4,3.7c-3.1,0-5.8-1-8-3.1c-2.2-2.1-3.3-4.9-3.3-8.4c0-3.5,1.1-6.3,3.4-8.4c2.2-2.1,4.9-3.1,7.9-3.1
		s5.6,0.9,7.8,2.8c2.1,1.8,3.2,4.4,3.2,7.6V68.7z M418.3,65h12.8c0-1.9-0.6-3.3-1.8-4.3c-1.2-1-2.6-1.5-4.3-1.5
		c-1.7,0-3.3,0.5-4.6,1.6C418.9,61.8,418.3,63.2,418.3,65z"/>
	<path class="st1" d="M445.6,77.8h-4.7V46.6h4.7V77.8z"/>
	<path class="st1" d="M464.4,55.1c3,0,5.6,1,7.7,3.1c2.1,2.1,3.2,4.8,3.2,8.3c0,3.4-1.1,6.2-3.2,8.4c-2.1,2.2-4.6,3.2-7.4,3.2
		c-2.8,0-5.3-1.2-7.6-3.7v11.5h-4.7V55.4h4.7v3.9C459,56.5,461.4,55.1,464.4,55.1z M457.1,66.7c0,2.1,0.6,3.9,1.9,5.2
		c1.3,1.4,2.9,2,4.7,2s3.5-0.7,4.8-2c1.4-1.3,2.1-3.1,2.1-5.2s-0.7-3.9-2-5.3c-1.3-1.4-3-2.1-4.8-2.1s-3.5,0.7-4.7,2.1
		C457.7,62.8,457.1,64.5,457.1,66.7z"/>
	<path class="st1" d="M42.4,137.1c-2,0-3.9-0.7-5.5-2.2L39,131c1,0.9,2,1.4,3,1.4c1.1,0,1.9-0.4,2.6-1.1c0.7-0.8,1-1.6,1-2.5
		c0-0.4-3-8-9-23h5l6.7,16.5l6.7-16.5h5l-10.8,26.5c-0.6,1.5-1.6,2.6-2.8,3.4C45.2,136.7,43.9,137.1,42.4,137.1z"/>
	<path class="st1" d="M82,125.2c-2.2,2.2-5,3.3-8.4,3.3s-6.2-1.1-8.4-3.3c-2.2-2.2-3.4-4.9-3.4-8.2c0-3.2,1.1-5.9,3.4-8.2
		c2.2-2.2,5-3.3,8.4-3.3s6.2,1.1,8.4,3.3c2.2,2.2,3.4,4.9,3.4,8.2C85.4,120.2,84.3,123,82,125.2z M68.6,122.3c1.3,1.4,3,2,5.1,2
		c2,0,3.7-0.7,5.1-2c1.3-1.4,2-3.1,2-5.3c0-2.2-0.7-3.9-2-5.3c-1.3-1.4-3-2-5.1-2c-2,0-3.7,0.7-5.1,2c-1.3,1.4-2,3.1-2,5.3
		C66.6,119.2,67.2,120.9,68.6,122.3z"/>
	<path class="st1" d="M106.3,117.9v-12.1h4.7v22.3h-4.7v-4.1c-0.8,1.4-1.8,2.5-3.1,3.2c-1.3,0.8-2.8,1.2-4.3,1.2
		c-2.5,0-4.6-0.8-6.1-2.3c-1.6-1.5-2.3-3.8-2.3-6.7v-13.7h4.7v12.3c0,4.1,1.7,6.2,5.1,6.2c1.6,0,3-0.5,4.2-1.6
		C105.7,121.6,106.3,120,106.3,117.9z"/>
	<path class="st1" d="M135.1,109.6V121c0,1.1,0.3,1.9,0.8,2.5c0.6,0.6,1.3,0.9,2.4,0.9c1,0,2-0.5,2.9-1.5l1.9,3.3
		c-1.7,1.5-3.5,2.2-5.5,2.2s-3.7-0.7-5.1-2.1c-1.4-1.4-2.1-3.3-2.1-5.6v-11.2h-2.8v-3.8h2.8v-7h4.7v7h5.9v3.8H135.1z"/>
	<path class="st1" d="M165.4,125.2c-2.2,2.2-5,3.3-8.4,3.3s-6.2-1.1-8.4-3.3c-2.2-2.2-3.4-4.9-3.4-8.2c0-3.2,1.1-5.9,3.4-8.2
		c2.2-2.2,5-3.3,8.4-3.3s6.2,1.1,8.4,3.3c2.2,2.2,3.4,4.9,3.4,8.2C168.8,120.2,167.7,123,165.4,125.2z M152,122.3c1.3,1.4,3,2,5.1,2
		c2,0,3.7-0.7,5.1-2c1.3-1.4,2-3.1,2-5.3c0-2.2-0.7-3.9-2-5.3c-1.3-1.4-3-2-5.1-2c-2,0-3.7,0.7-5.1,2c-1.3,1.4-2,3.1-2,5.3
		C150,119.2,150.6,120.9,152,122.3z"/>
	<path class="st1" d="M175.8,125.3c-2.1-2.1-3.1-4.9-3.1-8.4c0-3.5,1.1-6.2,3.2-8.3c2.2-2.1,4.7-3.1,7.7-3.1s5.4,1.3,7.2,3.8V97h4.7
		v31.2h-4.7v-3.4c-1.7,2.5-4.3,3.7-7.6,3.7C180.4,128.5,177.9,127.5,175.8,125.3z M177.4,117.1c0,2.1,0.7,3.9,2.1,5.2
		c1.4,1.3,3,2,4.8,2s3.4-0.7,4.7-2c1.3-1.4,1.9-3.1,1.9-5.2c0-2.1-0.6-3.9-1.9-5.3c-1.3-1.4-2.9-2.1-4.7-2.1c-1.9,0-3.5,0.7-4.8,2.1
		C178.1,113.2,177.4,115,177.4,117.1z"/>
	<path class="st1" d="M220.4,128.2h-4.3v-3c-1.8,2.2-4.3,3.3-7.4,3.3c-2.3,0-4.2-0.7-5.8-2c-1.5-1.3-2.3-3.1-2.3-5.3
		c0-2.2,0.8-3.8,2.4-4.9c1.6-1.1,3.8-1.6,6.6-1.6h6.1v-0.8c0-3-1.7-4.5-5-4.5c-2.1,0-4.2,0.8-6.5,2.3l-2.1-2.9
		c2.7-2.2,5.8-3.2,9.2-3.2c2.6,0,4.8,0.7,6.4,2c1.7,1.3,2.5,3.4,2.5,6.3V128.2z M215.7,119.9V118h-5.3c-3.4,0-5.1,1.1-5.1,3.2
		c0,1.1,0.4,1.9,1.3,2.5c0.8,0.6,2,0.9,3.5,0.9c1.5,0,2.8-0.4,3.9-1.3C215.2,122.4,215.7,121.3,215.7,119.9z"/>
	<path class="st1" d="M229.6,137.1c-2,0-3.9-0.7-5.5-2.2l2.1-3.8c1,0.9,2,1.4,3,1.4c1.1,0,1.9-0.4,2.6-1.1c0.7-0.8,1-1.6,1-2.5
		c0-0.4-3-8-9-23h5l6.7,16.5l6.7-16.5h5l-10.8,26.5c-0.6,1.5-1.6,2.6-2.8,3.4C232.3,136.7,231,137.1,229.6,137.1z"/>
	<path class="st1" d="M260.1,119.1h-4.7v-2.6c0-1.1,0.1-2,0.4-2.5c0.3-0.5,0.8-1.3,1.7-2.2l3.1-3.1c0.6-0.7,1-1.6,1-2.6
		c0-1-0.3-1.9-1-2.6s-1.5-1-2.6-1c-1.1,0-2,0.3-2.7,1c-0.7,0.7-1.1,1.5-1.2,2.6H249c0.3-2.5,1.3-4.4,2.9-5.9
		c1.7-1.4,3.7-2.1,6.2-2.1c2.5,0,4.5,0.7,6.1,2c1.6,1.4,2.4,3.3,2.4,5.7c0,1.7-0.5,3.1-1.4,4.2c-0.5,0.7-0.9,1.1-1.2,1.4
		c-0.3,0.3-0.7,0.6-1.1,1.1c-0.5,0.4-0.9,0.8-1.2,1.1s-0.6,0.6-0.8,0.8c-0.5,0.6-0.8,1.5-0.8,2.6V119.1z M257.8,128.4
		c-0.9,0-1.6-0.3-2.3-0.9c-0.6-0.6-1-1.3-1-2.2c0-0.9,0.3-1.6,0.9-2.2c0.6-0.6,1.4-0.9,2.3-0.9s1.6,0.3,2.3,0.9c0.6,0.6,1,1.3,1,2.2
		c0,0.9-0.3,1.6-0.9,2.2C259.5,128.1,258.7,128.4,257.8,128.4z"/>
</g>
</svg>
