<?xml version="1.0" encoding="utf-8"?>
<!-- Generator: Adobe Illustrator 23.0.3, SVG Export Plug-In . SVG Version: 6.00 Build 0)  -->
<svg version="1.1" id="Layer_1" xmlns="http://www.w3.org/2000/svg" xmlns:xlink="http://www.w3.org/1999/xlink" x="0px" y="0px"
	 viewBox="0 0 604.4 354.4" style="enable-background:new 0 0 604.4 354.4;" xml:space="preserve">
<style type="text/css">
	.st0{fill:url(#SVGID_1_);}
	.st1{fill:#FFFFFF;}
</style>
<linearGradient id="SVGID_1_" gradientUnits="userSpaceOnUse" x1="-6003.7563" y1="177.2222" x2="-5416.8281" y2="177.2222" gradientTransform="matrix(-1 0 0 1 -5408.0703 0)">
	<stop  offset="0" style="stop-color:#5264AC"/>
	<stop  offset="1" style="stop-color:#4E64AE"/>
</linearGradient>
<path class="st0" d="M28.8,9.9h546.9c11,0,20,9,20,20v238.7c0,11-9,20-20,20h-55.1l-37.9,55.9l-1.6-55.9H28.8c-11,0-20-9-20-20V29.9
	C8.8,18.9,17.8,9.9,28.8,9.9z"/>
<g>
	<path class="st1" d="M39.8,48.1h5v29.4h-5V48.1z"/>
	<path class="st1" d="M74.2,77.5h-5.4l-7.7-22.3H66L71.5,72l5.5-16.9h4.9L87.5,72L93,55.1h4.9l-7.7,22.3h-5.4l-5.3-15.3L74.2,77.5z"
		/>
	<path class="st1" d="M120.4,74.5c-2.2,2.2-5,3.3-8.4,3.3s-6.2-1.1-8.4-3.3c-2.2-2.2-3.4-4.9-3.4-8.2c0-3.2,1.1-5.9,3.4-8.2
		c2.2-2.2,5-3.3,8.4-3.3s6.2,1.1,8.4,3.3c2.2,2.2,3.4,4.9,3.4,8.2C123.8,69.5,122.7,72.2,120.4,74.5z M107,71.6c1.3,1.4,3,2,5.1,2
		c2,0,3.7-0.7,5.1-2c1.3-1.4,2-3.1,2-5.3c0-2.2-0.7-3.9-2-5.3c-1.3-1.4-3-2-5.1-2c-2,0-3.7,0.7-5.1,2c-1.3,1.4-2,3.1-2,5.3
		C105,68.5,105.7,70.2,107,71.6z"/>
	<path class="st1" d="M144.8,67.2V55.1h4.7v22.3h-4.7v-4.1c-0.8,1.4-1.8,2.5-3.1,3.2c-1.3,0.8-2.8,1.2-4.3,1.2
		c-2.5,0-4.6-0.8-6.1-2.3s-2.3-3.8-2.3-6.7V55.1h4.7v12.3c0,4.1,1.7,6.2,5.1,6.2c1.6,0,3-0.5,4.2-1.6
		C144.2,70.9,144.8,69.3,144.8,67.2z"/>
	<path class="st1" d="M161,77.5h-4.7V46.3h4.7V77.5z"/>
	<path class="st1" d="M169.5,74.6c-2.1-2.1-3.1-4.9-3.1-8.4c0-3.5,1.1-6.2,3.2-8.3c2.2-2.1,4.7-3.1,7.7-3.1s5.4,1.3,7.2,3.8V46.3
		h4.7v31.2h-4.7v-3.4c-1.7,2.5-4.3,3.7-7.6,3.7C174.1,77.8,171.6,76.7,169.5,74.6z M171.1,66.4c0,2.1,0.7,3.9,2.1,5.2
		c1.4,1.3,3,2,4.8,2s3.4-0.7,4.7-2c1.3-1.4,1.9-3.1,1.9-5.2c0-2.1-0.6-3.9-1.9-5.3c-1.3-1.4-2.9-2.1-4.7-2.1c-1.9,0-3.5,0.7-4.8,2.1
		C171.7,62.5,171.1,64.3,171.1,66.4z"/>
	<path class="st1" d="M212.2,77.5h-4.7V46.3h4.7V77.5z"/>
	<path class="st1" d="M219.3,50.7c-0.6-0.6-0.9-1.3-0.9-2.1s0.3-1.5,0.9-2.1c0.6-0.6,1.3-0.9,2.1-0.9c0.8,0,1.5,0.3,2.1,0.9
		s0.9,1.3,0.9,2.1s-0.3,1.5-0.9,2.1s-1.3,0.9-2.1,0.9C220.6,51.6,219.9,51.3,219.3,50.7z M223.7,77.5H219V55.1h4.7V77.5z"/>
	<path class="st1" d="M235.2,77.5h-4.7V46.3h4.7v18.3l9.1-9.5h6l-8.5,8.9l9.1,13.5h-5.7l-6.6-9.8l-3.4,3.4V77.5z"/>
	<path class="st1" d="M275.7,68.4h-17.5c0.1,1.6,0.9,2.9,2.2,3.9c1.4,1,2.9,1.5,4.7,1.5c2.8,0,4.9-0.9,6.4-2.6l2.7,2.9
		c-2.4,2.5-5.5,3.7-9.4,3.7c-3.1,0-5.8-1-8-3.1c-2.2-2.1-3.3-4.9-3.3-8.4s1.1-6.3,3.4-8.4c2.2-2.1,4.9-3.1,7.9-3.1
		c3,0,5.6,0.9,7.7,2.8c2.1,1.8,3.2,4.4,3.2,7.6V68.4z M258.2,64.7H271c0-1.9-0.6-3.3-1.8-4.3c-1.2-1-2.6-1.5-4.3-1.5
		s-3.3,0.5-4.6,1.6C258.9,61.4,258.2,62.9,258.2,64.7z"/>
	<path class="st1" d="M298.2,58.9v11.3c0,1.1,0.3,1.9,0.8,2.5c0.6,0.6,1.3,0.9,2.4,0.9c1,0,2-0.5,2.9-1.5l1.9,3.3
		c-1.7,1.5-3.5,2.2-5.5,2.2s-3.7-0.7-5.1-2.1c-1.4-1.4-2.1-3.3-2.1-5.6V58.9h-2.8v-3.8h2.8v-7h4.7v7h5.9v3.8H298.2z"/>
	<path class="st1" d="M328.5,74.5c-2.2,2.2-5,3.3-8.4,3.3c-3.4,0-6.2-1.1-8.4-3.3c-2.2-2.2-3.4-4.9-3.4-8.2c0-3.2,1.1-5.9,3.4-8.2
		s5-3.3,8.4-3.3c3.4,0,6.2,1.1,8.4,3.3c2.2,2.2,3.4,4.9,3.4,8.2C331.8,69.5,330.7,72.2,328.5,74.5z M315,71.6c1.3,1.4,3,2,5.1,2
		c2,0,3.7-0.7,5.1-2s2-3.1,2-5.3c0-2.2-0.7-3.9-2-5.3s-3-2-5.1-2c-2,0-3.7,0.7-5.1,2c-1.3,1.4-2,3.1-2,5.3
		C313,68.5,313.7,70.2,315,71.6z"/>
	<path class="st1" d="M354.5,53.3v1.8h5.9v3.8h-5.9v18.6h-4.7V58.9H347v-3.8h2.8v-1.7c0-2.4,0.7-4.2,2.1-5.6
		c1.4-1.4,3.1-2.1,5.1-2.1s3.8,0.7,5.5,2.2l-1.9,3.3c-0.9-1-1.9-1.5-2.9-1.5c-1,0-1.8,0.3-2.4,0.9S354.5,52.2,354.5,53.3z"/>
	<path class="st1" d="M365.2,50.7c-0.6-0.6-0.9-1.3-0.9-2.1s0.3-1.5,0.9-2.1c0.6-0.6,1.3-0.9,2.1-0.9c0.8,0,1.5,0.3,2.1,0.9
		s0.9,1.3,0.9,2.1s-0.3,1.5-0.9,2.1s-1.3,0.9-2.1,0.9C366.5,51.6,365.8,51.3,365.2,50.7z M369.6,77.5h-4.7V55.1h4.7V77.5z"/>
	<path class="st1" d="M381.1,65.4v12.1h-4.7V55.1h4.7v4.1c0.8-1.4,1.8-2.5,3.1-3.2c1.3-0.8,2.8-1.2,4.3-1.2c2.5,0,4.6,0.8,6.1,2.3
		c1.6,1.5,2.3,3.8,2.3,6.7v13.7h-4.7V65.2c0-4.1-1.7-6.2-5.1-6.2c-1.6,0-3,0.5-4.2,1.6C381.7,61.7,381.1,63.3,381.1,65.4z"/>
	<path class="st1" d="M405.2,74.6c-2.1-2.1-3.2-4.9-3.2-8.4c0-3.5,1.1-6.2,3.2-8.3c2.2-2.1,4.7-3.1,7.7-3.1c3,0,5.4,1.3,7.2,3.8
		V46.3h4.7v31.2h-4.7v-3.4c-1.7,2.5-4.3,3.7-7.6,3.7C409.8,77.8,407.3,76.7,405.2,74.6z M406.8,66.4c0,2.1,0.7,3.9,2.1,5.2
		c1.4,1.3,3,2,4.8,2s3.4-0.7,4.7-2s1.9-3.1,1.9-5.2c0-2.1-0.6-3.9-1.9-5.3s-2.9-2.1-4.7-2.1s-3.5,0.7-4.8,2.1
		C407.5,62.5,406.8,64.3,406.8,66.4z"/>
	<path class="st1" d="M461.9,74.5c-2.2,2.2-5,3.3-8.4,3.3s-6.2-1.1-8.4-3.3c-2.2-2.2-3.4-4.9-3.4-8.2c0-3.2,1.1-5.9,3.4-8.2
		s5-3.3,8.4-3.3s6.2,1.1,8.4,3.3c2.2,2.2,3.4,4.9,3.4,8.2C465.3,69.5,464.2,72.2,461.9,74.5z M448.5,71.6c1.3,1.4,3,2,5.1,2
		c2,0,3.7-0.7,5.1-2s2-3.1,2-5.3c0-2.2-0.7-3.9-2-5.3s-3-2-5.1-2c-2,0-3.7,0.7-5.1,2c-1.3,1.4-2,3.1-2,5.3
		C446.5,68.5,447.2,70.2,448.5,71.6z"/>
	<path class="st1" d="M486.3,67.2V55.1h4.7v22.3h-4.7v-4.1c-0.8,1.4-1.8,2.5-3.1,3.2c-1.3,0.8-2.8,1.2-4.3,1.2
		c-2.5,0-4.6-0.8-6.1-2.3s-2.3-3.8-2.3-6.7V55.1h4.7v12.3c0,4.1,1.7,6.2,5.1,6.2c1.6,0,3-0.5,4.2-1.6
		C485.7,70.9,486.3,69.3,486.3,67.2z"/>
	<path class="st1" d="M503.6,58.9v11.3c0,1.1,0.3,1.9,0.8,2.5s1.3,0.9,2.4,0.9c1,0,2-0.5,2.9-1.5l1.9,3.3c-1.7,1.5-3.5,2.2-5.5,2.2
		s-3.7-0.7-5.1-2.1c-1.4-1.4-2.1-3.3-2.1-5.6V58.9H496v-3.8h2.8v-7h4.7v7h5.9v3.8H503.6z"/>
	<path class="st1" d="M527.1,50.7c-0.6-0.6-0.9-1.3-0.9-2.1s0.3-1.5,0.9-2.1c0.6-0.6,1.3-0.9,2.1-0.9c0.8,0,1.5,0.3,2.1,0.9
		s0.9,1.3,0.9,2.1s-0.3,1.5-0.9,2.1s-1.3,0.9-2.1,0.9C528.4,51.6,527.7,51.3,527.1,50.7z M531.5,77.5h-4.7V55.1h4.7V77.5z"/>
	<path class="st1" d="M544.1,53.3v1.8h5.9v3.8h-5.9v18.6h-4.7V58.9h-2.8v-3.8h2.8v-1.7c0-2.4,0.7-4.2,2.1-5.6
		c1.4-1.4,3.1-2.1,5.1-2.1s3.8,0.7,5.5,2.2l-1.9,3.3c-0.9-1-1.9-1.5-2.9-1.5c-1,0-1.8,0.3-2.4,0.9C544.4,51.4,544.1,52.2,544.1,53.3
		z"/>
	<path class="st1" d="M42,136.8c-2,0-3.9-0.7-5.5-2.2l2.1-3.8c1,0.9,2,1.4,3,1.4c1.1,0,1.9-0.4,2.6-1.1c0.7-0.8,1-1.6,1-2.5
		c0-0.4-3-8-9-23h5l6.7,16.5l6.7-16.5h5l-10.8,26.5c-0.6,1.5-1.6,2.6-2.8,3.4C44.7,136.4,43.4,136.8,42,136.8z"/>
	<path class="st1" d="M81.6,124.9c-2.2,2.2-5,3.3-8.4,3.3s-6.2-1.1-8.4-3.3c-2.2-2.2-3.4-4.9-3.4-8.2s1.1-5.9,3.4-8.2
		c2.2-2.2,5-3.3,8.4-3.3s6.2,1.1,8.4,3.3c2.2,2.2,3.4,4.9,3.4,8.2S83.8,122.6,81.6,124.9z M68.1,122c1.3,1.4,3,2,5.1,2
		c2,0,3.7-0.7,5.1-2c1.3-1.4,2-3.1,2-5.3s-0.7-3.9-2-5.3c-1.3-1.4-3-2-5.1-2c-2,0-3.7,0.7-5.1,2c-1.3,1.4-2,3.1-2,5.3
		S66.8,120.6,68.1,122z"/>
	<path class="st1" d="M105.9,117.6v-12.1h4.7v22.3h-4.7v-4.1c-0.8,1.4-1.8,2.5-3.1,3.2c-1.3,0.8-2.8,1.2-4.3,1.2
		c-2.5,0-4.6-0.8-6.1-2.3c-1.6-1.5-2.3-3.8-2.3-6.7v-13.7h4.7v12.3c0,4.1,1.7,6.2,5.1,6.2c1.6,0,3-0.5,4.2-1.6
		C105.3,121.3,105.9,119.7,105.9,117.6z"/>
	<path class="st1" d="M147,127.9h-4.3v-3c-1.8,2.2-4.3,3.3-7.4,3.3c-2.3,0-4.2-0.7-5.8-2c-1.5-1.3-2.3-3.1-2.3-5.3s0.8-3.8,2.4-4.9
		c1.6-1.1,3.8-1.6,6.6-1.6h6.1v-0.8c0-3-1.7-4.5-5-4.5c-2.1,0-4.2,0.8-6.5,2.3l-2.1-2.9c2.7-2.2,5.8-3.2,9.2-3.2
		c2.6,0,4.8,0.7,6.4,2c1.7,1.3,2.5,3.4,2.5,6.3V127.9z M142.3,119.6v-1.9H137c-3.4,0-5.1,1.1-5.1,3.2c0,1.1,0.4,1.9,1.3,2.5
		c0.8,0.6,2,0.9,3.5,0.9c1.5,0,2.8-0.4,3.9-1.3C141.7,122.1,142.3,121,142.3,119.6z"/>
	<path class="st1" d="M163.5,128.2c-3.1,0-5.8-1.1-8-3.2c-2.2-2.1-3.4-4.9-3.4-8.3s1.2-6.2,3.5-8.3c2.3-2.1,5.2-3.2,8.5-3.2
		c3.4,0,6.2,1.2,8.5,3.5l-2.8,3.4c-1.9-1.7-3.9-2.5-5.8-2.5c-2,0-3.7,0.7-5.1,2c-1.4,1.3-2.2,3-2.2,5s0.7,3.8,2.1,5.2
		c1.4,1.4,3.2,2.1,5.3,2.1s4.1-1,5.9-2.9l2.8,3C170.1,126.8,167,128.2,163.5,128.2z"/>
	<path class="st1" d="M187.6,128.2c-3.1,0-5.8-1.1-8-3.2c-2.2-2.1-3.4-4.9-3.4-8.3s1.2-6.2,3.5-8.3c2.3-2.1,5.2-3.2,8.5-3.2
		c3.4,0,6.2,1.2,8.5,3.5l-2.8,3.4c-1.9-1.7-3.9-2.5-5.8-2.5c-2,0-3.7,0.7-5.1,2c-1.4,1.3-2.2,3-2.2,5s0.7,3.8,2.1,5.2
		c1.4,1.4,3.2,2.1,5.3,2.1s4.1-1,5.9-2.9l2.8,3C194.3,126.8,191.2,128.2,187.6,128.2z"/>
	<path class="st1" d="M222.7,118.8h-17.5c0.1,1.6,0.9,2.9,2.2,3.9c1.4,1,2.9,1.5,4.7,1.5c2.8,0,4.9-0.9,6.4-2.6l2.7,2.9
		c-2.4,2.5-5.5,3.7-9.4,3.7c-3.1,0-5.8-1-8-3.1c-2.2-2.1-3.3-4.9-3.3-8.4c0-3.5,1.1-6.3,3.4-8.4c2.2-2.1,4.9-3.1,7.9-3.1
		c3,0,5.6,0.9,7.7,2.8c2.1,1.8,3.2,4.4,3.2,7.6V118.8z M205.2,115.1H218c0-1.9-0.6-3.3-1.8-4.3c-1.2-1-2.6-1.5-4.3-1.5
		s-3.3,0.5-4.6,1.6C205.9,111.8,205.2,113.3,205.2,115.1z"/>
	<path class="st1" d="M239.9,105.2c3,0,5.6,1,7.7,3.1c2.1,2.1,3.2,4.8,3.2,8.3c0,3.4-1.1,6.2-3.2,8.4c-2.1,2.2-4.6,3.2-7.4,3.2
		s-5.3-1.2-7.6-3.7V136h-4.7v-30.5h4.7v3.9C234.4,106.6,236.9,105.2,239.9,105.2z M232.5,116.7c0,2.1,0.6,3.9,1.9,5.2
		c1.3,1.4,2.9,2,4.7,2c1.8,0,3.5-0.7,4.8-2c1.4-1.3,2.1-3.1,2.1-5.2c0-2.1-0.7-3.9-2-5.3c-1.3-1.4-3-2.1-4.8-2.1
		c-1.9,0-3.5,0.7-4.7,2.1C233.1,112.8,232.5,114.6,232.5,116.7z"/>
	<path class="st1" d="M261.9,109.3v11.3c0,1.1,0.3,1.9,0.8,2.5c0.6,0.6,1.3,0.9,2.4,0.9c1,0,2-0.5,2.9-1.5l1.9,3.3
		c-1.7,1.5-3.5,2.2-5.5,2.2s-3.7-0.7-5.1-2.1c-1.4-1.4-2.1-3.3-2.1-5.6v-11.2h-2.8v-3.8h2.8v-7h4.7v7h5.9v3.8H261.9z"/>
	<path class="st1" d="M289.9,115.8v12.1h-4.7v-22.3h4.7v4.1c0.7-1.4,1.7-2.4,3-3.2c1.4-0.8,2.8-1.2,4.4-1.2c3.5,0,5.9,1.5,7.2,4.4
		c2.2-2.9,5-4.4,8.3-4.4c2.5,0,4.6,0.8,6.1,2.3c1.6,1.5,2.3,3.8,2.3,6.7v13.7h-4.7v-12.3c0-4.1-1.7-6.2-5.1-6.2
		c-1.6,0-3,0.5-4.2,1.5c-1.2,1-1.8,2.5-1.9,4.5v12.4h-4.7v-12.3c0-2.1-0.4-3.7-1.1-4.7c-0.8-1-1.9-1.5-3.6-1.5c-1.6,0-3,0.5-4.2,1.6
		C290.5,112.1,289.9,113.7,289.9,115.8z"/>
	<path class="st1" d="M330.6,136.8c-2,0-3.9-0.7-5.5-2.2l2.1-3.8c1,0.9,2,1.4,3,1.4c1,0,1.9-0.4,2.6-1.1c0.7-0.8,1-1.6,1-2.5
		c0-0.4-3-8-9-23h5l6.7,16.5l6.7-16.5h5l-10.8,26.5c-0.6,1.5-1.6,2.6-2.8,3.4S332,136.8,330.6,136.8z"/>
	<path class="st1" d="M39.4,151.5c-0.6-0.6-0.9-1.3-0.9-2.1s0.3-1.5,0.9-2.1c0.6-0.6,1.3-0.9,2.1-0.9c0.8,0,1.5,0.3,2.1,0.9
		s0.9,1.3,0.9,2.1s-0.3,1.5-0.9,2.1s-1.3,0.9-2.1,0.9C40.7,152.4,40,152.1,39.4,151.5z M43.8,178.3h-4.7v-22.3h4.7V178.3z"/>
	<path class="st1" d="M55.3,166.2v12.1h-4.7v-22.3h4.7v4.1c0.8-1.4,1.8-2.5,3.1-3.2c1.3-0.8,2.8-1.2,4.3-1.2c2.5,0,4.6,0.8,6.1,2.3
		c1.6,1.5,2.3,3.8,2.3,6.7v13.7h-4.7V166c0-4.1-1.7-6.2-5.1-6.2c-1.6,0-3,0.5-4.2,1.6C56,162.5,55.3,164.1,55.3,166.2z"/>
	<path class="st1" d="M93.7,171.6c0,2.1-0.8,3.8-2.3,5.1c-1.5,1.3-3.5,1.9-5.9,1.9c-1.6,0-3.3-0.3-5.1-0.9c-1.8-0.6-3.3-1.4-4.6-2.5
		l2.3-3.7c2.6,2,5.1,2.9,7.6,2.9c1.1,0,1.9-0.2,2.5-0.7c0.6-0.5,0.9-1.1,0.9-1.9c0-1.1-1.5-2.1-4.5-3c-0.2-0.1-0.4-0.1-0.5-0.2
		c-4.6-1.3-7-3.4-7-6.3c0-2.1,0.8-3.7,2.4-5c1.6-1.2,3.7-1.9,6.3-1.9s5,0.8,7.3,2.3l-1.8,3.5c-1.8-1.2-3.8-1.8-5.9-1.8
		c-1.1,0-2,0.2-2.7,0.6c-0.7,0.4-1,1-1,1.8c0,0.7,0.4,1.3,1.1,1.6c0.5,0.3,1.2,0.5,2.1,0.7c0.9,0.2,1.7,0.4,2.4,0.7
		c0.7,0.2,1.4,0.5,2,0.8c0.7,0.3,1.4,0.7,2.1,1.2C92.9,167.9,93.7,169.5,93.7,171.6z"/>
	<path class="st1" d="M114.7,168v-12.1h4.7v22.3h-4.7v-4.1c-0.8,1.4-1.8,2.5-3.1,3.2c-1.3,0.8-2.8,1.2-4.3,1.2
		c-2.5,0-4.6-0.8-6.1-2.3s-2.3-3.8-2.3-6.7v-13.7h4.7v12.3c0,4.1,1.7,6.2,5.1,6.2c1.6,0,3-0.5,4.2-1.6
		C114,171.7,114.7,170.1,114.7,168z"/>
	<path class="st1" d="M137.9,160.3c-2.3,0-4.1,0.8-5.2,2.3c-1.2,1.5-1.8,3.5-1.8,6.1v9.6h-4.7v-22.3h4.7v4.5
		c0.8-1.4,1.8-2.5,3.1-3.4c1.3-0.9,2.7-1.4,4.1-1.4l0,4.7C138,160.3,138,160.3,137.9,160.3z"/>
	<path class="st1" d="M160.7,178.3h-4.3v-3c-1.8,2.2-4.3,3.3-7.4,3.3c-2.3,0-4.2-0.7-5.8-2c-1.5-1.3-2.3-3.1-2.3-5.3
		c0-2.2,0.8-3.8,2.4-4.9c1.6-1.1,3.8-1.6,6.6-1.6h6.1v-0.8c0-3-1.7-4.5-5-4.5c-2.1,0-4.2,0.8-6.5,2.3l-2.1-2.9
		c2.7-2.2,5.8-3.2,9.2-3.2c2.6,0,4.8,0.7,6.4,2c1.7,1.3,2.5,3.4,2.5,6.3V178.3z M156,170v-1.9h-5.3c-3.4,0-5.1,1.1-5.1,3.2
		c0,1.1,0.4,1.9,1.3,2.5c0.8,0.6,2,0.9,3.5,0.9c1.5,0,2.8-0.4,3.9-1.3C155.5,172.5,156,171.4,156,170z"/>
	<path class="st1" d="M172,166.2v12.1h-4.7v-22.3h4.7v4.1c0.8-1.4,1.8-2.5,3.1-3.2c1.3-0.8,2.8-1.2,4.3-1.2c2.5,0,4.6,0.8,6.1,2.3
		c1.6,1.5,2.3,3.8,2.3,6.7v13.7h-4.7V166c0-4.1-1.7-6.2-5.1-6.2c-1.6,0-3,0.5-4.2,1.6C172.6,162.5,172,164.1,172,166.2z"/>
	<path class="st1" d="M204.3,178.6c-3.1,0-5.8-1.1-8-3.2c-2.2-2.1-3.4-4.9-3.4-8.3c0-3.4,1.2-6.2,3.5-8.3c2.3-2.1,5.2-3.2,8.5-3.2
		c3.4,0,6.2,1.2,8.5,3.5l-2.8,3.4c-1.9-1.7-3.9-2.5-5.8-2.5c-2,0-3.7,0.7-5.1,2c-1.4,1.3-2.2,3-2.2,5c0,2.1,0.7,3.8,2.1,5.2
		c1.4,1.4,3.2,2.1,5.3,2.1s4.1-1,5.9-2.9l2.8,3C211,177.2,207.9,178.6,204.3,178.6z"/>
	<path class="st1" d="M239.4,169.2h-17.5c0.1,1.6,0.9,2.9,2.2,3.9c1.4,1,2.9,1.5,4.7,1.5c2.8,0,4.9-0.9,6.4-2.6l2.7,2.9
		c-2.4,2.5-5.5,3.7-9.4,3.7c-3.1,0-5.8-1-8-3.1c-2.2-2.1-3.3-4.9-3.3-8.4s1.1-6.3,3.4-8.4c2.2-2.1,4.9-3.1,7.9-3.1
		c3,0,5.6,0.9,7.7,2.8c2.1,1.8,3.2,4.4,3.2,7.6V169.2z M221.9,165.5h12.8c0-1.9-0.6-3.3-1.8-4.3c-1.2-1-2.6-1.5-4.3-1.5
		s-3.3,0.5-4.6,1.6C222.6,162.2,221.9,163.7,221.9,165.5z"/>
	<path class="st1" d="M244.8,177.7c-0.6-0.6-0.9-1.4-0.9-2.2s0.3-1.6,0.9-2.2c0.6-0.6,1.3-0.9,2.2-0.9c0.9,0,1.6,0.3,2.2,0.9
		c0.6,0.6,0.9,1.3,0.9,2.2s-0.3,1.6-0.9,2.2c-0.6,0.6-1.4,0.9-2.2,0.9C246.2,178.6,245.4,178.3,244.8,177.7z"/>
</g>
</svg>
