<svg version="1.1" xmlns="http://www.w3.org/2000/svg" xmlns:xlink="http://www.w3.org/1999/xlink" x="0px" y="0px" viewBox="0 0 433 423" style="enable-background:new 0 0 433.7 423.1;" xml:space="preserve" id="el_DypUo4ARD"><style>@-webkit-keyframes kf_el_fp7Vz9GRvSv_an_Ld4IA1Z5k{35%{-webkit-transform: translate(313.75px, 302.3500061035156px) translate(-313.75px, -302.3500061035156px) translate(0px, 0px);transform: translate(313.75px, 302.3500061035156px) translate(-313.75px, -302.3500061035156px) translate(0px, 0px);}37%{-webkit-transform: translate(313.75px, 302.3500061035156px) translate(-313.75px, -302.3500061035156px) translate(0px, -10px);transform: translate(313.75px, 302.3500061035156px) translate(-313.75px, -302.3500061035156px) translate(0px, -10px);}38%{-webkit-transform: translate(313.75px, 302.3500061035156px) translate(-313.75px, -302.3500061035156px) translate(0px, 0px);transform: translate(313.75px, 302.3500061035156px) translate(-313.75px, -302.3500061035156px) translate(0px, 0px);}0%{-webkit-transform: translate(313.75px, 302.3500061035156px) translate(-313.75px, -302.3500061035156px) translate(0px, 0px);transform: translate(313.75px, 302.3500061035156px) translate(-313.75px, -302.3500061035156px) translate(0px, 0px);}100%{-webkit-transform: translate(313.75px, 302.3500061035156px) translate(-313.75px, -302.3500061035156px) translate(0px, 0px);transform: translate(313.75px, 302.3500061035156px) translate(-313.75px, -302.3500061035156px) translate(0px, 0px);}}@keyframes kf_el_fp7Vz9GRvSv_an_Ld4IA1Z5k{35%{-webkit-transform: translate(313.75px, 302.3500061035156px) translate(-313.75px, -302.3500061035156px) translate(0px, 0px);transform: translate(313.75px, 302.3500061035156px) translate(-313.75px, -302.3500061035156px) translate(0px, 0px);}37%{-webkit-transform: translate(313.75px, 302.3500061035156px) translate(-313.75px, -302.3500061035156px) translate(0px, -10px);transform: translate(313.75px, 302.3500061035156px) translate(-313.75px, -302.3500061035156px) translate(0px, -10px);}38%{-webkit-transform: translate(313.75px, 302.3500061035156px) translate(-313.75px, -302.3500061035156px) translate(0px, 0px);transform: translate(313.75px, 302.3500061035156px) translate(-313.75px, -302.3500061035156px) translate(0px, 0px);}0%{-webkit-transform: translate(313.75px, 302.3500061035156px) translate(-313.75px, -302.3500061035156px) translate(0px, 0px);transform: translate(313.75px, 302.3500061035156px) translate(-313.75px, -302.3500061035156px) translate(0px, 0px);}100%{-webkit-transform: translate(313.75px, 302.3500061035156px) translate(-313.75px, -302.3500061035156px) translate(0px, 0px);transform: translate(313.75px, 302.3500061035156px) translate(-313.75px, -302.3500061035156px) translate(0px, 0px);}}@-webkit-keyframes kf_el_cTvLOEaxmBF_an_iYD33Dpd0{0%{-webkit-transform: translate(305.25px, 202.25px) scale(0, 0) translate(-305.25px, -202.25px);transform: translate(305.25px, 202.25px) scale(0, 0) translate(-305.25px, -202.25px);}25%{-webkit-transform: translate(305.25px, 202.25px) scale(0, 0) translate(-305.25px, -202.25px);transform: translate(305.25px, 202.25px) scale(0, 0) translate(-305.25px, -202.25px);}29.00%{-webkit-transform: translate(305.25px, 202.25px) scale(1.1, 1.1) translate(-305.25px, -202.25px);transform: translate(305.25px, 202.25px) scale(1.1, 1.1) translate(-305.25px, -202.25px);}30.67%{-webkit-transform: translate(305.25px, 202.25px) scale(1, 1) translate(-305.25px, -202.25px);transform: translate(305.25px, 202.25px) scale(1, 1) translate(-305.25px, -202.25px);}100%{-webkit-transform: translate(305.25px, 202.25px) scale(1, 1) translate(-305.25px, -202.25px);transform: translate(305.25px, 202.25px) scale(1, 1) translate(-305.25px, -202.25px);}}@keyframes kf_el_cTvLOEaxmBF_an_iYD33Dpd0{0%{-webkit-transform: translate(305.25px, 202.25px) scale(0, 0) translate(-305.25px, -202.25px);transform: translate(305.25px, 202.25px) scale(0, 0) translate(-305.25px, -202.25px);}25%{-webkit-transform: translate(305.25px, 202.25px) scale(0, 0) translate(-305.25px, -202.25px);transform: translate(305.25px, 202.25px) scale(0, 0) translate(-305.25px, -202.25px);}29.00%{-webkit-transform: translate(305.25px, 202.25px) scale(1.1, 1.1) translate(-305.25px, -202.25px);transform: translate(305.25px, 202.25px) scale(1.1, 1.1) translate(-305.25px, -202.25px);}30.67%{-webkit-transform: translate(305.25px, 202.25px) scale(1, 1) translate(-305.25px, -202.25px);transform: translate(305.25px, 202.25px) scale(1, 1) translate(-305.25px, -202.25px);}100%{-webkit-transform: translate(305.25px, 202.25px) scale(1, 1) translate(-305.25px, -202.25px);transform: translate(305.25px, 202.25px) scale(1, 1) translate(-305.25px, -202.25px);}}@-webkit-keyframes kf_el_ty4qBqtPPrd_an_npaN5l2mf{0%{-webkit-transform: translate(78.19999313354492px, 246.55001068115234px) scale(0, 0) translate(-78.19999313354492px, -246.55001068115234px);transform: translate(78.19999313354492px, 246.55001068115234px) scale(0, 0) translate(-78.19999313354492px, -246.55001068115234px);}15%{-webkit-transform: translate(78.19999313354492px, 246.55001068115234px) scale(0, 0) translate(-78.19999313354492px, -246.55001068115234px);transform: translate(78.19999313354492px, 246.55001068115234px) scale(0, 0) translate(-78.19999313354492px, -246.55001068115234px);}19%{-webkit-transform: translate(78.19999313354492px, 246.55001068115234px) scale(1.1, 1.1) translate(-78.19999313354492px, -246.55001068115234px);transform: translate(78.19999313354492px, 246.55001068115234px) scale(1.1, 1.1) translate(-78.19999313354492px, -246.55001068115234px);}20.67%{-webkit-transform: translate(78.19999313354492px, 246.55001068115234px) scale(1, 1) translate(-78.19999313354492px, -246.55001068115234px);transform: translate(78.19999313354492px, 246.55001068115234px) scale(1, 1) translate(-78.19999313354492px, -246.55001068115234px);}100%{-webkit-transform: translate(78.19999313354492px, 246.55001068115234px) scale(1, 1) translate(-78.19999313354492px, -246.55001068115234px);transform: translate(78.19999313354492px, 246.55001068115234px) scale(1, 1) translate(-78.19999313354492px, -246.55001068115234px);}}@keyframes kf_el_ty4qBqtPPrd_an_npaN5l2mf{0%{-webkit-transform: translate(78.19999313354492px, 246.55001068115234px) scale(0, 0) translate(-78.19999313354492px, -246.55001068115234px);transform: translate(78.19999313354492px, 246.55001068115234px) scale(0, 0) translate(-78.19999313354492px, -246.55001068115234px);}15%{-webkit-transform: translate(78.19999313354492px, 246.55001068115234px) scale(0, 0) translate(-78.19999313354492px, -246.55001068115234px);transform: translate(78.19999313354492px, 246.55001068115234px) scale(0, 0) translate(-78.19999313354492px, -246.55001068115234px);}19%{-webkit-transform: translate(78.19999313354492px, 246.55001068115234px) scale(1.1, 1.1) translate(-78.19999313354492px, -246.55001068115234px);transform: translate(78.19999313354492px, 246.55001068115234px) scale(1.1, 1.1) translate(-78.19999313354492px, -246.55001068115234px);}20.67%{-webkit-transform: translate(78.19999313354492px, 246.55001068115234px) scale(1, 1) translate(-78.19999313354492px, -246.55001068115234px);transform: translate(78.19999313354492px, 246.55001068115234px) scale(1, 1) translate(-78.19999313354492px, -246.55001068115234px);}100%{-webkit-transform: translate(78.19999313354492px, 246.55001068115234px) scale(1, 1) translate(-78.19999313354492px, -246.55001068115234px);transform: translate(78.19999313354492px, 246.55001068115234px) scale(1, 1) translate(-78.19999313354492px, -246.55001068115234px);}}@-webkit-keyframes kf_el_NTLbnS3adFU_an_FZqHlYCkf{0%{opacity: 0;}5%{opacity: 0;}15%{opacity: 1;}25%{opacity: 0;}35%{opacity: 1;}45%{opacity: 0;}55.00%{opacity: 1;}65%{opacity: 0;}75%{opacity: 1;}85%{opacity: 0;}95%{opacity: 1;}100%{opacity: 1;}}@keyframes kf_el_NTLbnS3adFU_an_FZqHlYCkf{0%{opacity: 0;}5%{opacity: 0;}15%{opacity: 1;}25%{opacity: 0;}35%{opacity: 1;}45%{opacity: 0;}55.00%{opacity: 1;}65%{opacity: 0;}75%{opacity: 1;}85%{opacity: 0;}95%{opacity: 1;}100%{opacity: 1;}}@-webkit-keyframes kf_el_vRwHfjaFVtx_an_sLVqzATw5{0%{opacity: 0;}10%{opacity: 1;}20%{opacity: 0;}30%{opacity: 1;}40%{opacity: 0;}50%{opacity: 1;}60%{opacity: 0;}70%{opacity: 1;}80%{opacity: 0;}90%{opacity: 1;}100%{opacity: 0;}}@keyframes kf_el_vRwHfjaFVtx_an_sLVqzATw5{0%{opacity: 0;}10%{opacity: 1;}20%{opacity: 0;}30%{opacity: 1;}40%{opacity: 0;}50%{opacity: 1;}60%{opacity: 0;}70%{opacity: 1;}80%{opacity: 0;}90%{opacity: 1;}100%{opacity: 0;}}@-webkit-keyframes kf_el_6_WDBvOT8w_an_W0v-soUuLu{0%{stroke-dasharray: 379.37;}100%{stroke-dasharray: 379.37;}}@keyframes kf_el_6_WDBvOT8w_an_W0v-soUuLu{0%{stroke-dasharray: 379.37;}100%{stroke-dasharray: 379.37;}}@-webkit-keyframes kf_el_6_WDBvOT8w_an_CpzdeCEp5{0%{stroke-dashoffset: 379.37;}10%{stroke-dashoffset: 0;}100%{stroke-dashoffset: 0;}}@keyframes kf_el_6_WDBvOT8w_an_CpzdeCEp5{0%{stroke-dashoffset: 379.37;}10%{stroke-dashoffset: 0;}100%{stroke-dashoffset: 0;}}#el_DypUo4ARD *{-webkit-animation-duration: 10s;animation-duration: 10s;-webkit-animation-iteration-count: infinite;animation-iteration-count: infinite;-webkit-animation-timing-function: cubic-bezier(0, 0, 1, 1);animation-timing-function: cubic-bezier(0, 0, 1, 1);}#el_GzfvD28ov5{fill: #E2E2E2;}#el_6_WDBvOT8w{fill: none;stroke: url(#pages-line_2_);stroke-width: 2;stroke-linecap: round;stroke-miterlimit: 10;-webkit-animation-fill-mode: backwards, backwards;animation-fill-mode: backwards, backwards;stroke-dashoffset: 379.37;-webkit-animation-name: kf_el_6_WDBvOT8w_an_CpzdeCEp5, kf_el_6_WDBvOT8w_an_W0v-soUuLu;animation-name: kf_el_6_WDBvOT8w_an_CpzdeCEp5, kf_el_6_WDBvOT8w_an_W0v-soUuLu;-webkit-animation-timing-function: cubic-bezier(0, 0, 0.58, 1), cubic-bezier(0, 0, 1, 1);animation-timing-function: cubic-bezier(0, 0, 0.58, 1), cubic-bezier(0, 0, 1, 1);stroke-dasharray: 379.37;}#el_xdmhxwEWtf{fill: #2B2C33;}#el_ljywfKW14x{fill: #2B2C33;}#el_M1IxeaQ9-w{fill: #2B2C33;}#el_Uu8iPKLVAA{fill: #2B2C33;}#el_8-h7J1-lzTi{fill: #2B2C33;}#el_T8XJEdg8zu0{fill: #2B2C33;}#el_IuCb69_8e0u{fill: url(#SVGID_1_);}#el_QtS0kbF9bsz{fill: #B3CDFA;}#el_nLs4fUjsOLx{fill: #E3EDFE;}#el_5WtWnDWTArr{fill: #E3EDFE;}#el_FImCPJsDjsb{fill: url(#SVGID_2_);}#el_Q1nRFGMaYtR{fill: url(#SVGID_3_);}#el_6Yl16kbcIkw{fill: #B3CDFA;}#el_9dC3BiCjHL4{fill: #E3EDFE;}#el_PupoSZwKmto{fill: #B3CDFA;}#el_0RgniOFt6sf{fill: url(#SVGID_4_);}#el_zKmfUTqaFkw{fill: #E3EDFE;}#el_S5mQzG5O59c{fill: #6C98E3;}#el_DBOMJYZO7WG{fill: #E3EDFE;}#el_HjVPPberqoC{opacity: 0.4;}#el_eNV6guEpRqB{fill: #E6E7E8;}#el_Cxs4Q8T95bf{fill: #E6E7E8;}#el_A3tKE3jFKAL{fill: #E6E7E8;}#el_w2sZJSGswxH{fill: #E6E7E8;}#el_Zph7E_YdTHH{fill: #E6E7E8;}#el_jQ_EFH8z3nJ{fill: #E6E7E8;}#el_agA_oBCcqIa{fill: #E6E7E8;}#el_CPCBNPF_mE-{fill: #E6E7E8;}#el_vPiuaUX7iG3{fill: #E6E7E8;}#el_b1Hdjtvdr3u{fill: #E6E7E8;}#el_RYqf23hOIhc{fill: #E6E7E8;}#el_TyQ00h9d6GK{fill: #E6E7E8;}#el_s9Pqd-aPiJt{fill: #E6E7E8;}#el_PlOzF-zCZVJ{fill: url(#SVGID_5_);}#el_-6X2CRLi74o{fill: #FFFFFF;}#el_SARRY-Id5fF{fill: #FFFFFF;}#el_s9KUNeSHg9g{fill: #FFFFFF;}#el_D9paECaa8Yr{fill: #FFFFFF;}#el_fed1-9PqHYC{fill: #FFFFFF;}#el_U5NzZ_3Jn0f{fill: #FFB806;}#el_SD0B-xMQLmc{fill: #305FC2;}#el_9CROBrd8ZQs{fill: #1E3595;}#el_k4tvgKt5syg{fill: #9EAAD4;}#el_2XOsvL1ejbm{fill: url(#SVGID_6_);}#el_hXp8HRGtMvL{fill: url(#SVGID_7_);}#el_Kg9pqKL54pu{fill: #FFFFFF;}#el__Ry94dWfGbK{fill: #8C8C8C;}#el_rqnc_JCS6kc{fill: #8C8C8C;}#el_5aVo94g3MtR{fill: #8C8C8C;}#el_e20UHlIVuD1{fill: #8C8C8C;}#el_jZiLltVqZfS{fill: #8C8C8C;}#el_LVmujn8wFLA{fill: #8C8C8C;}#el_eaF0F7XpqsB{fill: #151336;}#el_vo5QnRX5z3x{fill: #151336;}#el_Z3-cXyVBPdD{fill: #151336;}#el_Dw-lrZs3mp3{fill: #151336;}#el_n2XUckMVGMw{fill: #151336;}#el_M4oNb_4W22i{fill: #151336;}#el___2TUukMqtl{fill: #155E7C;}#el_HC1tAtohgS-{fill: #155E7C;}#el_mauqvStB2DE{fill: #8C8C8C;}#el_pxLdT8tUchf{fill: none;}#el_Yk_oHYdjgEP{fill: none;}#el__toIRnSR5nA{fill: #3974D4;}#el_fPObNQKi7LC{fill: #305FC2;}#el_h6EYJMWFKaH{fill: #1E3595;}#el_thYvBMRHpT3{fill: #9EAAD4;}#el_mQXEAY3SuRB{fill: #FFFFFF;}#el_QL9t6iWC0bU{opacity: 0.3;fill: #CDCDD2;}#el_u-fd-zNvETO{fill: #305FC2;}#el_tEWeqvjBRUv{fill: #9EAAD4;}#el_LQZ9NUCnWye{fill: #305FC2;}#el_hK6a6N-Ffbf{fill: #9EAAD4;}#el_pOi7FCsWgcm{fill: url(#SVGID_8_);}#el_vRwHfjaFVtx{-webkit-animation-fill-mode: backwards;animation-fill-mode: backwards;opacity: 0;-webkit-animation-name: kf_el_vRwHfjaFVtx_an_sLVqzATw5;animation-name: kf_el_vRwHfjaFVtx_an_sLVqzATw5;-webkit-animation-timing-function: cubic-bezier(0, 0, 0.58, 1);animation-timing-function: cubic-bezier(0, 0, 0.58, 1);}#el_NTLbnS3adFU{-webkit-animation-fill-mode: backwards;animation-fill-mode: backwards;opacity: 0;-webkit-animation-name: kf_el_NTLbnS3adFU_an_FZqHlYCkf;animation-name: kf_el_NTLbnS3adFU_an_FZqHlYCkf;-webkit-animation-timing-function: cubic-bezier(0, 0, 0.58, 1);animation-timing-function: cubic-bezier(0, 0, 0.58, 1);}#el_ty4qBqtPPrd_an_npaN5l2mf{-webkit-animation-fill-mode: backwards;animation-fill-mode: backwards;-webkit-transform: translate(78.19999313354492px, 246.55001068115234px) scale(0, 0) translate(-78.19999313354492px, -246.55001068115234px);transform: translate(78.19999313354492px, 246.55001068115234px) scale(0, 0) translate(-78.19999313354492px, -246.55001068115234px);-webkit-animation-name: kf_el_ty4qBqtPPrd_an_npaN5l2mf;animation-name: kf_el_ty4qBqtPPrd_an_npaN5l2mf;-webkit-animation-timing-function: cubic-bezier(0, 0, 0.58, 1);animation-timing-function: cubic-bezier(0, 0, 0.58, 1);}#el_cTvLOEaxmBF_an_iYD33Dpd0{-webkit-animation-fill-mode: backwards;animation-fill-mode: backwards;-webkit-transform: translate(305.25px, 202.25px) scale(0, 0) translate(-305.25px, -202.25px);transform: translate(305.25px, 202.25px) scale(0, 0) translate(-305.25px, -202.25px);-webkit-animation-name: kf_el_cTvLOEaxmBF_an_iYD33Dpd0;animation-name: kf_el_cTvLOEaxmBF_an_iYD33Dpd0;-webkit-animation-timing-function: cubic-bezier(0, 0, 0.58, 1);animation-timing-function: cubic-bezier(0, 0, 0.58, 1);}#el_fp7Vz9GRvSv_an_Ld4IA1Z5k{-webkit-animation-fill-mode: backwards;animation-fill-mode: backwards;-webkit-transform: translate(313.75px, 302.3500061035156px) translate(-313.75px, -302.3500061035156px) translate(0px, 0px);transform: translate(313.75px, 302.3500061035156px) translate(-313.75px, -302.3500061035156px) translate(0px, 0px);-webkit-animation-name: kf_el_fp7Vz9GRvSv_an_Ld4IA1Z5k;animation-name: kf_el_fp7Vz9GRvSv_an_Ld4IA1Z5k;-webkit-animation-timing-function: cubic-bezier(0, 0, 0.58, 1);animation-timing-function: cubic-bezier(0, 0, 0.58, 1);}</style>

<g id="el_C2hnx4-jjv">
	<g id="el_544-gRAM9v">
		<g id="el_sfKC7TjbaX">
			<path d="M261.4,371.2l104.9-61l-0.7-0.4l-104.9,61c-1.2-0.6-3-0.6-4.2,0.1l-29.9-17.3c0,0,0,0,0,0&#xA;&#9;&#9;&#9;&#9;c1.2-0.7,1.3-1.8,0.2-2.5l104.7-60.9l-0.7-0.4l-104.8,60.9c-1.3-0.5-3-0.5-4.2,0.2c0,0,0,0,0,0l-30-17.3c1.2-0.7,1.3-1.8,0.2-2.5&#xA;&#9;&#9;&#9;&#9;l174.5-101.4l-0.7-0.4L191.3,330.7c-1.3-0.5-3-0.5-4.1,0.2l-30-17.3c0.1,0,0.1,0,0.2-0.1c1.2-0.7,1.3-1.8,0.1-2.6l104.6-60.8&#xA;&#9;&#9;&#9;&#9;l-0.7-0.4l-104.7,60.8c-1.3-0.5-2.9-0.4-4,0.2c0,0-0.1,0.1-0.1,0.1l-30-17.3c1.2-0.7,1.2-1.8,0.1-2.6l104.8-60.9l-0.7-0.4&#xA;&#9;&#9;&#9;&#9;l-104.9,60.9c-1.3-0.4-2.9-0.4-4,0.2l-30.3-17.5c1.1-0.7,1.2-1.7,0.3-2.4l104.8-60.9l-0.7-0.4L87.2,270.6c-1.3-0.6-3-0.5-4.2,0.1&#xA;&#9;&#9;&#9;&#9;l-30-17.3c1.1-0.7,1.2-1.7,0.3-2.4L158,190l-0.7-0.4L52.5,250.6c-1.3-0.6-3-0.5-4.2,0.1l-32-18.5L123.3,170l-0.7-0.4L14.9,232.2&#xA;&#9;&#9;&#9;&#9;l32.8,18.9c-0.7,0.7-0.5,1.6,0.6,2.3c1.1,0.6,2.6,0.7,3.9,0.3l30.3,17.5c-0.7,0.7-0.5,1.6,0.6,2.3c1.1,0.6,2.6,0.7,3.9,0.3&#xA;&#9;&#9;&#9;&#9;l30.5,17.6c-0.7,0.7-0.5,1.6,0.6,2.2c1,0.6,2.6,0.7,3.8,0.3l30.3,17.5c-0.5,0.7-0.3,1.5,0.7,2.1c1,0.6,2.4,0.7,3.6,0.4l30.2,17.5&#xA;&#9;&#9;&#9;&#9;c-0.6,0.7-0.5,1.6,0.6,2.2c1,0.6,2.6,0.7,3.8,0.3l30.3,17.5c-0.6,0.7-0.4,1.6,0.6,2.2c1,0.6,2.5,0.7,3.8,0.3l30.1,17.4&#xA;&#9;&#9;&#9;&#9;c-0.8,0.7-0.6,1.7,0.5,2.3c1.1,0.6,2.7,0.7,4,0.3l32.4,18.7l0.7-0.4l-32.3-18.7C262.1,372.9,262.2,372,261.4,371.2z" id="el_GzfvD28ov5"/>
		</g>
	</g>
	<linearGradient id="pages-line_2_" gradientUnits="userSpaceOnUse" x1="33.0827" y1="267.7073" x2="377.9188" y2="267.7073">
		<stop offset="1.983173e-03" style="stop-color:#EF486C"/>
		<stop offset="0.2335" style="stop-color:#CE4E79"/>
		<stop offset="0.7401" style="stop-color:#7B5C9C"/>
		<stop offset="1" style="stop-color:#4E64AE"/>
	</linearGradient>
	<path id="el_6_WDBvOT8w" d="M34.1,214.2c17.4-7.9,37.9,1.4,52.8,13.4c14.9,12,28,27.2,45.9,33.9&#xA;&#9;&#9;c22.7,8.5,50.5,2.1,70.1,16.4c10.9,8,17.5,21.5,29.6,27.6c16.2,8.2,35.4,0.3,53.2-3.3c31.7-6.5,66,1.9,91.2,22.1"/>
	<g id="el_i45OKU9Yu8">
		<g id="el_luzH79pYhQ">
			<path d="M98.9,302.6c0.7,0.4,1.2,0.8,1.6,1.3c0.4,0.5,0.6,1,0.7,1.5l-2.5,0.2c0-0.4-0.2-0.7-0.4-1.1&#xA;&#9;&#9;&#9;&#9;c-0.3-0.4-0.6-0.6-1-0.9c-0.5-0.3-1.1-0.5-1.8-0.6c-0.7-0.1-1.3-0.1-2,0c-0.7,0.1-1.3,0.3-1.8,0.6c-0.5,0.3-0.9,0.6-1,1&#xA;&#9;&#9;&#9;&#9;c-0.2,0.4-0.2,0.8,0,1.2c0.2,0.4,0.5,0.7,1,1c0.3,0.2,0.6,0.3,1,0.4c0.4,0.1,0.8,0.2,1.2,0.3l2.3-1.4l1.7,1l-3.4,2&#xA;&#9;&#9;&#9;&#9;c-0.8-0.1-1.6-0.2-2.5-0.5c-0.9-0.3-1.6-0.6-2.2-0.9c-0.9-0.5-1.5-1.1-1.8-1.7c-0.3-0.6-0.3-1.3-0.1-1.9c0.3-0.6,0.8-1.2,1.7-1.7&#xA;&#9;&#9;&#9;&#9;c0.8-0.5,1.8-0.8,2.9-1c1.1-0.2,2.2-0.1,3.4,0.1C97,301.7,98,302.1,98.9,302.6z" id="el_xdmhxwEWtf"/>
		</g>
		<g id="el_-ID0FO5I6J">
			<path d="M106.2,313.8l-1,2.8l-2.3-1.3l1.1-2.3l-0.2-0.1l-1.8-1.1l-2.5,1.5l-2-1.2l8.8-5.1l3.8,2.2&#xA;&#9;&#9;&#9;&#9;c1.1,0.7,1.8,1.3,1.9,2c0.1,0.7-0.3,1.3-1.3,1.9c-0.7,0.4-1.4,0.6-2.2,0.8C107.7,313.9,107,313.9,106.2,313.8z M107.1,312.4&#xA;&#9;&#9;&#9;&#9;c0.6,0,1.1-0.1,1.6-0.4c0.5-0.3,0.7-0.6,0.7-0.9c-0.1-0.3-0.4-0.6-0.9-1l-1.8-1.1l-3,1.7l1.8,1.1&#xA;&#9;&#9;&#9;&#9;C106,312.2,106.6,312.4,107.1,312.4" id="el_ljywfKW14x"/>
		</g>
		<g id="el__uBip3Sj0J">
			<polygon points="163.8,340.2 155.1,345.3 153.1,344.2 156.5,342.2 152.5,339.9 149.1,341.9 147.1,340.7 155.9,335.6 &#xA;&#9;&#9;&#9;&#9;157.8,336.8 154.2,338.9 158.2,341.2 161.8,339.1 &#9;&#9;&#9;" id="el_M1IxeaQ9-w"/>
		</g>
		<g id="el_cfz066KLL-">
			<polygon points="152.5,333.7 150.8,334.7 148.1,333.1 141,337.2 139.1,336.1 146.2,332 143.5,330.4 145.1,329.4 &#9;&#9;&#9;&#xA;&#9;&#9;&#9;&#9;" id="el_Uu8iPKLVAA"/>
		</g>
		<g id="el_Jg4aM-Bt2Y">
			<polygon points="142.8,328.1 131,331.5 129,330.3 133.4,325.5 125.2,328.1 123.2,326.9 129,320.1 131.1,321.4 &#xA;&#9;&#9;&#9;&#9;126.4,326.4 134.9,323.6 136.9,324.7 132.1,329.7 140.7,326.9 &#9;&#9;&#9;" id="el_8-h7J1-lzTi"/>
		</g>
		<g id="el_FfZDwNbhcFn">
			<path d="M123.8,319.5c-0.3,0.6-0.8,1.2-1.7,1.7s-1.8,0.8-2.9,1c-1.1,0.2-2.2,0.2-3.3,0c-1.1-0.2-2.1-0.5-3-1&#xA;&#9;&#9;&#9;&#9;c-0.9-0.5-1.5-1.1-1.8-1.7c-0.3-0.6-0.3-1.3-0.1-1.9c0.3-0.6,0.8-1.2,1.7-1.7c0.8-0.5,1.8-0.8,2.9-1c1.1-0.2,2.2-0.1,3.3,0&#xA;&#9;&#9;&#9;&#9;c1.1,0.2,2.1,0.5,3,1.1c0.9,0.5,1.5,1.1,1.8,1.7C124,318.2,124.1,318.9,123.8,319.5z M118.3,320.7c0.7-0.1,1.3-0.3,1.8-0.6&#xA;&#9;&#9;&#9;&#9;s0.9-0.6,1.1-1c0.2-0.4,0.2-0.8,0-1.1c-0.2-0.4-0.5-0.7-1-1c-0.5-0.3-1.1-0.5-1.7-0.6c-0.7-0.1-1.3-0.1-2,0&#xA;&#9;&#9;&#9;&#9;c-0.7,0.1-1.3,0.3-1.8,0.6s-0.9,0.6-1,1c-0.2,0.4-0.2,0.8,0,1.2c0.2,0.4,0.5,0.7,1,1c0.5,0.3,1.1,0.5,1.7,0.6&#xA;&#9;&#9;&#9;&#9;C117,320.8,117.6,320.8,118.3,320.7" id="el_T8XJEdg8zu0"/>
		</g>
	</g>
</g>
<g id="el_ty4qBqtPPrd_an_npaN5l2mf" data-animator-group="true" data-animator-type="2"><g id="el_ty4qBqtPPrd">
	<g id="el_1OOTBzA_2gu">
		<linearGradient id="SVGID_1_" gradientUnits="userSpaceOnUse" x1="120.7743" y1="273.485" x2="32.9469" y2="217.9957">
			<stop offset="0" style="stop-color:#EEF3FA"/>
			<stop offset="0.4655" style="stop-color:#F8FAFD"/>
			<stop offset="1" style="stop-color:#FFFFFF"/>
		</linearGradient>
		<path d="M120.4,276.1l-92.9,0c-2.4,0-4-1.9-3.7-4.3l7.3-50.5c0.3-2.3,2.5-4.3,4.9-4.3l92.9,0c2.4,0,4,1.9,3.7,4.3&#xA;&#9;&#9;&#9;l-7.3,50.5C125,274.2,122.8,276.1,120.4,276.1z" id="el_IuCb69_8e0u"/>
		<path d="M130.8,217.6c0.1,0.5,0.2,1,0.1,1.5l-7.3,50.5c-0.3,2.3-2.5,4.3-4.9,4.3l-92.9,0c-0.7,0-1.4-0.2-2-0.5&#xA;&#9;&#9;&#9;c0.4,1.6,1.8,2.7,3.6,2.7l92.9,0c2.4,0,4.6-1.9,4.9-4.3l7.3-50.5C132.8,219.7,132.1,218.3,130.8,217.6z" id="el_QtS0kbF9bsz"/>
		<polygon points="81,227.3 40.2,227.3 40.7,223.7 81.5,223.7 &#9;&#9;" id="el_nLs4fUjsOLx"/>
		<polygon points="59.5,235 39.1,235 39.6,231.4 60,231.4 &#9;&#9;" id="el_5WtWnDWTArr"/>
		<linearGradient id="SVGID_2_" gradientUnits="userSpaceOnUse" x1="29.8562" y1="253.8278" x2="121.215" y2="253.8278">
			<stop offset="0" style="stop-color:#0F998E"/>
			<stop offset="1" style="stop-color:#6FC171"/>
		</linearGradient>
		<path d="M29.9,267.1c3.9-4.4,8.2-10,12.5-13.9c1.5-1.4,3.2-2.9,5.2-3.1c2.8-0.4,4.8,1.6,6.6,3.5&#xA;&#9;&#9;&#9;c2.1,2.2,4.4,4.4,7.5,5c3.8,0.7,8-1.2,11.8-3.1c3.3-1.7,6.7-3.4,9.2-6.1c2.5-2.6,4.1-6,7.1-8c0.5-0.3,1.1-0.7,1.7-0.7&#xA;&#9;&#9;&#9;c1-0.1,1.9,0.5,2.5,1.2c1.6,1.9,1.9,4.6,2.5,7.1c0.6,2.5,1.9,5.1,4.4,5.6c3.3,0.8,6.8-2.2,9-5.2c2.2-3,4-6.5,7.3-8.3&#xA;&#9;&#9;&#9;c1-0.5,2.3-0.8,3.1-0.3c0.9,0.6,1,2,0.9,3.1c-0.3,4.9-0.5,9.8-0.8,14.6c-0.1,2-0.7,6.9-2.1,8.5L29.9,267.1z" id="el_FImCPJsDjsb"/>
	</g>
</g></g>
<g id="el_cTvLOEaxmBF_an_iYD33Dpd0" data-animator-group="true" data-animator-type="2"><g id="el_cTvLOEaxmBF">
	<g id="el_3JolXNG8ZVH">
		<linearGradient id="SVGID_3_" gradientUnits="userSpaceOnUse" x1="351.4094" y1="230.5405" x2="250.3036" y2="168.5983">
			<stop offset="0" style="stop-color:#EEF3FA"/>
			<stop offset="0.4655" style="stop-color:#F8FAFD"/>
			<stop offset="1" style="stop-color:#FFFFFF"/>
		</linearGradient>
		<path d="M359.9,173.5l-101.1,0c-1.9,0-3.6,1.5-3.9,3.5l-7.2,50.5c-0.3,1.9,1,3.5,2.9,3.5l101.1,0&#xA;&#9;&#9;&#9;c1.9,0,3.6-1.5,3.9-3.5l7.2-50.5C363.1,175.1,361.8,173.5,359.9,173.5z" id="el_Q1nRFGMaYtR"/>
		<path d="M361,173.7c0.2,0.5,0.3,1,0.2,1.6l-7.2,50.5c-0.3,1.9-2,3.5-3.9,3.5l-101.1,0c-0.4,0-0.8-0.1-1.1-0.2&#xA;&#9;&#9;&#9;c0.4,1.1,1.4,1.8,2.7,1.8l101.1,0c1.9,0,3.6-1.5,3.9-3.5l7.2-50.5C363,175.5,362.3,174.2,361,173.7z" id="el_6Yl16kbcIkw"/>
		<g id="el_RaPrq0Ooab9">
			<path id="el_9dC3BiCjHL4" d="M278.6,188.9c-0.6,3.9-4.2,7-8,7c-3.9,0-6.5-3.1-5.9-7c0.6-3.9,4.2-7,8-7&#xA;&#9;&#9;&#9;&#9;C276.6,181.9,279.2,185,278.6,188.9z"/>
		</g>
		<g id="el_gGhW0hB9s5o">
			<path id="el_PupoSZwKmto" d="M274.4,214c-0.6,3.9-4.2,7-8,7s-6.5-3.1-5.9-7c0.6-3.9,4.2-7,8-7&#xA;&#9;&#9;&#9;&#9;C272.3,207.1,275,210.2,274.4,214z"/>
		</g>
		<linearGradient id="SVGID_4_" gradientUnits="userSpaceOnUse" x1="290.9992" y1="185.2177" x2="345.6983" y2="185.2177">
			<stop offset="0" style="stop-color:#FC7318"/>
			<stop offset="1" style="stop-color:#FEB423"/>
		</linearGradient>
		<polygon points="345.2,186.6 291,186.6 291.4,183.8 345.7,183.8 &#9;&#9;" id="el_0RgniOFt6sf"/>
		<polygon points="329.9,193.5 290,193.5 290.4,190.7 330.4,190.7 &#9;&#9;" id="el_zKmfUTqaFkw"/>
		<polygon points="305.3,212.1 287,212.1 287.4,209.3 305.8,209.3 &#9;&#9;" id="el_S5mQzG5O59c"/>
		<polygon points="314.1,219 286.1,219 286.5,216.1 314.7,216.1 &#9;&#9;" id="el_DBOMJYZO7WG"/>
	</g>
</g></g>
<g id="el_66O2WbXXHCs">
	<g id="el_HjVPPberqoC">
		<g id="el_vRwHfjaFVtx">
			<path d="M274.7,347.7c-2.4,5.6-8.9,8.1-14.5,5.7c-5.6-2.4-8.1-8.9-5.7-14.5c2.4-5.6,8.9-8.1,14.5-5.7&#xA;&#9;&#9;&#9;&#9;C274.6,335.7,277.1,342.1,274.7,347.7z" id="el_eNV6guEpRqB"/>
			<path d="M162.6,288.9c0,6.1-4.9,11-11,11c-6.1,0-11-4.9-11-11c0-6.1,4.9-11,11-11&#xA;&#9;&#9;&#9;&#9;C157.6,277.9,162.6,282.8,162.6,288.9z" id="el_Cxs4Q8T95bf"/>
			<path d="M270.7,321.4c-5.1,11.6-18.6,17-30.3,11.9c-11.6-5.1-17-18.6-11.9-30.3c5.1-11.6,18.6-17,30.3-11.9&#xA;&#9;&#9;&#9;&#9;C270.4,296.2,275.7,309.7,270.7,321.4z" id="el_A3tKE3jFKAL"/>
			<path d="M244.6,295.6c0,17.4-14.1,31.5-31.5,31.5c-17.4,0-31.5-14.1-31.5-31.5c0-17.4,14.1-31.5,31.5-31.5&#xA;&#9;&#9;&#9;&#9;C230.5,264.1,244.6,278.2,244.6,295.6z" id="el_w2sZJSGswxH"/>
		</g>
		<g id="el_NTLbnS3adFU">
			<path d="M165.8,306.6c-2.4,5.6-8.9,8.1-14.5,5.7c-5.6-2.4-8.1-8.9-5.7-14.5c2.4-5.6,8.9-8.1,14.5-5.7&#xA;&#9;&#9;&#9;&#9;C165.7,294.5,168.2,301,165.8,306.6z" id="el_Zph7E_YdTHH"/>
			<path d="M198.1,281.3c-4.4,10.2-16.3,14.8-26.4,10.4c-10.2-4.4-14.8-16.3-10.4-26.4c4.4-10.2,16.3-14.8,26.4-10.4&#xA;&#9;&#9;&#9;&#9;C197.9,259.3,202.6,271.2,198.1,281.3z" id="el_jQ_EFH8z3nJ"/>
			<path d="M201.3,295.6c0,11.1-9,20.1-20.1,20.1c-11.1,0-20.1-9-20.1-20.1c0-11.1,9-20.1,20.1-20.1&#xA;&#9;&#9;&#9;&#9;C192.3,275.6,201.3,284.6,201.3,295.6z" id="el_agA_oBCcqIa"/>
			<path d="M253.7,345.8c-1.8,4.2-6.8,6.1-11,4.3c-4.2-1.8-6.1-6.8-4.3-11c1.8-4.2,6.8-6.1,11-4.3&#xA;&#9;&#9;&#9;&#9;C253.6,336.7,255.5,341.6,253.7,345.8z" id="el_CPCBNPF_mE-"/>
			<path d="M281.3,323.4c-1.8,4.2-6.8,6.1-11,4.3c-4.2-1.8-6.1-6.8-4.3-11c1.8-4.2,6.8-6.1,11-4.3&#xA;&#9;&#9;&#9;&#9;C281.2,314.3,283.1,319.2,281.3,323.4z" id="el_vPiuaUX7iG3"/>
			<path d="M235.5,354c-1,2.3-3.7,3.4-6.1,2.4c-2.3-1-3.4-3.7-2.4-6.1c1-2.3,3.7-3.4,6.1-2.4&#xA;&#9;&#9;&#9;&#9;C235.5,348.9,236.6,351.6,235.5,354z" id="el_b1Hdjtvdr3u"/>
		</g>
		<g id="el_L9BHvp08wKq">
			<path d="M235.2,327.4c-2.4,5.6-8.9,8.1-14.5,5.7c-5.6-2.4-8.1-8.9-5.7-14.5c2.4-5.6,8.9-8.1,14.5-5.7&#xA;&#9;&#9;&#9;&#9;C235.1,315.3,237.6,321.8,235.2,327.4z" id="el_RYqf23hOIhc"/>
			<path d="M163.5,268.7c-1.8,4.2-6.8,6.1-11,4.3c-4.2-1.8-6.1-6.8-4.3-11c1.8-4.2,6.8-6.1,11-4.3&#xA;&#9;&#9;&#9;&#9;C163.5,259.6,165.4,264.5,163.5,268.7z" id="el_TyQ00h9d6GK"/>
			<path d="M134.5,279c-1,2.3-3.7,3.4-6.1,2.4c-2.3-1-3.4-3.7-2.4-6.1c1-2.3,3.7-3.4,6.1-2.4&#xA;&#9;&#9;&#9;&#9;C134.4,273.9,135.5,276.6,134.5,279z" id="el_s9Pqd-aPiJt"/>
		</g>
	</g>
</g>
<g id="el_fp7Vz9GRvSv_an_Ld4IA1Z5k" data-animator-group="true" data-animator-type="0"><g id="el_fp7Vz9GRvSv">
	<g id="el_7Y2LXOJ1atF">
		
			<linearGradient id="SVGID_5_" gradientUnits="userSpaceOnUse" x1="-1545.1387" y1="-106.4277" x2="-1495.1017" y2="-156.4647" gradientTransform="matrix(4.489700e-11 -1 -1 -4.489700e-11 182.25 -1217.75)">
			<stop offset="1.983173e-03" style="stop-color:#EE486C"/>
			<stop offset="0.2348" style="stop-color:#CD4E7A"/>
			<stop offset="0.7442" style="stop-color:#7A5C9C"/>
			<stop offset="1" style="stop-color:#4E64AE"/>
		</linearGradient>
		<polygon points="282,284 282,320.7 313.7,339 345.5,320.7 345.5,284 313.7,265.7 &#9;&#9;" id="el_PlOzF-zCZVJ"/>
		<g id="el_n8zy0dhk9fV">
			<path d="M313.3,290.7c-4-1.1-8.3-0.1-11.3,2.9c-0.7,0.7-1.3,1.4-1.8,2.3c-0.1,0.2-0.1,0.5,0.1,0.6l3.7,3.7&#xA;&#9;&#9;&#9;&#9;C305.8,297.6,308.8,293.8,313.3,290.7z" id="el_-6X2CRLi74o"/>
			<path d="M315.5,311.9l3.7,3.7c0.1,0.1,0.2,0.2,0.4,0.2c0.1,0,0.2,0,0.3-0.1c0.9-0.5,1.6-1.1,2.3-1.8&#xA;&#9;&#9;&#9;&#9;c3-3,4.1-7.4,2.9-11.4C322.1,307.1,318.3,310.1,315.5,311.9z" id="el_SARRY-Id5fF"/>
			<path d="M301.9,310.4c-2,0-3.6,1.6-3.6,3.6v3.1c0,0.3,0.2,0.5,0.5,0.5h3.1c2,0,3.6-1.6,3.6-3.6&#xA;&#9;&#9;&#9;&#9;S303.9,310.4,301.9,310.4z" id="el_s9KUNeSHg9g"/>
			<path d="M326.9,297.1c1.2-2.8,2-6.1,2.3-9.9c0-0.1,0-0.3-0.1-0.4c-0.1-0.1-0.3-0.2-0.4-0.2c-3.8,0.2-7,1-9.9,2.2&#xA;&#9;&#9;&#9;&#9;L326.9,297.1z" id="el_D9paECaa8Yr"/>
			<path d="M317.7,289.4c-10.7,5-14.9,15.1-14.9,15.2c-0.1,0.2,0,0.4,0.1,0.6l7.8,7.8c0.1,0.1,0.2,0.2,0.4,0.2&#xA;&#9;&#9;&#9;&#9;c0.1,0,0.1,0,0.2,0c0.1-0.1,10.2-4.3,15.2-15L317.7,289.4z M317.9,301.9c-1.1,1.1-2.8,1.1-3.9,0c-1.1-1.1-1.1-2.8,0-3.9&#xA;&#9;&#9;&#9;&#9;c1.1-1.1,2.8-1.1,3.9,0C319,299,319,300.8,317.9,301.9z" id="el_fed1-9PqHYC"/>
		</g>
	</g>
</g></g>
<g id="el_8FU3s7aiMra">
	<g id="el_oINglTIVSlW">
		<path d="M217.2,243.1c4.6,2.8,14.2,14.5,14.2,24.3c0,9.8-7.8,10.9-7.8,21.7c0,0-4.2-6.6-1.8-14.1c0,0-6.2,4.5-6.2,16&#xA;&#9;&#9;&#9;c0,11.5-8.8,19-14,21.6c0,0,9.4-7.8-0.7-21.1c-7.1-9.3-14.5-12.6-13.2-25.9c0,0-5.2,10-1.2,17.1c0,0-10.8-12-2.8-29.2&#xA;&#9;&#9;&#9;C191.9,236.4,208.5,237.7,217.2,243.1z" id="el_U5NzZ_3Jn0f"/>
		<path d="M146.4,191.5c0.1,0,0.1-0.1,0.2,0c0,0,0,0,0,0c0.1,0,0.1,0,0.2,0.1c1.3,0.8,2.7,6.7,2.8,7l1,7l1.5,10.7&#xA;&#9;&#9;&#9;l1.2,8.3l-3.8-0.8l-4.5-25.8C145.4,193.6,145.9,191.8,146.4,191.5z" id="el_SD0B-xMQLmc"/>
		<path d="M157.4,201.7L157.4,201.7l-1-7h0c-0.1,0-1.5-6.3-2.8-7c-0.2-0.1-0.3-0.1-0.5,0l-6.7,3.9c0,0,0,0,0,0&#xA;&#9;&#9;&#9;c0.1,0,0.1-0.1,0.2-0.1c0,0,0,0,0,0c0.1,0,0.1,0,0.2,0.1c1.3,0.8,2.7,6.7,2.8,7l0,0l3.7,26l6.7-3.9L157.4,201.7z" id="el_9CROBrd8ZQs"/>
		<polygon points="150.7,205.5 177.3,193 178.8,192.3 182.5,225.1 181.5,224.7 159.8,218.5 152.2,216.3 &#9;&#9;" id="el_k4tvgKt5syg"/>
		<linearGradient id="SVGID_6_" gradientUnits="userSpaceOnUse" x1="199.0723" y1="234.1394" x2="210.8418" y2="254.5247">
			<stop offset="1.983173e-03" style="stop-color:#EF486C"/>
			<stop offset="0.2335" style="stop-color:#CE4E79"/>
			<stop offset="0.7401" style="stop-color:#7B5C9C"/>
			<stop offset="1" style="stop-color:#4E64AE"/>
		</linearGradient>
		<path d="M224.7,244.3c0,4.1-8.8,7.4-19.7,7.4c-10.9,0-19.7-3.3-19.7-7.4c0-4.1,8.8-7.4,19.7-7.4&#xA;&#9;&#9;&#9;C215.9,236.9,224.7,240.2,224.7,244.3z" id="el_2XOsvL1ejbm"/>
		<linearGradient id="SVGID_7_" gradientUnits="userSpaceOnUse" x1="175.8319" y1="226.1228" x2="233.8846" y2="226.1228">
			<stop offset="1.983173e-03" style="stop-color:#EF486C"/>
			<stop offset="0.2335" style="stop-color:#CE4E79"/>
			<stop offset="0.7401" style="stop-color:#7B5C9C"/>
			<stop offset="1" style="stop-color:#4E64AE"/>
		</linearGradient>
		<path d="M213.3,214.9c-3.1-0.5-6.6-1.3-10.4-2.5c-1.3-0.4-2.6-0.8-3.9-1.3c-5.4-2-11.3-4.8-17.5-8.7&#xA;&#9;&#9;&#9;c-2.1-1.3-5.6,5.8-5.6,5.8c0,17.7,9.3,35.6,9.5,36.4c3.5,1.8,6.3,0.1,12.7,2.5c2.4,0.9,4.9,1.7,7.7,2.6c2.7,0.9,7.9-0.3,7.9-0.3&#xA;&#9;&#9;&#9;l11.1-5c0,0,9.2-20.2,9.2-35.2C233.9,209.1,217.4,215.6,213.3,214.9z" id="el_hXp8HRGtMvL"/>
		<path d="M219,96.5c0,0-28.7-0.2-29.5-0.8c-8.3,22.6-18,59.7-14.4,102.4l0.6,9.6c2.1,1.6,58.3,0,58.3,0&#xA;&#9;&#9;&#9;C238.2,166.7,230.6,125.9,219,96.5z" id="el_Kg9pqKL54pu"/>
		<path d="M192.2,147.7L192.2,147.7c0-0.1,0.1-0.2,0.1-0.4c0,0,0,0,0,0C192.3,147.4,192.2,147.5,192.2,147.7z" id="el__Ry94dWfGbK"/>
		<polygon points="192.5,146.8 192.5,146.8 192.5,146.8 &#9;&#9;" id="el_rqnc_JCS6kc"/>
		<path d="M192,148.5c0-0.1,0.1-0.3,0.1-0.4c0,0,0,0,0,0C192,148.3,192,148.4,192,148.5z" id="el_5aVo94g3MtR"/>
		<path d="M203.9,167.9L203.9,167.9c-0.1,0-0.1,0-0.2-0.1C203.8,167.9,203.9,167.9,203.9,167.9z" id="el_e20UHlIVuD1"/>
		<path d="M193.9,145L193.9,145c0.1-0.1,0.2-0.1,0.3-0.2c0,0,0,0,0,0C194.1,144.9,194,144.9,193.9,145z" id="el_jZiLltVqZfS"/>
		<path d="M193.4,145.5c0.1-0.1,0.2-0.2,0.2-0.2c0,0,0,0,0,0C193.6,145.3,193.5,145.4,193.4,145.5z" id="el_LVmujn8wFLA"/>
		<path d="M204.1,168c0,0-0.1,0-0.1,0h0C204,168,204,168,204.1,168z" id="el_eaF0F7XpqsB"/>
		<path d="M194.9,144.4C194.9,144.4,194.9,144.4,194.9,144.4c0.1-0.1,0.2-0.1,0.3-0.1l0,0&#xA;&#9;&#9;&#9;C195.1,144.3,195,144.4,194.9,144.4z" id="el_vo5QnRX5z3x"/>
		<path d="M192.1,148.1C192.1,148.1,192.1,148.1,192.1,148.1c0-0.2,0.1-0.3,0.1-0.5l0,0&#xA;&#9;&#9;&#9;C192.2,147.8,192.1,148,192.1,148.1z" id="el_Z3-cXyVBPdD"/>
		<path d="M192.3,147.3C192.3,147.3,192.3,147.3,192.3,147.3c0.1-0.2,0.1-0.3,0.2-0.5l0,0&#xA;&#9;&#9;&#9;C192.5,147,192.4,147.1,192.3,147.3z" id="el_Dw-lrZs3mp3"/>
		<path d="M193.6,145.3C193.6,145.3,193.6,145.3,193.6,145.3c0.1-0.1,0.2-0.2,0.3-0.3l0,0&#xA;&#9;&#9;&#9;C193.8,145.1,193.7,145.2,193.6,145.3z" id="el_n2XUckMVGMw"/>
		<path d="M194.2,144.8C194.2,144.8,194.2,144.8,194.2,144.8c0.1-0.1,0.2-0.2,0.3-0.2v0&#xA;&#9;&#9;&#9;C194.4,144.6,194.3,144.7,194.2,144.8z" id="el_M4oNb_4W22i"/>
		<path d="M195.2,144.3C195.2,144.3,195.2,144.3,195.2,144.3C195.2,144.3,195.2,144.3,195.2,144.3L195.2,144.3z" id="el___2TUukMqtl"/>
		<path d="M194.5,144.6L194.5,144.6c0.1-0.1,0.2-0.1,0.4-0.2c0,0,0,0,0,0C194.8,144.5,194.6,144.5,194.5,144.6z" id="el_HC1tAtohgS-"/>
		<polygon points="214.3,99 214.3,99 214.3,99 &#9;&#9;" id="el_mauqvStB2DE"/>
		<path d="M253.4,253.1C253.4,253.1,253.3,253.1,253.4,253.1C253.3,253.1,253.4,253.1,253.4,253.1z" id="el_pxLdT8tUchf"/>
		<path d="M253,253.2C253,253.2,253,253.2,253,253.2L253,253.2C253,253.2,253,253.2,253,253.2z" id="el_Yk_oHYdjgEP"/>
		<path d="M253,253.2L253,253.2c-1.1,0.6-2.1,3.6-2.1,3.8l-1,5.8l-26.4-43.1l6.7-3.9L253,253.2L253,253.2&#xA;&#9;&#9;&#9;C253,253.2,253,253.2,253,253.2z" id="el__toIRnSR5nA"/>
		<path d="M250.9,257c0.1-0.2,1.1-3.1,2.1-3.8c0,0,0,0,0,0c0.1,0,0.2-0.1,0.3-0.1c0,0,0.1,0,0.1,0c0.1,0,0.2,0,0.3,0.1&#xA;&#9;&#9;&#9;c0.8,0.4,1.5,2.7,1.7,8.5l-4.7,20.5l-3.8-3.6l1.2-6.9l1.6-8.9L250.9,257z" id="el_fPObNQKi7LC"/>
		<path d="M260.4,249.3c-0.2-0.1-0.5-0.1-0.7,0l-6.6,3.9l0,0c0,0,0,0,0,0c0,0,0,0,0,0c0.1,0,0.2-0.1,0.3-0.1&#xA;&#9;&#9;&#9;c0,0,0.1,0,0.1,0c0.1,0,0.2,0,0.3,0.1c0.8,0.4,1.5,2.7,1.7,8.5l-4.7,20.5l6.7-3.9l4.7-20.5C261.8,252,261.1,249.8,260.4,249.3z" id="el_h6EYJMWFKaH"/>
		<polygon points="218,245.5 223.4,219.6 249.8,262.8 248.2,271.7 &#9;&#9;" id="el_thYvBMRHpT3"/>
		<path d="M234.1,207.8c0,6-13.1,10.9-29.2,10.9c-16.1,0-29.2-4.9-29.2-10.9c0-6,13.1-10.9,29.2-10.9&#xA;&#9;&#9;&#9;C221.1,196.8,234.1,201.7,234.1,207.8z" id="el_mQXEAY3SuRB"/>
		<path d="M219,96.5c0,0-8.5-0.1-16.4-0.2c0.2,2,11.2,37.6,12.3,44.9c1.7,11.5,3,23.3,2,35&#xA;&#9;&#9;&#9;c-1.3,14.9-5.9,31.4-22.1,36.2c-5.9,1.8-12.1,1.1-17.6-1.2c3.8,4.4,14.8,7.5,27.7,7.5c16.1,0,29.2-4.9,29.2-10.9&#xA;&#9;&#9;&#9;C238.2,166.7,230.6,125.9,219,96.5z" id="el_QL9t6iWC0bU"/>
		<path d="M183.4,129.1c-4.1,5.7-5,15.5-2,22c3,6.4,8.6,7,12.7,1.2c4.1-5.7,5-15.5,2-22&#xA;&#9;&#9;&#9;C193.1,123.9,187.4,123.4,183.4,129.1z M188.5,129.4c0.1,0,0.2,0,0.3,0c0.1,0,0.2,0,0.3-0.1c0.1,0,0.2,0,0.3,0c0.1,0,0.2,0,0.3,0&#xA;&#9;&#9;&#9;c0.1,0,0.2,0,0.3,0.1c0.1,0,0.2,0,0.3,0.1c0,0,0,0,0,0c1.5,0.4,2.8,1.6,3.7,3.7c1.1,2.4,1.5,5.4,1.2,8.3c-0.1,0.7-0.2,1.5-0.3,2.2&#xA;&#9;&#9;&#9;c-0.1,0.7-0.3,1.4-0.6,2.1c-0.2,0.7-0.5,1.3-0.8,1.9c-0.3,0.6-0.6,1.2-1,1.7l0,0l0,0c-0.9,1.3-2,2.2-3.1,2.6&#xA;&#9;&#9;&#9;c-0.4,0.2-0.9,0.3-1.3,0.3c-1.3,0.1-2.5-0.4-3.5-1.5c0,0-0.1,0-0.1-0.1c0,0-0.1-0.1-0.1-0.1c-0.5-0.6-0.9-1.2-1.3-2.1&#xA;&#9;&#9;&#9;c-0.9-2.1-1.4-4.6-1.3-7.2c0-1.1,0.2-2.2,0.4-3.3c0.2-1.1,0.5-2.1,0.9-3.1c0.4-1,0.9-1.9,1.4-2.7c0.4-0.5,0.8-1,1.2-1.4&#xA;&#9;&#9;&#9;c0.1-0.1,0.2-0.2,0.3-0.2c0.1-0.1,0.2-0.2,0.3-0.3c0.1-0.1,0.2-0.1,0.3-0.2c0.1-0.1,0.2-0.2,0.3-0.2c0,0,0,0,0,0&#xA;&#9;&#9;&#9;C187.6,129.6,188,129.5,188.5,129.4z" id="el_u-fd-zNvETO"/>
		<path d="M188.5,129.4c0.1,0,0.2,0,0.3,0c0.1,0,0.2,0,0.3-0.1c0.1,0,0.2,0,0.3,0c0.1,0,0.2,0,0.3,0&#xA;&#9;&#9;&#9;c0.1,0,0.2,0,0.3,0.1c0.1,0,0.2,0,0.3,0.1c0,0,0,0,0,0c1.5,0.4,2.8,1.6,3.7,3.7c1.1,2.4,1.5,5.4,1.2,8.3c-0.1,0.7-0.2,1.5-0.3,2.2&#xA;&#9;&#9;&#9;c-0.1,0.7-0.3,1.4-0.6,2.1c-0.2,0.7-0.5,1.3-0.8,1.9c-0.3,0.6-0.6,1.2-1,1.7l0,0c-0.9,1.3-2,2.2-3.1,2.6c-0.4,0.2-0.9,0.3-1.3,0.3&#xA;&#9;&#9;&#9;c-1.3,0.1-2.5-0.4-3.5-1.5c0,0-0.1,0-0.1-0.1c0,0-0.1-0.1-0.1-0.1c-0.5-0.6-0.9-1.2-1.3-2.1c-0.9-2.1-1.4-4.6-1.3-7.2&#xA;&#9;&#9;&#9;c0-1.1,0.2-2.2,0.4-3.3c0.2-1.1,0.5-2.1,0.9-3.1c0.4-1,0.9-1.9,1.4-2.7c0.4-0.5,0.8-1,1.2-1.4c0.1-0.1,0.2-0.2,0.3-0.2&#xA;&#9;&#9;&#9;c0.1-0.1,0.2-0.2,0.3-0.3c0.1-0.1,0.2-0.1,0.3-0.2c0.1-0.1,0.2-0.2,0.4-0.2c0,0,0,0,0,0C187.6,129.6,188,129.5,188.5,129.4z" id="el_tEWeqvjBRUv"/>
		<path d="M179.4,167.3c-3.4,6.1-3.2,16,0.5,22c3.7,6,9.4,5.9,12.8-0.2c3.4-6.1,3.2-16-0.5-22&#xA;&#9;&#9;&#9;C188.5,161.1,182.8,161.2,179.4,167.3z M184.5,167c0.1,0,0.2-0.1,0.3-0.1c0.1,0,0.2-0.1,0.3-0.1c0.1,0,0.2,0,0.3,0&#xA;&#9;&#9;&#9;c0.1,0,0.2,0,0.3,0c0.1,0,0.2,0,0.3,0c0.1,0,0.2,0,0.3,0c0,0,0,0,0,0c1.5,0.2,3,1.3,4.1,3.2c1.4,2.2,2.1,5.2,2.1,8.1&#xA;&#9;&#9;&#9;c0,0.7,0,1.5-0.1,2.2c-0.1,0.7-0.2,1.4-0.3,2.1c-0.1,0.7-0.3,1.4-0.6,2c-0.2,0.6-0.5,1.2-0.8,1.8l0,0l0,0&#xA;&#9;&#9;&#9;c-0.8,1.4-1.7,2.4-2.7,2.9c-0.4,0.2-0.8,0.4-1.2,0.4c-1.2,0.2-2.5-0.2-3.7-1.1c0,0-0.1,0-0.1-0.1c0,0-0.1-0.1-0.1-0.1&#xA;&#9;&#9;&#9;c-0.5-0.5-1.1-1.1-1.5-1.9c-1.2-1.9-1.9-4.4-2.1-7c-0.1-1.1-0.1-2.2,0-3.3c0.1-1.1,0.3-2.2,0.6-3.2c0.3-1,0.7-2,1.1-2.8&#xA;&#9;&#9;&#9;c0.3-0.6,0.7-1.1,1-1.5c0.1-0.1,0.2-0.2,0.3-0.3c0.1-0.1,0.2-0.2,0.3-0.3c0.1-0.1,0.2-0.1,0.3-0.2c0.1-0.1,0.2-0.2,0.3-0.3&#xA;&#9;&#9;&#9;c0,0,0,0,0,0C183.7,167.3,184.1,167.1,184.5,167z" id="el_LQZ9NUCnWye"/>
		<path d="M184.5,167c0.1,0,0.2-0.1,0.3-0.1c0.1,0,0.2-0.1,0.3-0.1c0.1,0,0.2,0,0.3,0c0.1,0,0.2,0,0.3,0&#xA;&#9;&#9;&#9;c0.1,0,0.2,0,0.3,0c0.1,0,0.2,0,0.3,0c0,0,0,0,0,0c1.5,0.2,3,1.3,4.1,3.2c1.4,2.2,2.1,5.2,2.1,8.1c0,0.7,0,1.5-0.1,2.2&#xA;&#9;&#9;&#9;c-0.1,0.7-0.2,1.4-0.3,2.1c-0.1,0.7-0.3,1.4-0.6,2c-0.2,0.6-0.5,1.2-0.8,1.8l0,0c-0.8,1.4-1.7,2.4-2.7,2.9&#xA;&#9;&#9;&#9;c-0.4,0.2-0.8,0.4-1.2,0.4c-1.2,0.2-2.5-0.2-3.7-1.1c0,0-0.1,0-0.1-0.1c0,0-0.1-0.1-0.1-0.1c-0.5-0.5-1.1-1.1-1.5-1.9&#xA;&#9;&#9;&#9;c-1.2-1.9-1.9-4.4-2.1-7c-0.1-1.1-0.1-2.2,0-3.3c0.1-1.1,0.3-2.2,0.6-3.2c0.3-1,0.7-2,1.1-2.8c0.3-0.6,0.7-1.1,1-1.5&#xA;&#9;&#9;&#9;c0.1-0.1,0.2-0.2,0.2-0.3c0.1-0.1,0.2-0.2,0.3-0.3c0.1-0.1,0.2-0.1,0.3-0.2c0.1-0.1,0.2-0.2,0.3-0.3c0,0,0,0,0,0&#xA;&#9;&#9;&#9;C183.7,167.3,184.1,167.1,184.5,167z" id="el_hK6a6N-Ffbf"/>
		<linearGradient id="SVGID_8_" gradientUnits="userSpaceOnUse" x1="189.5326" y1="84.421" x2="219.0399" y2="84.421">
			<stop offset="1.983173e-03" style="stop-color:#EF486C"/>
			<stop offset="0.2335" style="stop-color:#CE4E79"/>
			<stop offset="0.7401" style="stop-color:#7B5C9C"/>
			<stop offset="1" style="stop-color:#4E64AE"/>
		</linearGradient>
		<path d="M204.7,70.1c0,0-9.9,10.9-15.2,25.6c14,6.2,29.5,0.8,29.5,0.8C216.1,86,204.8,70.2,204.7,70.1z" id="el_pOi7FCsWgcm"/>
	</g>
</g>
</svg>