<svg version="1.1" id="el_Cym1EohK3" xmlns="http://www.w3.org/2000/svg" xmlns:xlink="http://www.w3.org/1999/xlink" x="0px" y="0px" viewBox="0 0 433 423" style="enable-background:new 0 0 433.7 423.1;" xml:space="preserve"><style>@-webkit-keyframes kf_el_ETVhjyczOAq_an_VU7zu88Ve{0%{-webkit-transform: translate(313.3000030517578px, 244.10000610351562px) translate(-313.3000030517578px, -244.10000610351562px) translate(0px, 0px);transform: translate(313.3000030517578px, 244.10000610351562px) translate(-313.3000030517578px, -244.10000610351562px) translate(0px, 0px);}60%{-webkit-transform: translate(313.3000030517578px, 244.10000610351562px) translate(-313.3000030517578px, -244.10000610351562px) translate(0px, 0px);transform: translate(313.3000030517578px, 244.10000610351562px) translate(-313.3000030517578px, -244.10000610351562px) translate(0px, 0px);}63.33%{-webkit-transform: translate(313.3000030517578px, 244.10000610351562px) translate(-313.3000030517578px, -244.10000610351562px) translate(0px, -10px);transform: translate(313.3000030517578px, 244.10000610351562px) translate(-313.3000030517578px, -244.10000610351562px) translate(0px, -10px);}66.67%{-webkit-transform: translate(313.3000030517578px, 244.10000610351562px) translate(-313.3000030517578px, -244.10000610351562px) translate(0px, 0px);transform: translate(313.3000030517578px, 244.10000610351562px) translate(-313.3000030517578px, -244.10000610351562px) translate(0px, 0px);}100%{-webkit-transform: translate(313.3000030517578px, 244.10000610351562px) translate(-313.3000030517578px, -244.10000610351562px) translate(0px, 0px);transform: translate(313.3000030517578px, 244.10000610351562px) translate(-313.3000030517578px, -244.10000610351562px) translate(0px, 0px);}}@keyframes kf_el_ETVhjyczOAq_an_VU7zu88Ve{0%{-webkit-transform: translate(313.3000030517578px, 244.10000610351562px) translate(-313.3000030517578px, -244.10000610351562px) translate(0px, 0px);transform: translate(313.3000030517578px, 244.10000610351562px) translate(-313.3000030517578px, -244.10000610351562px) translate(0px, 0px);}60%{-webkit-transform: translate(313.3000030517578px, 244.10000610351562px) translate(-313.3000030517578px, -244.10000610351562px) translate(0px, 0px);transform: translate(313.3000030517578px, 244.10000610351562px) translate(-313.3000030517578px, -244.10000610351562px) translate(0px, 0px);}63.33%{-webkit-transform: translate(313.3000030517578px, 244.10000610351562px) translate(-313.3000030517578px, -244.10000610351562px) translate(0px, -10px);transform: translate(313.3000030517578px, 244.10000610351562px) translate(-313.3000030517578px, -244.10000610351562px) translate(0px, -10px);}66.67%{-webkit-transform: translate(313.3000030517578px, 244.10000610351562px) translate(-313.3000030517578px, -244.10000610351562px) translate(0px, 0px);transform: translate(313.3000030517578px, 244.10000610351562px) translate(-313.3000030517578px, -244.10000610351562px) translate(0px, 0px);}100%{-webkit-transform: translate(313.3000030517578px, 244.10000610351562px) translate(-313.3000030517578px, -244.10000610351562px) translate(0px, 0px);transform: translate(313.3000030517578px, 244.10000610351562px) translate(-313.3000030517578px, -244.10000610351562px) translate(0px, 0px);}}@-webkit-keyframes kf_el_e1LuiSe_uoS_an_OJQg9VOdn{0%{-webkit-transform: translate(310.4499816894531px, 167.40000915527344px) scale(0, 0) translate(-310.4499816894531px, -167.40000915527344px);transform: translate(310.4499816894531px, 167.40000915527344px) scale(0, 0) translate(-310.4499816894531px, -167.40000915527344px);}40%{-webkit-transform: translate(310.4499816894531px, 167.40000915527344px) scale(0, 0) translate(-310.4499816894531px, -167.40000915527344px);transform: translate(310.4499816894531px, 167.40000915527344px) scale(0, 0) translate(-310.4499816894531px, -167.40000915527344px);}56.67%{-webkit-transform: translate(310.4499816894531px, 167.40000915527344px) scale(1.05, 1.05) translate(-310.4499816894531px, -167.40000915527344px);transform: translate(310.4499816894531px, 167.40000915527344px) scale(1.05, 1.05) translate(-310.4499816894531px, -167.40000915527344px);}60%{-webkit-transform: translate(310.4499816894531px, 167.40000915527344px) scale(1, 1) translate(-310.4499816894531px, -167.40000915527344px);transform: translate(310.4499816894531px, 167.40000915527344px) scale(1, 1) translate(-310.4499816894531px, -167.40000915527344px);}100%{-webkit-transform: translate(310.4499816894531px, 167.40000915527344px) scale(1, 1) translate(-310.4499816894531px, -167.40000915527344px);transform: translate(310.4499816894531px, 167.40000915527344px) scale(1, 1) translate(-310.4499816894531px, -167.40000915527344px);}}@keyframes kf_el_e1LuiSe_uoS_an_OJQg9VOdn{0%{-webkit-transform: translate(310.4499816894531px, 167.40000915527344px) scale(0, 0) translate(-310.4499816894531px, -167.40000915527344px);transform: translate(310.4499816894531px, 167.40000915527344px) scale(0, 0) translate(-310.4499816894531px, -167.40000915527344px);}40%{-webkit-transform: translate(310.4499816894531px, 167.40000915527344px) scale(0, 0) translate(-310.4499816894531px, -167.40000915527344px);transform: translate(310.4499816894531px, 167.40000915527344px) scale(0, 0) translate(-310.4499816894531px, -167.40000915527344px);}56.67%{-webkit-transform: translate(310.4499816894531px, 167.40000915527344px) scale(1.05, 1.05) translate(-310.4499816894531px, -167.40000915527344px);transform: translate(310.4499816894531px, 167.40000915527344px) scale(1.05, 1.05) translate(-310.4499816894531px, -167.40000915527344px);}60%{-webkit-transform: translate(310.4499816894531px, 167.40000915527344px) scale(1, 1) translate(-310.4499816894531px, -167.40000915527344px);transform: translate(310.4499816894531px, 167.40000915527344px) scale(1, 1) translate(-310.4499816894531px, -167.40000915527344px);}100%{-webkit-transform: translate(310.4499816894531px, 167.40000915527344px) scale(1, 1) translate(-310.4499816894531px, -167.40000915527344px);transform: translate(310.4499816894531px, 167.40000915527344px) scale(1, 1) translate(-310.4499816894531px, -167.40000915527344px);}}@-webkit-keyframes kf_el_wa7sdQ8qqK_an_QaWBYVbOb{0%{-webkit-transform: translate(159.9000015258789px, 114.89999389648438px) scale(0, 0) translate(-159.9000015258789px, -114.89999389648438px);transform: translate(159.9000015258789px, 114.89999389648438px) scale(0, 0) translate(-159.9000015258789px, -114.89999389648438px);}23.33%{-webkit-transform: translate(159.9000015258789px, 114.89999389648438px) scale(0, 0) translate(-159.9000015258789px, -114.89999389648438px);transform: translate(159.9000015258789px, 114.89999389648438px) scale(0, 0) translate(-159.9000015258789px, -114.89999389648438px);}40%{-webkit-transform: translate(159.9000015258789px, 114.89999389648438px) scale(1.05, 1.05) translate(-159.9000015258789px, -114.89999389648438px);transform: translate(159.9000015258789px, 114.89999389648438px) scale(1.05, 1.05) translate(-159.9000015258789px, -114.89999389648438px);}43.33%{-webkit-transform: translate(159.9000015258789px, 114.89999389648438px) scale(1, 1) translate(-159.9000015258789px, -114.89999389648438px);transform: translate(159.9000015258789px, 114.89999389648438px) scale(1, 1) translate(-159.9000015258789px, -114.89999389648438px);}100%{-webkit-transform: translate(159.9000015258789px, 114.89999389648438px) scale(1, 1) translate(-159.9000015258789px, -114.89999389648438px);transform: translate(159.9000015258789px, 114.89999389648438px) scale(1, 1) translate(-159.9000015258789px, -114.89999389648438px);}}@keyframes kf_el_wa7sdQ8qqK_an_QaWBYVbOb{0%{-webkit-transform: translate(159.9000015258789px, 114.89999389648438px) scale(0, 0) translate(-159.9000015258789px, -114.89999389648438px);transform: translate(159.9000015258789px, 114.89999389648438px) scale(0, 0) translate(-159.9000015258789px, -114.89999389648438px);}23.33%{-webkit-transform: translate(159.9000015258789px, 114.89999389648438px) scale(0, 0) translate(-159.9000015258789px, -114.89999389648438px);transform: translate(159.9000015258789px, 114.89999389648438px) scale(0, 0) translate(-159.9000015258789px, -114.89999389648438px);}40%{-webkit-transform: translate(159.9000015258789px, 114.89999389648438px) scale(1.05, 1.05) translate(-159.9000015258789px, -114.89999389648438px);transform: translate(159.9000015258789px, 114.89999389648438px) scale(1.05, 1.05) translate(-159.9000015258789px, -114.89999389648438px);}43.33%{-webkit-transform: translate(159.9000015258789px, 114.89999389648438px) scale(1, 1) translate(-159.9000015258789px, -114.89999389648438px);transform: translate(159.9000015258789px, 114.89999389648438px) scale(1, 1) translate(-159.9000015258789px, -114.89999389648438px);}100%{-webkit-transform: translate(159.9000015258789px, 114.89999389648438px) scale(1, 1) translate(-159.9000015258789px, -114.89999389648438px);transform: translate(159.9000015258789px, 114.89999389648438px) scale(1, 1) translate(-159.9000015258789px, -114.89999389648438px);}}@-webkit-keyframes kf_el_A-LB6XmuSwe_an_bNOQopoUn{0%{-webkit-transform: translate(278.25px, 317.5500011444092px) rotate(-90deg) translate(-278.25px, -317.5500011444092px);transform: translate(278.25px, 317.5500011444092px) rotate(-90deg) translate(-278.25px, -317.5500011444092px);}13.33%{-webkit-transform: translate(278.25px, 317.5500011444092px) rotate(0deg) translate(-278.25px, -317.5500011444092px);transform: translate(278.25px, 317.5500011444092px) rotate(0deg) translate(-278.25px, -317.5500011444092px);}100%{-webkit-transform: translate(278.25px, 317.5500011444092px) rotate(0deg) translate(-278.25px, -317.5500011444092px);transform: translate(278.25px, 317.5500011444092px) rotate(0deg) translate(-278.25px, -317.5500011444092px);}}@keyframes kf_el_A-LB6XmuSwe_an_bNOQopoUn{0%{-webkit-transform: translate(278.25px, 317.5500011444092px) rotate(-90deg) translate(-278.25px, -317.5500011444092px);transform: translate(278.25px, 317.5500011444092px) rotate(-90deg) translate(-278.25px, -317.5500011444092px);}13.33%{-webkit-transform: translate(278.25px, 317.5500011444092px) rotate(0deg) translate(-278.25px, -317.5500011444092px);transform: translate(278.25px, 317.5500011444092px) rotate(0deg) translate(-278.25px, -317.5500011444092px);}100%{-webkit-transform: translate(278.25px, 317.5500011444092px) rotate(0deg) translate(-278.25px, -317.5500011444092px);transform: translate(278.25px, 317.5500011444092px) rotate(0deg) translate(-278.25px, -317.5500011444092px);}}@-webkit-keyframes kf_el_5hAnpjxuLIP_an_Wp4Konfpq{0%{opacity: 0;}20%{opacity: 1;}100%{opacity: 1;}}@keyframes kf_el_5hAnpjxuLIP_an_Wp4Konfpq{0%{opacity: 0;}20%{opacity: 1;}100%{opacity: 1;}}@-webkit-keyframes kf_el_5hAnpjxuLIP_an_cAGMchHvp{0%{-webkit-transform: translate(134.7000026702881px, 236.95001220703125px) translate(-134.7000026702881px, -236.95001220703125px) translate(0px, 100px);transform: translate(134.7000026702881px, 236.95001220703125px) translate(-134.7000026702881px, -236.95001220703125px) translate(0px, 100px);}20%{-webkit-transform: translate(134.7000026702881px, 236.95001220703125px) translate(-134.7000026702881px, -236.95001220703125px) translate(0px, -10px);transform: translate(134.7000026702881px, 236.95001220703125px) translate(-134.7000026702881px, -236.95001220703125px) translate(0px, -10px);}23.33%{-webkit-transform: translate(134.7000026702881px, 236.95001220703125px) translate(-134.7000026702881px, -236.95001220703125px) translate(0px, 0px);transform: translate(134.7000026702881px, 236.95001220703125px) translate(-134.7000026702881px, -236.95001220703125px) translate(0px, 0px);}100%{-webkit-transform: translate(134.7000026702881px, 236.95001220703125px) translate(-134.7000026702881px, -236.95001220703125px) translate(0px, 0px);transform: translate(134.7000026702881px, 236.95001220703125px) translate(-134.7000026702881px, -236.95001220703125px) translate(0px, 0px);}}@keyframes kf_el_5hAnpjxuLIP_an_cAGMchHvp{0%{-webkit-transform: translate(134.7000026702881px, 236.95001220703125px) translate(-134.7000026702881px, -236.95001220703125px) translate(0px, 100px);transform: translate(134.7000026702881px, 236.95001220703125px) translate(-134.7000026702881px, -236.95001220703125px) translate(0px, 100px);}20%{-webkit-transform: translate(134.7000026702881px, 236.95001220703125px) translate(-134.7000026702881px, -236.95001220703125px) translate(0px, -10px);transform: translate(134.7000026702881px, 236.95001220703125px) translate(-134.7000026702881px, -236.95001220703125px) translate(0px, -10px);}23.33%{-webkit-transform: translate(134.7000026702881px, 236.95001220703125px) translate(-134.7000026702881px, -236.95001220703125px) translate(0px, 0px);transform: translate(134.7000026702881px, 236.95001220703125px) translate(-134.7000026702881px, -236.95001220703125px) translate(0px, 0px);}100%{-webkit-transform: translate(134.7000026702881px, 236.95001220703125px) translate(-134.7000026702881px, -236.95001220703125px) translate(0px, 0px);transform: translate(134.7000026702881px, 236.95001220703125px) translate(-134.7000026702881px, -236.95001220703125px) translate(0px, 0px);}}#el_Cym1EohK3 *{-webkit-animation-duration: 5s;animation-duration: 5s;-webkit-animation-iteration-count: infinite;animation-iteration-count: infinite;-webkit-animation-timing-function: cubic-bezier(0, 0, 1, 1);animation-timing-function: cubic-bezier(0, 0, 1, 1);}#el_87fG3GaSow{fill: #DDECF1;}#el_Sy4kFdjnuh{-webkit-transform: translate(291.805392px, 307.871791px);transform: translate(291.805392px, 307.871791px);}#el_rMamyE6_T2{fill: url(#Path_2_);}#el_Awf5cB5yez{opacity: 0.3;fill: #18163C;enable-background: new;}#el_fWdOHQH0d7{opacity: 0.3;fill: #18163C;enable-background: new;}#el_ZLpU50xNXY{-webkit-clip-path: url(#SVGID_2_);clip-path: url(#SVGID_2_);-webkit-transform: translate(7px, 6px);transform: translate(7px, 6px);}#el_rGkwUpVHGV{fill: url(#SVGID_3_);}#el_H3GQtbiiJs{opacity: 0.1;fill: #9E2846;enable-background: new;}#el_sFBAUypePq{fill: #FFFFFF;}#el_wa7sdQ8qqK{-webkit-transform: translate(192.782866px, 267.18621px);transform: translate(192.782866px, 267.18621px);}#el_zs4RKwcqQ3{fill: url(#SVGID_4_);}#el_B0ASd8CMtv{fill: #FFFFFF;}#el_lrUzF3U4GZ{fill: #FF769A;}#el_5JSA0ghftRf{fill: #FFE4EB;}#el_4CDe1kPbZ0I{opacity: 0.2;fill: #FFFFFF;enable-background: new;}#el_sJulfkOsHHW{fill: #FFFFFF;}#el_CRKNEf0SZl3{fill: #C8FBFC;}#el_7yaodbDRv18{fill: #92E0E0;}#el_B10MAKcGpCN{fill: #8C4510;}#el_VgQB-g07DKx{fill: #E2AB86;}#el_f-JKFfRwnPd{fill: #A35413;}#el_fxsAhhz6jVq{fill: #80BCBB;}#el__BihfIttj84{fill: #92E0E0;}#el_aXzwbL3K4Qs{fill: #8C4510;}#el_WWJLAylgzG5{fill: #E2AB86;}#el_65ypljaYZQs{fill: #A35413;}#el_z1eSwSfuIRE{fill: #80BCBB;}#el_5hAnpjxuLIP{-webkit-transform: translate(109.721346px, 556.736392px);transform: translate(109.721346px, 556.736392px);-webkit-animation-fill-mode: backwards;animation-fill-mode: backwards;opacity: 0;-webkit-animation-name: kf_el_5hAnpjxuLIP_an_Wp4Konfpq;animation-name: kf_el_5hAnpjxuLIP_an_Wp4Konfpq;-webkit-animation-timing-function: cubic-bezier(0, 0, 0.58, 1);animation-timing-function: cubic-bezier(0, 0, 0.58, 1);}#el_uIaPGWSVyV6{fill: url(#Path_3_);}#el_LnO5-rMEsR3{opacity: 0.1;fill: #373A5B;enable-background: new;}#el_LMMDvwPkvvZ{fill: #FFFFFF;}#el_1EY_n57CqkC{fill: #DC85E1;}#el_4zUPtkkVvpT{opacity: 0.2;fill: #FFFFFF;enable-background: new;}#el_CWzs2UEqiF2{opacity: 0.2;fill: #FFFFFF;enable-background: new;}#el_DteVNe_hxr-{fill: #99FF87;}#el_ncCc2ffxeUs{fill: #3598E9;}#el_H8X1Av-sjRP{fill: #3598E9;}#el_vaWp8jjrRST{fill: #FFFFFF;}#el_n1NmizSenqy{fill: #71CEE8;}#el_A-LB6XmuSwe{-webkit-transform: translate(1026px, 273.432393px);transform: translate(1026px, 273.432393px);}#el_49osF53yvSV{fill: #D1E6F6;}#el_nZU06xEB6PI{fill: url(#Path_4_);}#el_SzHT8Pv-gtF{-webkit-transform: translate(706.60236px, 2369.589549px);transform: translate(706.60236px, 2369.589549px);}#el_0TEW6nvz-Jd{-webkit-transform: translate(8px, 298px);transform: translate(8px, 298px);}#el_1PE1LWj8G7t{-webkit-transform: translate(61px, 0px);transform: translate(61px, 0px);}#el_mf2kNRW3TJc{overflow: visible;fill: #D8E8F8;}#el_JbetpnwR6gq{opacity: 0.2;-webkit-clip-path: url(#SVGID_5_);clip-path: url(#SVGID_5_);fill: #6F54C0;enable-background: new;}#el_FphYAPaejZD{overflow: visible;fill: #D8E8F8;}#el_IwURH_DJLzt{opacity: 0.2;-webkit-clip-path: url(#SVGID_6_);clip-path: url(#SVGID_6_);fill: #6F54C0;enable-background: new;}#el_YYfLH-CijmL{-webkit-transform: translate(5px, 140px);transform: translate(5px, 140px);}#el_avYbP0WTtZW{fill: url(#SVGID_7_);}#el_NYxs71iJbQQ{opacity: 0.3;-webkit-mask: url(#mask-7_10_);mask: url(#mask-7_10_);fill: #FFFFFF;enable-background: new;}#el_aaWFwZO3isI{opacity: 0.3;-webkit-mask: url(#mask-7_9_);mask: url(#mask-7_9_);fill: #151731;enable-background: new;}#el_PxHKmFwlRCR{opacity: 0.3;-webkit-mask: url(#mask-7_8_);mask: url(#mask-7_8_);fill: #151731;enable-background: new;}#el_8kxhJRo8NkY{opacity: 0.4;-webkit-mask: url(#mask-7_7_);mask: url(#mask-7_7_);fill: none;stroke: #FFFFFF;stroke-linecap: round;stroke-linejoin: round;enable-background: new;}#el_f8lRkDiLAzM{opacity: 0.4;-webkit-mask: url(#mask-7_6_);mask: url(#mask-7_6_);fill: none;stroke: #FFFFFF;stroke-linecap: round;stroke-linejoin: round;enable-background: new;}#el_3xp3jKuzymk{fill: #FFB59D;-webkit-transform: translate(129px, 0px);transform: translate(129px, 0px);}#el_HmQrXVm1MMq{-webkit-transform: translate(30.90480763669px, 10.20107457747px) rotate(-10deg);transform: translate(30.90480763669px, 10.20107457747px) rotate(-10deg);}#el_N2SA4uFBncD{-webkit-transform: translate(14px, 16px);transform: translate(14px, 16px);}#el_dfUECQnb5wp{fill: url(#Path_5_);}#el_4ufz_jxTjAX{fill: url(#Oval_1_);}#el_tupvqomUThB{-webkit-transform: translate(12px, 16px);transform: translate(12px, 16px);}#el_behByabvmiw{fill: url(#SVGID_8_);}#el_2liL4rDpwwR{opacity: 0.3;-webkit-mask: url(#mask-14_8_);mask: url(#mask-14_8_);fill: #373A5B;enable-background: new;}#el_ZWDWowxViJw{opacity: 0.3;-webkit-mask: url(#mask-14_7_);mask: url(#mask-14_7_);fill: #373A5B;enable-background: new;}#el_ImpnV4rDUSn{opacity: 0.3;-webkit-mask: url(#mask-14_6_);mask: url(#mask-14_6_);fill: #373A5B;enable-background: new;}#el_4tQrSq1V1V9{-webkit-mask: url(#mask-14_5_);mask: url(#mask-14_5_);fill: #2D4F83;}#el_QxAhyYMixZX{fill: url(#SVGID_10_);}#el_wBq4O0S6DY4{fill: url(#SVGID_12_);}#el_3Zc5MOU-Wie{fill: #FFFFFF;}#el_t6n2pjWbxTg{fill: #FFFFFF;}#el_PUdylVwFZF5{fill: #FFFFFF;}#el_5hAnpjxuLIP_an_cAGMchHvp{-webkit-animation-fill-mode: backwards;animation-fill-mode: backwards;-webkit-transform: translate(134.7000026702881px, 236.95001220703125px) translate(-134.7000026702881px, -236.95001220703125px) translate(0px, 100px);transform: translate(134.7000026702881px, 236.95001220703125px) translate(-134.7000026702881px, -236.95001220703125px) translate(0px, 100px);-webkit-animation-name: kf_el_5hAnpjxuLIP_an_cAGMchHvp;animation-name: kf_el_5hAnpjxuLIP_an_cAGMchHvp;-webkit-animation-timing-function: cubic-bezier(0, 0, 0.58, 1);animation-timing-function: cubic-bezier(0, 0, 0.58, 1);}#el_A-LB6XmuSwe_an_bNOQopoUn{-webkit-animation-fill-mode: backwards;animation-fill-mode: backwards;-webkit-transform: translate(278.25px, 317.5500011444092px) rotate(-90deg) translate(-278.25px, -317.5500011444092px);transform: translate(278.25px, 317.5500011444092px) rotate(-90deg) translate(-278.25px, -317.5500011444092px);-webkit-animation-name: kf_el_A-LB6XmuSwe_an_bNOQopoUn;animation-name: kf_el_A-LB6XmuSwe_an_bNOQopoUn;-webkit-animation-timing-function: cubic-bezier(0, 0, 0.58, 1);animation-timing-function: cubic-bezier(0, 0, 0.58, 1);}#el_wa7sdQ8qqK_an_QaWBYVbOb{-webkit-animation-fill-mode: backwards;animation-fill-mode: backwards;-webkit-transform: translate(159.9000015258789px, 114.89999389648438px) scale(0, 0) translate(-159.9000015258789px, -114.89999389648438px);transform: translate(159.9000015258789px, 114.89999389648438px) scale(0, 0) translate(-159.9000015258789px, -114.89999389648438px);-webkit-animation-name: kf_el_wa7sdQ8qqK_an_QaWBYVbOb;animation-name: kf_el_wa7sdQ8qqK_an_QaWBYVbOb;-webkit-animation-timing-function: cubic-bezier(0, 0, 0.58, 1);animation-timing-function: cubic-bezier(0, 0, 0.58, 1);}#el_e1LuiSe_uoS_an_OJQg9VOdn{-webkit-animation-fill-mode: backwards;animation-fill-mode: backwards;-webkit-transform: translate(310.4499816894531px, 167.40000915527344px) scale(0, 0) translate(-310.4499816894531px, -167.40000915527344px);transform: translate(310.4499816894531px, 167.40000915527344px) scale(0, 0) translate(-310.4499816894531px, -167.40000915527344px);-webkit-animation-name: kf_el_e1LuiSe_uoS_an_OJQg9VOdn;animation-name: kf_el_e1LuiSe_uoS_an_OJQg9VOdn;-webkit-animation-timing-function: cubic-bezier(0, 0, 0.58, 1);animation-timing-function: cubic-bezier(0, 0, 0.58, 1);}#el_ETVhjyczOAq_an_VU7zu88Ve{-webkit-animation-fill-mode: backwards;animation-fill-mode: backwards;-webkit-transform: translate(313.3000030517578px, 244.10000610351562px) translate(-313.3000030517578px, -244.10000610351562px) translate(0px, 0px);transform: translate(313.3000030517578px, 244.10000610351562px) translate(-313.3000030517578px, -244.10000610351562px) translate(0px, 0px);-webkit-animation-name: kf_el_ETVhjyczOAq_an_VU7zu88Ve;animation-name: kf_el_ETVhjyczOAq_an_VU7zu88Ve;-webkit-animation-timing-function: cubic-bezier(0, 0, 0.58, 1);animation-timing-function: cubic-bezier(0, 0, 0.58, 1);}</style>

<ellipse id="el_87fG3GaSow" cx="178.2" cy="376.5" rx="70" ry="3"/>
<g id="el_Sy4kFdjnuh">
	
		<linearGradient id="Path_2_" gradientUnits="userSpaceOnUse" x1="-795.2631" y1="384.3779" x2="-794.8245" y2="385.039" gradientTransform="matrix(183 0 0 -376 145446.3906 144549.2031)">
		<stop offset="0" style="stop-color:#573E7A"/>
		<stop offset="1" style="stop-color:#3B4A95"/>
	</linearGradient>
	<path id="el_rMamyE6_T2" d="M-99.2-210.9h92.7c9.1,0,16.5,7.4,16.5,16.5V30.7c0,9.1-7.4,16.5-16.5,16.5h-92.7&#xA;&#9;&#9;c-9.1,0-16.5-7.4-16.5-16.5v-225.1C-115.7-203.5-108.3-210.9-99.2-210.9z"/>
	<path id="el_Awf5cB5yez" d="M-60.1-200.9c-0.6,0-1-0.5-1-1s0.5-1,1-1h15.3c0.6,0,1,0.5,1,1s-0.5,1-1,1H-60.1z"/>
	<path id="el_fWdOHQH0d7" d="M-39.5-200.9c-0.6,0-1-0.5-1-1s0.5-1,1-1h0.9c0.6,0,1,0.5,1,1s-0.5,1-1,1H-39.5z"/>
	<g id="el_cvbvYmTDDH">
		<defs>
			<path id="SVGID_1_" d="M-79.9-201.1c0,2.9,2.4,5.3,5.3,5.3H-31c2.9,0,5.3-2.4,5.3-5.3s2.4-5.3,5.3-5.3h11.7&#xA;&#9;&#9;&#9;&#9;c7.6,0,13.7,6.1,13.7,13.7V28.9c0,7.6-6.1,13.7-13.7,13.7H-97c-7.6,0-13.7-6.1-13.7-13.7v-221.6c0-7.6,6.1-13.7,13.7-13.7h11.7&#xA;&#9;&#9;&#9;&#9;C-82.3-206.4-79.9-204-79.9-201.1z"/>
		</defs>
		<clipPath id="SVGID_2_">
			<use xlink:href="#SVGID_1_" style="overflow:visible;"/>
		</clipPath>
		<g id="el_ZLpU50xNXY">
			<g id="el_7MgGZg3RqD">
				
					<linearGradient id="SVGID_3_" gradientUnits="userSpaceOnUse" x1="-802.6326" y1="378.1342" x2="-801.9597" y2="379.0053" gradientTransform="matrix(168.7264 0 0 -362.81 135297.2344 137293.0938)">
					<stop offset="0" style="stop-color:#FFCFAA"/>
					<stop offset="1" style="stop-color:#FA6EB9"/>
				</linearGradient>
				<path d="M-86.9-207.1c0,2.9,2.4,5.3,5.3,5.3H-38c2.9,0,5.3-2.4,5.3-5.3s2.4-5.3,5.3-5.3h11.7&#xA;&#9;&#9;&#9;&#9;&#9;c7.6,0,13.7,6.1,13.7,13.7V22.9c0,7.6-6.1,13.7-13.7,13.7H-104c-7.6,0-13.7-6.1-13.7-13.7v-221.6c0-7.6,6.1-13.7,13.7-13.7h11.7&#xA;&#9;&#9;&#9;&#9;&#9;C-89.3-212.4-86.9-210-86.9-207.1z" id="el_rGkwUpVHGV"/>
			</g>
			<path d="M-17.4-135.2c-28.6,0-51.8-23.2-51.8-51.8s23.2-51.8,51.8-51.8s51.8,23.2,51.8,51.8S11.2-135.2-17.4-135.2z&#xA;&#9;&#9;&#9;&#9; M-17.4-155.8c17.2,0,31.2-14,31.2-31.2s-14-31.2-31.2-31.2s-31.2,14-31.2,31.2S-34.6-155.8-17.4-155.8z M-117.7,12.1&#xA;&#9;&#9;&#9;&#9;c-22.2,0-40.1-18-40.1-40.1s18-40.1,40.1-40.1s40.1,18,40.1,40.1S-95.6,12.1-117.7,12.1z M-117.7-8.5c10.8,0,19.5-8.7,19.5-19.5&#xA;&#9;&#9;&#9;&#9;s-8.7-19.5-19.5-19.5s-19.5,8.7-19.5,19.5S-128.5-8.5-117.7-8.5z M-14.8-37.3c-14,0-25.3-11.3-25.3-25.3s11.3-25.3,25.3-25.3&#xA;&#9;&#9;&#9;&#9;s25.3,11.3,25.3,25.3S-0.9-37.3-14.8-37.3z M-14.8-50.3c6.8,0,12.3-5.5,12.3-12.3c0-6.8-5.5-12.3-12.3-12.3&#xA;&#9;&#9;&#9;&#9;c-6.8,0-12.3,5.5-12.3,12.3C-27.2-55.8-21.6-50.3-14.8-50.3z" id="el_H3GQtbiiJs"/>
			<path d="M-58.9-153.1c-6.4,0-11.7-5.2-11.7-11.7c0-6.4,5.2-11.7,11.7-11.7s11.7,5.2,11.7,11.7&#xA;&#9;&#9;&#9;&#9;C-47.3-158.3-52.5-153.1-58.9-153.1z M-58.9-155.8c4.9,0,8.9-4,8.9-8.9s-4-8.9-8.9-8.9s-8.9,4-8.9,8.9S-63.8-155.8-58.9-155.8z&#xA;&#9;&#9;&#9;&#9; M-52.8-137.2c0.8,0,1.4-0.6,1.4-1.4c0-0.8-0.6-1.4-1.4-1.4H-65c-0.8,0-1.4,0.6-1.4,1.4c0,0.8,0.6,1.4,1.4,1.4H-52.8z M-46-130.4&#xA;&#9;&#9;&#9;&#9;c0.8,0,1.4-0.6,1.4-1.4c0-0.8-0.6-1.4-1.4-1.4h-25.9c-0.8,0-1.4,0.6-1.4,1.4c0,0.8,0.6,1.4,1.4,1.4H-46z" id="el_sFBAUypePq"/>
		</g>
	</g>
</g>
<g id="el_wa7sdQ8qqK_an_QaWBYVbOb" data-animator-group="true" data-animator-type="2"><g id="el_wa7sdQ8qqK">
	
		<linearGradient id="SVGID_4_" gradientUnits="userSpaceOnUse" x1="-696.1504" y1="424.9117" x2="-696.4205" y2="425.4423" gradientTransform="matrix(150 0 0 -134 104397.4297 56800.0469)">
		<stop offset="0" style="stop-color:#37CEDB"/>
		<stop offset="1" style="stop-color:#3488ED"/>
	</linearGradient>
	<path d="M-79.1-198.1h92c3,0,5.5,2.5,5.5,5.5v81c0,3-2.5,5.5-5.5,5.5h-92c-3,0-5.5-2.5-5.5-5.5v-81&#xA;&#9;&#9;C-84.6-195.7-82.1-198.1-79.1-198.1z" id="el_zs4RKwcqQ3"/>
	<path d="M-84.6-136.4h103v24.7c0,3-2.5,5.5-5.5,5.5h-92c-3,0-5.5-2.5-5.5-5.5V-136.4z" id="el_B0ASd8CMtv"/>
	<path d="M-72.3-124.4c-0.8,0-1.4-0.6-1.4-1.4c0-0.8,0.6-1.4,1.4-1.4h12.2c0.8,0,1.4,0.6,1.4,1.4c0,0.8-0.6,1.4-1.4,1.4&#xA;&#9;&#9;H-72.3z" id="el_lrUzF3U4GZ"/>
	<path d="M-72.3-117.5c-0.8,0-1.4-0.6-1.4-1.4s0.6-1.4,1.4-1.4h25.9c0.8,0,1.4,0.6,1.4,1.4s-0.6,1.4-1.4,1.4H-72.3z" id="el_5JSA0ghftRf"/>
	<path d="M-72.9-189.2h11v48h-11V-189.2z M-49.8-189.2h11v48h-11V-189.2z M-26.7-189.2h11v48h-11V-189.2z M-3.6-189.2&#xA;&#9;&#9;h11v48h-11V-189.2z" id="el_4CDe1kPbZ0I"/>
	<path id="el_sJulfkOsHHW" d="M-33.2-158.7c-0.1,0.2-0.3,0.3-0.4,0.3l-19.8,4.5c-0.1,0-0.2,0-0.4,0l-19.1-6.3&#xA;&#9;&#9;c-0.4-0.1-0.6-0.5-0.4-0.9s0.5-0.6,0.9-0.4l18.9,6.3l19.4-4.4l10.8-18.7c0.2-0.4,0.7-0.5,1-0.2L-7-166.7l13-6.7&#xA;&#9;&#9;c0.3-0.2,0.8,0,0.9,0.3c0.2,0.3,0,0.8-0.3,0.9l-13.4,6.9c-0.2,0.1-0.5,0.1-0.7-0.1L-22.6-177L-33.2-158.7z"/>
</g></g>
<g id="el_e1LuiSe_uoS_an_OJQg9VOdn" data-animator-group="true" data-animator-type="2"><g id="el_e1LuiSe_uoS">
	<path d="M361.4,195.6c0,3.4-2.8,6.2-6.2,6.2h-89.5c-3.4,0-6.2-2.8-6.2-6.2v-56.4c0-3.4,2.8-6.2,6.2-6.2h89.5&#xA;&#9;&#9;c3.4,0,6.2,2.8,6.2,6.2V195.6z" id="el_CRKNEf0SZl3"/>
	<g id="el_EYNVOCQFt_5">
		<g id="el_RXFrGVz5BcE">
			<rect x="267.7" y="143.9" width="40.4" height="46.6" id="el_7yaodbDRv18"/>
			<g id="el_O-wR8OAiAG0">
				<g id="el_Iu23qYlScxR">
					<path d="M287.4,151.9c0,0-8-2.6-11.1,3.6c-3.1,6.5,2.6,10.1-3.1,16.6c-5.4,6.5,8.5,7,11.4,6&#xA;&#9;&#9;&#9;&#9;&#9;&#9;C296.4,172.6,287.4,151.9,287.4,151.9z" id="el_B10MAKcGpCN"/>
					<path d="M291.3,168.5c1.6-2.6,3.9-4.4,3.6-7.5c0-2.3-1.3-4.7-3.1-6.2s-4.1-2.3-6.5-1.8c-7.8,1.3-9.6,14.2-8,20.4&#xA;&#9;&#9;&#9;&#9;&#9;&#9;c1.6,6.7,5.4,2.1,8.8,0.8c-0.3,0-0.5,7.5,0,10.6c2.8-0.5,6.2-1.3,9.3-1.6c-1.3-2.6-3.6-7.5-4.4-14.7" id="el_VgQB-g07DKx"/>
					<path d="M282.5,152.4c0,0-3.1,0.8-3.6,2.3c-0.5,1.6,3.9,5.2,6,6.2c5.2,3.1,2.8,11.6,0.3,13.7&#xA;&#9;&#9;&#9;&#9;&#9;&#9;c-1.3,1-1.6,3.4,1.6,3.6c3.4,0.5,13.2-1.8,14.7-11.6C301.9,161.5,305,143.9,282.5,152.4z" id="el_f-JKFfRwnPd"/>
				</g>
				<path d="M280.4,188.6c0,0,2.3-6.7,5.2-7c2.8,0,11.4-4.9,14.2,5.2v3.1l-19.4,0.3V188.6z" id="el_fxsAhhz6jVq"/>
			</g>
		</g>
	</g>
	<g id="el_L7XRgzdDSiV">
		<g id="el_07sMMwriZ-N">
			<rect x="312.7" y="143.9" width="40.4" height="46.6" id="el__BihfIttj84"/>
			<g id="el_766y2ydCyYw">
				<g id="el_oMrXtRg0EWJ">
					<path d="M332.6,151.9c0,0-8-2.6-11.1,3.6c-3.1,6.5,2.6,10.1-3.1,16.6c-5.4,6.5,8.5,7,11.4,6&#xA;&#9;&#9;&#9;&#9;&#9;&#9;C341.7,172.6,332.6,151.9,332.6,151.9z" id="el_aXzwbL3K4Qs"/>
					<path d="M336.5,168.5c1.6-2.6,3.9-4.4,3.6-7.5c0-2.3-1.3-4.7-3.1-6.2s-4.1-2.3-6.5-1.8c-7.8,1.3-9.6,14.2-8,20.4&#xA;&#9;&#9;&#9;&#9;&#9;&#9;c1.6,6.7,5.4,2.1,8.8,0.8c-0.3,0-0.5,7.5,0,10.6c2.8-0.5,6.2-1.3,9.3-1.6c-1.3-2.6-3.6-7.5-4.4-14.7" id="el_WWJLAylgzG5"/>
					<path d="M327.7,152.4c0,0-3.1,0.8-3.6,2.3c-0.5,1.6,3.9,5.2,6,6.2c5.2,3.1,2.8,11.6,0.3,13.7&#xA;&#9;&#9;&#9;&#9;&#9;&#9;c-1.3,1-1.6,3.4,1.6,3.6c3.4,0.5,13.2-1.8,14.7-11.6C347.1,161.5,350.2,143.9,327.7,152.4z" id="el_65ypljaYZQs"/>
				</g>
				<path d="M325.7,188.6c0,0,2.3-6.7,5.2-7c2.8,0,11.4-4.9,14.2,5.2v3.1l-19.4,0.3V188.6z" id="el_z1eSwSfuIRE"/>
			</g>
		</g>
	</g>
</g></g>
<g id="el_5hAnpjxuLIP_an_cAGMchHvp" data-animator-group="true" data-animator-type="0"><g id="el_5hAnpjxuLIP">
	
		<linearGradient id="Path_3_" gradientUnits="userSpaceOnUse" x1="-564.289" y1="-11.471" x2="-563.582" y2="-10.0648" gradientTransform="matrix(76.9427 0 0 -51.024 43418.5391 -873.633)">
		<stop offset="0" style="stop-color:#37CEDB"/>
		<stop offset="1" style="stop-color:#3488ED"/>
	</linearGradient>
	<path id="el_uIaPGWSVyV6" d="M-25.2-355.9h99.8c2.3,0,4.2,1.9,4.2,4.2v63.3c0,2.3-1.9,4.2-4.2,4.2h-99.8&#xA;&#9;&#9;c-2.3,0-4.2-1.9-4.2-4.2v-63.3C-29.4-354-27.6-355.9-25.2-355.9z"/>
	<path d="M34.9-331.1h32.3c1.6,0,2.8,1.3,2.8,2.8v11.2c0,1.6-1.3,2.8-2.8,2.8H34.9c-1.6,0-2.8-1.3-2.8-2.8v-11.2&#xA;&#9;&#9;C32.1-329.8,33.3-331.1,34.9-331.1z" id="el_LnO5-rMEsR3"/>
	<path d="M34.9-333.9h32.3c1.6,0,2.8,1.3,2.8,2.8v11.2c0,1.6-1.3,2.8-2.8,2.8H34.9c-1.6,0-2.8-1.3-2.8-2.8v-11.2&#xA;&#9;&#9;C32.1-332.6,33.3-333.9,34.9-333.9z" id="el_LMMDvwPkvvZ"/>
	<path id="el_1EY_n57CqkC" d="M45-324.8c-0.7,0-1.3-0.6-1.3-1.3s0.6-1.3,1.3-1.3h12.4c0.7,0,1.3,0.6,1.3,1.3&#xA;&#9;&#9;s-0.6,1.3-1.3,1.3H45z"/>
	<path d="M34.9-309.1h32.3c1.6,0,2.8,1.3,2.8,2.8v11.2c0,1.6-1.3,2.8-2.8,2.8H34.9c-1.6,0-2.8-1.3-2.8-2.8v-11.2&#xA;&#9;&#9;C32.1-307.8,33.3-309.1,34.9-309.1z" id="el_4zUPtkkVvpT"/>
	<path d="M-25.2-355.9h99.8c2.3,0,4.2,1.9,4.2,4.2v7.6H-29.4v-7.6C-29.4-354-27.6-355.9-25.2-355.9z" id="el_CWzs2UEqiF2"/>
	<circle id="el_DteVNe_hxr-" cx="-21.4" cy="-350" r="1.4"/>
	<circle id="el_ncCc2ffxeUs" cx="-15.8" cy="-350" r="1.4"/>
	<circle id="el_H8X1Av-sjRP" cx="-10.2" cy="-350" r="1.4"/>
	<path d="M-14.1-330.5c-0.7,0-1.3-0.6-1.3-1.3c0-0.7,0.6-1.3,1.3-1.3h12.4c0.7,0,1.3,0.6,1.3,1.3c0,0.7-0.6,1.3-1.3,1.3&#xA;&#9;&#9;H-14.1z" id="el_vaWp8jjrRST"/>
	<path id="el_n1NmizSenqy" d="M-14.1-322.9c-0.7,0-1.3-0.6-1.3-1.3c0-0.7,0.6-1.3,1.3-1.3h24.9&#xA;&#9;&#9;c0.7,0,1.3,0.6,1.3,1.3c0,0.7-0.6,1.3-1.3,1.3H-14.1z"/>
</g></g>
<g id="el_A-LB6XmuSwe_an_bNOQopoUn" data-animator-group="true" data-animator-type="1"><g id="el_A-LB6XmuSwe">
	<path id="el_49osF53yvSV" d="M-748.5,74.3c-16,0-29-13-29-29s13-29,29-29c16,0,29,13,29,29S-732.5,74.3-748.5,74.3z&#xA;&#9;&#9; M-748.5,67.3c12.2,0,22-9.8,22-22s-9.8-22-22-22s-22,9.8-22,22S-760.7,67.3-748.5,67.3z"/>
	
		<linearGradient id="Path_4_" gradientUnits="userSpaceOnUse" x1="-1467.895" y1="266.8448" x2="-1467.1089" y2="267.9192" gradientTransform="matrix(35.5 0 0 -35.5 51360.5 9524.6494)">
		<stop offset="0" style="stop-color:#46E5F2"/>
		<stop offset="1" style="stop-color:#9E66FF"/>
	</linearGradient>
	<path id="el_nZU06xEB6PI" d="M-718,45.3c0,2.8-2.2,5-5,5s-5-2.2-5-5c0-11.3-9.2-20.5-20.5-20.5c-2.8,0-5-2.2-5-5s2.2-5,5-5&#xA;&#9;&#9;C-731.7,14.8-718,28.5-718,45.3z"/>
</g></g>
<g id="el_SzHT8Pv-gtF">
	<g id="el_0TEW6nvz-Jd">
		<g id="el_1PE1LWj8G7t">
			<defs>
				<path id="SVGID_9_" d="M-579.9-2303c0.8,3.4,3.7,5.2,8.8,5.4c5,0.3,7.2,2.1,6.4,5.4c-14,0-22.4,0-25.1,0s-3.8-1-3.1-3l2.1-7.8&#xA;&#9;&#9;&#9;&#9;&#9;H-579.9z"/>
			</defs>
			<use xlink:href="#SVGID_9_" id="el_mf2kNRW3TJc"/>
			<clipPath id="SVGID_5_">
				<use xlink:href="#SVGID_9_" style="overflow:visible;"/>
			</clipPath>
			<rect x="-595.4" y="-2295.9" width="30.8" height="4.1" id="el_JbetpnwR6gq"/>
		</g>
		<g id="el_Ki36Fn3B1h-">
			<defs>
				<path id="SVGID_11_" d="M-558.1-2303c1.1,2,2.7,3.8,4.9,5.4c3.2,2.4,2,5.4,0.2,5.4c-1.7,0-13.8,0-17.9,0c-2.8,0-3.8-1-3.1-3&#xA;&#9;&#9;&#9;&#9;&#9;l4.9-7.8H-558.1z"/>
			</defs>
			<use xlink:href="#SVGID_11_" id="el_FphYAPaejZD"/>
			<clipPath id="SVGID_6_">
				<use xlink:href="#SVGID_11_" style="overflow:visible;"/>
			</clipPath>
			<rect x="-574.8" y="-2295.9" width="24.6" height="4.1" id="el_IwURH_DJLzt"/>
		</g>
	</g>
	<g id="el_YYfLH-CijmL">
		<g id="el_Z1xuDeI7pHM">
			
				<linearGradient id="SVGID_7_" gradientUnits="userSpaceOnUse" x1="-612.2504" y1="-2176.7434" x2="-613.1243" y2="-2177.3276" gradientTransform="matrix(84.6787 0 0 -165.6956 51350.875 -362928)">
				<stop offset="0" style="stop-color:#3067AC"/>
				<stop offset="1" style="stop-color:#4E679A"/>
			</linearGradient>
			<path d="M-548.7-2257.7c-8.7,41.3-6,38.2-10.3,63.4c-1,5.6-1.9,11.3-3,17c-1.8,9-2.4,17.6-4.6,26.6&#xA;&#9;&#9;&#9;&#9;c-0.5,2.1-2.9,5.5-0.2,6.1c2.7,0.6,10.7,0.3,12.4,0.3s1.5-3.6,2.2-5.4c4.4-11.5,6.9-22,7.5-31.4c0.7-10.8,5.2-26.3,13.5-46.3&#xA;&#9;&#9;&#9;&#9;c3.3,18.8,4.3,34.5,2.9,46.9c-1.1,9.9-1.1,19.4,0.1,28.7c0.3,2.4-1.6,6.7,1.1,7.1s9.6,0.4,11.4,0.3s1.4-5.7,2.3-11.9&#xA;&#9;&#9;&#9;&#9;c0.9-6.2,2.1-14.2,2.8-36.6c0.5-14.9,0.5-36.5,0-64.9H-548.7z" id="el_avYbP0WTtZW"/>
		</g>
		<defs>
			<filter id="Adobe_OpacityMaskFilter" filterUnits="userSpaceOnUse" x="-528.3" y="-2245.6" width="10.3" height="1.4">
				<feColorMatrix type="matrix" values="1 0 0 0 0  0 1 0 0 0  0 0 1 0 0  0 0 0 1 0"/>
			</filter>
		</defs>
		<mask maskUnits="userSpaceOnUse" x="-528.3" y="-2245.6" width="10.3" height="1.4" id="mask-7_10_">
			<g class="st28">
				<path id="path-6_10_" class="st29" d="M-548.7-2257.7c-8.7,41.3-6,38.2-10.3,63.4c-1,5.6-1.9,11.3-3,17&#xA;&#9;&#9;&#9;&#9;&#9;c-1.8,9-2.4,17.6-4.6,26.6c-0.5,2.1-2.9,5.5-0.2,6.1c2.7,0.6,10.7,0.3,12.4,0.3s1.5-3.6,2.2-5.4c4.4-11.5,6.9-22,7.5-31.4&#xA;&#9;&#9;&#9;&#9;&#9;c0.7-10.8,5.2-26.3,13.5-46.3c3.3,18.8,4.3,34.5,2.9,46.9c-1.1,9.9-1.1,19.4,0.1,28.7c0.3,2.4-1.6,6.7,1.1,7.1s9.6,0.4,11.4,0.3&#xA;&#9;&#9;&#9;&#9;&#9;s1.4-5.7,2.3-11.9c0.9-6.2,2.1-14.2,2.8-36.6c0.5-14.9,0.5-36.5,0-64.9H-548.7z"/>
			</g>
		</mask>
		<polygon points="-528.3,-2245.6 -518,-2245.6 -518,-2244.2 -528.3,-2244.2 &#9;&#9;" id="el_NYxs71iJbQQ"/>
		<defs>
			<filter id="Adobe_OpacityMaskFilter_1_" filterUnits="userSpaceOnUse" x="-559.8" y="-2257.7" width="49" height="37.8">
				<feColorMatrix type="matrix" values="1 0 0 0 0  0 1 0 0 0  0 0 1 0 0  0 0 0 1 0"/>
			</filter>
		</defs>
		<mask maskUnits="userSpaceOnUse" x="-559.8" y="-2257.7" width="49" height="37.8" id="mask-7_9_">
			<g class="st31">
				<path id="path-6_9_" class="st29" d="M-548.7-2257.7c-8.7,41.3-6,38.2-10.3,63.4c-1,5.6-1.9,11.3-3,17c-1.8,9-2.4,17.6-4.6,26.6&#xA;&#9;&#9;&#9;&#9;&#9;c-0.5,2.1-2.9,5.5-0.2,6.1c2.7,0.6,10.7,0.3,12.4,0.3s1.5-3.6,2.2-5.4c4.4-11.5,6.9-22,7.5-31.4c0.7-10.8,5.2-26.3,13.5-46.3&#xA;&#9;&#9;&#9;&#9;&#9;c3.3,18.8,4.3,34.5,2.9,46.9c-1.1,9.9-1.1,19.4,0.1,28.7c0.3,2.4-1.6,6.7,1.1,7.1s9.6,0.4,11.4,0.3s1.4-5.7,2.3-11.9&#xA;&#9;&#9;&#9;&#9;&#9;c0.9-6.2,2.1-14.2,2.8-36.6c0.5-14.9,0.5-36.5,0-64.9H-548.7z"/>
			</g>
		</mask>
		<path id="el_aaWFwZO3isI" d="M-510.9-2257.7c-0.3,5.4-4.6,8.1-12.8,8.1c-12.3,0-5.7,9.7-18.3,12.8&#xA;&#9;&#9;&#9;c-12.6,3.2-5.8,16.9-13.5,16.9c-5.1,0-5.8-12.6-1.9-37.8H-510.9z"/>
		<defs>
			<filter id="Adobe_OpacityMaskFilter_2_" filterUnits="userSpaceOnUse" x="-546.1" y="-2227.5" width="14.7" height="54.3">
				<feColorMatrix type="matrix" values="1 0 0 0 0  0 1 0 0 0  0 0 1 0 0  0 0 0 1 0"/>
			</filter>
		</defs>
		<mask maskUnits="userSpaceOnUse" x="-546.1" y="-2227.5" width="14.7" height="54.3" id="mask-7_8_">
			<g class="st33">
				<path id="path-6_8_" class="st29" d="M-548.7-2257.7c-8.7,41.3-6,38.2-10.3,63.4c-1,5.6-1.9,11.3-3,17c-1.8,9-2.4,17.6-4.6,26.6&#xA;&#9;&#9;&#9;&#9;&#9;c-0.5,2.1-2.9,5.5-0.2,6.1c2.7,0.6,10.7,0.3,12.4,0.3s1.5-3.6,2.2-5.4c4.4-11.5,6.9-22,7.5-31.4c0.7-10.8,5.2-26.3,13.5-46.3&#xA;&#9;&#9;&#9;&#9;&#9;c3.3,18.8,4.3,34.5,2.9,46.9c-1.1,9.9-1.1,19.4,0.1,28.7c0.3,2.4-1.6,6.7,1.1,7.1s9.6,0.4,11.4,0.3s1.4-5.7,2.3-11.9&#xA;&#9;&#9;&#9;&#9;&#9;c0.9-6.2,2.1-14.2,2.8-36.6c0.5-14.9,0.5-36.5,0-64.9H-548.7z"/>
			</g>
		</mask>
		<path id="el_PxHKmFwlRCR" d="M-531.3-2227.5c-3.9,0.8-6.7,2.5-8.3,5.1c-2.4,4,0.8,13.9-3.2,16.1c-4,2.2-2.2,22.8-3.1,27.5&#xA;&#9;&#9;&#9;c-0.6,3.1,0.1,5,2.1,5.6L-531.3-2227.5z"/>
		<defs>
			<filter id="Adobe_OpacityMaskFilter_3_" filterUnits="userSpaceOnUse" x="-517.4" y="-2254.9" width="6.3" height="112.8">
				<feColorMatrix type="matrix" values="1 0 0 0 0  0 1 0 0 0  0 0 1 0 0  0 0 0 1 0"/>
			</filter>
		</defs>
		<mask maskUnits="userSpaceOnUse" x="-517.4" y="-2254.9" width="6.3" height="112.8" id="mask-7_7_">
			<g class="st35">
				<path id="path-6_7_" class="st29" d="M-548.7-2257.7c-8.7,41.3-6,38.2-10.3,63.4c-1,5.6-1.9,11.3-3,17c-1.8,9-2.4,17.6-4.6,26.6&#xA;&#9;&#9;&#9;&#9;&#9;c-0.5,2.1-2.9,5.5-0.2,6.1c2.7,0.6,10.7,0.3,12.4,0.3s1.5-3.6,2.2-5.4c4.4-11.5,6.9-22,7.5-31.4c0.7-10.8,5.2-26.3,13.5-46.3&#xA;&#9;&#9;&#9;&#9;&#9;c3.3,18.8,4.3,34.5,2.9,46.9c-1.1,9.9-1.1,19.4,0.1,28.7c0.3,2.4-1.6,6.7,1.1,7.1s9.6,0.4,11.4,0.3s1.4-5.7,2.3-11.9&#xA;&#9;&#9;&#9;&#9;&#9;c0.9-6.2,2.1-14.2,2.8-36.6c0.5-14.9,0.5-36.5,0-64.9H-548.7z"/>
			</g>
		</mask>
		<path id="el_8kxhJRo8NkY" d="M-512.8-2254.4c1.3,33.4,1.5,53.9,0.7,61.7c-0.8,7.8-2.4,24.5-4.8,50.1"/>
		<defs>
			<filter id="Adobe_OpacityMaskFilter_4_" filterUnits="userSpaceOnUse" x="-556.2" y="-2228.2" width="24.9" height="86.2">
				<feColorMatrix type="matrix" values="1 0 0 0 0  0 1 0 0 0  0 0 1 0 0  0 0 0 1 0"/>
			</filter>
		</defs>
		<mask maskUnits="userSpaceOnUse" x="-556.2" y="-2228.2" width="24.9" height="86.2" id="mask-7_6_">
			<g class="st37">
				<path id="path-6_6_" class="st29" d="M-548.7-2257.7c-8.7,41.3-6,38.2-10.3,63.4c-1,5.6-1.9,11.3-3,17c-1.8,9-2.4,17.6-4.6,26.6&#xA;&#9;&#9;&#9;&#9;&#9;c-0.5,2.1-2.9,5.5-0.2,6.1c2.7,0.6,10.7,0.3,12.4,0.3s1.5-3.6,2.2-5.4c4.4-11.5,6.9-22,7.5-31.4c0.7-10.8,5.2-26.3,13.5-46.3&#xA;&#9;&#9;&#9;&#9;&#9;c3.3,18.8,4.3,34.5,2.9,46.9c-1.1,9.9-1.1,19.4,0.1,28.7c0.3,2.4-1.6,6.7,1.1,7.1s9.6,0.4,11.4,0.3s1.4-5.7,2.3-11.9&#xA;&#9;&#9;&#9;&#9;&#9;c0.9-6.2,2.1-14.2,2.8-36.6c0.5-14.9,0.5-36.5,0-64.9H-548.7z"/>
			</g>
		</mask>
		<path id="el_f8lRkDiLAzM" d="M-531.7-2227.7c-9.7,20.1-14.8,35.3-15.4,45.4c-0.5,10.1-3.4,23.4-8.6,39.8"/>
	</g>
	<path id="el_3xp3jKuzymk" d="M-599.9-2199.3c-2.4,1.4-4,1.8-4.8,1&#xA;&#9;&#9;c-0.8-0.7-1.1-1.4-1-2.1c0.9-3.9,1.6-6.3,2.2-7.2c0.4-0.6,2.9-2.1,4.3-2.7c0.5-0.2,3.7-2.7,4.2-2.8c0.9-0.1,0.4,1.6-1.5,3.2&#xA;&#9;&#9;c-2,1.8,1.5,4.2,0.4,7.2C-596.8-2200.6-598.1-2199.5-599.9-2199.3z"/>
	
		<g id="el_HmQrXVm1MMq">
		<g id="el_N2SA4uFBncD">
			
				<linearGradient id="Path_5_" gradientUnits="userSpaceOnUse" x1="-287.3918" y1="-2144.8933" x2="-286.8545" y2="-2144.2976" gradientTransform="matrix(27.505 6.479 4.8499 -36.7442 18119.3574 -79212.625)">
				<stop offset="0" style="stop-color:#FF9292"/>
				<stop offset="1" style="stop-color:#FFB59D"/>
			</linearGradient>
			<path id="el_dfUECQnb5wp" d="M-184.3-2277.2c-0.1,0-0.1,0-0.2,0c1.1-3,1.8-4.3,2-3.8c0.2,0.1-0.8-8.4,2.9-7&#xA;&#9;&#9;&#9;&#9;c2.3,0.9,5.1,0,7.6,0c1.4,0,2.8,1.2,3.6,0.7c0.5,10.1-1.6,17.3-4.6,17.3c-0.6,0-1.8,0-2.4-0.1l0.3,1.8c-0.7,3.8-1.5,5.7-2.4,5.7&#xA;&#9;&#9;&#9;&#9;c-0.9,0-5.3-2.1-10-5.9L-184.3-2277.2z"/>
		</g>
		
			<linearGradient id="Oval_1_" gradientUnits="userSpaceOnUse" x1="-273.3324" y1="-2128.6799" x2="-272.6972" y2="-2128.1404" gradientTransform="matrix(41.8022 6.9459 7.3708 -39.3923 26941.5723 -84219.6953)">
			<stop offset="0" style="stop-color:#321847"/>
			<stop offset="1" style="stop-color:#834A88"/>
		</linearGradient>
		<path id="el_4ufz_jxTjAX" d="M-168.1-2283.4c8,0,14.5,6.1,14.5,13.7c0,7.6-6.5,13.7-14.5,13.7s-14.5-6.1-14.5-13.7&#xA;&#9;&#9;&#9;C-182.6-2277.3-176.1-2283.4-168.1-2283.4z"/>
	</g>
	<g id="el_tupvqomUThB">
		<g id="el_quC2cdZy4Re">
			
				<linearGradient id="SVGID_8_" gradientUnits="userSpaceOnUse" x1="-620.1282" y1="-2053.8408" x2="-619.8907" y2="-2052.9968" gradientTransform="matrix(129.8333 0 0 -132.5949 79966.0234 -274439.3125)">
				<stop offset="0" style="stop-color:#46E5F2"/>
				<stop offset="1" style="stop-color:#9E66FF"/>
			</linearGradient>
			<path d="M-524.5-2195.2c-5.3-0.7-19,0.2-26.7,1.4c-5.4,0.8-9,3.2-10.8,7.1c-6.9,18.8-9.7,29.8-8.4,33.2&#xA;&#9;&#9;&#9;&#9;c1.3,3.4,5.9,5.8,13.8,7.1c0,3.7-0.5,7.6-1.6,11.6c-0.7,2-1.9,4.7,5.2,5.6c7.1,0.9,19.6,2.2,27.4,0.9c7.8-1.4,11.5-1.7,8.9-7.3&#xA;&#9;&#9;&#9;&#9;c-2.5-5.7-3-37.7-0.4-40c2.6-2.3,19-10.6,21.9-14.6c1.9-2.5,8.1-9.9,13-22.6c0.2-0.5-0.1-1.4,0-1.5c0.1-0.3,0.2-0.5,0.3-0.7&#xA;&#9;&#9;&#9;&#9;c-0.7-2.7-3-3.8-6.6-3.1c-0.1,0.3-0.1,0.6-0.3,0.7c-0.2,0.3-0.6,0.3-1,0.9c-7.6,11.7-12.2,17.4-13.1,17.7&#xA;&#9;&#9;&#9;&#9;C-504.3-2198.4-519.3-2194.5-524.5-2195.2z" id="el_behByabvmiw"/>
		</g>
		<defs>
			<filter id="Adobe_OpacityMaskFilter_5_" filterUnits="userSpaceOnUse" x="-551.3" y="-2195.6" width="20.4" height="13.7">
				<feColorMatrix type="matrix" values="1 0 0 0 0  0 1 0 0 0  0 0 1 0 0  0 0 0 1 0"/>
			</filter>
		</defs>
		<mask maskUnits="userSpaceOnUse" x="-551.3" y="-2195.6" width="20.4" height="13.7" id="mask-14_8_">
			<g class="st43">
				<path id="path-13_8_" class="st29" d="M-524.5-2195.2c-5.3-0.7-19,0.2-26.7,1.4c-5.4,0.8-9,3.2-10.8,7.1&#xA;&#9;&#9;&#9;&#9;&#9;c-6.9,18.8-9.7,29.8-8.4,33.2c1.3,3.4,5.9,5.8,13.8,7.1c0,3.7-0.5,7.6-1.6,11.6c-0.7,2-1.9,4.7,5.2,5.6&#xA;&#9;&#9;&#9;&#9;&#9;c7.1,0.9,19.6,2.2,27.4,0.9c7.8-1.4,11.5-1.7,8.9-7.3c-2.5-5.7-3-37.7-0.4-40c2.6-2.3,19-10.6,21.9-14.6&#xA;&#9;&#9;&#9;&#9;&#9;c1.9-2.5,8.1-9.9,13-22.6c0.2-0.5-0.1-1.4,0-1.5c0.1-0.3,0.2-0.5,0.3-0.7c-0.7-2.7-3-3.8-6.6-3.1c-0.1,0.3-0.1,0.6-0.3,0.7&#xA;&#9;&#9;&#9;&#9;&#9;c-0.2,0.3-0.6,0.3-1,0.9c-7.6,11.7-12.2,17.4-13.1,17.7C-504.3-2198.4-519.3-2194.5-524.5-2195.2z"/>
			</g>
		</mask>
		<path id="el_2liL4rDpwwR" d="M-548.8-2195.6c-3.7,8.1-3.4,12.6,0.9,13.6s9.9-2.2,17-9.4L-548.8-2195.6z"/>
		<defs>
			<filter id="Adobe_OpacityMaskFilter_6_" filterUnits="userSpaceOnUse" x="-517.1" y="-2194" width="24.6" height="17.6">
				<feColorMatrix type="matrix" values="1 0 0 0 0  0 1 0 0 0  0 0 1 0 0  0 0 0 1 0"/>
			</filter>
		</defs>
		<mask maskUnits="userSpaceOnUse" x="-517.1" y="-2194" width="24.6" height="17.6" id="mask-14_7_">
			<g class="st45">
				<path id="path-13_7_" class="st29" d="M-524.5-2195.2c-5.3-0.7-19,0.2-26.7,1.4c-5.4,0.8-9,3.2-10.8,7.1&#xA;&#9;&#9;&#9;&#9;&#9;c-6.9,18.8-9.7,29.8-8.4,33.2c1.3,3.4,5.9,5.8,13.8,7.1c0,3.7-0.5,7.6-1.6,11.6c-0.7,2-1.9,4.7,5.2,5.6&#xA;&#9;&#9;&#9;&#9;&#9;c7.1,0.9,19.6,2.2,27.4,0.9c7.8-1.4,11.5-1.7,8.9-7.3c-2.5-5.7-3-37.7-0.4-40c2.6-2.3,19-10.6,21.9-14.6&#xA;&#9;&#9;&#9;&#9;&#9;c1.9-2.5,8.1-9.9,13-22.6c0.2-0.5-0.1-1.4,0-1.5c0.1-0.3,0.2-0.5,0.3-0.7c-0.7-2.7-3-3.8-6.6-3.1c-0.1,0.3-0.1,0.6-0.3,0.7&#xA;&#9;&#9;&#9;&#9;&#9;c-0.2,0.3-0.6,0.3-1,0.9c-7.6,11.7-12.2,17.4-13.1,17.7C-504.3-2198.4-519.3-2194.5-524.5-2195.2z"/>
			</g>
		</mask>
		<path id="el_ZWDWowxViJw" d="M-517.1-2176.4c1.2-4.2,4.5-6.7,9.8-7.6c8-1.3,8.1-8.4,13.1-9.8c3.3-0.9,1.5,2.1-5.7,9&#xA;&#9;&#9;&#9;L-517.1-2176.4z"/>
		<defs>
			<filter id="Adobe_OpacityMaskFilter_7_" filterUnits="userSpaceOnUse" x="-564.3" y="-2178.4" width="9.4" height="37.9">
				<feColorMatrix type="matrix" values="1 0 0 0 0  0 1 0 0 0  0 0 1 0 0  0 0 0 1 0"/>
			</filter>
		</defs>
		<mask maskUnits="userSpaceOnUse" x="-564.3" y="-2178.4" width="9.4" height="37.9" id="mask-14_6_">
			<g class="st47">
				<path id="path-13_6_" class="st29" d="M-524.5-2195.2c-5.3-0.7-19,0.2-26.7,1.4c-5.4,0.8-9,3.2-10.8,7.1&#xA;&#9;&#9;&#9;&#9;&#9;c-6.9,18.8-9.7,29.8-8.4,33.2c1.3,3.4,5.9,5.8,13.8,7.1c0,3.7-0.5,7.6-1.6,11.6c-0.7,2-1.9,4.7,5.2,5.6&#xA;&#9;&#9;&#9;&#9;&#9;c7.1,0.9,19.6,2.2,27.4,0.9c7.8-1.4,11.5-1.7,8.9-7.3c-2.5-5.7-3-37.7-0.4-40c2.6-2.3,19-10.6,21.9-14.6&#xA;&#9;&#9;&#9;&#9;&#9;c1.9-2.5,8.1-9.9,13-22.6c0.2-0.5-0.1-1.4,0-1.5c0.1-0.3,0.2-0.5,0.3-0.7c-0.7-2.7-3-3.8-6.6-3.1c-0.1,0.3-0.1,0.6-0.3,0.7&#xA;&#9;&#9;&#9;&#9;&#9;c-0.2,0.3-0.6,0.3-1,0.9c-7.6,11.7-12.2,17.4-13.1,17.7C-504.3-2198.4-519.3-2194.5-524.5-2195.2z"/>
			</g>
		</mask>
		<path id="el_ImpnV4rDUSn" d="M-557-2140.6c1.8-17.3,2.4-29.9,1.8-37.9c-1.2,1.5-1.8,4.3-1.8,8.4c0,6.2-6.2,0-3.8,9.1&#xA;&#9;&#9;&#9;c2.4,9.1-7.4,6.7-1.7,12.8c3.8,4.1,5.4,6.5,4.8,7.3L-557-2140.6z"/>
		<defs>
			<filter id="Adobe_OpacityMaskFilter_8_" filterUnits="userSpaceOnUse" x="-490.5" y="-2219.5" width="9.3" height="5.4">
				<feColorMatrix type="matrix" values="1 0 0 0 0  0 1 0 0 0  0 0 1 0 0  0 0 0 1 0"/>
			</filter>
		</defs>
		<mask maskUnits="userSpaceOnUse" x="-490.5" y="-2219.5" width="9.3" height="5.4" id="mask-14_5_">
			<g class="st49">
				<path id="path-13_5_" class="st29" d="M-524.5-2195.2c-5.3-0.7-19,0.2-26.7,1.4c-5.4,0.8-9,3.2-10.8,7.1&#xA;&#9;&#9;&#9;&#9;&#9;c-6.9,18.8-9.7,29.8-8.4,33.2c1.3,3.4,5.9,5.8,13.8,7.1c0,3.7-0.5,7.6-1.6,11.6c-0.7,2-1.9,4.7,5.2,5.6&#xA;&#9;&#9;&#9;&#9;&#9;c7.1,0.9,19.6,2.2,27.4,0.9c7.8-1.4,11.5-1.7,8.9-7.3c-2.5-5.7-3-37.7-0.4-40c2.6-2.3,19-10.6,21.9-14.6&#xA;&#9;&#9;&#9;&#9;&#9;c1.9-2.5,8.1-9.9,13-22.6c0.2-0.5-0.1-1.4,0-1.5c0.1-0.3,0.2-0.5,0.3-0.7c-0.7-2.7-3-3.8-6.6-3.1c-0.1,0.3-0.1,0.6-0.3,0.7&#xA;&#9;&#9;&#9;&#9;&#9;c-0.2,0.3-0.6,0.3-1,0.9c-7.6,11.7-12.2,17.4-13.1,17.7C-504.3-2198.4-519.3-2194.5-524.5-2195.2z"/>
			</g>
		</mask>
		<path id="el_4tQrSq1V1V9" d="M-482.1-2214.4c-0.7-1.3-1.6-2.3-2.7-2.8c-1.1-0.6-3-0.6-5.6,0l1.4-1.3l4.2-1l2.4,1.5l1.3,2.7&#xA;&#9;&#9;&#9;v1.2L-482.1-2214.4z"/>
		
			<linearGradient id="SVGID_10_" gradientUnits="userSpaceOnUse" x1="-619.6931" y1="-2056.7969" x2="-619.0222" y2="-2055.105" gradientTransform="matrix(31.1381 0 0 -15.4677 18745.25 -33992.8008)">
			<stop offset="0" style="stop-color:#46E5F2"/>
			<stop offset="1" style="stop-color:#9E66FF"/>
		</linearGradient>
		<path d="M-545.9-2196.2h13.6c1.5,0,2.7,1,3.1,2.4c0.4,1.4-0.4,2.8-1.7,3.3l-12.2,4.6c-2.7,1-5.6-0.3-6.6-3&#xA;&#9;&#9;&#9;c0,0,0,0,0-0.1l-0.4-1.2c-0.8-2.3,0.4-4.9,2.7-5.8C-547-2196.1-546.5-2196.2-545.9-2196.2z" id="el_QxAhyYMixZX"/>
	</g>
</g>
<g id="el_ETVhjyczOAq_an_VU7zu88Ve" data-animator-group="true" data-animator-type="0"><g id="el_ETVhjyczOAq">
	
		<linearGradient id="SVGID_12_" gradientUnits="userSpaceOnUse" x1="-1484.0977" y1="-108.8326" x2="-1439.6591" y2="-153.2711" gradientTransform="matrix(4.489700e-11 -1 -1 -4.489700e-11 182.25 -1217.75)">
		<stop offset="0" style="stop-color:#6481C0"/>
		<stop offset="0.4764" style="stop-color:#58A2C9"/>
		<stop offset="0.9996" style="stop-color:#4DC3D2"/>
	</linearGradient>
	<polygon points="285.1,227.8 285.1,260.4 313.3,276.6 341.5,260.4 341.5,227.8 313.3,211.6 &#9;" id="el_wBq4O0S6DY4"/>
	<g id="el_lB1o1QE-CT5">
		<path d="M312.7,235.7c-4.6,0-8.4,3.7-8.4,8.4s3.7,8.4,8.4,8.4s8.4-3.7,8.4-8.4S317.4,235.7,312.7,235.7z M312.7,250.6&#xA;&#9;&#9;&#9;c-3.6,0-6.5-2.9-6.5-6.5s2.9-6.5,6.5-6.5s6.5,2.9,6.5,6.5S316.3,250.6,312.7,250.6z" id="el_3Zc5MOU-Wie"/>
		<circle cx="312.7" cy="244.1" r="1.9" id="el_t6n2pjWbxTg"/>
		<path d="M325.3,240.9c0.3,1,0.4,2.1,0.4,3.2c0,7.2-5.8,13-13,13c-7.2,0-13-5.8-13-13s5.8-13,13-13&#xA;&#9;&#9;&#9;c2.6,0,4.9,0.8,6.9,2c-0.3,0.5-0.4,1.1-0.4,1.7c0,2.1,1.7,3.7,3.7,3.7c2.1,0,3.7-1.7,3.7-3.7c0-2.1-1.7-3.7-3.7-3.7&#xA;&#9;&#9;&#9;c-0.8,0-1.4,0.2-2.1,0.6c-2.3-1.6-5.2-2.5-8.1-2.5c-8.2,0-14.8,6.6-14.8,14.8s6.6,14.8,14.8,14.8s14.8-6.6,14.8-14.8&#xA;&#9;&#9;&#9;c0-1.4-0.2-2.8-0.6-4.2C326.5,240.3,325.9,240.6,325.3,240.9z" id="el_PUdylVwFZF5"/>
	</g>
</g></g>
</svg>