<?xml version="1.0" encoding="utf-8"?>
<!-- Generator: Adobe Illustrator 23.0.3, SVG Export Plug-In . SVG Version: 6.00 Build 0)  -->
<svg version="1.1" id="Layer_2" xmlns="http://www.w3.org/2000/svg" xmlns:xlink="http://www.w3.org/1999/xlink" x="0px" y="0px"
	 viewBox="0 0 1000 532.3" style="enable-background:new 0 0 1000 532.3;" xml:space="preserve">
<style type="text/css">
	.st0{fill:url(#SVGID_1_);}
	.st1{fill:#FFFFFF;}
	.st2{fill:url(#SVGID_2_);}
	.st3{fill:url(#SVGID_3_);}
	.st4{fill:url(#SVGID_4_);}
	.st5{fill:url(#SVGID_5_);}
	.st6{fill:url(#SVGID_6_);}
	.st7{fill:url(#SVGID_7_);}
	.st8{fill:url(#SVGID_8_);}
	.st9{fill:url(#SVGID_9_);}
	.st10{fill:url(#SVGID_10_);}
	.st11{fill:url(#SVGID_11_);}
	.st12{fill:url(#SVGID_12_);}
	.st13{fill:url(#SVGID_13_);}
</style>
<g>
	<linearGradient id="SVGID_1_" gradientUnits="userSpaceOnUse" x1="30.976" y1="267.5047" x2="113.5413" y2="267.5047">
		<stop  offset="3.605769e-04" style="stop-color:#4EC4D3"/>
		<stop  offset="0.3128" style="stop-color:#57B1CE"/>
		<stop  offset="1" style="stop-color:#6482C1"/>
	</linearGradient>
	<circle class="st0" cx="72.3" cy="267.5" r="41.3"/>
	<g>
		<path class="st1" d="M56.3,255.2h0.9v4.3h5.9v-4.3H64v9.4h-0.9v-4.3h-5.9v4.3h-0.9V255.2z"/>
		<path class="st1" d="M74,264.7l-1.1-2.5h-5.2l-1.1,2.5h-1l4.2-9.4h1l4.2,9.4H74z M68,261.3h4.5l-2.3-5.1L68,261.3z"/>
		<path class="st1" d="M76.5,255.2h0.9v9.4h-0.9V255.2z"/>
		<path class="st1" d="M86.6,264.7l-2-3.1c-0.3,0-0.5,0-0.7,0h-2.6v3h-0.9v-9.4h3.5c1.2,0,2.1,0.3,2.7,0.8c0.6,0.5,1,1.3,1,2.3
			c0,0.8-0.2,1.4-0.6,2c-0.4,0.5-0.9,0.9-1.6,1.1l2.3,3.2H86.6z M83.9,260.8c0.9,0,1.6-0.2,2.1-0.6s0.7-1,0.7-1.8
			c0-0.8-0.2-1.3-0.7-1.7s-1.2-0.6-2.1-0.6h-2.6v4.7H83.9z"/>
		<path class="st1" d="M46.1,280.8l-2-3.1c-0.3,0-0.5,0-0.7,0h-2.6v3h-0.9v-9.4h3.5c1.2,0,2.1,0.3,2.7,0.8c0.6,0.5,1,1.3,1,2.3
			c0,0.8-0.2,1.4-0.6,2c-0.4,0.5-0.9,0.9-1.6,1.1l2.3,3.2H46.1z M43.4,276.9c0.9,0,1.6-0.2,2.1-0.6s0.7-1,0.7-1.8
			c0-0.8-0.2-1.3-0.7-1.7c-0.5-0.4-1.2-0.6-2.1-0.6h-2.6v4.7H43.4z"/>
		<path class="st1" d="M49.6,271.4h6.3v0.8h-5.4v3.4h4.8v0.8h-4.8v3.5h5.5v0.8h-6.5V271.4z"/>
		<path class="st1" d="M58.4,271.4h1.2l3.7,7.1l3.6-7.1H68v9.4h-0.9l0-8.1l-3.7,7.1h-0.5l-3.7-7.1v8.1h-0.9V271.4z"/>
		<path class="st1" d="M77.4,271.9c0.7,0.4,1.3,1,1.8,1.7c0.4,0.7,0.7,1.5,0.7,2.4s-0.2,1.7-0.7,2.4c-0.4,0.7-1,1.3-1.8,1.7
			s-1.6,0.6-2.5,0.6c-0.9,0-1.7-0.2-2.5-0.6s-1.3-1-1.8-1.7c-0.4-0.7-0.7-1.5-0.7-2.4s0.2-1.7,0.7-2.4c0.4-0.7,1-1.3,1.8-1.7
			c0.7-0.4,1.6-0.6,2.5-0.6C75.9,271.3,76.7,271.5,77.4,271.9z M73,272.7c-0.6,0.3-1.1,0.8-1.5,1.4c-0.4,0.6-0.5,1.3-0.5,2
			s0.2,1.4,0.5,2c0.4,0.6,0.8,1.1,1.5,1.4c0.6,0.4,1.3,0.5,2,0.5c0.7,0,1.4-0.2,2-0.5s1.1-0.8,1.4-1.4c0.4-0.6,0.5-1.3,0.5-2
			s-0.2-1.4-0.5-2c-0.4-0.6-0.8-1.1-1.4-1.4s-1.3-0.5-2-0.5C74.3,272.1,73.6,272.3,73,272.7z"/>
		<path class="st1" d="M80.4,271.4h1l3.4,8.4l3.3-8.4h1l-3.9,9.4h-1L80.4,271.4z"/>
		<path class="st1" d="M97.1,280.8l-1.1-2.5h-5.2l-1.1,2.5h-1l4.2-9.4h1l4.2,9.4H97.1z M91.1,277.5h4.5l-2.3-5.1L91.1,277.5z"/>
		<path class="st1" d="M99.6,271.4h0.9v8.6h4.1v0.8h-5.1V271.4z"/>
	</g>
</g>
<g>
	<linearGradient id="SVGID_2_" gradientUnits="userSpaceOnUse" x1="521.2913" y1="73.4941" x2="572.2626" y2="73.4941">
		<stop  offset="3.605769e-04" style="stop-color:#4EC4D3"/>
		<stop  offset="0.3128" style="stop-color:#57B1CE"/>
		<stop  offset="1" style="stop-color:#6482C1"/>
	</linearGradient>
	<circle class="st2" cx="546.8" cy="73.5" r="25.5"/>
	<g>
		<path class="st1" d="M535.8,65.9c0.3,0.3,0.5,0.6,0.5,1.1c0,0.3-0.1,0.6-0.3,0.9s-0.5,0.4-0.8,0.5c0.4,0.1,0.8,0.2,1,0.5
			s0.4,0.6,0.4,1c0,0.5-0.2,0.9-0.6,1.2c-0.4,0.3-0.9,0.4-1.5,0.4H532v-5.8h2.4C535,65.5,535.4,65.7,535.8,65.9z M535.3,67.8
			c0.2-0.2,0.3-0.4,0.3-0.8c0-0.3-0.1-0.6-0.3-0.7c-0.2-0.2-0.5-0.3-1-0.3h-1.8v2h1.8C534.8,68.1,535.1,68,535.3,67.8z M535.5,70.5
			c0.3-0.2,0.4-0.5,0.4-0.8c0-0.3-0.1-0.6-0.4-0.8c-0.3-0.2-0.7-0.3-1.2-0.3h-1.8v2.2h1.8C534.9,70.8,535.3,70.7,535.5,70.5z"/>
		<path class="st1" d="M541.9,65.9c0.5,0.3,0.8,0.6,1.1,1.1c0.3,0.4,0.4,0.9,0.4,1.5s-0.1,1-0.4,1.5s-0.6,0.8-1.1,1.1
			c-0.5,0.3-1,0.4-1.5,0.4s-1.1-0.1-1.5-0.4c-0.5-0.3-0.8-0.6-1.1-1.1s-0.4-0.9-0.4-1.5s0.1-1,0.4-1.5c0.3-0.4,0.6-0.8,1.1-1.1
			c0.5-0.3,1-0.4,1.5-0.4S541.5,65.6,541.9,65.9z M539.2,66.3c-0.4,0.2-0.7,0.5-0.9,0.9S538,68,538,68.4s0.1,0.9,0.3,1.2
			c0.2,0.4,0.5,0.7,0.9,0.9c0.4,0.2,0.8,0.3,1.2,0.3c0.4,0,0.8-0.1,1.2-0.3c0.4-0.2,0.7-0.5,0.9-0.9c0.2-0.4,0.3-0.8,0.3-1.2
			s-0.1-0.9-0.3-1.2s-0.5-0.7-0.9-0.9c-0.4-0.2-0.8-0.3-1.2-0.3C540,66,539.6,66.1,539.2,66.3z"/>
		<path class="st1" d="M548.9,71.4l-0.7-1.5H545l-0.7,1.5h-0.6l2.6-5.8h0.6l2.6,5.8H548.9z M545.2,69.3h2.8l-1.4-3.1L545.2,69.3z"/>
		<path class="st1" d="M554.3,71.4l-1.3-1.9c-0.2,0-0.3,0-0.4,0H551v1.9h-0.6v-5.8h2.2c0.7,0,1.3,0.2,1.7,0.5
			c0.4,0.3,0.6,0.8,0.6,1.4c0,0.5-0.1,0.9-0.3,1.2s-0.6,0.5-1,0.7l1.4,2H554.3z M552.6,69c0.6,0,1-0.1,1.3-0.4
			c0.3-0.3,0.4-0.6,0.4-1.1c0-0.5-0.1-0.8-0.4-1.1c-0.3-0.2-0.7-0.4-1.3-0.4H551V69H552.6z"/>
		<path class="st1" d="M560.3,65.9c0.5,0.3,0.8,0.6,1.1,1.1c0.3,0.4,0.4,0.9,0.4,1.5s-0.1,1-0.4,1.5c-0.3,0.4-0.6,0.8-1.1,1
			c-0.5,0.3-1,0.4-1.5,0.4h-2.3v-5.8h2.3C559.4,65.5,559.9,65.7,560.3,65.9z M560,70.5c0.4-0.2,0.7-0.5,0.9-0.9
			c0.2-0.4,0.3-0.8,0.3-1.2s-0.1-0.8-0.3-1.2s-0.5-0.7-0.9-0.9s-0.8-0.3-1.2-0.3H557v4.8h1.8C559.3,70.8,559.7,70.7,560,70.5z"/>
		<path class="st1" d="M529.3,76.2c-0.3-0.1-0.6-0.2-0.9-0.2c-0.4,0-0.9,0.1-1.2,0.3c-0.4,0.2-0.7,0.5-0.9,0.9
			c-0.2,0.4-0.3,0.8-0.3,1.2s0.1,0.9,0.3,1.2c0.2,0.4,0.5,0.7,0.9,0.9c0.4,0.2,0.8,0.3,1.2,0.3c0.3,0,0.6-0.1,0.9-0.2
			c0.3-0.1,0.6-0.3,0.8-0.5l0.3,0.4c-0.3,0.3-0.6,0.5-1,0.6c-0.4,0.2-0.8,0.2-1.1,0.2c-0.5,0-1.1-0.1-1.5-0.4
			c-0.5-0.3-0.8-0.6-1.1-1.1c-0.3-0.5-0.4-0.9-0.4-1.5s0.1-1,0.4-1.5c0.3-0.4,0.6-0.8,1.1-1.1c0.5-0.3,1-0.4,1.5-0.4
			c0.4,0,0.8,0.1,1.1,0.2c0.4,0.1,0.7,0.4,1,0.6l-0.3,0.4C529.9,76.5,529.6,76.3,529.3,76.2z"/>
		<path class="st1" d="M531.7,75.5h3.9V76h-3.3v2.1h3v0.5h-3v2.2h3.4v0.5h-4V75.5z"/>
		<path class="st1" d="M540.9,81.3l-1.3-1.9c-0.2,0-0.3,0-0.4,0h-1.6v1.9h-0.6v-5.8h2.2c0.7,0,1.3,0.2,1.7,0.5
			c0.4,0.3,0.6,0.8,0.6,1.4c0,0.5-0.1,0.9-0.3,1.2c-0.2,0.3-0.6,0.5-1,0.7l1.4,2H540.9z M539.3,78.9c0.6,0,1-0.1,1.3-0.4
			c0.3-0.3,0.4-0.6,0.4-1.1c0-0.5-0.1-0.8-0.4-1.1s-0.7-0.4-1.3-0.4h-1.6v2.9H539.3z"/>
		<path class="st1" d="M542.3,75.5h4.4V76h-1.9v5.3h-0.6V76h-1.9V75.5z"/>
		<path class="st1" d="M547.7,75.5h0.6v5.8h-0.6V75.5z"/>
		<path class="st1" d="M550.1,75.5h3.6V76h-3.1v2.2h2.7v0.5h-2.7v2.5h-0.6V75.5z"/>
		<path class="st1" d="M554.8,75.5h0.6v5.8h-0.6V75.5z"/>
		<path class="st1" d="M557.2,75.5h3.9V76h-3.3v2.1h3v0.5h-3v2.2h3.4v0.5h-4V75.5z"/>
		<path class="st1" d="M566.4,75.9c0.5,0.3,0.8,0.6,1.1,1.1c0.3,0.4,0.4,0.9,0.4,1.5s-0.1,1-0.4,1.5c-0.3,0.4-0.6,0.8-1.1,1
			c-0.5,0.3-1,0.4-1.5,0.4h-2.3v-5.8h2.3C565.4,75.5,565.9,75.6,566.4,75.9z M566.1,80.5c0.4-0.2,0.7-0.5,0.9-0.9
			c0.2-0.4,0.3-0.8,0.3-1.2s-0.1-0.8-0.3-1.2s-0.5-0.7-0.9-0.9s-0.8-0.3-1.2-0.3h-1.8v4.8h1.8C565.3,80.8,565.7,80.7,566.1,80.5z"/>
	</g>
</g>
<g>
	<linearGradient id="SVGID_3_" gradientUnits="userSpaceOnUse" x1="817.067" y1="263.3995" x2="877.7654" y2="263.3995">
		<stop  offset="3.605769e-04" style="stop-color:#4EC4D3"/>
		<stop  offset="0.3128" style="stop-color:#57B1CE"/>
		<stop  offset="1" style="stop-color:#6482C1"/>
	</linearGradient>
	<circle class="st3" cx="847.4" cy="263.4" r="30.3"/>
	<g>
		<path class="st1" d="M827.5,263c0.4,0.3,0.6,0.8,0.6,1.4c0,0.6-0.2,1.1-0.6,1.4c-0.4,0.3-0.9,0.5-1.6,0.5h-1.5v1.8h-0.5v-5.5h2
			C826.6,262.5,827.1,262.6,827.5,263z M827.1,265.4c0.3-0.2,0.4-0.6,0.4-1c0-0.4-0.1-0.8-0.4-1s-0.7-0.3-1.2-0.3h-1.5v2.8h1.5
			C826.4,265.7,826.8,265.6,827.1,265.4z"/>
		<path class="st1" d="M832.8,268l-1.2-1.8c-0.2,0-0.3,0-0.4,0h-1.5v1.8h-0.5v-5.5h2.1c0.7,0,1.2,0.2,1.6,0.5s0.6,0.8,0.6,1.4
			c0,0.5-0.1,0.8-0.3,1.1c-0.2,0.3-0.5,0.5-0.9,0.6l1.3,1.9H832.8z M831.2,265.7c0.5,0,0.9-0.1,1.2-0.4s0.4-0.6,0.4-1
			c0-0.4-0.1-0.8-0.4-1s-0.7-0.3-1.2-0.3h-1.5v2.8H831.2z"/>
		<path class="st1" d="M838.6,262.8c0.4,0.2,0.8,0.6,1,1c0.3,0.4,0.4,0.9,0.4,1.4c0,0.5-0.1,1-0.4,1.4c-0.3,0.4-0.6,0.8-1,1
			c-0.4,0.3-0.9,0.4-1.4,0.4s-1-0.1-1.4-0.4c-0.4-0.3-0.8-0.6-1-1s-0.4-0.9-0.4-1.4c0-0.5,0.1-1,0.4-1.4c0.3-0.4,0.6-0.8,1-1
			s0.9-0.4,1.4-0.4S838.2,262.6,838.6,262.8z M836,263.2c-0.4,0.2-0.6,0.5-0.9,0.8c-0.2,0.4-0.3,0.7-0.3,1.2s0.1,0.8,0.3,1.2
			c0.2,0.4,0.5,0.6,0.9,0.8c0.4,0.2,0.7,0.3,1.2,0.3c0.4,0,0.8-0.1,1.2-0.3s0.6-0.5,0.8-0.8c0.2-0.4,0.3-0.7,0.3-1.2
			s-0.1-0.8-0.3-1.2c-0.2-0.4-0.5-0.6-0.8-0.8s-0.7-0.3-1.2-0.3C836.8,262.9,836.4,263,836,263.2z"/>
		<path class="st1" d="M841.3,262.5h3.5v0.5h-2.9v2.1h2.6v0.5h-2.6v2.4h-0.5V262.5z"/>
		<path class="st1" d="M849.5,262.8c0.4,0.2,0.8,0.6,1,1c0.3,0.4,0.4,0.9,0.4,1.4c0,0.5-0.1,1-0.4,1.4s-0.6,0.8-1,1
			c-0.4,0.3-0.9,0.4-1.4,0.4c-0.5,0-1-0.1-1.4-0.4c-0.4-0.3-0.8-0.6-1-1s-0.4-0.9-0.4-1.4c0-0.5,0.1-1,0.4-1.4c0.3-0.4,0.6-0.8,1-1
			c0.4-0.2,0.9-0.4,1.4-0.4C848.6,262.4,849,262.6,849.5,262.8z M846.9,263.2c-0.4,0.2-0.6,0.5-0.9,0.8c-0.2,0.4-0.3,0.7-0.3,1.2
			s0.1,0.8,0.3,1.2c0.2,0.4,0.5,0.6,0.9,0.8c0.4,0.2,0.7,0.3,1.2,0.3c0.4,0,0.8-0.1,1.2-0.3c0.4-0.2,0.6-0.5,0.8-0.8
			c0.2-0.4,0.3-0.7,0.3-1.2s-0.1-0.8-0.3-1.2c-0.2-0.4-0.5-0.6-0.8-0.8c-0.4-0.2-0.7-0.3-1.2-0.3C847.6,262.9,847.2,263,846.9,263.2
			z"/>
		<path class="st1" d="M853,267.1c0.3,0.3,0.7,0.5,1.3,0.5s1-0.2,1.3-0.5c0.3-0.3,0.5-0.8,0.5-1.3v-3.3h0.5v3.3
			c0,0.7-0.2,1.3-0.6,1.7s-1,0.6-1.7,0.6s-1.3-0.2-1.7-0.6c-0.4-0.4-0.6-1-0.6-1.7v-3.3h0.5v3.3C852.5,266.3,852.7,266.8,853,267.1z
			"/>
		<path class="st1" d="M862.2,262.5h0.5v5.5h-0.6l-3.4-4.7v4.7h-0.5v-5.5h0.6l3.4,4.7V262.5z"/>
		<path class="st1" d="M868.1,262.8c0.4,0.2,0.8,0.6,1,1s0.4,0.9,0.4,1.4c0,0.5-0.1,1-0.4,1.4s-0.6,0.8-1,1s-0.9,0.4-1.5,0.4h-2.2
			v-5.5h2.2C867.2,262.5,867.7,262.6,868.1,262.8z M867.8,267.2c0.3-0.2,0.6-0.5,0.8-0.8s0.3-0.7,0.3-1.1s-0.1-0.8-0.3-1.2
			c-0.2-0.3-0.5-0.6-0.8-0.8c-0.3-0.2-0.7-0.3-1.2-0.3H865v4.5h1.7C867.1,267.5,867.5,267.4,867.8,267.2z"/>
	</g>
</g>
<g>
	<linearGradient id="SVGID_4_" gradientUnits="userSpaceOnUse" x1="872.8352" y1="409.2685" x2="945.5599" y2="409.2685">
		<stop  offset="3.605769e-04" style="stop-color:#4EC4D3"/>
		<stop  offset="0.3128" style="stop-color:#57B1CE"/>
		<stop  offset="1" style="stop-color:#6482C1"/>
	</linearGradient>
	<circle class="st4" cx="909.2" cy="409.3" r="36.4"/>
	<g>
		<path class="st1" d="M886.8,400.7c-0.4-0.1-0.8-0.2-1.1-0.2c-0.6,0-1,0.1-1.4,0.3c-0.3,0.2-0.5,0.5-0.5,0.9c0,0.3,0.1,0.6,0.3,0.8
			c0.2,0.2,0.4,0.4,0.7,0.5c0.3,0.1,0.7,0.3,1.1,0.4c0.6,0.2,1,0.3,1.4,0.5s0.6,0.4,0.9,0.7c0.2,0.3,0.4,0.7,0.4,1.2
			c0,0.4-0.1,0.8-0.4,1.2c-0.2,0.3-0.6,0.6-1,0.8c-0.5,0.2-1,0.3-1.6,0.3c-0.6,0-1.1-0.1-1.7-0.3c-0.5-0.2-1-0.5-1.4-0.9l0.4-0.7
			c0.4,0.4,0.8,0.6,1.3,0.9c0.5,0.2,1,0.3,1.4,0.3c0.6,0,1.1-0.1,1.5-0.4c0.4-0.3,0.6-0.6,0.6-1c0-0.3-0.1-0.6-0.3-0.9
			c-0.2-0.2-0.4-0.4-0.7-0.5c-0.3-0.1-0.7-0.3-1.2-0.4c-0.6-0.2-1-0.3-1.4-0.5c-0.3-0.2-0.6-0.4-0.9-0.7c-0.2-0.3-0.4-0.7-0.4-1.2
			c0-0.4,0.1-0.8,0.4-1.1c0.2-0.3,0.6-0.6,1-0.7c0.4-0.2,0.9-0.3,1.5-0.3c0.5,0,0.9,0.1,1.4,0.2c0.5,0.1,0.9,0.3,1.2,0.5l-0.4,0.7
			C887.6,401,887.2,400.9,886.8,400.7z"/>
		<path class="st1" d="M889.4,399.9h6.3v0.7h-2.7v7.5h-0.8v-7.5h-2.7V399.9z"/>
		<path class="st1" d="M902.6,408.2l-1.8-2.7c-0.3,0-0.4,0-0.6,0h-2.3v2.7h-0.8v-8.3h3.1c1,0,1.8,0.2,2.4,0.7c0.6,0.5,0.8,1.2,0.8,2
			c0,0.7-0.2,1.3-0.5,1.7s-0.8,0.8-1.4,1l2,2.9H902.6z M900.2,404.8c0.8,0,1.4-0.2,1.8-0.5c0.4-0.4,0.6-0.9,0.6-1.6
			c0-0.7-0.2-1.2-0.6-1.5c-0.4-0.3-1-0.5-1.8-0.5h-2.3v4.1H900.2z"/>
		<path class="st1" d="M905.7,399.9h5.5v0.7h-4.7v3h4.2v0.7h-4.2v3.1h4.9v0.7h-5.7V399.9z"/>
		<path class="st1" d="M912.2,399.9h6.3v0.7h-2.7v7.5h-0.8v-7.5h-2.7V399.9z"/>
		<path class="st1" d="M924.2,400.8c-0.4-0.2-0.9-0.3-1.4-0.3c-0.6,0-1.2,0.2-1.8,0.5c-0.5,0.3-1,0.7-1.3,1.3
			c-0.3,0.5-0.5,1.1-0.5,1.7c0,0.6,0.2,1.2,0.5,1.7c0.3,0.5,0.7,1,1.3,1.3c0.5,0.3,1.1,0.5,1.8,0.5c0.5,0,0.9-0.1,1.3-0.3
			s0.8-0.4,1.2-0.7l0.5,0.5c-0.4,0.4-0.9,0.7-1.4,0.9c-0.5,0.2-1.1,0.3-1.6,0.3c-0.8,0-1.5-0.2-2.2-0.6c-0.7-0.4-1.2-0.9-1.6-1.5
			c-0.4-0.6-0.6-1.4-0.6-2.1s0.2-1.5,0.6-2.1c0.4-0.6,0.9-1.1,1.6-1.5c0.7-0.4,1.4-0.6,2.2-0.6c0.6,0,1.1,0.1,1.6,0.3
			c0.5,0.2,1,0.5,1.4,0.9l-0.5,0.6C925.1,401.2,924.7,401,924.2,400.8z"/>
		<path class="st1" d="M927.7,399.9h0.8v3.8h5.2v-3.8h0.8v8.3h-0.8v-3.8h-5.2v3.8h-0.8V399.9z"/>
		<path class="st1" d="M888.4,414.1h1l3.2,6.2l3.2-6.2h1v8.3h-0.8l0-7.2l-3.2,6.3h-0.5l-3.3-6.3v7.2h-0.8V414.1z"/>
		<path class="st1" d="M905.7,422.4l-1-2.2h-4.6l-1,2.2h-0.9l3.7-8.3h0.9l3.7,8.3H905.7z M900.5,419.5h4l-2-4.5L900.5,419.5z"/>
		<path class="st1" d="M913.5,422.4l-1.8-2.7c-0.3,0-0.4,0-0.6,0h-2.3v2.7H908v-8.3h3.1c1,0,1.8,0.2,2.4,0.7c0.6,0.5,0.8,1.2,0.8,2
			c0,0.7-0.2,1.3-0.5,1.7s-0.8,0.8-1.4,1l2,2.9H913.5z M911.1,419c0.8,0,1.4-0.2,1.8-0.5c0.4-0.4,0.6-0.9,0.6-1.6
			c0-0.7-0.2-1.2-0.6-1.5c-0.4-0.3-1-0.5-1.8-0.5h-2.3v4.1H911.1z"/>
		<path class="st1" d="M923.2,422.4h-1l-3.1-4l-1.7,1.8v2.2h-0.8v-8.3h0.8v5l4.6-5h1l-3.3,3.6L923.2,422.4z"/>
		<path class="st1" d="M928.3,415c-0.4-0.1-0.8-0.2-1.1-0.2c-0.6,0-1,0.1-1.4,0.3c-0.3,0.2-0.5,0.5-0.5,0.9c0,0.3,0.1,0.6,0.3,0.8
			c0.2,0.2,0.4,0.4,0.7,0.5c0.3,0.1,0.7,0.3,1.1,0.4c0.6,0.2,1,0.3,1.4,0.5s0.6,0.4,0.9,0.7c0.2,0.3,0.4,0.7,0.4,1.2
			c0,0.4-0.1,0.8-0.4,1.2c-0.2,0.3-0.6,0.6-1,0.8c-0.5,0.2-1,0.3-1.6,0.3c-0.6,0-1.1-0.1-1.7-0.3c-0.5-0.2-1-0.5-1.4-0.9l0.4-0.7
			c0.4,0.4,0.8,0.6,1.3,0.9c0.5,0.2,1,0.3,1.4,0.3c0.6,0,1.1-0.1,1.5-0.4c0.4-0.3,0.6-0.6,0.6-1c0-0.3-0.1-0.6-0.3-0.9
			c-0.2-0.2-0.4-0.4-0.7-0.5c-0.3-0.1-0.7-0.3-1.2-0.4c-0.6-0.2-1-0.3-1.4-0.5c-0.3-0.2-0.6-0.4-0.9-0.7c-0.2-0.3-0.4-0.7-0.4-1.2
			c0-0.4,0.1-0.8,0.4-1.1c0.2-0.3,0.6-0.6,1-0.7c0.4-0.2,0.9-0.3,1.5-0.3c0.5,0,0.9,0.1,1.4,0.2c0.5,0.1,0.9,0.3,1.2,0.5l-0.4,0.7
			C929,415.2,928.7,415.1,928.3,415z"/>
	</g>
</g>
<g>
	<linearGradient id="SVGID_5_" gradientUnits="userSpaceOnUse" x1="522.4077" y1="272.2306" x2="562.8733" y2="272.2306">
		<stop  offset="3.605769e-04" style="stop-color:#4EC4D3"/>
		<stop  offset="0.3128" style="stop-color:#57B1CE"/>
		<stop  offset="1" style="stop-color:#6482C1"/>
	</linearGradient>
	<circle class="st5" cx="542.6" cy="272.2" r="20.2"/>
	<g>
		<path class="st1" d="M535.8,271.1c0.3,0.3,0.5,0.6,0.5,1.1c0,0.5-0.2,0.9-0.5,1.2c-0.3,0.3-0.8,0.4-1.3,0.4h-1.2v1.5h-0.5v-4.6
			h1.7C535,270.7,535.5,270.8,535.8,271.1z M535.5,273.1c0.2-0.2,0.4-0.5,0.4-0.9c0-0.4-0.1-0.7-0.4-0.8c-0.2-0.2-0.6-0.3-1-0.3
			h-1.2v2.3h1.2C534.9,273.4,535.2,273.3,535.5,273.1z"/>
		<path class="st1" d="M537.2,270.7h3.1v0.4h-2.6v1.6h2.4v0.4h-2.4v1.7h2.7v0.4h-3.2V270.7z"/>
		<path class="st1" d="M541.4,270.7h3.1v0.4h-2.6v1.6h2.4v0.4h-2.4v1.7h2.7v0.4h-3.2V270.7z"/>
		<path class="st1" d="M545.7,270.7h0.5v4.2h2v0.4h-2.5V270.7z"/>
		<path class="st1" d="M551.1,271.2c-0.2-0.1-0.4-0.1-0.6-0.1c-0.3,0-0.6,0.1-0.8,0.2c-0.2,0.1-0.3,0.3-0.3,0.5
			c0,0.2,0.1,0.3,0.2,0.5c0.1,0.1,0.2,0.2,0.4,0.3c0.2,0.1,0.4,0.1,0.6,0.2c0.3,0.1,0.6,0.2,0.8,0.3s0.4,0.2,0.5,0.4
			c0.1,0.2,0.2,0.4,0.2,0.7c0,0.2-0.1,0.5-0.2,0.7c-0.1,0.2-0.3,0.3-0.6,0.4c-0.2,0.1-0.5,0.2-0.9,0.2c-0.3,0-0.6-0.1-0.9-0.2
			c-0.3-0.1-0.6-0.3-0.8-0.5l0.2-0.4c0.2,0.2,0.4,0.4,0.7,0.5s0.5,0.2,0.8,0.2c0.4,0,0.6-0.1,0.8-0.2c0.2-0.1,0.3-0.3,0.3-0.6
			c0-0.2-0.1-0.4-0.2-0.5c-0.1-0.1-0.2-0.2-0.4-0.3c-0.2-0.1-0.4-0.1-0.6-0.2c-0.3-0.1-0.6-0.2-0.8-0.3c-0.2-0.1-0.3-0.2-0.5-0.4
			c-0.1-0.2-0.2-0.4-0.2-0.7c0-0.2,0.1-0.4,0.2-0.6c0.1-0.2,0.3-0.3,0.6-0.4c0.2-0.1,0.5-0.1,0.8-0.1c0.3,0,0.5,0,0.8,0.1
			c0.3,0.1,0.5,0.2,0.7,0.3l-0.2,0.4C551.5,271.3,551.3,271.2,551.1,271.2z"/>
	</g>
</g>
<linearGradient id="SVGID_6_" gradientUnits="userSpaceOnUse" x1="805.939" y1="473.1486" x2="878.7771" y2="473.1486">
	<stop  offset="3.605769e-04" style="stop-color:#4EC4D3"/>
	<stop  offset="0.3128" style="stop-color:#57B1CE"/>
	<stop  offset="1" style="stop-color:#6482C1"/>
</linearGradient>
<circle class="st6" cx="842.4" cy="473.1" r="36.4"/>
<g>
	<linearGradient id="SVGID_7_" gradientUnits="userSpaceOnUse" x1="149.7806" y1="429.2773" x2="174.0599" y2="429.2773">
		<stop  offset="3.605769e-04" style="stop-color:#4EC4D3"/>
		<stop  offset="0.3128" style="stop-color:#57B1CE"/>
		<stop  offset="1" style="stop-color:#6482C1"/>
	</linearGradient>
	<circle class="st7" cx="161.9" cy="429.3" r="12.1"/>
	<g>
		<path class="st1" d="M154,431.1h-0.3l-1-1.3l-0.6,0.6v0.7h-0.3v-2.8h0.3v1.7l1.5-1.7h0.3l-1.1,1.2L154,431.1z"/>
		<path class="st1" d="M154.5,428.4h1.9v0.2h-1.6v1h1.4v0.2h-1.4v1h1.6v0.2h-1.9V428.4z"/>
		<path class="st1" d="M159.1,428.4l-1.1,1.8v1h-0.3v-1l-1.1-1.8h0.3l0.9,1.5l0.9-1.5H159.1z"/>
		<path class="st1" d="M162.9,428.3h0.3l-0.9,2.8h-0.3l-0.8-2.4l-0.8,2.4h-0.3l-0.9-2.8h0.3l0.8,2.5l0.8-2.5h0.3l0.8,2.5
			L162.9,428.3z"/>
		<path class="st1" d="M165.5,428.5c0.2,0.1,0.4,0.3,0.5,0.5c0.1,0.2,0.2,0.4,0.2,0.7s-0.1,0.5-0.2,0.7c-0.1,0.2-0.3,0.4-0.5,0.5
			c-0.2,0.1-0.5,0.2-0.7,0.2s-0.5-0.1-0.7-0.2c-0.2-0.1-0.4-0.3-0.5-0.5c-0.1-0.2-0.2-0.5-0.2-0.7s0.1-0.5,0.2-0.7
			c0.1-0.2,0.3-0.4,0.5-0.5c0.2-0.1,0.5-0.2,0.7-0.2S165.2,428.4,165.5,428.5z M164.2,428.7c-0.2,0.1-0.3,0.2-0.4,0.4
			s-0.2,0.4-0.2,0.6s0.1,0.4,0.2,0.6c0.1,0.2,0.2,0.3,0.4,0.4c0.2,0.1,0.4,0.2,0.6,0.2c0.2,0,0.4-0.1,0.6-0.2
			c0.2-0.1,0.3-0.2,0.4-0.4c0.1-0.2,0.2-0.4,0.2-0.6s-0.1-0.4-0.2-0.6s-0.2-0.3-0.4-0.4c-0.2-0.1-0.4-0.2-0.6-0.2
			C164.5,428.6,164.3,428.6,164.2,428.7z"/>
		<path class="st1" d="M168.6,431.1l-0.6-0.9c-0.1,0-0.1,0-0.2,0h-0.8v0.9h-0.3v-2.8h1c0.3,0,0.6,0.1,0.8,0.2
			c0.2,0.2,0.3,0.4,0.3,0.7c0,0.2-0.1,0.4-0.2,0.6c-0.1,0.2-0.3,0.3-0.5,0.3l0.7,1H168.6z M167.8,430c0.3,0,0.5-0.1,0.6-0.2
			c0.1-0.1,0.2-0.3,0.2-0.5c0-0.2-0.1-0.4-0.2-0.5s-0.3-0.2-0.6-0.2h-0.8v1.4H167.8z"/>
		<path class="st1" d="M171.5,428.5c0.2,0.1,0.4,0.3,0.5,0.5c0.1,0.2,0.2,0.4,0.2,0.7s-0.1,0.5-0.2,0.7c-0.1,0.2-0.3,0.4-0.5,0.5
			c-0.2,0.1-0.5,0.2-0.7,0.2h-1.1v-2.8h1.1C171,428.4,171.3,428.4,171.5,428.5z M171.3,430.7c0.2-0.1,0.3-0.2,0.4-0.4
			s0.2-0.4,0.2-0.6s-0.1-0.4-0.2-0.6c-0.1-0.2-0.2-0.3-0.4-0.4c-0.2-0.1-0.4-0.2-0.6-0.2h-0.8v2.3h0.8
			C171,430.9,171.2,430.8,171.3,430.7z"/>
	</g>
</g>
<g>
	<linearGradient id="SVGID_8_" gradientUnits="userSpaceOnUse" x1="875.256" y1="334.6702" x2="907.6285" y2="334.6702">
		<stop  offset="3.605769e-04" style="stop-color:#4EC4D3"/>
		<stop  offset="0.3128" style="stop-color:#57B1CE"/>
		<stop  offset="1" style="stop-color:#6482C1"/>
	</linearGradient>
	<circle class="st8" cx="891.4" cy="334.7" r="16.2"/>
	<g>
		<path class="st1" d="M887.8,329.8c-0.2-0.1-0.3-0.1-0.5-0.1c-0.3,0-0.5,0.1-0.6,0.2c-0.2,0.1-0.2,0.2-0.2,0.4c0,0.2,0,0.3,0.1,0.4
			c0.1,0.1,0.2,0.2,0.3,0.2s0.3,0.1,0.5,0.2c0.2,0.1,0.5,0.1,0.6,0.2c0.2,0.1,0.3,0.2,0.4,0.3c0.1,0.1,0.2,0.3,0.2,0.5
			c0,0.2-0.1,0.4-0.2,0.5c-0.1,0.2-0.3,0.3-0.5,0.4c-0.2,0.1-0.4,0.1-0.7,0.1c-0.3,0-0.5-0.1-0.8-0.2c-0.2-0.1-0.5-0.2-0.6-0.4
			l0.2-0.3c0.2,0.2,0.4,0.3,0.6,0.4c0.2,0.1,0.4,0.1,0.6,0.1c0.3,0,0.5-0.1,0.7-0.2c0.2-0.1,0.2-0.3,0.2-0.5c0-0.2,0-0.3-0.1-0.4
			c-0.1-0.1-0.2-0.2-0.3-0.2s-0.3-0.1-0.5-0.2c-0.2-0.1-0.5-0.1-0.6-0.2c-0.2-0.1-0.3-0.2-0.4-0.3s-0.2-0.3-0.2-0.5
			c0-0.2,0.1-0.3,0.2-0.5s0.3-0.2,0.4-0.3c0.2-0.1,0.4-0.1,0.7-0.1c0.2,0,0.4,0,0.6,0.1s0.4,0.1,0.5,0.2l-0.2,0.3
			C888.1,329.9,887.9,329.9,887.8,329.8z"/>
		<path class="st1" d="M890,332.5c0.2,0.2,0.5,0.3,0.9,0.3c0.4,0,0.7-0.1,0.9-0.3c0.2-0.2,0.3-0.5,0.3-0.9v-2.2h0.4v2.2
			c0,0.5-0.1,0.9-0.4,1.1c-0.3,0.3-0.6,0.4-1.1,0.4c-0.5,0-0.9-0.1-1.1-0.4c-0.3-0.3-0.4-0.6-0.4-1.1v-2.2h0.4v2.2
			C889.7,332,889.8,332.3,890,332.5z"/>
		<path class="st1" d="M896.1,329.4h0.4v3.7h-0.4l-2.3-3.1v3.1h-0.4v-3.7h0.4l2.3,3.1V329.4z"/>
		<path class="st1" d="M882.4,336c0.3,0.2,0.5,0.4,0.7,0.7c0.2,0.3,0.2,0.6,0.2,0.9s-0.1,0.7-0.2,0.9c-0.2,0.3-0.4,0.5-0.7,0.7
			c-0.3,0.2-0.6,0.2-1,0.2H880v-3.7h1.5C881.8,335.8,882.2,335.8,882.4,336z M882.3,338.9c0.2-0.1,0.4-0.3,0.6-0.5s0.2-0.5,0.2-0.8
			s-0.1-0.5-0.2-0.8c-0.1-0.2-0.3-0.4-0.6-0.5c-0.2-0.1-0.5-0.2-0.8-0.2h-1.1v3h1.1C881.8,339.1,882,339.1,882.3,338.9z"/>
		<path class="st1" d="M886.8,339.5l-0.4-1h-2l-0.4,1h-0.4l1.7-3.7h0.4l1.7,3.7H886.8z M884.5,338.1h1.8l-0.9-2L884.5,338.1z"/>
		<path class="st1" d="M887.9,335.8h0.5l1.4,2.8l1.4-2.8h0.5v3.7h-0.3l0-3.2l-1.4,2.8h-0.2l-1.5-2.8v3.2h-0.3V335.8z"/>
		<path class="st1" d="M895.5,339.5l-0.4-1h-2l-0.4,1h-0.4l1.7-3.7h0.4l1.7,3.7H895.5z M893.2,338.1h1.8l-0.9-2L893.2,338.1z"/>
		<path class="st1" d="M899.1,337.6h0.3v1.4c-0.2,0.2-0.4,0.3-0.6,0.4c-0.2,0.1-0.5,0.1-0.7,0.1c-0.3,0-0.7-0.1-1-0.3
			c-0.3-0.2-0.5-0.4-0.7-0.7c-0.2-0.3-0.3-0.6-0.3-0.9s0.1-0.7,0.3-0.9c0.2-0.3,0.4-0.5,0.7-0.7c0.3-0.2,0.6-0.2,1-0.2
			c0.2,0,0.5,0,0.7,0.1c0.2,0.1,0.4,0.2,0.6,0.4l-0.2,0.3c-0.2-0.1-0.3-0.2-0.5-0.3c-0.2-0.1-0.4-0.1-0.6-0.1
			c-0.3,0-0.5,0.1-0.8,0.2c-0.2,0.1-0.4,0.3-0.6,0.6s-0.2,0.5-0.2,0.8c0,0.3,0.1,0.5,0.2,0.8s0.3,0.4,0.6,0.6
			c0.2,0.1,0.5,0.2,0.8,0.2c0.2,0,0.4,0,0.5-0.1c0.2-0.1,0.3-0.1,0.5-0.2V337.6z"/>
		<path class="st1" d="M900.4,335.8h2.5v0.3h-2.1v1.3h1.9v0.3h-1.9v1.4h2.2v0.3h-2.5V335.8z"/>
	</g>
</g>
<g>
	<linearGradient id="SVGID_9_" gradientUnits="userSpaceOnUse" x1="120.431" y1="467.7293" x2="156.8501" y2="467.7293">
		<stop  offset="3.605769e-04" style="stop-color:#4EC4D3"/>
		<stop  offset="0.3128" style="stop-color:#57B1CE"/>
		<stop  offset="1" style="stop-color:#6482C1"/>
	</linearGradient>
	<circle class="st9" cx="138.6" cy="467.7" r="18.2"/>
	<g>
		<path class="st1" d="M126.9,466.3h3.2v0.4h-1.4v3.8h-0.4v-3.8h-1.4V466.3z"/>
		<path class="st1" d="M130.7,466.3h0.4v4.1h-0.4V466.3z"/>
		<path class="st1" d="M134.2,466.8c-0.2-0.1-0.4-0.1-0.6-0.1c-0.3,0-0.5,0.1-0.7,0.2c-0.2,0.1-0.3,0.3-0.3,0.5c0,0.2,0,0.3,0.1,0.4
			c0.1,0.1,0.2,0.2,0.4,0.3c0.1,0.1,0.3,0.1,0.6,0.2c0.3,0.1,0.5,0.2,0.7,0.2c0.2,0.1,0.3,0.2,0.4,0.4s0.2,0.4,0.2,0.6
			c0,0.2-0.1,0.4-0.2,0.6c-0.1,0.2-0.3,0.3-0.5,0.4s-0.5,0.1-0.8,0.1c-0.3,0-0.6-0.1-0.8-0.2c-0.3-0.1-0.5-0.3-0.7-0.5l0.2-0.3
			c0.2,0.2,0.4,0.3,0.6,0.4c0.2,0.1,0.5,0.2,0.7,0.2c0.3,0,0.6-0.1,0.8-0.2c0.2-0.1,0.3-0.3,0.3-0.5c0-0.2,0-0.3-0.1-0.4
			c-0.1-0.1-0.2-0.2-0.4-0.3c-0.1-0.1-0.3-0.1-0.6-0.2c-0.3-0.1-0.5-0.2-0.7-0.2c-0.2-0.1-0.3-0.2-0.4-0.3s-0.2-0.4-0.2-0.6
			c0-0.2,0.1-0.4,0.2-0.6s0.3-0.3,0.5-0.4c0.2-0.1,0.5-0.1,0.7-0.1c0.2,0,0.5,0,0.7,0.1s0.4,0.2,0.6,0.3l-0.2,0.4
			C134.6,466.9,134.4,466.8,134.2,466.8z"/>
		<path class="st1" d="M137.8,466.8c-0.2-0.1-0.4-0.1-0.6-0.1c-0.3,0-0.5,0.1-0.7,0.2c-0.2,0.1-0.3,0.3-0.3,0.5c0,0.2,0,0.3,0.1,0.4
			c0.1,0.1,0.2,0.2,0.4,0.3c0.1,0.1,0.3,0.1,0.6,0.2c0.3,0.1,0.5,0.2,0.7,0.2c0.2,0.1,0.3,0.2,0.4,0.4s0.2,0.4,0.2,0.6
			c0,0.2-0.1,0.4-0.2,0.6c-0.1,0.2-0.3,0.3-0.5,0.4s-0.5,0.1-0.8,0.1c-0.3,0-0.6-0.1-0.8-0.2c-0.3-0.1-0.5-0.3-0.7-0.5l0.2-0.3
			c0.2,0.2,0.4,0.3,0.6,0.4c0.2,0.1,0.5,0.2,0.7,0.2c0.3,0,0.6-0.1,0.8-0.2c0.2-0.1,0.3-0.3,0.3-0.5c0-0.2,0-0.3-0.1-0.4
			c-0.1-0.1-0.2-0.2-0.4-0.3c-0.1-0.1-0.3-0.1-0.6-0.2c-0.3-0.1-0.5-0.2-0.7-0.2c-0.2-0.1-0.3-0.2-0.4-0.3s-0.2-0.4-0.2-0.6
			c0-0.2,0.1-0.4,0.2-0.6s0.3-0.3,0.5-0.4c0.2-0.1,0.5-0.1,0.7-0.1c0.2,0,0.5,0,0.7,0.1s0.4,0.2,0.6,0.3l-0.2,0.4
			C138.2,466.9,138,466.8,137.8,466.8z"/>
		<path class="st1" d="M140.3,469.8c0.2,0.2,0.6,0.4,1,0.4c0.4,0,0.7-0.1,1-0.4s0.3-0.6,0.3-1v-2.5h0.4v2.5c0,0.5-0.2,1-0.5,1.3
			s-0.7,0.5-1.3,0.5s-1-0.2-1.3-0.5s-0.5-0.7-0.5-1.3v-2.5h0.4v2.5C140,469.2,140.1,469.6,140.3,469.8z"/>
		<path class="st1" d="M144.2,466.3h2.8v0.4h-2.4v1.5h2.1v0.4h-2.1v1.6h2.4v0.4h-2.9V466.3z"/>
		<path class="st1" d="M149.8,466.8c-0.2-0.1-0.4-0.1-0.6-0.1c-0.3,0-0.5,0.1-0.7,0.2c-0.2,0.1-0.3,0.3-0.3,0.5c0,0.2,0,0.3,0.1,0.4
			c0.1,0.1,0.2,0.2,0.4,0.3c0.1,0.1,0.3,0.1,0.6,0.2c0.3,0.1,0.5,0.2,0.7,0.2c0.2,0.1,0.3,0.2,0.4,0.4s0.2,0.4,0.2,0.6
			c0,0.2-0.1,0.4-0.2,0.6c-0.1,0.2-0.3,0.3-0.5,0.4s-0.5,0.1-0.8,0.1c-0.3,0-0.6-0.1-0.8-0.2c-0.3-0.1-0.5-0.3-0.7-0.5l0.2-0.3
			c0.2,0.2,0.4,0.3,0.6,0.4c0.2,0.1,0.5,0.2,0.7,0.2c0.3,0,0.6-0.1,0.8-0.2c0.2-0.1,0.3-0.3,0.3-0.5c0-0.2,0-0.3-0.1-0.4
			c-0.1-0.1-0.2-0.2-0.4-0.3c-0.1-0.1-0.3-0.1-0.6-0.2c-0.3-0.1-0.5-0.2-0.7-0.2c-0.2-0.1-0.3-0.2-0.4-0.3s-0.2-0.4-0.2-0.6
			c0-0.2,0.1-0.4,0.2-0.6s0.3-0.3,0.5-0.4c0.2-0.1,0.5-0.1,0.7-0.1c0.2,0,0.5,0,0.7,0.1s0.4,0.2,0.6,0.3l-0.2,0.4
			C150.2,466.9,150,466.8,149.8,466.8z"/>
	</g>
</g>
<g>
	<linearGradient id="SVGID_10_" gradientUnits="userSpaceOnUse" x1="675.4373" y1="399.9494" x2="699.7167" y2="399.9494">
		<stop  offset="3.605769e-04" style="stop-color:#4EC4D3"/>
		<stop  offset="0.3128" style="stop-color:#57B1CE"/>
		<stop  offset="1" style="stop-color:#6482C1"/>
	</linearGradient>
	<circle class="st10" cx="687.6" cy="399.9" r="12.1"/>
	<g>
		<path class="st1" d="M679.7,401.8h-0.3l-1-1.3l-0.6,0.6v0.7h-0.3V399h0.3v1.7l1.5-1.7h0.3l-1.1,1.2L679.7,401.8z"/>
		<path class="st1" d="M680.2,399h1.9v0.2h-1.6v1h1.4v0.2h-1.4v1h1.6v0.2h-1.9V399z"/>
		<path class="st1" d="M684.8,399l-1.1,1.8v1h-0.3v-1l-1.1-1.8h0.3l0.9,1.5l0.9-1.5H684.8z"/>
		<path class="st1" d="M688.5,399h0.3l-0.9,2.8h-0.3l-0.8-2.4l-0.8,2.4h-0.3l-0.9-2.8h0.3l0.8,2.5l0.8-2.5h0.3l0.8,2.5L688.5,399z"
			/>
		<path class="st1" d="M691.1,399.2c0.2,0.1,0.4,0.3,0.5,0.5c0.1,0.2,0.2,0.4,0.2,0.7s-0.1,0.5-0.2,0.7c-0.1,0.2-0.3,0.4-0.5,0.5
			c-0.2,0.1-0.5,0.2-0.7,0.2s-0.5-0.1-0.7-0.2c-0.2-0.1-0.4-0.3-0.5-0.5c-0.1-0.2-0.2-0.5-0.2-0.7s0.1-0.5,0.2-0.7
			c0.1-0.2,0.3-0.4,0.5-0.5c0.2-0.1,0.5-0.2,0.7-0.2S690.9,399.1,691.1,399.2z M689.8,399.4c-0.2,0.1-0.3,0.2-0.4,0.4
			s-0.2,0.4-0.2,0.6s0.1,0.4,0.2,0.6c0.1,0.2,0.2,0.3,0.4,0.4c0.2,0.1,0.4,0.2,0.6,0.2c0.2,0,0.4-0.1,0.6-0.2
			c0.2-0.1,0.3-0.2,0.4-0.4c0.1-0.2,0.2-0.4,0.2-0.6s-0.1-0.4-0.2-0.6s-0.2-0.3-0.4-0.4c-0.2-0.1-0.4-0.2-0.6-0.2
			C690.2,399.2,690,399.3,689.8,399.4z"/>
		<path class="st1" d="M694.3,401.8l-0.6-0.9c-0.1,0-0.1,0-0.2,0h-0.8v0.9h-0.3V399h1c0.3,0,0.6,0.1,0.8,0.2
			c0.2,0.2,0.3,0.4,0.3,0.7c0,0.2-0.1,0.4-0.2,0.6c-0.1,0.2-0.3,0.3-0.5,0.3l0.7,1H694.3z M693.5,400.6c0.3,0,0.5-0.1,0.6-0.2
			c0.1-0.1,0.2-0.3,0.2-0.5c0-0.2-0.1-0.4-0.2-0.5s-0.3-0.2-0.6-0.2h-0.8v1.4H693.5z"/>
		<path class="st1" d="M697.1,399.2c0.2,0.1,0.4,0.3,0.5,0.5c0.1,0.2,0.2,0.4,0.2,0.7s-0.1,0.5-0.2,0.7c-0.1,0.2-0.3,0.4-0.5,0.5
			c-0.2,0.1-0.5,0.2-0.7,0.2h-1.1V399h1.1C696.7,399,696.9,399.1,697.1,399.2z M697,401.4c0.2-0.1,0.3-0.2,0.4-0.4s0.2-0.4,0.2-0.6
			s-0.1-0.4-0.2-0.6c-0.1-0.2-0.2-0.3-0.4-0.4c-0.2-0.1-0.4-0.2-0.6-0.2h-0.8v2.3h0.8C696.6,401.5,696.8,401.5,697,401.4z"/>
	</g>
</g>
<g>
	<linearGradient id="SVGID_11_" gradientUnits="userSpaceOnUse" x1="132.3867" y1="230.5408" x2="181.3135" y2="230.5408">
		<stop  offset="3.605769e-04" style="stop-color:#4EC4D3"/>
		<stop  offset="0.3128" style="stop-color:#57B1CE"/>
		<stop  offset="1" style="stop-color:#6482C1"/>
	</linearGradient>
	<circle class="st11" cx="156.9" cy="230.5" r="24.5"/>
	<g>
		<path class="st1" d="M148.8,229.3c-0.3-0.1-0.5-0.1-0.8-0.1c-0.4,0-0.7,0.1-0.9,0.2c-0.2,0.2-0.3,0.4-0.3,0.6
			c0,0.2,0.1,0.4,0.2,0.6s0.3,0.3,0.5,0.3c0.2,0.1,0.4,0.2,0.8,0.3c0.4,0.1,0.7,0.2,0.9,0.3c0.2,0.1,0.4,0.3,0.6,0.5
			s0.2,0.5,0.2,0.8c0,0.3-0.1,0.6-0.3,0.8s-0.4,0.4-0.7,0.5c-0.3,0.1-0.7,0.2-1,0.2c-0.4,0-0.8-0.1-1.1-0.2c-0.4-0.2-0.7-0.4-1-0.6
			l0.3-0.5c0.2,0.2,0.5,0.4,0.9,0.6c0.3,0.1,0.7,0.2,1,0.2c0.4,0,0.8-0.1,1-0.3c0.2-0.2,0.4-0.4,0.4-0.7c0-0.2-0.1-0.4-0.2-0.6
			c-0.1-0.1-0.3-0.3-0.5-0.3c-0.2-0.1-0.4-0.2-0.8-0.3c-0.4-0.1-0.7-0.2-0.9-0.3s-0.4-0.3-0.6-0.5c-0.2-0.2-0.2-0.5-0.2-0.8
			c0-0.3,0.1-0.5,0.2-0.7c0.2-0.2,0.4-0.4,0.7-0.5c0.3-0.1,0.6-0.2,1-0.2c0.3,0,0.6,0,0.9,0.1c0.3,0.1,0.6,0.2,0.8,0.4l-0.2,0.5
			C149.3,229.4,149.1,229.3,148.8,229.3z"/>
		<path class="st1" d="M152.2,233.3c0.3,0.3,0.7,0.5,1.3,0.5c0.6,0,1-0.2,1.3-0.5c0.3-0.3,0.5-0.8,0.5-1.3v-3.3h0.6v3.3
			c0,0.7-0.2,1.3-0.6,1.7c-0.4,0.4-1,0.6-1.7,0.6c-0.7,0-1.3-0.2-1.7-0.6c-0.4-0.4-0.6-1-0.6-1.7v-3.3h0.6v3.3
			C151.7,232.6,151.9,233,152.2,233.3z"/>
		<path class="st1" d="M161.1,229c0.3,0.2,0.5,0.6,0.5,1c0,0.3-0.1,0.6-0.3,0.8c-0.2,0.2-0.4,0.4-0.8,0.4c0.4,0.1,0.7,0.2,1,0.5
			c0.2,0.2,0.3,0.6,0.3,0.9c0,0.5-0.2,0.9-0.5,1.1s-0.9,0.4-1.5,0.4h-2.4v-5.6h2.3C160.3,228.7,160.7,228.8,161.1,229z M160.6,230.9
			c0.2-0.2,0.3-0.4,0.3-0.7c0-0.3-0.1-0.5-0.3-0.7c-0.2-0.2-0.5-0.3-0.9-0.2H158v2h1.8C160.1,231.1,160.4,231,160.6,230.9z
			 M160.8,233.5c0.3-0.2,0.4-0.5,0.4-0.8c0-0.3-0.1-0.6-0.4-0.8c-0.3-0.2-0.6-0.3-1.1-0.3H158v2.1h1.8
			C160.2,233.8,160.6,233.7,160.8,233.5z"/>
		<path class="st1" d="M168.7,234.7c-0.2,0.2-0.4,0.3-0.7,0.5c-0.2,0.1-0.5,0.2-0.7,0.2c-0.6,0-1.2-0.4-1.7-1.1h-0.1
			c-0.5,0-1-0.1-1.5-0.4c-0.4-0.3-0.8-0.6-1.1-1c-0.3-0.4-0.4-0.9-0.4-1.4s0.1-1,0.4-1.4c0.3-0.4,0.6-0.8,1.1-1
			c0.4-0.3,0.9-0.4,1.5-0.4s1,0.1,1.5,0.4c0.4,0.3,0.8,0.6,1.1,1c0.3,0.4,0.4,0.9,0.4,1.4c0,0.4-0.1,0.9-0.3,1.2s-0.5,0.7-0.8,1
			s-0.7,0.4-1.1,0.6c0.4,0.4,0.8,0.7,1.2,0.7c0.3,0,0.7-0.2,1.1-0.5L168.7,234.7z M163.5,232.6c0.2,0.4,0.5,0.6,0.9,0.9
			c0.4,0.2,0.8,0.3,1.2,0.3c0.4,0,0.8-0.1,1.2-0.3s0.6-0.5,0.9-0.9c0.2-0.4,0.3-0.8,0.3-1.2c0-0.4-0.1-0.8-0.3-1.2
			c-0.2-0.4-0.5-0.6-0.9-0.8c-0.4-0.2-0.7-0.3-1.2-0.3c-0.4,0-0.8,0.1-1.2,0.3c-0.4,0.2-0.6,0.5-0.9,0.8c-0.2,0.4-0.3,0.7-0.3,1.2
			C163.2,231.9,163.3,232.3,163.5,232.6z"/>
	</g>
</g>
<g>
	<linearGradient id="SVGID_12_" gradientUnits="userSpaceOnUse" x1="580.4155" y1="120.1459" x2="604.6948" y2="120.1459">
		<stop  offset="3.605769e-04" style="stop-color:#4EC4D3"/>
		<stop  offset="0.3128" style="stop-color:#57B1CE"/>
		<stop  offset="1" style="stop-color:#6482C1"/>
	</linearGradient>
	<circle class="st12" cx="592.6" cy="120.1" r="12.1"/>
	<g>
		<path class="st1" d="M584.6,122h-0.3l-1-1.3l-0.6,0.6v0.7h-0.3v-2.8h0.3v1.7l1.5-1.7h0.3l-1.1,1.2L584.6,122z"/>
		<path class="st1" d="M585.2,119.2h1.9v0.2h-1.6v1h1.4v0.2h-1.4v1h1.6v0.2h-1.9V119.2z"/>
		<path class="st1" d="M589.7,119.2l-1.1,1.8v1h-0.3v-1l-1.1-1.8h0.3l0.9,1.5l0.9-1.5H589.7z"/>
		<path class="st1" d="M593.5,119.2h0.3l-0.9,2.8h-0.3l-0.8-2.4L591,122h-0.3l-0.9-2.8h0.3l0.8,2.5l0.8-2.5h0.3l0.8,2.5L593.5,119.2
			z"/>
		<path class="st1" d="M596.1,119.4c0.2,0.1,0.4,0.3,0.5,0.5c0.1,0.2,0.2,0.4,0.2,0.7s-0.1,0.5-0.2,0.7c-0.1,0.2-0.3,0.4-0.5,0.5
			c-0.2,0.1-0.5,0.2-0.7,0.2s-0.5-0.1-0.7-0.2c-0.2-0.1-0.4-0.3-0.5-0.5s-0.2-0.5-0.2-0.7s0.1-0.5,0.2-0.7c0.1-0.2,0.3-0.4,0.5-0.5
			c0.2-0.1,0.5-0.2,0.7-0.2S595.9,119.3,596.1,119.4z M594.8,119.6c-0.2,0.1-0.3,0.2-0.4,0.4c-0.1,0.2-0.2,0.4-0.2,0.6
			s0.1,0.4,0.2,0.6s0.2,0.3,0.4,0.4c0.2,0.1,0.4,0.2,0.6,0.2c0.2,0,0.4-0.1,0.6-0.2c0.2-0.1,0.3-0.2,0.4-0.4
			c0.1-0.2,0.2-0.4,0.2-0.6s-0.1-0.4-0.2-0.6c-0.1-0.2-0.2-0.3-0.4-0.4c-0.2-0.1-0.4-0.2-0.6-0.2C595.2,119.4,595,119.5,594.8,119.6
			z"/>
		<path class="st1" d="M599.2,122l-0.6-0.9c-0.1,0-0.1,0-0.2,0h-0.8v0.9h-0.3v-2.8h1c0.3,0,0.6,0.1,0.8,0.2s0.3,0.4,0.3,0.7
			c0,0.2-0.1,0.4-0.2,0.6c-0.1,0.2-0.3,0.3-0.5,0.3l0.7,1H599.2z M598.5,120.8c0.3,0,0.5-0.1,0.6-0.2c0.1-0.1,0.2-0.3,0.2-0.5
			c0-0.2-0.1-0.4-0.2-0.5c-0.1-0.1-0.3-0.2-0.6-0.2h-0.8v1.4H598.5z"/>
		<path class="st1" d="M602.1,119.4c0.2,0.1,0.4,0.3,0.5,0.5c0.1,0.2,0.2,0.4,0.2,0.7s-0.1,0.5-0.2,0.7c-0.1,0.2-0.3,0.4-0.5,0.5
			c-0.2,0.1-0.5,0.2-0.7,0.2h-1.1v-2.8h1.1C601.7,119.2,601.9,119.3,602.1,119.4z M602,121.6c0.2-0.1,0.3-0.2,0.4-0.4
			s0.2-0.4,0.2-0.6s-0.1-0.4-0.2-0.6c-0.1-0.2-0.2-0.3-0.4-0.4s-0.4-0.2-0.6-0.2h-0.8v2.3h0.8C601.6,121.7,601.8,121.7,602,121.6z"
			/>
	</g>
</g>
<g>
	<linearGradient id="SVGID_13_" gradientUnits="userSpaceOnUse" x1="375.2613" y1="172.574" x2="411.4024" y2="172.574">
		<stop  offset="3.605769e-04" style="stop-color:#4EC4D3"/>
		<stop  offset="0.3128" style="stop-color:#57B1CE"/>
		<stop  offset="1" style="stop-color:#6482C1"/>
	</linearGradient>
	<circle class="st13" cx="393.3" cy="172.6" r="18.1"/>
	<g>
		<path class="st1" d="M382,171.5c0.3,0.2,0.6,0.4,0.8,0.7c0.2,0.3,0.3,0.7,0.3,1s-0.1,0.7-0.3,1c-0.2,0.3-0.4,0.6-0.8,0.7
			c-0.3,0.2-0.7,0.3-1.1,0.3h-1.6v-4.1h1.7C381.3,171.2,381.7,171.3,382,171.5z M381.8,174.7c0.3-0.1,0.5-0.4,0.6-0.6
			c0.2-0.3,0.2-0.5,0.2-0.9s-0.1-0.6-0.2-0.9c-0.2-0.3-0.4-0.5-0.6-0.6c-0.3-0.1-0.5-0.2-0.9-0.2h-1.2v3.4h1.3
			C381.2,174.9,381.5,174.9,381.8,174.7z"/>
		<path class="st1" d="M386.6,175.3l-0.9-1.3c-0.1,0-0.2,0-0.3,0h-1.1v1.3h-0.4v-4.1h1.5c0.5,0,0.9,0.1,1.2,0.4s0.4,0.6,0.4,1
			c0,0.3-0.1,0.6-0.2,0.9c-0.2,0.2-0.4,0.4-0.7,0.5l1,1.4H386.6z M385.5,173.6c0.4,0,0.7-0.1,0.9-0.3s0.3-0.4,0.3-0.8
			c0-0.3-0.1-0.6-0.3-0.8s-0.5-0.3-0.9-0.3h-1.1v2.1H385.5z"/>
		<path class="st1" d="M391.1,171.2l-1.6,2.7v1.5h-0.4v-1.5l-1.6-2.7h0.4l1.4,2.2l1.4-2.2H391.1z"/>
		<path class="st1" d="M394.8,171.2h0.4v4.1h-0.4l-2.6-3.5v3.5h-0.4v-4.1h0.4l2.6,3.5V171.2z"/>
		<path class="st1" d="M396.5,171.2h2.8v0.4h-2.4v1.5h2.1v0.4h-2.1v1.5h2.4v0.4h-2.8V171.2z"/>
		<path class="st1" d="M402,171.6c-0.2-0.1-0.4-0.1-0.6-0.1c-0.3,0-0.5,0.1-0.7,0.2c-0.2,0.1-0.3,0.3-0.3,0.5c0,0.2,0,0.3,0.1,0.4
			c0.1,0.1,0.2,0.2,0.3,0.3c0.1,0.1,0.3,0.1,0.6,0.2c0.3,0.1,0.5,0.2,0.7,0.2c0.2,0.1,0.3,0.2,0.4,0.4s0.2,0.4,0.2,0.6
			c0,0.2-0.1,0.4-0.2,0.6s-0.3,0.3-0.5,0.4c-0.2,0.1-0.5,0.1-0.8,0.1c-0.3,0-0.6-0.1-0.8-0.2c-0.3-0.1-0.5-0.3-0.7-0.5l0.2-0.3
			c0.2,0.2,0.4,0.3,0.6,0.4c0.2,0.1,0.5,0.2,0.7,0.2c0.3,0,0.6-0.1,0.7-0.2s0.3-0.3,0.3-0.5c0-0.2,0-0.3-0.1-0.4s-0.2-0.2-0.3-0.3
			c-0.1-0.1-0.3-0.1-0.6-0.2c-0.3-0.1-0.5-0.2-0.7-0.2c-0.2-0.1-0.3-0.2-0.4-0.3c-0.1-0.2-0.2-0.3-0.2-0.6c0-0.2,0.1-0.4,0.2-0.5
			c0.1-0.2,0.3-0.3,0.5-0.4c0.2-0.1,0.5-0.1,0.7-0.1c0.2,0,0.4,0,0.7,0.1c0.2,0.1,0.4,0.2,0.6,0.3l-0.2,0.3
			C402.4,171.8,402.2,171.7,402,171.6z"/>
		<path class="st1" d="M405.6,171.6c-0.2-0.1-0.4-0.1-0.6-0.1c-0.3,0-0.5,0.1-0.7,0.2c-0.2,0.1-0.3,0.3-0.3,0.5c0,0.2,0,0.3,0.1,0.4
			c0.1,0.1,0.2,0.2,0.3,0.3c0.1,0.1,0.3,0.1,0.6,0.2c0.3,0.1,0.5,0.2,0.7,0.2c0.2,0.1,0.3,0.2,0.4,0.4s0.2,0.4,0.2,0.6
			c0,0.2-0.1,0.4-0.2,0.6s-0.3,0.3-0.5,0.4c-0.2,0.1-0.5,0.1-0.8,0.1c-0.3,0-0.6-0.1-0.8-0.2c-0.3-0.1-0.5-0.3-0.7-0.5l0.2-0.3
			c0.2,0.2,0.4,0.3,0.6,0.4c0.2,0.1,0.5,0.2,0.7,0.2c0.3,0,0.6-0.1,0.7-0.2s0.3-0.3,0.3-0.5c0-0.2,0-0.3-0.1-0.4s-0.2-0.2-0.3-0.3
			c-0.1-0.1-0.3-0.1-0.6-0.2c-0.3-0.1-0.5-0.2-0.7-0.2c-0.2-0.1-0.3-0.2-0.4-0.3c-0.1-0.2-0.2-0.3-0.2-0.6c0-0.2,0.1-0.4,0.2-0.5
			c0.1-0.2,0.3-0.3,0.5-0.4c0.2-0.1,0.5-0.1,0.7-0.1c0.2,0,0.4,0,0.7,0.1c0.2,0.1,0.4,0.2,0.6,0.3l-0.2,0.3
			C406,171.8,405.8,171.7,405.6,171.6z"/>
	</g>
</g>
<g>
	<path class="st1" d="M832.4,465.4c-0.3-0.1-0.7-0.1-0.9-0.1c-0.5,0-0.9,0.1-1.1,0.3s-0.4,0.4-0.4,0.8c0,0.3,0.1,0.5,0.2,0.7
		c0.2,0.2,0.4,0.3,0.6,0.4c0.2,0.1,0.5,0.2,0.9,0.3c0.5,0.1,0.8,0.3,1.1,0.4c0.3,0.1,0.5,0.3,0.7,0.6c0.2,0.3,0.3,0.6,0.3,1
		c0,0.4-0.1,0.7-0.3,1c-0.2,0.3-0.5,0.5-0.9,0.7c-0.4,0.2-0.8,0.2-1.3,0.2c-0.5,0-0.9-0.1-1.4-0.3c-0.5-0.2-0.9-0.4-1.2-0.8l0.3-0.6
		c0.3,0.3,0.7,0.5,1.1,0.7c0.4,0.2,0.8,0.3,1.2,0.3c0.5,0,0.9-0.1,1.3-0.3c0.3-0.2,0.5-0.5,0.5-0.9c0-0.3-0.1-0.5-0.2-0.7
		c-0.2-0.2-0.4-0.3-0.6-0.4c-0.2-0.1-0.6-0.2-1-0.3c-0.5-0.1-0.8-0.3-1.1-0.4c-0.3-0.1-0.5-0.3-0.7-0.6c-0.2-0.3-0.3-0.6-0.3-1
		c0-0.3,0.1-0.7,0.3-0.9c0.2-0.3,0.5-0.5,0.8-0.6s0.8-0.2,1.2-0.2c0.4,0,0.8,0.1,1.1,0.2c0.4,0.1,0.7,0.3,1,0.4l-0.3,0.6
		C833.1,465.6,832.8,465.5,832.4,465.4z"/>
	<path class="st1" d="M839.6,465.5c-0.4-0.2-0.7-0.2-1.1-0.2c-0.5,0-1,0.1-1.5,0.4c-0.4,0.3-0.8,0.6-1.1,1.1s-0.4,0.9-0.4,1.5
		s0.1,1,0.4,1.5c0.3,0.4,0.6,0.8,1.1,1.1s0.9,0.4,1.5,0.4c0.4,0,0.8-0.1,1.1-0.2c0.4-0.1,0.7-0.4,1-0.6l0.4,0.4
		c-0.3,0.3-0.7,0.6-1.2,0.8c-0.4,0.2-0.9,0.3-1.4,0.3c-0.7,0-1.2-0.2-1.8-0.5c-0.5-0.3-1-0.7-1.3-1.3c-0.3-0.5-0.5-1.1-0.5-1.8
		c0-0.6,0.2-1.2,0.5-1.8c0.3-0.5,0.8-1,1.3-1.3c0.5-0.3,1.1-0.5,1.8-0.5c0.5,0,0.9,0.1,1.4,0.3c0.4,0.2,0.8,0.4,1.1,0.7l-0.4,0.5
		C840.3,465.8,840,465.6,839.6,465.5z"/>
	<path class="st1" d="M847.6,471.6l-0.8-1.8h-3.8l-0.8,1.8h-0.7l3.1-6.9h0.7l3.1,6.9H847.6z M843.2,469.1h3.3l-1.7-3.7L843.2,469.1z
		"/>
	<path class="st1" d="M854,471.6l-1.5-2.2c-0.2,0-0.4,0-0.5,0h-1.9v2.2h-0.7v-6.9h2.6c0.9,0,1.5,0.2,2,0.6c0.5,0.4,0.7,1,0.7,1.7
		c0,0.6-0.1,1-0.4,1.4s-0.7,0.6-1.2,0.8l1.7,2.4H854z M852,468.7c0.7,0,1.2-0.1,1.5-0.4c0.4-0.3,0.5-0.7,0.5-1.3
		c0-0.6-0.2-1-0.5-1.3c-0.4-0.3-0.9-0.4-1.5-0.4h-1.9v3.4H852z"/>
	<path class="st1" d="M823.2,483.4l-1.5-2.3c-0.2,0-0.4,0-0.5,0h-1.9v2.2h-0.7v-6.9h2.6c0.9,0,1.5,0.2,2,0.6c0.5,0.4,0.7,1,0.7,1.7
		c0,0.6-0.1,1-0.4,1.4c-0.3,0.4-0.7,0.6-1.2,0.8l1.7,2.4H823.2z M821.2,480.6c0.7,0,1.2-0.1,1.5-0.4s0.5-0.7,0.5-1.3
		c0-0.6-0.2-1-0.5-1.3c-0.4-0.3-0.9-0.4-1.5-0.4h-1.9v3.4H821.2z"/>
	<path class="st1" d="M825.8,476.5h4.6v0.6h-3.9v2.5h3.5v0.6h-3.5v2.6h4.1v0.6h-4.7V476.5z"/>
	<path class="st1" d="M832.2,476.5h0.8l2.7,5.2l2.7-5.2h0.8v6.9h-0.6l0-6l-2.7,5.2h-0.4l-2.7-5.2v6h-0.6V476.5z"/>
	<path class="st1" d="M846.2,476.9c0.5,0.3,1,0.7,1.3,1.3c0.3,0.5,0.5,1.1,0.5,1.8c0,0.6-0.2,1.2-0.5,1.8c-0.3,0.5-0.8,1-1.3,1.3
		c-0.5,0.3-1.2,0.5-1.8,0.5c-0.7,0-1.3-0.2-1.8-0.5c-0.5-0.3-1-0.7-1.3-1.3c-0.3-0.5-0.5-1.1-0.5-1.8c0-0.6,0.2-1.2,0.5-1.8
		s0.8-1,1.3-1.3c0.5-0.3,1.2-0.5,1.8-0.5C845,476.5,845.6,476.6,846.2,476.9z M842.9,477.5c-0.4,0.3-0.8,0.6-1.1,1
		c-0.3,0.4-0.4,0.9-0.4,1.5s0.1,1,0.4,1.5c0.3,0.4,0.6,0.8,1.1,1.1c0.4,0.3,0.9,0.4,1.5,0.4c0.5,0,1-0.1,1.4-0.4
		c0.4-0.3,0.8-0.6,1.1-1.1c0.3-0.4,0.4-0.9,0.4-1.5s-0.1-1-0.4-1.5c-0.3-0.4-0.6-0.8-1.1-1c-0.4-0.3-0.9-0.4-1.4-0.4
		C843.8,477.1,843.4,477.2,842.9,477.5z"/>
	<path class="st1" d="M848.4,476.5h0.7l2.5,6.1l2.4-6.1h0.7l-2.8,6.9h-0.7L848.4,476.5z"/>
	<path class="st1" d="M860.6,483.4l-0.8-1.8h-3.8l-0.8,1.8h-0.7l3.1-6.9h0.7l3.1,6.9H860.6z M856.2,481h3.3l-1.7-3.7L856.2,481z"/>
	<path class="st1" d="M862.5,476.5h0.7v6.3h3v0.6h-3.7V476.5z"/>
</g>
</svg>
