<?xml version="1.0" encoding="utf-8"?>
<!-- Generator: Adobe Illustrator 23.0.4, SVG Export Plug-In . SVG Version: 6.00 Build 0)  -->
<svg version="1.1" xmlns="http://www.w3.org/2000/svg" xmlns:xlink="http://www.w3.org/1999/xlink" x="0px" y="0px"
	 viewBox="0 0 1000 563.7" style="enable-background:new 0 0 1000 563.7;" xml:space="preserve">
<style type="text/css">
	.st0{display:none;}
	.st1{display:inline;}
	.st2{fill:url(#SVGID_1_);}
	.st3{fill:#FFFFFF;}
	.st4{fill:url(#SVGID_2_);}
	.st5{fill:url(#SVGID_3_);}
	.st6{fill:url(#SVGID_4_);}
	.st7{fill:url(#SVGID_5_);}
	.st8{display:inline;fill:url(#SVGID_6_);}
	.st9{fill:url(#SVGID_7_);}
	.st10{fill:url(#SVGID_8_);}
	.st11{fill:url(#SVGID_9_);}
	.st12{fill:url(#SVGID_10_);}
	.st13{fill:url(#SVGID_11_);}
	.st14{fill:url(#SVGID_12_);}
	.st15{fill:url(#SVGID_13_);}
	.st16{fill:url(#SVGID_14_);}
	.st17{display:inline;fill:url(#SVGID_15_);}
	.st18{fill:url(#SVGID_16_);}
	.st19{fill:url(#SVGID_17_);}
	.st20{fill:url(#SVGID_18_);}
	.st21{fill:url(#SVGID_19_);}
	.st22{fill:url(#SVGID_20_);}
	.st23{fill:url(#SVGID_21_);}
	.st24{fill:url(#SVGID_22_);}
	.st25{fill:url(#SVGID_23_);}
	.st26{fill:url(#SVGID_24_);}
	.st27{fill:url(#SVGID_25_);}
	.st28{fill:url(#SVGID_26_);}
	.st29{fill:url(#SVGID_27_);}
</style>
<g id="Layer_1" class="st0">
	<g class="st1">
		<linearGradient id="SVGID_1_" gradientUnits="userSpaceOnUse" x1="33.2147" y1="285.3418" x2="119.8636" y2="285.3418">
			<stop  offset="3.605769e-04" style="stop-color:#4EC4D3"/>
			<stop  offset="0.3128" style="stop-color:#57B1CE"/>
			<stop  offset="1" style="stop-color:#6482C1"/>
		</linearGradient>
		<circle class="st2" cx="76.5" cy="285.3" r="43.3"/>
		<g>
			<path class="st3" d="M59.8,272.5h1v4.5h6.2v-4.5h1v9.9h-1v-4.5h-6.2v4.5h-1V272.5z"/>
			<path class="st3" d="M78.4,282.3l-1.2-2.6h-5.5l-1.2,2.6h-1l4.4-9.9h1l4.4,9.9H78.4z M72.1,278.8h4.7l-2.4-5.3L72.1,278.8z"/>
			<path class="st3" d="M81,272.5h1v9.9h-1V272.5z"/>
			<path class="st3" d="M91.6,282.3l-2.1-3.2c-0.3,0-0.5,0-0.7,0h-2.7v3.2h-1v-9.9h3.7c1.2,0,2.2,0.3,2.9,0.9c0.7,0.6,1,1.4,1,2.4
				c0,0.8-0.2,1.5-0.6,2c-0.4,0.5-1,0.9-1.7,1.1l2.4,3.4H91.6z M88.8,278.3c0.9,0,1.7-0.2,2.2-0.6c0.5-0.4,0.8-1,0.8-1.9
				c0-0.8-0.3-1.4-0.8-1.8c-0.5-0.4-1.2-0.6-2.2-0.6h-2.7v4.9H88.8z"/>
			<path class="st3" d="M49.1,299.3l-2.1-3.2c-0.3,0-0.5,0-0.7,0h-2.7v3.2h-1v-9.9h3.7c1.2,0,2.2,0.3,2.9,0.9c0.7,0.6,1,1.4,1,2.4
				c0,0.8-0.2,1.5-0.6,2c-0.4,0.5-1,0.9-1.7,1.1l2.4,3.4H49.1z M46.3,295.2c0.9,0,1.7-0.2,2.2-0.6c0.5-0.4,0.8-1,0.8-1.9
				c0-0.8-0.3-1.4-0.8-1.8c-0.5-0.4-1.2-0.6-2.2-0.6h-2.7v4.9H46.3z"/>
			<path class="st3" d="M52.8,289.4h6.6v0.9h-5.6v3.5h5v0.9h-5v3.7h5.8v0.9h-6.8V289.4z"/>
			<path class="st3" d="M62,289.4h1.2l3.9,7.4l3.8-7.4h1.2v9.9h-0.9l0-8.5l-3.9,7.5h-0.5l-3.9-7.5v8.5H62V289.4z"/>
			<path class="st3" d="M82,290c0.8,0.4,1.4,1.1,1.9,1.8c0.5,0.8,0.7,1.6,0.7,2.5s-0.2,1.8-0.7,2.5c-0.5,0.8-1.1,1.4-1.9,1.8
				c-0.8,0.5-1.6,0.7-2.6,0.7s-1.8-0.2-2.6-0.7c-0.8-0.5-1.4-1.1-1.9-1.8c-0.5-0.8-0.7-1.6-0.7-2.5s0.2-1.8,0.7-2.5
				c0.5-0.8,1.1-1.4,1.9-1.8c0.8-0.4,1.6-0.7,2.6-0.7S81.2,289.6,82,290z M77.3,290.8c-0.6,0.4-1.1,0.9-1.5,1.5
				c-0.4,0.6-0.6,1.3-0.6,2.1c0,0.8,0.2,1.4,0.6,2.1c0.4,0.6,0.9,1.1,1.5,1.5s1.3,0.6,2.1,0.6c0.7,0,1.4-0.2,2.1-0.6
				s1.1-0.9,1.5-1.5c0.4-0.6,0.6-1.3,0.6-2.1c0-0.8-0.2-1.4-0.6-2.1s-0.9-1.1-1.5-1.5s-1.3-0.6-2.1-0.6
				C78.6,290.2,78,290.4,77.3,290.8z"/>
			<path class="st3" d="M85.1,289.4h1l3.5,8.8l3.5-8.8h1l-4.1,9.9h-1L85.1,289.4z"/>
			<path class="st3" d="M102.6,299.3l-1.2-2.6h-5.5l-1.2,2.6h-1l4.4-9.9h1l4.4,9.9H102.6z M96.3,295.8h4.7l-2.4-5.3L96.3,295.8z"/>
			<path class="st3" d="M105.3,289.4h1v9h4.3v0.9h-5.3V289.4z"/>
		</g>
	</g>
	<g class="st1">
		<linearGradient id="SVGID_2_" gradientUnits="userSpaceOnUse" x1="514.1043" y1="81.7358" x2="567.5965" y2="81.7358">
			<stop  offset="3.605769e-04" style="stop-color:#4EC4D3"/>
			<stop  offset="0.3128" style="stop-color:#57B1CE"/>
			<stop  offset="1" style="stop-color:#6482C1"/>
		</linearGradient>
		<circle class="st4" cx="540.9" cy="81.7" r="26.7"/>
		<g>
			<path class="st3" d="M530,73.9c0.4,0.4,0.6,0.8,0.6,1.5c0,0.7-0.2,1.2-0.6,1.6c-0.4,0.4-1,0.5-1.8,0.5h-1.6v2H526v-6.1h2.2
				C529,73.4,529.6,73.6,530,73.9z M529.5,76.6c0.3-0.3,0.5-0.6,0.5-1.1c0-0.5-0.2-0.9-0.5-1.1s-0.8-0.4-1.4-0.4h-1.6v3h1.6
				C528.8,77,529.2,76.8,529.5,76.6z"/>
			<path class="st3" d="M531.8,73.4h0.6v2.8h3.8v-2.8h0.6v6.1h-0.6v-2.8h-3.8v2.8h-0.6V73.4z"/>
			<path class="st3" d="M542.9,73.8c0.5,0.3,0.9,0.6,1.2,1.1c0.3,0.5,0.4,1,0.4,1.6c0,0.6-0.1,1.1-0.4,1.6s-0.7,0.9-1.2,1.1
				s-1,0.4-1.6,0.4s-1.1-0.1-1.6-0.4s-0.9-0.7-1.2-1.1c-0.3-0.5-0.4-1-0.4-1.6c0-0.6,0.1-1.1,0.4-1.6c0.3-0.5,0.7-0.8,1.2-1.1
				c0.5-0.3,1-0.4,1.6-0.4S542.4,73.5,542.9,73.8z M540,74.2c-0.4,0.2-0.7,0.5-0.9,0.9s-0.3,0.8-0.3,1.3c0,0.5,0.1,0.9,0.3,1.3
				c0.2,0.4,0.5,0.7,0.9,0.9s0.8,0.3,1.3,0.3c0.5,0,0.9-0.1,1.3-0.3s0.7-0.5,0.9-0.9c0.2-0.4,0.3-0.8,0.3-1.3c0-0.5-0.1-0.9-0.3-1.3
				c-0.2-0.4-0.5-0.7-0.9-0.9c-0.4-0.2-0.8-0.3-1.3-0.3C540.9,73.9,540.4,74,540,74.2z"/>
			<path class="st3" d="M544.9,73.4h4.6v0.5h-2v5.6h-0.6v-5.6h-2V73.4z"/>
			<path class="st3" d="M554.4,73.8c0.5,0.3,0.9,0.6,1.2,1.1c0.3,0.5,0.4,1,0.4,1.6c0,0.6-0.1,1.1-0.4,1.6s-0.7,0.9-1.2,1.1
				s-1,0.4-1.6,0.4s-1.1-0.1-1.6-0.4s-0.9-0.7-1.2-1.1c-0.3-0.5-0.4-1-0.4-1.6c0-0.6,0.1-1.1,0.4-1.6c0.3-0.5,0.7-0.8,1.2-1.1
				c0.5-0.3,1-0.4,1.6-0.4S553.9,73.5,554.4,73.8z M551.5,74.2c-0.4,0.2-0.7,0.5-0.9,0.9s-0.3,0.8-0.3,1.3c0,0.5,0.1,0.9,0.3,1.3
				c0.2,0.4,0.5,0.7,0.9,0.9s0.8,0.3,1.3,0.3c0.5,0,0.9-0.1,1.3-0.3s0.7-0.5,0.9-0.9c0.2-0.4,0.3-0.8,0.3-1.3c0-0.5-0.1-0.9-0.3-1.3
				c-0.2-0.4-0.5-0.7-0.9-0.9c-0.4-0.2-0.8-0.3-1.3-0.3C552.3,73.9,551.9,74,551.5,74.2z"/>
			<path class="st3" d="M526.6,83.9h3.8v0.5h-3.2v2.3h2.9v0.5h-2.9v2.7h-0.6V83.9z"/>
			<path class="st3" d="M535.8,89.9l-0.7-1.6h-3.4l-0.7,1.6h-0.6l2.7-6.1h0.6l2.7,6.1H535.8z M532,87.8h2.9l-1.5-3.3L532,87.8z"/>
			<path class="st3" d="M540.9,84.5c-0.3-0.1-0.7-0.2-1-0.2c-0.5,0-0.9,0.1-1.3,0.3c-0.4,0.2-0.7,0.5-0.9,0.9s-0.3,0.8-0.3,1.3
				c0,0.5,0.1,0.9,0.3,1.3s0.5,0.7,0.9,0.9c0.4,0.2,0.8,0.3,1.3,0.3c0.3,0,0.7-0.1,1-0.2s0.6-0.3,0.9-0.5l0.4,0.4
				c-0.3,0.3-0.6,0.5-1,0.7c-0.4,0.2-0.8,0.2-1.2,0.2c-0.6,0-1.1-0.1-1.6-0.4s-0.9-0.7-1.1-1.1c-0.3-0.5-0.4-1-0.4-1.6
				c0-0.6,0.1-1.1,0.4-1.6c0.3-0.5,0.7-0.8,1.2-1.1c0.5-0.3,1-0.4,1.6-0.4c0.4,0,0.8,0.1,1.2,0.2c0.4,0.2,0.7,0.4,1,0.6l-0.4,0.4
				C541.5,84.9,541.2,84.7,540.9,84.5z"/>
			<path class="st3" d="M543.4,83.9h0.6v6.1h-0.6V83.9z"/>
			<path class="st3" d="M550.5,89.9l-0.7-1.6h-3.4l-0.7,1.6H545l2.7-6.1h0.6l2.7,6.1H550.5z M546.6,87.8h2.9l-1.5-3.3L546.6,87.8z"
				/>
			<path class="st3" d="M552.2,83.9h0.6v5.6h2.7v0.5h-3.3V83.9z"/>
		</g>
	</g>
	<g class="st1">
		<linearGradient id="SVGID_3_" gradientUnits="userSpaceOnUse" x1="816.6059" y1="281.0335" x2="880.3063" y2="281.0335">
			<stop  offset="3.605769e-04" style="stop-color:#4EC4D3"/>
			<stop  offset="0.3128" style="stop-color:#57B1CE"/>
			<stop  offset="1" style="stop-color:#6482C1"/>
		</linearGradient>
		<circle class="st5" cx="848.5" cy="281" r="31.9"/>
		<g>
			<path class="st3" d="M827.3,275.5h0.5v4.7h2.3v0.5h-2.8V275.5z"/>
			<path class="st3" d="M834.9,280.6l-0.6-1.4h-2.9l-0.6,1.4h-0.5l2.3-5.1h0.5l2.3,5.1H834.9z M831.7,278.8h2.5l-1.2-2.8
				L831.7,278.8z"/>
			<path class="st3" d="M838.4,276c-0.2-0.1-0.5-0.1-0.7-0.1c-0.4,0-0.6,0.1-0.8,0.2s-0.3,0.3-0.3,0.6c0,0.2,0.1,0.4,0.2,0.5
				c0.1,0.1,0.3,0.2,0.4,0.3c0.2,0.1,0.4,0.2,0.7,0.3c0.3,0.1,0.6,0.2,0.8,0.3s0.4,0.2,0.5,0.4s0.2,0.4,0.2,0.8
				c0,0.3-0.1,0.5-0.2,0.7c-0.2,0.2-0.4,0.4-0.7,0.5c-0.3,0.1-0.6,0.2-1,0.2c-0.4,0-0.7-0.1-1-0.2c-0.3-0.1-0.6-0.3-0.9-0.6l0.2-0.4
				c0.2,0.2,0.5,0.4,0.8,0.5s0.6,0.2,0.9,0.2c0.4,0,0.7-0.1,0.9-0.2c0.2-0.2,0.3-0.4,0.3-0.6c0-0.2-0.1-0.4-0.2-0.5
				c-0.1-0.1-0.3-0.2-0.4-0.3c-0.2-0.1-0.4-0.2-0.7-0.3c-0.3-0.1-0.6-0.2-0.8-0.3c-0.2-0.1-0.4-0.2-0.5-0.4
				c-0.1-0.2-0.2-0.4-0.2-0.7c0-0.3,0.1-0.5,0.2-0.7c0.1-0.2,0.4-0.3,0.6-0.5c0.3-0.1,0.6-0.2,0.9-0.2c0.3,0,0.6,0,0.8,0.1
				c0.3,0.1,0.5,0.2,0.7,0.3l-0.2,0.4C838.9,276.2,838.7,276.1,838.4,276z"/>
			<path class="st3" d="M840.7,275.5h3.4v0.5h-2.9v1.8h2.6v0.5h-2.6v1.9h3v0.5h-3.5V275.5z"/>
			<path class="st3" d="M848.9,280.6l-1.1-1.7c-0.2,0-0.3,0-0.4,0H846v1.7h-0.5v-5.1h1.9c0.6,0,1.1,0.1,1.5,0.4
				c0.4,0.3,0.5,0.7,0.5,1.3c0,0.4-0.1,0.8-0.3,1.1c-0.2,0.3-0.5,0.5-0.9,0.6l1.2,1.8H848.9z M847.4,278.5c0.5,0,0.9-0.1,1.1-0.3
				c0.3-0.2,0.4-0.5,0.4-1c0-0.4-0.1-0.7-0.4-0.9c-0.3-0.2-0.6-0.3-1.1-0.3H846v2.6H847.4z"/>
			<path class="st3" d="M855,276c-0.2-0.1-0.5-0.1-0.7-0.1c-0.4,0-0.6,0.1-0.8,0.2s-0.3,0.3-0.3,0.6c0,0.2,0.1,0.4,0.2,0.5
				c0.1,0.1,0.3,0.2,0.4,0.3c0.2,0.1,0.4,0.2,0.7,0.3c0.3,0.1,0.6,0.2,0.8,0.3s0.4,0.2,0.5,0.4s0.2,0.4,0.2,0.8
				c0,0.3-0.1,0.5-0.2,0.7c-0.2,0.2-0.4,0.4-0.7,0.5c-0.3,0.1-0.6,0.2-1,0.2c-0.4,0-0.7-0.1-1-0.2c-0.3-0.1-0.6-0.3-0.9-0.6l0.2-0.4
				c0.2,0.2,0.5,0.4,0.8,0.5s0.6,0.2,0.9,0.2c0.4,0,0.7-0.1,0.9-0.2c0.2-0.2,0.3-0.4,0.3-0.6c0-0.2-0.1-0.4-0.2-0.5
				c-0.1-0.1-0.3-0.2-0.4-0.3c-0.2-0.1-0.4-0.2-0.7-0.3c-0.3-0.1-0.6-0.2-0.8-0.3c-0.2-0.1-0.4-0.2-0.5-0.4
				c-0.1-0.2-0.2-0.4-0.2-0.7c0-0.3,0.1-0.5,0.2-0.7c0.1-0.2,0.4-0.3,0.6-0.5c0.3-0.1,0.6-0.2,0.9-0.2c0.3,0,0.6,0,0.8,0.1
				c0.3,0.1,0.5,0.2,0.7,0.3l-0.2,0.4C855.5,276.2,855.3,276.1,855,276z"/>
			<path class="st3" d="M861.4,280.6h-0.6l-1.9-2.5l-1,1.1v1.4h-0.5v-5.1h0.5v3.1l2.8-3.1h0.6l-2.1,2.2L861.4,280.6z"/>
			<path class="st3" d="M862.4,275.5h0.5v5.1h-0.5V275.5z"/>
			<path class="st3" d="M868.3,275.5h0.5v5.1h-0.5l-3.2-4.3v4.3h-0.5v-5.1h0.5l3.2,4.3V275.5z"/>
			<path class="st3" d="M825.6,289.4l-1.1-1.7c-0.2,0-0.3,0-0.4,0h-1.4v1.7h-0.5v-5.1h1.9c0.6,0,1.1,0.1,1.5,0.4
				c0.4,0.3,0.5,0.7,0.5,1.3c0,0.4-0.1,0.8-0.3,1.1s-0.5,0.5-0.9,0.6l1.2,1.8H825.6z M824.1,287.3c0.5,0,0.9-0.1,1.1-0.3
				c0.3-0.2,0.4-0.5,0.4-1c0-0.4-0.1-0.7-0.4-0.9c-0.3-0.2-0.6-0.3-1.1-0.3h-1.4v2.6H824.1z"/>
			<path class="st3" d="M827.5,284.3h3.4v0.5H828v1.8h2.6v0.5H828v1.9h3v0.5h-3.5V284.3z"/>
			<path class="st3" d="M834.5,284.8c-0.2-0.1-0.5-0.1-0.7-0.1c-0.4,0-0.6,0.1-0.8,0.2c-0.2,0.1-0.3,0.3-0.3,0.6
				c0,0.2,0.1,0.4,0.2,0.5c0.1,0.1,0.3,0.2,0.4,0.3c0.2,0.1,0.4,0.2,0.7,0.3c0.3,0.1,0.6,0.2,0.8,0.3c0.2,0.1,0.4,0.2,0.5,0.4
				s0.2,0.4,0.2,0.8c0,0.3-0.1,0.5-0.2,0.7c-0.2,0.2-0.4,0.4-0.7,0.5s-0.6,0.2-1,0.2c-0.4,0-0.7-0.1-1-0.2c-0.3-0.1-0.6-0.3-0.9-0.6
				l0.2-0.4c0.2,0.2,0.5,0.4,0.8,0.5c0.3,0.1,0.6,0.2,0.9,0.2c0.4,0,0.7-0.1,0.9-0.2c0.2-0.2,0.3-0.4,0.3-0.6c0-0.2-0.1-0.4-0.2-0.5
				c-0.1-0.1-0.3-0.2-0.4-0.3c-0.2-0.1-0.4-0.2-0.7-0.3c-0.3-0.1-0.6-0.2-0.8-0.3c-0.2-0.1-0.4-0.2-0.5-0.4
				c-0.1-0.2-0.2-0.4-0.2-0.7c0-0.3,0.1-0.5,0.2-0.7c0.1-0.2,0.4-0.3,0.6-0.5s0.6-0.2,0.9-0.2c0.3,0,0.6,0,0.8,0.1
				c0.3,0.1,0.5,0.2,0.7,0.3l-0.2,0.4C835,285,834.7,284.9,834.5,284.8z"/>
			<path class="st3" d="M837.6,288.6c0.3,0.3,0.7,0.4,1.2,0.4c0.5,0,0.9-0.1,1.2-0.4s0.4-0.7,0.4-1.2v-3.1h0.5v3.1
				c0,0.7-0.2,1.2-0.6,1.6c-0.4,0.4-0.9,0.6-1.6,0.6s-1.2-0.2-1.6-0.6s-0.6-0.9-0.6-1.6v-3.1h0.5v3.1
				C837.2,287.9,837.3,288.3,837.6,288.6z"/>
			<path class="st3" d="M845.8,289.4l-1.1-1.7c-0.2,0-0.3,0-0.4,0h-1.4v1.7h-0.5v-5.1h1.9c0.6,0,1.1,0.1,1.5,0.4
				c0.4,0.3,0.5,0.7,0.5,1.3c0,0.4-0.1,0.8-0.3,1.1s-0.5,0.5-0.9,0.6l1.2,1.8H845.8z M844.3,287.3c0.5,0,0.9-0.1,1.1-0.3
				c0.3-0.2,0.4-0.5,0.4-1c0-0.4-0.1-0.7-0.4-0.9c-0.3-0.2-0.6-0.3-1.1-0.3h-1.4v2.6H844.3z"/>
			<path class="st3" d="M847.7,284.3h3.2v0.5h-2.7v2h2.4v0.5h-2.4v2.2h-0.5V284.3z"/>
			<path class="st3" d="M855.5,289.4l-0.6-1.4H852l-0.6,1.4h-0.5l2.3-5.1h0.5l2.3,5.1H855.5z M852.2,287.6h2.5l-1.2-2.8L852.2,287.6
				z"/>
			<path class="st3" d="M859.8,284.9c-0.3-0.1-0.5-0.2-0.8-0.2c-0.4,0-0.8,0.1-1.1,0.3c-0.3,0.2-0.6,0.5-0.8,0.8
				c-0.2,0.3-0.3,0.7-0.3,1.1c0,0.4,0.1,0.8,0.3,1.1c0.2,0.3,0.5,0.6,0.8,0.8c0.3,0.2,0.7,0.3,1.1,0.3c0.3,0,0.6-0.1,0.8-0.2
				c0.3-0.1,0.5-0.3,0.7-0.5l0.3,0.3c-0.3,0.2-0.5,0.4-0.9,0.6c-0.3,0.1-0.7,0.2-1,0.2c-0.5,0-0.9-0.1-1.3-0.4s-0.7-0.6-1-1
				c-0.2-0.4-0.4-0.8-0.4-1.3c0-0.5,0.1-0.9,0.4-1.3c0.2-0.4,0.6-0.7,1-0.9s0.9-0.3,1.3-0.3c0.3,0,0.7,0.1,1,0.2s0.6,0.3,0.9,0.5
				l-0.3,0.4C860.3,285.1,860.1,285,859.8,284.9z"/>
			<path class="st3" d="M861.9,284.3h0.5v5.1h-0.5V284.3z"/>
			<path class="st3" d="M867.8,284.3h0.5v5.1h-0.5l-3.2-4.3v4.3H864v-5.1h0.5l3.2,4.3V284.3z"/>
			<path class="st3" d="M873.5,286.9h0.4v1.9c-0.2,0.2-0.5,0.4-0.9,0.5c-0.3,0.1-0.7,0.2-1,0.2c-0.5,0-0.9-0.1-1.3-0.4s-0.7-0.6-1-1
				c-0.2-0.4-0.4-0.8-0.4-1.3c0-0.5,0.1-0.9,0.4-1.3c0.2-0.4,0.6-0.7,1-0.9s0.9-0.3,1.4-0.3c0.3,0,0.7,0.1,1,0.2
				c0.3,0.1,0.6,0.3,0.9,0.5l-0.3,0.4c-0.2-0.2-0.5-0.3-0.7-0.5s-0.6-0.2-0.9-0.2c-0.4,0-0.8,0.1-1.1,0.3s-0.6,0.5-0.8,0.8
				c-0.2,0.3-0.3,0.7-0.3,1.1c0,0.4,0.1,0.8,0.3,1.1c0.2,0.3,0.5,0.6,0.8,0.8c0.3,0.2,0.7,0.3,1.1,0.3c0.2,0,0.5,0,0.7-0.1
				c0.2-0.1,0.5-0.2,0.7-0.3V286.9z"/>
		</g>
	</g>
	<g class="st1">
		<linearGradient id="SVGID_4_" gradientUnits="userSpaceOnUse" x1="875.1323" y1="434.117" x2="951.4538" y2="434.117">
			<stop  offset="3.605769e-04" style="stop-color:#4EC4D3"/>
			<stop  offset="0.3128" style="stop-color:#57B1CE"/>
			<stop  offset="1" style="stop-color:#6482C1"/>
		</linearGradient>
		<circle class="st6" cx="913.3" cy="434.1" r="38.2"/>
		<g>
			<path class="st3" d="M893.7,421.2c-0.4-0.1-0.7-0.1-1-0.1c-0.5,0-0.9,0.1-1.2,0.3s-0.5,0.5-0.5,0.8c0,0.3,0.1,0.5,0.2,0.7
				c0.2,0.2,0.4,0.3,0.6,0.4s0.6,0.2,1,0.4c0.5,0.1,0.9,0.3,1.2,0.4c0.3,0.1,0.6,0.3,0.8,0.6c0.2,0.3,0.3,0.6,0.3,1.1
				c0,0.4-0.1,0.7-0.3,1c-0.2,0.3-0.5,0.5-0.9,0.7c-0.4,0.2-0.8,0.2-1.4,0.2c-0.5,0-1-0.1-1.5-0.3s-0.9-0.5-1.2-0.8l0.3-0.6
				c0.3,0.3,0.7,0.6,1.1,0.7c0.4,0.2,0.8,0.3,1.3,0.3c0.6,0,1-0.1,1.3-0.3c0.3-0.2,0.5-0.5,0.5-0.9c0-0.3-0.1-0.6-0.2-0.7
				c-0.2-0.2-0.4-0.3-0.6-0.4s-0.6-0.2-1-0.4c-0.5-0.2-0.9-0.3-1.2-0.4c-0.3-0.1-0.5-0.3-0.8-0.6c-0.2-0.3-0.3-0.6-0.3-1
				c0-0.4,0.1-0.7,0.3-1c0.2-0.3,0.5-0.5,0.9-0.6s0.8-0.2,1.3-0.2c0.4,0,0.8,0.1,1.2,0.2c0.4,0.1,0.7,0.3,1,0.5l-0.3,0.6
				C894.4,421.5,894.1,421.3,893.7,421.2z"/>
			<path class="st3" d="M895.9,420.5h5.5v0.7H899v6.6h-0.7v-6.6h-2.4V420.5z"/>
			<path class="st3" d="M907.5,427.7l-1.6-2.4c-0.2,0-0.4,0-0.5,0h-2v2.3h-0.7v-7.2h2.7c0.9,0,1.6,0.2,2.1,0.6
				c0.5,0.4,0.7,1,0.7,1.8c0,0.6-0.1,1.1-0.4,1.5c-0.3,0.4-0.7,0.7-1.2,0.8l1.7,2.5H907.5z M905.4,424.7c0.7,0,1.2-0.2,1.6-0.5
				s0.6-0.8,0.6-1.4c0-0.6-0.2-1-0.6-1.3c-0.4-0.3-0.9-0.5-1.6-0.5h-2v3.6H905.4z"/>
			<path class="st3" d="M910.2,420.5h4.8v0.6h-4.1v2.6h3.7v0.6h-3.7v2.7h4.3v0.6h-5V420.5z"/>
			<path class="st3" d="M915.9,420.5h5.5v0.7H919v6.6h-0.7v-6.6h-2.4V420.5z"/>
			<path class="st3" d="M926.4,421.3c-0.4-0.2-0.8-0.2-1.2-0.2c-0.6,0-1.1,0.1-1.5,0.4c-0.5,0.3-0.8,0.6-1.1,1.1
				c-0.3,0.5-0.4,1-0.4,1.5s0.1,1.1,0.4,1.5s0.6,0.8,1.1,1.1c0.5,0.3,1,0.4,1.5,0.4c0.4,0,0.8-0.1,1.2-0.2s0.7-0.4,1-0.6l0.4,0.5
				c-0.4,0.3-0.8,0.6-1.2,0.8c-0.5,0.2-0.9,0.3-1.4,0.3c-0.7,0-1.3-0.2-1.9-0.5c-0.6-0.3-1-0.8-1.4-1.3s-0.5-1.2-0.5-1.9
				s0.2-1.3,0.5-1.8c0.3-0.6,0.8-1,1.4-1.3s1.2-0.5,1.9-0.5c0.5,0,1,0.1,1.4,0.3s0.9,0.4,1.2,0.8l-0.4,0.5
				C927.1,421.7,926.7,421.5,926.4,421.3z"/>
			<path class="st3" d="M929.4,420.5h0.7v3.3h4.5v-3.3h0.7v7.2h-0.7v-3.3h-4.5v3.3h-0.7V420.5z"/>
			<path class="st3" d="M898.3,432.9h0.9l2.8,5.4l2.8-5.4h0.9v7.2H905l0-6.2l-2.8,5.5h-0.4l-2.8-5.5v6.2h-0.7V432.9z"/>
			<path class="st3" d="M913.4,440.1l-0.9-1.9h-4l-0.8,1.9h-0.8l3.3-7.2h0.7l3.3,7.2H913.4z M908.8,437.6h3.5l-1.7-3.9L908.8,437.6z
				"/>
			<path class="st3" d="M920.1,440.1l-1.6-2.4c-0.2,0-0.4,0-0.5,0h-2v2.3h-0.7v-7.2h2.7c0.9,0,1.6,0.2,2.1,0.6
				c0.5,0.4,0.7,1,0.7,1.8c0,0.6-0.1,1.1-0.4,1.5c-0.3,0.4-0.7,0.7-1.2,0.8l1.7,2.5H920.1z M918,437.1c0.7,0,1.2-0.2,1.6-0.5
				s0.6-0.8,0.6-1.4c0-0.6-0.2-1-0.6-1.3c-0.4-0.3-0.9-0.5-1.6-0.5h-2v3.6H918z"/>
			<path class="st3" d="M928.6,440.1h-0.9l-2.7-3.5l-1.5,1.6v1.9h-0.7v-7.2h0.7v4.4l4-4.4h0.9l-2.9,3.2L928.6,440.1z"/>
			<path class="st3" d="M893.3,452.5l-1.6-2.4c-0.2,0-0.4,0-0.5,0h-2v2.3h-0.7v-7.2h2.7c0.9,0,1.6,0.2,2.1,0.6
				c0.5,0.4,0.7,1,0.7,1.8c0,0.6-0.1,1.1-0.4,1.5c-0.3,0.4-0.7,0.7-1.2,0.8l1.7,2.5H893.3z M891.2,449.6c0.7,0,1.2-0.2,1.6-0.5
				s0.6-0.8,0.6-1.4c0-0.6-0.2-1-0.6-1.3c-0.4-0.3-0.9-0.5-1.6-0.5h-2v3.6H891.2z"/>
			<path class="st3" d="M896,445.3h4.8v0.6h-4.1v2.6h3.7v0.6h-3.7v2.7h4.3v0.6h-5V445.3z"/>
			<path class="st3" d="M902.7,445.3h0.9l2.8,5.4l2.8-5.4h0.9v7.2h-0.7l0-6.2l-2.8,5.5h-0.4l-2.8-5.5v6.2h-0.7V445.3z"/>
			<path class="st3" d="M917.4,445.7c0.6,0.3,1,0.8,1.4,1.3c0.3,0.6,0.5,1.2,0.5,1.8s-0.2,1.3-0.5,1.9c-0.3,0.6-0.8,1-1.4,1.3
				c-0.6,0.3-1.2,0.5-1.9,0.5s-1.3-0.2-1.9-0.5c-0.6-0.3-1-0.8-1.4-1.3c-0.3-0.6-0.5-1.2-0.5-1.9s0.2-1.3,0.5-1.8
				c0.3-0.6,0.8-1,1.4-1.3s1.2-0.5,1.9-0.5S916.8,445.4,917.4,445.7z M914,446.3c-0.5,0.3-0.8,0.6-1.1,1.1s-0.4,1-0.4,1.5
				s0.1,1.1,0.4,1.5s0.6,0.8,1.1,1.1s1,0.4,1.5,0.4c0.5,0,1-0.1,1.5-0.4c0.5-0.3,0.8-0.6,1.1-1.1c0.3-0.5,0.4-1,0.4-1.5
				s-0.1-1.1-0.4-1.5c-0.3-0.5-0.6-0.8-1.1-1.1c-0.5-0.3-1-0.4-1.5-0.4C914.9,445.9,914.4,446,914,446.3z"/>
			<path class="st3" d="M919.7,445.3h0.8l2.6,6.4l2.6-6.4h0.8l-3,7.2h-0.7L919.7,445.3z"/>
			<path class="st3" d="M932.5,452.5l-0.9-1.9h-4l-0.8,1.9H926l3.3-7.2h0.7l3.3,7.2H932.5z M927.9,450h3.5l-1.7-3.9L927.9,450z"/>
			<path class="st3" d="M934.4,445.3h0.7v6.6h3.2v0.6h-3.9V445.3z"/>
		</g>
	</g>
	<g class="st1">
		<linearGradient id="SVGID_5_" gradientUnits="userSpaceOnUse" x1="515.2758" y1="290.3015" x2="557.7428" y2="290.3015">
			<stop  offset="3.605769e-04" style="stop-color:#4EC4D3"/>
			<stop  offset="0.3128" style="stop-color:#57B1CE"/>
			<stop  offset="1" style="stop-color:#6482C1"/>
		</linearGradient>
		<circle class="st7" cx="536.5" cy="290.3" r="21.2"/>
		<g>
			<path class="st3" d="M529.3,289.1c0.3,0.3,0.5,0.7,0.5,1.2c0,0.5-0.2,0.9-0.5,1.2c-0.3,0.3-0.8,0.4-1.4,0.4h-1.3v1.6h-0.5v-4.8
				h1.8C528.5,288.7,529,288.8,529.3,289.1z M529,291.2c0.3-0.2,0.4-0.5,0.4-0.9c0-0.4-0.1-0.7-0.4-0.9c-0.2-0.2-0.6-0.3-1.1-0.3
				h-1.3v2.4h1.3C528.4,291.5,528.7,291.4,529,291.2z"/>
			<path class="st3" d="M530.8,288.7h3.2v0.4h-2.8v1.7h2.5v0.4h-2.5v1.8h2.9v0.4h-3.3V288.7z"/>
			<path class="st3" d="M535.3,288.7h3.2v0.4h-2.8v1.7h2.5v0.4h-2.5v1.8h2.9v0.4h-3.3V288.7z"/>
			<path class="st3" d="M539.8,288.7h0.5v4.4h2.1v0.4h-2.6V288.7z"/>
			<path class="st3" d="M545.3,289.2c-0.2-0.1-0.5-0.1-0.7-0.1c-0.3,0-0.6,0.1-0.8,0.2c-0.2,0.1-0.3,0.3-0.3,0.5
				c0,0.2,0.1,0.4,0.2,0.5c0.1,0.1,0.2,0.2,0.4,0.3s0.4,0.2,0.7,0.2c0.3,0.1,0.6,0.2,0.8,0.3c0.2,0.1,0.4,0.2,0.5,0.4
				s0.2,0.4,0.2,0.7c0,0.3-0.1,0.5-0.2,0.7s-0.3,0.4-0.6,0.5s-0.6,0.2-0.9,0.2c-0.3,0-0.7-0.1-1-0.2c-0.3-0.1-0.6-0.3-0.8-0.5
				l0.2-0.4c0.2,0.2,0.5,0.4,0.8,0.5c0.3,0.1,0.6,0.2,0.8,0.2c0.4,0,0.7-0.1,0.9-0.2c0.2-0.1,0.3-0.4,0.3-0.6c0-0.2-0.1-0.4-0.2-0.5
				c-0.1-0.1-0.2-0.2-0.4-0.3c-0.2-0.1-0.4-0.1-0.7-0.2c-0.3-0.1-0.6-0.2-0.8-0.3s-0.4-0.2-0.5-0.4s-0.2-0.4-0.2-0.7
				c0-0.2,0.1-0.5,0.2-0.6s0.3-0.3,0.6-0.4s0.5-0.1,0.9-0.1c0.3,0,0.5,0,0.8,0.1c0.3,0.1,0.5,0.2,0.7,0.3l-0.2,0.4
				C545.8,289.3,545.6,289.2,545.3,289.2z"/>
		</g>
	</g>
	<linearGradient id="SVGID_6_" gradientUnits="userSpaceOnUse" x1="804.9274" y1="501.1565" x2="881.368" y2="501.1565">
		<stop  offset="3.605769e-04" style="stop-color:#4EC4D3"/>
		<stop  offset="0.3128" style="stop-color:#57B1CE"/>
		<stop  offset="1" style="stop-color:#6482C1"/>
	</linearGradient>
	<circle class="st8" cx="843.1" cy="501.2" r="38.2"/>
	<g class="st1">
		<path class="st3" d="M833.8,493c-0.4-0.1-0.7-0.2-1-0.2c-0.5,0-0.9,0.1-1.2,0.3c-0.3,0.2-0.5,0.5-0.5,0.8c0,0.3,0.1,0.5,0.2,0.7
			s0.4,0.3,0.6,0.4c0.2,0.1,0.6,0.2,1,0.4c0.5,0.1,0.9,0.3,1.2,0.4c0.3,0.1,0.6,0.3,0.8,0.6c0.2,0.3,0.3,0.6,0.3,1.1
			c0,0.4-0.1,0.7-0.3,1c-0.2,0.3-0.5,0.5-0.9,0.7s-0.8,0.2-1.4,0.2c-0.5,0-1-0.1-1.5-0.3c-0.5-0.2-0.9-0.5-1.2-0.8l0.3-0.6
			c0.3,0.3,0.7,0.6,1.1,0.7c0.4,0.2,0.8,0.3,1.3,0.3c0.6,0,1-0.1,1.3-0.3c0.3-0.2,0.5-0.5,0.5-0.9c0-0.3-0.1-0.6-0.2-0.7
			c-0.2-0.2-0.4-0.3-0.6-0.4c-0.2-0.1-0.6-0.2-1-0.4c-0.5-0.2-0.9-0.3-1.2-0.4c-0.3-0.1-0.5-0.3-0.8-0.6c-0.2-0.3-0.3-0.6-0.3-1
			c0-0.4,0.1-0.7,0.3-1c0.2-0.3,0.5-0.5,0.9-0.6c0.4-0.1,0.8-0.2,1.3-0.2c0.4,0,0.8,0.1,1.2,0.2c0.4,0.1,0.7,0.3,1.1,0.5l-0.3,0.6
			C834.5,493.3,834.1,493.1,833.8,493z"/>
		<path class="st3" d="M841.3,493.1c-0.4-0.2-0.8-0.2-1.2-0.2c-0.6,0-1.1,0.1-1.5,0.4c-0.5,0.3-0.8,0.6-1.1,1.1
			c-0.3,0.5-0.4,1-0.4,1.5s0.1,1.1,0.4,1.5s0.6,0.8,1.1,1.1s1,0.4,1.5,0.4c0.4,0,0.8-0.1,1.2-0.2c0.4-0.2,0.7-0.4,1-0.6l0.4,0.5
			c-0.4,0.3-0.8,0.6-1.2,0.8c-0.5,0.2-0.9,0.3-1.4,0.3c-0.7,0-1.3-0.2-1.9-0.5c-0.6-0.3-1-0.8-1.4-1.3c-0.3-0.6-0.5-1.2-0.5-1.9
			s0.2-1.3,0.5-1.8c0.3-0.6,0.8-1,1.4-1.3c0.6-0.3,1.2-0.5,1.9-0.5c0.5,0,1,0.1,1.4,0.3c0.5,0.2,0.9,0.4,1.2,0.8l-0.4,0.5
			C842,493.5,841.7,493.2,841.3,493.1z"/>
		<path class="st3" d="M849.7,499.5l-0.9-1.9h-4l-0.8,1.9h-0.8l3.3-7.2h0.7l3.3,7.2H849.7z M845.1,496.9h3.5l-1.7-3.9L845.1,496.9z"
			/>
		<path class="st3" d="M856.4,499.5l-1.6-2.4c-0.2,0-0.4,0-0.5,0h-2v2.3h-0.7v-7.2h2.7c0.9,0,1.6,0.2,2.1,0.6c0.5,0.4,0.7,1,0.7,1.8
			c0,0.6-0.1,1.1-0.4,1.5c-0.3,0.4-0.7,0.7-1.2,0.8l1.7,2.5H856.4z M854.4,496.5c0.7,0,1.2-0.2,1.6-0.5c0.4-0.3,0.6-0.8,0.6-1.4
			c0-0.6-0.2-1-0.6-1.3s-0.9-0.5-1.6-0.5h-2v3.6H854.4z"/>
		<path class="st3" d="M812.5,504.7h5.5v0.7h-2.4v6.6h-0.7v-6.6h-2.4V504.7z"/>
		<path class="st3" d="M824.1,511.9l-1.6-2.4c-0.2,0-0.4,0-0.5,0h-2v2.3h-0.7v-7.2h2.7c0.9,0,1.6,0.2,2.1,0.6c0.5,0.4,0.7,1,0.7,1.8
			c0,0.6-0.1,1.1-0.4,1.5c-0.3,0.4-0.7,0.7-1.2,0.8l1.7,2.5H824.1z M822,509c0.7,0,1.2-0.2,1.6-0.5c0.4-0.3,0.6-0.8,0.6-1.4
			c0-0.6-0.2-1-0.6-1.3s-0.9-0.5-1.6-0.5h-2v3.6H822z"/>
		<path class="st3" d="M826.8,504.7h4.8v0.6h-4.1v2.6h3.7v0.6h-3.7v2.7h4.3v0.6h-5V504.7z"/>
		<path class="st3" d="M838.9,511.9L838,510h-4l-0.8,1.9h-0.8l3.3-7.2h0.7l3.3,7.2H838.9z M834.3,509.4h3.5l-1.7-3.9L834.3,509.4z"
			/>
		<path class="st3" d="M839.2,504.7h5.5v0.7h-2.4v6.6h-0.7v-6.6h-2.4V504.7z"/>
		<path class="st3" d="M845.9,504.7h0.9l2.8,5.4l2.8-5.4h0.9v7.3h-0.7l0-6.3l-2.8,5.5h-0.4l-2.8-5.5v6.3h-0.7V504.7z"/>
		<path class="st3" d="M855.6,504.7h4.8v0.6h-4.1v2.6h3.7v0.6h-3.7v2.7h4.3v0.6h-5V504.7z"/>
		<path class="st3" d="M867.6,504.7h0.7v7.2h-0.8l-4.5-6.1v6.1h-0.7v-7.2h0.8l4.5,6.1V504.7z"/>
		<path class="st3" d="M869.6,504.7h5.5v0.7h-2.4v6.6H872v-6.6h-2.4V504.7z"/>
	</g>
	<g class="st1">
		<linearGradient id="SVGID_7_" gradientUnits="userSpaceOnUse" x1="157.8952" y1="455.1154" x2="183.3754" y2="455.1154">
			<stop  offset="3.605769e-04" style="stop-color:#4EC4D3"/>
			<stop  offset="0.3128" style="stop-color:#57B1CE"/>
			<stop  offset="1" style="stop-color:#6482C1"/>
		</linearGradient>
		<circle class="st9" cx="170.6" cy="455.1" r="12.7"/>
		<g>
			<path class="st3" d="M162.9,454.4h0.4l1.3,3.3l1.3-3.3h0.4l-1.5,3.7h-0.4L162.9,454.4z"/>
			<path class="st3" d="M166.9,454.4h2.5v0.3h-2.1v1.3h1.9v0.3h-1.9v1.4h2.2v0.3h-2.5V454.4z"/>
			<path class="st3" d="M170.3,454.4h0.4v3.7h-0.4V454.4z"/>
			<path class="st3" d="M174.5,454.4h0.4v3.7h-0.4l-2.3-3.1v3.1h-0.4v-3.7h0.4l2.3,3.1V454.4z"/>
			<path class="st3" d="M177.5,454.8c-0.2-0.1-0.3-0.1-0.5-0.1c-0.3,0-0.5,0-0.6,0.1c-0.2,0.1-0.2,0.2-0.2,0.4c0,0.2,0,0.3,0.1,0.4
				c0.1,0.1,0.2,0.2,0.3,0.2c0.1,0.1,0.3,0.1,0.5,0.2c0.2,0.1,0.4,0.1,0.6,0.2c0.2,0.1,0.3,0.2,0.4,0.3c0.1,0.1,0.2,0.3,0.2,0.5
				c0,0.2-0.1,0.4-0.2,0.5c-0.1,0.2-0.3,0.3-0.5,0.3c-0.2,0.1-0.4,0.1-0.7,0.1c-0.3,0-0.5-0.1-0.7-0.2c-0.2-0.1-0.5-0.2-0.6-0.4
				l0.2-0.3c0.2,0.2,0.4,0.3,0.6,0.4c0.2,0.1,0.4,0.1,0.6,0.1c0.3,0,0.5-0.1,0.7-0.2c0.2-0.1,0.2-0.3,0.2-0.5c0-0.2,0-0.3-0.1-0.4
				s-0.2-0.2-0.3-0.2c-0.1-0.1-0.3-0.1-0.5-0.2c-0.2-0.1-0.4-0.1-0.6-0.2s-0.3-0.2-0.4-0.3s-0.2-0.3-0.2-0.5c0-0.2,0.1-0.3,0.2-0.5
				c0.1-0.1,0.3-0.2,0.4-0.3c0.2-0.1,0.4-0.1,0.7-0.1c0.2,0,0.4,0,0.6,0.1s0.4,0.1,0.5,0.2L178,455
				C177.9,454.9,177.7,454.9,177.5,454.8z"/>
		</g>
	</g>
	<g class="st1">
		<linearGradient id="SVGID_8_" gradientUnits="userSpaceOnUse" x1="877.6729" y1="355.8291" x2="911.6464" y2="355.8291">
			<stop  offset="3.605769e-04" style="stop-color:#4EC4D3"/>
			<stop  offset="0.3128" style="stop-color:#57B1CE"/>
			<stop  offset="1" style="stop-color:#6482C1"/>
		</linearGradient>
		<circle class="st10" cx="894.7" cy="355.8" r="17"/>
		<g>
			<path class="st3" d="M890.8,350.7c-0.2-0.1-0.4-0.1-0.5-0.1c-0.3,0-0.5,0.1-0.6,0.2c-0.2,0.1-0.2,0.2-0.2,0.4
				c0,0.2,0,0.3,0.1,0.4s0.2,0.2,0.3,0.2c0.1,0.1,0.3,0.1,0.5,0.2c0.3,0.1,0.5,0.2,0.6,0.2c0.2,0.1,0.3,0.2,0.4,0.3
				c0.1,0.1,0.2,0.3,0.2,0.6c0,0.2-0.1,0.4-0.2,0.5c-0.1,0.2-0.3,0.3-0.5,0.4c-0.2,0.1-0.5,0.1-0.7,0.1c-0.3,0-0.5-0.1-0.8-0.2
				c-0.3-0.1-0.5-0.2-0.7-0.4l0.2-0.3c0.2,0.2,0.4,0.3,0.6,0.4c0.2,0.1,0.5,0.1,0.7,0.1c0.3,0,0.5-0.1,0.7-0.2
				c0.2-0.1,0.3-0.3,0.3-0.5c0-0.2,0-0.3-0.1-0.4c-0.1-0.1-0.2-0.2-0.3-0.2c-0.1-0.1-0.3-0.1-0.5-0.2c-0.3-0.1-0.5-0.2-0.6-0.2
				c-0.2-0.1-0.3-0.2-0.4-0.3c-0.1-0.1-0.2-0.3-0.2-0.6c0-0.2,0.1-0.4,0.2-0.5s0.3-0.3,0.5-0.3c0.2-0.1,0.4-0.1,0.7-0.1
				c0.2,0,0.4,0,0.6,0.1c0.2,0.1,0.4,0.1,0.6,0.2l-0.2,0.3C891.2,350.9,891,350.8,890.8,350.7z"/>
			<path class="st3" d="M893.2,353.6c0.2,0.2,0.5,0.3,0.9,0.3s0.7-0.1,0.9-0.3c0.2-0.2,0.3-0.5,0.3-0.9v-2.3h0.4v2.3
				c0,0.5-0.1,0.9-0.4,1.2c-0.3,0.3-0.7,0.4-1.2,0.4s-0.9-0.1-1.2-0.4c-0.3-0.3-0.4-0.7-0.4-1.2v-2.3h0.4v2.3
				C892.8,353,892.9,353.3,893.2,353.6z"/>
			<path class="st3" d="M899.6,350.3h0.4v3.9h-0.4l-2.4-3.3v3.3h-0.4v-3.9h0.4l2.4,3.3V350.3z"/>
			<path class="st3" d="M885.2,357.2c0.3,0.2,0.5,0.4,0.7,0.7c0.2,0.3,0.3,0.6,0.3,1c0,0.4-0.1,0.7-0.3,1c-0.2,0.3-0.4,0.5-0.7,0.7
				c-0.3,0.2-0.6,0.3-1,0.3h-1.5V357h1.6C884.6,357,884.9,357.1,885.2,357.2z M885,360.3c0.2-0.1,0.4-0.3,0.6-0.6
				c0.1-0.2,0.2-0.5,0.2-0.8c0-0.3-0.1-0.6-0.2-0.8c-0.1-0.2-0.3-0.4-0.6-0.6c-0.2-0.1-0.5-0.2-0.8-0.2H883v3.2h1.2
				C884.5,360.5,884.8,360.4,885,360.3z"/>
			<path class="st3" d="M889.8,360.8l-0.5-1h-2.1l-0.5,1h-0.4l1.7-3.9h0.4l1.7,3.9H889.8z M887.4,359.5h1.8l-0.9-2.1L887.4,359.5z"
				/>
			<path class="st3" d="M890.9,357h0.5l1.5,2.9l1.5-2.9h0.5v3.9h-0.4l0-3.3l-1.5,2.9h-0.2l-1.5-2.9v3.3h-0.4V357z"/>
			<path class="st3" d="M899,360.8l-0.5-1h-2.1l-0.5,1h-0.4l1.7-3.9h0.4l1.7,3.9H899z M896.5,359.5h1.8l-0.9-2.1L896.5,359.5z"/>
			<path class="st3" d="M902.6,359h0.3v1.4c-0.2,0.2-0.4,0.3-0.7,0.4c-0.2,0.1-0.5,0.1-0.8,0.1c-0.4,0-0.7-0.1-1-0.3
				c-0.3-0.2-0.6-0.4-0.7-0.7s-0.3-0.6-0.3-1s0.1-0.7,0.3-1s0.4-0.5,0.7-0.7c0.3-0.2,0.7-0.3,1-0.3c0.3,0,0.5,0,0.8,0.1
				c0.2,0.1,0.5,0.2,0.7,0.4l-0.2,0.3c-0.2-0.1-0.3-0.3-0.5-0.3c-0.2-0.1-0.4-0.1-0.6-0.1c-0.3,0-0.6,0.1-0.8,0.2s-0.5,0.3-0.6,0.6
				c-0.1,0.2-0.2,0.5-0.2,0.8c0,0.3,0.1,0.6,0.2,0.8s0.3,0.4,0.6,0.6c0.3,0.1,0.5,0.2,0.8,0.2c0.2,0,0.4,0,0.6-0.1s0.4-0.1,0.5-0.3
				V359z"/>
			<path class="st3" d="M904.1,357h2.6v0.3h-2.2v1.4h2v0.3h-2v1.5h2.3v0.3h-2.7V357z"/>
		</g>
	</g>
	<g class="st1">
		<linearGradient id="SVGID_9_" gradientUnits="userSpaceOnUse" x1="667.9714" y1="424.337" x2="693.4516" y2="424.337">
			<stop  offset="3.605769e-04" style="stop-color:#4EC4D3"/>
			<stop  offset="0.3128" style="stop-color:#57B1CE"/>
			<stop  offset="1" style="stop-color:#6482C1"/>
		</linearGradient>
		<circle class="st11" cx="680.7" cy="424.3" r="12.7"/>
		<g>
			<path class="st3" d="M672.6,423.7c-0.1,0-0.3-0.1-0.4-0.1c-0.2,0-0.4,0-0.5,0.1c-0.1,0.1-0.2,0.2-0.2,0.3c0,0.1,0,0.2,0.1,0.3
				c0.1,0.1,0.1,0.1,0.2,0.2c0.1,0,0.2,0.1,0.4,0.1c0.2,0.1,0.4,0.1,0.5,0.2c0.1,0.1,0.2,0.1,0.3,0.2c0.1,0.1,0.1,0.2,0.1,0.4
				c0,0.2,0,0.3-0.1,0.4c-0.1,0.1-0.2,0.2-0.4,0.3c-0.2,0.1-0.3,0.1-0.5,0.1c-0.2,0-0.4,0-0.6-0.1s-0.4-0.2-0.5-0.3l0.1-0.2
				c0.1,0.1,0.3,0.2,0.5,0.3c0.2,0.1,0.3,0.1,0.5,0.1c0.2,0,0.4,0,0.5-0.1s0.2-0.2,0.2-0.4c0-0.1,0-0.2-0.1-0.3
				c-0.1-0.1-0.1-0.1-0.2-0.2c-0.1,0-0.2-0.1-0.4-0.1c-0.2-0.1-0.4-0.1-0.5-0.2c-0.1-0.1-0.2-0.1-0.3-0.2s-0.1-0.2-0.1-0.4
				c0-0.1,0-0.3,0.1-0.4s0.2-0.2,0.3-0.3s0.3-0.1,0.5-0.1c0.2,0,0.3,0,0.5,0.1c0.2,0,0.3,0.1,0.4,0.2l-0.1,0.2
				C672.9,423.8,672.8,423.7,672.6,423.7z"/>
			<path class="st3" d="M676.2,426.3h-0.4l-1.1-1.4l-0.6,0.6v0.8h-0.3v-2.9h0.3v1.8l1.6-1.8h0.3l-1.2,1.3L676.2,426.3z"/>
			<path class="st3" d="M676.8,423.4h0.3v2.9h-0.3V423.4z"/>
			<path class="st3" d="M680.1,423.4h0.3v2.9h-0.3l-1.8-2.5v2.5H678v-2.9h0.3l1.8,2.5V423.4z"/>
			<path class="st3" d="M682,423.4h2.2v0.3h-1v2.6H683v-2.6h-1V423.4z"/>
			<path class="st3" d="M686.6,426.3l-0.3-0.8h-1.6l-0.3,0.8H684l1.3-2.9h0.3l1.3,2.9H686.6z M684.8,425.2h1.4l-0.7-1.6L684.8,425.2
				z"/>
			<path class="st3" d="M689.4,424.8h0.3v1.1c-0.1,0.1-0.3,0.2-0.5,0.3c-0.2,0.1-0.4,0.1-0.6,0.1c-0.3,0-0.5-0.1-0.8-0.2
				c-0.2-0.1-0.4-0.3-0.5-0.5c-0.1-0.2-0.2-0.5-0.2-0.7c0-0.3,0.1-0.5,0.2-0.7c0.1-0.2,0.3-0.4,0.6-0.5c0.2-0.1,0.5-0.2,0.8-0.2
				c0.2,0,0.4,0,0.6,0.1c0.2,0.1,0.3,0.2,0.5,0.3l-0.2,0.2c-0.1-0.1-0.3-0.2-0.4-0.3c-0.2-0.1-0.3-0.1-0.5-0.1
				c-0.2,0-0.4,0.1-0.6,0.2c-0.2,0.1-0.3,0.3-0.4,0.4c-0.1,0.2-0.2,0.4-0.2,0.6c0,0.2,0.1,0.4,0.2,0.6c0.1,0.2,0.3,0.3,0.5,0.4
				c0.2,0.1,0.4,0.2,0.6,0.2c0.1,0,0.3,0,0.4-0.1c0.1,0,0.3-0.1,0.4-0.2V424.8z"/>
		</g>
	</g>
	<g class="st1">
		<linearGradient id="SVGID_10_" gradientUnits="userSpaceOnUse" x1="139.6411" y1="246.5497" x2="190.9877" y2="246.5497">
			<stop  offset="3.605769e-04" style="stop-color:#4EC4D3"/>
			<stop  offset="0.3128" style="stop-color:#57B1CE"/>
			<stop  offset="1" style="stop-color:#6482C1"/>
		</linearGradient>
		<circle class="st12" cx="165.3" cy="246.5" r="25.7"/>
		<g>
			<path class="st3" d="M156.8,245.2c-0.3-0.1-0.6-0.1-0.8-0.1c-0.4,0-0.7,0.1-1,0.2c-0.2,0.2-0.4,0.4-0.4,0.6
				c0,0.2,0.1,0.4,0.2,0.6c0.1,0.2,0.3,0.3,0.5,0.4c0.2,0.1,0.5,0.2,0.8,0.3c0.4,0.1,0.7,0.2,1,0.3s0.4,0.3,0.6,0.5
				c0.2,0.2,0.3,0.5,0.3,0.9c0,0.3-0.1,0.6-0.3,0.8c-0.2,0.2-0.4,0.4-0.7,0.6c-0.3,0.1-0.7,0.2-1.1,0.2c-0.4,0-0.8-0.1-1.2-0.2
				c-0.4-0.2-0.7-0.4-1-0.6l0.3-0.5c0.3,0.3,0.6,0.5,0.9,0.6s0.7,0.2,1,0.2c0.4,0,0.8-0.1,1.1-0.3s0.4-0.4,0.4-0.7
				c0-0.2-0.1-0.4-0.2-0.6c-0.1-0.2-0.3-0.3-0.5-0.4c-0.2-0.1-0.5-0.2-0.8-0.3c-0.4-0.1-0.7-0.2-1-0.3c-0.2-0.1-0.4-0.3-0.6-0.5
				c-0.2-0.2-0.3-0.5-0.3-0.8c0-0.3,0.1-0.6,0.3-0.8c0.2-0.2,0.4-0.4,0.7-0.5c0.3-0.1,0.6-0.2,1-0.2c0.3,0,0.6,0,1,0.1
				c0.3,0.1,0.6,0.2,0.8,0.4l-0.3,0.5C157.4,245.4,157.1,245.3,156.8,245.2z"/>
			<path class="st3" d="M160.4,249.5c0.3,0.3,0.8,0.5,1.4,0.5c0.6,0,1-0.2,1.4-0.5c0.3-0.3,0.5-0.8,0.5-1.4v-3.5h0.6v3.5
				c0,0.8-0.2,1.4-0.6,1.8c-0.4,0.4-1,0.6-1.8,0.6c-0.8,0-1.4-0.2-1.8-0.6c-0.4-0.4-0.6-1-0.6-1.8v-3.5h0.6v3.5
				C159.9,248.7,160.1,249.1,160.4,249.5z"/>
			<path class="st3" d="M169.7,245c0.3,0.3,0.5,0.6,0.5,1.1c0,0.3-0.1,0.6-0.3,0.9s-0.5,0.4-0.8,0.5c0.4,0.1,0.8,0.2,1,0.5
				c0.2,0.3,0.4,0.6,0.4,1c0,0.5-0.2,0.9-0.6,1.2c-0.4,0.3-0.9,0.4-1.6,0.4h-2.5v-5.9h2.5C168.9,244.6,169.4,244.7,169.7,245z
				 M169.3,246.9c0.2-0.2,0.3-0.4,0.3-0.8c0-0.3-0.1-0.6-0.3-0.8c-0.2-0.2-0.5-0.3-1-0.3h-1.8v2.1h1.8
				C168.7,247.2,169.1,247.1,169.3,246.9z M169.5,249.6c0.3-0.2,0.4-0.5,0.4-0.8c0-0.4-0.1-0.6-0.4-0.8c-0.3-0.2-0.7-0.3-1.2-0.3
				h-1.8v2.2h1.8C168.8,249.9,169.2,249.8,169.5,249.6z"/>
			<path class="st3" d="M177.8,251c-0.2,0.2-0.5,0.4-0.7,0.5c-0.3,0.1-0.5,0.2-0.7,0.2c-0.6,0-1.2-0.4-1.8-1.1h-0.1
				c-0.6,0-1.1-0.1-1.5-0.4c-0.5-0.3-0.8-0.6-1.1-1.1c-0.3-0.5-0.4-1-0.4-1.5s0.1-1,0.4-1.5c0.3-0.5,0.6-0.8,1.1-1.1
				c0.5-0.3,1-0.4,1.5-0.4c0.6,0,1.1,0.1,1.5,0.4c0.5,0.3,0.8,0.6,1.1,1.1c0.3,0.5,0.4,0.9,0.4,1.5c0,0.5-0.1,0.9-0.3,1.3
				c-0.2,0.4-0.5,0.7-0.8,1c-0.4,0.3-0.8,0.5-1.2,0.6c0.5,0.5,0.9,0.7,1.3,0.7c0.4,0,0.7-0.2,1.1-0.5L177.8,251z M172.3,248.7
				c0.2,0.4,0.5,0.7,0.9,0.9c0.4,0.2,0.8,0.3,1.2,0.3c0.4,0,0.8-0.1,1.2-0.3c0.4-0.2,0.7-0.5,0.9-0.9s0.3-0.8,0.3-1.2
				s-0.1-0.9-0.3-1.2c-0.2-0.4-0.5-0.7-0.9-0.9s-0.8-0.3-1.2-0.3c-0.4,0-0.9,0.1-1.2,0.3s-0.7,0.5-0.9,0.9c-0.2,0.4-0.3,0.8-0.3,1.2
				S172,248.4,172.3,248.7z"/>
		</g>
	</g>
	<g class="st1">
		<linearGradient id="SVGID_11_" gradientUnits="userSpaceOnUse" x1="576.1526" y1="130.6949" x2="601.6328" y2="130.6949">
			<stop  offset="3.605769e-04" style="stop-color:#4EC4D3"/>
			<stop  offset="0.3128" style="stop-color:#57B1CE"/>
			<stop  offset="1" style="stop-color:#6482C1"/>
		</linearGradient>
		<circle class="st13" cx="588.9" cy="130.7" r="12.7"/>
		<g>
			<path class="st3" d="M582.4,127.8h1.8v0.3h-1.5v1.1h1.4v0.3h-1.4v1.3h-0.3V127.8z"/>
			<path class="st3" d="M586.8,130.7l-0.3-0.8h-1.6l-0.3,0.8h-0.3l1.3-2.9h0.3l1.3,2.9H586.8z M584.9,129.7h1.4l-0.7-1.6
				L584.9,129.7z"/>
			<path class="st3" d="M589.2,128.1c-0.2-0.1-0.3-0.1-0.5-0.1c-0.2,0-0.4,0.1-0.6,0.2c-0.2,0.1-0.3,0.3-0.4,0.4
				c-0.1,0.2-0.2,0.4-0.2,0.6s0.1,0.4,0.2,0.6s0.3,0.3,0.4,0.4c0.2,0.1,0.4,0.2,0.6,0.2c0.2,0,0.3,0,0.5-0.1
				c0.2-0.1,0.3-0.1,0.4-0.3l0.2,0.2c-0.1,0.1-0.3,0.2-0.5,0.3s-0.4,0.1-0.6,0.1c-0.3,0-0.5-0.1-0.8-0.2s-0.4-0.3-0.5-0.5
				c-0.1-0.2-0.2-0.5-0.2-0.7s0.1-0.5,0.2-0.7s0.3-0.4,0.5-0.5c0.2-0.1,0.5-0.2,0.8-0.2c0.2,0,0.4,0,0.6,0.1s0.3,0.2,0.5,0.3
				l-0.2,0.2C589.5,128.3,589.4,128.2,589.2,128.1z"/>
			<path class="st3" d="M590.4,127.8h0.3v2.9h-0.3V127.8z"/>
			<path class="st3" d="M593.8,130.7l-0.3-0.8h-1.6l-0.3,0.8h-0.3l1.3-2.9h0.3l1.3,2.9H593.8z M591.9,129.7h1.4l-0.7-1.6
				L591.9,129.7z"/>
			<path class="st3" d="M594.6,127.8h0.3v2.6h1.3v0.3h-1.6V127.8z"/>
			<path class="st3" d="M585.7,133.1c-0.2-0.1-0.3-0.1-0.5-0.1c-0.2,0-0.4,0.1-0.6,0.2c-0.2,0.1-0.3,0.3-0.4,0.4
				c-0.1,0.2-0.2,0.4-0.2,0.6s0.1,0.4,0.2,0.6s0.3,0.3,0.4,0.4c0.2,0.1,0.4,0.2,0.6,0.2c0.2,0,0.3,0,0.5-0.1
				c0.2-0.1,0.3-0.1,0.4-0.3l0.2,0.2c-0.1,0.1-0.3,0.2-0.5,0.3s-0.4,0.1-0.6,0.1c-0.3,0-0.5-0.1-0.8-0.2s-0.4-0.3-0.5-0.5
				c-0.1-0.2-0.2-0.5-0.2-0.7s0.1-0.5,0.2-0.7s0.3-0.4,0.5-0.5c0.2-0.1,0.5-0.2,0.8-0.2c0.2,0,0.4,0,0.6,0.1s0.3,0.2,0.5,0.3
				l-0.2,0.2C586,133.3,585.9,133.2,585.7,133.1z"/>
			<path class="st3" d="M588.9,132.9c0.2,0.1,0.4,0.3,0.5,0.5s0.2,0.5,0.2,0.7s-0.1,0.5-0.2,0.7s-0.3,0.4-0.5,0.5s-0.5,0.2-0.8,0.2
				c-0.3,0-0.5-0.1-0.8-0.2c-0.2-0.1-0.4-0.3-0.5-0.5s-0.2-0.5-0.2-0.7s0.1-0.5,0.2-0.7s0.3-0.4,0.5-0.5c0.2-0.1,0.5-0.2,0.8-0.2
				C588.4,132.7,588.6,132.8,588.9,132.9z M587.5,133.2c-0.2,0.1-0.3,0.3-0.4,0.4c-0.1,0.2-0.2,0.4-0.2,0.6s0.1,0.4,0.2,0.6
				c0.1,0.2,0.3,0.3,0.4,0.4c0.2,0.1,0.4,0.2,0.6,0.2c0.2,0,0.4-0.1,0.6-0.2c0.2-0.1,0.3-0.3,0.4-0.4c0.1-0.2,0.2-0.4,0.2-0.6
				s-0.1-0.4-0.2-0.6c-0.1-0.2-0.3-0.3-0.4-0.4c-0.2-0.1-0.4-0.2-0.6-0.2C587.9,133,587.7,133.1,587.5,133.2z"/>
			<path class="st3" d="M591.5,133.1c-0.1,0-0.3-0.1-0.4-0.1c-0.2,0-0.4,0-0.5,0.1c-0.1,0.1-0.2,0.2-0.2,0.3c0,0.1,0,0.2,0.1,0.3
				c0.1,0.1,0.1,0.1,0.2,0.2c0.1,0,0.2,0.1,0.4,0.1c0.2,0.1,0.4,0.1,0.5,0.2c0.1,0.1,0.2,0.1,0.3,0.2c0.1,0.1,0.1,0.3,0.1,0.4
				c0,0.2,0,0.3-0.1,0.4s-0.2,0.2-0.4,0.3c-0.2,0.1-0.3,0.1-0.5,0.1c-0.2,0-0.4,0-0.6-0.1s-0.4-0.2-0.5-0.3l0.1-0.2
				c0.1,0.1,0.3,0.2,0.5,0.3c0.2,0.1,0.3,0.1,0.5,0.1c0.2,0,0.4,0,0.5-0.1c0.1-0.1,0.2-0.2,0.2-0.4c0-0.1,0-0.2-0.1-0.3
				s-0.1-0.1-0.2-0.2s-0.2-0.1-0.4-0.1c-0.2-0.1-0.4-0.1-0.5-0.2c-0.1-0.1-0.2-0.1-0.3-0.2c-0.1-0.1-0.1-0.2-0.1-0.4
				c0-0.1,0-0.3,0.1-0.4s0.2-0.2,0.3-0.3s0.3-0.1,0.5-0.1c0.2,0,0.3,0,0.5,0.1c0.2,0,0.3,0.1,0.4,0.2l-0.1,0.2
				C591.7,133.2,591.6,133.1,591.5,133.1z"/>
			<path class="st3" d="M592.4,132.8h2.2v0.3h-1v2.6h-0.3V133h-1V132.8z"/>
		</g>
	</g>
	<g class="st1">
		<linearGradient id="SVGID_12_" gradientUnits="userSpaceOnUse" x1="360.8519" y1="185.7159" x2="398.7804" y2="185.7159">
			<stop  offset="3.605769e-04" style="stop-color:#4EC4D3"/>
			<stop  offset="0.3128" style="stop-color:#57B1CE"/>
			<stop  offset="1" style="stop-color:#6482C1"/>
		</linearGradient>
		<circle class="st14" cx="379.8" cy="185.7" r="19"/>
		<g>
			<path class="st3" d="M367.9,184.6c0.3,0.2,0.6,0.5,0.8,0.8c0.2,0.3,0.3,0.7,0.3,1.1c0,0.4-0.1,0.8-0.3,1.1
				c-0.2,0.3-0.5,0.6-0.8,0.8c-0.3,0.2-0.7,0.3-1.1,0.3H365v-4.3h1.7C367.2,184.3,367.6,184.4,367.9,184.6z M367.7,188
				c0.3-0.2,0.5-0.4,0.6-0.6s0.2-0.6,0.2-0.9s-0.1-0.6-0.2-0.9s-0.4-0.5-0.7-0.6c-0.3-0.2-0.6-0.2-0.9-0.2h-1.3v3.6h1.3
				C367.1,188.2,367.4,188.1,367.7,188z"/>
			<path class="st3" d="M372.8,188.6l-0.9-1.4c-0.1,0-0.2,0-0.3,0h-1.2v1.4h-0.4v-4.3h1.6c0.5,0,1,0.1,1.3,0.4
				c0.3,0.2,0.4,0.6,0.4,1.1c0,0.4-0.1,0.7-0.3,0.9c-0.2,0.2-0.4,0.4-0.7,0.5l1,1.5H372.8z M371.6,186.8c0.4,0,0.7-0.1,1-0.3
				s0.3-0.5,0.3-0.8c0-0.3-0.1-0.6-0.3-0.8c-0.2-0.2-0.5-0.3-1-0.3h-1.2v2.2H371.6z"/>
			<path class="st3" d="M377.5,184.3l-1.7,2.8v1.5h-0.4V187l-1.7-2.8h0.4l1.5,2.3l1.4-2.3H377.5z"/>
			<path class="st3" d="M381.3,184.3h0.4v4.3h-0.5l-2.7-3.7v3.7h-0.4v-4.3h0.5l2.7,3.7V184.3z"/>
			<path class="st3" d="M383.1,184.3h2.9v0.4h-2.5v1.5h2.2v0.4h-2.2v1.6h2.5v0.4h-3V184.3z"/>
			<path class="st3" d="M389,184.7c-0.2-0.1-0.4-0.1-0.6-0.1c-0.3,0-0.5,0.1-0.7,0.2c-0.2,0.1-0.3,0.3-0.3,0.5c0,0.2,0,0.3,0.1,0.4
				c0.1,0.1,0.2,0.2,0.4,0.3c0.1,0.1,0.3,0.1,0.6,0.2c0.3,0.1,0.5,0.2,0.7,0.3c0.2,0.1,0.3,0.2,0.5,0.4c0.1,0.2,0.2,0.4,0.2,0.6
				c0,0.2-0.1,0.4-0.2,0.6s-0.3,0.3-0.5,0.4s-0.5,0.1-0.8,0.1c-0.3,0-0.6-0.1-0.9-0.2c-0.3-0.1-0.5-0.3-0.7-0.5l0.2-0.4
				c0.2,0.2,0.4,0.3,0.7,0.4c0.3,0.1,0.5,0.2,0.8,0.2c0.3,0,0.6-0.1,0.8-0.2c0.2-0.1,0.3-0.3,0.3-0.5c0-0.2,0-0.3-0.1-0.4
				c-0.1-0.1-0.2-0.2-0.4-0.3c-0.1-0.1-0.3-0.1-0.6-0.2c-0.3-0.1-0.5-0.2-0.7-0.3c-0.2-0.1-0.3-0.2-0.5-0.4s-0.2-0.4-0.2-0.6
				c0-0.2,0.1-0.4,0.2-0.6c0.1-0.2,0.3-0.3,0.5-0.4c0.2-0.1,0.5-0.1,0.8-0.1c0.2,0,0.5,0,0.7,0.1c0.2,0.1,0.4,0.2,0.6,0.3l-0.2,0.4
				C389.4,184.9,389.2,184.8,389,184.7z"/>
			<path class="st3" d="M392.7,184.7c-0.2-0.1-0.4-0.1-0.6-0.1c-0.3,0-0.5,0.1-0.7,0.2c-0.2,0.1-0.3,0.3-0.3,0.5
				c0,0.2,0,0.3,0.1,0.4c0.1,0.1,0.2,0.2,0.4,0.3c0.1,0.1,0.3,0.1,0.6,0.2c0.3,0.1,0.5,0.2,0.7,0.3c0.2,0.1,0.3,0.2,0.5,0.4
				c0.1,0.2,0.2,0.4,0.2,0.6c0,0.2-0.1,0.4-0.2,0.6s-0.3,0.3-0.5,0.4s-0.5,0.1-0.8,0.1c-0.3,0-0.6-0.1-0.9-0.2
				c-0.3-0.1-0.5-0.3-0.7-0.5l0.2-0.4c0.2,0.2,0.4,0.3,0.7,0.4c0.3,0.1,0.5,0.2,0.8,0.2c0.3,0,0.6-0.1,0.8-0.2
				c0.2-0.1,0.3-0.3,0.3-0.5c0-0.2,0-0.3-0.1-0.4c-0.1-0.1-0.2-0.2-0.4-0.3c-0.1-0.1-0.3-0.1-0.6-0.2c-0.3-0.1-0.5-0.2-0.7-0.3
				c-0.2-0.1-0.3-0.2-0.5-0.4s-0.2-0.4-0.2-0.6c0-0.2,0.1-0.4,0.2-0.6c0.1-0.2,0.3-0.3,0.5-0.4c0.2-0.1,0.5-0.1,0.8-0.1
				c0.2,0,0.5,0,0.7,0.1c0.2,0.1,0.4,0.2,0.6,0.3l-0.2,0.4C393.1,184.9,392.9,184.8,392.7,184.7z"/>
		</g>
	</g>
</g>
<g id="Layer_2_1_" class="st0">
	<g class="st1">
		<linearGradient id="SVGID_13_" gradientUnits="userSpaceOnUse" x1="691.4603" y1="270.1071" x2="779.3386" y2="270.1071">
			<stop  offset="3.605769e-04" style="stop-color:#4EC4D3"/>
			<stop  offset="0.3128" style="stop-color:#57B1CE"/>
			<stop  offset="1" style="stop-color:#6482C1"/>
		</linearGradient>
		<circle class="st15" cx="735.4" cy="270.1" r="43.9"/>
		<g>
			<path class="st3" d="M702.1,267.8c-0.5-0.1-0.9-0.2-1.4-0.2c-0.7,0-1.2,0.1-1.7,0.4c-0.4,0.3-0.6,0.6-0.6,1.1
				c0,0.4,0.1,0.7,0.3,1c0.2,0.3,0.5,0.5,0.8,0.6s0.8,0.3,1.4,0.5c0.7,0.2,1.2,0.4,1.6,0.6c0.4,0.2,0.8,0.5,1.1,0.9
				c0.3,0.4,0.4,0.9,0.4,1.5c0,0.5-0.2,1-0.5,1.4s-0.7,0.7-1.3,1c-0.5,0.2-1.2,0.3-1.9,0.3c-0.7,0-1.4-0.1-2-0.4
				c-0.7-0.3-1.2-0.6-1.7-1.1l0.5-0.8c0.4,0.4,1,0.8,1.6,1c0.6,0.2,1.2,0.4,1.7,0.4c0.8,0,1.4-0.2,1.8-0.5c0.4-0.3,0.7-0.7,0.7-1.3
				c0-0.4-0.1-0.8-0.3-1c-0.2-0.3-0.5-0.5-0.8-0.6c-0.3-0.1-0.8-0.3-1.4-0.5c-0.7-0.2-1.2-0.4-1.6-0.6s-0.8-0.5-1-0.8
				c-0.3-0.4-0.4-0.8-0.4-1.4c0-0.5,0.1-0.9,0.4-1.3c0.3-0.4,0.7-0.7,1.2-0.9c0.5-0.2,1.1-0.3,1.8-0.3c0.5,0,1.1,0.1,1.6,0.2
				c0.5,0.2,1,0.4,1.5,0.6l-0.4,0.8C703,268.1,702.6,267.9,702.1,267.8z"/>
			<path class="st3" d="M714.6,276.8h-1.2l-3.8-4.9l-2,2.2v2.7h-1v-10h1v6.1l5.6-6.1h1.2l-4,4.4L714.6,276.8z"/>
			<path class="st3" d="M716.5,266.7h1v10h-1V266.7z"/>
			<path class="st3" d="M727.9,266.7h1v10h-1l-6.2-8.5v8.5h-1v-10h1l6.2,8.5V266.7z"/>
			<path class="st3" d="M741.9,267.9c-0.5-0.2-1.1-0.3-1.6-0.3c-0.8,0-1.5,0.2-2.1,0.6c-0.6,0.4-1.2,0.9-1.5,1.5
				c-0.4,0.6-0.6,1.3-0.6,2.1c0,0.8,0.2,1.5,0.6,2.1c0.4,0.6,0.9,1.1,1.5,1.5c0.6,0.4,1.4,0.6,2.1,0.6c0.6,0,1.1-0.1,1.6-0.3
				c0.5-0.2,1-0.5,1.4-0.9l0.6,0.6c-0.5,0.5-1.1,0.8-1.7,1.1s-1.3,0.4-2,0.4c-0.9,0-1.8-0.2-2.6-0.7c-0.8-0.5-1.4-1.1-1.9-1.9
				c-0.5-0.8-0.7-1.6-0.7-2.6c0-0.9,0.2-1.8,0.7-2.5c0.5-0.8,1.1-1.4,1.9-1.8c0.8-0.5,1.7-0.7,2.6-0.7c0.7,0,1.3,0.1,2,0.4
				c0.6,0.3,1.2,0.6,1.7,1.1l-0.6,0.7C742.9,268.4,742.4,268.1,741.9,267.9z"/>
			<path class="st3" d="M753.5,276.8l-1.2-2.7h-5.6l-1.2,2.7h-1.1l4.5-10h1l4.5,10H753.5z M747.1,273.2h4.8l-2.4-5.4L747.1,273.2z"
				/>
			<path class="st3" d="M762.8,276.8l-2.2-3.3c-0.3,0-0.5,0-0.7,0h-2.8v3.2h-1v-10h3.7c1.2,0,2.2,0.3,2.9,0.9s1,1.4,1,2.5
				c0,0.8-0.2,1.5-0.6,2.1s-1,0.9-1.7,1.2l2.4,3.5H762.8z M759.9,272.6c1,0,1.7-0.2,2.2-0.7c0.5-0.4,0.8-1.1,0.8-1.9
				c0-0.8-0.3-1.4-0.8-1.8c-0.5-0.4-1.3-0.6-2.2-0.6h-2.8v5H759.9z"/>
			<path class="st3" d="M766.5,266.7h6.7v0.9h-5.7v3.6h5.1v0.9h-5.1v3.8h5.9v0.9h-6.9V266.7z"/>
		</g>
	</g>
	<g class="st1">
		<linearGradient id="SVGID_14_" gradientUnits="userSpaceOnUse" x1="280.9771" y1="347.2861" x2="350.9744" y2="347.2861">
			<stop  offset="3.605769e-04" style="stop-color:#4EC4D3"/>
			<stop  offset="0.3128" style="stop-color:#57B1CE"/>
			<stop  offset="1" style="stop-color:#6482C1"/>
		</linearGradient>
		<circle class="st16" cx="316" cy="347.3" r="35"/>
		<g>
			<path class="st3" d="M293.1,346.5h0.5v5h-0.5l-3.1-4.3v4.3h-0.5v-5h0.5l3.1,4.3V346.5z"/>
			<path class="st3" d="M298.7,346.8c0.4,0.2,0.7,0.5,1,0.9c0.2,0.4,0.4,0.8,0.4,1.3c0,0.5-0.1,0.9-0.4,1.3c-0.2,0.4-0.6,0.7-1,0.9
				s-0.8,0.3-1.3,0.3c-0.5,0-0.9-0.1-1.3-0.3s-0.7-0.5-1-0.9c-0.2-0.4-0.4-0.8-0.4-1.3c0-0.5,0.1-0.9,0.4-1.3c0.2-0.4,0.6-0.7,1-0.9
				s0.8-0.3,1.3-0.3C297.8,346.5,298.3,346.6,298.7,346.8z M296.3,347.2c-0.3,0.2-0.6,0.4-0.8,0.8c-0.2,0.3-0.3,0.7-0.3,1.1
				s0.1,0.7,0.3,1.1c0.2,0.3,0.5,0.6,0.8,0.8c0.3,0.2,0.7,0.3,1.1,0.3c0.4,0,0.7-0.1,1.1-0.3c0.3-0.2,0.6-0.4,0.8-0.8
				c0.2-0.3,0.3-0.7,0.3-1.1s-0.1-0.7-0.3-1.1c-0.2-0.3-0.5-0.6-0.8-0.8c-0.3-0.2-0.7-0.3-1.1-0.3C297,346.9,296.6,347,296.3,347.2z
				"/>
			<path class="st3" d="M304.7,346.5h0.5v5h-0.5l-3.1-4.3v4.3h-0.5v-5h0.5l3.1,4.3V346.5z"/>
			<path class="st3" d="M308.9,347c-0.2-0.1-0.5-0.1-0.7-0.1c-0.3,0-0.6,0.1-0.8,0.2s-0.3,0.3-0.3,0.6c0,0.2,0.1,0.4,0.2,0.5
				c0.1,0.1,0.3,0.2,0.4,0.3c0.2,0.1,0.4,0.2,0.7,0.2c0.3,0.1,0.6,0.2,0.8,0.3c0.2,0.1,0.4,0.2,0.5,0.4s0.2,0.4,0.2,0.7
				c0,0.3-0.1,0.5-0.2,0.7c-0.2,0.2-0.4,0.4-0.6,0.5c-0.3,0.1-0.6,0.2-0.9,0.2c-0.4,0-0.7-0.1-1-0.2s-0.6-0.3-0.9-0.6l0.2-0.4
				c0.2,0.2,0.5,0.4,0.8,0.5c0.3,0.1,0.6,0.2,0.9,0.2c0.4,0,0.7-0.1,0.9-0.2c0.2-0.2,0.3-0.4,0.3-0.6c0-0.2-0.1-0.4-0.2-0.5
				c-0.1-0.1-0.3-0.2-0.4-0.3c-0.2-0.1-0.4-0.2-0.7-0.3c-0.3-0.1-0.6-0.2-0.8-0.3c-0.2-0.1-0.4-0.2-0.5-0.4
				c-0.1-0.2-0.2-0.4-0.2-0.7c0-0.3,0.1-0.5,0.2-0.7s0.3-0.3,0.6-0.4c0.3-0.1,0.6-0.2,0.9-0.2c0.3,0,0.5,0,0.8,0.1
				c0.3,0.1,0.5,0.2,0.7,0.3l-0.2,0.4C309.4,347.2,309.2,347.1,308.9,347z"/>
			<path class="st3" d="M312,350.7c0.3,0.3,0.7,0.4,1.2,0.4c0.5,0,0.9-0.1,1.2-0.4c0.3-0.3,0.4-0.7,0.4-1.2v-3h0.5v3
				c0,0.7-0.2,1.2-0.6,1.5s-0.9,0.6-1.5,0.6c-0.7,0-1.2-0.2-1.5-0.6s-0.6-0.9-0.6-1.5v-3h0.5v3C311.6,350,311.7,350.4,312,350.7z"/>
			<path class="st3" d="M320,351.5l-1.1-1.6c-0.2,0-0.3,0-0.4,0h-1.4v1.6h-0.5v-5h1.9c0.6,0,1.1,0.1,1.5,0.4
				c0.3,0.3,0.5,0.7,0.5,1.2c0,0.4-0.1,0.8-0.3,1c-0.2,0.3-0.5,0.5-0.9,0.6l1.2,1.7H320z M318.6,349.5c0.5,0,0.9-0.1,1.1-0.3
				c0.3-0.2,0.4-0.5,0.4-0.9c0-0.4-0.1-0.7-0.4-0.9c-0.3-0.2-0.6-0.3-1.1-0.3h-1.4v2.5H318.6z"/>
			<path class="st3" d="M325.5,349.1h0.4v1.8c-0.2,0.2-0.5,0.4-0.9,0.5c-0.3,0.1-0.7,0.2-1,0.2c-0.5,0-0.9-0.1-1.3-0.3
				s-0.7-0.5-1-0.9c-0.2-0.4-0.4-0.8-0.4-1.3c0-0.5,0.1-0.9,0.4-1.3c0.2-0.4,0.6-0.7,1-0.9c0.4-0.2,0.8-0.3,1.3-0.3
				c0.3,0,0.7,0.1,1,0.2s0.6,0.3,0.8,0.5l-0.3,0.4c-0.2-0.2-0.4-0.3-0.7-0.4c-0.3-0.1-0.5-0.2-0.8-0.2c-0.4,0-0.7,0.1-1.1,0.3
				c-0.3,0.2-0.6,0.4-0.8,0.8c-0.2,0.3-0.3,0.7-0.3,1.1c0,0.4,0.1,0.7,0.3,1.1s0.5,0.6,0.8,0.8s0.7,0.3,1.1,0.3c0.2,0,0.5,0,0.7-0.1
				s0.5-0.2,0.7-0.3V349.1z"/>
			<path class="st3" d="M327.4,346.5h0.5v5h-0.5V346.5z"/>
			<path class="st3" d="M332.4,347.1c-0.3-0.1-0.5-0.2-0.8-0.2c-0.4,0-0.7,0.1-1.1,0.3c-0.3,0.2-0.6,0.4-0.8,0.8s-0.3,0.7-0.3,1.1
				s0.1,0.7,0.3,1.1s0.4,0.6,0.8,0.8c0.3,0.2,0.7,0.3,1.1,0.3c0.3,0,0.6-0.1,0.8-0.2c0.3-0.1,0.5-0.3,0.7-0.5l0.3,0.3
				c-0.2,0.2-0.5,0.4-0.9,0.5c-0.3,0.1-0.7,0.2-1,0.2c-0.5,0-0.9-0.1-1.3-0.3s-0.7-0.5-0.9-0.9c-0.2-0.4-0.3-0.8-0.3-1.3
				c0-0.5,0.1-0.9,0.4-1.3c0.2-0.4,0.6-0.7,1-0.9s0.8-0.3,1.3-0.3c0.3,0,0.7,0.1,1,0.2c0.3,0.1,0.6,0.3,0.8,0.5l-0.3,0.3
				C332.9,347.3,332.7,347.2,332.4,347.1z"/>
			<path class="st3" d="M338.2,351.5l-0.6-1.3h-2.8l-0.6,1.3h-0.5l2.3-5h0.5l2.3,5H338.2z M335,349.7h2.4l-1.2-2.7L335,349.7z"/>
			<path class="st3" d="M339.6,346.5h0.5v4.6h2.2v0.4h-2.7V346.5z"/>
		</g>
	</g>
	<linearGradient id="SVGID_15_" gradientUnits="userSpaceOnUse" x1="65.5839" y1="429.9558" x2="125.0377" y2="429.9558">
		<stop  offset="3.605769e-04" style="stop-color:#4EC4D3"/>
		<stop  offset="0.3128" style="stop-color:#57B1CE"/>
		<stop  offset="1" style="stop-color:#6482C1"/>
	</linearGradient>
	<circle class="st17" cx="95.3" cy="430" r="29.7"/>
	<g class="st1">
		<linearGradient id="SVGID_16_" gradientUnits="userSpaceOnUse" x1="692.3411" y1="473.8814" x2="754.9886" y2="473.8814">
			<stop  offset="3.605769e-04" style="stop-color:#4EC4D3"/>
			<stop  offset="0.3128" style="stop-color:#57B1CE"/>
			<stop  offset="1" style="stop-color:#6482C1"/>
		</linearGradient>
		<circle class="st18" cx="723.7" cy="473.9" r="31.3"/>
		<g>
			<path class="st3" d="M701,471.5h5.4v0.6h-2.4v6.5h-0.7v-6.5H701V471.5z"/>
			<path class="st3" d="M707.7,471.5h0.7v7.1h-0.7V471.5z"/>
			<path class="st3" d="M715.6,475.1h0.6v2.6c-0.3,0.3-0.8,0.5-1.2,0.7c-0.5,0.2-0.9,0.2-1.4,0.2c-0.7,0-1.3-0.2-1.9-0.5
				c-0.6-0.3-1-0.8-1.4-1.3c-0.3-0.6-0.5-1.2-0.5-1.8c0-0.7,0.2-1.3,0.5-1.8c0.3-0.6,0.8-1,1.4-1.3s1.2-0.5,1.9-0.5
				c0.5,0,1,0.1,1.4,0.3c0.5,0.2,0.9,0.4,1.2,0.7l-0.4,0.5c-0.3-0.3-0.6-0.5-1-0.6c-0.4-0.1-0.8-0.2-1.2-0.2c-0.6,0-1.1,0.1-1.5,0.4
				c-0.5,0.3-0.8,0.6-1.1,1.1s-0.4,1-0.4,1.5c0,0.6,0.1,1.1,0.4,1.5c0.3,0.5,0.6,0.8,1.1,1.1c0.5,0.3,1,0.4,1.5,0.4
				c0.3,0,0.7-0.1,1-0.2s0.6-0.3,0.9-0.5V475.1z"/>
			<path class="st3" d="M718.3,471.5h0.7v3.3h4.5v-3.3h0.7v7.1h-0.7v-3.2H719v3.2h-0.7V471.5z"/>
			<path class="st3" d="M725.4,471.5h5.4v0.6h-2.4v6.5h-0.7v-6.5h-2.4V471.5z"/>
			<path class="st3" d="M732.1,471.5h4.8v0.6h-4.1v2.6h3.6v0.6h-3.6v2.7h4.2v0.6h-4.9V471.5z"/>
			<path class="st3" d="M743.9,471.5h0.7v7.1h-0.7l-4.4-6v6h-0.7v-7.1h0.7l4.4,6V471.5z"/>
		</g>
	</g>
	<g class="st1">
		<linearGradient id="SVGID_17_" gradientUnits="userSpaceOnUse" x1="386.1129" y1="269.4577" x2="432.8266" y2="269.4577">
			<stop  offset="3.605769e-04" style="stop-color:#4EC4D3"/>
			<stop  offset="0.3128" style="stop-color:#57B1CE"/>
			<stop  offset="1" style="stop-color:#6482C1"/>
		</linearGradient>
		<circle class="st19" cx="409.5" cy="269.5" r="23.4"/>
		<g>
			<path class="st3" d="M399.8,268c0.3,0.2,0.5,0.6,0.5,1c0,0.3-0.1,0.6-0.3,0.8c-0.2,0.2-0.4,0.4-0.7,0.4c0.4,0.1,0.7,0.2,0.9,0.4
				c0.2,0.2,0.3,0.5,0.3,0.9c0,0.5-0.2,0.8-0.5,1.1c-0.3,0.3-0.8,0.4-1.4,0.4h-2.3v-5.3h2.2C399,267.7,399.5,267.8,399.8,268z
				 M399.4,269.8c0.2-0.2,0.3-0.4,0.3-0.7c0-0.3-0.1-0.5-0.3-0.7c-0.2-0.2-0.5-0.2-0.9-0.2h-1.7v1.9h1.7
				C398.9,270,399.2,269.9,399.4,269.8z M399.5,272.3c0.3-0.2,0.4-0.4,0.4-0.8c0-0.3-0.1-0.6-0.4-0.7c-0.3-0.2-0.6-0.3-1.1-0.3h-1.7
				v2h1.7C398.9,272.5,399.3,272.4,399.5,272.3z"/>
			<path class="st3" d="M405.4,268c0.4,0.2,0.8,0.6,1,1c0.2,0.4,0.4,0.9,0.4,1.4c0,0.5-0.1,0.9-0.4,1.4c-0.2,0.4-0.6,0.7-1,1
				c-0.4,0.2-0.9,0.4-1.4,0.4c-0.5,0-1-0.1-1.4-0.4c-0.4-0.2-0.8-0.6-1-1c-0.2-0.4-0.4-0.9-0.4-1.4c0-0.5,0.1-0.9,0.4-1.4
				c0.2-0.4,0.6-0.7,1-1c0.4-0.2,0.9-0.4,1.4-0.4C404.5,267.6,405,267.7,405.4,268z M402.9,268.4c-0.3,0.2-0.6,0.5-0.8,0.8
				c-0.2,0.3-0.3,0.7-0.3,1.1c0,0.4,0.1,0.8,0.3,1.1c0.2,0.3,0.5,0.6,0.8,0.8c0.3,0.2,0.7,0.3,1.1,0.3c0.4,0,0.8-0.1,1.1-0.3
				c0.3-0.2,0.6-0.5,0.8-0.8s0.3-0.7,0.3-1.1c0-0.4-0.1-0.8-0.3-1.1c-0.2-0.3-0.5-0.6-0.8-0.8c-0.3-0.2-0.7-0.3-1.1-0.3
				C403.6,268.1,403.2,268.2,402.9,268.4z"/>
			<path class="st3" d="M407.1,267.7h4v0.5h-1.8v4.8h-0.5v-4.8h-1.8V267.7z"/>
			<path class="st3" d="M415.4,268c0.4,0.2,0.8,0.6,1,1c0.2,0.4,0.4,0.9,0.4,1.4c0,0.5-0.1,0.9-0.4,1.4c-0.2,0.4-0.6,0.7-1,1
				c-0.4,0.2-0.9,0.4-1.4,0.4c-0.5,0-1-0.1-1.4-0.4c-0.4-0.2-0.8-0.6-1-1c-0.2-0.4-0.4-0.9-0.4-1.4c0-0.5,0.1-0.9,0.4-1.4
				c0.2-0.4,0.6-0.7,1-1c0.4-0.2,0.9-0.4,1.4-0.4C414.5,267.6,415,267.7,415.4,268z M412.9,268.4c-0.3,0.2-0.6,0.5-0.8,0.8
				c-0.2,0.3-0.3,0.7-0.3,1.1c0,0.4,0.1,0.8,0.3,1.1c0.2,0.3,0.5,0.6,0.8,0.8c0.3,0.2,0.7,0.3,1.1,0.3c0.4,0,0.8-0.1,1.1-0.3
				c0.3-0.2,0.6-0.5,0.8-0.8s0.3-0.7,0.3-1.1c0-0.4-0.1-0.8-0.3-1.1c-0.2-0.3-0.5-0.6-0.8-0.8c-0.3-0.2-0.7-0.3-1.1-0.3
				C413.6,268.1,413.2,268.2,412.9,268.4z"/>
			<path class="st3" d="M417.4,267.7h0.6l1.5,2.1l1.5-2.1h0.6l-1.8,2.6l2,2.8h-0.6l-1.7-2.3l-1.7,2.3h-0.6l2-2.7L417.4,267.7z"/>
		</g>
	</g>
	<g class="st1">
		<linearGradient id="SVGID_18_" gradientUnits="userSpaceOnUse" x1="383.5183" y1="70.8635" x2="472.699" y2="70.8635">
			<stop  offset="3.605769e-04" style="stop-color:#4EC4D3"/>
			<stop  offset="0.3128" style="stop-color:#57B1CE"/>
			<stop  offset="1" style="stop-color:#6482C1"/>
		</linearGradient>
		<circle class="st20" cx="428.1" cy="70.9" r="44.6"/>
		<g>
			<path class="st3" d="M392.6,66.2h0.7v3.3h4.5v-3.3h0.7v7.2h-0.7v-3.3h-4.5v3.3h-0.7V66.2z"/>
			<path class="st3" d="M406.1,66.2l-2.8,4.7v2.6h-0.7v-2.6l-2.8-4.7h0.7l2.4,3.9l2.4-3.9H406.1z"/>
			<path class="st3" d="M412.1,66.7c0.6,0.3,1,0.8,1.3,1.3c0.3,0.6,0.5,1.2,0.5,1.8c0,0.7-0.2,1.3-0.5,1.8c-0.3,0.6-0.8,1-1.3,1.3
				c-0.6,0.3-1.2,0.5-1.9,0.5h-2.9v-7.2h2.9C410.9,66.2,411.5,66.4,412.1,66.7z M411.7,72.4c0.5-0.3,0.8-0.6,1.1-1.1
				c0.3-0.5,0.4-1,0.4-1.5c0-0.6-0.1-1.1-0.4-1.5c-0.3-0.5-0.6-0.8-1.1-1.1c-0.5-0.3-1-0.4-1.5-0.4H408v5.9h2.2
				C410.7,72.8,411.2,72.6,411.7,72.4z"/>
			<path class="st3" d="M420.2,73.4l-1.6-2.4c-0.2,0-0.4,0-0.5,0h-2v2.3h-0.7v-7.2h2.7c0.9,0,1.6,0.2,2.1,0.6c0.5,0.4,0.7,1,0.7,1.8
				c0,0.6-0.1,1.1-0.4,1.5c-0.3,0.4-0.7,0.7-1.2,0.8l1.7,2.5H420.2z M418.2,70.4c0.7,0,1.2-0.2,1.6-0.5s0.6-0.8,0.6-1.4
				c0-0.6-0.2-1-0.6-1.3s-0.9-0.5-1.6-0.5h-2v3.6H418.2z"/>
			<path class="st3" d="M428.3,73.4l-0.9-1.9h-4l-0.8,1.9h-0.8l3.3-7.2h0.7l3.3,7.2H428.3z M423.7,70.9h3.5l-1.7-3.9L423.7,70.9z"/>
			<path class="st3" d="M430.3,66.2h4.5v0.6H431v2.8h3.4v0.6H431v3.2h-0.7V66.2z"/>
			<path class="st3" d="M441.2,73.4l-0.9-1.9h-4l-0.8,1.9h-0.8l3.3-7.2h0.7l3.3,7.2H441.2z M436.6,70.9h3.5l-1.7-3.9L436.6,70.9z"/>
			<path class="st3" d="M447.3,67c-0.4-0.2-0.8-0.2-1.2-0.2c-0.6,0-1.1,0.1-1.5,0.4c-0.5,0.3-0.8,0.6-1.1,1.1
				c-0.3,0.5-0.4,1-0.4,1.5s0.1,1.1,0.4,1.5c0.3,0.5,0.6,0.8,1.1,1.1c0.5,0.3,1,0.4,1.5,0.4c0.4,0,0.8-0.1,1.2-0.2s0.7-0.4,1-0.6
				l0.4,0.5c-0.4,0.3-0.8,0.6-1.2,0.8c-0.5,0.2-0.9,0.3-1.4,0.3c-0.7,0-1.3-0.2-1.9-0.5s-1-0.8-1.4-1.3c-0.3-0.6-0.5-1.2-0.5-1.9
				c0-0.7,0.2-1.3,0.5-1.8c0.3-0.6,0.8-1,1.4-1.3c0.6-0.3,1.2-0.5,1.9-0.5c0.5,0,1,0.1,1.4,0.3s0.9,0.4,1.2,0.8l-0.4,0.5
				C448,67.4,447.7,67.2,447.3,67z"/>
			<path class="st3" d="M450.3,66.2h0.7v7.2h-0.7V66.2z"/>
			<path class="st3" d="M458.7,73.4l-0.9-1.9h-4l-0.8,1.9h-0.8l3.3-7.2h0.7l3.3,7.2H458.7z M454.1,70.9h3.5l-1.7-3.9L454.1,70.9z"/>
			<path class="st3" d="M460.6,66.2h0.7v6.6h3.2v0.6h-3.9V66.2z"/>
			<path class="st3" d="M419.8,79.4c-0.4-0.2-0.8-0.2-1.2-0.2c-0.6,0-1.1,0.1-1.5,0.4c-0.5,0.3-0.8,0.6-1.1,1.1
				c-0.3,0.5-0.4,1-0.4,1.5s0.1,1.1,0.4,1.5c0.3,0.5,0.6,0.8,1.1,1.1c0.5,0.3,1,0.4,1.5,0.4c0.4,0,0.8-0.1,1.2-0.2s0.7-0.4,1-0.6
				l0.4,0.5c-0.4,0.3-0.8,0.6-1.2,0.8c-0.5,0.2-0.9,0.3-1.4,0.3c-0.7,0-1.3-0.2-1.9-0.5s-1-0.8-1.4-1.3c-0.3-0.6-0.5-1.2-0.5-1.9
				c0-0.7,0.2-1.3,0.5-1.8c0.3-0.6,0.8-1,1.4-1.3c0.6-0.3,1.2-0.5,1.9-0.5c0.5,0,1,0.1,1.4,0.3s0.9,0.4,1.2,0.8l-0.4,0.5
				C420.5,79.8,420.2,79.6,419.8,79.4z"/>
			<path class="st3" d="M427.6,79c0.6,0.3,1,0.8,1.4,1.3c0.3,0.6,0.5,1.2,0.5,1.8c0,0.7-0.2,1.3-0.5,1.9c-0.3,0.6-0.8,1-1.4,1.3
				c-0.6,0.3-1.2,0.5-1.9,0.5s-1.3-0.2-1.9-0.5s-1-0.8-1.4-1.3c-0.3-0.6-0.5-1.2-0.5-1.9c0-0.7,0.2-1.3,0.5-1.8
				c0.3-0.6,0.8-1,1.4-1.3c0.6-0.3,1.2-0.5,1.9-0.5S427,78.7,427.6,79z M424.1,79.6c-0.5,0.3-0.8,0.6-1.1,1.1
				c-0.3,0.5-0.4,1-0.4,1.5s0.1,1.1,0.4,1.5c0.3,0.5,0.6,0.8,1.1,1.1c0.5,0.3,1,0.4,1.5,0.4c0.5,0,1-0.1,1.5-0.4
				c0.5-0.3,0.8-0.6,1.1-1.1c0.3-0.5,0.4-1,0.4-1.5s-0.1-1.1-0.4-1.5c-0.3-0.5-0.6-0.8-1.1-1.1c-0.5-0.3-1-0.4-1.5-0.4
				C425.1,79.2,424.6,79.3,424.1,79.6z"/>
			<path class="st3" d="M434,79.3c-0.4-0.1-0.7-0.1-1-0.1c-0.5,0-0.9,0.1-1.2,0.3s-0.4,0.5-0.4,0.8c0,0.3,0.1,0.5,0.2,0.7
				s0.4,0.3,0.6,0.4s0.6,0.2,1,0.4c0.5,0.1,0.9,0.3,1.2,0.4c0.3,0.1,0.6,0.3,0.8,0.6c0.2,0.3,0.3,0.6,0.3,1.1c0,0.4-0.1,0.7-0.3,1
				c-0.2,0.3-0.5,0.5-0.9,0.7c-0.4,0.2-0.8,0.2-1.4,0.2c-0.5,0-1-0.1-1.5-0.3s-0.9-0.5-1.2-0.8l0.3-0.6c0.3,0.3,0.7,0.6,1.1,0.7
				s0.8,0.3,1.3,0.3c0.6,0,1-0.1,1.3-0.3c0.3-0.2,0.5-0.5,0.5-0.9c0-0.3-0.1-0.6-0.2-0.7s-0.4-0.3-0.6-0.4c-0.2-0.1-0.6-0.2-1-0.4
				c-0.5-0.2-0.9-0.3-1.2-0.4c-0.3-0.1-0.5-0.3-0.8-0.6c-0.2-0.3-0.3-0.6-0.3-1c0-0.4,0.1-0.7,0.3-1c0.2-0.3,0.5-0.5,0.9-0.6
				c0.4-0.1,0.8-0.2,1.3-0.2c0.4,0,0.8,0.1,1.2,0.2c0.4,0.1,0.7,0.3,1,0.5l-0.3,0.6C434.7,79.6,434.4,79.4,434,79.3z"/>
			<path class="st3" d="M436.3,78.6h5.5v0.7h-2.4v6.6h-0.7v-6.6h-2.4V78.6z"/>
		</g>
	</g>
	<g class="st1">
		<linearGradient id="SVGID_19_" gradientUnits="userSpaceOnUse" x1="580.3756" y1="214.1254" x2="648.3228" y2="214.1254">
			<stop  offset="3.605769e-04" style="stop-color:#4EC4D3"/>
			<stop  offset="0.3128" style="stop-color:#57B1CE"/>
			<stop  offset="1" style="stop-color:#6482C1"/>
		</linearGradient>
		<circle class="st21" cx="614.3" cy="214.1" r="34"/>
		<g>
			<path class="st3" d="M596.3,205.2h4.9v0.7h-4.1v3h3.6v0.7h-3.6v3.4h-0.8V205.2z"/>
			<path class="st3" d="M608,213l-0.9-2.1h-4.3l-0.9,2.1h-0.8l3.5-7.7h0.8l3.5,7.7H608z M603.1,210.2h3.7l-1.9-4.2L603.1,210.2z"/>
			<path class="st3" d="M614.5,206.1c-0.4-0.2-0.8-0.3-1.3-0.3c-0.6,0-1.1,0.1-1.6,0.4c-0.5,0.3-0.9,0.7-1.2,1.2
				c-0.3,0.5-0.4,1-0.4,1.6c0,0.6,0.1,1.1,0.4,1.6c0.3,0.5,0.7,0.9,1.2,1.2s1,0.4,1.6,0.4c0.4,0,0.8-0.1,1.3-0.2
				c0.4-0.2,0.8-0.4,1.1-0.7l0.5,0.5c-0.4,0.4-0.8,0.6-1.3,0.8c-0.5,0.2-1,0.3-1.5,0.3c-0.7,0-1.4-0.2-2-0.5
				c-0.6-0.4-1.1-0.8-1.5-1.4c-0.4-0.6-0.5-1.3-0.5-2c0-0.7,0.2-1.4,0.5-2c0.4-0.6,0.9-1.1,1.5-1.4s1.3-0.5,2-0.5
				c0.5,0,1,0.1,1.5,0.3c0.5,0.2,0.9,0.5,1.3,0.8l-0.5,0.5C615.3,206.5,614.9,206.3,614.5,206.1z"/>
			<path class="st3" d="M617.7,205.2h0.8v7.7h-0.8V205.2z"/>
			<path class="st3" d="M626.7,213l-0.9-2.1h-4.3l-0.9,2.1h-0.8l3.5-7.7h0.8l3.5,7.7H626.7z M621.8,210.2h3.7l-1.9-4.2L621.8,210.2z
				"/>
			<path class="st3" d="M628.8,205.2h0.8v7.1h3.4v0.7h-4.2V205.2z"/>
			<path class="st3" d="M601,219.2c0.5,0.4,0.8,1.1,0.8,1.9c0,0.8-0.3,1.5-0.8,2c-0.5,0.5-1.3,0.7-2.2,0.7h-2.1v2.5h-0.8v-7.7h2.9
				C599.8,218.5,600.5,218.7,601,219.2z M600.5,222.6c0.4-0.3,0.6-0.8,0.6-1.5c0-0.6-0.2-1.1-0.6-1.4s-1-0.5-1.7-0.5h-2.1v3.9h2.1
				C599.5,223.1,600.1,222.9,600.5,222.6z"/>
			<path class="st3" d="M603.3,218.5h0.8v7.1h3.4v0.7h-4.2V218.5z"/>
			<path class="st3" d="M614.9,226.3l-0.9-2.1h-4.3l-0.9,2.1H608l3.5-7.7h0.8l3.5,7.7H614.9z M610,223.5h3.7l-1.9-4.2L610,223.5z"/>
			<path class="st3" d="M622.6,218.5h0.8v7.7h-0.8l-4.8-6.6v6.6H617v-7.7h0.8l4.8,6.6V218.5z"/>
			<path class="st3" d="M631.1,219c0.6,0.4,1.1,0.8,1.5,1.4c0.4,0.6,0.5,1.3,0.5,2c0,0.7-0.2,1.4-0.5,2c-0.4,0.6-0.9,1.1-1.5,1.4
				c-0.6,0.4-1.3,0.5-2,0.5s-1.4-0.2-2-0.5c-0.6-0.4-1.1-0.8-1.5-1.4c-0.4-0.6-0.5-1.3-0.5-2c0-0.7,0.2-1.4,0.5-2
				c0.4-0.6,0.9-1.1,1.5-1.4s1.3-0.5,2-0.5S630.5,218.6,631.1,219z M627.5,219.6c-0.5,0.3-0.9,0.7-1.2,1.2c-0.3,0.5-0.4,1-0.4,1.6
				c0,0.6,0.1,1.1,0.4,1.6c0.3,0.5,0.7,0.9,1.2,1.2c0.5,0.3,1,0.4,1.6,0.4c0.6,0,1.1-0.1,1.6-0.4c0.5-0.3,0.9-0.7,1.2-1.2
				c0.3-0.5,0.4-1,0.4-1.6c0-0.6-0.1-1.1-0.4-1.6c-0.3-0.5-0.7-0.9-1.2-1.2c-0.5-0.3-1-0.4-1.6-0.4
				C628.5,219.1,628,219.3,627.5,219.6z"/>
		</g>
	</g>
	<g class="st1">
		<linearGradient id="SVGID_20_" gradientUnits="userSpaceOnUse" x1="672.2181" y1="364.1144" x2="714.6851" y2="364.1144">
			<stop  offset="3.605769e-04" style="stop-color:#4EC4D3"/>
			<stop  offset="0.3128" style="stop-color:#57B1CE"/>
			<stop  offset="1" style="stop-color:#6482C1"/>
		</linearGradient>
		<circle class="st22" cx="693.5" cy="364.1" r="21.2"/>
		<g>
			<path class="st3" d="M687.4,358.8c-0.2-0.1-0.5-0.1-0.7-0.1c-0.3,0-0.6,0.1-0.8,0.2c-0.2,0.1-0.3,0.3-0.3,0.5
				c0,0.2,0.1,0.4,0.2,0.5c0.1,0.1,0.2,0.2,0.4,0.3s0.4,0.2,0.7,0.2c0.3,0.1,0.6,0.2,0.8,0.3c0.2,0.1,0.4,0.2,0.5,0.4
				s0.2,0.4,0.2,0.7c0,0.3-0.1,0.5-0.2,0.7s-0.3,0.4-0.6,0.5s-0.6,0.2-0.9,0.2c-0.3,0-0.7-0.1-1-0.2c-0.3-0.1-0.6-0.3-0.8-0.5
				l0.2-0.4c0.2,0.2,0.5,0.4,0.8,0.5c0.3,0.1,0.6,0.2,0.8,0.2c0.4,0,0.7-0.1,0.9-0.2c0.2-0.1,0.3-0.4,0.3-0.6c0-0.2-0.1-0.4-0.2-0.5
				c-0.1-0.1-0.2-0.2-0.4-0.3c-0.2-0.1-0.4-0.1-0.7-0.2c-0.3-0.1-0.6-0.2-0.8-0.3s-0.4-0.2-0.5-0.4s-0.2-0.4-0.2-0.7
				c0-0.2,0.1-0.5,0.2-0.6s0.3-0.3,0.6-0.4s0.5-0.1,0.9-0.1c0.3,0,0.5,0,0.8,0.1c0.3,0.1,0.5,0.2,0.7,0.3l-0.2,0.4
				C687.8,359,687.6,358.9,687.4,358.8z"/>
			<path class="st3" d="M693.4,363.1h-0.6l-1.8-2.4l-1,1.1v1.3h-0.5v-4.8h0.5v2.9l2.7-2.9h0.6l-1.9,2.1L693.4,363.1z"/>
			<path class="st3" d="M694.3,358.3h0.5v4.8h-0.5V358.3z"/>
			<path class="st3" d="M699.8,358.3h0.5v4.8h-0.5l-3-4.1v4.1h-0.5v-4.8h0.5l3,4.1V358.3z"/>
			<path class="st3" d="M688.2,367c0.3,0.3,0.5,0.7,0.5,1.2c0,0.5-0.2,0.9-0.5,1.2c-0.3,0.3-0.8,0.4-1.4,0.4h-1.3v1.6H685v-4.8h1.8
				C687.4,366.6,687.8,366.7,688.2,367z M687.8,369.1c0.3-0.2,0.4-0.5,0.4-0.9c0-0.4-0.1-0.7-0.4-0.9c-0.2-0.2-0.6-0.3-1.1-0.3h-1.3
				v2.4h1.3C687.2,369.4,687.6,369.3,687.8,369.1z"/>
			<path class="st3" d="M689.6,366.6h3.2v0.4h-2.8v1.7h2.5v0.4h-2.5v1.8h2.9v0.4h-3.3V366.6z"/>
			<path class="st3" d="M694.1,366.6h3.2v0.4h-2.8v1.7h2.5v0.4h-2.5v1.8h2.9v0.4h-3.3V366.6z"/>
			<path class="st3" d="M698.6,366.6h0.5v4.4h2.1v0.4h-2.6V366.6z"/>
		</g>
	</g>
	<g class="st1">
		<linearGradient id="SVGID_21_" gradientUnits="userSpaceOnUse" x1="219.3273" y1="467.8242" x2="295.0642" y2="467.8242">
			<stop  offset="3.605769e-04" style="stop-color:#4EC4D3"/>
			<stop  offset="0.3128" style="stop-color:#57B1CE"/>
			<stop  offset="1" style="stop-color:#6482C1"/>
		</linearGradient>
		<circle class="st23" cx="257.2" cy="467.8" r="37.9"/>
		<g>
			<path class="st3" d="M238.5,458.6h0.9v7.9h3.8v0.8h-4.7V458.6z"/>
			<path class="st3" d="M251.4,467.3l-1-2.3h-4.8l-1,2.3h-0.9l3.9-8.6h0.9l3.9,8.6H251.4z M245.9,464.2h4.1l-2.1-4.7L245.9,464.2z"
				/>
			<path class="st3" d="M257.3,459.5c-0.4-0.1-0.8-0.2-1.2-0.2c-0.6,0-1.1,0.1-1.4,0.4s-0.5,0.6-0.5,1c0,0.4,0.1,0.6,0.3,0.9
				c0.2,0.2,0.4,0.4,0.7,0.5c0.3,0.1,0.7,0.3,1.2,0.4c0.6,0.2,1.1,0.3,1.4,0.5c0.4,0.2,0.7,0.4,0.9,0.7c0.3,0.3,0.4,0.7,0.4,1.3
				c0,0.5-0.1,0.9-0.4,1.2s-0.6,0.6-1.1,0.8c-0.5,0.2-1,0.3-1.6,0.3c-0.6,0-1.2-0.1-1.8-0.4c-0.6-0.2-1.1-0.6-1.5-1l0.4-0.7
				c0.4,0.4,0.8,0.7,1.3,0.9c0.5,0.2,1,0.3,1.5,0.3c0.7,0,1.2-0.1,1.6-0.4s0.6-0.6,0.6-1.1c0-0.4-0.1-0.7-0.3-0.9
				c-0.2-0.2-0.4-0.4-0.7-0.5c-0.3-0.1-0.7-0.3-1.2-0.4c-0.6-0.2-1.1-0.4-1.4-0.5c-0.4-0.2-0.7-0.4-0.9-0.7
				c-0.2-0.3-0.4-0.7-0.4-1.2c0-0.4,0.1-0.8,0.4-1.1c0.2-0.3,0.6-0.6,1-0.8s1-0.3,1.5-0.3c0.5,0,0.9,0.1,1.4,0.2s0.9,0.3,1.3,0.6
				l-0.4,0.7C258.1,459.8,257.7,459.7,257.3,459.5z"/>
			<path class="st3" d="M261.2,458.6h5.8v0.8H262v3.1h4.4v0.8H262v3.2h5.1v0.8h-5.9V458.6z"/>
			<path class="st3" d="M274.9,467.3l-1.9-2.8c-0.3,0-0.5,0-0.6,0H270v2.8h-0.9v-8.6h3.2c1.1,0,1.9,0.2,2.5,0.7s0.9,1.2,0.9,2.1
				c0,0.7-0.2,1.3-0.5,1.8c-0.3,0.5-0.8,0.8-1.5,1l2.1,3H274.9z M272.4,463.7c0.8,0,1.5-0.2,1.9-0.6s0.7-0.9,0.7-1.6
				c0-0.7-0.2-1.2-0.7-1.6s-1.1-0.5-1.9-0.5H270v4.3H272.4z"/>
			<path class="st3" d="M232.1,474.3c-0.4-0.1-0.8-0.2-1.2-0.2c-0.6,0-1.1,0.1-1.4,0.4s-0.5,0.6-0.5,1c0,0.4,0.1,0.6,0.3,0.9
				c0.2,0.2,0.4,0.4,0.7,0.5c0.3,0.1,0.7,0.3,1.2,0.4c0.6,0.2,1.1,0.3,1.4,0.5c0.4,0.2,0.7,0.4,0.9,0.7c0.3,0.3,0.4,0.7,0.4,1.3
				c0,0.5-0.1,0.9-0.4,1.2s-0.6,0.6-1.1,0.8c-0.5,0.2-1,0.3-1.6,0.3c-0.6,0-1.2-0.1-1.8-0.4c-0.6-0.2-1.1-0.6-1.5-1l0.4-0.7
				c0.4,0.4,0.8,0.7,1.3,0.9c0.5,0.2,1,0.3,1.5,0.3c0.7,0,1.2-0.1,1.6-0.4s0.6-0.6,0.6-1.1c0-0.4-0.1-0.7-0.3-0.9
				c-0.2-0.2-0.4-0.4-0.7-0.5c-0.3-0.1-0.7-0.3-1.2-0.4c-0.6-0.2-1.1-0.4-1.4-0.5c-0.4-0.2-0.7-0.4-0.9-0.7
				c-0.2-0.3-0.4-0.7-0.4-1.2c0-0.4,0.1-0.8,0.4-1.1c0.2-0.3,0.6-0.6,1-0.8s1-0.3,1.5-0.3c0.5,0,0.9,0.1,1.4,0.2s0.9,0.3,1.3,0.6
				l-0.4,0.7C232.9,474.6,232.5,474.5,232.1,474.3z"/>
			<path class="st3" d="M237.3,480.6c0.5,0.5,1.1,0.7,2,0.7c0.9,0,1.5-0.2,2-0.7c0.5-0.5,0.7-1.2,0.7-2.1v-5.1h0.9v5.1
				c0,1.1-0.3,2-0.9,2.6s-1.5,1-2.6,1c-1.1,0-2-0.3-2.6-1c-0.6-0.6-1-1.5-1-2.6v-5.1h0.9v5.1C236.6,479.5,236.9,480.1,237.3,480.6z"
				/>
			<path class="st3" d="M251.1,482.1l-1.9-2.8c-0.3,0-0.5,0-0.6,0h-2.4v2.8h-0.9v-8.6h3.2c1.1,0,1.9,0.2,2.5,0.7s0.9,1.2,0.9,2.1
				c0,0.7-0.2,1.3-0.5,1.8c-0.3,0.5-0.8,0.8-1.5,1l2.1,3H251.1z M248.7,478.5c0.8,0,1.5-0.2,1.9-0.6s0.7-0.9,0.7-1.6
				c0-0.7-0.2-1.2-0.7-1.6s-1.1-0.5-1.9-0.5h-2.4v4.3H248.7z"/>
			<path class="st3" d="M260.4,477.9h0.8v3.2c-0.4,0.4-0.9,0.6-1.5,0.8c-0.6,0.2-1.1,0.3-1.7,0.3c-0.8,0-1.6-0.2-2.3-0.6
				c-0.7-0.4-1.2-0.9-1.6-1.6s-0.6-1.4-0.6-2.2s0.2-1.5,0.6-2.2c0.4-0.7,1-1.2,1.6-1.6s1.5-0.6,2.3-0.6c0.6,0,1.1,0.1,1.7,0.3
				c0.5,0.2,1,0.5,1.5,0.9l-0.5,0.6c-0.4-0.3-0.8-0.6-1.2-0.8c-0.5-0.2-0.9-0.3-1.4-0.3c-0.7,0-1.3,0.2-1.8,0.5s-1,0.8-1.3,1.3
				c-0.3,0.6-0.5,1.2-0.5,1.8c0,0.7,0.2,1.3,0.5,1.8c0.3,0.6,0.8,1,1.3,1.3c0.6,0.3,1.2,0.5,1.8,0.5c0.4,0,0.8-0.1,1.2-0.2
				s0.8-0.3,1.1-0.6V477.9z"/>
			<path class="st3" d="M263.7,473.4h5.8v0.8h-4.9v3.1h4.4v0.8h-4.4v3.2h5.1v0.8h-5.9V473.4z"/>
			<path class="st3" d="M277.4,482.1l-1.9-2.8c-0.3,0-0.5,0-0.6,0h-2.4v2.8h-0.9v-8.6h3.2c1.1,0,1.9,0.2,2.5,0.7s0.9,1.2,0.9,2.1
				c0,0.7-0.2,1.3-0.5,1.8c-0.3,0.5-0.8,0.8-1.5,1l2.1,3H277.4z M274.9,478.5c0.8,0,1.5-0.2,1.9-0.6s0.7-0.9,0.7-1.6
				c0-0.7-0.2-1.2-0.7-1.6s-1.1-0.5-1.9-0.5h-2.4v4.3H274.9z"/>
			<path class="st3" d="M286.8,473.4l-3.3,5.6v3.1h-0.9V479l-3.4-5.6h0.9l2.9,4.6l2.9-4.6H286.8z"/>
		</g>
	</g>
	<g class="st1">
		<linearGradient id="SVGID_22_" gradientUnits="userSpaceOnUse" x1="219.4446" y1="248.7557" x2="294.9469" y2="248.7557">
			<stop  offset="3.605769e-04" style="stop-color:#4EC4D3"/>
			<stop  offset="0.3128" style="stop-color:#57B1CE"/>
			<stop  offset="1" style="stop-color:#6482C1"/>
		</linearGradient>
		<circle class="st24" cx="257.2" cy="248.8" r="37.8"/>
		<g>
			<path class="st3" d="M232.9,237.4h6.5v0.8h-2.8v7.8h-0.8v-7.8h-2.8V237.4z"/>
			<path class="st3" d="M246.5,246l-1-2.3h-4.8l-1,2.3h-0.9l3.9-8.6h0.9l3.9,8.6H246.5z M241.1,242.9h4.1l-2.1-4.7L241.1,242.9z"/>
			<path class="st3" d="M246.8,237.4h6.5v0.8h-2.8v7.8h-0.8v-7.8h-2.8V237.4z"/>
			<path class="st3" d="M253.6,237.4h6.5v0.8h-2.8v7.8h-0.8v-7.8h-2.8V237.4z"/>
			<path class="st3" d="M267,237.9c0.7,0.4,1.2,0.9,1.6,1.6c0.4,0.7,0.6,1.4,0.6,2.2c0,0.8-0.2,1.5-0.6,2.2
				c-0.4,0.7-0.9,1.2-1.6,1.6c-0.7,0.4-1.4,0.6-2.3,0.6s-1.6-0.2-2.3-0.6c-0.7-0.4-1.2-0.9-1.6-1.6c-0.4-0.7-0.6-1.4-0.6-2.2
				c0-0.8,0.2-1.5,0.6-2.2c0.4-0.7,0.9-1.2,1.6-1.6c0.7-0.4,1.4-0.6,2.3-0.6S266.3,237.5,267,237.9z M262.9,238.5
				c-0.6,0.3-1,0.8-1.3,1.3c-0.3,0.5-0.5,1.2-0.5,1.8s0.2,1.3,0.5,1.8c0.3,0.6,0.8,1,1.3,1.3c0.6,0.3,1.2,0.5,1.8,0.5
				c0.6,0,1.2-0.2,1.8-0.5c0.6-0.3,1-0.8,1.3-1.3c0.3-0.6,0.5-1.2,0.5-1.8s-0.2-1.3-0.5-1.8c-0.3-0.5-0.8-1-1.3-1.3
				c-0.6-0.3-1.2-0.5-1.8-0.5C264.1,238.1,263.5,238.2,262.9,238.5z"/>
			<path class="st3" d="M276.9,237.9c0.7,0.4,1.2,0.9,1.6,1.6c0.4,0.7,0.6,1.4,0.6,2.2c0,0.8-0.2,1.5-0.6,2.2
				c-0.4,0.7-0.9,1.2-1.6,1.6c-0.7,0.4-1.4,0.6-2.3,0.6s-1.6-0.2-2.3-0.6c-0.7-0.4-1.2-0.9-1.6-1.6c-0.4-0.7-0.6-1.4-0.6-2.2
				c0-0.8,0.2-1.5,0.6-2.2c0.4-0.7,0.9-1.2,1.6-1.6c0.7-0.4,1.4-0.6,2.3-0.6S276.2,237.5,276.9,237.9z M272.8,238.5
				c-0.6,0.3-1,0.8-1.3,1.3c-0.3,0.5-0.5,1.2-0.5,1.8s0.2,1.3,0.5,1.8c0.3,0.6,0.8,1,1.3,1.3c0.6,0.3,1.2,0.5,1.8,0.5
				c0.6,0,1.2-0.2,1.8-0.5c0.6-0.3,1-0.8,1.3-1.3c0.3-0.6,0.5-1.2,0.5-1.8s-0.2-1.3-0.5-1.8c-0.3-0.5-0.8-1-1.3-1.3
				c-0.6-0.3-1.2-0.5-1.8-0.5C274,238.1,273.3,238.2,272.8,238.5z"/>
			<path class="st3" d="M232.7,260.7l-1.9-2.8c-0.3,0-0.5,0-0.6,0h-2.4v2.8h-0.8v-8.6h3.2c1.1,0,1.9,0.2,2.5,0.7
				c0.6,0.5,0.9,1.2,0.9,2.1c0,0.7-0.2,1.3-0.5,1.8c-0.3,0.5-0.8,0.8-1.5,1l2.1,3H232.7z M230.3,257.2c0.8,0,1.5-0.2,1.9-0.6
				c0.4-0.4,0.7-0.9,0.7-1.6c0-0.7-0.2-1.2-0.7-1.6s-1.1-0.5-1.9-0.5h-2.4v4.3H230.3z"/>
			<path class="st3" d="M235.9,252.1h5.8v0.8h-4.9v3.1h4.4v0.8h-4.4v3.2h5.1v0.8h-5.9V252.1z"/>
			<path class="st3" d="M243.9,252.1h1.1l3.4,6.5l3.3-6.5h1.1v8.6H252l0-7.4l-3.4,6.5h-0.5l-3.4-6.5v7.4h-0.8V252.1z"/>
			<path class="st3" d="M261.4,252.7c0.7,0.4,1.2,0.9,1.6,1.6c0.4,0.7,0.6,1.4,0.6,2.2c0,0.8-0.2,1.5-0.6,2.2
				c-0.4,0.7-0.9,1.2-1.6,1.6c-0.7,0.4-1.4,0.6-2.3,0.6s-1.6-0.2-2.3-0.6c-0.7-0.4-1.2-0.9-1.6-1.6c-0.4-0.7-0.6-1.4-0.6-2.2
				c0-0.8,0.2-1.5,0.6-2.2c0.4-0.7,0.9-1.2,1.6-1.6c0.7-0.4,1.4-0.6,2.3-0.6S260.7,252.3,261.4,252.7z M257.3,253.3
				c-0.6,0.3-1,0.8-1.3,1.3c-0.3,0.5-0.5,1.2-0.5,1.8c0,0.7,0.2,1.3,0.5,1.8c0.3,0.6,0.8,1,1.3,1.3c0.6,0.3,1.2,0.5,1.8,0.5
				c0.6,0,1.2-0.2,1.8-0.5c0.6-0.3,1-0.8,1.3-1.3c0.3-0.6,0.5-1.2,0.5-1.8c0-0.7-0.2-1.3-0.5-1.8c-0.3-0.5-0.8-1-1.3-1.3
				c-0.6-0.3-1.2-0.5-1.8-0.5C258.5,252.8,257.9,253,257.3,253.3z"/>
			<path class="st3" d="M264.1,252.1h0.9l3.1,7.7l3.1-7.7h0.9l-3.5,8.6h-0.9L264.1,252.1z"/>
			<path class="st3" d="M279.3,260.7l-1-2.3h-4.8l-1,2.3h-0.9l3.9-8.6h0.9l3.9,8.6H279.3z M273.9,257.7h4.1l-2.1-4.7L273.9,257.7z"
				/>
			<path class="st3" d="M281.7,252.1h0.8v7.8h3.8v0.8h-4.6V252.1z"/>
		</g>
	</g>
	<g class="st1">
		<linearGradient id="SVGID_23_" gradientUnits="userSpaceOnUse" x1="913.5513" y1="305.1649" x2="964.8979" y2="305.1649">
			<stop  offset="3.605769e-04" style="stop-color:#4EC4D3"/>
			<stop  offset="0.3128" style="stop-color:#57B1CE"/>
			<stop  offset="1" style="stop-color:#6482C1"/>
		</linearGradient>
		<circle class="st25" cx="939.2" cy="305.2" r="25.7"/>
		<g>
			<path class="st3" d="M928.1,304.6h0.5l-1.5,4.4h-0.5l-1.2-3.9l-1.3,3.9h-0.4l-1.5-4.4h0.5l1.3,3.9l1.2-3.9h0.4l1.3,3.9
				L928.1,304.6z"/>
			<path class="st3" d="M932.2,309.1l-1-1.4c-0.1,0-0.2,0-0.3,0h-1.2v1.4h-0.4v-4.4h1.6c0.5,0,1,0.1,1.3,0.4
				c0.3,0.3,0.5,0.6,0.5,1.1c0,0.4-0.1,0.7-0.3,0.9c-0.2,0.2-0.4,0.4-0.8,0.5l1.1,1.5H932.2z M930.9,307.2c0.4,0,0.7-0.1,1-0.3
				c0.2-0.2,0.3-0.5,0.3-0.8c0-0.4-0.1-0.6-0.3-0.8c-0.2-0.2-0.5-0.3-1-0.3h-1.2v2.2H930.9z"/>
			<path class="st3" d="M933.8,304.7h0.4v4.4h-0.4V304.7z"/>
			<path class="st3" d="M938.8,304.7h0.4v4.4h-0.5l-2.7-3.7v3.7h-0.4v-4.4h0.5l2.7,3.7V304.7z"/>
			<path class="st3" d="M944.2,309.1h-0.5l-1.7-2.1l-0.9,1v1.2h-0.4v-4.4h0.4v2.7l2.4-2.7h0.5l-1.8,1.9L944.2,309.1z"/>
			<path class="st3" d="M945,304.7h0.4v4h1.9v0.4H945V304.7z"/>
			<path class="st3" d="M948.3,304.7h2.9v0.4h-2.5v1.6h2.2v0.4h-2.2v1.7h2.6v0.4h-3V304.7z"/>
			<path class="st3" d="M954.2,305.1c-0.2-0.1-0.4-0.1-0.6-0.1c-0.3,0-0.5,0.1-0.7,0.2c-0.2,0.1-0.3,0.3-0.3,0.5
				c0,0.2,0,0.3,0.2,0.4c0.1,0.1,0.2,0.2,0.4,0.3c0.1,0.1,0.3,0.1,0.6,0.2c0.3,0.1,0.5,0.2,0.7,0.3s0.3,0.2,0.5,0.4
				c0.1,0.2,0.2,0.4,0.2,0.6c0,0.2-0.1,0.4-0.2,0.6c-0.1,0.2-0.3,0.3-0.6,0.4s-0.5,0.1-0.8,0.1c-0.3,0-0.6-0.1-0.9-0.2
				c-0.3-0.1-0.5-0.3-0.8-0.5l0.2-0.4c0.2,0.2,0.4,0.3,0.7,0.5c0.3,0.1,0.5,0.2,0.8,0.2c0.3,0,0.6-0.1,0.8-0.2
				c0.2-0.1,0.3-0.3,0.3-0.6c0-0.2-0.1-0.3-0.2-0.5c-0.1-0.1-0.2-0.2-0.4-0.3c-0.1-0.1-0.4-0.1-0.6-0.2c-0.3-0.1-0.5-0.2-0.7-0.3
				c-0.2-0.1-0.3-0.2-0.5-0.4c-0.1-0.2-0.2-0.4-0.2-0.6c0-0.2,0.1-0.4,0.2-0.6s0.3-0.3,0.5-0.4c0.2-0.1,0.5-0.1,0.8-0.1
				c0.2,0,0.5,0,0.7,0.1c0.2,0.1,0.5,0.2,0.6,0.3l-0.2,0.4C954.6,305.3,954.4,305.2,954.2,305.1z"/>
		</g>
	</g>
	<g class="st1">
		<linearGradient id="SVGID_24_" gradientUnits="userSpaceOnUse" x1="601.6328" y1="83.1382" x2="652.5932" y2="83.1382">
			<stop  offset="3.605769e-04" style="stop-color:#4EC4D3"/>
			<stop  offset="0.3128" style="stop-color:#57B1CE"/>
			<stop  offset="1" style="stop-color:#6482C1"/>
		</linearGradient>
		<circle class="st26" cx="627.1" cy="83.1" r="25.5"/>
		<g>
			<path class="st3" d="M618.9,79.3h0.9V88h-0.9V79.3z"/>
			<path class="st3" d="M628.3,80.1c0.6,0.5,0.9,1.2,0.9,2.1c0,1-0.3,1.7-0.9,2.2s-1.4,0.8-2.5,0.8h-2.4V88h-0.9v-8.7h3.2
				C626.8,79.3,627.7,79.6,628.3,80.1z M627.6,83.9c0.5-0.4,0.7-0.9,0.7-1.6c0-0.7-0.2-1.2-0.7-1.6c-0.4-0.4-1.1-0.6-1.9-0.6h-2.3
				v4.4h2.3C626.5,84.4,627.2,84.3,627.6,83.9z"/>
			<path class="st3" d="M630.9,79.3h0.9v8h3.9V88h-4.7V79.3z"/>
		</g>
	</g>
	<g class="st1">
		<path class="st3" d="M71.6,427.7h5.1v0.6h-2.2v6.2h-0.7v-6.2h-2.2V427.7z"/>
		<path class="st3" d="M78,427.7h0.7v3.1h4.2v-3.1h0.7v6.8h-0.7v-3.1h-4.2v3.1H78V427.7z"/>
		<path class="st3" d="M85.7,427.7h4.5v0.6h-3.9v2.4h3.5v0.6h-3.5v2.5h4v0.6h-4.7V427.7z"/>
		<path class="st3" d="M96.4,434.5l-1.5-2.2c-0.2,0-0.4,0-0.5,0h-1.9v2.2H92v-6.8h2.5c0.8,0,1.5,0.2,2,0.6s0.7,0.9,0.7,1.7
			c0,0.6-0.1,1-0.4,1.4c-0.3,0.4-0.7,0.6-1.2,0.8l1.6,2.3H96.4z M94.5,431.7c0.6,0,1.1-0.1,1.5-0.4c0.3-0.3,0.5-0.7,0.5-1.3
			c0-0.5-0.2-1-0.5-1.2c-0.3-0.3-0.8-0.4-1.5-0.4h-1.9v3.4H94.5z"/>
		<path class="st3" d="M104,434.5l-0.8-1.8h-3.8l-0.8,1.8h-0.7l3.1-6.8h0.7l3.1,6.8H104z M99.7,432.1h3.2l-1.6-3.7L99.7,432.1z"/>
		<path class="st3" d="M110.3,428.3c0.5,0.4,0.7,0.9,0.7,1.7c0,0.7-0.2,1.3-0.7,1.7c-0.5,0.4-1.1,0.6-1.9,0.6h-1.8v2.2h-0.7v-6.8
			h2.5C109.2,427.7,109.9,427.9,110.3,428.3z M109.8,431.2c0.4-0.3,0.5-0.7,0.5-1.3c0-0.5-0.2-1-0.5-1.2c-0.3-0.3-0.8-0.4-1.5-0.4
			h-1.8v3.4h1.8C109,431.7,109.5,431.5,109.8,431.2z"/>
		<path class="st3" d="M117.2,427.7l-2.6,4.4v2.4H114V432l-2.6-4.4h0.7l2.3,3.6l2.2-3.6H117.2z"/>
	</g>
</g>
<g id="Layer_3">
	<g>
		<g>
			<linearGradient id="SVGID_25_" gradientUnits="userSpaceOnUse" x1="120.0597" y1="358.7561" x2="261.9157" y2="358.7561">
				<stop  offset="3.605769e-04" style="stop-color:#4EC4D3"/>
				<stop  offset="0.3128" style="stop-color:#57B1CE"/>
				<stop  offset="1" style="stop-color:#6482C1"/>
			</linearGradient>
			<circle class="st27" cx="191" cy="358.8" r="70.9"/>
			<g>
				<path class="st3" d="M155.2,353.3h1.6v14.7h7.1v1.4h-8.7V353.3z"/>
				<path class="st3" d="M179.3,369.5l-1.9-4.3h-9l-1.9,4.3h-1.7l7.3-16.2h1.7l7.3,16.2H179.3z M169,363.8h7.7l-3.9-8.7L169,363.8z"
					/>
				<path class="st3" d="M190.3,355c-0.8-0.2-1.5-0.3-2.2-0.3c-1.1,0-2,0.2-2.7,0.7c-0.7,0.4-1,1-1,1.8c0,0.7,0.2,1.2,0.6,1.6
					c0.4,0.4,0.8,0.7,1.4,1c0.5,0.2,1.3,0.5,2.2,0.8c1.1,0.3,2,0.6,2.6,1c0.7,0.3,1.2,0.8,1.7,1.4c0.5,0.6,0.7,1.4,0.7,2.4
					c0,0.9-0.2,1.6-0.7,2.3c-0.5,0.7-1.2,1.2-2,1.5c-0.9,0.4-1.9,0.5-3,0.5c-1.1,0-2.2-0.2-3.3-0.7c-1.1-0.4-2-1-2.8-1.8l0.7-1.3
					c0.7,0.7,1.6,1.3,2.5,1.7c1,0.4,1.9,0.6,2.8,0.6c1.2,0,2.2-0.3,2.9-0.8c0.7-0.5,1.1-1.2,1.1-2c0-0.7-0.2-1.2-0.6-1.7
					c-0.4-0.4-0.8-0.8-1.4-1c-0.5-0.2-1.3-0.5-2.3-0.8c-1.1-0.3-2-0.7-2.6-1c-0.7-0.3-1.2-0.7-1.7-1.3c-0.5-0.6-0.7-1.4-0.7-2.3
					c0-0.8,0.2-1.5,0.7-2.1s1.1-1.1,1.9-1.4c0.8-0.3,1.8-0.5,2.9-0.5c0.9,0,1.8,0.1,2.6,0.4c0.9,0.3,1.7,0.6,2.3,1l-0.7,1.4
					C191.8,355.6,191.1,355.2,190.3,355z"/>
				<path class="st3" d="M197.5,353.3h10.8v1.4h-9.2v5.8h8.3v1.4h-8.3v6.1h9.5v1.4h-11.1V353.3z"/>
				<path class="st3" d="M223.2,369.5l-3.5-5.3c-0.5,0-0.9,0-1.1,0h-4.4v5.2h-1.6v-16.2h6c2,0,3.6,0.5,4.7,1.4
					c1.1,0.9,1.7,2.3,1.7,4c0,1.3-0.3,2.5-1,3.4c-0.6,0.9-1.6,1.5-2.8,1.9l3.9,5.6H223.2z M218.6,362.8c1.5,0,2.7-0.4,3.6-1.1
					c0.8-0.7,1.2-1.7,1.2-3c0-1.3-0.4-2.3-1.2-3c-0.8-0.7-2-1-3.6-1h-4.4v8.1H218.6z"/>
			</g>
		</g>
		<g>
			<linearGradient id="SVGID_26_" gradientUnits="userSpaceOnUse" x1="422.8003" y1="187.2097" x2="565.801" y2="187.2097">
				<stop  offset="3.605769e-04" style="stop-color:#4EC4D3"/>
				<stop  offset="0.3128" style="stop-color:#57B1CE"/>
				<stop  offset="1" style="stop-color:#6482C1"/>
			</linearGradient>
			<circle class="st28" cx="494.3" cy="187.2" r="71.5"/>
			<g>
				<path class="st3" d="M457.5,181.7h10.2v1.4h-8.6v6.3h7.7v1.4h-7.7v7.1h-1.6V181.7z"/>
				<path class="st3" d="M482.2,198l-1.9-4.3h-9l-1.9,4.3h-1.7l7.3-16.3h1.7l7.3,16.3H482.2z M471.8,192.3h7.8l-3.9-8.8L471.8,192.3
					z"/>
				<path class="st3" d="M495.8,183.6c-0.9-0.4-1.7-0.5-2.7-0.5c-1.3,0-2.4,0.3-3.5,0.9c-1,0.6-1.9,1.4-2.5,2.5
					c-0.6,1-0.9,2.2-0.9,3.4s0.3,2.4,0.9,3.4c0.6,1,1.4,1.9,2.5,2.5c1,0.6,2.2,0.9,3.5,0.9c0.9,0,1.8-0.2,2.6-0.5s1.6-0.8,2.3-1.5
					l1,1c-0.8,0.7-1.7,1.3-2.8,1.8c-1,0.4-2.1,0.7-3.2,0.7c-1.5,0-3-0.4-4.2-1.1c-1.3-0.7-2.3-1.8-3.1-3s-1.1-2.7-1.1-4.2
					s0.4-2.9,1.1-4.1s1.8-2.3,3.1-3c1.3-0.7,2.7-1.1,4.3-1.1c1.1,0,2.2,0.2,3.2,0.6s1.9,1,2.7,1.7l-1,1.1
					C497.4,184.4,496.6,183.9,495.8,183.6z"/>
				<path class="st3" d="M502.5,181.7h1.6V198h-1.6V181.7z"/>
				<path class="st3" d="M521.4,198l-1.9-4.3h-9l-1.9,4.3h-1.7l7.3-16.3h1.7l7.3,16.3H521.4z M511.1,192.3h7.8l-3.9-8.8L511.1,192.3
					z"/>
				<path class="st3" d="M525.9,181.7h1.6v14.8h7.2v1.4h-8.8V181.7z"/>
			</g>
		</g>
		<g>
			<linearGradient id="SVGID_27_" gradientUnits="userSpaceOnUse" x1="726.4509" y1="384.7093" x2="867.7771" y2="384.7093">
				<stop  offset="3.605769e-04" style="stop-color:#4EC4D3"/>
				<stop  offset="0.3128" style="stop-color:#57B1CE"/>
				<stop  offset="1" style="stop-color:#6482C1"/>
			</linearGradient>
			<circle class="st29" cx="797.1" cy="384.7" r="70.7"/>
			<g>
				<path class="st3" d="M775.6,381c-0.8-0.2-1.5-0.3-2.2-0.3c-1.1,0-2,0.2-2.7,0.7c-0.7,0.4-1,1-1,1.8c0,0.7,0.2,1.2,0.6,1.6
					c0.4,0.4,0.8,0.7,1.4,1c0.5,0.2,1.3,0.5,2.2,0.8c1.1,0.3,2,0.6,2.6,1s1.2,0.8,1.7,1.4c0.5,0.6,0.7,1.4,0.7,2.4
					c0,0.9-0.2,1.6-0.7,2.3c-0.5,0.7-1.2,1.2-2,1.5c-0.9,0.4-1.9,0.5-3,0.5c-1.1,0-2.2-0.2-3.3-0.7s-2-1-2.8-1.8l0.7-1.3
					c0.7,0.7,1.6,1.3,2.5,1.7s1.9,0.6,2.8,0.6c1.2,0,2.2-0.2,2.9-0.7c0.7-0.5,1.1-1.2,1.1-2c0-0.7-0.2-1.2-0.6-1.7
					c-0.4-0.4-0.8-0.8-1.4-1c-0.5-0.2-1.3-0.5-2.3-0.8c-1.1-0.3-2-0.7-2.6-1c-0.7-0.3-1.2-0.7-1.7-1.3c-0.5-0.6-0.7-1.4-0.7-2.3
					c0-0.8,0.2-1.5,0.7-2.1c0.5-0.6,1.1-1.1,1.9-1.4c0.8-0.3,1.8-0.5,2.9-0.5c0.9,0,1.8,0.1,2.6,0.4c0.9,0.3,1.7,0.6,2.3,1l-0.7,1.4
					C777.2,381.5,776.4,381.2,775.6,381z"/>
				<path class="st3" d="M795.8,395.4h-2l-6.1-7.8l-3.3,3.5v4.3h-1.6v-16.1h1.6v9.8l8.9-9.8h1.9l-6.5,7L795.8,395.4z"/>
				<path class="st3" d="M798.9,379.3h1.6v16.1h-1.6V379.3z"/>
				<path class="st3" d="M817.2,379.3h1.6v16.1h-1.7l-10-13.6v13.6h-1.6v-16.1h1.7l10,13.6V379.3z"/>
			</g>
		</g>
	</g>
</g>
</svg>
