<?xml version="1.0" encoding="utf-8"?>
<!-- Generator: Adobe Illustrator 23.0.2, SVG Export Plug-In . SVG Version: 6.00 Build 0)  -->
<svg version="1.1" id="Layer_3" xmlns="http://www.w3.org/2000/svg" xmlns:xlink="http://www.w3.org/1999/xlink" x="0px" y="0px"
	 viewBox="0 0 983.8 522.9" style="enable-background:new 0 0 983.8 522.9;" xml:space="preserve">
<style type="text/css">
	.st0{fill:url(#SVGID_1_);}
	.st1{fill:#FFFFFF;}
	.st2{fill:url(#SVGID_2_);}
	.st3{fill:url(#SVGID_3_);}
	.st4{fill:url(#SVGID_4_);}
	.st5{fill:url(#SVGID_5_);}
	.st6{fill:url(#SVGID_6_);}
	.st7{fill:url(#SVGID_7_);}
	.st8{fill:url(#SVGID_8_);}
	.st9{fill:url(#SVGID_9_);}
	.st10{fill:url(#SVGID_10_);}
	.st11{fill:url(#SVGID_11_);}
	.st12{fill:url(#SVGID_12_);}
	.st13{fill:url(#SVGID_13_);}
	.st14{fill:url(#SVGID_14_);}
</style>
<g>
	<linearGradient id="SVGID_1_" gradientUnits="userSpaceOnUse" x1="20.1142" y1="386.8669" x2="155.2848" y2="386.8669">
		<stop  offset="3.605769e-04" style="stop-color:#4EC4D3"/>
		<stop  offset="0.3128" style="stop-color:#57B1CE"/>
		<stop  offset="1" style="stop-color:#6482C1"/>
	</linearGradient>
	<circle class="st0" cx="87.7" cy="386.9" r="67.6"/>
	<g>
		<path class="st1" d="M51.6,381.7h1.5v14h6.8v1.4h-8.3V381.7z"/>
		<path class="st1" d="M74.5,397.1l-1.8-4.1h-8.5l-1.8,4.1h-1.6l6.9-15.4h1.6l6.9,15.4H74.5z M64.8,391.6h7.4l-3.7-8.3L64.8,391.6z"
			/>
		<path class="st1" d="M85,383.3c-0.7-0.2-1.5-0.3-2.1-0.3c-1.1,0-1.9,0.2-2.5,0.6c-0.6,0.4-1,1-1,1.7c0,0.6,0.2,1.1,0.5,1.5
			s0.8,0.7,1.3,0.9c0.5,0.2,1.2,0.5,2.1,0.8c1,0.3,1.9,0.6,2.5,0.9c0.6,0.3,1.2,0.7,1.6,1.3c0.4,0.6,0.7,1.3,0.7,2.3
			c0,0.8-0.2,1.5-0.7,2.2c-0.5,0.6-1.1,1.1-1.9,1.5c-0.8,0.3-1.8,0.5-2.9,0.5c-1.1,0-2.1-0.2-3.1-0.6c-1-0.4-1.9-1-2.6-1.7l0.7-1.3
			c0.7,0.7,1.5,1.2,2.4,1.6c0.9,0.4,1.8,0.6,2.7,0.6c1.2,0,2.1-0.2,2.8-0.7c0.7-0.5,1-1.1,1-1.9c0-0.6-0.2-1.2-0.5-1.6
			c-0.4-0.4-0.8-0.7-1.3-0.9s-1.2-0.5-2.2-0.8c-1-0.3-1.9-0.6-2.5-0.9s-1.2-0.7-1.6-1.3c-0.4-0.6-0.7-1.3-0.7-2.2
			c0-0.8,0.2-1.5,0.7-2c0.4-0.6,1.1-1,1.9-1.4c0.8-0.3,1.7-0.5,2.8-0.5c0.8,0,1.7,0.1,2.5,0.4c0.8,0.2,1.6,0.6,2.2,1l-0.7,1.3
			C86.5,383.8,85.8,383.5,85,383.3z"/>
		<path class="st1" d="M91.9,381.7h10.3v1.4h-8.8v5.5h7.9v1.4h-7.9v5.8h9.1v1.4H91.9V381.7z"/>
		<path class="st1" d="M116.4,397.1l-3.3-5c-0.5,0-0.8,0-1.1,0h-4.2v5h-1.5v-15.4h5.7c1.9,0,3.4,0.4,4.5,1.3c1,0.9,1.6,2.1,1.6,3.8
			c0,1.3-0.3,2.3-0.9,3.2c-0.6,0.9-1.5,1.4-2.6,1.8l3.7,5.3H116.4z M112,390.8c1.5,0,2.6-0.3,3.4-1c0.8-0.7,1.2-1.6,1.2-2.9
			c0-1.2-0.4-2.2-1.2-2.8c-0.8-0.6-1.9-1-3.4-1h-4.2v7.7H112z"/>
	</g>
</g>
<g>
	<linearGradient id="SVGID_2_" gradientUnits="userSpaceOnUse" x1="176.6551" y1="295.8192" x2="277.9567" y2="295.8192">
		<stop  offset="3.605769e-04" style="stop-color:#4EC4D3"/>
		<stop  offset="0.3128" style="stop-color:#57B1CE"/>
		<stop  offset="1" style="stop-color:#6482C1"/>
	</linearGradient>
	<circle class="st2" cx="227.3" cy="295.8" r="50.7"/>
	<g>
		<path class="st1" d="M192.1,294.4c-0.5-0.1-1-0.2-1.4-0.2c-0.7,0-1.3,0.1-1.7,0.4s-0.6,0.7-0.6,1.1c0,0.4,0.1,0.8,0.3,1
			c0.2,0.3,0.5,0.5,0.9,0.6c0.3,0.1,0.8,0.3,1.4,0.5c0.7,0.2,1.2,0.4,1.7,0.6c0.4,0.2,0.8,0.5,1.1,0.9s0.4,0.9,0.4,1.5
			c0,0.5-0.2,1-0.5,1.4c-0.3,0.4-0.7,0.7-1.3,1c-0.6,0.2-1.2,0.3-1.9,0.3c-0.7,0-1.4-0.1-2.1-0.4c-0.7-0.3-1.2-0.7-1.7-1.1l0.5-0.8
			c0.5,0.4,1,0.8,1.6,1s1.2,0.4,1.8,0.4c0.8,0,1.4-0.2,1.8-0.5c0.5-0.3,0.7-0.7,0.7-1.3c0-0.4-0.1-0.8-0.3-1
			c-0.2-0.3-0.5-0.5-0.9-0.6s-0.8-0.3-1.4-0.5c-0.7-0.2-1.2-0.4-1.7-0.6c-0.4-0.2-0.8-0.5-1.1-0.8c-0.3-0.4-0.4-0.9-0.4-1.5
			c0-0.5,0.1-1,0.4-1.3c0.3-0.4,0.7-0.7,1.2-0.9c0.5-0.2,1.1-0.3,1.8-0.3c0.6,0,1.1,0.1,1.7,0.2s1,0.4,1.5,0.7l-0.4,0.9
			C193,294.7,192.6,294.5,192.1,294.4z"/>
		<path class="st1" d="M204.8,303.5h-1.2l-3.8-4.9l-2.1,2.2v2.7h-1v-10.2h1v6.2l5.6-6.2h1.2l-4.1,4.4L204.8,303.5z"/>
		<path class="st1" d="M206.7,293.3h1v10.1h-1V293.3z"/>
		<path class="st1" d="M218.3,293.3h1v10.1h-1.1l-6.3-8.6v8.6h-1v-10.1h1.1l6.3,8.6V293.3z"/>
		<path class="st1" d="M226.4,293.3h6.8v0.9h-5.8v3.6h5.2v0.9h-5.2v3.8h6v0.9h-7V293.3z"/>
		<path class="st1" d="M234.9,293.3h1.2l2.9,4.1l2.9-4.1h1.2l-3.5,4.9l3.8,5.3h-1.2L239,299l-3.2,4.4h-1.2l3.7-5.2L234.9,293.3z"/>
		<path class="st1" d="M253,303.5l-1.2-2.7h-5.6l-1.2,2.7h-1.1l4.6-10.1h1l4.6,10.1H253z M246.6,299.9h4.8l-2.4-5.5L246.6,299.9z"/>
		<path class="st1" d="M255.8,293.3h1.2l4,7.6l3.9-7.6h1.2v10.2h-0.9l0-8.8l-4,7.7h-0.6l-4-7.7v8.8h-0.9V293.3z"/>
	</g>
</g>
<g>
	<linearGradient id="SVGID_3_" gradientUnits="userSpaceOnUse" x1="908.7625" y1="413.1007" x2="959.7337" y2="413.1007">
		<stop  offset="3.605769e-04" style="stop-color:#4EC4D3"/>
		<stop  offset="0.3128" style="stop-color:#57B1CE"/>
		<stop  offset="1" style="stop-color:#6482C1"/>
	</linearGradient>
	<circle class="st3" cx="934.2" cy="413.1" r="25.5"/>
	<g>
		<path class="st1" d="M926.8,411.5c0.3,0.3,0.5,0.6,0.5,1.1c0,0.3-0.1,0.6-0.3,0.9s-0.5,0.4-0.8,0.5c0.4,0.1,0.8,0.2,1,0.5
			s0.4,0.6,0.4,1c0,0.5-0.2,0.9-0.6,1.2c-0.4,0.3-0.9,0.4-1.5,0.4H923v-5.8h2.4C926,411.1,926.5,411.3,926.8,411.5z M926.3,413.4
			c0.2-0.2,0.3-0.4,0.3-0.8c0-0.3-0.1-0.6-0.3-0.7c-0.2-0.2-0.5-0.3-1-0.3h-1.8v2h1.8C925.8,413.7,926.1,413.6,926.3,413.4z
			 M926.5,416.1c0.3-0.2,0.4-0.5,0.4-0.8c0-0.3-0.1-0.6-0.4-0.8c-0.3-0.2-0.7-0.3-1.2-0.3h-1.8v2.2h1.8
			C925.9,416.4,926.3,416.3,926.5,416.1z"/>
		<path class="st1" d="M932.9,411.5c0.5,0.3,0.8,0.6,1.1,1.1c0.3,0.4,0.4,0.9,0.4,1.5s-0.1,1-0.4,1.5s-0.6,0.8-1.1,1.1
			c-0.5,0.3-1,0.4-1.5,0.4s-1.1-0.1-1.5-0.4c-0.5-0.3-0.8-0.6-1.1-1.1s-0.4-0.9-0.4-1.5s0.1-1,0.4-1.5c0.3-0.4,0.6-0.8,1.1-1.1
			c0.5-0.3,1-0.4,1.5-0.4S932.5,411.2,932.9,411.5z M930.2,411.9c-0.4,0.2-0.7,0.5-0.9,0.9s-0.3,0.8-0.3,1.2s0.1,0.9,0.3,1.2
			c0.2,0.4,0.5,0.7,0.9,0.9c0.4,0.2,0.8,0.3,1.2,0.3c0.4,0,0.8-0.1,1.2-0.3c0.4-0.2,0.7-0.5,0.9-0.9c0.2-0.4,0.3-0.8,0.3-1.2
			s-0.1-0.9-0.3-1.2s-0.5-0.7-0.9-0.9c-0.4-0.2-0.8-0.3-1.2-0.3C931,411.6,930.6,411.7,930.2,411.9z"/>
		<path class="st1" d="M939.6,411.5c0.5,0.3,0.8,0.6,1.1,1.1c0.3,0.4,0.4,0.9,0.4,1.5s-0.1,1-0.4,1.5c-0.3,0.4-0.6,0.8-1.1,1
			c-0.5,0.3-1,0.4-1.5,0.4h-2.3v-5.8h2.3C938.6,411.2,939.1,411.3,939.6,411.5z M939.3,416.1c0.4-0.2,0.7-0.5,0.9-0.9
			s0.3-0.8,0.3-1.2s-0.1-0.8-0.3-1.2c-0.2-0.4-0.5-0.7-0.9-0.9s-0.8-0.3-1.2-0.3h-1.8v4.8h1.8C938.5,416.4,938.9,416.3,939.3,416.1z
			"/>
		<path class="st1" d="M946.5,411.2l-2.2,3.7v2.1h-0.6v-2.1l-2.3-3.7h0.6l2,3.1l1.9-3.1H946.5z"/>
	</g>
</g>
<g>
	<linearGradient id="SVGID_4_" gradientUnits="userSpaceOnUse" x1="329.287" y1="320.0298" x2="389.9854" y2="320.0298">
		<stop  offset="3.605769e-04" style="stop-color:#4EC4D3"/>
		<stop  offset="0.3128" style="stop-color:#57B1CE"/>
		<stop  offset="1" style="stop-color:#6482C1"/>
	</linearGradient>
	<circle class="st4" cx="359.6" cy="320" r="30.3"/>
	<g>
		<path class="st1" d="M339.7,319.6c0.4,0.3,0.6,0.8,0.6,1.4c0,0.6-0.2,1.1-0.6,1.4c-0.4,0.3-0.9,0.5-1.6,0.5h-1.5v1.8h-0.5v-5.5h2
			C338.8,319.1,339.3,319.3,339.7,319.6z M339.3,322c0.3-0.2,0.4-0.6,0.4-1c0-0.4-0.1-0.8-0.4-1c-0.3-0.2-0.7-0.3-1.2-0.3h-1.5v2.8
			h1.5C338.6,322.4,339,322.2,339.3,322z"/>
		<path class="st1" d="M345,324.6l-1.2-1.8c-0.2,0-0.3,0-0.4,0h-1.5v1.8h-0.5v-5.5h2.1c0.7,0,1.2,0.2,1.6,0.5
			c0.4,0.3,0.6,0.8,0.6,1.4c0,0.5-0.1,0.8-0.3,1.1c-0.2,0.3-0.5,0.5-0.9,0.6l1.3,1.9H345z M343.4,322.4c0.5,0,0.9-0.1,1.2-0.4
			c0.3-0.2,0.4-0.6,0.4-1c0-0.4-0.1-0.8-0.4-1c-0.3-0.2-0.7-0.3-1.2-0.3h-1.5v2.8H343.4z"/>
		<path class="st1" d="M350.9,319.4c0.4,0.2,0.8,0.6,1,1c0.3,0.4,0.4,0.9,0.4,1.4s-0.1,1-0.4,1.4c-0.3,0.4-0.6,0.8-1,1
			s-0.9,0.4-1.4,0.4c-0.5,0-1-0.1-1.4-0.4c-0.4-0.3-0.8-0.6-1-1c-0.3-0.4-0.4-0.9-0.4-1.4s0.1-1,0.4-1.4s0.6-0.8,1-1
			c0.4-0.2,0.9-0.4,1.4-0.4C349.9,319.1,350.4,319.2,350.9,319.4z M348.3,319.9c-0.4,0.2-0.6,0.5-0.9,0.8s-0.3,0.7-0.3,1.2
			s0.1,0.8,0.3,1.2s0.5,0.6,0.9,0.8c0.4,0.2,0.7,0.3,1.2,0.3c0.4,0,0.8-0.1,1.2-0.3c0.4-0.2,0.6-0.5,0.8-0.8s0.3-0.7,0.3-1.2
			s-0.1-0.8-0.3-1.2s-0.5-0.6-0.8-0.8c-0.4-0.2-0.7-0.3-1.2-0.3C349,319.6,348.6,319.7,348.3,319.9z"/>
		<path class="st1" d="M353.5,319.1h3.5v0.5H354v2.1h2.6v0.5H354v2.4h-0.5V319.1z"/>
		<path class="st1" d="M361.7,319.4c0.4,0.2,0.8,0.6,1,1c0.3,0.4,0.4,0.9,0.4,1.4s-0.1,1-0.4,1.4c-0.3,0.4-0.6,0.8-1,1
			s-0.9,0.4-1.4,0.4c-0.5,0-1-0.1-1.4-0.4c-0.4-0.3-0.8-0.6-1-1c-0.3-0.4-0.4-0.9-0.4-1.4s0.1-1,0.4-1.4s0.6-0.8,1-1
			c0.4-0.2,0.9-0.4,1.4-0.4C360.8,319.1,361.3,319.2,361.7,319.4z M359.1,319.9c-0.4,0.2-0.6,0.5-0.9,0.8s-0.3,0.7-0.3,1.2
			s0.1,0.8,0.3,1.2s0.5,0.6,0.9,0.8c0.4,0.2,0.7,0.3,1.2,0.3c0.4,0,0.8-0.1,1.2-0.3c0.4-0.2,0.6-0.5,0.8-0.8s0.3-0.7,0.3-1.2
			s-0.1-0.8-0.3-1.2s-0.5-0.6-0.8-0.8c-0.4-0.2-0.7-0.3-1.2-0.3C359.8,319.6,359.5,319.7,359.1,319.9z"/>
		<path class="st1" d="M365.2,323.7c0.3,0.3,0.7,0.5,1.3,0.5c0.5,0,1-0.2,1.3-0.5c0.3-0.3,0.5-0.8,0.5-1.3v-3.3h0.5v3.3
			c0,0.7-0.2,1.3-0.6,1.7c-0.4,0.4-1,0.6-1.7,0.6c-0.7,0-1.3-0.2-1.7-0.6c-0.4-0.4-0.6-1-0.6-1.7v-3.3h0.5v3.3
			C364.8,323,364.9,323.4,365.2,323.7z"/>
		<path class="st1" d="M374.4,319.1h0.5v5.5h-0.6l-3.4-4.7v4.7h-0.5v-5.5h0.6l3.4,4.7V319.1z"/>
		<path class="st1" d="M380.3,319.5c0.4,0.2,0.8,0.6,1,1c0.2,0.4,0.4,0.9,0.4,1.4c0,0.5-0.1,1-0.4,1.4c-0.2,0.4-0.6,0.8-1,1
			c-0.4,0.2-0.9,0.4-1.5,0.4h-2.2v-5.5h2.2C379.4,319.1,379.9,319.2,380.3,319.5z M380,323.8c0.3-0.2,0.6-0.5,0.8-0.8
			c0.2-0.3,0.3-0.7,0.3-1.1s-0.1-0.8-0.3-1.2c-0.2-0.3-0.5-0.6-0.8-0.8c-0.3-0.2-0.7-0.3-1.2-0.3h-1.7v4.5h1.7
			C379.3,324.1,379.7,324,380,323.8z"/>
	</g>
</g>
<g>
	<linearGradient id="SVGID_5_" gradientUnits="userSpaceOnUse" x1="493.1728" y1="340.2626" x2="570.0575" y2="340.2626">
		<stop  offset="3.605769e-04" style="stop-color:#4EC4D3"/>
		<stop  offset="0.3128" style="stop-color:#57B1CE"/>
		<stop  offset="1" style="stop-color:#6482C1"/>
	</linearGradient>
	<circle class="st5" cx="531.6" cy="340.3" r="38.4"/>
	<g>
		<path class="st1" d="M505.7,338.3c-0.5-0.2-0.9-0.3-1.4-0.3c-0.7,0-1.3,0.2-1.9,0.5c-0.6,0.3-1,0.8-1.3,1.3s-0.5,1.2-0.5,1.8
			c0,0.7,0.2,1.3,0.5,1.8s0.8,1,1.3,1.3c0.6,0.3,1.2,0.5,1.9,0.5c0.5,0,1-0.1,1.4-0.3c0.5-0.2,0.9-0.4,1.2-0.8l0.5,0.6
			c-0.4,0.4-0.9,0.7-1.5,1c-0.6,0.2-1.1,0.4-1.7,0.4c-0.8,0-1.6-0.2-2.3-0.6s-1.2-0.9-1.6-1.6c-0.4-0.7-0.6-1.4-0.6-2.2
			c0-0.8,0.2-1.6,0.6-2.2c0.4-0.7,1-1.2,1.7-1.6c0.7-0.4,1.5-0.6,2.3-0.6c0.6,0,1.2,0.1,1.7,0.3c0.6,0.2,1,0.5,1.5,0.9l-0.5,0.6
			C506.5,338.8,506.1,338.5,505.7,338.3z"/>
		<path class="st1" d="M515.1,337.8c0.7,0.4,1.3,0.9,1.7,1.6c0.4,0.7,0.6,1.4,0.6,2.2c0,0.8-0.2,1.6-0.6,2.2c-0.4,0.7-1,1.2-1.7,1.6
			s-1.5,0.6-2.3,0.6s-1.6-0.2-2.3-0.6c-0.7-0.4-1.3-0.9-1.7-1.6c-0.4-0.7-0.6-1.4-0.6-2.2c0-0.8,0.2-1.6,0.6-2.2
			c0.4-0.7,1-1.2,1.7-1.6c0.7-0.4,1.5-0.6,2.3-0.6S514.4,337.4,515.1,337.8z M511,338.5c-0.6,0.3-1,0.8-1.4,1.3s-0.5,1.2-0.5,1.8
			c0,0.7,0.2,1.3,0.5,1.9s0.8,1,1.4,1.3c0.6,0.3,1.2,0.5,1.9,0.5c0.7,0,1.3-0.2,1.8-0.5c0.6-0.3,1-0.8,1.3-1.3s0.5-1.2,0.5-1.9
			c0-0.7-0.2-1.3-0.5-1.8s-0.8-1-1.3-1.3c-0.6-0.3-1.2-0.5-1.8-0.5C512.2,338,511.5,338.2,511,338.5z"/>
		<path class="st1" d="M525.6,337.3h0.9v8.8h-0.9l-5.4-7.4v7.4h-0.9v-8.8h0.9l5.4,7.4V337.3z"/>
		<path class="st1" d="M528,337.3h6.7v0.8h-2.9v8h-0.9v-8H528V337.3z"/>
		<path class="st1" d="M541.6,337.8c0.7,0.4,1.3,0.9,1.7,1.6c0.4,0.7,0.6,1.4,0.6,2.2c0,0.8-0.2,1.6-0.6,2.2c-0.4,0.7-1,1.2-1.7,1.6
			s-1.5,0.6-2.3,0.6s-1.6-0.2-2.3-0.6c-0.7-0.4-1.3-0.9-1.7-1.6c-0.4-0.7-0.6-1.4-0.6-2.2c0-0.8,0.2-1.6,0.6-2.2
			c0.4-0.7,1-1.2,1.7-1.6c0.7-0.4,1.5-0.6,2.3-0.6S540.9,337.4,541.6,337.8z M537.5,338.5c-0.6,0.3-1,0.8-1.4,1.3s-0.5,1.2-0.5,1.8
			c0,0.7,0.2,1.3,0.5,1.9s0.8,1,1.4,1.3c0.6,0.3,1.2,0.5,1.9,0.5c0.7,0,1.3-0.2,1.8-0.5c0.6-0.3,1-0.8,1.3-1.3s0.5-1.2,0.5-1.9
			c0-0.7-0.2-1.3-0.5-1.8s-0.8-1-1.3-1.3c-0.6-0.3-1.2-0.5-1.8-0.5C538.7,338,538.1,338.2,537.5,338.5z"/>
		<path class="st1" d="M547.2,344.6c0.5,0.5,1.2,0.8,2,0.8c0.9,0,1.5-0.3,2-0.8c0.5-0.5,0.7-1.2,0.7-2.1v-5.2h0.9v5.2
			c0,1.1-0.3,2-1,2.7c-0.6,0.6-1.5,1-2.7,1s-2-0.3-2.7-1c-0.6-0.6-1-1.5-1-2.7v-5.2h0.9v5.2C546.5,343.4,546.7,344.1,547.2,344.6z"
			/>
		<path class="st1" d="M561.2,346.1l-1.9-2.9c-0.3,0-0.5,0-0.6,0h-2.4v2.8h-0.9v-8.8h3.3c1.1,0,1.9,0.3,2.5,0.8
			c0.6,0.5,0.9,1.2,0.9,2.1c0,0.7-0.2,1.3-0.5,1.8c-0.4,0.5-0.9,0.8-1.5,1l2.1,3H561.2z M558.7,342.5c0.8,0,1.5-0.2,1.9-0.6
			c0.5-0.4,0.7-0.9,0.7-1.6c0-0.7-0.2-1.2-0.7-1.6s-1.1-0.6-1.9-0.6h-2.4v4.4H558.7z"/>
	</g>
</g>
<g>
	<linearGradient id="SVGID_6_" gradientUnits="userSpaceOnUse" x1="519.4755" y1="186.4932" x2="588.267" y2="186.4932">
		<stop  offset="3.605769e-04" style="stop-color:#4EC4D3"/>
		<stop  offset="0.3128" style="stop-color:#57B1CE"/>
		<stop  offset="1" style="stop-color:#6482C1"/>
	</linearGradient>
	<circle class="st6" cx="553.9" cy="186.5" r="34.4"/>
	<g>
		<path class="st1" d="M530.2,183.9h6v0.7h-2.6v7.1h-0.8v-7.1h-2.6V183.9z"/>
		<path class="st1" d="M537.5,183.9h0.8v7.8h-0.8V183.9z"/>
		<path class="st1" d="M546.2,187.9h0.7v2.9c-0.4,0.3-0.8,0.6-1.3,0.8c-0.5,0.2-1,0.3-1.5,0.3c-0.7,0-1.4-0.2-2-0.5
			c-0.6-0.4-1.1-0.8-1.5-1.5s-0.5-1.3-0.5-2c0-0.7,0.2-1.4,0.5-2s0.9-1.1,1.5-1.4s1.3-0.5,2.1-0.5c0.5,0,1,0.1,1.5,0.3
			c0.5,0.2,0.9,0.4,1.3,0.8l-0.4,0.5c-0.3-0.3-0.7-0.5-1.1-0.7c-0.4-0.2-0.9-0.2-1.3-0.2c-0.6,0-1.2,0.1-1.7,0.4
			c-0.5,0.3-0.9,0.7-1.2,1.2c-0.3,0.5-0.4,1.1-0.4,1.6c0,0.6,0.1,1.2,0.4,1.7c0.3,0.5,0.7,0.9,1.2,1.2c0.5,0.3,1.1,0.4,1.7,0.4
			c0.4,0,0.7-0.1,1.1-0.2c0.4-0.1,0.7-0.3,1-0.5V187.9z"/>
		<path class="st1" d="M549.2,183.9h0.8v3.6h4.9v-3.6h0.8v7.8h-0.8v-3.6H550v3.6h-0.8V183.9z"/>
		<path class="st1" d="M557,183.9h6v0.7h-2.6v7.1h-0.8v-7.1H557V183.9z"/>
		<path class="st1" d="M564.3,183.9h5.2v0.7h-4.5v2.8h4v0.7h-4v2.9h4.6v0.7h-5.4V183.9z"/>
		<path class="st1" d="M577.3,183.9h0.8v7.8h-0.8l-4.9-6.6v6.6h-0.8v-7.8h0.8l4.9,6.6V183.9z"/>
	</g>
</g>
<g>
	<linearGradient id="SVGID_7_" gradientUnits="userSpaceOnUse" x1="711.6871" y1="204.7028" x2="756.1993" y2="204.7028">
		<stop  offset="3.605769e-04" style="stop-color:#4EC4D3"/>
		<stop  offset="0.3128" style="stop-color:#57B1CE"/>
		<stop  offset="1" style="stop-color:#6482C1"/>
	</linearGradient>
	<circle class="st7" cx="733.9" cy="204.7" r="22.3"/>
	<g>
		<path class="st1" d="M726.7,203.3c0.4,0.2,0.7,0.5,0.9,0.9c0.2,0.4,0.3,0.8,0.3,1.3c0,0.5-0.1,0.9-0.3,1.3
			c-0.2,0.4-0.5,0.7-0.9,0.9c-0.4,0.2-0.8,0.3-1.3,0.3h-2V203h2C725.9,203,726.3,203.1,726.7,203.3z M726.5,207.3
			c0.3-0.2,0.6-0.4,0.8-0.8c0.2-0.3,0.3-0.7,0.3-1.1c0-0.4-0.1-0.7-0.3-1.1s-0.4-0.6-0.8-0.8c-0.3-0.2-0.7-0.3-1.1-0.3h-1.5v4.2h1.6
			C725.8,207.6,726.2,207.5,726.5,207.3z"/>
		<path class="st1" d="M729.1,203h3.4v0.5h-2.9v1.8h2.6v0.4h-2.6v1.9h3v0.4h-3.5V203z"/>
		<path class="st1" d="M737.2,208.1l-1.1-1.7c-0.2,0-0.3,0-0.4,0h-1.4v1.6h-0.5V203h1.9c0.6,0,1.1,0.1,1.5,0.4
			c0.3,0.3,0.5,0.7,0.5,1.2c0,0.4-0.1,0.8-0.3,1.1c-0.2,0.3-0.5,0.5-0.9,0.6l1.2,1.7H737.2z M735.7,206c0.5,0,0.9-0.1,1.1-0.3
			c0.3-0.2,0.4-0.5,0.4-1c0-0.4-0.1-0.7-0.4-0.9c-0.3-0.2-0.6-0.3-1.1-0.3h-1.4v2.5H735.7z"/>
		<path class="st1" d="M739.1,203h0.6l2,3.8l2-3.8h0.6v5.1h-0.5l0-4.4l-2,3.8h-0.3l-2-3.8v4.4h-0.5V203z"/>
	</g>
</g>
<g>
	<linearGradient id="SVGID_8_" gradientUnits="userSpaceOnUse" x1="867.4798" y1="287.6573" x2="932.2248" y2="287.6573">
		<stop  offset="3.605769e-04" style="stop-color:#4EC4D3"/>
		<stop  offset="0.3128" style="stop-color:#57B1CE"/>
		<stop  offset="1" style="stop-color:#6482C1"/>
	</linearGradient>
	<circle class="st8" cx="899.9" cy="287.7" r="32.4"/>
	<g>
		<path class="st1" d="M880.7,285.8c0.5,0.4,0.7,1,0.7,1.8c0,0.8-0.2,1.4-0.7,1.9c-0.5,0.4-1.2,0.7-2.1,0.7h-2v2.4h-0.7v-7.4h2.7
			C879.5,285.2,880.2,285.4,880.7,285.8z M880.2,289c0.4-0.3,0.6-0.8,0.6-1.4c0-0.6-0.2-1-0.6-1.4s-0.9-0.5-1.6-0.5h-2v3.7h2
			C879.2,289.5,879.8,289.4,880.2,289z"/>
		<path class="st1" d="M888,292.6l-0.9-2H883l-0.9,2h-0.8l3.3-7.4h0.8l3.3,7.4H888z M883.3,289.9h3.5l-1.8-4L883.3,289.9z"/>
		<path class="st1" d="M890,285.2h0.7v7.4H890V285.2z"/>
		<path class="st1" d="M898.4,285.2h0.7v7.4h-0.8l-4.6-6.2v6.2h-0.7v-7.4h0.8l4.6,6.2V285.2z"/>
		<path class="st1" d="M901.5,285.2h0.7v6.7h3.2v0.7h-4V285.2z"/>
		<path class="st1" d="M906.9,285.2h4.9v0.7h-4.2v2.6h3.8v0.7h-3.8v2.8h4.3v0.7h-5.1V285.2z"/>
		<path class="st1" d="M916.8,285.9c-0.4-0.1-0.7-0.2-1-0.2c-0.5,0-0.9,0.1-1.2,0.3c-0.3,0.2-0.5,0.5-0.5,0.8c0,0.3,0.1,0.5,0.3,0.7
			s0.4,0.3,0.6,0.4c0.2,0.1,0.6,0.2,1,0.4c0.5,0.1,0.9,0.3,1.2,0.4c0.3,0.1,0.6,0.4,0.8,0.6c0.2,0.3,0.3,0.6,0.3,1.1
			c0,0.4-0.1,0.7-0.3,1c-0.2,0.3-0.5,0.5-0.9,0.7c-0.4,0.2-0.9,0.2-1.4,0.2c-0.5,0-1-0.1-1.5-0.3c-0.5-0.2-0.9-0.5-1.3-0.8l0.3-0.6
			c0.3,0.3,0.7,0.6,1.2,0.8c0.4,0.2,0.9,0.3,1.3,0.3c0.6,0,1-0.1,1.3-0.3s0.5-0.5,0.5-0.9c0-0.3-0.1-0.6-0.3-0.8
			c-0.2-0.2-0.4-0.3-0.6-0.5s-0.6-0.2-1-0.4c-0.5-0.2-0.9-0.3-1.2-0.4c-0.3-0.1-0.6-0.3-0.8-0.6s-0.3-0.6-0.3-1.1
			c0-0.4,0.1-0.7,0.3-1c0.2-0.3,0.5-0.5,0.9-0.6c0.4-0.2,0.8-0.2,1.3-0.2c0.4,0,0.8,0.1,1.2,0.2s0.8,0.3,1.1,0.5l-0.3,0.6
			C917.5,286.2,917.2,286.1,916.8,285.9z"/>
		<path class="st1" d="M923.2,285.9c-0.4-0.1-0.7-0.2-1-0.2c-0.5,0-0.9,0.1-1.2,0.3c-0.3,0.2-0.5,0.5-0.5,0.8c0,0.3,0.1,0.5,0.3,0.7
			s0.4,0.3,0.6,0.4c0.2,0.1,0.6,0.2,1,0.4c0.5,0.1,0.9,0.3,1.2,0.4c0.3,0.1,0.6,0.4,0.8,0.6c0.2,0.3,0.3,0.6,0.3,1.1
			c0,0.4-0.1,0.7-0.3,1c-0.2,0.3-0.5,0.5-0.9,0.7c-0.4,0.2-0.9,0.2-1.4,0.2c-0.5,0-1-0.1-1.5-0.3c-0.5-0.2-0.9-0.5-1.3-0.8l0.3-0.6
			c0.3,0.3,0.7,0.6,1.2,0.8c0.4,0.2,0.9,0.3,1.3,0.3c0.6,0,1-0.1,1.3-0.3s0.5-0.5,0.5-0.9c0-0.3-0.1-0.6-0.3-0.8
			c-0.2-0.2-0.4-0.3-0.6-0.5s-0.6-0.2-1-0.4c-0.5-0.2-0.9-0.3-1.2-0.4c-0.3-0.1-0.6-0.3-0.8-0.6s-0.3-0.6-0.3-1.1
			c0-0.4,0.1-0.7,0.3-1c0.2-0.3,0.5-0.5,0.9-0.6c0.4-0.2,0.8-0.2,1.3-0.2c0.4,0,0.8,0.1,1.2,0.2s0.8,0.3,1.1,0.5l-0.3,0.6
			C923.9,286.2,923.6,286.1,923.2,285.9z"/>
	</g>
</g>
<g>
	<linearGradient id="SVGID_9_" gradientUnits="userSpaceOnUse" x1="901.8756" y1="172.3303" x2="970.6672" y2="172.3303">
		<stop  offset="3.605769e-04" style="stop-color:#4EC4D3"/>
		<stop  offset="0.3128" style="stop-color:#57B1CE"/>
		<stop  offset="1" style="stop-color:#6482C1"/>
	</linearGradient>
	<circle class="st9" cx="936.3" cy="172.3" r="34.4"/>
	<g>
		<path class="st1" d="M918.6,169.7h4.9v0.7h-4.1v3h3.7v0.7h-3.7v3.4h-0.8V169.7z"/>
		<path class="st1" d="M930.4,177.5l-0.9-2.1h-4.3l-0.9,2.1h-0.8l3.5-7.8h0.8l3.5,7.8H930.4z M925.5,174.8h3.7l-1.9-4.2L925.5,174.8
			z"/>
		<path class="st1" d="M937,170.6c-0.4-0.2-0.8-0.3-1.3-0.3c-0.6,0-1.2,0.1-1.7,0.4c-0.5,0.3-0.9,0.7-1.2,1.2
			c-0.3,0.5-0.4,1.1-0.4,1.7c0,0.6,0.1,1.1,0.4,1.6c0.3,0.5,0.7,0.9,1.2,1.2c0.5,0.3,1.1,0.4,1.7,0.4c0.4,0,0.9-0.1,1.3-0.3
			c0.4-0.2,0.8-0.4,1.1-0.7l0.5,0.5c-0.4,0.4-0.8,0.6-1.3,0.9c-0.5,0.2-1,0.3-1.5,0.3c-0.7,0-1.4-0.2-2-0.5
			c-0.6-0.4-1.1-0.8-1.5-1.5s-0.5-1.3-0.5-2c0-0.7,0.2-1.4,0.5-2s0.9-1.1,1.5-1.4s1.3-0.5,2-0.5c0.5,0,1,0.1,1.5,0.3
			c0.5,0.2,0.9,0.5,1.3,0.8l-0.5,0.5C937.8,171,937.4,170.7,937,170.6z"/>
		<path class="st1" d="M940.2,169.7h0.8v7.8h-0.8V169.7z"/>
		<path class="st1" d="M949.3,177.5l-0.9-2.1H944l-0.9,2.1h-0.8l3.5-7.8h0.8l3.5,7.8H949.3z M944.3,174.8h3.7l-1.9-4.2L944.3,174.8z
			"/>
		<path class="st1" d="M951.5,169.7h0.8v7.1h3.5v0.7h-4.2V169.7z"/>
	</g>
</g>
<g>
	<linearGradient id="SVGID_10_" gradientUnits="userSpaceOnUse" x1="632.7792" y1="69.1429" x2="657.0585" y2="69.1429">
		<stop  offset="3.605769e-04" style="stop-color:#4EC4D3"/>
		<stop  offset="0.3128" style="stop-color:#57B1CE"/>
		<stop  offset="1" style="stop-color:#6482C1"/>
	</linearGradient>
	<circle class="st10" cx="644.9" cy="69.1" r="12.1"/>
	<g>
		<path class="st1" d="M637,71h-0.3l-1-1.3l-0.6,0.6V71h-0.3v-2.8h0.3v1.7l1.5-1.7h0.3l-1.1,1.2L637,71z"/>
		<path class="st1" d="M637.5,68.2h1.9v0.2h-1.6v1h1.4v0.2h-1.4v1h1.6V71h-1.9V68.2z"/>
		<path class="st1" d="M642.1,68.2L641,70v1h-0.3v-1l-1.1-1.8h0.3l0.9,1.5l0.9-1.5H642.1z"/>
		<path class="st1" d="M645.9,68.2h0.3l-0.9,2.8h-0.3l-0.8-2.4l-0.8,2.4h-0.3l-0.9-2.8h0.3l0.8,2.5l0.8-2.5h0.3l0.8,2.5L645.9,68.2z
			"/>
		<path class="st1" d="M648.5,68.4c0.2,0.1,0.4,0.3,0.5,0.5c0.1,0.2,0.2,0.4,0.2,0.7s-0.1,0.5-0.2,0.7c-0.1,0.2-0.3,0.4-0.5,0.5
			c-0.2,0.1-0.5,0.2-0.7,0.2s-0.5-0.1-0.7-0.2c-0.2-0.1-0.4-0.3-0.5-0.5c-0.1-0.2-0.2-0.5-0.2-0.7s0.1-0.5,0.2-0.7
			c0.1-0.2,0.3-0.4,0.5-0.5c0.2-0.1,0.5-0.2,0.7-0.2S648.2,68.3,648.5,68.4z M647.2,68.6c-0.2,0.1-0.3,0.2-0.4,0.4
			c-0.1,0.2-0.2,0.4-0.2,0.6s0.1,0.4,0.2,0.6s0.2,0.3,0.4,0.4c0.2,0.1,0.4,0.2,0.6,0.2c0.2,0,0.4-0.1,0.6-0.2
			c0.2-0.1,0.3-0.2,0.4-0.4s0.2-0.4,0.2-0.6s-0.1-0.4-0.2-0.6c-0.1-0.2-0.2-0.3-0.4-0.4c-0.2-0.1-0.4-0.2-0.6-0.2
			C647.5,68.4,647.3,68.5,647.2,68.6z"/>
		<path class="st1" d="M651.6,71l-0.6-0.9c-0.1,0-0.1,0-0.2,0h-0.8V71h-0.3v-2.8h1c0.3,0,0.6,0.1,0.8,0.2s0.3,0.4,0.3,0.7
			c0,0.2-0.1,0.4-0.2,0.6c-0.1,0.2-0.3,0.3-0.5,0.3l0.7,1H651.6z M650.8,69.8c0.3,0,0.5-0.1,0.6-0.2c0.1-0.1,0.2-0.3,0.2-0.5
			c0-0.2-0.1-0.4-0.2-0.5c-0.1-0.1-0.3-0.2-0.6-0.2h-0.8v1.4H650.8z"/>
		<path class="st1" d="M654.5,68.4c0.2,0.1,0.4,0.3,0.5,0.5c0.1,0.2,0.2,0.4,0.2,0.7s-0.1,0.5-0.2,0.7c-0.1,0.2-0.3,0.4-0.5,0.5
			c-0.2,0.1-0.5,0.2-0.7,0.2h-1.1v-2.8h1.1C654,68.2,654.3,68.3,654.5,68.4z M654.3,70.6c0.2-0.1,0.3-0.2,0.4-0.4s0.2-0.4,0.2-0.6
			s-0.1-0.4-0.2-0.6c-0.1-0.2-0.2-0.3-0.4-0.4c-0.2-0.1-0.4-0.2-0.6-0.2h-0.8v2.3h0.8C654,70.7,654.2,70.7,654.3,70.6z"/>
	</g>
</g>
<g>
	<linearGradient id="SVGID_11_" gradientUnits="userSpaceOnUse" x1="50.9682" y1="132.0487" x2="122.9123" y2="132.0487">
		<stop  offset="3.605769e-04" style="stop-color:#4EC4D3"/>
		<stop  offset="0.3128" style="stop-color:#57B1CE"/>
		<stop  offset="1" style="stop-color:#6482C1"/>
	</linearGradient>
	<circle class="st11" cx="86.9" cy="132" r="36"/>
	<g>
		<path class="st1" d="M63.8,121.2H70v0.7h-2.7v7.5h-0.8v-7.5h-2.7V121.2z"/>
		<path class="st1" d="M76.8,129.4l-1-2.2h-4.5l-1,2.2h-0.9l3.7-8.2H74l3.7,8.2H76.8z M71.6,126.5h3.9l-2-4.4L71.6,126.5z"/>
		<path class="st1" d="M77.1,121.2h6.2v0.7h-2.7v7.5h-0.8v-7.5h-2.7V121.2z"/>
		<path class="st1" d="M83.6,121.2h6.2v0.7h-2.7v7.5h-0.8v-7.5h-2.7V121.2z"/>
		<path class="st1" d="M96.3,121.7c0.7,0.4,1.2,0.9,1.6,1.5c0.4,0.6,0.6,1.3,0.6,2.1s-0.2,1.5-0.6,2.1c-0.4,0.6-0.9,1.1-1.6,1.5
			c-0.7,0.4-1.4,0.6-2.2,0.6c-0.8,0-1.5-0.2-2.2-0.6c-0.7-0.4-1.2-0.9-1.6-1.5c-0.4-0.6-0.6-1.3-0.6-2.1s0.2-1.5,0.6-2.1
			c0.4-0.6,0.9-1.1,1.6-1.5c0.7-0.4,1.4-0.6,2.2-0.6C94.9,121.1,95.6,121.3,96.3,121.7z M92.4,122.3c-0.5,0.3-1,0.7-1.3,1.2
			c-0.3,0.5-0.5,1.1-0.5,1.7s0.2,1.2,0.5,1.7c0.3,0.5,0.7,1,1.3,1.3c0.5,0.3,1.1,0.5,1.7,0.5c0.6,0,1.2-0.2,1.7-0.5
			c0.5-0.3,0.9-0.7,1.3-1.3c0.3-0.5,0.5-1.1,0.5-1.7s-0.2-1.2-0.5-1.7c-0.3-0.5-0.7-0.9-1.3-1.2c-0.5-0.3-1.1-0.5-1.7-0.5
			C93.5,121.9,93,122,92.4,122.3z"/>
		<path class="st1" d="M105.7,121.7c0.7,0.4,1.2,0.9,1.6,1.5c0.4,0.6,0.6,1.3,0.6,2.1s-0.2,1.5-0.6,2.1c-0.4,0.6-0.9,1.1-1.6,1.5
			c-0.7,0.4-1.4,0.6-2.2,0.6c-0.8,0-1.5-0.2-2.2-0.6c-0.7-0.4-1.2-0.9-1.6-1.5c-0.4-0.6-0.6-1.3-0.6-2.1s0.2-1.5,0.6-2.1
			c0.4-0.6,0.9-1.1,1.6-1.5c0.7-0.4,1.4-0.6,2.2-0.6C104.3,121.1,105,121.3,105.7,121.7z M101.8,122.3c-0.5,0.3-1,0.7-1.3,1.2
			c-0.3,0.5-0.5,1.1-0.5,1.7s0.2,1.2,0.5,1.7c0.3,0.5,0.7,1,1.3,1.3c0.5,0.3,1.1,0.5,1.7,0.5c0.6,0,1.2-0.2,1.7-0.5
			c0.5-0.3,0.9-0.7,1.3-1.3c0.3-0.5,0.5-1.1,0.5-1.7s-0.2-1.2-0.5-1.7c-0.3-0.5-0.7-0.9-1.3-1.2c-0.5-0.3-1.1-0.5-1.7-0.5
			C102.9,121.9,102.3,122,101.8,122.3z"/>
		<path class="st1" d="M63.6,143.5l-1.8-2.7c-0.2,0-0.4,0-0.6,0H59v2.6h-0.8v-8.2h3.1c1,0,1.8,0.2,2.4,0.7c0.6,0.5,0.8,1.1,0.8,2
			c0,0.7-0.2,1.2-0.5,1.7c-0.3,0.5-0.8,0.8-1.4,0.9l2,2.8H63.6z M61.3,140.1c0.8,0,1.4-0.2,1.8-0.5c0.4-0.4,0.6-0.9,0.6-1.5
			c0-0.7-0.2-1.2-0.6-1.5c-0.4-0.3-1-0.5-1.8-0.5H59v4.1H61.3z"/>
		<path class="st1" d="M66.7,135.3h5.5v0.7h-4.7v2.9h4.2v0.7h-4.2v3.1h4.8v0.7h-5.6V135.3z"/>
		<path class="st1" d="M74.3,135.3h1l3.2,6.2l3.2-6.2h1v8.2H82l0-7.1l-3.2,6.2h-0.4l-3.2-6.2v7.1h-0.8V135.3z"/>
		<path class="st1" d="M90.9,135.8c0.7,0.4,1.2,0.9,1.6,1.5c0.4,0.6,0.6,1.3,0.6,2.1s-0.2,1.5-0.6,2.1c-0.4,0.6-0.9,1.1-1.6,1.5
			c-0.7,0.4-1.4,0.6-2.2,0.6c-0.8,0-1.5-0.2-2.2-0.6c-0.7-0.4-1.2-0.9-1.6-1.5c-0.4-0.6-0.6-1.3-0.6-2.1s0.2-1.5,0.6-2.1
			c0.4-0.6,0.9-1.1,1.6-1.5c0.7-0.4,1.4-0.6,2.2-0.6C89.6,135.2,90.3,135.4,90.9,135.8z M87.1,136.4c-0.5,0.3-1,0.7-1.3,1.2
			c-0.3,0.5-0.5,1.1-0.5,1.7s0.2,1.2,0.5,1.7c0.3,0.5,0.7,1,1.3,1.3s1.1,0.5,1.7,0.5c0.6,0,1.2-0.2,1.7-0.5c0.5-0.3,0.9-0.7,1.3-1.3
			c0.3-0.5,0.5-1.1,0.5-1.7s-0.2-1.2-0.5-1.7c-0.3-0.5-0.7-0.9-1.3-1.2c-0.5-0.3-1.1-0.5-1.7-0.5C88.2,135.9,87.6,136.1,87.1,136.4z
			"/>
		<path class="st1" d="M93.5,135.3h0.9l2.9,7.3l2.9-7.3h0.9l-3.4,8.2h-0.8L93.5,135.3z"/>
		<path class="st1" d="M108,143.5l-1-2.2h-4.5l-1,2.2h-0.9l3.7-8.2h0.8l3.7,8.2H108z M102.8,140.6h3.9l-2-4.4L102.8,140.6z"/>
		<path class="st1" d="M110.3,135.3h0.8v7.5h3.6v0.7h-4.4V135.3z"/>
	</g>
</g>
<g>
	<linearGradient id="SVGID_12_" gradientUnits="userSpaceOnUse" x1="792.6184" y1="52.9567" x2="820.9443" y2="52.9567">
		<stop  offset="3.605769e-04" style="stop-color:#4EC4D3"/>
		<stop  offset="0.3128" style="stop-color:#57B1CE"/>
		<stop  offset="1" style="stop-color:#6482C1"/>
	</linearGradient>
	<circle class="st12" cx="806.8" cy="53" r="14.2"/>
	<g>
		<path class="st1" d="M800,54.9c-0.2,0.2-0.4,0.3-0.7,0.3c-0.2,0-0.3,0-0.5-0.1c-0.2-0.1-0.3-0.2-0.4-0.3l0.2-0.2
			c0.1,0.1,0.2,0.2,0.3,0.3c0.1,0.1,0.2,0.1,0.4,0.1c0.2,0,0.3-0.1,0.4-0.2s0.2-0.3,0.2-0.5v-2h-1.2v-0.3h1.5v2.3
			C800.2,54.5,800.2,54.7,800,54.9z"/>
		<path class="st1" d="M803.4,52.1c0.3,0.1,0.5,0.3,0.6,0.6c0.2,0.2,0.2,0.5,0.2,0.8c0,0.3-0.1,0.6-0.2,0.8
			c-0.2,0.3-0.4,0.5-0.6,0.6c-0.3,0.1-0.5,0.2-0.8,0.2s-0.6-0.1-0.8-0.2c-0.3-0.1-0.5-0.3-0.6-0.6c-0.2-0.3-0.2-0.5-0.2-0.8
			c0-0.3,0.1-0.6,0.2-0.8c0.2-0.2,0.4-0.4,0.6-0.6c0.3-0.1,0.5-0.2,0.8-0.2S803.1,51.9,803.4,52.1z M801.9,52.3
			c-0.2,0.1-0.4,0.3-0.5,0.5c-0.1,0.2-0.2,0.4-0.2,0.7c0,0.2,0.1,0.5,0.2,0.7c0.1,0.2,0.3,0.4,0.5,0.5s0.4,0.2,0.7,0.2
			c0.2,0,0.5-0.1,0.7-0.2s0.4-0.3,0.5-0.5s0.2-0.4,0.2-0.7c0-0.2-0.1-0.5-0.2-0.7s-0.3-0.4-0.5-0.5s-0.4-0.2-0.7-0.2
			C802.3,52.1,802.1,52.2,801.9,52.3z"/>
		<path class="st1" d="M808.8,51.9h0.3l-1.1,3.2h-0.3l-0.9-2.8l-0.9,2.8h-0.3l-1.1-3.2h0.3l0.9,2.9l0.9-2.9h0.3l0.9,2.9L808.8,51.9z
			"/>
		<path class="st1" d="M809.6,51.9h0.3v2.9h1.4v0.3h-1.7V51.9z"/>
		<path class="st1" d="M813.3,52.2c-0.2,0-0.3-0.1-0.4-0.1c-0.2,0-0.4,0-0.5,0.1c-0.1,0.1-0.2,0.2-0.2,0.4c0,0.1,0,0.2,0.1,0.3
			c0.1,0.1,0.2,0.1,0.3,0.2c0.1,0,0.3,0.1,0.4,0.2c0.2,0.1,0.4,0.1,0.5,0.2s0.2,0.2,0.3,0.3c0.1,0.1,0.1,0.3,0.1,0.5
			c0,0.2,0,0.3-0.1,0.5s-0.2,0.2-0.4,0.3c-0.2,0.1-0.4,0.1-0.6,0.1c-0.2,0-0.4,0-0.7-0.1s-0.4-0.2-0.6-0.4l0.1-0.3
			c0.1,0.1,0.3,0.3,0.5,0.3c0.2,0.1,0.4,0.1,0.6,0.1c0.2,0,0.4-0.1,0.6-0.1c0.1-0.1,0.2-0.2,0.2-0.4c0-0.1,0-0.2-0.1-0.3
			c-0.1-0.1-0.2-0.2-0.3-0.2c-0.1,0-0.3-0.1-0.5-0.2c-0.2-0.1-0.4-0.1-0.5-0.2c-0.1-0.1-0.2-0.1-0.3-0.3c-0.1-0.1-0.1-0.3-0.1-0.5
			c0-0.2,0-0.3,0.1-0.4c0.1-0.1,0.2-0.2,0.4-0.3c0.2-0.1,0.4-0.1,0.6-0.1c0.2,0,0.4,0,0.5,0.1s0.3,0.1,0.5,0.2l-0.1,0.3
			C813.7,52.3,813.5,52.3,813.3,52.2z"/>
	</g>
</g>
<g>
	<linearGradient id="SVGID_13_" gradientUnits="userSpaceOnUse" x1="169.4478" y1="178.4001" x2="193.7271" y2="178.4001">
		<stop  offset="3.605769e-04" style="stop-color:#4EC4D3"/>
		<stop  offset="0.3128" style="stop-color:#57B1CE"/>
		<stop  offset="1" style="stop-color:#6482C1"/>
	</linearGradient>
	<circle class="st13" cx="181.6" cy="178.4" r="12.1"/>
	<g>
		<path class="st1" d="M173.7,180.2h-0.3l-1-1.3l-0.6,0.6v0.7h-0.3v-2.8h0.3v1.7l1.5-1.7h0.3l-1.1,1.2L173.7,180.2z"/>
		<path class="st1" d="M174.2,177.5h1.9v0.2h-1.6v1h1.4v0.2h-1.4v1h1.6v0.2h-1.9V177.5z"/>
		<path class="st1" d="M178.8,177.5l-1.1,1.8v1h-0.3v-1l-1.1-1.8h0.3l0.9,1.5l0.9-1.5H178.8z"/>
		<path class="st1" d="M182.5,177.5h0.3l-0.9,2.8h-0.3l-0.8-2.4l-0.8,2.4h-0.3l-0.9-2.8h0.3l0.8,2.5l0.8-2.5h0.3l0.8,2.5
			L182.5,177.5z"/>
		<path class="st1" d="M185.1,177.6c0.2,0.1,0.4,0.3,0.5,0.5c0.1,0.2,0.2,0.4,0.2,0.7s-0.1,0.5-0.2,0.7c-0.1,0.2-0.3,0.4-0.5,0.5
			c-0.2,0.1-0.5,0.2-0.7,0.2s-0.5-0.1-0.7-0.2c-0.2-0.1-0.4-0.3-0.5-0.5c-0.1-0.2-0.2-0.5-0.2-0.7s0.1-0.5,0.2-0.7
			c0.1-0.2,0.3-0.4,0.5-0.5s0.5-0.2,0.7-0.2S184.9,177.5,185.1,177.6z M183.8,177.8c-0.2,0.1-0.3,0.2-0.4,0.4
			c-0.1,0.2-0.2,0.4-0.2,0.6s0.1,0.4,0.2,0.6s0.2,0.3,0.4,0.4c0.2,0.1,0.4,0.2,0.6,0.2c0.2,0,0.4-0.1,0.6-0.2
			c0.2-0.1,0.3-0.2,0.4-0.4s0.2-0.4,0.2-0.6s-0.1-0.4-0.2-0.6c-0.1-0.2-0.2-0.3-0.4-0.4c-0.2-0.1-0.4-0.2-0.6-0.2
			C184.2,177.7,184,177.7,183.8,177.8z"/>
		<path class="st1" d="M188.3,180.2l-0.6-0.9c-0.1,0-0.1,0-0.2,0h-0.8v0.9h-0.3v-2.8h1c0.3,0,0.6,0.1,0.8,0.2
			c0.2,0.2,0.3,0.4,0.3,0.7c0,0.2-0.1,0.4-0.2,0.6c-0.1,0.2-0.3,0.3-0.5,0.3l0.7,1H188.3z M187.5,179.1c0.3,0,0.5-0.1,0.6-0.2
			c0.1-0.1,0.2-0.3,0.2-0.5c0-0.2-0.1-0.4-0.2-0.5c-0.1-0.1-0.3-0.2-0.6-0.2h-0.8v1.4H187.5z"/>
		<path class="st1" d="M191.1,177.7c0.2,0.1,0.4,0.3,0.5,0.5c0.1,0.2,0.2,0.4,0.2,0.7s-0.1,0.5-0.2,0.7c-0.1,0.2-0.3,0.4-0.5,0.5
			c-0.2,0.1-0.5,0.2-0.7,0.2h-1.1v-2.8h1.1C190.7,177.5,190.9,177.5,191.1,177.7z M191,179.8c0.2-0.1,0.3-0.2,0.4-0.4
			s0.2-0.4,0.2-0.6s-0.1-0.4-0.2-0.6c-0.1-0.2-0.2-0.3-0.4-0.4c-0.2-0.1-0.4-0.2-0.6-0.2h-0.8v2.3h0.8
			C190.6,180,190.8,179.9,191,179.8z"/>
	</g>
</g>
<g>
	<linearGradient id="SVGID_14_" gradientUnits="userSpaceOnUse" x1="380.4571" y1="146.213" x2="416.5981" y2="146.213">
		<stop  offset="3.605769e-04" style="stop-color:#4EC4D3"/>
		<stop  offset="0.3128" style="stop-color:#57B1CE"/>
		<stop  offset="1" style="stop-color:#6482C1"/>
	</linearGradient>
	<circle class="st14" cx="398.5" cy="146.2" r="18.1"/>
	<g>
		<path class="st1" d="M387.2,145.1c0.3,0.2,0.6,0.4,0.8,0.7c0.2,0.3,0.3,0.7,0.3,1s-0.1,0.7-0.3,1c-0.2,0.3-0.4,0.6-0.8,0.7
			c-0.3,0.2-0.7,0.3-1.1,0.3h-1.6v-4.1h1.7C386.5,144.8,386.9,144.9,387.2,145.1z M387,148.4c0.3-0.1,0.5-0.4,0.6-0.6
			c0.2-0.3,0.2-0.5,0.2-0.9c0-0.3-0.1-0.6-0.2-0.9s-0.4-0.5-0.6-0.6c-0.3-0.1-0.5-0.2-0.9-0.2h-1.2v3.4h1.3
			C386.4,148.6,386.7,148.5,387,148.4z"/>
		<path class="st1" d="M391.8,148.9l-0.9-1.3c-0.1,0-0.2,0-0.3,0h-1.1v1.3h-0.4v-4.1h1.5c0.5,0,0.9,0.1,1.2,0.4
			c0.3,0.2,0.4,0.6,0.4,1c0,0.3-0.1,0.6-0.2,0.9c-0.2,0.2-0.4,0.4-0.7,0.5l1,1.4H391.8z M390.7,147.3c0.4,0,0.7-0.1,0.9-0.3
			s0.3-0.4,0.3-0.8c0-0.3-0.1-0.6-0.3-0.8s-0.5-0.3-0.9-0.3h-1.1v2.1H390.7z"/>
		<path class="st1" d="M396.3,144.8l-1.6,2.7v1.5h-0.4v-1.5l-1.6-2.7h0.4l1.4,2.2l1.4-2.2H396.3z"/>
		<path class="st1" d="M400,144.8h0.4v4.1h-0.4l-2.6-3.5v3.5H397v-4.1h0.4l2.6,3.5V144.8z"/>
		<path class="st1" d="M401.7,144.8h2.8v0.4h-2.4v1.5h2.1v0.4h-2.1v1.5h2.4v0.4h-2.8V144.8z"/>
		<path class="st1" d="M407.2,145.3c-0.2-0.1-0.4-0.1-0.6-0.1c-0.3,0-0.5,0.1-0.7,0.2s-0.3,0.3-0.3,0.5c0,0.2,0,0.3,0.1,0.4
			s0.2,0.2,0.3,0.3c0.1,0.1,0.3,0.1,0.6,0.2c0.3,0.1,0.5,0.2,0.7,0.2c0.2,0.1,0.3,0.2,0.4,0.4s0.2,0.4,0.2,0.6
			c0,0.2-0.1,0.4-0.2,0.6s-0.3,0.3-0.5,0.4c-0.2,0.1-0.5,0.1-0.8,0.1c-0.3,0-0.6-0.1-0.8-0.2c-0.3-0.1-0.5-0.3-0.7-0.5l0.2-0.3
			c0.2,0.2,0.4,0.3,0.6,0.4c0.2,0.1,0.5,0.2,0.7,0.2c0.3,0,0.6-0.1,0.7-0.2c0.2-0.1,0.3-0.3,0.3-0.5c0-0.2,0-0.3-0.1-0.4
			c-0.1-0.1-0.2-0.2-0.3-0.3c-0.1-0.1-0.3-0.1-0.6-0.2c-0.3-0.1-0.5-0.2-0.7-0.2s-0.3-0.2-0.4-0.3c-0.1-0.2-0.2-0.3-0.2-0.6
			c0-0.2,0.1-0.4,0.2-0.5c0.1-0.2,0.3-0.3,0.5-0.4c0.2-0.1,0.5-0.1,0.7-0.1c0.2,0,0.4,0,0.7,0.1c0.2,0.1,0.4,0.2,0.6,0.3l-0.2,0.3
			C407.6,145.4,407.4,145.3,407.2,145.3z"/>
		<path class="st1" d="M410.8,145.3c-0.2-0.1-0.4-0.1-0.6-0.1c-0.3,0-0.5,0.1-0.7,0.2s-0.3,0.3-0.3,0.5c0,0.2,0,0.3,0.1,0.4
			s0.2,0.2,0.3,0.3c0.1,0.1,0.3,0.1,0.6,0.2c0.3,0.1,0.5,0.2,0.7,0.2c0.2,0.1,0.3,0.2,0.4,0.4s0.2,0.4,0.2,0.6
			c0,0.2-0.1,0.4-0.2,0.6s-0.3,0.3-0.5,0.4c-0.2,0.1-0.5,0.1-0.8,0.1c-0.3,0-0.6-0.1-0.8-0.2c-0.3-0.1-0.5-0.3-0.7-0.5l0.2-0.3
			c0.2,0.2,0.4,0.3,0.6,0.4c0.2,0.1,0.5,0.2,0.7,0.2c0.3,0,0.6-0.1,0.7-0.2c0.2-0.1,0.3-0.3,0.3-0.5c0-0.2,0-0.3-0.1-0.4
			c-0.1-0.1-0.2-0.2-0.3-0.3c-0.1-0.1-0.3-0.1-0.6-0.2c-0.3-0.1-0.5-0.2-0.7-0.2s-0.3-0.2-0.4-0.3c-0.1-0.2-0.2-0.3-0.2-0.6
			c0-0.2,0.1-0.4,0.2-0.5c0.1-0.2,0.3-0.3,0.5-0.4c0.2-0.1,0.5-0.1,0.7-0.1c0.2,0,0.4,0,0.7,0.1c0.2,0.1,0.4,0.2,0.6,0.3l-0.2,0.3
			C411.2,145.4,411,145.3,410.8,145.3z"/>
	</g>
</g>
</svg>
