<?xml version="1.0" encoding="utf-8"?>
<!-- Generator: Adobe Illustrator 23.0.3, SVG Export Plug-In . SVG Version: 6.00 Build 0)  -->
<svg version="1.1" id="Layer_3" xmlns="http://www.w3.org/2000/svg" xmlns:xlink="http://www.w3.org/1999/xlink" x="0px" y="0px"
	 viewBox="0 0 1000 532.3" style="enable-background:new 0 0 1000 532.3;" xml:space="preserve">
<style type="text/css">
	.st0{fill:url(#SVGID_1_);}
	.st1{fill:#FFFFFF;}
	.st2{fill:url(#SVGID_2_);}
	.st3{fill:url(#SVGID_3_);}
</style>
<g>
	<linearGradient id="SVGID_1_" gradientUnits="userSpaceOnUse" x1="113.7282" y1="337.4592" x2="248.8988" y2="337.4592">
		<stop  offset="3.605769e-04" style="stop-color:#4EC4D3"/>
		<stop  offset="0.3128" style="stop-color:#57B1CE"/>
		<stop  offset="1" style="stop-color:#6482C1"/>
	</linearGradient>
	<circle class="st0" cx="181.3" cy="337.5" r="67.6"/>
	<g>
		<path class="st1" d="M145.2,332.3h1.5v14h6.8v1.4h-8.3V332.3z"/>
		<path class="st1" d="M168.1,347.7l-1.8-4.1h-8.5l-1.8,4.1h-1.6l6.9-15.4h1.6l6.9,15.4H168.1z M158.4,342.2h7.4l-3.7-8.3
			L158.4,342.2z"/>
		<path class="st1" d="M178.6,333.9c-0.7-0.2-1.5-0.3-2.1-0.3c-1.1,0-1.9,0.2-2.5,0.6c-0.6,0.4-1,1-1,1.7c0,0.6,0.2,1.1,0.5,1.5
			s0.8,0.7,1.3,0.9c0.5,0.2,1.2,0.5,2.1,0.8c1,0.3,1.9,0.6,2.5,0.9c0.6,0.3,1.2,0.7,1.6,1.3c0.4,0.6,0.7,1.3,0.7,2.3
			c0,0.8-0.2,1.5-0.7,2.2c-0.5,0.6-1.1,1.1-1.9,1.5s-1.8,0.5-2.9,0.5c-1.1,0-2.1-0.2-3.1-0.6c-1-0.4-1.9-1-2.6-1.7l0.7-1.3
			c0.7,0.7,1.5,1.2,2.4,1.6c0.9,0.4,1.8,0.6,2.7,0.6c1.2,0,2.1-0.2,2.8-0.7c0.7-0.5,1-1.1,1-1.9c0-0.6-0.2-1.2-0.5-1.6
			s-0.8-0.7-1.3-0.9c-0.5-0.2-1.2-0.5-2.2-0.8c-1-0.3-1.9-0.6-2.5-0.9s-1.2-0.7-1.6-1.3c-0.4-0.6-0.7-1.3-0.7-2.2
			c0-0.8,0.2-1.5,0.7-2c0.4-0.6,1.1-1,1.9-1.4c0.8-0.3,1.7-0.5,2.8-0.5c0.8,0,1.7,0.1,2.5,0.4c0.8,0.2,1.6,0.6,2.2,1l-0.7,1.3
			C180.1,334.4,179.4,334.1,178.6,333.9z"/>
		<path class="st1" d="M185.5,332.3h10.3v1.4h-8.8v5.5h7.9v1.4h-7.9v5.8h9.1v1.4h-10.6V332.3z"/>
		<path class="st1" d="M210,347.7l-3.3-5c-0.5,0-0.8,0-1.1,0h-4.2v5h-1.5v-15.4h5.7c1.9,0,3.4,0.4,4.5,1.3c1,0.9,1.6,2.1,1.6,3.8
			c0,1.3-0.3,2.3-0.9,3.2s-1.5,1.4-2.6,1.8l3.7,5.3H210z M205.6,341.3c1.5,0,2.6-0.3,3.4-1c0.8-0.7,1.2-1.6,1.2-2.9
			c0-1.2-0.4-2.2-1.2-2.8s-1.9-1-3.4-1h-4.2v7.7H205.6z"/>
	</g>
</g>
<g>
	<linearGradient id="SVGID_2_" gradientUnits="userSpaceOnUse" x1="434.2902" y1="173.9974" x2="570.5516" y2="173.9974">
		<stop  offset="3.605769e-04" style="stop-color:#4EC4D3"/>
		<stop  offset="0.3128" style="stop-color:#57B1CE"/>
		<stop  offset="1" style="stop-color:#6482C1"/>
	</linearGradient>
	<circle class="st2" cx="502.4" cy="174" r="68.1"/>
	<g>
		<path class="st1" d="M467.4,168.8h9.7v1.4h-8.2v6h7.3v1.4h-7.3v6.8h-1.5V168.8z"/>
		<path class="st1" d="M490.9,184.3l-1.8-4.1h-8.6l-1.8,4.1h-1.6l7-15.5h1.6l7,15.5H490.9z M481,178.8h7.4l-3.7-8.4L481,178.8z"/>
		<path class="st1" d="M503.8,170.5c-0.8-0.3-1.7-0.5-2.5-0.5c-1.2,0-2.3,0.3-3.3,0.9c-1,0.6-1.8,1.4-2.4,2.4
			c-0.6,1-0.9,2.1-0.9,3.3s0.3,2.3,0.9,3.3c0.6,1,1.4,1.8,2.4,2.4c1,0.6,2.1,0.9,3.3,0.9c0.9,0,1.7-0.2,2.5-0.5
			c0.8-0.3,1.5-0.8,2.2-1.4l0.9,1c-0.8,0.7-1.7,1.3-2.6,1.7c-1,0.4-2,0.6-3,0.6c-1.5,0-2.8-0.4-4-1.1c-1.2-0.7-2.2-1.7-2.9-2.9
			c-0.7-1.2-1.1-2.5-1.1-4c0-1.4,0.4-2.8,1.1-4c0.7-1.2,1.7-2.2,2.9-2.9c1.2-0.7,2.6-1.1,4.1-1.1c1.1,0,2.1,0.2,3,0.6
			c1,0.4,1.8,0.9,2.6,1.6l-0.9,1.1C505.4,171.3,504.6,170.9,503.8,170.5z"/>
		<path class="st1" d="M510.3,168.8h1.5v15.5h-1.5V168.8z"/>
		<path class="st1" d="M528.3,184.3l-1.8-4.1h-8.6l-1.8,4.1h-1.6l7-15.5h1.6l7,15.5H528.3z M518.4,178.8h7.4l-3.7-8.4L518.4,178.8z"
			/>
		<path class="st1" d="M532.5,168.8h1.5v14.1h6.8v1.4h-8.4V168.8z"/>
	</g>
</g>
<g>
	<linearGradient id="SVGID_3_" gradientUnits="userSpaceOnUse" x1="731.1608" y1="362.1893" x2="865.8267" y2="362.1893">
		<stop  offset="3.605769e-04" style="stop-color:#4EC4D3"/>
		<stop  offset="0.3128" style="stop-color:#57B1CE"/>
		<stop  offset="1" style="stop-color:#6482C1"/>
	</linearGradient>
	<circle class="st3" cx="798.5" cy="362.2" r="67.3"/>
	<g>
		<path class="st1" d="M778,358.6c-0.7-0.2-1.4-0.3-2.1-0.3c-1.1,0-1.9,0.2-2.5,0.6c-0.6,0.4-1,1-1,1.7c0,0.6,0.2,1.1,0.5,1.5
			c0.4,0.4,0.8,0.7,1.3,0.9c0.5,0.2,1.2,0.5,2.1,0.8c1,0.3,1.9,0.6,2.5,0.9c0.6,0.3,1.2,0.7,1.6,1.3c0.4,0.6,0.7,1.3,0.7,2.3
			c0,0.8-0.2,1.5-0.7,2.2s-1.1,1.1-1.9,1.5s-1.8,0.5-2.9,0.5c-1.1,0-2.1-0.2-3.1-0.6c-1-0.4-1.9-1-2.6-1.7l0.7-1.3
			c0.7,0.7,1.5,1.2,2.4,1.6c0.9,0.4,1.8,0.6,2.7,0.6c1.2,0,2.1-0.2,2.8-0.7c0.7-0.5,1-1.1,1-1.9c0-0.6-0.2-1.2-0.5-1.6
			c-0.4-0.4-0.8-0.7-1.3-0.9c-0.5-0.2-1.2-0.5-2.2-0.8c-1-0.3-1.9-0.6-2.5-0.9s-1.2-0.7-1.6-1.3c-0.4-0.6-0.7-1.3-0.7-2.2
			c0-0.8,0.2-1.5,0.7-2c0.4-0.6,1.1-1,1.8-1.3c0.8-0.3,1.7-0.5,2.7-0.5c0.8,0,1.7,0.1,2.5,0.4c0.8,0.2,1.6,0.6,2.2,1l-0.7,1.3
			C779.5,359.2,778.8,358.9,778,358.6z"/>
		<path class="st1" d="M797.2,372.4h-1.9l-5.8-7.5l-3.1,3.4v4.1h-1.5V357h1.5v9.3l8.5-9.3h1.8l-6.2,6.7L797.2,372.4z"/>
		<path class="st1" d="M800.2,357.1h1.5v15.3h-1.5V357.1z"/>
		<path class="st1" d="M817.6,357.1h1.5v15.3h-1.6l-9.5-13v13h-1.5v-15.3h1.6l9.5,13V357.1z"/>
	</g>
</g>
</svg>
