<?xml version="1.0" encoding="utf-8"?>
<!-- Generator: Adobe Illustrator 23.0.2, SVG Export Plug-In . SVG Version: 6.00 Build 0)  -->
<svg version="1.1" id="Layer_2" xmlns="http://www.w3.org/2000/svg" xmlns:xlink="http://www.w3.org/1999/xlink" x="0px" y="0px"
	 viewBox="0 0 983.8 522.9" style="enable-background:new 0 0 983.8 522.9;" xml:space="preserve">
<style type="text/css">
	.st0{fill:url(#SVGID_1_);}
	.st1{fill:#FFFFFF;}
	.st2{fill:url(#SVGID_2_);}
	.st3{fill:url(#SVGID_3_);}
	.st4{fill:url(#SVGID_4_);}
	.st5{fill:url(#SVGID_5_);}
	.st6{fill:url(#SVGID_6_);}
	.st7{fill:url(#SVGID_7_);}
	.st8{fill:url(#SVGID_8_);}
	.st9{fill:url(#SVGID_9_);}
	.st10{fill:url(#SVGID_10_);}
	.st11{fill:url(#SVGID_11_);}
	.st12{fill:url(#SVGID_12_);}
	.st13{fill:url(#SVGID_13_);}
	.st14{fill:url(#SVGID_14_);}
	.st15{fill:url(#SVGID_15_);}
	.st16{fill:url(#SVGID_16_);}
	.st17{fill:url(#SVGID_17_);}
	.st18{fill:url(#SVGID_18_);}
	.st19{fill:url(#SVGID_19_);}
	.st20{fill:url(#SVGID_20_);}
	.st21{fill:url(#SVGID_21_);}
	.st22{fill:url(#SVGID_22_);}
	.st23{fill:url(#SVGID_23_);}
</style>
<g>
	<linearGradient id="SVGID_1_" gradientUnits="userSpaceOnUse" x1="236.6053" y1="423.2859" x2="319.1706" y2="423.2859">
		<stop  offset="3.605769e-04" style="stop-color:#4EC4D3"/>
		<stop  offset="0.3128" style="stop-color:#57B1CE"/>
		<stop  offset="1" style="stop-color:#6482C1"/>
	</linearGradient>
	<circle class="st0" cx="277.9" cy="423.3" r="41.3"/>
	<g>
		<path class="st1" d="M261.9,411h0.9v4.3h5.9V411h0.9v9.4h-0.9v-4.3h-5.9v4.3h-0.9V411z"/>
		<path class="st1" d="M279.6,420.4l-1.1-2.5h-5.2l-1.1,2.5h-1l4.2-9.4h1l4.2,9.4H279.6z M273.6,417.1h4.5l-2.3-5.1L273.6,417.1z"/>
		<path class="st1" d="M282.2,411h0.9v9.4h-0.9V411z"/>
		<path class="st1" d="M292.3,420.4l-2-3.1c-0.3,0-0.5,0-0.7,0H287v3h-0.9V411h3.5c1.2,0,2.1,0.3,2.7,0.8c0.6,0.5,1,1.3,1,2.3
			c0,0.8-0.2,1.4-0.6,2c-0.4,0.5-0.9,0.9-1.6,1.1l2.3,3.2H292.3z M289.6,416.6c0.9,0,1.6-0.2,2.1-0.6s0.7-1,0.7-1.8
			c0-0.8-0.2-1.3-0.7-1.7s-1.2-0.6-2.1-0.6H287v4.7H289.6z"/>
		<path class="st1" d="M251.7,436.6l-2-3.1c-0.3,0-0.5,0-0.7,0h-2.6v3h-0.9v-9.4h3.5c1.2,0,2.1,0.3,2.7,0.8c0.6,0.5,1,1.3,1,2.3
			c0,0.8-0.2,1.4-0.6,2c-0.4,0.5-0.9,0.9-1.6,1.1l2.3,3.2H251.7z M249,432.7c0.9,0,1.6-0.2,2.1-0.6s0.7-1,0.7-1.8
			c0-0.8-0.2-1.3-0.7-1.7c-0.5-0.4-1.2-0.6-2.1-0.6h-2.6v4.7H249z"/>
		<path class="st1" d="M255.3,427.2h6.3v0.8h-5.4v3.4h4.8v0.8h-4.8v3.5h5.5v0.8h-6.5V427.2z"/>
		<path class="st1" d="M264,427.2h1.2l3.7,7.1l3.6-7.1h1.2v9.4h-0.9l0-8.1l-3.7,7.1h-0.5l-3.7-7.1v8.1H264V427.2z"/>
		<path class="st1" d="M283.1,427.7c0.7,0.4,1.3,1,1.8,1.7c0.4,0.7,0.7,1.5,0.7,2.4s-0.2,1.7-0.7,2.4c-0.4,0.7-1,1.3-1.8,1.7
			s-1.6,0.6-2.5,0.6c-0.9,0-1.7-0.2-2.5-0.6s-1.3-1-1.8-1.7c-0.4-0.7-0.7-1.5-0.7-2.4s0.2-1.7,0.7-2.4c0.4-0.7,1-1.3,1.8-1.7
			c0.7-0.4,1.6-0.6,2.5-0.6C281.5,427.1,282.3,427.3,283.1,427.7z M278.6,428.5c-0.6,0.3-1.1,0.8-1.5,1.4c-0.4,0.6-0.5,1.3-0.5,2
			s0.2,1.4,0.5,2c0.4,0.6,0.8,1.1,1.5,1.4c0.6,0.4,1.3,0.5,2,0.5c0.7,0,1.4-0.2,2-0.5s1.1-0.8,1.4-1.4c0.4-0.6,0.5-1.3,0.5-2
			s-0.2-1.4-0.5-2c-0.4-0.6-0.8-1.1-1.4-1.4s-1.3-0.5-2-0.5C279.9,427.9,279.2,428.1,278.6,428.5z"/>
		<path class="st1" d="M286.1,427.2h1l3.4,8.4l3.3-8.4h1l-3.9,9.4h-1L286.1,427.2z"/>
		<path class="st1" d="M302.7,436.6l-1.1-2.5h-5.2l-1.1,2.5h-1l4.2-9.4h1l4.2,9.4H302.7z M296.7,433.2h4.5l-2.3-5.1L296.7,433.2z"/>
		<path class="st1" d="M305.3,427.2h0.9v8.6h4.1v0.8h-5.1V427.2z"/>
	</g>
</g>
<g>
	<linearGradient id="SVGID_2_" gradientUnits="userSpaceOnUse" x1="69.1007" y1="243.1451" x2="120.072" y2="243.1451">
		<stop  offset="3.605769e-04" style="stop-color:#4EC4D3"/>
		<stop  offset="0.3128" style="stop-color:#57B1CE"/>
		<stop  offset="1" style="stop-color:#6482C1"/>
	</linearGradient>
	<circle class="st2" cx="94.6" cy="243.1" r="25.5"/>
	<g>
		<path class="st1" d="M79.1,241.7c0.4,0.3,0.6,0.8,0.6,1.4c0,0.6-0.2,1.1-0.6,1.5c-0.4,0.3-0.9,0.5-1.7,0.5h-1.6v1.9h-0.6v-5.8h2.1
			C78.2,241.2,78.7,241.4,79.1,241.7z M78.7,244.2c0.3-0.3,0.5-0.6,0.5-1.1c0-0.5-0.1-0.8-0.4-1.1c-0.3-0.2-0.7-0.4-1.3-0.4h-1.5
			v2.9h1.5C78,244.6,78.4,244.5,78.7,244.2z"/>
		<path class="st1" d="M80.9,241.2h0.6v5.8h-0.6V241.2z"/>
		<path class="st1" d="M87.3,244.2h0.5v2.1c-0.3,0.2-0.6,0.4-1,0.6c-0.4,0.1-0.8,0.2-1.1,0.2c-0.5,0-1.1-0.1-1.5-0.4
			c-0.5-0.3-0.8-0.6-1.1-1.1s-0.4-0.9-0.4-1.5s0.1-1,0.4-1.5c0.3-0.4,0.6-0.8,1.1-1.1c0.5-0.3,1-0.4,1.5-0.4c0.4,0,0.8,0.1,1.1,0.2
			c0.4,0.1,0.7,0.3,1,0.6l-0.3,0.4c-0.2-0.2-0.5-0.4-0.8-0.5s-0.6-0.2-1-0.2c-0.4,0-0.9,0.1-1.2,0.3s-0.7,0.5-0.9,0.9
			c-0.2,0.4-0.3,0.8-0.3,1.2c0,0.4,0.1,0.9,0.3,1.2c0.2,0.4,0.5,0.7,0.9,0.9c0.4,0.2,0.8,0.3,1.2,0.3c0.3,0,0.6,0,0.8-0.1
			c0.3-0.1,0.5-0.2,0.8-0.4V244.2z"/>
		<path class="st1" d="M89.5,241.2h0.7l2.3,4.4l2.3-4.4h0.7v5.8H95l0-5l-2.3,4.4h-0.3l-2.3-4.4v5h-0.5V241.2z"/>
		<path class="st1" d="M97.3,241.2h3.9v0.5h-3.3v2.1h3v0.5h-3v2.2h3.4v0.5h-4V241.2z"/>
		<path class="st1" d="M106.9,241.2h0.6v5.8h-0.6l-3.6-4.9v4.9h-0.6v-5.8h0.6l3.6,4.9V241.2z"/>
		<path class="st1" d="M108.5,241.2h4.4v0.5H111v5.3h-0.6v-5.3h-1.9V241.2z"/>
	</g>
</g>
<g>
	<linearGradient id="SVGID_3_" gradientUnits="userSpaceOnUse" x1="289.6384" y1="204.7028" x2="340.6096" y2="204.7028">
		<stop  offset="3.605769e-04" style="stop-color:#4EC4D3"/>
		<stop  offset="0.3128" style="stop-color:#57B1CE"/>
		<stop  offset="1" style="stop-color:#6482C1"/>
	</linearGradient>
	<circle class="st3" cx="315.1" cy="204.7" r="25.5"/>
	<g>
		<path class="st1" d="M304.1,197.1c0.3,0.3,0.5,0.6,0.5,1.1c0,0.3-0.1,0.6-0.3,0.9c-0.2,0.2-0.5,0.4-0.8,0.5c0.4,0.1,0.8,0.2,1,0.5
			c0.2,0.3,0.4,0.6,0.4,1c0,0.5-0.2,0.9-0.6,1.2c-0.4,0.3-0.9,0.4-1.5,0.4h-2.5v-5.8h2.4C303.3,196.7,303.8,196.9,304.1,197.1z
			 M303.7,199c0.2-0.2,0.3-0.4,0.3-0.8c0-0.3-0.1-0.6-0.3-0.7s-0.5-0.3-1-0.3h-1.8v2h1.8C303.1,199.3,303.4,199.2,303.7,199z
			 M303.9,201.8c0.3-0.2,0.4-0.5,0.4-0.8c0-0.3-0.1-0.6-0.4-0.8c-0.3-0.2-0.7-0.3-1.2-0.3h-1.8v2.2h1.8
			C303.2,202,303.6,201.9,303.9,201.8z"/>
		<path class="st1" d="M310.3,197.1c0.5,0.3,0.8,0.6,1.1,1.1c0.3,0.4,0.4,0.9,0.4,1.5s-0.1,1-0.4,1.5c-0.3,0.5-0.6,0.8-1.1,1.1
			c-0.5,0.3-1,0.4-1.5,0.4s-1.1-0.1-1.5-0.4c-0.5-0.3-0.8-0.6-1.1-1.1s-0.4-0.9-0.4-1.5s0.1-1,0.4-1.5c0.3-0.4,0.6-0.8,1.1-1.1
			c0.5-0.3,1-0.4,1.5-0.4S309.8,196.8,310.3,197.1z M307.5,197.5c-0.4,0.2-0.7,0.5-0.9,0.9c-0.2,0.4-0.3,0.8-0.3,1.2
			s0.1,0.9,0.3,1.2c0.2,0.4,0.5,0.7,0.9,0.9c0.4,0.2,0.8,0.3,1.2,0.3c0.4,0,0.8-0.1,1.2-0.3c0.4-0.2,0.7-0.5,0.9-0.9
			c0.2-0.4,0.3-0.8,0.3-1.2s-0.1-0.9-0.3-1.2s-0.5-0.7-0.9-0.9c-0.4-0.2-0.8-0.3-1.2-0.3C308.3,197.2,307.9,197.3,307.5,197.5z"/>
		<path class="st1" d="M317.2,202.6l-0.7-1.5h-3.2l-0.7,1.5H312l2.6-5.8h0.6l2.6,5.8H317.2z M313.5,200.5h2.8l-1.4-3.1L313.5,200.5z
			"/>
		<path class="st1" d="M322.6,202.6l-1.3-1.9c-0.2,0-0.3,0-0.4,0h-1.6v1.9h-0.6v-5.8h2.2c0.7,0,1.3,0.2,1.7,0.5s0.6,0.8,0.6,1.4
			c0,0.5-0.1,0.9-0.3,1.2c-0.2,0.3-0.6,0.5-1,0.7l1.4,2H322.6z M321,200.2c0.6,0,1-0.1,1.3-0.4c0.3-0.3,0.4-0.6,0.4-1.1
			c0-0.5-0.1-0.8-0.4-1.1c-0.3-0.2-0.7-0.4-1.3-0.4h-1.6v2.9H321z"/>
		<path class="st1" d="M328.7,197.1c0.5,0.3,0.8,0.6,1.1,1.1s0.4,0.9,0.4,1.5s-0.1,1-0.4,1.5s-0.6,0.8-1.1,1c-0.5,0.3-1,0.4-1.5,0.4
			h-2.3v-5.8h2.3C327.7,196.8,328.2,196.9,328.7,197.1z M328.4,201.7c0.4-0.2,0.7-0.5,0.9-0.9c0.2-0.4,0.3-0.8,0.3-1.2
			s-0.1-0.8-0.3-1.2c-0.2-0.4-0.5-0.7-0.9-0.9s-0.8-0.3-1.2-0.3h-1.8v4.8h1.8C327.6,202,328,201.9,328.4,201.7z"/>
		<path class="st1" d="M297.6,207.4c-0.3-0.1-0.6-0.2-0.9-0.2c-0.4,0-0.9,0.1-1.2,0.3c-0.4,0.2-0.7,0.5-0.9,0.9
			c-0.2,0.4-0.3,0.8-0.3,1.2s0.1,0.9,0.3,1.2c0.2,0.4,0.5,0.7,0.9,0.9c0.4,0.2,0.8,0.3,1.2,0.3c0.3,0,0.6-0.1,0.9-0.2
			c0.3-0.1,0.6-0.3,0.8-0.5l0.3,0.4c-0.3,0.3-0.6,0.5-1,0.6c-0.4,0.2-0.8,0.2-1.1,0.2c-0.5,0-1.1-0.1-1.5-0.4
			c-0.5-0.3-0.8-0.6-1.1-1.1c-0.3-0.5-0.4-0.9-0.4-1.5s0.1-1,0.4-1.5c0.3-0.4,0.6-0.8,1.1-1.1c0.5-0.3,1-0.4,1.5-0.4
			c0.4,0,0.8,0.1,1.1,0.2c0.4,0.1,0.7,0.4,1,0.6l-0.3,0.4C298.2,207.7,297.9,207.5,297.6,207.4z"/>
		<path class="st1" d="M300,206.7h3.9v0.5h-3.3v2.1h3v0.5h-3v2.2h3.4v0.5h-4V206.7z"/>
		<path class="st1" d="M309.3,212.5l-1.3-1.9c-0.2,0-0.3,0-0.4,0H306v1.9h-0.6v-5.8h2.2c0.7,0,1.3,0.2,1.7,0.5s0.6,0.8,0.6,1.4
			c0,0.5-0.1,0.9-0.3,1.2c-0.2,0.3-0.6,0.5-1,0.7l1.4,2H309.3z M307.6,210.1c0.6,0,1-0.1,1.3-0.4c0.3-0.3,0.4-0.6,0.4-1.1
			c0-0.5-0.1-0.8-0.4-1.1c-0.3-0.2-0.7-0.4-1.3-0.4H306v2.9H307.6z"/>
		<path class="st1" d="M310.6,206.7h4.4v0.5h-1.9v5.3h-0.6v-5.3h-1.9V206.7z"/>
		<path class="st1" d="M316,206.7h0.6v5.8H316V206.7z"/>
		<path class="st1" d="M318.4,206.7h3.6v0.5H319v2.2h2.7v0.5H319v2.5h-0.6V206.7z"/>
		<path class="st1" d="M323.1,206.7h0.6v5.8h-0.6V206.7z"/>
		<path class="st1" d="M325.5,206.7h3.9v0.5h-3.3v2.1h3v0.5h-3v2.2h3.4v0.5h-4V206.7z"/>
		<path class="st1" d="M334.8,207.1c0.5,0.3,0.8,0.6,1.1,1.1s0.4,0.9,0.4,1.5s-0.1,1-0.4,1.5s-0.6,0.8-1.1,1c-0.5,0.3-1,0.4-1.5,0.4
			h-2.3v-5.8h2.3C333.8,206.7,334.3,206.9,334.8,207.1z M334.5,211.7c0.4-0.2,0.7-0.5,0.9-0.9c0.2-0.4,0.3-0.8,0.3-1.2
			s-0.1-0.8-0.3-1.2c-0.2-0.4-0.5-0.7-0.9-0.9s-0.8-0.3-1.2-0.3h-1.8v4.8h1.8C333.7,212,334.1,211.9,334.5,211.7z"/>
	</g>
</g>
<g>
	<linearGradient id="SVGID_4_" gradientUnits="userSpaceOnUse" x1="402.1251" y1="241.1218" x2="495.1961" y2="241.1218">
		<stop  offset="3.605769e-04" style="stop-color:#4EC4D3"/>
		<stop  offset="0.3128" style="stop-color:#57B1CE"/>
		<stop  offset="1" style="stop-color:#6482C1"/>
	</linearGradient>
	<circle class="st4" cx="448.7" cy="241.1" r="46.5"/>
	<g>
		<path class="st1" d="M419.7,248.2l-2-3c-0.3,0-0.5,0-0.6,0h-2.5v3h-0.9V239h3.4c1.1,0,2,0.3,2.7,0.8c0.6,0.5,0.9,1.3,0.9,2.3
			c0,0.8-0.2,1.4-0.6,1.9c-0.4,0.5-0.9,0.9-1.6,1.1l2.2,3.2H419.7z M417,244.4c0.9,0,1.6-0.2,2-0.6c0.5-0.4,0.7-1,0.7-1.7
			c0-0.7-0.2-1.3-0.7-1.7c-0.5-0.4-1.2-0.6-2-0.6h-2.5v4.6H417z"/>
		<path class="st1" d="M423.1,239h6.2v0.8H424v3.3h4.7v0.8H424v3.5h5.4v0.8h-6.3V239z"/>
		<path class="st1" d="M434.6,247.5c-0.5,0.5-1.1,0.7-1.9,0.7c-0.5,0-1-0.1-1.4-0.3c-0.4-0.2-0.8-0.5-1.1-1l0.5-0.7
			c0.3,0.4,0.6,0.6,0.9,0.8c0.4,0.2,0.7,0.3,1.1,0.3c0.5,0,0.9-0.2,1.2-0.5c0.3-0.3,0.4-0.8,0.4-1.4v-5.6h-3.3V239h4.2v6.5
			C435.3,246.3,435.1,247,434.6,247.5z"/>
		<path class="st1" d="M439.5,246.6c0.5,0.5,1.2,0.8,2.1,0.8s1.6-0.3,2.1-0.8c0.5-0.5,0.8-1.3,0.8-2.2V239h0.9v5.5
			c0,1.2-0.3,2.1-1,2.8c-0.7,0.7-1.6,1-2.8,1s-2.1-0.3-2.8-1c-0.7-0.7-1-1.6-1-2.8V239h0.9v5.5C438.7,245.4,438.9,246.1,439.5,246.6
			z"/>
		<path class="st1" d="M446.7,239h1l3.3,8.2l3.3-8.2h1l-3.8,9.2h-0.9L446.7,239z"/>
		<path class="st1" d="M456.8,239h0.9v9.2h-0.9V239z"/>
		<path class="st1" d="M467.4,248.2l-1.1-2.4h-5.1l-1.1,2.4h-1l4.1-9.2h0.9l4.1,9.2H467.4z M461.6,244.9h4.4l-2.2-5L461.6,244.9z"/>
		<path class="st1" d="M467.8,239h7v0.8h-3v8.4h-0.9v-8.4h-3V239z"/>
		<path class="st1" d="M476.4,239h6.2v0.8h-5.3v3.3h4.7v0.8h-4.7v3.5h5.4v0.8h-6.3V239z"/>
	</g>
</g>
<g>
	<linearGradient id="SVGID_5_" gradientUnits="userSpaceOnUse" x1="592.3135" y1="402.9843" x2="709.6639" y2="402.9843">
		<stop  offset="3.605769e-04" style="stop-color:#4EC4D3"/>
		<stop  offset="0.3128" style="stop-color:#57B1CE"/>
		<stop  offset="1" style="stop-color:#6482C1"/>
	</linearGradient>
	<circle class="st5" cx="651" cy="403" r="58.7"/>
	<g>
		<path class="st1" d="M605.6,399.9c-0.7-0.2-1.3-0.3-1.8-0.3c-0.9,0-1.7,0.2-2.2,0.5c-0.6,0.4-0.8,0.9-0.8,1.5c0,0.5,0.2,1,0.5,1.3
			s0.7,0.6,1.1,0.8c0.4,0.2,1.1,0.4,1.8,0.7c0.9,0.3,1.6,0.5,2.2,0.8s1,0.6,1.4,1.1c0.4,0.5,0.6,1.2,0.6,2c0,0.7-0.2,1.3-0.6,1.9
			s-1,1-1.7,1.3c-0.7,0.3-1.6,0.4-2.5,0.4c-0.9,0-1.8-0.2-2.7-0.6c-0.9-0.4-1.6-0.9-2.3-1.5l0.6-1.1c0.6,0.6,1.3,1,2.1,1.4
			c0.8,0.3,1.6,0.5,2.3,0.5c1,0,1.8-0.2,2.4-0.6c0.6-0.4,0.9-1,0.9-1.7c0-0.6-0.2-1-0.5-1.4c-0.3-0.4-0.7-0.6-1.1-0.8
			c-0.4-0.2-1.1-0.4-1.9-0.7c-0.9-0.3-1.6-0.5-2.2-0.8c-0.5-0.2-1-0.6-1.4-1.1s-0.6-1.1-0.6-1.9c0-0.7,0.2-1.3,0.6-1.8
			c0.4-0.5,0.9-0.9,1.6-1.2c0.7-0.3,1.5-0.4,2.4-0.4c0.7,0,1.5,0.1,2.2,0.3s1.4,0.5,1.9,0.9l-0.6,1.1
			C606.9,400.3,606.3,400.1,605.6,399.9z"/>
		<path class="st1" d="M622.4,411.9h-1.6l-5.1-6.5l-2.7,2.9v3.6h-1.3v-13.4h1.3v8.1l7.4-8.1h1.6l-5.4,5.9L622.4,411.9z"/>
		<path class="st1" d="M624.9,398.5h1.3v13.4h-1.3V398.5z"/>
		<path class="st1" d="M640.1,398.5h1.3v13.4h-1.4l-8.3-11.3v11.3h-1.3v-13.4h1.4l8.3,11.3V398.5z"/>
		<path class="st1" d="M658.8,400c-0.7-0.3-1.4-0.4-2.2-0.4c-1,0-2,0.2-2.8,0.7c-0.9,0.5-1.5,1.2-2,2c-0.5,0.9-0.8,1.8-0.8,2.8
			c0,1,0.3,2,0.8,2.8c0.5,0.9,1.2,1.5,2,2c0.9,0.5,1.8,0.8,2.8,0.8c0.7,0,1.5-0.1,2.2-0.4c0.7-0.3,1.3-0.7,1.9-1.2l0.8,0.9
			c-0.7,0.6-1.4,1.1-2.3,1.5c-0.9,0.4-1.7,0.5-2.6,0.5c-1.3,0-2.4-0.3-3.5-0.9c-1.1-0.6-1.9-1.4-2.5-2.5c-0.6-1-0.9-2.2-0.9-3.4
			c0-1.2,0.3-2.4,0.9-3.4s1.5-1.9,2.5-2.5s2.2-0.9,3.5-0.9c0.9,0,1.8,0.2,2.6,0.5c0.8,0.3,1.6,0.8,2.2,1.4l-0.8,0.9
			C660.1,400.7,659.5,400.3,658.8,400z"/>
		<path class="st1" d="M674.3,411.9l-1.6-3.6h-7.4l-1.6,3.6h-1.4l6-13.4h1.4l6,13.4H674.3z M665.8,407.1h6.4l-3.2-7.2L665.8,407.1z"
			/>
		<path class="st1" d="M686.7,411.9l-2.9-4.4c-0.4,0-0.7,0-0.9,0h-3.7v4.3h-1.3v-13.4h5c1.7,0,3,0.4,3.9,1.2
			c0.9,0.8,1.4,1.9,1.4,3.3c0,1.1-0.3,2-0.8,2.8c-0.5,0.7-1.3,1.3-2.3,1.5l3.2,4.6H686.7z M682.9,406.4c1.3,0,2.3-0.3,2.9-0.9
			s1-1.4,1-2.5c0-1.1-0.3-1.9-1-2.4s-1.7-0.8-2.9-0.8h-3.7v6.7H682.9z"/>
		<path class="st1" d="M691.7,398.5h9v1.2H693v4.8h6.8v1.2H693v5h7.9v1.2h-9.2V398.5z"/>
	</g>
</g>
<g>
	<linearGradient id="SVGID_6_" gradientUnits="userSpaceOnUse" x1="473.9865" y1="459.5664" x2="563.0109" y2="459.5664">
		<stop  offset="3.605769e-04" style="stop-color:#4EC4D3"/>
		<stop  offset="0.3128" style="stop-color:#57B1CE"/>
		<stop  offset="1" style="stop-color:#6482C1"/>
	</linearGradient>
	<circle class="st6" cx="518.5" cy="459.6" r="44.5"/>
	<g>
		<path class="st1" d="M491.1,449.1c-0.5-0.1-1-0.2-1.4-0.2c-0.7,0-1.3,0.1-1.7,0.4c-0.4,0.3-0.6,0.7-0.6,1.1c0,0.4,0.1,0.8,0.3,1
			c0.2,0.3,0.5,0.5,0.9,0.6c0.3,0.2,0.8,0.3,1.4,0.5c0.7,0.2,1.2,0.4,1.7,0.6s0.8,0.5,1.1,0.9c0.3,0.4,0.4,0.9,0.4,1.5
			c0,0.5-0.2,1-0.5,1.4s-0.7,0.7-1.3,1c-0.6,0.2-1.2,0.3-1.9,0.3c-0.7,0-1.4-0.1-2.1-0.4c-0.7-0.3-1.3-0.7-1.7-1.1l0.5-0.8
			c0.5,0.4,1,0.8,1.6,1c0.6,0.3,1.2,0.4,1.8,0.4c0.8,0,1.4-0.2,1.8-0.5s0.7-0.7,0.7-1.3c0-0.4-0.1-0.8-0.3-1
			c-0.2-0.3-0.5-0.5-0.9-0.6c-0.3-0.1-0.8-0.3-1.4-0.5c-0.7-0.2-1.2-0.4-1.7-0.6c-0.4-0.2-0.8-0.5-1.1-0.8c-0.3-0.4-0.4-0.9-0.4-1.5
			c0-0.5,0.1-1,0.4-1.3c0.3-0.4,0.7-0.7,1.2-0.9c0.5-0.2,1.1-0.3,1.8-0.3c0.6,0,1.1,0.1,1.7,0.2c0.6,0.2,1,0.4,1.5,0.7l-0.4,0.9
			C492.1,449.5,491.6,449.3,491.1,449.1z"/>
		<path class="st1" d="M494.2,448.1h7.7v0.9h-3.4v9.2h-1V449h-3.4V448.1z"/>
		<path class="st1" d="M510.4,458.2l-2.2-3.3c-0.3,0-0.5,0-0.7,0h-2.8v3.3h-1v-10.1h3.8c1.3,0,2.2,0.3,2.9,0.9c0.7,0.6,1,1.4,1,2.5
			c0,0.8-0.2,1.5-0.6,2.1c-0.4,0.6-1,1-1.7,1.2l2.4,3.5H510.4z M507.5,454c1,0,1.7-0.2,2.2-0.7c0.5-0.4,0.8-1.1,0.8-1.9
			c0-0.8-0.3-1.4-0.8-1.9s-1.3-0.6-2.2-0.6h-2.8v5.1H507.5z"/>
		<path class="st1" d="M514.2,448.1h6.8v0.9h-5.8v3.6h5.2v0.9h-5.2v3.8h6v0.9h-7V448.1z"/>
		<path class="st1" d="M522.2,448.1h7.7v0.9h-3.4v9.2h-1V449h-3.4V448.1z"/>
		<path class="st1" d="M536.9,449.2c-0.5-0.2-1.1-0.3-1.7-0.3c-0.8,0-1.5,0.2-2.2,0.6c-0.7,0.4-1.2,0.9-1.6,1.5
			c-0.4,0.7-0.6,1.4-0.6,2.1c0,0.8,0.2,1.5,0.6,2.1c0.4,0.6,0.9,1.2,1.6,1.5c0.7,0.4,1.4,0.6,2.2,0.6c0.6,0,1.1-0.1,1.6-0.3
			c0.5-0.2,1-0.5,1.4-0.9l0.6,0.7c-0.5,0.5-1.1,0.8-1.7,1.1c-0.6,0.3-1.3,0.4-2,0.4c-1,0-1.8-0.2-2.6-0.7s-1.4-1.1-1.9-1.9
			c-0.5-0.8-0.7-1.7-0.7-2.6c0-0.9,0.2-1.8,0.7-2.6c0.5-0.8,1.1-1.4,1.9-1.9s1.7-0.7,2.6-0.7c0.7,0,1.3,0.1,2,0.4
			c0.6,0.3,1.2,0.6,1.7,1.1l-0.6,0.7C537.9,449.7,537.5,449.4,536.9,449.2z"/>
		<path class="st1" d="M541.1,448.1h1v4.6h6.3v-4.6h1v10.1h-1v-4.6h-6.3v4.6h-1V448.1z"/>
		<path class="st1" d="M493.1,465.5h1.2l4,7.6l3.9-7.6h1.2v10.2h-0.9l0-8.8l-4,7.7H498l-4-7.7v8.8h-0.9V465.5z"/>
		<path class="st1" d="M514.3,475.6l-1.2-2.7h-5.6l-1.2,2.7h-1.1l4.6-10.1h1l4.6,10.1H514.3z M507.8,472h4.8l-2.4-5.5L507.8,472z"/>
		<path class="st1" d="M523.7,475.6l-2.2-3.3c-0.3,0-0.5,0-0.7,0H518v3.3h-1v-10.1h3.8c1.3,0,2.2,0.3,2.9,0.9c0.7,0.6,1,1.4,1,2.5
			c0,0.8-0.2,1.5-0.6,2.1c-0.4,0.6-1,1-1.7,1.2l2.4,3.5H523.7z M520.8,471.5c1,0,1.7-0.2,2.2-0.7c0.5-0.4,0.8-1.1,0.8-1.9
			c0-0.8-0.3-1.4-0.8-1.9s-1.3-0.6-2.2-0.6H518v5.1H520.8z"/>
		<path class="st1" d="M535.7,475.6h-1.2l-3.8-4.9l-2.1,2.2v2.7h-1v-10.2h1v6.2l5.6-6.2h1.2l-4.1,4.4L535.7,475.6z"/>
		<path class="st1" d="M541.8,466.5c-0.5-0.1-1-0.2-1.4-0.2c-0.7,0-1.3,0.1-1.7,0.4c-0.4,0.3-0.6,0.7-0.6,1.1c0,0.4,0.1,0.8,0.3,1
			c0.2,0.3,0.5,0.5,0.9,0.6c0.3,0.2,0.8,0.3,1.4,0.5c0.7,0.2,1.2,0.4,1.7,0.6s0.8,0.5,1.1,0.9s0.4,0.9,0.4,1.5c0,0.5-0.2,1-0.5,1.4
			s-0.7,0.7-1.3,1c-0.6,0.2-1.2,0.3-1.9,0.3c-0.7,0-1.4-0.1-2.1-0.4c-0.7-0.3-1.2-0.7-1.7-1.1l0.5-0.8c0.5,0.4,1,0.8,1.6,1
			c0.6,0.3,1.2,0.4,1.8,0.4c0.8,0,1.4-0.2,1.8-0.5s0.7-0.7,0.7-1.3c0-0.4-0.1-0.8-0.3-1c-0.2-0.3-0.5-0.5-0.9-0.6
			c-0.3-0.1-0.8-0.3-1.4-0.5c-0.7-0.2-1.2-0.4-1.7-0.6c-0.4-0.2-0.8-0.5-1.1-0.8c-0.3-0.4-0.4-0.9-0.4-1.5c0-0.5,0.1-1,0.4-1.3
			c0.3-0.4,0.7-0.7,1.2-0.9s1.1-0.3,1.8-0.3c0.6,0,1.1,0.1,1.7,0.2c0.6,0.2,1,0.4,1.5,0.7l-0.4,0.9
			C542.8,466.9,542.3,466.7,541.8,466.5z"/>
	</g>
</g>
<g>
	<linearGradient id="SVGID_7_" gradientUnits="userSpaceOnUse" x1="731.9897" y1="455.5199" x2="798.6882" y2="455.5199">
		<stop  offset="3.605769e-04" style="stop-color:#4EC4D3"/>
		<stop  offset="0.3128" style="stop-color:#57B1CE"/>
		<stop  offset="1" style="stop-color:#6482C1"/>
	</linearGradient>
	<circle class="st7" cx="765.3" cy="455.5" r="33.3"/>
	<g>
		<path class="st1" d="M743.6,454.8h0.5v4.8h-0.5l-3-4.1v4.1h-0.5v-4.8h0.5l3,4.1V454.8z"/>
		<path class="st1" d="M748.8,455.1c0.4,0.2,0.7,0.5,0.9,0.9s0.3,0.8,0.3,1.2s-0.1,0.9-0.3,1.2c-0.2,0.4-0.5,0.7-0.9,0.9
			c-0.4,0.2-0.8,0.3-1.3,0.3s-0.9-0.1-1.3-0.3c-0.4-0.2-0.7-0.5-0.9-0.9c-0.2-0.4-0.3-0.8-0.3-1.2s0.1-0.9,0.3-1.2s0.5-0.7,0.9-0.9
			c0.4-0.2,0.8-0.3,1.3-0.3S748.5,454.8,748.8,455.1z M746.6,455.4c-0.3,0.2-0.6,0.4-0.7,0.7c-0.2,0.3-0.3,0.6-0.3,1s0.1,0.7,0.3,1
			c0.2,0.3,0.4,0.6,0.7,0.7c0.3,0.2,0.7,0.3,1,0.3c0.4,0,0.7-0.1,1-0.3c0.3-0.2,0.6-0.4,0.7-0.7c0.2-0.3,0.3-0.7,0.3-1
			s-0.1-0.7-0.3-1c-0.2-0.3-0.4-0.5-0.7-0.7c-0.3-0.2-0.6-0.3-1-0.3C747.2,455.2,746.9,455.2,746.6,455.4z"/>
		<path class="st1" d="M754.6,454.8h0.5v4.8h-0.5l-3-4.1v4.1h-0.5v-4.8h0.5l3,4.1V454.8z"/>
		<path class="st1" d="M758.6,455.3c-0.2-0.1-0.5-0.1-0.7-0.1c-0.3,0-0.6,0.1-0.8,0.2c-0.2,0.1-0.3,0.3-0.3,0.5
			c0,0.2,0.1,0.4,0.2,0.5s0.2,0.2,0.4,0.3s0.4,0.2,0.7,0.2c0.3,0.1,0.6,0.2,0.8,0.3c0.2,0.1,0.4,0.2,0.5,0.4s0.2,0.4,0.2,0.7
			c0,0.3-0.1,0.5-0.2,0.7c-0.1,0.2-0.3,0.3-0.6,0.5c-0.3,0.1-0.6,0.2-0.9,0.2c-0.3,0-0.7-0.1-1-0.2s-0.6-0.3-0.8-0.5l0.2-0.4
			c0.2,0.2,0.5,0.4,0.7,0.5s0.6,0.2,0.8,0.2c0.4,0,0.7-0.1,0.9-0.2c0.2-0.1,0.3-0.3,0.3-0.6c0-0.2-0.1-0.4-0.2-0.5
			c-0.1-0.1-0.2-0.2-0.4-0.3c-0.2-0.1-0.4-0.1-0.7-0.2c-0.3-0.1-0.6-0.2-0.8-0.3c-0.2-0.1-0.4-0.2-0.5-0.4c-0.1-0.2-0.2-0.4-0.2-0.7
			c0-0.2,0.1-0.5,0.2-0.6c0.1-0.2,0.3-0.3,0.6-0.4c0.2-0.1,0.5-0.1,0.9-0.1c0.3,0,0.5,0,0.8,0.1c0.3,0.1,0.5,0.2,0.7,0.3l-0.2,0.4
			C759.1,455.4,758.9,455.3,758.6,455.3z"/>
		<path class="st1" d="M761.5,458.8c0.3,0.3,0.6,0.4,1.1,0.4s0.8-0.1,1.1-0.4s0.4-0.7,0.4-1.2v-2.9h0.5v2.9c0,0.6-0.2,1.1-0.5,1.5
			c-0.4,0.4-0.8,0.5-1.5,0.5s-1.1-0.2-1.5-0.5c-0.4-0.4-0.5-0.8-0.5-1.5v-2.9h0.5v2.9C761.1,458.1,761.3,458.5,761.5,458.8z"/>
		<path class="st1" d="M769.2,459.6l-1-1.6c-0.1,0-0.3,0-0.3,0h-1.3v1.6H766v-4.8h1.8c0.6,0,1.1,0.1,1.4,0.4
			c0.3,0.3,0.5,0.7,0.5,1.2c0,0.4-0.1,0.7-0.3,1s-0.5,0.5-0.8,0.6l1.2,1.7H769.2z M767.8,457.6c0.5,0,0.8-0.1,1.1-0.3
			s0.4-0.5,0.4-0.9c0-0.4-0.1-0.7-0.4-0.9c-0.2-0.2-0.6-0.3-1.1-0.3h-1.3v2.4H767.8z"/>
		<path class="st1" d="M774.4,457.2h0.4v1.8c-0.2,0.2-0.5,0.4-0.8,0.5c-0.3,0.1-0.6,0.2-0.9,0.2c-0.5,0-0.9-0.1-1.3-0.3
			c-0.4-0.2-0.7-0.5-0.9-0.9c-0.2-0.4-0.3-0.8-0.3-1.2s0.1-0.9,0.3-1.2s0.5-0.7,0.9-0.9c0.4-0.2,0.8-0.3,1.3-0.3
			c0.3,0,0.6,0.1,0.9,0.2c0.3,0.1,0.6,0.3,0.8,0.5l-0.3,0.3c-0.2-0.2-0.4-0.3-0.7-0.4s-0.5-0.1-0.8-0.1c-0.4,0-0.7,0.1-1,0.3
			c-0.3,0.2-0.6,0.4-0.7,0.7c-0.2,0.3-0.3,0.6-0.3,1c0,0.4,0.1,0.7,0.3,1c0.2,0.3,0.4,0.6,0.7,0.7c0.3,0.2,0.7,0.3,1,0.3
			c0.2,0,0.5,0,0.7-0.1s0.4-0.2,0.6-0.3V457.2z"/>
		<path class="st1" d="M776.2,454.8h0.5v4.8h-0.5V454.8z"/>
		<path class="st1" d="M781,455.3c-0.3-0.1-0.5-0.2-0.8-0.2c-0.4,0-0.7,0.1-1,0.3c-0.3,0.2-0.6,0.4-0.7,0.7c-0.2,0.3-0.3,0.6-0.3,1
			s0.1,0.7,0.3,1c0.2,0.3,0.4,0.6,0.7,0.7c0.3,0.2,0.6,0.3,1,0.3c0.3,0,0.5-0.1,0.8-0.2c0.3-0.1,0.5-0.2,0.7-0.4l0.3,0.3
			c-0.2,0.2-0.5,0.4-0.8,0.5c-0.3,0.1-0.6,0.2-0.9,0.2c-0.5,0-0.9-0.1-1.2-0.3c-0.4-0.2-0.7-0.5-0.9-0.9c-0.2-0.4-0.3-0.8-0.3-1.2
			s0.1-0.9,0.3-1.2s0.5-0.7,0.9-0.9c0.4-0.2,0.8-0.3,1.3-0.3c0.3,0,0.6,0.1,0.9,0.2c0.3,0.1,0.6,0.3,0.8,0.5l-0.3,0.3
			C781.5,455.6,781.3,455.4,781,455.3z"/>
		<path class="st1" d="M786.6,459.6l-0.6-1.3h-2.7l-0.6,1.3h-0.5l2.2-4.8h0.5l2.2,4.8H786.6z M783.5,457.9h2.3l-1.2-2.6L783.5,457.9
			z"/>
		<path class="st1" d="M787.9,454.8h0.5v4.4h2.1v0.4h-2.6V454.8z"/>
	</g>
</g>
<linearGradient id="SVGID_8_" gradientUnits="userSpaceOnUse" x1="600.4067" y1="259.3314" x2="657.0585" y2="259.3314">
	<stop  offset="3.605769e-04" style="stop-color:#4EC4D3"/>
	<stop  offset="0.3128" style="stop-color:#57B1CE"/>
	<stop  offset="1" style="stop-color:#6482C1"/>
</linearGradient>
<circle class="st8" cx="628.7" cy="259.3" r="28.3"/>
<g>
	<path class="st1" d="M606.2,257.2h4.9v0.6H609v5.9h-0.6v-5.9h-2.1V257.2z"/>
	<path class="st1" d="M612.2,257.2h0.6v3h4v-3h0.6v6.5h-0.6v-2.9h-4v2.9h-0.6V257.2z"/>
	<path class="st1" d="M619.5,257.2h4.3v0.6h-3.7v2.3h3.3v0.6h-3.3v2.4h3.8v0.6h-4.4V257.2z"/>
	<path class="st1" d="M629.8,263.6l-1.4-2.1c-0.2,0-0.3,0-0.5,0h-1.8v2.1h-0.6v-6.5h2.4c0.8,0,1.4,0.2,1.9,0.6
		c0.4,0.4,0.7,0.9,0.7,1.6c0,0.5-0.1,1-0.4,1.3c-0.3,0.4-0.6,0.6-1.1,0.7l1.6,2.2H629.8z M628,261c0.6,0,1.1-0.1,1.4-0.4
		c0.3-0.3,0.5-0.7,0.5-1.2c0-0.5-0.2-0.9-0.5-1.2c-0.3-0.3-0.8-0.4-1.4-0.4h-1.8v3.2H628z"/>
	<path class="st1" d="M637,263.6l-0.8-1.7h-3.6l-0.8,1.7h-0.7l2.9-6.5h0.7l2.9,6.5H637z M632.9,261.3h3.1l-1.6-3.5L632.9,261.3z"/>
	<path class="st1" d="M643,257.7c0.4,0.4,0.7,0.9,0.7,1.6c0,0.7-0.2,1.3-0.7,1.6c-0.4,0.4-1.1,0.6-1.9,0.6h-1.7v2.1h-0.6v-6.5h2.4
		C642,257.2,642.6,257.4,643,257.7z M642.6,260.5c0.3-0.3,0.5-0.7,0.5-1.2c0-0.5-0.2-0.9-0.5-1.2c-0.3-0.3-0.8-0.4-1.4-0.4h-1.7v3.2
		h1.7C641.8,261,642.2,260.8,642.6,260.5z"/>
	<path class="st1" d="M649.6,257.2l-2.5,4.2v2.3h-0.6v-2.3l-2.5-4.2h0.7l2.2,3.5l2.1-3.5H649.6z"/>
</g>
<g>
	<linearGradient id="SVGID_9_" gradientUnits="userSpaceOnUse" x1="642.8956" y1="160.1906" x2="683.3612" y2="160.1906">
		<stop  offset="3.605769e-04" style="stop-color:#4EC4D3"/>
		<stop  offset="0.3128" style="stop-color:#57B1CE"/>
		<stop  offset="1" style="stop-color:#6482C1"/>
	</linearGradient>
	<circle class="st9" cx="663.1" cy="160.2" r="20.2"/>
	<g>
		<path class="st1" d="M656.3,159c0.3,0.3,0.5,0.6,0.5,1.1c0,0.5-0.2,0.9-0.5,1.2c-0.3,0.3-0.8,0.4-1.3,0.4h-1.2v1.5h-0.5v-4.6h1.7
			C655.5,158.6,656,158.8,656.3,159z M655.9,161.1c0.2-0.2,0.4-0.5,0.4-0.9c0-0.4-0.1-0.7-0.4-0.8c-0.2-0.2-0.6-0.3-1-0.3h-1.2v2.3
			h1.2C655.4,161.4,655.7,161.3,655.9,161.1z"/>
		<path class="st1" d="M657.7,158.6h3.1v0.4h-2.6v1.6h2.4v0.4h-2.4v1.7h2.7v0.4h-3.2V158.6z"/>
		<path class="st1" d="M661.9,158.6h3.1v0.4h-2.6v1.6h2.4v0.4h-2.4v1.7h2.7v0.4h-3.2V158.6z"/>
		<path class="st1" d="M666.2,158.6h0.5v4.2h2v0.4h-2.5V158.6z"/>
		<path class="st1" d="M671.5,159.1c-0.2-0.1-0.4-0.1-0.6-0.1c-0.3,0-0.6,0.1-0.8,0.2c-0.2,0.1-0.3,0.3-0.3,0.5
			c0,0.2,0.1,0.3,0.2,0.5s0.2,0.2,0.4,0.3c0.2,0.1,0.4,0.1,0.6,0.2c0.3,0.1,0.6,0.2,0.8,0.3c0.2,0.1,0.4,0.2,0.5,0.4
			c0.1,0.2,0.2,0.4,0.2,0.7c0,0.2-0.1,0.5-0.2,0.7s-0.3,0.3-0.6,0.4c-0.2,0.1-0.5,0.2-0.9,0.2c-0.3,0-0.6-0.1-0.9-0.2
			c-0.3-0.1-0.6-0.3-0.8-0.5l0.2-0.4c0.2,0.2,0.4,0.4,0.7,0.5c0.3,0.1,0.5,0.2,0.8,0.2c0.4,0,0.6-0.1,0.8-0.2
			c0.2-0.1,0.3-0.3,0.3-0.6c0-0.2-0.1-0.4-0.2-0.5c-0.1-0.1-0.2-0.2-0.4-0.3s-0.4-0.1-0.6-0.2c-0.3-0.1-0.6-0.2-0.8-0.3
			c-0.2-0.1-0.3-0.2-0.5-0.4c-0.1-0.2-0.2-0.4-0.2-0.7c0-0.2,0.1-0.4,0.2-0.6c0.1-0.2,0.3-0.3,0.6-0.4c0.2-0.1,0.5-0.1,0.8-0.1
			c0.3,0,0.5,0,0.8,0.1s0.5,0.2,0.7,0.3l-0.2,0.4C672,159.3,671.8,159.2,671.5,159.1z"/>
	</g>
</g>
<linearGradient id="SVGID_10_" gradientUnits="userSpaceOnUse" x1="685.3845" y1="301.8203" x2="758.2227" y2="301.8203">
	<stop  offset="3.605769e-04" style="stop-color:#4EC4D3"/>
	<stop  offset="0.3128" style="stop-color:#57B1CE"/>
	<stop  offset="1" style="stop-color:#6482C1"/>
</linearGradient>
<circle class="st10" cx="721.8" cy="301.8" r="36.4"/>
<g>
	<path class="st1" d="M711.9,294.1c-0.3-0.1-0.7-0.1-0.9-0.1c-0.5,0-0.9,0.1-1.1,0.3s-0.4,0.4-0.4,0.8c0,0.3,0.1,0.5,0.2,0.7
		c0.2,0.2,0.4,0.3,0.6,0.4c0.2,0.1,0.5,0.2,0.9,0.3c0.5,0.1,0.8,0.3,1.1,0.4c0.3,0.1,0.5,0.3,0.7,0.6c0.2,0.3,0.3,0.6,0.3,1
		c0,0.4-0.1,0.7-0.3,1c-0.2,0.3-0.5,0.5-0.9,0.7c-0.4,0.2-0.8,0.2-1.3,0.2c-0.5,0-0.9-0.1-1.4-0.3c-0.5-0.2-0.9-0.4-1.2-0.8l0.3-0.6
		c0.3,0.3,0.7,0.5,1.1,0.7c0.4,0.2,0.8,0.3,1.2,0.3c0.5,0,0.9-0.1,1.3-0.3c0.3-0.2,0.5-0.5,0.5-0.9c0-0.3-0.1-0.5-0.2-0.7
		s-0.4-0.3-0.6-0.4c-0.2-0.1-0.6-0.2-1-0.3c-0.5-0.1-0.8-0.3-1.1-0.4c-0.3-0.1-0.5-0.3-0.7-0.6s-0.3-0.6-0.3-1
		c0-0.3,0.1-0.7,0.3-0.9c0.2-0.3,0.5-0.5,0.8-0.6c0.4-0.1,0.8-0.2,1.2-0.2c0.4,0,0.8,0.1,1.1,0.2c0.4,0.1,0.7,0.3,1,0.4l-0.3,0.6
		C712.5,294.3,712.2,294.2,711.9,294.1z"/>
	<path class="st1" d="M719.1,294.1c-0.4-0.2-0.7-0.2-1.1-0.2c-0.5,0-1,0.1-1.5,0.4c-0.4,0.3-0.8,0.6-1.1,1.1s-0.4,0.9-0.4,1.5
		s0.1,1,0.4,1.5c0.3,0.4,0.6,0.8,1.1,1.1c0.4,0.3,0.9,0.4,1.5,0.4c0.4,0,0.8-0.1,1.1-0.2c0.4-0.1,0.7-0.4,1-0.6l0.4,0.4
		c-0.3,0.3-0.7,0.6-1.2,0.8c-0.4,0.2-0.9,0.3-1.4,0.3c-0.7,0-1.2-0.2-1.8-0.5c-0.5-0.3-1-0.7-1.3-1.3c-0.3-0.5-0.5-1.1-0.5-1.8
		s0.2-1.2,0.5-1.8c0.3-0.5,0.8-1,1.3-1.3c0.5-0.3,1.1-0.5,1.8-0.5c0.5,0,0.9,0.1,1.4,0.3s0.8,0.4,1.1,0.7l-0.4,0.5
		C719.7,294.5,719.4,294.3,719.1,294.1z"/>
	<path class="st1" d="M727,300.3l-0.8-1.8h-3.8l-0.8,1.8h-0.7l3.1-6.9h0.7l3.1,6.9H727z M722.7,297.8h3.3l-1.7-3.7L722.7,297.8z"/>
	<path class="st1" d="M733.5,300.3L732,298c-0.2,0-0.4,0-0.5,0h-1.9v2.2h-0.7v-6.9h2.6c0.9,0,1.5,0.2,2,0.6c0.5,0.4,0.7,1,0.7,1.7
		c0,0.6-0.1,1-0.4,1.4c-0.3,0.4-0.7,0.6-1.2,0.8l1.7,2.4H733.5z M731.5,297.4c0.7,0,1.2-0.1,1.5-0.4c0.4-0.3,0.5-0.7,0.5-1.3
		c0-0.6-0.2-1-0.5-1.3s-0.9-0.4-1.5-0.4h-1.9v3.4H731.5z"/>
	<path class="st1" d="M702.6,312.1l-1.5-2.3c-0.2,0-0.4,0-0.5,0h-1.9v2.2h-0.7v-6.9h2.6c0.9,0,1.5,0.2,2,0.6c0.5,0.4,0.7,1,0.7,1.7
		c0,0.6-0.1,1-0.4,1.4c-0.3,0.4-0.7,0.6-1.2,0.8l1.7,2.4H702.6z M700.7,309.3c0.7,0,1.2-0.1,1.5-0.4c0.4-0.3,0.5-0.7,0.5-1.3
		c0-0.6-0.2-1-0.5-1.3s-0.9-0.4-1.5-0.4h-1.9v3.4H700.7z"/>
	<path class="st1" d="M705.2,305.2h4.6v0.6h-3.9v2.5h3.5v0.6h-3.5v2.6h4.1v0.6h-4.7V305.2z"/>
	<path class="st1" d="M711.6,305.2h0.8l2.7,5.2l2.7-5.2h0.8v6.9h-0.6l0-6l-2.7,5.2H715l-2.7-5.2v6h-0.6V305.2z"/>
	<path class="st1" d="M725.6,305.6c0.5,0.3,1,0.7,1.3,1.3c0.3,0.5,0.5,1.1,0.5,1.8s-0.2,1.2-0.5,1.8c-0.3,0.5-0.8,1-1.3,1.3
		c-0.5,0.3-1.2,0.5-1.8,0.5c-0.7,0-1.3-0.2-1.8-0.5c-0.5-0.3-1-0.7-1.3-1.3s-0.5-1.1-0.5-1.8s0.2-1.2,0.5-1.8c0.3-0.5,0.8-1,1.3-1.3
		c0.5-0.3,1.2-0.5,1.8-0.5C724.5,305.1,725.1,305.3,725.6,305.6z M722.4,306.1c-0.4,0.3-0.8,0.6-1.1,1c-0.3,0.4-0.4,0.9-0.4,1.5
		s0.1,1,0.4,1.5c0.3,0.4,0.6,0.8,1.1,1.1c0.4,0.3,0.9,0.4,1.5,0.4c0.5,0,1-0.1,1.4-0.4c0.4-0.3,0.8-0.6,1.1-1.1
		c0.3-0.4,0.4-0.9,0.4-1.5s-0.1-1-0.4-1.5c-0.3-0.4-0.6-0.8-1.1-1c-0.4-0.3-0.9-0.4-1.4-0.4C723.3,305.8,722.8,305.9,722.4,306.1z"
		/>
	<path class="st1" d="M727.8,305.2h0.7l2.5,6.1l2.4-6.1h0.7l-2.8,6.9h-0.7L727.8,305.2z"/>
	<path class="st1" d="M740,312.1l-0.8-1.8h-3.8l-0.8,1.8h-0.7l3.1-6.9h0.7l3.1,6.9H740z M735.6,309.7h3.3l-1.7-3.7L735.6,309.7z"/>
	<path class="st1" d="M741.9,305.2h0.7v6.3h3v0.6h-3.7V305.2z"/>
</g>
<g>
	<linearGradient id="SVGID_11_" gradientUnits="userSpaceOnUse" x1="772.3856" y1="152.0975" x2="796.665" y2="152.0975">
		<stop  offset="3.605769e-04" style="stop-color:#4EC4D3"/>
		<stop  offset="0.3128" style="stop-color:#57B1CE"/>
		<stop  offset="1" style="stop-color:#6482C1"/>
	</linearGradient>
	<circle class="st11" cx="784.5" cy="152.1" r="12.1"/>
	<g>
		<path class="st1" d="M776.6,153.9h-0.3l-1-1.3l-0.6,0.6v0.7h-0.3v-2.8h0.3v1.7l1.5-1.7h0.3l-1.1,1.2L776.6,153.9z"/>
		<path class="st1" d="M777.1,151.2h1.9v0.2h-1.6v1h1.4v0.2h-1.4v1h1.6v0.2h-1.9V151.2z"/>
		<path class="st1" d="M781.7,151.2l-1.1,1.8v1h-0.3v-1l-1.1-1.8h0.3l0.9,1.5l0.9-1.5H781.7z"/>
		<path class="st1" d="M785.5,151.2h0.3l-0.9,2.8h-0.3l-0.8-2.4l-0.8,2.4h-0.3l-0.9-2.8h0.3l0.8,2.5l0.8-2.5h0.3l0.8,2.5
			L785.5,151.2z"/>
		<path class="st1" d="M788.1,151.3c0.2,0.1,0.4,0.3,0.5,0.5c0.1,0.2,0.2,0.4,0.2,0.7s-0.1,0.5-0.2,0.7c-0.1,0.2-0.3,0.4-0.5,0.5
			c-0.2,0.1-0.5,0.2-0.7,0.2s-0.5-0.1-0.7-0.2c-0.2-0.1-0.4-0.3-0.5-0.5c-0.1-0.2-0.2-0.5-0.2-0.7s0.1-0.5,0.2-0.7
			c0.1-0.2,0.3-0.4,0.5-0.5c0.2-0.1,0.5-0.2,0.7-0.2S787.9,151.2,788.1,151.3z M786.8,151.5c-0.2,0.1-0.3,0.2-0.4,0.4
			c-0.1,0.2-0.2,0.4-0.2,0.6s0.1,0.4,0.2,0.6s0.2,0.3,0.4,0.4c0.2,0.1,0.4,0.2,0.6,0.2c0.2,0,0.4-0.1,0.6-0.2
			c0.2-0.1,0.3-0.2,0.4-0.4s0.2-0.4,0.2-0.6s-0.1-0.4-0.2-0.6c-0.1-0.2-0.2-0.3-0.4-0.4c-0.2-0.1-0.4-0.2-0.6-0.2
			C787.1,151.4,786.9,151.4,786.8,151.5z"/>
		<path class="st1" d="M791.2,153.9l-0.6-0.9c-0.1,0-0.1,0-0.2,0h-0.8v0.9h-0.3v-2.8h1c0.3,0,0.6,0.1,0.8,0.2s0.3,0.4,0.3,0.7
			c0,0.2-0.1,0.4-0.2,0.6c-0.1,0.2-0.3,0.3-0.5,0.3l0.7,1H791.2z M790.4,152.8c0.3,0,0.5-0.1,0.6-0.2c0.1-0.1,0.2-0.3,0.2-0.5
			c0-0.2-0.1-0.4-0.2-0.5c-0.1-0.1-0.3-0.2-0.6-0.2h-0.8v1.4H790.4z"/>
		<path class="st1" d="M794.1,151.4c0.2,0.1,0.4,0.3,0.5,0.5c0.1,0.2,0.2,0.4,0.2,0.7s-0.1,0.5-0.2,0.7c-0.1,0.2-0.3,0.4-0.5,0.5
			c-0.2,0.1-0.5,0.2-0.7,0.2h-1.1v-2.8h1.1C793.6,151.2,793.9,151.2,794.1,151.4z M793.9,153.5c0.2-0.1,0.3-0.2,0.4-0.4
			s0.2-0.4,0.2-0.6s-0.1-0.4-0.2-0.6c-0.1-0.2-0.2-0.3-0.4-0.4c-0.2-0.1-0.4-0.2-0.6-0.2h-0.8v2.3h0.8
			C793.6,153.7,793.8,153.6,793.9,153.5z"/>
	</g>
</g>
<g>
	<linearGradient id="SVGID_12_" gradientUnits="userSpaceOnUse" x1="791.252" y1="243.1451" x2="838.4971" y2="243.1451">
		<stop  offset="3.605769e-04" style="stop-color:#4EC4D3"/>
		<stop  offset="0.3128" style="stop-color:#57B1CE"/>
		<stop  offset="1" style="stop-color:#6482C1"/>
	</linearGradient>
	<circle class="st12" cx="814.9" cy="243.1" r="23.6"/>
	<g>
		<path class="st1" d="M803.4,241.9c-0.3-0.1-0.5-0.1-0.7-0.1c-0.4,0-0.7,0.1-0.9,0.2c-0.2,0.1-0.3,0.3-0.3,0.6
			c0,0.2,0.1,0.4,0.2,0.5c0.1,0.1,0.3,0.2,0.5,0.3s0.4,0.2,0.7,0.3c0.4,0.1,0.7,0.2,0.9,0.3c0.2,0.1,0.4,0.3,0.6,0.5
			s0.2,0.5,0.2,0.8c0,0.3-0.1,0.5-0.2,0.8c-0.2,0.2-0.4,0.4-0.7,0.5c-0.3,0.1-0.6,0.2-1,0.2c-0.4,0-0.7-0.1-1.1-0.2
			s-0.7-0.3-0.9-0.6l0.2-0.4c0.2,0.2,0.5,0.4,0.8,0.6s0.6,0.2,0.9,0.2c0.4,0,0.7-0.1,1-0.3c0.2-0.2,0.4-0.4,0.4-0.7
			c0-0.2-0.1-0.4-0.2-0.6c-0.1-0.1-0.3-0.3-0.5-0.3c-0.2-0.1-0.4-0.2-0.8-0.3c-0.4-0.1-0.7-0.2-0.9-0.3s-0.4-0.2-0.6-0.4
			c-0.2-0.2-0.2-0.5-0.2-0.8c0-0.3,0.1-0.5,0.2-0.7c0.2-0.2,0.4-0.4,0.6-0.5c0.3-0.1,0.6-0.2,1-0.2c0.3,0,0.6,0,0.9,0.1
			c0.3,0.1,0.6,0.2,0.8,0.3l-0.2,0.5C803.9,242.1,803.7,242,803.4,241.9z"/>
		<path class="st1" d="M805.1,241.3h4.1v0.5h-1.8v4.9h-0.5v-4.9h-1.8V241.3z"/>
		<path class="st1" d="M813.7,246.7l-1.2-1.8c-0.2,0-0.3,0-0.4,0h-1.5v1.7h-0.5v-5.4h2c0.7,0,1.2,0.2,1.6,0.5
			c0.4,0.3,0.5,0.8,0.5,1.3c0,0.4-0.1,0.8-0.3,1.1c-0.2,0.3-0.5,0.5-0.9,0.6l1.3,1.9H813.7z M812.1,244.5c0.5,0,0.9-0.1,1.2-0.4
			c0.3-0.2,0.4-0.6,0.4-1c0-0.4-0.1-0.8-0.4-1c-0.3-0.2-0.7-0.3-1.2-0.3h-1.5v2.7H812.1z"/>
		<path class="st1" d="M815.7,241.3h3.6v0.5h-3.1v1.9h2.7v0.5h-2.7v2h3.2v0.5h-3.7V241.3z"/>
		<path class="st1" d="M822.9,241.9c-0.3-0.1-0.5-0.1-0.7-0.1c-0.4,0-0.7,0.1-0.9,0.2c-0.2,0.1-0.3,0.3-0.3,0.6
			c0,0.2,0.1,0.4,0.2,0.5c0.1,0.1,0.3,0.2,0.5,0.3s0.4,0.2,0.7,0.3c0.4,0.1,0.7,0.2,0.9,0.3c0.2,0.1,0.4,0.3,0.6,0.5
			s0.2,0.5,0.2,0.8c0,0.3-0.1,0.5-0.2,0.8c-0.2,0.2-0.4,0.4-0.7,0.5c-0.3,0.1-0.6,0.2-1,0.2c-0.4,0-0.7-0.1-1.1-0.2
			s-0.7-0.3-0.9-0.6l0.2-0.4c0.2,0.2,0.5,0.4,0.8,0.6s0.6,0.2,0.9,0.2c0.4,0,0.7-0.1,1-0.3c0.2-0.2,0.4-0.4,0.4-0.7
			c0-0.2-0.1-0.4-0.2-0.6c-0.1-0.1-0.3-0.3-0.5-0.3c-0.2-0.1-0.4-0.2-0.8-0.3c-0.4-0.1-0.7-0.2-0.9-0.3s-0.4-0.2-0.6-0.4
			c-0.2-0.2-0.2-0.5-0.2-0.8c0-0.3,0.1-0.5,0.2-0.7c0.2-0.2,0.4-0.4,0.6-0.5c0.3-0.1,0.6-0.2,1-0.2c0.3,0,0.6,0,0.9,0.1
			c0.3,0.1,0.6,0.2,0.8,0.3l-0.2,0.5C823.4,242.1,823.2,242,822.9,241.9z"/>
		<path class="st1" d="M827.6,241.9c-0.3-0.1-0.5-0.1-0.7-0.1c-0.4,0-0.7,0.1-0.9,0.2c-0.2,0.1-0.3,0.3-0.3,0.6
			c0,0.2,0.1,0.4,0.2,0.5c0.1,0.1,0.3,0.2,0.5,0.3s0.4,0.2,0.7,0.3c0.4,0.1,0.7,0.2,0.9,0.3c0.2,0.1,0.4,0.3,0.6,0.5
			s0.2,0.5,0.2,0.8c0,0.3-0.1,0.5-0.2,0.8c-0.2,0.2-0.4,0.4-0.7,0.5c-0.3,0.1-0.6,0.2-1,0.2c-0.4,0-0.7-0.1-1.1-0.2
			s-0.7-0.3-0.9-0.6l0.2-0.4c0.2,0.2,0.5,0.4,0.8,0.6s0.6,0.2,0.9,0.2c0.4,0,0.7-0.1,1-0.3c0.2-0.2,0.4-0.4,0.4-0.7
			c0-0.2-0.1-0.4-0.2-0.6c-0.1-0.1-0.3-0.3-0.5-0.3c-0.2-0.1-0.4-0.2-0.8-0.3c-0.4-0.1-0.7-0.2-0.9-0.3s-0.4-0.2-0.6-0.4
			c-0.2-0.2-0.2-0.5-0.2-0.8c0-0.3,0.1-0.5,0.2-0.7c0.2-0.2,0.4-0.4,0.6-0.5c0.3-0.1,0.6-0.2,1-0.2c0.3,0,0.6,0,0.9,0.1
			c0.3,0.1,0.6,0.2,0.8,0.3l-0.2,0.5C828.1,242.1,827.9,242,827.6,241.9z"/>
	</g>
</g>
<g>
	<linearGradient id="SVGID_13_" gradientUnits="userSpaceOnUse" x1="780.4787" y1="372.6351" x2="865.4565" y2="372.6351">
		<stop  offset="3.605769e-04" style="stop-color:#4EC4D3"/>
		<stop  offset="0.3128" style="stop-color:#57B1CE"/>
		<stop  offset="1" style="stop-color:#6482C1"/>
	</linearGradient>
	<circle class="st13" cx="823" cy="372.6" r="42.5"/>
	<g>
		<path class="st1" d="M792.9,379.1l-2.1-3.2c-0.3,0-0.5,0-0.7,0h-2.7v3.1h-1v-9.7h3.6c1.2,0,2.1,0.3,2.8,0.8s1,1.4,1,2.4
			c0,0.8-0.2,1.5-0.6,2c-0.4,0.5-0.9,0.9-1.7,1.1l2.3,3.3H792.9z M790.1,375.1c0.9,0,1.6-0.2,2.1-0.6c0.5-0.4,0.7-1,0.7-1.8
			c0-0.8-0.2-1.4-0.7-1.8c-0.5-0.4-1.2-0.6-2.1-0.6h-2.7v4.8H790.1z"/>
		<path class="st1" d="M796.5,369.4h6.5v0.9h-5.5v3.5h4.9v0.9h-4.9v3.6h5.7v0.9h-6.7V369.4z"/>
		<path class="st1" d="M809.6,370.4c-0.5-0.1-0.9-0.2-1.3-0.2c-0.7,0-1.2,0.1-1.6,0.4s-0.6,0.6-0.6,1.1c0,0.4,0.1,0.7,0.3,1
			c0.2,0.2,0.5,0.4,0.8,0.6s0.8,0.3,1.3,0.5c0.7,0.2,1.2,0.4,1.6,0.6c0.4,0.2,0.7,0.5,1,0.8c0.3,0.4,0.4,0.8,0.4,1.4
			c0,0.5-0.1,1-0.4,1.4c-0.3,0.4-0.7,0.7-1.2,0.9c-0.5,0.2-1.1,0.3-1.8,0.3c-0.7,0-1.3-0.1-2-0.4c-0.6-0.3-1.2-0.6-1.7-1.1l0.4-0.8
			c0.4,0.4,0.9,0.8,1.5,1c0.6,0.2,1.1,0.4,1.7,0.4c0.7,0,1.3-0.1,1.8-0.4c0.4-0.3,0.7-0.7,0.7-1.2c0-0.4-0.1-0.7-0.3-1
			s-0.5-0.5-0.8-0.6c-0.3-0.1-0.8-0.3-1.4-0.5c-0.7-0.2-1.2-0.4-1.6-0.6c-0.4-0.2-0.7-0.4-1-0.8c-0.3-0.4-0.4-0.8-0.4-1.4
			c0-0.5,0.1-0.9,0.4-1.3c0.3-0.4,0.7-0.7,1.2-0.9c0.5-0.2,1.1-0.3,1.7-0.3c0.5,0,1.1,0.1,1.6,0.2c0.5,0.2,1,0.4,1.4,0.6l-0.4,0.8
			C810.5,370.7,810.1,370.5,809.6,370.4z"/>
		<path class="st1" d="M815.5,377.5c0.5,0.6,1.3,0.8,2.3,0.8c1,0,1.7-0.3,2.2-0.8c0.5-0.6,0.8-1.3,0.8-2.3v-5.8h1v5.8
			c0,1.3-0.4,2.2-1.1,2.9c-0.7,0.7-1.7,1.1-2.9,1.1c-1.3,0-2.2-0.4-3-1.1c-0.7-0.7-1.1-1.7-1.1-2.9v-5.8h1v5.8
			C814.7,376.1,815,376.9,815.5,377.5z"/>
		<path class="st1" d="M831,379.1l-2.1-3.2c-0.3,0-0.5,0-0.7,0h-2.7v3.1h-1v-9.7h3.6c1.2,0,2.1,0.3,2.8,0.8s1,1.4,1,2.4
			c0,0.8-0.2,1.5-0.6,2c-0.4,0.5-0.9,0.9-1.7,1.1l2.3,3.3H831z M828.2,375.1c0.9,0,1.6-0.2,2.1-0.6c0.5-0.4,0.7-1,0.7-1.8
			c0-0.8-0.2-1.4-0.7-1.8c-0.5-0.4-1.2-0.6-2.1-0.6h-2.7v4.8H828.2z"/>
		<path class="st1" d="M841.8,379.1l-1.1-2.6h-5.4l-1.1,2.6h-1l4.4-9.7h1l4.4,9.7H841.8z M835.7,375.6h4.6l-2.3-5.2L835.7,375.6z"/>
		<path class="st1" d="M849.9,370.5c-0.5-0.2-1-0.3-1.6-0.3c-0.7,0-1.4,0.2-2.1,0.5s-1.1,0.9-1.5,1.5c-0.4,0.6-0.5,1.3-0.5,2
			s0.2,1.4,0.5,2c0.4,0.6,0.9,1.1,1.5,1.5s1.3,0.5,2.1,0.5c0.5,0,1.1-0.1,1.6-0.3c0.5-0.2,1-0.5,1.4-0.9l0.6,0.6
			c-0.5,0.4-1,0.8-1.6,1.1c-0.6,0.3-1.3,0.4-1.9,0.4c-0.9,0-1.8-0.2-2.5-0.7c-0.8-0.4-1.4-1-1.8-1.8c-0.4-0.8-0.7-1.6-0.7-2.5
			s0.2-1.7,0.7-2.5c0.5-0.7,1.1-1.3,1.8-1.8c0.8-0.4,1.6-0.7,2.5-0.7c0.7,0,1.3,0.1,1.9,0.4c0.6,0.2,1.1,0.6,1.6,1l-0.6,0.7
			C850.9,371,850.4,370.7,849.9,370.5z"/>
		<path class="st1" d="M853.9,369.4h6.5v0.9h-5.5v3.5h4.9v0.9h-4.9v3.6h5.7v0.9h-6.7V369.4z"/>
	</g>
</g>
<g>
	<linearGradient id="SVGID_14_" gradientUnits="userSpaceOnUse" x1="829.0375" y1="190.5398" x2="861.41" y2="190.5398">
		<stop  offset="3.605769e-04" style="stop-color:#4EC4D3"/>
		<stop  offset="0.3128" style="stop-color:#57B1CE"/>
		<stop  offset="1" style="stop-color:#6482C1"/>
	</linearGradient>
	<circle class="st14" cx="845.2" cy="190.5" r="16.2"/>
	<g>
		<path class="st1" d="M841.5,185.7c-0.2-0.1-0.3-0.1-0.5-0.1c-0.3,0-0.5,0.1-0.6,0.2s-0.2,0.2-0.2,0.4c0,0.2,0,0.3,0.1,0.4
			c0.1,0.1,0.2,0.2,0.3,0.2s0.3,0.1,0.5,0.2c0.2,0.1,0.5,0.1,0.6,0.2c0.2,0.1,0.3,0.2,0.4,0.3s0.2,0.3,0.2,0.5
			c0,0.2-0.1,0.4-0.2,0.5c-0.1,0.2-0.3,0.3-0.5,0.4c-0.2,0.1-0.4,0.1-0.7,0.1c-0.3,0-0.5-0.1-0.8-0.2c-0.2-0.1-0.5-0.2-0.6-0.4
			l0.2-0.3c0.2,0.2,0.4,0.3,0.6,0.4c0.2,0.1,0.4,0.1,0.6,0.1c0.3,0,0.5-0.1,0.7-0.2c0.2-0.1,0.2-0.3,0.2-0.5c0-0.2,0-0.3-0.1-0.4
			c-0.1-0.1-0.2-0.2-0.3-0.2s-0.3-0.1-0.5-0.2c-0.2-0.1-0.5-0.1-0.6-0.2c-0.2-0.1-0.3-0.2-0.4-0.3c-0.1-0.1-0.2-0.3-0.2-0.5
			c0-0.2,0.1-0.4,0.2-0.5s0.3-0.2,0.4-0.3c0.2-0.1,0.4-0.1,0.7-0.1c0.2,0,0.4,0,0.6,0.1c0.2,0.1,0.4,0.1,0.5,0.2l-0.2,0.3
			C841.9,185.8,841.7,185.7,841.5,185.7z"/>
		<path class="st1" d="M843.8,188.4c0.2,0.2,0.5,0.3,0.9,0.3c0.4,0,0.7-0.1,0.9-0.3c0.2-0.2,0.3-0.5,0.3-0.9v-2.2h0.4v2.2
			c0,0.5-0.1,0.9-0.4,1.1c-0.3,0.3-0.6,0.4-1.1,0.4c-0.5,0-0.9-0.1-1.1-0.4c-0.3-0.3-0.4-0.6-0.4-1.1v-2.2h0.4v2.2
			C843.5,187.9,843.6,188.2,843.8,188.4z"/>
		<path class="st1" d="M849.9,185.3h0.4v3.7h-0.4l-2.3-3.1v3.1h-0.4v-3.7h0.4l2.3,3.1V185.3z"/>
		<path class="st1" d="M836.2,191.9c0.3,0.2,0.5,0.4,0.7,0.7c0.2,0.3,0.2,0.6,0.2,0.9c0,0.3-0.1,0.7-0.2,0.9
			c-0.2,0.3-0.4,0.5-0.7,0.7c-0.3,0.2-0.6,0.2-1,0.2h-1.5v-3.7h1.5C835.6,191.6,835.9,191.7,836.2,191.9z M836,194.8
			c0.2-0.1,0.4-0.3,0.6-0.5c0.1-0.2,0.2-0.5,0.2-0.8c0-0.3-0.1-0.5-0.2-0.8c-0.1-0.2-0.3-0.4-0.6-0.5c-0.2-0.1-0.5-0.2-0.8-0.2h-1.1
			v3h1.1C835.6,195,835.8,194.9,836,194.8z"/>
		<path class="st1" d="M840.6,195.3l-0.4-1h-2l-0.4,1h-0.4l1.7-3.7h0.4l1.7,3.7H840.6z M838.3,194h1.8l-0.9-2L838.3,194z"/>
		<path class="st1" d="M841.6,191.6h0.5l1.4,2.8l1.4-2.8h0.5v3.7h-0.3l0-3.2l-1.4,2.8h-0.2l-1.5-2.8v3.2h-0.3V191.6z"/>
		<path class="st1" d="M849.3,195.3l-0.4-1h-2l-0.4,1H846l1.7-3.7h0.4l1.7,3.7H849.3z M847,194h1.8l-0.9-2L847,194z"/>
		<path class="st1" d="M852.8,193.5h0.3v1.4c-0.2,0.2-0.4,0.3-0.6,0.4c-0.2,0.1-0.5,0.1-0.7,0.1c-0.3,0-0.7-0.1-1-0.3
			c-0.3-0.2-0.5-0.4-0.7-0.7c-0.2-0.3-0.3-0.6-0.3-0.9c0-0.3,0.1-0.7,0.3-0.9c0.2-0.3,0.4-0.5,0.7-0.7c0.3-0.2,0.6-0.3,1-0.3
			c0.2,0,0.5,0,0.7,0.1c0.2,0.1,0.4,0.2,0.6,0.4l-0.2,0.3c-0.2-0.1-0.3-0.2-0.5-0.3s-0.4-0.1-0.6-0.1c-0.3,0-0.5,0.1-0.8,0.2
			c-0.2,0.1-0.4,0.3-0.6,0.6c-0.1,0.2-0.2,0.5-0.2,0.8c0,0.3,0.1,0.5,0.2,0.8s0.3,0.4,0.6,0.6c0.2,0.1,0.5,0.2,0.8,0.2
			c0.2,0,0.4,0,0.5-0.1c0.2-0.1,0.3-0.1,0.5-0.2V193.5z"/>
		<path class="st1" d="M854.2,191.6h2.5v0.3h-2.1v1.3h1.9v0.3h-1.9v1.4h2.2v0.3h-2.5V191.6z"/>
	</g>
</g>
<g>
	<linearGradient id="SVGID_15_" gradientUnits="userSpaceOnUse" x1="820.9443" y1="111.6318" x2="857.3634" y2="111.6318">
		<stop  offset="3.605769e-04" style="stop-color:#4EC4D3"/>
		<stop  offset="0.3128" style="stop-color:#57B1CE"/>
		<stop  offset="1" style="stop-color:#6482C1"/>
	</linearGradient>
	<circle class="st15" cx="839.2" cy="111.6" r="18.2"/>
	<g>
		<path class="st1" d="M827.4,110.2h3.2v0.4h-1.4v3.8h-0.4v-3.8h-1.4V110.2z"/>
		<path class="st1" d="M831.2,110.2h0.4v4.1h-0.4V110.2z"/>
		<path class="st1" d="M834.7,110.7c-0.2-0.1-0.4-0.1-0.6-0.1c-0.3,0-0.5,0.1-0.7,0.2s-0.3,0.3-0.3,0.5c0,0.2,0,0.3,0.1,0.4
			c0.1,0.1,0.2,0.2,0.4,0.3c0.1,0.1,0.3,0.1,0.6,0.2c0.3,0.1,0.5,0.2,0.7,0.2c0.2,0.1,0.3,0.2,0.4,0.4s0.2,0.4,0.2,0.6
			c0,0.2-0.1,0.4-0.2,0.6c-0.1,0.2-0.3,0.3-0.5,0.4c-0.2,0.1-0.5,0.1-0.8,0.1c-0.3,0-0.6-0.1-0.8-0.2c-0.3-0.1-0.5-0.3-0.7-0.5
			l0.2-0.3c0.2,0.2,0.4,0.3,0.6,0.4c0.2,0.1,0.5,0.2,0.7,0.2c0.3,0,0.6-0.1,0.8-0.2c0.2-0.1,0.3-0.3,0.3-0.5c0-0.2,0-0.3-0.1-0.4
			c-0.1-0.1-0.2-0.2-0.4-0.3c-0.1-0.1-0.3-0.1-0.6-0.2c-0.3-0.1-0.5-0.2-0.7-0.2c-0.2-0.1-0.3-0.2-0.4-0.3s-0.2-0.4-0.2-0.6
			c0-0.2,0.1-0.4,0.2-0.6c0.1-0.2,0.3-0.3,0.5-0.4c0.2-0.1,0.5-0.1,0.7-0.1c0.2,0,0.5,0,0.7,0.1s0.4,0.2,0.6,0.3l-0.2,0.4
			C835.1,110.8,834.9,110.7,834.7,110.7z"/>
		<path class="st1" d="M838.3,110.7c-0.2-0.1-0.4-0.1-0.6-0.1c-0.3,0-0.5,0.1-0.7,0.2s-0.3,0.3-0.3,0.5c0,0.2,0,0.3,0.1,0.4
			c0.1,0.1,0.2,0.2,0.4,0.3c0.1,0.1,0.3,0.1,0.6,0.2c0.3,0.1,0.5,0.2,0.7,0.2c0.2,0.1,0.3,0.2,0.4,0.4s0.2,0.4,0.2,0.6
			c0,0.2-0.1,0.4-0.2,0.6c-0.1,0.2-0.3,0.3-0.5,0.4c-0.2,0.1-0.5,0.1-0.8,0.1c-0.3,0-0.6-0.1-0.8-0.2c-0.3-0.1-0.5-0.3-0.7-0.5
			l0.2-0.3c0.2,0.2,0.4,0.3,0.6,0.4c0.2,0.1,0.5,0.2,0.7,0.2c0.3,0,0.6-0.1,0.8-0.2c0.2-0.1,0.3-0.3,0.3-0.5c0-0.2,0-0.3-0.1-0.4
			c-0.1-0.1-0.2-0.2-0.4-0.3c-0.1-0.1-0.3-0.1-0.6-0.2c-0.3-0.1-0.5-0.2-0.7-0.2c-0.2-0.1-0.3-0.2-0.4-0.3s-0.2-0.4-0.2-0.6
			c0-0.2,0.1-0.4,0.2-0.6c0.1-0.2,0.3-0.3,0.5-0.4c0.2-0.1,0.5-0.1,0.7-0.1c0.2,0,0.5,0,0.7,0.1s0.4,0.2,0.6,0.3l-0.2,0.4
			C838.7,110.8,838.5,110.7,838.3,110.7z"/>
		<path class="st1" d="M840.8,113.7c0.2,0.2,0.6,0.4,1,0.4c0.4,0,0.7-0.1,1-0.4s0.3-0.6,0.3-1v-2.5h0.4v2.5c0,0.5-0.2,1-0.5,1.3
			s-0.7,0.5-1.3,0.5s-1-0.2-1.3-0.5s-0.5-0.7-0.5-1.3v-2.5h0.4v2.5C840.5,113.1,840.6,113.5,840.8,113.7z"/>
		<path class="st1" d="M844.7,110.2h2.8v0.4h-2.4v1.5h2.1v0.4h-2.1v1.6h2.4v0.4h-2.9V110.2z"/>
		<path class="st1" d="M850.3,110.7c-0.2-0.1-0.4-0.1-0.6-0.1c-0.3,0-0.5,0.1-0.7,0.2s-0.3,0.3-0.3,0.5c0,0.2,0,0.3,0.1,0.4
			c0.1,0.1,0.2,0.2,0.4,0.3c0.1,0.1,0.3,0.1,0.6,0.2c0.3,0.1,0.5,0.2,0.7,0.2c0.2,0.1,0.3,0.2,0.4,0.4s0.2,0.4,0.2,0.6
			c0,0.2-0.1,0.4-0.2,0.6c-0.1,0.2-0.3,0.3-0.5,0.4c-0.2,0.1-0.5,0.1-0.8,0.1c-0.3,0-0.6-0.1-0.8-0.2c-0.3-0.1-0.5-0.3-0.7-0.5
			l0.2-0.3c0.2,0.2,0.4,0.3,0.6,0.4c0.2,0.1,0.5,0.2,0.7,0.2c0.3,0,0.6-0.1,0.8-0.2c0.2-0.1,0.3-0.3,0.3-0.5c0-0.2,0-0.3-0.1-0.4
			c-0.1-0.1-0.2-0.2-0.4-0.3c-0.1-0.1-0.3-0.1-0.6-0.2c-0.3-0.1-0.5-0.2-0.7-0.2c-0.2-0.1-0.3-0.2-0.4-0.3s-0.2-0.4-0.2-0.6
			c0-0.2,0.1-0.4,0.2-0.6c0.1-0.2,0.3-0.3,0.5-0.4c0.2-0.1,0.5-0.1,0.7-0.1c0.2,0,0.5,0,0.7,0.1s0.4,0.2,0.6,0.3l-0.2,0.4
			C850.7,110.8,850.5,110.7,850.3,110.7z"/>
	</g>
</g>
<g>
	<linearGradient id="SVGID_16_" gradientUnits="userSpaceOnUse" x1="689.4311" y1="89.3757" x2="750.1295" y2="89.3757">
		<stop  offset="3.605769e-04" style="stop-color:#4EC4D3"/>
		<stop  offset="0.3128" style="stop-color:#57B1CE"/>
		<stop  offset="1" style="stop-color:#6482C1"/>
	</linearGradient>
	<circle class="st16" cx="719.8" cy="89.4" r="30.3"/>
	<g>
		<path class="st1" d="M710.5,87.1h0.7V94h-0.7l-4.3-5.9V94h-0.7v-6.9h0.7l4.3,5.9V87.1z"/>
		<path class="st1" d="M718.1,87.5c0.6,0.3,1,0.7,1.3,1.3c0.3,0.5,0.5,1.1,0.5,1.8s-0.2,1.2-0.5,1.8c-0.3,0.5-0.8,1-1.3,1.3
			s-1.2,0.5-1.8,0.5c-0.7,0-1.3-0.2-1.8-0.5s-1-0.7-1.3-1.3c-0.3-0.5-0.5-1.1-0.5-1.8s0.2-1.2,0.5-1.8s0.8-1,1.3-1.3
			c0.6-0.3,1.2-0.5,1.8-0.5C716.9,87,717.5,87.2,718.1,87.5z M714.8,88c-0.4,0.3-0.8,0.6-1.1,1c-0.3,0.4-0.4,0.9-0.4,1.5
			c0,0.5,0.1,1,0.4,1.5c0.3,0.4,0.6,0.8,1.1,1.1c0.4,0.3,0.9,0.4,1.5,0.4c0.5,0,1-0.1,1.4-0.4c0.4-0.3,0.8-0.6,1.1-1.1
			c0.3-0.4,0.4-0.9,0.4-1.5c0-0.5-0.1-1-0.4-1.5c-0.3-0.4-0.6-0.8-1.1-1c-0.4-0.3-0.9-0.4-1.4-0.4C715.8,87.6,715.3,87.7,714.8,88z"
			/>
		<path class="st1" d="M724.3,87.8c-0.3-0.1-0.7-0.1-0.9-0.1c-0.5,0-0.9,0.1-1.1,0.3c-0.3,0.2-0.4,0.4-0.4,0.8
			c0,0.3,0.1,0.5,0.2,0.7c0.2,0.2,0.4,0.3,0.6,0.4c0.2,0.1,0.5,0.2,0.9,0.3c0.5,0.1,0.8,0.3,1.1,0.4c0.3,0.1,0.5,0.3,0.7,0.6
			c0.2,0.3,0.3,0.6,0.3,1c0,0.4-0.1,0.7-0.3,1c-0.2,0.3-0.5,0.5-0.9,0.7c-0.4,0.2-0.8,0.2-1.3,0.2c-0.5,0-1-0.1-1.4-0.3
			c-0.5-0.2-0.9-0.4-1.2-0.8l0.3-0.6c0.3,0.3,0.7,0.5,1.1,0.7c0.4,0.2,0.8,0.3,1.2,0.3c0.5,0,0.9-0.1,1.3-0.3
			c0.3-0.2,0.5-0.5,0.5-0.9c0-0.3-0.1-0.5-0.2-0.7s-0.4-0.3-0.6-0.4c-0.2-0.1-0.6-0.2-1-0.3c-0.5-0.1-0.8-0.3-1.1-0.4
			c-0.3-0.1-0.5-0.3-0.7-0.6c-0.2-0.3-0.3-0.6-0.3-1c0-0.3,0.1-0.7,0.3-0.9c0.2-0.3,0.5-0.5,0.8-0.6c0.4-0.1,0.8-0.2,1.2-0.2
			c0.4,0,0.8,0.1,1.1,0.2s0.7,0.3,1,0.4l-0.3,0.6C724.9,88,724.6,87.9,724.3,87.8z"/>
		<path class="st1" d="M727.4,87.1h4.6v0.6h-3.9v2.5h3.5v0.6h-3.5v2.6h4.1V94h-4.8V87.1z"/>
	</g>
</g>
<g>
	<linearGradient id="SVGID_17_" gradientUnits="userSpaceOnUse" x1="559.941" y1="99.4921" x2="600.4067" y2="99.4921">
		<stop  offset="3.605769e-04" style="stop-color:#4EC4D3"/>
		<stop  offset="0.3128" style="stop-color:#57B1CE"/>
		<stop  offset="1" style="stop-color:#6482C1"/>
	</linearGradient>
	<circle class="st17" cx="580.2" cy="99.5" r="20.2"/>
	<g>
		<path class="st1" d="M569,98.5c-0.2-0.1-0.5-0.2-0.8-0.2c-0.4,0-0.7,0.1-1,0.3s-0.5,0.4-0.7,0.7c-0.2,0.3-0.3,0.6-0.3,1
			c0,0.4,0.1,0.7,0.3,1s0.4,0.5,0.7,0.7c0.3,0.2,0.6,0.3,1,0.3c0.3,0,0.5,0,0.7-0.1c0.2-0.1,0.5-0.2,0.6-0.4l0.3,0.3
			c-0.2,0.2-0.5,0.4-0.8,0.5c-0.3,0.1-0.6,0.2-0.9,0.2c-0.4,0-0.8-0.1-1.2-0.3s-0.7-0.5-0.9-0.9s-0.3-0.8-0.3-1.2
			c0-0.4,0.1-0.8,0.3-1.2c0.2-0.4,0.5-0.6,0.9-0.8s0.8-0.3,1.2-0.3c0.3,0,0.6,0.1,0.9,0.2c0.3,0.1,0.5,0.3,0.8,0.5l-0.3,0.3
			C569.5,98.7,569.2,98.6,569,98.5z"/>
		<path class="st1" d="M570.9,97.9h0.5v2.1h2.9v-2.1h0.5v4.6h-0.5v-2.1h-2.9v2.1h-0.5V97.9z"/>
		<path class="st1" d="M576.2,97.9h3.1v0.4h-2.6v1.6h2.4v0.4h-2.4v1.7h2.7v0.4h-3.2V97.9z"/>
		<path class="st1" d="M580.4,97.9h3.1v0.4h-2.6v1.6h2.4v0.4h-2.4v1.7h2.7v0.4h-3.2V97.9z"/>
		<path class="st1" d="M588.4,102.6h-0.6l-1.7-2.2l-0.9,1v1.2h-0.5v-4.6h0.5v2.8l2.6-2.8h0.6l-1.9,2L588.4,102.6z"/>
		<path class="st1" d="M591.2,98.4c-0.2-0.1-0.4-0.1-0.6-0.1c-0.3,0-0.6,0.1-0.8,0.2c-0.2,0.1-0.3,0.3-0.3,0.5
			c0,0.2,0.1,0.3,0.2,0.5s0.2,0.2,0.4,0.3c0.2,0.1,0.4,0.1,0.6,0.2c0.3,0.1,0.6,0.2,0.8,0.3c0.2,0.1,0.4,0.2,0.5,0.4
			c0.1,0.2,0.2,0.4,0.2,0.7c0,0.2-0.1,0.5-0.2,0.7s-0.3,0.3-0.6,0.4c-0.2,0.1-0.5,0.2-0.9,0.2c-0.3,0-0.6-0.1-0.9-0.2
			c-0.3-0.1-0.6-0.3-0.8-0.5l0.2-0.4c0.2,0.2,0.4,0.4,0.7,0.5c0.3,0.1,0.5,0.2,0.8,0.2c0.4,0,0.6-0.1,0.8-0.2
			c0.2-0.1,0.3-0.3,0.3-0.6c0-0.2-0.1-0.4-0.2-0.5c-0.1-0.1-0.2-0.2-0.4-0.3s-0.4-0.1-0.6-0.2c-0.3-0.1-0.6-0.2-0.8-0.3
			c-0.2-0.1-0.3-0.2-0.5-0.4c-0.1-0.2-0.2-0.4-0.2-0.7c0-0.2,0.1-0.4,0.2-0.6c0.1-0.2,0.3-0.3,0.6-0.4c0.2-0.1,0.5-0.1,0.8-0.1
			c0.3,0,0.5,0,0.8,0.1s0.5,0.2,0.7,0.3l-0.2,0.4C591.7,98.6,591.5,98.5,591.2,98.4z"/>
	</g>
</g>
<g>
	<linearGradient id="SVGID_18_" gradientUnits="userSpaceOnUse" x1="441.3497" y1="105.746" x2="513.5173" y2="105.746">
		<stop  offset="3.605769e-04" style="stop-color:#4EC4D3"/>
		<stop  offset="0.3128" style="stop-color:#57B1CE"/>
		<stop  offset="1" style="stop-color:#6482C1"/>
	</linearGradient>
	<circle class="st18" cx="477.4" cy="105.7" r="36.1"/>
	<g>
		<path class="st1" d="M459.3,103h0.9l2.9,7.3l2.9-7.3h0.9l-3.4,8.2h-0.8L459.3,103z"/>
		<path class="st1" d="M468.3,103h5.5v0.7h-4.7v2.9h4.2v0.7h-4.2v3.1h4.8v0.7h-5.7V103z"/>
		<path class="st1" d="M475.9,103h0.8v8.2h-0.8V103z"/>
		<path class="st1" d="M485.3,103h0.8v8.2h-0.9l-5.1-7v7h-0.8V103h0.9l5.1,7V103z"/>
		<path class="st1" d="M492.1,103.8c-0.4-0.1-0.8-0.2-1.1-0.2c-0.6,0-1,0.1-1.4,0.3c-0.3,0.2-0.5,0.5-0.5,0.9c0,0.3,0.1,0.6,0.3,0.8
			c0.2,0.2,0.4,0.4,0.7,0.5c0.3,0.1,0.7,0.3,1.1,0.4c0.6,0.2,1,0.3,1.3,0.5c0.3,0.2,0.6,0.4,0.9,0.7c0.2,0.3,0.4,0.7,0.4,1.2
			c0,0.4-0.1,0.8-0.4,1.2c-0.2,0.3-0.6,0.6-1,0.8c-0.4,0.2-1,0.3-1.5,0.3c-0.6,0-1.1-0.1-1.7-0.3s-1-0.5-1.4-0.9l0.4-0.7
			c0.4,0.4,0.8,0.6,1.3,0.8c0.5,0.2,1,0.3,1.4,0.3c0.6,0,1.1-0.1,1.5-0.4c0.4-0.3,0.6-0.6,0.6-1c0-0.3-0.1-0.6-0.3-0.8
			c-0.2-0.2-0.4-0.4-0.7-0.5c-0.3-0.1-0.7-0.3-1.2-0.4c-0.6-0.2-1-0.3-1.3-0.5s-0.6-0.4-0.9-0.7s-0.4-0.7-0.4-1.2
			c0-0.4,0.1-0.8,0.4-1.1s0.6-0.6,1-0.7s0.9-0.3,1.5-0.3c0.4,0,0.9,0.1,1.3,0.2c0.5,0.1,0.8,0.3,1.2,0.5l-0.4,0.7
			C492.9,104.1,492.5,104,492.1,103.8z"/>
	</g>
</g>
<g>
	<linearGradient id="SVGID_19_" gradientUnits="userSpaceOnUse" x1="229.0169" y1="101.6995" x2="345.4732" y2="101.6995">
		<stop  offset="3.605769e-04" style="stop-color:#4EC4D3"/>
		<stop  offset="0.3128" style="stop-color:#57B1CE"/>
		<stop  offset="1" style="stop-color:#6482C1"/>
	</linearGradient>
	<circle class="st19" cx="287.2" cy="101.7" r="58.2"/>
	<g>
		<path class="st1" d="M269.6,98.6c-0.6-0.2-1.3-0.3-1.8-0.3c-0.9,0-1.6,0.2-2.2,0.5c-0.6,0.4-0.8,0.9-0.8,1.5c0,0.5,0.2,1,0.5,1.3
			c0.3,0.3,0.7,0.6,1.1,0.8c0.4,0.2,1.1,0.4,1.8,0.7c0.9,0.3,1.6,0.5,2.2,0.8c0.6,0.3,1,0.6,1.4,1.1c0.4,0.5,0.6,1.1,0.6,2
			c0,0.7-0.2,1.3-0.6,1.9c-0.4,0.5-1,1-1.7,1.3s-1.6,0.4-2.5,0.4c-0.9,0-1.8-0.2-2.7-0.6c-0.9-0.4-1.6-0.9-2.3-1.5l0.6-1.1
			c0.6,0.6,1.3,1,2.1,1.4c0.8,0.3,1.6,0.5,2.3,0.5c1,0,1.8-0.2,2.4-0.6s0.9-1,0.9-1.7c0-0.6-0.2-1-0.5-1.4c-0.3-0.4-0.7-0.6-1.1-0.8
			s-1.1-0.4-1.9-0.7c-0.9-0.3-1.6-0.5-2.2-0.8c-0.5-0.2-1-0.6-1.4-1.1c-0.4-0.5-0.6-1.1-0.6-1.9c0-0.7,0.2-1.3,0.6-1.8
			c0.4-0.5,0.9-0.9,1.6-1.2c0.7-0.3,1.5-0.4,2.4-0.4c0.7,0,1.4,0.1,2.2,0.3s1.4,0.5,1.9,0.9l-0.6,1.1
			C270.8,99.1,270.2,98.8,269.6,98.6z"/>
		<path class="st1" d="M286.2,110.5h-1.6l-5-6.5l-2.7,2.9v3.5h-1.3V97.2h1.3v8.1l7.4-8.1h1.6l-5.3,5.8L286.2,110.5z"/>
		<path class="st1" d="M288.7,97.3h1.3v13.3h-1.3V97.3z"/>
		<path class="st1" d="M303.8,97.3h1.3v13.3h-1.4l-8.2-11.2v11.2h-1.3V97.3h1.4l8.2,11.2V97.3z"/>
	</g>
</g>
<g>
	<linearGradient id="SVGID_20_" gradientUnits="userSpaceOnUse" x1="141.8318" y1="47.2549" x2="190.7586" y2="47.2549">
		<stop  offset="3.605769e-04" style="stop-color:#4EC4D3"/>
		<stop  offset="0.3128" style="stop-color:#57B1CE"/>
		<stop  offset="1" style="stop-color:#6482C1"/>
	</linearGradient>
	<circle class="st20" cx="166.3" cy="47.3" r="24.5"/>
	<g>
		<path class="st1" d="M155.7,46.8h0.4l-1.4,4.2h-0.4l-1.2-3.7l-1.2,3.7h-0.4l-1.4-4.2h0.5l1.2,3.8l1.2-3.8h0.4l1.2,3.8L155.7,46.8z
			"/>
		<path class="st1" d="M159.6,51l-0.9-1.4c-0.1,0-0.2,0-0.3,0h-1.2V51h-0.4v-4.2h1.6c0.5,0,0.9,0.1,1.2,0.4c0.3,0.2,0.4,0.6,0.4,1
			c0,0.3-0.1,0.6-0.3,0.9s-0.4,0.4-0.7,0.5l1,1.4H159.6z M158.4,49.2c0.4,0,0.7-0.1,0.9-0.3c0.2-0.2,0.3-0.4,0.3-0.8
			c0-0.3-0.1-0.6-0.3-0.8c-0.2-0.2-0.5-0.3-0.9-0.3h-1.2v2.1H158.4z"/>
		<path class="st1" d="M161.2,46.8h0.4V51h-0.4V46.8z"/>
		<path class="st1" d="M165.9,46.8h0.4V51h-0.4l-2.6-3.6V51h-0.4v-4.2h0.4l2.6,3.6V46.8z"/>
		<path class="st1" d="M171,51h-0.5l-1.6-2l-0.9,0.9V51h-0.4v-4.2h0.4v2.6l2.3-2.6h0.5l-1.7,1.8L171,51z"/>
		<path class="st1" d="M171.8,46.8h0.4v3.8h1.8V51h-2.3V46.8z"/>
		<path class="st1" d="M174.9,46.8h2.8v0.4h-2.4v1.5h2.1V49h-2.1v1.6h2.5V51h-2.9V46.8z"/>
		<path class="st1" d="M180.6,47.2c-0.2-0.1-0.4-0.1-0.6-0.1c-0.3,0-0.5,0.1-0.7,0.2c-0.2,0.1-0.3,0.3-0.3,0.5c0,0.2,0,0.3,0.1,0.4
			c0.1,0.1,0.2,0.2,0.4,0.3c0.1,0.1,0.3,0.1,0.6,0.2c0.3,0.1,0.5,0.2,0.7,0.2c0.2,0.1,0.3,0.2,0.4,0.4c0.1,0.2,0.2,0.4,0.2,0.6
			c0,0.2-0.1,0.4-0.2,0.6c-0.1,0.2-0.3,0.3-0.5,0.4c-0.2,0.1-0.5,0.1-0.8,0.1c-0.3,0-0.6-0.1-0.9-0.2c-0.3-0.1-0.5-0.3-0.7-0.5
			l0.2-0.3c0.2,0.2,0.4,0.3,0.7,0.4s0.5,0.2,0.7,0.2c0.3,0,0.6-0.1,0.8-0.2c0.2-0.1,0.3-0.3,0.3-0.5c0-0.2,0-0.3-0.1-0.4
			c-0.1-0.1-0.2-0.2-0.4-0.3c-0.1-0.1-0.3-0.1-0.6-0.2c-0.3-0.1-0.5-0.2-0.7-0.2c-0.2-0.1-0.3-0.2-0.4-0.3c-0.1-0.2-0.2-0.4-0.2-0.6
			c0-0.2,0.1-0.4,0.2-0.6c0.1-0.2,0.3-0.3,0.5-0.4c0.2-0.1,0.5-0.1,0.8-0.1c0.2,0,0.5,0,0.7,0.1c0.2,0.1,0.4,0.2,0.6,0.3l-0.2,0.4
			C181,47.3,180.8,47.3,180.6,47.2z"/>
	</g>
</g>
<g>
	<linearGradient id="SVGID_21_" gradientUnits="userSpaceOnUse" x1="369.5686" y1="40.817" x2="418.4954" y2="40.817">
		<stop  offset="3.605769e-04" style="stop-color:#4EC4D3"/>
		<stop  offset="0.3128" style="stop-color:#57B1CE"/>
		<stop  offset="1" style="stop-color:#6482C1"/>
	</linearGradient>
	<circle class="st21" cx="394" cy="40.8" r="24.5"/>
	<g>
		<path class="st1" d="M386.6,39h3.5v0.5h-2.9v2.1h2.6v0.5h-2.6v2.4h-0.6V39z"/>
		<path class="st1" d="M394.8,39.3c0.4,0.2,0.8,0.6,1,1c0.3,0.4,0.4,0.9,0.4,1.4s-0.1,1-0.4,1.4s-0.6,0.8-1,1
			c-0.4,0.2-0.9,0.4-1.5,0.4h-2.2V39h2.2C393.9,39,394.3,39.1,394.8,39.3z M394.5,43.7c0.4-0.2,0.6-0.5,0.8-0.8s0.3-0.7,0.3-1.2
			s-0.1-0.8-0.3-1.2c-0.2-0.4-0.5-0.6-0.8-0.8c-0.4-0.2-0.7-0.3-1.2-0.3h-1.7V44h1.7C393.8,44,394.1,43.9,394.5,43.7z"/>
		<path class="st1" d="M401.4,44.5l-0.7-1.5h-3.1l-0.7,1.5h-0.6l2.5-5.6h0.6l2.5,5.6H401.4z M397.9,42.5h2.7l-1.3-3L397.9,42.5z"/>
	</g>
</g>
<g>
	<linearGradient id="SVGID_22_" gradientUnits="userSpaceOnUse" x1="905.7382" y1="83.3059" x2="954.6649" y2="83.3059">
		<stop  offset="3.605769e-04" style="stop-color:#4EC4D3"/>
		<stop  offset="0.3128" style="stop-color:#57B1CE"/>
		<stop  offset="1" style="stop-color:#6482C1"/>
	</linearGradient>
	<circle class="st22" cx="930.2" cy="83.3" r="24.5"/>
	<g>
		<path class="st1" d="M922.1,82c-0.3-0.1-0.5-0.1-0.8-0.1c-0.4,0-0.7,0.1-0.9,0.2s-0.3,0.4-0.3,0.6c0,0.2,0.1,0.4,0.2,0.6
			c0.1,0.1,0.3,0.3,0.5,0.3c0.2,0.1,0.4,0.2,0.8,0.3c0.4,0.1,0.7,0.2,0.9,0.3s0.4,0.3,0.6,0.5c0.2,0.2,0.2,0.5,0.2,0.8
			c0,0.3-0.1,0.6-0.3,0.8c-0.2,0.2-0.4,0.4-0.7,0.5c-0.3,0.1-0.7,0.2-1,0.2c-0.4,0-0.8-0.1-1.1-0.2c-0.4-0.2-0.7-0.4-1-0.6l0.3-0.5
			c0.2,0.2,0.5,0.4,0.9,0.6c0.3,0.1,0.7,0.2,1,0.2c0.4,0,0.8-0.1,1-0.3c0.2-0.2,0.4-0.4,0.4-0.7c0-0.2-0.1-0.4-0.2-0.6
			s-0.3-0.3-0.5-0.3c-0.2-0.1-0.4-0.2-0.8-0.3c-0.4-0.1-0.7-0.2-0.9-0.3c-0.2-0.1-0.4-0.3-0.6-0.5c-0.2-0.2-0.2-0.5-0.2-0.8
			c0-0.3,0.1-0.5,0.2-0.7c0.2-0.2,0.4-0.4,0.7-0.5c0.3-0.1,0.6-0.2,1-0.2c0.3,0,0.6,0,0.9,0.1s0.6,0.2,0.8,0.4l-0.2,0.5
			C922.7,82.2,922.4,82.1,922.1,82z"/>
		<path class="st1" d="M925.5,86.1c0.3,0.3,0.7,0.5,1.3,0.5c0.6,0,1-0.2,1.3-0.5c0.3-0.3,0.5-0.8,0.5-1.3v-3.3h0.5v3.3
			c0,0.7-0.2,1.3-0.6,1.7c-0.4,0.4-1,0.6-1.7,0.6c-0.7,0-1.3-0.2-1.7-0.6c-0.4-0.4-0.6-1-0.6-1.7v-3.3h0.5v3.3
			C925.1,85.3,925.2,85.8,925.5,86.1z"/>
		<path class="st1" d="M934.4,81.8c0.3,0.2,0.5,0.6,0.5,1c0,0.3-0.1,0.6-0.3,0.8c-0.2,0.2-0.4,0.4-0.8,0.4c0.4,0.1,0.7,0.2,1,0.5
			c0.2,0.2,0.3,0.6,0.3,0.9c0,0.5-0.2,0.9-0.5,1.1c-0.4,0.3-0.9,0.4-1.5,0.4h-2.4v-5.6h2.3C933.6,81.4,934.1,81.6,934.4,81.8z
			 M934,83.6c0.2-0.2,0.3-0.4,0.3-0.7c0-0.3-0.1-0.5-0.3-0.7c-0.2-0.2-0.5-0.3-0.9-0.2h-1.8v2h1.8C933.5,83.9,933.8,83.8,934,83.6z
			 M934.2,86.2c0.3-0.2,0.4-0.5,0.4-0.8c0-0.3-0.1-0.6-0.4-0.8c-0.3-0.2-0.6-0.3-1.1-0.3h-1.8v2.1h1.8
			C933.5,86.5,933.9,86.4,934.2,86.2z"/>
		<path class="st1" d="M942.1,87.5c-0.2,0.2-0.4,0.3-0.7,0.5s-0.5,0.2-0.7,0.2c-0.6,0-1.2-0.4-1.7-1.1h-0.1c-0.5,0-1-0.1-1.5-0.4
			c-0.4-0.3-0.8-0.6-1.1-1c-0.3-0.4-0.4-0.9-0.4-1.4s0.1-1,0.4-1.4c0.3-0.4,0.6-0.8,1.1-1c0.4-0.3,0.9-0.4,1.5-0.4
			c0.5,0,1,0.1,1.5,0.4c0.4,0.3,0.8,0.6,1.1,1c0.3,0.4,0.4,0.9,0.4,1.4c0,0.4-0.1,0.9-0.3,1.2c-0.2,0.4-0.5,0.7-0.8,1
			s-0.7,0.4-1.1,0.6c0.4,0.4,0.8,0.7,1.2,0.7c0.3,0,0.7-0.2,1.1-0.5L942.1,87.5z M936.8,85.4c0.2,0.4,0.5,0.6,0.9,0.9
			s0.8,0.3,1.2,0.3c0.4,0,0.8-0.1,1.2-0.3c0.4-0.2,0.6-0.5,0.9-0.9c0.2-0.4,0.3-0.8,0.3-1.2s-0.1-0.8-0.3-1.2
			c-0.2-0.4-0.5-0.6-0.9-0.8c-0.4-0.2-0.7-0.3-1.2-0.3c-0.4,0-0.8,0.1-1.2,0.3c-0.4,0.2-0.6,0.5-0.9,0.8c-0.2,0.4-0.3,0.7-0.3,1.2
			S936.6,85,936.8,85.4z"/>
	</g>
</g>
<g>
	<linearGradient id="SVGID_23_" gradientUnits="userSpaceOnUse" x1="398.0786" y1="407.0309" x2="446.6373" y2="407.0309">
		<stop  offset="3.605769e-04" style="stop-color:#4EC4D3"/>
		<stop  offset="0.3128" style="stop-color:#57B1CE"/>
		<stop  offset="1" style="stop-color:#6482C1"/>
	</linearGradient>
	<circle class="st23" cx="422.4" cy="407" r="24.3"/>
	<g>
		<path class="st1" d="M414.5,403.4h0.8v8.3h-0.8V403.4z"/>
		<path class="st1" d="M423.4,404.1c0.6,0.5,0.8,1.2,0.8,2c0,0.9-0.3,1.6-0.8,2.1c-0.6,0.5-1.4,0.8-2.4,0.8h-2.3v2.7H418v-8.3h3.1
			C422.1,403.4,422.9,403.6,423.4,404.1z M422.9,407.7c0.4-0.4,0.6-0.9,0.6-1.6c0-0.7-0.2-1.2-0.6-1.5c-0.4-0.3-1-0.5-1.8-0.5h-2.2
			v4.2h2.2C421.8,408.3,422.4,408.1,422.9,407.7z"/>
		<path class="st1" d="M425.9,403.4h0.8v7.6h3.7v0.7h-4.5V403.4z"/>
	</g>
</g>
</svg>
