<?xml version="1.0" encoding="utf-8"?>
<!-- Generator: Adobe Illustrator 23.0.3, SVG Export Plug-In . SVG Version: 6.00 Build 0)  -->
<svg version="1.1" id="Layer_4" xmlns="http://www.w3.org/2000/svg" xmlns:xlink="http://www.w3.org/1999/xlink" x="0px" y="0px"
	 viewBox="0 0 1000 532.3" style="enable-background:new 0 0 1000 532.3;" xml:space="preserve">
<style type="text/css">
	.st0{fill:url(#SVGID_1_);}
	.st1{fill:#FFFFFF;}
	.st2{fill:url(#SVGID_2_);}
	.st3{fill:url(#SVGID_3_);}
	.st4{fill:url(#SVGID_4_);}
	.st5{fill:url(#SVGID_5_);}
	.st6{fill:url(#SVGID_6_);}
	.st7{fill:url(#SVGID_7_);}
	.st8{fill:url(#SVGID_8_);}
	.st9{fill:url(#SVGID_9_);}
	.st10{fill:url(#SVGID_10_);}
	.st11{fill:url(#SVGID_11_);}
	.st12{fill:url(#SVGID_12_);}
</style>
<g>
	<linearGradient id="SVGID_1_" gradientUnits="userSpaceOnUse" x1="697.8193" y1="252.988" x2="781.556" y2="252.988">
		<stop  offset="3.605769e-04" style="stop-color:#4EC4D3"/>
		<stop  offset="0.3128" style="stop-color:#57B1CE"/>
		<stop  offset="1" style="stop-color:#6482C1"/>
	</linearGradient>
	<circle class="st0" cx="739.7" cy="253" r="41.9"/>
	<g>
		<path class="st1" d="M707.9,250.8c-0.5-0.1-0.9-0.2-1.3-0.2c-0.7,0-1.2,0.1-1.6,0.4c-0.4,0.3-0.6,0.6-0.6,1.1c0,0.4,0.1,0.7,0.3,1
			c0.2,0.2,0.5,0.4,0.8,0.6c0.3,0.1,0.8,0.3,1.3,0.5c0.6,0.2,1.2,0.4,1.6,0.6s0.7,0.5,1,0.8c0.3,0.4,0.4,0.8,0.4,1.4
			c0,0.5-0.1,1-0.4,1.4c-0.3,0.4-0.7,0.7-1.2,0.9s-1.1,0.3-1.8,0.3c-0.7,0-1.3-0.1-1.9-0.4c-0.6-0.3-1.2-0.6-1.6-1.1l0.4-0.8
			c0.4,0.4,0.9,0.7,1.5,1c0.6,0.2,1.1,0.4,1.7,0.4c0.7,0,1.3-0.1,1.7-0.4c0.4-0.3,0.6-0.7,0.6-1.2c0-0.4-0.1-0.7-0.3-1
			c-0.2-0.3-0.5-0.5-0.8-0.6c-0.3-0.1-0.8-0.3-1.3-0.5c-0.6-0.2-1.2-0.4-1.6-0.6c-0.4-0.2-0.7-0.4-1-0.8c-0.3-0.3-0.4-0.8-0.4-1.4
			c0-0.5,0.1-0.9,0.4-1.3c0.3-0.4,0.7-0.6,1.1-0.8c0.5-0.2,1.1-0.3,1.7-0.3c0.5,0,1,0.1,1.6,0.2c0.5,0.2,1,0.4,1.4,0.6l-0.4,0.8
			C708.8,251.1,708.4,250.9,707.9,250.8z"/>
		<path class="st1" d="M719.9,259.3h-1.2l-3.6-4.6l-1.9,2.1v2.5h-0.9v-9.6h0.9v5.8l5.3-5.8h1.1l-3.8,4.2L719.9,259.3z"/>
		<path class="st1" d="M721.7,249.8h0.9v9.5h-0.9V249.8z"/>
		<path class="st1" d="M732.6,249.8h0.9v9.5h-1l-5.9-8.1v8.1h-0.9v-9.5h1l5.9,8.1V249.8z"/>
		<path class="st1" d="M745.9,250.9c-0.5-0.2-1-0.3-1.6-0.3c-0.7,0-1.4,0.2-2,0.5s-1.1,0.8-1.5,1.5s-0.5,1.3-0.5,2
			c0,0.7,0.2,1.4,0.5,2s0.8,1.1,1.5,1.5s1.3,0.5,2,0.5c0.5,0,1-0.1,1.5-0.3c0.5-0.2,0.9-0.5,1.3-0.9l0.6,0.6c-0.5,0.4-1,0.8-1.6,1
			c-0.6,0.3-1.2,0.4-1.9,0.4c-0.9,0-1.7-0.2-2.5-0.7c-0.8-0.4-1.4-1-1.8-1.8s-0.7-1.6-0.7-2.4c0-0.9,0.2-1.7,0.7-2.4
			c0.4-0.7,1-1.3,1.8-1.8c0.8-0.4,1.6-0.6,2.5-0.6c0.6,0,1.3,0.1,1.9,0.4c0.6,0.2,1.1,0.6,1.6,1l-0.6,0.7
			C746.8,251.4,746.4,251.1,745.9,250.9z"/>
		<path class="st1" d="M756.9,259.3l-1.1-2.5h-5.3l-1.1,2.5h-1l4.3-9.5h1l4.3,9.5H756.9z M750.8,255.9h4.6l-2.3-5.2L750.8,255.9z"/>
		<path class="st1" d="M765.8,259.3l-2.1-3.1c-0.3,0-0.5,0-0.7,0h-2.6v3.1h-0.9v-9.5h3.6c1.2,0,2.1,0.3,2.8,0.8s1,1.3,1,2.3
			c0,0.8-0.2,1.5-0.6,2c-0.4,0.5-0.9,0.9-1.6,1.1l2.3,3.3H765.8z M763.1,255.4c0.9,0,1.6-0.2,2.1-0.6s0.7-1,0.7-1.8
			c0-0.8-0.2-1.3-0.7-1.7s-1.2-0.6-2.1-0.6h-2.6v4.8H763.1z"/>
		<path class="st1" d="M769.4,249.8h6.4v0.8h-5.4v3.4h4.9v0.8h-4.9v3.6h5.6v0.8h-6.6V249.8z"/>
	</g>
</g>
<g>
	<linearGradient id="SVGID_2_" gradientUnits="userSpaceOnUse" x1="267.062" y1="326.5298" x2="333.7604" y2="326.5298">
		<stop  offset="3.605769e-04" style="stop-color:#4EC4D3"/>
		<stop  offset="0.3128" style="stop-color:#57B1CE"/>
		<stop  offset="1" style="stop-color:#6482C1"/>
	</linearGradient>
	<circle class="st2" cx="300.4" cy="326.5" r="33.3"/>
	<g>
		<path class="st1" d="M278.6,325.8h0.5v4.8h-0.5l-3-4.1v4.1h-0.5v-4.8h0.5l3,4.1V325.8z"/>
		<path class="st1" d="M283.9,326.1c0.4,0.2,0.7,0.5,0.9,0.9s0.3,0.8,0.3,1.2s-0.1,0.9-0.3,1.2c-0.2,0.4-0.5,0.7-0.9,0.9
			c-0.4,0.2-0.8,0.3-1.3,0.3s-0.9-0.1-1.3-0.3c-0.4-0.2-0.7-0.5-0.9-0.9c-0.2-0.4-0.3-0.8-0.3-1.2s0.1-0.9,0.3-1.2s0.5-0.7,0.9-0.9
			c0.4-0.2,0.8-0.3,1.3-0.3S283.5,325.8,283.9,326.1z M281.6,326.4c-0.3,0.2-0.6,0.4-0.7,0.7c-0.2,0.3-0.3,0.6-0.3,1s0.1,0.7,0.3,1
			c0.2,0.3,0.4,0.6,0.7,0.7c0.3,0.2,0.7,0.3,1,0.3c0.4,0,0.7-0.1,1-0.3c0.3-0.2,0.6-0.4,0.7-0.7c0.2-0.3,0.3-0.7,0.3-1
			s-0.1-0.7-0.3-1c-0.2-0.3-0.4-0.5-0.7-0.7c-0.3-0.2-0.6-0.3-1-0.3C282.3,326.2,282,326.3,281.6,326.4z"/>
		<path class="st1" d="M289.7,325.8h0.5v4.8h-0.5l-3-4.1v4.1h-0.5v-4.8h0.5l3,4.1V325.8z"/>
		<path class="st1" d="M293.7,326.3c-0.2-0.1-0.5-0.1-0.7-0.1c-0.3,0-0.6,0.1-0.8,0.2c-0.2,0.1-0.3,0.3-0.3,0.5
			c0,0.2,0.1,0.4,0.2,0.5s0.2,0.2,0.4,0.3s0.4,0.2,0.7,0.2c0.3,0.1,0.6,0.2,0.8,0.3c0.2,0.1,0.4,0.2,0.5,0.4s0.2,0.4,0.2,0.7
			c0,0.3-0.1,0.5-0.2,0.7c-0.1,0.2-0.3,0.3-0.6,0.5c-0.3,0.1-0.6,0.2-0.9,0.2c-0.3,0-0.7-0.1-1-0.2s-0.6-0.3-0.8-0.5l0.2-0.4
			c0.2,0.2,0.5,0.4,0.7,0.5s0.6,0.2,0.8,0.2c0.4,0,0.7-0.1,0.9-0.2c0.2-0.1,0.3-0.3,0.3-0.6c0-0.2-0.1-0.4-0.2-0.5
			c-0.1-0.1-0.2-0.2-0.4-0.3c-0.2-0.1-0.4-0.1-0.7-0.2c-0.3-0.1-0.6-0.2-0.8-0.3c-0.2-0.1-0.4-0.2-0.5-0.4c-0.1-0.2-0.2-0.4-0.2-0.7
			c0-0.2,0.1-0.5,0.2-0.6c0.1-0.2,0.3-0.3,0.6-0.4c0.2-0.1,0.5-0.1,0.9-0.1c0.3,0,0.5,0,0.8,0.1c0.3,0.1,0.5,0.2,0.7,0.3l-0.2,0.4
			C294.1,326.4,293.9,326.3,293.7,326.3z"/>
		<path class="st1" d="M296.6,329.8c0.3,0.3,0.6,0.4,1.1,0.4s0.8-0.1,1.1-0.4s0.4-0.7,0.4-1.2v-2.9h0.5v2.9c0,0.6-0.2,1.1-0.5,1.5
			c-0.4,0.4-0.8,0.5-1.5,0.5s-1.1-0.2-1.5-0.5c-0.4-0.4-0.5-0.8-0.5-1.5v-2.9h0.5v2.9C296.2,329.1,296.3,329.5,296.6,329.8z"/>
		<path class="st1" d="M304.3,330.6l-1-1.6c-0.1,0-0.3,0-0.3,0h-1.3v1.6h-0.5v-4.8h1.8c0.6,0,1.1,0.1,1.4,0.4
			c0.3,0.3,0.5,0.7,0.5,1.2c0,0.4-0.1,0.7-0.3,1s-0.5,0.5-0.8,0.6l1.2,1.7H304.3z M302.9,328.6c0.5,0,0.8-0.1,1.1-0.3
			s0.4-0.5,0.4-0.9c0-0.4-0.1-0.7-0.4-0.9c-0.2-0.2-0.6-0.3-1.1-0.3h-1.3v2.4H302.9z"/>
		<path class="st1" d="M309.5,328.2h0.4v1.8c-0.2,0.2-0.5,0.4-0.8,0.5c-0.3,0.1-0.6,0.2-0.9,0.2c-0.5,0-0.9-0.1-1.3-0.3
			c-0.4-0.2-0.7-0.5-0.9-0.9c-0.2-0.4-0.3-0.8-0.3-1.2s0.1-0.9,0.3-1.2s0.5-0.7,0.9-0.9c0.4-0.2,0.8-0.3,1.3-0.3
			c0.3,0,0.6,0.1,0.9,0.2c0.3,0.1,0.6,0.3,0.8,0.5l-0.3,0.3c-0.2-0.2-0.4-0.3-0.7-0.4s-0.5-0.1-0.8-0.1c-0.4,0-0.7,0.1-1,0.3
			c-0.3,0.2-0.6,0.4-0.7,0.7c-0.2,0.3-0.3,0.6-0.3,1c0,0.4,0.1,0.7,0.3,1c0.2,0.3,0.4,0.6,0.7,0.7c0.3,0.2,0.7,0.3,1,0.3
			c0.2,0,0.5,0,0.7-0.1s0.4-0.2,0.6-0.3V328.2z"/>
		<path class="st1" d="M311.3,325.8h0.5v4.8h-0.5V325.8z"/>
		<path class="st1" d="M316.1,326.3c-0.3-0.1-0.5-0.2-0.8-0.2c-0.4,0-0.7,0.1-1,0.3c-0.3,0.2-0.6,0.4-0.7,0.7
			c-0.2,0.3-0.3,0.6-0.3,1s0.1,0.7,0.3,1c0.2,0.3,0.4,0.6,0.7,0.7c0.3,0.2,0.6,0.3,1,0.3c0.3,0,0.5-0.1,0.8-0.2
			c0.3-0.1,0.5-0.2,0.7-0.4l0.3,0.3c-0.2,0.2-0.5,0.4-0.8,0.5c-0.3,0.1-0.6,0.2-0.9,0.2c-0.5,0-0.9-0.1-1.2-0.3
			c-0.4-0.2-0.7-0.5-0.9-0.9c-0.2-0.4-0.3-0.8-0.3-1.2s0.1-0.9,0.3-1.2s0.5-0.7,0.9-0.9c0.4-0.2,0.8-0.3,1.3-0.3
			c0.3,0,0.6,0.1,0.9,0.2c0.3,0.1,0.6,0.3,0.8,0.5l-0.3,0.3C316.6,326.6,316.3,326.4,316.1,326.3z"/>
		<path class="st1" d="M321.6,330.6l-0.6-1.3h-2.7l-0.6,1.3h-0.5l2.2-4.8h0.5l2.2,4.8H321.6z M318.6,328.9h2.3l-1.2-2.6L318.6,328.9
			z"/>
		<path class="st1" d="M322.9,325.8h0.5v4.4h2.1v0.4h-2.6V325.8z"/>
	</g>
</g>
<linearGradient id="SVGID_3_" gradientUnits="userSpaceOnUse" x1="61.8197" y1="405.3034" x2="118.4715" y2="405.3034">
	<stop  offset="3.605769e-04" style="stop-color:#4EC4D3"/>
	<stop  offset="0.3128" style="stop-color:#57B1CE"/>
	<stop  offset="1" style="stop-color:#6482C1"/>
</linearGradient>
<circle class="st3" cx="90.1" cy="405.3" r="28.3"/>
<g>
	<linearGradient id="SVGID_4_" gradientUnits="userSpaceOnUse" x1="698.6585" y1="447.1589" x2="758.3536" y2="447.1589">
		<stop  offset="3.605769e-04" style="stop-color:#4EC4D3"/>
		<stop  offset="0.3128" style="stop-color:#57B1CE"/>
		<stop  offset="1" style="stop-color:#6482C1"/>
	</linearGradient>
	<circle class="st4" cx="728.5" cy="447.2" r="29.8"/>
	<g>
		<path class="st1" d="M707.9,444.9h5.2v0.6h-2.2v6.2h-0.7v-6.2h-2.2V444.9z"/>
		<path class="st1" d="M714.3,444.9h0.7v6.8h-0.7V444.9z"/>
		<path class="st1" d="M721.9,448.4h0.6v2.5c-0.3,0.3-0.7,0.5-1.2,0.7c-0.4,0.2-0.9,0.2-1.3,0.2c-0.6,0-1.2-0.2-1.8-0.5
			c-0.5-0.3-1-0.7-1.3-1.3c-0.3-0.5-0.5-1.1-0.5-1.7c0-0.6,0.2-1.2,0.5-1.7c0.3-0.5,0.8-0.9,1.3-1.2c0.5-0.3,1.1-0.5,1.8-0.5
			c0.5,0,0.9,0.1,1.3,0.2s0.8,0.4,1.1,0.7l-0.4,0.5c-0.3-0.3-0.6-0.5-1-0.6s-0.7-0.2-1.1-0.2c-0.5,0-1,0.1-1.4,0.4s-0.8,0.6-1.1,1
			c-0.3,0.4-0.4,0.9-0.4,1.4c0,0.5,0.1,1,0.4,1.4c0.3,0.4,0.6,0.8,1.1,1c0.4,0.3,0.9,0.4,1.5,0.4c0.3,0,0.6-0.1,1-0.2
			c0.3-0.1,0.6-0.3,0.9-0.5V448.4z"/>
		<path class="st1" d="M724.4,444.9h0.7v3.1h4.3v-3.1h0.7v6.8h-0.7v-3.1h-4.3v3.1h-0.7V444.9z"/>
		<path class="st1" d="M731.2,444.9h5.2v0.6h-2.2v6.2h-0.7v-6.2h-2.2V444.9z"/>
		<path class="st1" d="M737.5,444.9h4.6v0.6h-3.9v2.4h3.5v0.6h-3.5v2.6h4v0.6h-4.7V444.9z"/>
		<path class="st1" d="M748.8,444.9h0.7v6.8h-0.7l-4.2-5.8v5.8h-0.7v-6.8h0.7l4.2,5.8V444.9z"/>
	</g>
</g>
<g>
	<linearGradient id="SVGID_5_" gradientUnits="userSpaceOnUse" x1="399.3319" y1="252.3692" x2="443.8441" y2="252.3692">
		<stop  offset="3.605769e-04" style="stop-color:#4EC4D3"/>
		<stop  offset="0.3128" style="stop-color:#57B1CE"/>
		<stop  offset="1" style="stop-color:#6482C1"/>
	</linearGradient>
	<circle class="st5" cx="421.6" cy="252.4" r="22.3"/>
	<g>
		<path class="st1" d="M414.4,251c0.4,0.2,0.7,0.5,0.9,0.9c0.2,0.4,0.3,0.8,0.3,1.3s-0.1,0.9-0.3,1.3c-0.2,0.4-0.5,0.7-0.9,0.9
			c-0.4,0.2-0.8,0.3-1.3,0.3h-2v-5.1h2C413.5,250.7,414,250.8,414.4,251z M414.1,255c0.3-0.2,0.6-0.4,0.8-0.8
			c0.2-0.3,0.3-0.7,0.3-1.1s-0.1-0.7-0.3-1.1s-0.4-0.6-0.8-0.8s-0.7-0.3-1.1-0.3h-1.5v4.2h1.6C413.5,255.3,413.8,255.2,414.1,255z"
			/>
		<path class="st1" d="M416.8,250.7h3.4v0.5h-2.9v1.8h2.6v0.4h-2.6v1.9h3v0.4h-3.5V250.7z"/>
		<path class="st1" d="M424.8,255.7l-1.1-1.7c-0.2,0-0.3,0-0.4,0H422v1.6h-0.5v-5.1h1.9c0.6,0,1.1,0.1,1.5,0.4
			c0.3,0.3,0.5,0.7,0.5,1.2c0,0.4-0.1,0.8-0.3,1.1c-0.2,0.3-0.5,0.5-0.9,0.6l1.2,1.7H424.8z M423.4,253.7c0.5,0,0.9-0.1,1.1-0.3
			c0.3-0.2,0.4-0.5,0.4-1c0-0.4-0.1-0.7-0.4-0.9c-0.3-0.2-0.6-0.3-1.1-0.3H422v2.5H423.4z"/>
		<path class="st1" d="M426.7,250.7h0.6l2,3.8l2-3.8h0.6v5.1h-0.5l0-4.4l-2,3.8h-0.3l-2-3.8v4.4h-0.5V250.7z"/>
	</g>
</g>
<g>
	<linearGradient id="SVGID_6_" gradientUnits="userSpaceOnUse" x1="396.8595" y1="63.1342" x2="481.8373" y2="63.1342">
		<stop  offset="3.605769e-04" style="stop-color:#4EC4D3"/>
		<stop  offset="0.3128" style="stop-color:#57B1CE"/>
		<stop  offset="1" style="stop-color:#6482C1"/>
	</linearGradient>
	<circle class="st6" cx="439.3" cy="63.1" r="42.5"/>
	<g>
		<path class="st1" d="M409.1,69.6l-1.8-2.7c-0.3,0-0.4,0-0.6,0h-2.3v2.7h-0.8v-8.3h3.1c1,0,1.8,0.2,2.4,0.7c0.6,0.5,0.8,1.2,0.8,2
			c0,0.7-0.2,1.3-0.5,1.7c-0.3,0.5-0.8,0.8-1.4,1l2,2.9H409.1z M406.8,66.2c0.8,0,1.4-0.2,1.8-0.5c0.4-0.4,0.6-0.9,0.6-1.6
			c0-0.7-0.2-1.2-0.6-1.5c-0.4-0.3-1-0.5-1.8-0.5h-2.3v4.1H406.8z"/>
		<path class="st1" d="M412.2,61.3h5.5V62h-4.7v3h4.2v0.7h-4.2v3.1h4.9v0.7h-5.7V61.3z"/>
		<path class="st1" d="M423.4,62.1c-0.4-0.1-0.8-0.2-1.1-0.2c-0.6,0-1,0.1-1.4,0.3c-0.3,0.2-0.5,0.5-0.5,0.9c0,0.3,0.1,0.6,0.3,0.8
			c0.2,0.2,0.4,0.4,0.7,0.5s0.7,0.3,1.1,0.4c0.6,0.2,1,0.3,1.4,0.5s0.6,0.4,0.9,0.7c0.2,0.3,0.4,0.7,0.4,1.2c0,0.4-0.1,0.8-0.4,1.2
			c-0.2,0.3-0.6,0.6-1,0.8s-1,0.3-1.6,0.3c-0.6,0-1.1-0.1-1.7-0.3c-0.5-0.2-1-0.5-1.4-0.9l0.4-0.7c0.4,0.4,0.8,0.6,1.3,0.9
			c0.5,0.2,1,0.3,1.4,0.3c0.6,0,1.1-0.1,1.5-0.4c0.4-0.3,0.6-0.6,0.6-1c0-0.3-0.1-0.6-0.3-0.9c-0.2-0.2-0.4-0.4-0.7-0.5
			c-0.3-0.1-0.7-0.3-1.2-0.4c-0.6-0.2-1-0.3-1.4-0.5c-0.3-0.2-0.6-0.4-0.9-0.7c-0.2-0.3-0.4-0.7-0.4-1.2c0-0.4,0.1-0.8,0.4-1.1
			c0.2-0.3,0.6-0.6,1-0.7s0.9-0.3,1.5-0.3c0.5,0,0.9,0.1,1.4,0.2s0.9,0.3,1.2,0.5l-0.4,0.7C424.2,62.4,423.8,62.3,423.4,62.1z"/>
		<path class="st1" d="M428.5,68.2c0.5,0.5,1.1,0.7,1.9,0.7s1.5-0.2,1.9-0.7c0.5-0.5,0.7-1.1,0.7-2v-4.9h0.8v4.9
			c0,1.1-0.3,1.9-0.9,2.5c-0.6,0.6-1.4,0.9-2.5,0.9s-1.9-0.3-2.5-0.9c-0.6-0.6-0.9-1.4-0.9-2.5v-4.9h0.8v4.9
			C427.8,67.1,428,67.7,428.5,68.2z"/>
		<path class="st1" d="M441.7,69.6l-1.8-2.7c-0.3,0-0.4,0-0.6,0h-2.3v2.7h-0.8v-8.3h3.1c1,0,1.8,0.2,2.4,0.7c0.6,0.5,0.8,1.2,0.8,2
			c0,0.7-0.2,1.3-0.5,1.7c-0.3,0.5-0.8,0.8-1.4,1l2,2.9H441.7z M439.3,66.2c0.8,0,1.4-0.2,1.8-0.5c0.4-0.4,0.6-0.9,0.6-1.6
			c0-0.7-0.2-1.2-0.6-1.5c-0.4-0.3-1-0.5-1.8-0.5h-2.3v4.1H439.3z"/>
		<path class="st1" d="M444.8,61.3h5.2V62h-4.4v3.2h3.9v0.7h-3.9v3.6h-0.8V61.3z"/>
		<path class="st1" d="M457.3,69.6l-1-2.2h-4.6l-1,2.2h-0.9l3.7-8.3h0.9l3.7,8.3H457.3z M452.1,66.6h4l-2-4.5L452.1,66.6z"/>
		<path class="st1" d="M464.3,62.2c-0.4-0.2-0.9-0.3-1.4-0.3c-0.6,0-1.2,0.2-1.8,0.5s-1,0.7-1.3,1.3c-0.3,0.5-0.5,1.1-0.5,1.7
			s0.2,1.2,0.5,1.7c0.3,0.5,0.7,0.9,1.3,1.3s1.1,0.5,1.8,0.5c0.5,0,0.9-0.1,1.3-0.3s0.8-0.4,1.2-0.7l0.5,0.5
			c-0.4,0.4-0.9,0.7-1.4,0.9s-1.1,0.3-1.6,0.3c-0.8,0-1.5-0.2-2.2-0.6c-0.7-0.4-1.2-0.9-1.6-1.5c-0.4-0.6-0.6-1.4-0.6-2.1
			s0.2-1.5,0.6-2.1c0.4-0.6,0.9-1.1,1.6-1.5c0.7-0.4,1.4-0.6,2.2-0.6c0.6,0,1.1,0.1,1.6,0.3c0.5,0.2,1,0.5,1.4,0.9l-0.5,0.6
			C465.1,62.6,464.7,62.4,464.3,62.2z"/>
		<path class="st1" d="M467.7,61.3h5.5V62h-4.7v3h4.2v0.7h-4.2v3.1h4.9v0.7h-5.7V61.3z"/>
	</g>
</g>
<g>
	<linearGradient id="SVGID_7_" gradientUnits="userSpaceOnUse" x1="584.4395" y1="199.6446" x2="649.1844" y2="199.6446">
		<stop  offset="3.605769e-04" style="stop-color:#4EC4D3"/>
		<stop  offset="0.3128" style="stop-color:#57B1CE"/>
		<stop  offset="1" style="stop-color:#6482C1"/>
	</linearGradient>
	<circle class="st7" cx="616.8" cy="199.6" r="32.4"/>
	<g>
		<path class="st1" d="M597.6,197.8c0.5,0.4,0.7,1,0.7,1.8c0,0.8-0.2,1.4-0.7,1.9c-0.5,0.4-1.2,0.7-2.1,0.7h-2v2.4h-0.7v-7.4h2.7
			C596.4,197.2,597.1,197.4,597.6,197.8z M597.1,201c0.4-0.3,0.6-0.8,0.6-1.4c0-0.6-0.2-1-0.6-1.4s-0.9-0.5-1.6-0.5h-2v3.7h2
			C596.2,201.5,596.7,201.3,597.1,201z"/>
		<path class="st1" d="M605,204.5l-0.9-2H600l-0.9,2h-0.8l3.3-7.4h0.8l3.3,7.4H605z M600.3,201.9h3.5l-1.8-4L600.3,201.9z"/>
		<path class="st1" d="M607,197.2h0.7v7.4H607V197.2z"/>
		<path class="st1" d="M615.4,197.2h0.7v7.4h-0.8l-4.6-6.2v6.2H610v-7.4h0.8l4.6,6.2V197.2z"/>
		<path class="st1" d="M618.4,197.2h0.7v6.7h3.2v0.7h-4V197.2z"/>
		<path class="st1" d="M623.8,197.2h4.9v0.7h-4.2v2.6h3.8v0.7h-3.8v2.8h4.3v0.7h-5.1V197.2z"/>
		<path class="st1" d="M633.8,197.9c-0.4-0.1-0.7-0.2-1-0.2c-0.5,0-0.9,0.1-1.2,0.3s-0.5,0.5-0.5,0.8c0,0.3,0.1,0.5,0.3,0.7
			c0.2,0.2,0.4,0.3,0.6,0.4c0.2,0.1,0.6,0.2,1,0.4c0.5,0.1,0.9,0.3,1.2,0.4s0.6,0.4,0.8,0.6c0.2,0.3,0.3,0.6,0.3,1.1
			c0,0.4-0.1,0.7-0.3,1c-0.2,0.3-0.5,0.5-0.9,0.7c-0.4,0.2-0.9,0.2-1.4,0.2c-0.5,0-1-0.1-1.5-0.3c-0.5-0.2-0.9-0.5-1.3-0.8l0.3-0.6
			c0.3,0.3,0.7,0.6,1.2,0.8c0.4,0.2,0.9,0.3,1.3,0.3c0.6,0,1-0.1,1.3-0.3s0.5-0.5,0.5-0.9c0-0.3-0.1-0.6-0.3-0.8s-0.4-0.3-0.6-0.5
			s-0.6-0.2-1-0.4c-0.5-0.2-0.9-0.3-1.2-0.4c-0.3-0.1-0.6-0.3-0.8-0.6c-0.2-0.3-0.3-0.6-0.3-1.1c0-0.4,0.1-0.7,0.3-1
			c0.2-0.3,0.5-0.5,0.9-0.6s0.8-0.2,1.3-0.2c0.4,0,0.8,0.1,1.2,0.2c0.4,0.1,0.8,0.3,1.1,0.5l-0.3,0.6
			C634.5,198.2,634.2,198,633.8,197.9z"/>
		<path class="st1" d="M640.2,197.9c-0.4-0.1-0.7-0.2-1-0.2c-0.5,0-0.9,0.1-1.2,0.3s-0.5,0.5-0.5,0.8c0,0.3,0.1,0.5,0.3,0.7
			c0.2,0.2,0.4,0.3,0.6,0.4c0.2,0.1,0.6,0.2,1,0.4c0.5,0.1,0.9,0.3,1.2,0.4s0.6,0.4,0.8,0.6c0.2,0.3,0.3,0.6,0.3,1.1
			c0,0.4-0.1,0.7-0.3,1c-0.2,0.3-0.5,0.5-0.9,0.7c-0.4,0.2-0.9,0.2-1.4,0.2c-0.5,0-1-0.1-1.5-0.3c-0.5-0.2-0.9-0.5-1.3-0.8l0.3-0.6
			c0.3,0.3,0.7,0.6,1.2,0.8c0.4,0.2,0.9,0.3,1.3,0.3c0.6,0,1-0.1,1.3-0.3s0.5-0.5,0.5-0.9c0-0.3-0.1-0.6-0.3-0.8s-0.4-0.3-0.6-0.5
			s-0.6-0.2-1-0.4c-0.5-0.2-0.9-0.3-1.2-0.4c-0.3-0.1-0.6-0.3-0.8-0.6c-0.2-0.3-0.3-0.6-0.3-1.1c0-0.4,0.1-0.7,0.3-1
			c0.2-0.3,0.5-0.5,0.9-0.6s0.8-0.2,1.3-0.2c0.4,0,0.8,0.1,1.2,0.2c0.4,0.1,0.8,0.3,1.1,0.5l-0.3,0.6
			C640.9,198.2,640.6,198,640.2,197.9z"/>
	</g>
</g>
<g>
	<linearGradient id="SVGID_8_" gradientUnits="userSpaceOnUse" x1="679.4839" y1="342.5649" x2="719.9495" y2="342.5649">
		<stop  offset="3.605769e-04" style="stop-color:#4EC4D3"/>
		<stop  offset="0.3128" style="stop-color:#57B1CE"/>
		<stop  offset="1" style="stop-color:#6482C1"/>
	</linearGradient>
	<circle class="st8" cx="699.7" cy="342.6" r="20.2"/>
	<g>
		<path class="st1" d="M688.5,341.5c-0.2-0.1-0.5-0.2-0.8-0.2c-0.4,0-0.7,0.1-1,0.3c-0.3,0.2-0.5,0.4-0.7,0.7
			c-0.2,0.3-0.3,0.6-0.3,1c0,0.4,0.1,0.7,0.3,1c0.2,0.3,0.4,0.5,0.7,0.7c0.3,0.2,0.6,0.3,1,0.3c0.3,0,0.5,0,0.7-0.1
			c0.2-0.1,0.5-0.2,0.6-0.4l0.3,0.3c-0.2,0.2-0.5,0.4-0.8,0.5c-0.3,0.1-0.6,0.2-0.9,0.2c-0.4,0-0.8-0.1-1.2-0.3s-0.7-0.5-0.9-0.9
			s-0.3-0.8-0.3-1.2c0-0.4,0.1-0.8,0.3-1.2c0.2-0.4,0.5-0.6,0.9-0.8s0.8-0.3,1.2-0.3c0.3,0,0.6,0.1,0.9,0.2s0.5,0.3,0.8,0.5
			l-0.3,0.3C689,341.8,688.8,341.6,688.5,341.5z"/>
		<path class="st1" d="M690.5,341h0.5v2.1h2.9V341h0.5v4.6h-0.5v-2.1h-2.9v2.1h-0.5V341z"/>
		<path class="st1" d="M695.7,341h3.1v0.4h-2.6v1.6h2.4v0.4h-2.4v1.7h2.7v0.4h-3.2V341z"/>
		<path class="st1" d="M700,341h3.1v0.4h-2.6v1.6h2.4v0.4h-2.4v1.7h2.7v0.4H700V341z"/>
		<path class="st1" d="M708,345.6h-0.6l-1.7-2.2l-0.9,1v1.2h-0.5V341h0.5v2.8l2.6-2.8h0.6l-1.9,2L708,345.6z"/>
		<path class="st1" d="M710.8,341.5c-0.2-0.1-0.4-0.1-0.6-0.1c-0.3,0-0.6,0.1-0.8,0.2c-0.2,0.1-0.3,0.3-0.3,0.5
			c0,0.2,0.1,0.3,0.2,0.5c0.1,0.1,0.2,0.2,0.4,0.3c0.2,0.1,0.4,0.1,0.6,0.2c0.3,0.1,0.6,0.2,0.8,0.3s0.4,0.2,0.5,0.4
			c0.1,0.2,0.2,0.4,0.2,0.7c0,0.2-0.1,0.5-0.2,0.7c-0.1,0.2-0.3,0.3-0.6,0.4c-0.2,0.1-0.5,0.2-0.9,0.2c-0.3,0-0.6-0.1-0.9-0.2
			c-0.3-0.1-0.6-0.3-0.8-0.5l0.2-0.4c0.2,0.2,0.4,0.4,0.7,0.5s0.5,0.2,0.8,0.2c0.4,0,0.6-0.1,0.8-0.2c0.2-0.1,0.3-0.3,0.3-0.6
			c0-0.2-0.1-0.4-0.2-0.5c-0.1-0.1-0.2-0.2-0.4-0.3c-0.2-0.1-0.4-0.1-0.6-0.2c-0.3-0.1-0.6-0.2-0.8-0.3c-0.2-0.1-0.3-0.2-0.5-0.4
			c-0.1-0.2-0.2-0.4-0.2-0.7c0-0.2,0.1-0.4,0.2-0.6c0.1-0.2,0.3-0.3,0.6-0.4c0.2-0.1,0.5-0.1,0.8-0.1c0.3,0,0.5,0,0.8,0.1
			c0.3,0.1,0.5,0.2,0.7,0.3l-0.2,0.4C711.2,341.7,711,341.6,710.8,341.5z"/>
	</g>
</g>
<g>
	<linearGradient id="SVGID_9_" gradientUnits="userSpaceOnUse" x1="208.3175" y1="441.3872" x2="280.4851" y2="441.3872">
		<stop  offset="3.605769e-04" style="stop-color:#4EC4D3"/>
		<stop  offset="0.3128" style="stop-color:#57B1CE"/>
		<stop  offset="1" style="stop-color:#6482C1"/>
	</linearGradient>
	<circle class="st9" cx="244.4" cy="441.4" r="36.1"/>
	<g>
		<path class="st1" d="M226.3,438.6h0.9l2.9,7.3l2.9-7.3h0.9l-3.4,8.2h-0.8L226.3,438.6z"/>
		<path class="st1" d="M235.2,438.6h5.5v0.7H236v2.9h4.2v0.7H236v3.1h4.8v0.7h-5.7V438.6z"/>
		<path class="st1" d="M242.9,438.6h0.8v8.2h-0.8V438.6z"/>
		<path class="st1" d="M252.2,438.6h0.8v8.2h-0.9l-5.1-7v7h-0.8v-8.2h0.9l5.1,7V438.6z"/>
		<path class="st1" d="M259.1,439.5c-0.4-0.1-0.8-0.2-1.1-0.2c-0.6,0-1,0.1-1.4,0.3c-0.3,0.2-0.5,0.5-0.5,0.9c0,0.3,0.1,0.6,0.3,0.8
			c0.2,0.2,0.4,0.4,0.7,0.5c0.3,0.1,0.7,0.3,1.1,0.4c0.6,0.2,1,0.3,1.3,0.5c0.3,0.2,0.6,0.4,0.9,0.7c0.2,0.3,0.4,0.7,0.4,1.2
			c0,0.4-0.1,0.8-0.4,1.2c-0.2,0.3-0.6,0.6-1,0.8s-1,0.3-1.5,0.3c-0.6,0-1.1-0.1-1.7-0.3s-1-0.5-1.4-0.9l0.4-0.7
			c0.4,0.4,0.8,0.6,1.3,0.8s1,0.3,1.4,0.3c0.6,0,1.1-0.1,1.5-0.4c0.4-0.3,0.6-0.6,0.6-1c0-0.3-0.1-0.6-0.3-0.8
			c-0.2-0.2-0.4-0.4-0.7-0.5c-0.3-0.1-0.7-0.3-1.2-0.4c-0.6-0.2-1-0.3-1.3-0.5c-0.3-0.2-0.6-0.4-0.9-0.7s-0.4-0.7-0.4-1.2
			c0-0.4,0.1-0.8,0.4-1.1s0.6-0.6,1-0.7c0.4-0.2,0.9-0.3,1.5-0.3c0.4,0,0.9,0.1,1.3,0.2c0.5,0.1,0.8,0.3,1.2,0.5l-0.4,0.7
			C259.9,439.8,259.5,439.6,259.1,439.5z"/>
	</g>
</g>
<g>
	<linearGradient id="SVGID_10_" gradientUnits="userSpaceOnUse" x1="208.4292" y1="232.6429" x2="280.3734" y2="232.6429">
		<stop  offset="3.605769e-04" style="stop-color:#4EC4D3"/>
		<stop  offset="0.3128" style="stop-color:#57B1CE"/>
		<stop  offset="1" style="stop-color:#6482C1"/>
	</linearGradient>
	<circle class="st10" cx="244.4" cy="232.6" r="36"/>
	<g>
		<path class="st1" d="M221.2,221.8h6.2v0.7h-2.7v7.5h-0.8v-7.5h-2.7V221.8z"/>
		<path class="st1" d="M234.2,230l-1-2.2h-4.5l-1,2.2h-0.9l3.7-8.2h0.8l3.7,8.2H234.2z M229,227.1h3.9l-2-4.4L229,227.1z"/>
		<path class="st1" d="M234.5,221.8h6.2v0.7H238v7.5h-0.8v-7.5h-2.7V221.8z"/>
		<path class="st1" d="M241,221.8h6.2v0.7h-2.7v7.5h-0.8v-7.5H241V221.8z"/>
		<path class="st1" d="M253.8,222.3c0.7,0.4,1.2,0.9,1.6,1.5c0.4,0.6,0.6,1.3,0.6,2.1c0,0.8-0.2,1.5-0.6,2.1
			c-0.4,0.6-0.9,1.1-1.6,1.5s-1.4,0.6-2.2,0.6c-0.8,0-1.5-0.2-2.2-0.6c-0.7-0.4-1.2-0.9-1.6-1.5c-0.4-0.6-0.6-1.3-0.6-2.1
			c0-0.8,0.2-1.5,0.6-2.1s0.9-1.1,1.6-1.5c0.7-0.4,1.4-0.6,2.2-0.6C252.4,221.7,253.1,221.9,253.8,222.3z M249.9,222.9
			c-0.5,0.3-1,0.7-1.3,1.2c-0.3,0.5-0.5,1.1-0.5,1.7c0,0.6,0.2,1.2,0.5,1.7c0.3,0.5,0.7,1,1.3,1.3s1.1,0.5,1.7,0.5
			c0.6,0,1.2-0.2,1.7-0.5c0.5-0.3,0.9-0.7,1.3-1.3s0.5-1.1,0.5-1.7c0-0.6-0.2-1.2-0.5-1.7c-0.3-0.5-0.7-0.9-1.3-1.2
			c-0.5-0.3-1.1-0.5-1.7-0.5C251,222.5,250.4,222.6,249.9,222.9z"/>
		<path class="st1" d="M263.1,222.3c0.7,0.4,1.2,0.9,1.6,1.5c0.4,0.6,0.6,1.3,0.6,2.1c0,0.8-0.2,1.5-0.6,2.1
			c-0.4,0.6-0.9,1.1-1.6,1.5s-1.4,0.6-2.2,0.6c-0.8,0-1.5-0.2-2.2-0.6c-0.7-0.4-1.2-0.9-1.6-1.5c-0.4-0.6-0.6-1.3-0.6-2.1
			c0-0.8,0.2-1.5,0.6-2.1s0.9-1.1,1.6-1.5c0.7-0.4,1.4-0.6,2.2-0.6C261.8,221.7,262.5,221.9,263.1,222.3z M259.3,222.9
			c-0.5,0.3-1,0.7-1.3,1.2c-0.3,0.5-0.5,1.1-0.5,1.7c0,0.6,0.2,1.2,0.5,1.7c0.3,0.5,0.7,1,1.3,1.3s1.1,0.5,1.7,0.5
			c0.6,0,1.2-0.2,1.7-0.5c0.5-0.3,0.9-0.7,1.3-1.3s0.5-1.1,0.5-1.7c0-0.6-0.2-1.2-0.5-1.7c-0.3-0.5-0.7-0.9-1.3-1.2
			c-0.5-0.3-1.1-0.5-1.7-0.5C260.4,222.5,259.8,222.6,259.3,222.9z"/>
		<path class="st1" d="M221.1,244.1l-1.8-2.7c-0.2,0-0.4,0-0.6,0h-2.3v2.6h-0.8v-8.2h3.1c1,0,1.8,0.2,2.4,0.7c0.6,0.5,0.8,1.1,0.8,2
			c0,0.7-0.2,1.2-0.5,1.7c-0.3,0.5-0.8,0.8-1.4,1l2,2.8H221.1z M218.7,240.7c0.8,0,1.4-0.2,1.8-0.5c0.4-0.4,0.6-0.9,0.6-1.5
			c0-0.7-0.2-1.2-0.6-1.5c-0.4-0.3-1-0.5-1.8-0.5h-2.3v4.1H218.7z"/>
		<path class="st1" d="M224.2,235.9h5.5v0.7H225v2.9h4.2v0.7H225v3.1h4.8v0.7h-5.6V235.9z"/>
		<path class="st1" d="M231.8,235.9h1l3.2,6.2l3.2-6.2h1v8.2h-0.8l0-7.1l-3.2,6.2h-0.4l-3.2-6.2v7.1h-0.8V235.9z"/>
		<path class="st1" d="M248.4,236.4c0.7,0.4,1.2,0.9,1.6,1.5c0.4,0.6,0.6,1.3,0.6,2.1c0,0.8-0.2,1.5-0.6,2.1
			c-0.4,0.6-0.9,1.1-1.6,1.5s-1.4,0.6-2.2,0.6c-0.8,0-1.5-0.2-2.2-0.6c-0.7-0.4-1.2-0.9-1.6-1.5c-0.4-0.6-0.6-1.3-0.6-2.1
			c0-0.8,0.2-1.5,0.6-2.1s0.9-1.1,1.6-1.5c0.7-0.4,1.4-0.6,2.2-0.6C247,235.8,247.7,236,248.4,236.4z M244.5,237
			c-0.5,0.3-1,0.7-1.3,1.2c-0.3,0.5-0.5,1.1-0.5,1.7c0,0.6,0.2,1.2,0.5,1.7c0.3,0.5,0.7,1,1.3,1.3s1.1,0.5,1.7,0.5
			c0.6,0,1.2-0.2,1.7-0.5c0.5-0.3,0.9-0.7,1.3-1.3s0.5-1.1,0.5-1.7c0-0.6-0.2-1.2-0.5-1.7c-0.3-0.5-0.7-0.9-1.3-1.2
			c-0.5-0.3-1.1-0.5-1.7-0.5C245.6,236.5,245.1,236.7,244.5,237z"/>
		<path class="st1" d="M251,235.9h0.9l2.9,7.3l2.9-7.3h0.9l-3.4,8.2h-0.8L251,235.9z"/>
		<path class="st1" d="M265.5,244.1l-1-2.2H260l-1,2.2h-0.9l3.7-8.2h0.8l3.7,8.2H265.5z M260.3,241.2h3.9l-2-4.4L260.3,241.2z"/>
		<path class="st1" d="M267.7,235.9h0.8v7.5h3.6v0.7h-4.4V235.9z"/>
	</g>
</g>
<g>
	<linearGradient id="SVGID_11_" gradientUnits="userSpaceOnUse" x1="909.4436" y1="286.3936" x2="958.3704" y2="286.3936">
		<stop  offset="3.605769e-04" style="stop-color:#4EC4D3"/>
		<stop  offset="0.3128" style="stop-color:#57B1CE"/>
		<stop  offset="1" style="stop-color:#6482C1"/>
	</linearGradient>
	<circle class="st11" cx="933.9" cy="286.4" r="24.5"/>
	<g>
		<path class="st1" d="M923.3,285.9h0.4l-1.4,4.2h-0.4l-1.2-3.7l-1.2,3.7h-0.4l-1.4-4.2h0.5l1.2,3.8l1.2-3.8h0.4l1.2,3.8
			L923.3,285.9z"/>
		<path class="st1" d="M927.2,290.1l-0.9-1.4c-0.1,0-0.2,0-0.3,0h-1.2v1.4h-0.4v-4.2h1.6c0.5,0,0.9,0.1,1.2,0.4
			c0.3,0.2,0.4,0.6,0.4,1c0,0.3-0.1,0.6-0.3,0.9c-0.2,0.2-0.4,0.4-0.7,0.5l1,1.4H927.2z M926,288.4c0.4,0,0.7-0.1,0.9-0.3
			c0.2-0.2,0.3-0.4,0.3-0.8c0-0.3-0.1-0.6-0.3-0.8s-0.5-0.3-0.9-0.3h-1.2v2.1H926z"/>
		<path class="st1" d="M928.8,285.9h0.4v4.2h-0.4V285.9z"/>
		<path class="st1" d="M933.5,285.9h0.4v4.2h-0.4l-2.6-3.6v3.6h-0.4v-4.2h0.4l2.6,3.6V285.9z"/>
		<path class="st1" d="M938.6,290.1h-0.5l-1.6-2l-0.9,0.9v1.1h-0.4v-4.2h0.4v2.6l2.3-2.6h0.5l-1.7,1.8L938.6,290.1z"/>
		<path class="st1" d="M939.4,285.9h0.4v3.8h1.8v0.4h-2.3V285.9z"/>
		<path class="st1" d="M942.5,285.9h2.8v0.4h-2.4v1.5h2.1v0.4h-2.1v1.6h2.5v0.4h-2.9V285.9z"/>
		<path class="st1" d="M948.2,286.3c-0.2-0.1-0.4-0.1-0.6-0.1c-0.3,0-0.5,0.1-0.7,0.2c-0.2,0.1-0.3,0.3-0.3,0.5c0,0.2,0,0.3,0.1,0.4
			c0.1,0.1,0.2,0.2,0.4,0.3c0.1,0.1,0.3,0.1,0.6,0.2c0.3,0.1,0.5,0.2,0.7,0.2c0.2,0.1,0.3,0.2,0.4,0.4s0.2,0.4,0.2,0.6
			c0,0.2-0.1,0.4-0.2,0.6s-0.3,0.3-0.5,0.4c-0.2,0.1-0.5,0.1-0.8,0.1c-0.3,0-0.6-0.1-0.9-0.2c-0.3-0.1-0.5-0.3-0.7-0.5l0.2-0.3
			c0.2,0.2,0.4,0.3,0.7,0.4c0.2,0.1,0.5,0.2,0.7,0.2c0.3,0,0.6-0.1,0.8-0.2c0.2-0.1,0.3-0.3,0.3-0.5c0-0.2,0-0.3-0.1-0.4
			s-0.2-0.2-0.4-0.3c-0.1-0.1-0.3-0.1-0.6-0.2c-0.3-0.1-0.5-0.2-0.7-0.2s-0.3-0.2-0.4-0.3c-0.1-0.2-0.2-0.4-0.2-0.6
			c0-0.2,0.1-0.4,0.2-0.6c0.1-0.2,0.3-0.3,0.5-0.4c0.2-0.1,0.5-0.1,0.8-0.1c0.2,0,0.5,0,0.7,0.1c0.2,0.1,0.4,0.2,0.6,0.3l-0.2,0.4
			C948.6,286.5,948.4,286.4,948.2,286.3z"/>
	</g>
</g>
<g>
	<linearGradient id="SVGID_12_" gradientUnits="userSpaceOnUse" x1="604.6948" y1="74.8305" x2="653.2536" y2="74.8305">
		<stop  offset="3.605769e-04" style="stop-color:#4EC4D3"/>
		<stop  offset="0.3128" style="stop-color:#57B1CE"/>
		<stop  offset="1" style="stop-color:#6482C1"/>
	</linearGradient>
	<circle class="st12" cx="629" cy="74.8" r="24.3"/>
	<g>
		<path class="st1" d="M621.2,71.2h0.8v8.3h-0.8V71.2z"/>
		<path class="st1" d="M630.1,71.9c0.6,0.5,0.8,1.2,0.8,2c0,0.9-0.3,1.6-0.8,2.1c-0.6,0.5-1.4,0.8-2.4,0.8h-2.3v2.7h-0.8v-8.3h3.1
			C628.7,71.2,629.5,71.4,630.1,71.9z M629.5,75.5c0.4-0.4,0.6-0.9,0.6-1.6c0-0.7-0.2-1.2-0.6-1.5c-0.4-0.3-1-0.5-1.8-0.5h-2.2v4.2
			h2.2C628.4,76.1,629,75.9,629.5,75.5z"/>
		<path class="st1" d="M632.6,71.2h0.8v7.6h3.7v0.7h-4.5V71.2z"/>
	</g>
</g>
<g>
	<path class="st1" d="M67.6,403.1h4.9v0.6h-2.1v5.9h-0.6v-5.9h-2.1V403.1z"/>
	<path class="st1" d="M73.6,403.1h0.6v3h4v-3h0.6v6.5h-0.6v-2.9h-4v2.9h-0.6V403.1z"/>
	<path class="st1" d="M81,403.1h4.3v0.6h-3.7v2.3h3.3v0.6h-3.3v2.4h3.8v0.6H81V403.1z"/>
	<path class="st1" d="M91.2,409.6l-1.4-2.1c-0.2,0-0.3,0-0.5,0h-1.8v2.1H87v-6.5h2.4c0.8,0,1.4,0.2,1.9,0.6c0.4,0.4,0.7,0.9,0.7,1.6
		c0,0.5-0.1,1-0.4,1.3c-0.3,0.4-0.6,0.6-1.1,0.7l1.6,2.2H91.2z M89.4,406.9c0.6,0,1.1-0.1,1.4-0.4c0.3-0.3,0.5-0.7,0.5-1.2
		c0-0.5-0.2-0.9-0.5-1.2c-0.3-0.3-0.8-0.4-1.4-0.4h-1.8v3.2H89.4z"/>
	<path class="st1" d="M98.4,409.6l-0.8-1.7h-3.6l-0.8,1.7h-0.7l2.9-6.5h0.7l2.9,6.5H98.4z M94.3,407.3h3.1l-1.6-3.5L94.3,407.3z"/>
	<path class="st1" d="M104.4,403.7c0.4,0.4,0.7,0.9,0.7,1.6c0,0.7-0.2,1.3-0.7,1.6c-0.4,0.4-1.1,0.6-1.9,0.6h-1.7v2.1h-0.6v-6.5h2.4
		C103.4,403.1,104,403.3,104.4,403.7z M104,406.5c0.3-0.3,0.5-0.7,0.5-1.2c0-0.5-0.2-0.9-0.5-1.2c-0.3-0.3-0.8-0.4-1.4-0.4h-1.7v3.2
		h1.7C103.2,406.9,103.6,406.8,104,406.5z"/>
	<path class="st1" d="M111,403.1l-2.5,4.2v2.3h-0.6v-2.3l-2.5-4.2h0.7l2.2,3.5l2.1-3.5H111z"/>
</g>
</svg>
