<?xml version="1.0" encoding="utf-8"?>
<!-- Generator: Adobe Illustrator 23.0.3, SVG Export Plug-In . SVG Version: 6.00 Build 0)  -->
<svg version="1.1" id="Layer_1" xmlns="http://www.w3.org/2000/svg" xmlns:xlink="http://www.w3.org/1999/xlink" x="0px" y="0px"
	 viewBox="0 0 67.1 52.2" style="enable-background:new 0 0 67.1 52.2;" xml:space="preserve">
<style type="text/css">
	.st0{fill:#FFFFFF;}
</style>
<g>
	<path class="st0" d="M30.3,36.7c0,4.3-1.4,7.9-4.2,10.7c-2.8,2.8-6.3,4.2-10.6,4.2c-4,0-7.4-1.3-10.2-4C2.5,45,1.1,41.3,1.1,36.7
		c0-2,0.3-3.9,1-5.7c0.6-1.7,1.6-3.8,2.9-6.2L18.6,0.5h14.4l-9,24.2C28.2,27.3,30.3,31.4,30.3,36.7z M63.5,36.7
		c0,4.3-1.4,7.9-4.2,10.7c-2.8,2.8-6.3,4.2-10.6,4.2c-4,0-7.4-1.3-10.2-4c-2.8-2.7-4.2-6.3-4.2-10.9c0-2,0.3-3.9,1-5.7
		c0.6-1.7,1.6-3.8,2.9-6.2L51.8,0.5h14.4l-9,24.2C61.3,27.3,63.5,31.4,63.5,36.7z"/>
</g>
</svg>
