<?xml version="1.0" encoding="utf-8"?>
<!-- Generator: Adobe Illustrator 23.0.3, SVG Export Plug-In . SVG Version: 6.00 Build 0)  -->
<svg version="1.1" id="Isolation_Mode" xmlns="http://www.w3.org/2000/svg" xmlns:xlink="http://www.w3.org/1999/xlink" x="0px"
	 y="0px" viewBox="0 0 429.1 93" style="enable-background:new 0 0 429.1 93;" xml:space="preserve">
<style type="text/css">
	.st0{fill:#585858;}
</style>
<g>
	<g>
		<g>
			<path class="st0" d="M128,21.6L122,41.4c-0.1-0.1-0.5-0.3-0.9-0.6c-0.6-0.4-1-0.7-1.3-0.9s-0.6-0.6-0.8-1
				c-0.2-0.4-0.4-0.9-0.6-1.5L115,26.9l-4.5,14.5c-0.1,0-0.4-0.2-0.9-0.6c-0.4-0.3-0.9-0.7-1.3-1c-0.3-0.2-0.5-0.5-0.8-0.9
				c-0.2-0.4-0.4-0.8-0.6-1.3l-4.3-13.1c-0.1-0.3-0.2-0.5-0.3-0.8c-0.1-0.2-0.2-0.5-0.4-0.7c-0.2-0.3-0.3-0.5-0.5-0.7
				c-0.2-0.2-0.4-0.4-0.7-0.6h4.3c0,0.1-0.1,0.1-0.1,0.1c0,0,0,0.1,0,0.2c0,0.3,0,0.6,0.1,0.9c0,0.1,0.1,0.3,0.3,0.8l4.4,13.4
				l3.7-12.3c0.1-0.2,0.1-0.4,0.1-0.6c0-0.1,0-0.3,0-0.5c0-0.2,0-0.5-0.1-0.8c0-0.3-0.2-0.6-0.4-0.8c-0.2-0.2-0.4-0.3-0.7-0.5h4.3
				c-0.1,0.3-0.1,0.5-0.1,0.6c0,0.3,0,0.6,0.1,0.9c0.1,0.3,0.2,0.7,0.3,1l4.2,12.9l3.7-12.1c0.1-0.5,0.2-0.9,0.2-1.2
				c0-0.2,0-0.4-0.1-0.8c-0.1-0.3-0.3-0.6-0.5-0.8c-0.2-0.2-0.6-0.4-0.9-0.5H128z"/>
			<path class="st0" d="M150.1,40.6h-6.3c0.3,0,0.7-0.2,1-0.6c0.1-0.1,0.2-0.3,0.2-0.5c0-0.2-0.1-0.4-0.2-0.7l-2.1-5.3h-7.2
				l-1.8,4.8c-0.1,0.3-0.2,0.7-0.2,1c0,0.4,0.1,0.6,0.3,0.8c0.3,0.3,0.6,0.4,0.9,0.5h-5.6c0.2-0.1,0.4-0.2,0.6-0.3
				c0.2-0.1,0.3-0.3,0.5-0.4c0.2-0.2,0.5-0.5,0.6-0.8c0.1-0.2,0.3-0.5,0.4-1l5.8-14.4c0.1-0.2,0.1-0.3,0.1-0.4c0-0.1,0-0.2,0-0.4
				c0-0.1,0-0.2-0.1-0.4c-0.1-0.4-0.5-0.7-1-0.8h4.7l6.3,15.6c0.1,0.3,0.2,0.6,0.4,0.9c0.1,0.3,0.3,0.6,0.6,1s0.5,0.6,0.8,0.8
				C149.4,40.2,149.7,40.4,150.1,40.6z M142.1,31.4l-2.8-7.2l-2.9,7.2H142.1z"/>
			<path class="st0" d="M165.7,35.1c0,1.9-0.8,3.4-2.5,4.5c-1.5,1-3.4,1.5-5.6,1.5c-0.6,0-1.2,0-1.7-0.1c-0.5,0-1-0.1-1.5-0.3
				l-1.7-0.4l-0.8-3.6l0.4,0.3c1.9,1.4,3.8,2,5.6,2c1.3,0,2.4-0.3,3.2-0.8c0.8-0.5,1.2-1.2,1.2-2c0-1-0.4-1.8-1.1-2.4
				c-0.7-0.6-2.2-1.4-4.4-2.4c-1.6-0.7-2.8-1.5-3.5-2.5c-0.6-0.8-0.9-1.7-0.9-2.7c0-1.8,0.7-3.1,2.1-3.9c1.2-0.8,2.9-1.1,5.1-1.1
				c0.8,0,1.5,0,2.2,0.1c0.6,0.1,1.3,0.2,2,0.5l0.3,0.1v3.3l-0.3-0.3c-0.5-0.5-1.2-0.9-2-1.2c-0.8-0.3-1.6-0.5-2.5-0.5
				c-0.9,0-1.8,0.2-2.4,0.7c-0.7,0.4-1,1-1,1.8c0,1,0.4,1.8,1.3,2.5c0.6,0.5,1.8,1.1,3.4,1.8c1.7,0.7,2.9,1.5,3.8,2.3
				C165.2,33,165.7,34,165.7,35.1z"/>
			<path class="st0" d="M187.3,40.6h-5.8c0.3-0.1,0.5-0.3,0.6-0.4c0.1-0.1,0.3-0.3,0.4-0.5c0.1-0.2,0.2-0.5,0.3-0.8
				c0.1-0.3,0.1-0.6,0.1-1c0-0.2,0-0.3,0-0.4v-6.3h-10.5v6.3c0,0.2,0,0.3,0,0.4c0,0.3,0,0.6,0.1,0.9c0.1,0.3,0.2,0.6,0.3,0.9
				c0.1,0.2,0.2,0.4,0.4,0.5c0.1,0.1,0.4,0.2,0.6,0.3h-5.7c0.1-0.1,0.3-0.2,0.4-0.3c0.2-0.2,0.4-0.3,0.5-0.6
				c0.1-0.2,0.2-0.5,0.3-0.8c0.1-0.3,0.1-0.6,0.1-1c0-0.2,0-0.3,0-0.4v-13c0-0.1,0-0.2,0-0.3c0-0.4,0-0.7-0.1-1
				c-0.1-0.3-0.2-0.5-0.3-0.8c-0.1-0.2-0.3-0.4-0.4-0.5c-0.1-0.1-0.3-0.2-0.6-0.3h5.8c-0.3,0.1-0.5,0.2-0.6,0.3
				c-0.2,0.1-0.3,0.3-0.4,0.5c-0.2,0.3-0.3,0.5-0.3,0.8c-0.1,0.3-0.1,0.6-0.1,1c0,0.1,0,0.2,0,0.3v4.6h10.5l0-4.7c0-0.1,0-0.2,0-0.3
				c0-0.4,0-0.7-0.1-1c-0.1-0.3-0.2-0.5-0.4-0.8c-0.1-0.2-0.3-0.4-0.4-0.5c-0.1-0.1-0.3-0.2-0.6-0.3h5.8c-0.3,0.1-0.5,0.2-0.6,0.3
				c-0.1,0.1-0.3,0.3-0.4,0.5c-0.2,0.3-0.3,0.5-0.3,0.8c0,0.2-0.1,0.6-0.1,1.1c0,0.1,0,0.2,0,0.3v13c0,0.2,0,0.4,0,0.5
				c0,0.3,0,0.6,0.1,0.9c0,0.3,0.2,0.5,0.3,0.8c0.1,0.2,0.3,0.4,0.4,0.5C186.8,40.4,187,40.5,187.3,40.6z"/>
			<path class="st0" d="M196.4,40.6h-5.8c0.2-0.1,0.4-0.2,0.5-0.3c0.2-0.2,0.4-0.4,0.5-0.6c0.1-0.2,0.2-0.5,0.3-0.8
				c0.1-0.3,0.1-0.6,0.1-1c0-0.2,0-0.3,0-0.4v-13c0-0.1,0-0.2,0-0.3c0-0.4,0-0.8-0.1-1c0-0.2-0.2-0.5-0.4-0.8
				c-0.2-0.3-0.5-0.6-1-0.8h5.8c-0.2,0.1-0.4,0.2-0.6,0.3c-0.2,0.1-0.3,0.3-0.4,0.5c-0.1,0.2-0.2,0.5-0.3,1
				c-0.1,0.4-0.1,0.8-0.1,1.2v13c0,0.2,0,0.3,0,0.4c0,0.4,0,0.7,0.1,0.9c0,0.2,0.2,0.5,0.3,0.9c0.1,0.2,0.2,0.4,0.4,0.5
				C195.9,40.4,196.1,40.5,196.4,40.6z"/>
			<path class="st0" d="M218.4,21.6c-0.6,0.2-1.1,0.6-1.3,1.2c-0.1,0.2-0.2,0.4-0.3,0.6c-0.1,0.2-0.1,0.5-0.1,0.9c0,0.2,0,0.3,0,0.4
				v16.8c-0.4-0.1-0.8-0.3-1.2-0.5c-0.3-0.2-0.7-0.4-1.1-0.7c-0.3-0.2-0.5-0.4-0.7-0.6c-0.1-0.1-0.4-0.5-1-1.2l-10.2-12.8l0,11.9
				c0,0.1,0,0.2,0,0.3c0,0.4,0,0.7,0.1,1c0.1,0.3,0.3,0.7,0.6,1.1c0.1,0.1,0.2,0.2,0.5,0.4c0.2,0.1,0.4,0.2,0.5,0.3h-5.6
				c0.2-0.1,0.4-0.2,0.6-0.3c0.3-0.2,0.5-0.4,0.7-0.7c0.2-0.3,0.3-0.5,0.3-0.9c0.1-0.3,0.1-0.6,0.1-0.9c0-0.1,0-0.2,0-0.3V24.6
				c0-0.4,0-0.7-0.1-1c0-0.3-0.1-0.5-0.3-0.8c-0.2-0.3-0.4-0.5-0.6-0.7c-0.2-0.2-0.4-0.3-0.8-0.5h4.6c0,0.2,0.1,0.4,0.1,0.4
				c0.1,0.2,0.2,0.3,0.2,0.3c0.1,0.2,0.2,0.4,0.4,0.6l10.5,13.2V24.7c0-0.5,0-0.9-0.1-1.2c-0.1-0.3-0.2-0.6-0.4-1
				c-0.1-0.2-0.3-0.4-0.4-0.5c-0.2-0.1-0.4-0.3-0.7-0.4H218.4z"/>
			<path class="st0" d="M238.6,31.2c-0.1,0.2-0.2,0.4-0.2,0.5c0,0.1,0,0.3,0,0.5c0,0.1,0,0.2,0,0.3v7.3c0,0.2,0,0.3,0,0.4l0.1,0.4
				l-0.8,0.1c-1,0.2-2,0.3-3,0.4c-1,0.1-2.1,0.2-3.2,0.2c-3.1,0-5.7-0.8-7.9-2.4c-2.5-1.8-3.7-4.2-3.7-7.3c0-3.1,1-5.5,3-7.3
				c2.1-1.9,5.2-2.8,9.2-2.8c0.7,0,1.3,0,1.9,0.1c0.2,0,0.9,0.1,2,0.3l0.4,0.1v3.4c-0.7-0.6-1.4-1-2.2-1.3c-0.8-0.3-1.6-0.5-2.4-0.5
				c-2.7,0-4.8,0.7-6.3,2.2c-1.5,1.5-2.3,3.5-2.3,5.9c0,2.1,0.8,3.9,2.5,5.4c1.7,1.5,3.6,2.2,5.9,2.2c1.2,0,2.4-0.2,3.6-0.5l0.3-0.1
				v-5.1c0-0.4,0-0.6-0.1-0.9c0-0.2-0.2-0.5-0.3-0.7c-0.3-0.4-0.6-0.7-1-0.9H238.6z"/>
			<path class="st0" d="M255.4,21.4l-1,3.7c0-0.2-0.1-0.3-0.2-0.5c-0.1-0.2-0.2-0.3-0.4-0.4c-0.2-0.1-0.3-0.2-0.5-0.2
				c-0.2,0-0.3,0-0.5,0c-0.2,0-0.3,0-0.4,0h-3.1v13.8c0,0.4,0,0.8,0.1,1.1c0.1,0.3,0.2,0.6,0.4,1c0.2,0.3,0.6,0.6,1.1,0.9H245
				c0.3-0.2,0.5-0.3,0.6-0.3c0.2-0.1,0.3-0.3,0.4-0.6c0.1-0.3,0.2-0.5,0.2-0.8c0.1-0.3,0.1-0.7,0.1-1.2V23.9h-3
				c-0.4,0-0.7,0-1.1,0.1c-0.4,0.1-0.7,0.2-1,0.3c-0.1,0.1-0.3,0.2-0.5,0.3c-0.2,0.2-0.4,0.3-0.4,0.4l1-3.6l0.6,0.2l0.9,0.1H254
				c0.2,0,0.3,0,0.4,0c0.2,0,0.3,0,0.4,0L255.4,21.4z"/>
			<path class="st0" d="M278,31.6c0,2.5-0.9,4.7-2.7,6.5c-1.9,2-4.4,3-7.4,3c-3.3,0-5.9-0.9-8-2.8c-2-1.9-3.1-4.3-3.1-7.1
				c0-2.7,0.9-5,2.6-6.9c1.9-2.1,4.4-3.1,7.4-3.1c3.7,0,6.5,1.1,8.5,3.3C277.2,26.3,278,28.7,278,31.6z M274.8,31.2
				c0-2.2-0.6-4-1.7-5.5c-1.3-1.7-3.2-2.5-5.7-2.5c-2.2,0-4,0.8-5.3,2.5c-1.2,1.5-1.8,3.4-1.8,5.6c0,2.2,0.7,4.1,2.1,5.6
				c1.4,1.5,3.2,2.2,5.4,2.2c2.1,0,3.8-0.8,5.2-2.5C274.2,35.1,274.8,33.3,274.8,31.2z"/>
			<path class="st0" d="M299.3,21.6c-0.6,0.2-1.1,0.6-1.3,1.2c-0.1,0.2-0.2,0.4-0.3,0.6c-0.1,0.2-0.1,0.5-0.1,0.9c0,0.2,0,0.3,0,0.4
				v16.8c-0.4-0.1-0.8-0.3-1.2-0.5c-0.3-0.2-0.7-0.4-1.1-0.7c-0.3-0.2-0.5-0.4-0.7-0.6c-0.1-0.1-0.4-0.5-1-1.2l-10.2-12.8l0,11.9
				c0,0.1,0,0.2,0,0.3c0,0.4,0,0.7,0.1,1c0.1,0.3,0.3,0.7,0.6,1.1c0.1,0.1,0.2,0.2,0.5,0.4c0.2,0.1,0.4,0.2,0.5,0.3h-5.6
				c0.2-0.1,0.4-0.2,0.6-0.3c0.3-0.2,0.5-0.4,0.7-0.7c0.2-0.3,0.3-0.5,0.3-0.9c0.1-0.3,0.1-0.6,0.1-0.9c0-0.1,0-0.2,0-0.3V24.6
				c0-0.4,0-0.7-0.1-1c0-0.3-0.1-0.5-0.3-0.8c-0.2-0.3-0.4-0.5-0.6-0.7c-0.2-0.2-0.4-0.3-0.8-0.5h4.6c0,0.2,0.1,0.4,0.1,0.4
				c0.1,0.2,0.2,0.3,0.2,0.3c0.1,0.2,0.2,0.4,0.4,0.6l10.5,13.2V24.7c0-0.5,0-0.9-0.1-1.2c-0.1-0.3-0.2-0.6-0.4-1
				c-0.1-0.2-0.3-0.4-0.4-0.5c-0.2-0.1-0.4-0.3-0.7-0.4H299.3z"/>
			<path class="st0" d="M117.5,67l-1.5,3.3l-0.3,0.1c-0.5,0.2-1.1,0.4-1.9,0.5c-0.8,0.1-1.6,0.2-2.5,0.2c-2.5,0-4.8-0.8-6.8-2.3
				c-2.5-1.9-3.7-4.4-3.7-7.5c0-2.9,0.8-5.2,2.3-7c1.8-2.1,4.4-3.1,8-3.1c0.7,0,1.5,0,2.1,0.1c0.7,0.1,1.4,0.2,2.2,0.5l0.6,0.2v3.3
				c-0.5-0.5-1.3-0.9-2.3-1.2c-1-0.3-2-0.5-3.1-0.5c-2,0-3.7,0.9-4.9,2.7c-1.1,1.5-1.7,3.2-1.7,5c0,2.2,0.8,4,2.3,5.5
				c1.4,1.4,3.1,2.1,5,2.1c1.7,0,3.4-0.5,5.3-1.4L117.5,67z"/>
			<path class="st0" d="M132.7,66.8l-1.4,4h-12.3c0.2-0.1,0.3-0.2,0.5-0.2c0.3-0.2,0.5-0.4,0.6-0.6c0.2-0.4,0.3-0.8,0.4-1.1
				c0-0.4,0.1-0.9,0.1-1.6V54.8c0-0.3,0-0.6,0-0.7c0-0.3,0-0.5-0.1-0.7c0-0.2-0.1-0.4-0.3-0.7c-0.1-0.2-0.3-0.4-0.4-0.5
				c-0.2-0.1-0.4-0.3-0.7-0.4h10l0.5-0.1l0.4-0.2V55l-0.6-0.5c-0.3-0.3-0.8-0.4-1.4-0.6c-0.6-0.1-1.3-0.2-2-0.2
				c-0.4,0-0.9,0-1.3,0.1c-0.4,0-0.8,0.1-0.9,0.1l-0.2,0v5.3h3.7c0.4,0,0.6,0,0.8-0.1l0.4-0.2v3.2c-0.1-0.1-0.2-0.3-0.3-0.4
				c-0.1-0.1-0.2-0.2-0.3-0.2c-0.3-0.1-0.6-0.2-1.1-0.3c-0.4,0-0.9-0.1-1.2-0.1h-1.9v6.9c0.1,0,0.6,0.1,1.6,0.2
				c1,0.1,1.8,0.2,2.5,0.2c0.9,0,1.6-0.1,2.1-0.3c0.8-0.3,1.3-0.5,1.6-0.7C131.7,67.6,132.2,67.2,132.7,66.8z"/>
			<path class="st0" d="M154,51.8c-0.6,0.2-1.1,0.6-1.3,1.2c-0.1,0.2-0.2,0.4-0.3,0.6c-0.1,0.2-0.1,0.5-0.1,0.9c0,0.2,0,0.3,0,0.4
				v16.8c-0.4-0.1-0.8-0.3-1.2-0.5c-0.3-0.2-0.7-0.4-1.1-0.7c-0.3-0.2-0.5-0.4-0.7-0.6c-0.1-0.1-0.4-0.5-1-1.2l-10.2-12.8l0,11.9
				c0,0.1,0,0.2,0,0.3c0,0.4,0,0.7,0.1,1c0.1,0.3,0.3,0.7,0.6,1.1c0.1,0.1,0.2,0.2,0.5,0.4c0.2,0.1,0.4,0.2,0.5,0.3h-5.6
				c0.2-0.1,0.4-0.2,0.6-0.3c0.3-0.2,0.5-0.4,0.7-0.7c0.2-0.3,0.3-0.5,0.3-0.9c0.1-0.3,0.1-0.6,0.1-0.9c0-0.1,0-0.2,0-0.3V54.7
				c0-0.4,0-0.7-0.1-1c0-0.3-0.1-0.5-0.3-0.8c-0.2-0.3-0.4-0.5-0.6-0.7c-0.2-0.2-0.4-0.3-0.8-0.5h4.6c0,0.2,0.1,0.4,0.1,0.4
				c0.1,0.2,0.2,0.3,0.2,0.3c0.1,0.2,0.2,0.4,0.4,0.6l10.5,13.2V54.8c0-0.5,0-0.9-0.1-1.2c-0.1-0.3-0.2-0.6-0.4-1
				c-0.1-0.2-0.3-0.4-0.4-0.5c-0.2-0.1-0.4-0.3-0.7-0.4H154z"/>
			<path class="st0" d="M170.6,51.5l-1,3.7c0-0.2-0.1-0.3-0.2-0.5c-0.1-0.2-0.2-0.3-0.4-0.4c-0.2-0.1-0.3-0.2-0.5-0.2
				c-0.2,0-0.3,0-0.5,0c-0.2,0-0.3,0-0.4,0h-3.1v13.8c0,0.4,0,0.8,0.1,1.1c0.1,0.3,0.2,0.6,0.4,1c0.2,0.3,0.6,0.6,1.1,0.9h-5.9
				c0.3-0.2,0.5-0.3,0.6-0.3c0.2-0.1,0.3-0.3,0.4-0.6c0.1-0.3,0.2-0.5,0.2-0.8c0.1-0.3,0.1-0.7,0.1-1.2V54h-3c-0.4,0-0.7,0-1.1,0.1
				c-0.4,0.1-0.7,0.2-1,0.3c-0.1,0.1-0.3,0.2-0.5,0.3c-0.2,0.2-0.4,0.3-0.4,0.4l1-3.6l0.6,0.2l0.9,0.1h11.3c0.2,0,0.3,0,0.4,0
				c0.2,0,0.3,0,0.4,0L170.6,51.5z"/>
			<path class="st0" d="M185.7,66.8l-1.4,4h-12.3c0.2-0.1,0.3-0.2,0.5-0.2c0.3-0.2,0.5-0.4,0.6-0.6c0.2-0.4,0.3-0.8,0.4-1.1
				c0-0.4,0.1-0.9,0.1-1.6V54.8c0-0.3,0-0.6,0-0.7c0-0.3,0-0.5-0.1-0.7c0-0.2-0.1-0.4-0.3-0.7c-0.1-0.2-0.3-0.4-0.4-0.5
				c-0.2-0.1-0.4-0.3-0.7-0.4h10l0.5-0.1l0.4-0.2V55l-0.6-0.5c-0.3-0.3-0.8-0.4-1.4-0.6c-0.6-0.1-1.3-0.2-2-0.2
				c-0.4,0-0.9,0-1.3,0.1c-0.4,0-0.8,0.1-0.9,0.1l-0.2,0v5.3h3.7c0.4,0,0.6,0,0.8-0.1l0.4-0.2v3.2c-0.1-0.1-0.2-0.3-0.3-0.4
				s-0.2-0.2-0.3-0.2c-0.3-0.1-0.6-0.2-1.1-0.3c-0.4,0-0.9-0.1-1.2-0.1h-1.9v6.9c0.1,0,0.6,0.1,1.6,0.2c1,0.1,1.8,0.2,2.5,0.2
				c0.9,0,1.6-0.1,2.1-0.3c0.8-0.3,1.3-0.5,1.6-0.7C184.7,67.6,185.2,67.2,185.7,66.8z"/>
			<path class="st0" d="M205.4,70.7c0,0-0.3,0-0.8,0c-0.5,0-1,0-1.6,0c-0.2,0-0.3,0-0.3,0c-1,0-1.7-0.1-2.1-0.2
				c-0.4-0.1-1-0.5-1.6-1.1c-0.5-0.5-1.1-1.2-1.8-2.1c-0.3-0.4-1-1.2-1.9-2.5c-0.4-0.5-1-1.4-1.7-2.5c-0.5-0.8-0.9-1.4-1-1.6
				c0.3,0,0.6-0.1,1.1-0.2c0.4-0.1,0.9-0.2,1.3-0.4c0.8-0.3,1.4-0.8,1.8-1.3c0.5-0.6,0.8-1.4,0.8-2.2c0-0.1,0-0.2,0-0.3
				c0-0.1,0-0.2,0-0.3c-0.1-0.8-0.5-1.4-1.2-1.9c-0.7-0.5-1.5-0.7-2.5-0.7c-0.4,0-0.9,0.1-1.4,0.2l-0.4,0.1v13.8c0,0.2,0,0.3,0,0.5
				c0,0.4,0,0.7,0,1c0,0.2,0.1,0.5,0.2,0.7c0.1,0.2,0.2,0.4,0.4,0.5c0.1,0.1,0.3,0.3,0.6,0.4h-5.5c0.3-0.1,0.5-0.2,0.6-0.4
				c0.2-0.1,0.3-0.3,0.4-0.6c0.1-0.3,0.2-0.5,0.2-0.8c0-0.3,0.1-0.6,0.1-0.9c0-0.2,0-0.3,0-0.4v-13c0-0.6,0-1-0.1-1.3
				c-0.1-0.3-0.2-0.5-0.3-0.8c-0.2-0.4-0.5-0.6-1-0.8h7.2c1.6,0,2.9,0.4,4,1.1c1.2,0.9,1.8,2.1,1.8,3.6c0,1-0.4,2-1.3,3
				c-0.8,1-1.9,1.6-3.1,2l-0.3,0.1l4.6,5.9c0.3,0.4,0.7,0.8,1.3,1.3c0.4,0.4,0.8,0.7,1.2,0.9c0.4,0.2,0.8,0.5,1.2,0.7
				C204.6,70.4,205,70.6,205.4,70.7z"/>
			<path class="st0" d="M225,55l-0.6-0.5c-0.3-0.3-0.8-0.4-1.4-0.5c-0.6-0.1-1.3-0.2-2.1-0.2c-0.5,0-1,0-1.4,0
				c-0.4,0-0.7,0.1-0.9,0.1l-0.2,0v5.3h3.7c0.2,0,0.3,0,0.3,0c0.1,0,0.2,0,0.2,0c0.1,0,0.2,0,0.2,0l0.4-0.2v3.2
				c-0.1-0.1-0.2-0.2-0.2-0.3c-0.1-0.1-0.2-0.2-0.4-0.3c-0.2-0.1-0.6-0.2-0.9-0.3c-0.4,0-0.8,0-1.3,0h-2v5.8c0,0.2,0,0.4,0,0.6
				c0,0.2,0,0.4,0,0.6c0,0.3,0,0.6,0.1,0.9c0,0.3,0.1,0.5,0.3,0.6c0.2,0.3,0.3,0.4,0.4,0.5c0.1,0.1,0.3,0.2,0.5,0.3H214
				c0.3-0.1,0.5-0.2,0.7-0.3c0.2-0.1,0.4-0.3,0.5-0.6c0.2-0.4,0.4-0.8,0.4-1.2c0.1-0.4,0.1-0.9,0.1-1.5V54.8c0-0.1,0-0.2,0-0.3
				c0-0.4,0-0.7-0.1-0.9c0-0.2-0.1-0.5-0.3-0.7c-0.1-0.3-0.3-0.5-0.4-0.6c-0.2-0.1-0.4-0.3-0.7-0.5h10c0.2,0,0.4,0,0.5-0.1
				c0.2,0,0.3-0.1,0.4-0.2V55z"/>
			<path class="st0" d="M247.8,61.7c0,2.5-0.9,4.7-2.7,6.5c-1.9,2-4.4,3-7.4,3c-3.3,0-5.9-0.9-8-2.8c-2-1.9-3.1-4.3-3.1-7.1
				c0-2.7,0.9-5,2.6-6.9c1.9-2.1,4.4-3.1,7.4-3.1c3.7,0,6.5,1.1,8.5,3.3C246.9,56.5,247.8,58.9,247.8,61.7z M244.5,61.3
				c0-2.2-0.6-4-1.7-5.5c-1.3-1.7-3.2-2.5-5.7-2.5c-2.2,0-4,0.8-5.3,2.5c-1.2,1.5-1.8,3.4-1.8,5.6c0,2.2,0.7,4.1,2.1,5.6
				c1.4,1.5,3.2,2.2,5.4,2.2c2.1,0,3.8-0.8,5.2-2.5C243.9,65.2,244.5,63.4,244.5,61.3z"/>
			<path class="st0" d="M267.5,70.7c0,0-0.3,0-0.8,0c-0.5,0-1,0-1.6,0c-0.2,0-0.3,0-0.3,0c-1,0-1.7-0.1-2.1-0.2
				c-0.4-0.1-1-0.5-1.6-1.1c-0.5-0.5-1.1-1.2-1.8-2.1c-0.3-0.4-1-1.2-1.9-2.5c-0.4-0.5-1-1.4-1.7-2.5c-0.5-0.8-0.9-1.4-1-1.6
				c0.3,0,0.6-0.1,1.1-0.2c0.4-0.1,0.9-0.2,1.3-0.4c0.8-0.3,1.4-0.8,1.8-1.3c0.5-0.6,0.8-1.4,0.8-2.2c0-0.1,0-0.2,0-0.3
				c0-0.1,0-0.2,0-0.3c-0.1-0.8-0.5-1.4-1.2-1.9c-0.7-0.5-1.5-0.7-2.5-0.7c-0.4,0-0.9,0.1-1.4,0.2l-0.4,0.1v13.8c0,0.2,0,0.3,0,0.5
				c0,0.4,0,0.7,0,1c0,0.2,0.1,0.5,0.2,0.7c0.1,0.2,0.2,0.4,0.4,0.5c0.1,0.1,0.3,0.3,0.6,0.4h-5.5c0.3-0.1,0.5-0.2,0.6-0.4
				c0.2-0.1,0.3-0.3,0.4-0.6c0.1-0.3,0.2-0.5,0.2-0.8c0-0.3,0.1-0.6,0.1-0.9c0-0.2,0-0.3,0-0.4v-13c0-0.6,0-1-0.1-1.3
				c-0.1-0.3-0.2-0.5-0.3-0.8c-0.2-0.4-0.5-0.6-1-0.8h7.2c1.6,0,2.9,0.4,4,1.1c1.2,0.9,1.8,2.1,1.8,3.6c0,1-0.4,2-1.3,3
				c-0.8,1-1.9,1.6-3.1,2l-0.3,0.1l4.6,5.9c0.3,0.4,0.7,0.8,1.3,1.3c0.4,0.4,0.8,0.7,1.2,0.9c0.4,0.2,0.8,0.5,1.2,0.7
				C266.6,70.4,267,70.6,267.5,70.7z"/>
			<path class="st0" d="M294.2,60.6c0,3-0.9,5.4-2.8,7.2c-2,1.9-4.6,2.9-8,2.9h-7.1c0.5-0.3,0.8-0.6,1.1-1.1
				c0.2-0.3,0.3-0.6,0.3-0.8c0.1-0.2,0.1-0.5,0.1-0.7c0-0.2,0-0.4,0-0.5v-13c0-0.2,0-0.3,0-0.3c0-0.5,0-0.9-0.1-1.2
				c0-0.3-0.2-0.5-0.4-0.8c-0.1-0.2-0.3-0.3-0.4-0.4c-0.1-0.1-0.3-0.2-0.6-0.3h7.7c2.6,0,4.8,0.7,6.7,2
				C293.1,55.4,294.2,57.7,294.2,60.6z M291,61.2c0-2.6-0.8-4.6-2.5-6c-1.4-1.1-3.1-1.6-5.1-1.6c-0.8,0-1.5,0.1-2.2,0.3l-0.4,0.1
				v14.2l1,0.1c0.4,0,0.8,0.1,1.3,0.1c2.2,0,4.1-0.5,5.5-1.6C290.2,65.6,291,63.7,291,61.2z"/>
			<path class="st0" d="M309.4,66.8l-1.4,4h-12.3c0.2-0.1,0.3-0.2,0.5-0.2c0.3-0.2,0.5-0.4,0.6-0.6c0.2-0.4,0.3-0.8,0.4-1.1
				c0-0.4,0.1-0.9,0.1-1.6V54.8c0-0.3,0-0.6,0-0.7c0-0.3,0-0.5-0.1-0.7c0-0.2-0.1-0.4-0.3-0.7c-0.1-0.2-0.3-0.4-0.4-0.5
				c-0.2-0.1-0.4-0.3-0.7-0.4h10l0.5-0.1l0.4-0.2V55l-0.6-0.5c-0.3-0.3-0.8-0.4-1.4-0.6c-0.6-0.1-1.3-0.2-2-0.2
				c-0.4,0-0.9,0-1.3,0.1c-0.4,0-0.8,0.1-0.9,0.1l-0.2,0v5.3h3.7c0.4,0,0.6,0,0.8-0.1l0.4-0.2v3.2c-0.1-0.1-0.2-0.3-0.3-0.4
				c-0.1-0.1-0.2-0.2-0.3-0.2c-0.3-0.1-0.6-0.2-1.1-0.3c-0.4,0-0.9-0.1-1.2-0.1h-1.9v6.9c0.1,0,0.6,0.1,1.6,0.2
				c1,0.1,1.8,0.2,2.5,0.2c0.9,0,1.6-0.1,2.1-0.3c0.8-0.3,1.3-0.5,1.6-0.7C308.4,67.6,308.9,67.2,309.4,66.8z"/>
			<path class="st0" d="M330.7,51.8c-0.6,0.2-1.1,0.6-1.3,1.2c-0.1,0.2-0.2,0.4-0.3,0.6c-0.1,0.2-0.1,0.5-0.1,0.9c0,0.2,0,0.3,0,0.4
				v16.8c-0.4-0.1-0.8-0.3-1.2-0.5c-0.3-0.2-0.7-0.4-1.1-0.7c-0.3-0.2-0.5-0.4-0.7-0.6c-0.1-0.1-0.4-0.5-1-1.2l-10.2-12.8l0,11.9
				c0,0.1,0,0.2,0,0.3c0,0.4,0,0.7,0.1,1c0.1,0.3,0.3,0.7,0.6,1.1c0.1,0.1,0.2,0.2,0.5,0.4c0.2,0.1,0.4,0.2,0.5,0.3H311
				c0.2-0.1,0.4-0.2,0.6-0.3c0.3-0.2,0.5-0.4,0.7-0.7c0.2-0.3,0.3-0.5,0.3-0.9c0.1-0.3,0.1-0.6,0.1-0.9c0-0.1,0-0.2,0-0.3V54.7
				c0-0.4,0-0.7-0.1-1c0-0.3-0.1-0.5-0.3-0.8c-0.2-0.3-0.4-0.5-0.6-0.7c-0.2-0.2-0.4-0.3-0.8-0.5h4.6c0,0.2,0.1,0.4,0.1,0.4
				c0.1,0.2,0.2,0.3,0.2,0.3c0.1,0.2,0.2,0.4,0.4,0.6l10.5,13.2V54.8c0-0.5,0-0.9-0.1-1.2c-0.1-0.3-0.2-0.6-0.4-1
				c-0.1-0.2-0.3-0.4-0.4-0.5c-0.2-0.1-0.4-0.3-0.7-0.4H330.7z"/>
			<path class="st0" d="M347.3,51.5l-1,3.7c0-0.2-0.1-0.3-0.2-0.5c-0.1-0.2-0.2-0.3-0.4-0.4c-0.2-0.1-0.3-0.2-0.5-0.2
				c-0.2,0-0.3,0-0.5,0c-0.2,0-0.3,0-0.4,0h-3.1v13.8c0,0.4,0,0.8,0.1,1.1c0.1,0.3,0.2,0.6,0.4,1c0.2,0.3,0.6,0.6,1.1,0.9h-5.9
				c0.3-0.2,0.5-0.3,0.6-0.3c0.2-0.1,0.3-0.3,0.4-0.6c0.1-0.3,0.2-0.5,0.2-0.8c0.1-0.3,0.1-0.7,0.1-1.2V54h-3c-0.4,0-0.7,0-1.1,0.1
				c-0.4,0.1-0.7,0.2-1,0.3c-0.1,0.1-0.3,0.2-0.5,0.3c-0.2,0.2-0.4,0.3-0.4,0.4l1-3.6l0.6,0.2l0.9,0.1h11.3c0.2,0,0.3,0,0.4,0
				c0.2,0,0.3,0,0.4,0L347.3,51.5z"/>
			<path class="st0" d="M355.8,70.7H350c0.2-0.1,0.4-0.2,0.5-0.3c0.2-0.2,0.4-0.4,0.5-0.6c0.1-0.2,0.2-0.5,0.3-0.8
				c0.1-0.3,0.1-0.6,0.1-1c0-0.2,0-0.3,0-0.4v-13c0-0.1,0-0.2,0-0.3c0-0.4,0-0.8-0.1-1c0-0.2-0.2-0.5-0.4-0.8
				c-0.2-0.3-0.5-0.6-1-0.8h5.8c-0.2,0.1-0.4,0.2-0.6,0.3c-0.2,0.1-0.3,0.3-0.4,0.5c-0.1,0.2-0.2,0.5-0.3,1
				c-0.1,0.4-0.1,0.8-0.1,1.2v13c0,0.2,0,0.3,0,0.4c0,0.4,0,0.7,0.1,0.9s0.2,0.5,0.3,0.9c0.1,0.2,0.2,0.4,0.4,0.5
				S355.6,70.6,355.8,70.7z"/>
			<path class="st0" d="M372,65.2c0,1.9-0.8,3.4-2.5,4.5c-1.5,1-3.4,1.5-5.6,1.5c-0.6,0-1.2,0-1.7-0.1c-0.5,0-1-0.1-1.5-0.3
				l-1.7-0.4l-0.8-3.6l0.4,0.3c1.9,1.4,3.8,2,5.6,2c1.3,0,2.4-0.3,3.2-0.8c0.8-0.5,1.2-1.2,1.2-2c0-1-0.4-1.8-1.1-2.4
				c-0.7-0.6-2.2-1.4-4.4-2.4c-1.6-0.7-2.8-1.5-3.5-2.5c-0.6-0.8-0.9-1.7-0.9-2.7c0-1.8,0.7-3.1,2.1-3.9c1.2-0.8,2.9-1.1,5.1-1.1
				c0.8,0,1.5,0,2.2,0.1c0.6,0.1,1.3,0.2,2,0.5l0.3,0.1v3.3l-0.3-0.3c-0.5-0.5-1.2-0.9-2-1.2c-0.8-0.3-1.6-0.5-2.5-0.5
				c-0.9,0-1.8,0.2-2.4,0.7c-0.7,0.4-1,1-1,1.8c0,1,0.4,1.8,1.3,2.5c0.6,0.5,1.8,1.1,3.4,1.8c1.7,0.7,2.9,1.5,3.8,2.3
				C371.5,63.2,372,64.2,372,65.2z"/>
			<path class="st0" d="M388.7,51.5l-1,3.7c0-0.2-0.1-0.3-0.2-0.5c-0.1-0.2-0.2-0.3-0.4-0.4c-0.2-0.1-0.3-0.2-0.5-0.2
				c-0.2,0-0.3,0-0.5,0c-0.2,0-0.3,0-0.4,0h-3.1v13.8c0,0.4,0,0.8,0.1,1.1c0.1,0.3,0.2,0.6,0.4,1c0.2,0.3,0.6,0.6,1.1,0.9h-5.9
				c0.3-0.2,0.5-0.3,0.6-0.3c0.2-0.1,0.3-0.3,0.4-0.6c0.1-0.3,0.2-0.5,0.2-0.8c0.1-0.3,0.1-0.7,0.1-1.2V54h-3c-0.4,0-0.7,0-1.1,0.1
				c-0.4,0.1-0.7,0.2-1,0.3c-0.1,0.1-0.3,0.2-0.5,0.3c-0.2,0.2-0.4,0.3-0.4,0.4l1-3.6l0.6,0.2l0.9,0.1h11.3c0.2,0,0.3,0,0.4,0
				c0.2,0,0.3,0,0.4,0L388.7,51.5z"/>
			<path class="st0" d="M408.4,70.7c0,0-0.3,0-0.8,0c-0.5,0-1,0-1.6,0c-0.2,0-0.3,0-0.3,0c-1,0-1.7-0.1-2.1-0.2
				c-0.4-0.1-1-0.5-1.6-1.1c-0.5-0.5-1.1-1.2-1.8-2.1c-0.3-0.4-1-1.2-1.9-2.5c-0.4-0.5-1-1.4-1.7-2.5c-0.5-0.8-0.9-1.4-1-1.6
				c0.3,0,0.6-0.1,1.1-0.2c0.4-0.1,0.9-0.2,1.3-0.4c0.8-0.3,1.4-0.8,1.8-1.3c0.5-0.6,0.8-1.4,0.8-2.2c0-0.1,0-0.2,0-0.3
				c0-0.1,0-0.2,0-0.3c-0.1-0.8-0.5-1.4-1.2-1.9c-0.7-0.5-1.5-0.7-2.5-0.7c-0.4,0-0.9,0.1-1.4,0.2l-0.4,0.1v13.8c0,0.2,0,0.3,0,0.5
				c0,0.4,0,0.7,0,1c0,0.2,0.1,0.5,0.2,0.7c0.1,0.2,0.2,0.4,0.4,0.5c0.1,0.1,0.3,0.3,0.6,0.4h-5.5c0.3-0.1,0.5-0.2,0.6-0.4
				c0.2-0.1,0.3-0.3,0.4-0.6c0.1-0.3,0.2-0.5,0.2-0.8c0-0.3,0.1-0.6,0.1-0.9c0-0.2,0-0.3,0-0.4v-13c0-0.6,0-1-0.1-1.3
				c-0.1-0.3-0.2-0.5-0.3-0.8c-0.2-0.4-0.5-0.6-1-0.8h7.2c1.6,0,2.9,0.4,4,1.1c1.2,0.9,1.8,2.1,1.8,3.6c0,1-0.4,2-1.3,3
				c-0.8,1-1.9,1.6-3.1,2l-0.3,0.1l4.6,5.9c0.3,0.4,0.7,0.8,1.3,1.3c0.4,0.4,0.8,0.7,1.2,0.9c0.4,0.2,0.8,0.5,1.2,0.7
				C407.6,70.4,408,70.6,408.4,70.7z"/>
			<path class="st0" d="M425.7,51.8l-7.1,10.7v5.2c0,0.5,0,0.9,0.1,1.2c0,0.3,0.2,0.6,0.5,1c0.1,0.2,0.3,0.3,0.4,0.4
				c0.2,0.2,0.4,0.4,0.6,0.5h-5.9c0.2-0.1,0.4-0.3,0.6-0.4c0.2-0.1,0.3-0.3,0.4-0.6c0.1-0.2,0.2-0.5,0.3-0.8c0-0.3,0.1-0.6,0.1-1
				c0-0.2,0-0.4,0-0.4v-5.1l-5.1-8.2c-0.2-0.4-0.4-0.8-0.6-1c-0.1-0.2-0.3-0.4-0.5-0.6c-0.3-0.3-0.5-0.5-0.6-0.6
				c-0.2-0.1-0.3-0.2-0.6-0.3h0.3h2.6c0.2,0,0.4,0,0.6,0c0.1,0,0.3,0.1,0.5,0.2c0.2,0.1,0.4,0.2,0.5,0.3c0.1,0.1,0.2,0.3,0.4,0.6
				l4.5,7.3l3.7-5.5c0.1-0.2,0.2-0.4,0.3-0.6c0.1-0.3,0.1-0.5,0.1-0.8c0-0.1,0-0.2,0-0.2c0-0.3-0.2-0.5-0.6-0.8
				c-0.1-0.1-0.3-0.2-0.6-0.3H425.7z"/>
		</g>
		<path class="st0" d="M4.3,4.5v83.8h79.6V4.5H4.3z M14.1,17.1c0.9,0,2.3,0.2,7,0.2c3.1,0,6.4-0.2,7.4-0.2c0.9,0,1.1,0.3,1.1,0.9
			c0,1.5-4.5,0.6-4.5,4.6c0,1.5,0.6,3.4,1.1,5.2l9.7,35.8h0.1l6.2-28.4l-3.1-11.7c-1.4-5.4-5.3-3.9-5.3-5.5c0-0.9,0.5-1,1.4-1
			c2.1,0,4.5,0.2,6.4,0.2c2.7,0,6.4-0.2,7.6-0.2c0.8,0,1,0.3,1,0.9c0,2-4.2-0.2-4.2,4.2c0,3.3,0.7,5.8,1.2,7.7l8.7,34.6h0.1l7-29.4
			c0.5-2.1,1-6.4,1-8.9c0-8.6-5.1-6.3-5.1-8.1c0-0.9,0.5-1,1.8-1c1.1,0,2.8,0.2,5.3,0.2c3.2,0,5.5-0.2,6.7-0.2c1.4,0,1.9,0.1,1.9,1
			c0,1.9-5.2-0.9-8.5,12L55.3,73.6c-0.5,1.8-0.8,3.3-1.5,3.3c-0.7,0-1.1-1.5-1.5-3.3l-9.1-35.4h-0.1l-8.2,35.4
			c-0.4,1.8-0.7,3.3-1.4,3.3c-0.7,0-1.1-1.5-1.5-3.3L19.2,25.4c-2.2-8.2-6.2-5.6-6.2-7.4C13,17.5,13.2,17.1,14.1,17.1z"/>
	</g>
</g>
</svg>
