<svg version="1.1" id="el_ysD-gHdZw" xmlns="http://www.w3.org/2000/svg" xmlns:xlink="http://www.w3.org/1999/xlink" x="0px" y="0px" viewBox="0 0 433 423" style="enable-background:new 0 0 433.7 423.1;" xml:space="preserve"><style>@-webkit-keyframes kf_el_QtOaui8z26a_an_152fxqlGg{0%{-webkit-transform: translate(336.6000061035156px, 283.9499969482422px) translate(-336.6000061035156px, -283.9499969482422px) translate(0px, 0px);transform: translate(336.6000061035156px, 283.9499969482422px) translate(-336.6000061035156px, -283.9499969482422px) translate(0px, 0px);}63.89%{-webkit-transform: translate(336.6000061035156px, 283.9499969482422px) translate(-336.6000061035156px, -283.9499969482422px) translate(0px, 0px);transform: translate(336.6000061035156px, 283.9499969482422px) translate(-336.6000061035156px, -283.9499969482422px) translate(0px, 0px);}68.33%{-webkit-transform: translate(336.6000061035156px, 283.9499969482422px) translate(-336.6000061035156px, -283.9499969482422px) translate(0px, -10px);transform: translate(336.6000061035156px, 283.9499969482422px) translate(-336.6000061035156px, -283.9499969482422px) translate(0px, -10px);}72.78%{-webkit-transform: translate(336.6000061035156px, 283.9499969482422px) translate(-336.6000061035156px, -283.9499969482422px) translate(0px, 0px);transform: translate(336.6000061035156px, 283.9499969482422px) translate(-336.6000061035156px, -283.9499969482422px) translate(0px, 0px);}100%{-webkit-transform: translate(336.6000061035156px, 283.9499969482422px) translate(-336.6000061035156px, -283.9499969482422px) translate(0px, 0px);transform: translate(336.6000061035156px, 283.9499969482422px) translate(-336.6000061035156px, -283.9499969482422px) translate(0px, 0px);}}@keyframes kf_el_QtOaui8z26a_an_152fxqlGg{0%{-webkit-transform: translate(336.6000061035156px, 283.9499969482422px) translate(-336.6000061035156px, -283.9499969482422px) translate(0px, 0px);transform: translate(336.6000061035156px, 283.9499969482422px) translate(-336.6000061035156px, -283.9499969482422px) translate(0px, 0px);}63.89%{-webkit-transform: translate(336.6000061035156px, 283.9499969482422px) translate(-336.6000061035156px, -283.9499969482422px) translate(0px, 0px);transform: translate(336.6000061035156px, 283.9499969482422px) translate(-336.6000061035156px, -283.9499969482422px) translate(0px, 0px);}68.33%{-webkit-transform: translate(336.6000061035156px, 283.9499969482422px) translate(-336.6000061035156px, -283.9499969482422px) translate(0px, -10px);transform: translate(336.6000061035156px, 283.9499969482422px) translate(-336.6000061035156px, -283.9499969482422px) translate(0px, -10px);}72.78%{-webkit-transform: translate(336.6000061035156px, 283.9499969482422px) translate(-336.6000061035156px, -283.9499969482422px) translate(0px, 0px);transform: translate(336.6000061035156px, 283.9499969482422px) translate(-336.6000061035156px, -283.9499969482422px) translate(0px, 0px);}100%{-webkit-transform: translate(336.6000061035156px, 283.9499969482422px) translate(-336.6000061035156px, -283.9499969482422px) translate(0px, 0px);transform: translate(336.6000061035156px, 283.9499969482422px) translate(-336.6000061035156px, -283.9499969482422px) translate(0px, 0px);}}@-webkit-keyframes kf_el_hZCBFuQIgol_an_zdW3eF7Mi{0%{-webkit-transform: translate(102.33806228637695px, 319.29998779296875px) scale(1, 1) translate(-102.33806228637695px, -319.29998779296875px);transform: translate(102.33806228637695px, 319.29998779296875px) scale(1, 1) translate(-102.33806228637695px, -319.29998779296875px);}72.22%{-webkit-transform: translate(102.33806228637695px, 319.29998779296875px) scale(1, 1) translate(-102.33806228637695px, -319.29998779296875px);transform: translate(102.33806228637695px, 319.29998779296875px) scale(1, 1) translate(-102.33806228637695px, -319.29998779296875px);}83.33%{-webkit-transform: translate(102.33806228637695px, 319.29998779296875px) scale(1.3, 1.3) translate(-102.33806228637695px, -319.29998779296875px);transform: translate(102.33806228637695px, 319.29998779296875px) scale(1.3, 1.3) translate(-102.33806228637695px, -319.29998779296875px);}88.89%{-webkit-transform: translate(102.33806228637695px, 319.29998779296875px) scale(1, 1) translate(-102.33806228637695px, -319.29998779296875px);transform: translate(102.33806228637695px, 319.29998779296875px) scale(1, 1) translate(-102.33806228637695px, -319.29998779296875px);}100%{-webkit-transform: translate(102.33806228637695px, 319.29998779296875px) scale(1, 1) translate(-102.33806228637695px, -319.29998779296875px);transform: translate(102.33806228637695px, 319.29998779296875px) scale(1, 1) translate(-102.33806228637695px, -319.29998779296875px);}}@keyframes kf_el_hZCBFuQIgol_an_zdW3eF7Mi{0%{-webkit-transform: translate(102.33806228637695px, 319.29998779296875px) scale(1, 1) translate(-102.33806228637695px, -319.29998779296875px);transform: translate(102.33806228637695px, 319.29998779296875px) scale(1, 1) translate(-102.33806228637695px, -319.29998779296875px);}72.22%{-webkit-transform: translate(102.33806228637695px, 319.29998779296875px) scale(1, 1) translate(-102.33806228637695px, -319.29998779296875px);transform: translate(102.33806228637695px, 319.29998779296875px) scale(1, 1) translate(-102.33806228637695px, -319.29998779296875px);}83.33%{-webkit-transform: translate(102.33806228637695px, 319.29998779296875px) scale(1.3, 1.3) translate(-102.33806228637695px, -319.29998779296875px);transform: translate(102.33806228637695px, 319.29998779296875px) scale(1.3, 1.3) translate(-102.33806228637695px, -319.29998779296875px);}88.89%{-webkit-transform: translate(102.33806228637695px, 319.29998779296875px) scale(1, 1) translate(-102.33806228637695px, -319.29998779296875px);transform: translate(102.33806228637695px, 319.29998779296875px) scale(1, 1) translate(-102.33806228637695px, -319.29998779296875px);}100%{-webkit-transform: translate(102.33806228637695px, 319.29998779296875px) scale(1, 1) translate(-102.33806228637695px, -319.29998779296875px);transform: translate(102.33806228637695px, 319.29998779296875px) scale(1, 1) translate(-102.33806228637695px, -319.29998779296875px);}}@-webkit-keyframes kf_el_b3aBNjJve5D_an_ayt9N0ref{0%{opacity: 0;}69.44%{opacity: 0;}83.89%{opacity: 1;}100%{opacity: 1;}}@keyframes kf_el_b3aBNjJve5D_an_ayt9N0ref{0%{opacity: 0;}69.44%{opacity: 0;}83.89%{opacity: 1;}100%{opacity: 1;}}@-webkit-keyframes kf_el_-EKxVt0uG6u_an_dguu66G3J{0%{opacity: 0;}56.11%{opacity: 0;}69.44%{opacity: 1;}100%{opacity: 1;}}@keyframes kf_el_-EKxVt0uG6u_an_dguu66G3J{0%{opacity: 0;}56.11%{opacity: 0;}69.44%{opacity: 1;}100%{opacity: 1;}}@-webkit-keyframes kf_el_YRPtKXwH1UT_an_4h4mNJUBf{0%{opacity: 0;}42.22%{opacity: 0;}56.11%{opacity: 1;}100%{opacity: 1;}}@keyframes kf_el_YRPtKXwH1UT_an_4h4mNJUBf{0%{opacity: 0;}42.22%{opacity: 0;}56.11%{opacity: 1;}100%{opacity: 1;}}@-webkit-keyframes kf_el_Ev3yYenErkp_an_ezWFq86Vl{0%{opacity: 1;}36.11%{opacity: 1;}42.22%{opacity: 0;}100%{opacity: 0;}}@keyframes kf_el_Ev3yYenErkp_an_ezWFq86Vl{0%{opacity: 1;}36.11%{opacity: 1;}42.22%{opacity: 0;}100%{opacity: 0;}}@-webkit-keyframes kf_el_G_cxz4-X0zQ_an_KYNESydYE{0%{opacity: 0;}36.11%{opacity: 0;}42.22%{opacity: 1;}100%{opacity: 1;}}@keyframes kf_el_G_cxz4-X0zQ_an_KYNESydYE{0%{opacity: 0;}36.11%{opacity: 0;}42.22%{opacity: 1;}100%{opacity: 1;}}@-webkit-keyframes kf_el_Ev3yYenErkp_an_0o2B05KIb_{0%{stroke-dasharray: 113.61;}25%{stroke-dasharray: 113.61;}100%{stroke-dasharray: 113.61;}}@keyframes kf_el_Ev3yYenErkp_an_0o2B05KIb_{0%{stroke-dasharray: 113.61;}25%{stroke-dasharray: 113.61;}100%{stroke-dasharray: 113.61;}}@-webkit-keyframes kf_el_Ev3yYenErkp_an_039xiwdAv{0%{stroke-dashoffset: 113.61;}25%{stroke-dashoffset: 113.61;}36.11%{stroke-dashoffset: 0;}100%{stroke-dashoffset: 0;}}@keyframes kf_el_Ev3yYenErkp_an_039xiwdAv{0%{stroke-dashoffset: 113.61;}25%{stroke-dashoffset: 113.61;}36.11%{stroke-dashoffset: 0;}100%{stroke-dashoffset: 0;}}@-webkit-keyframes kf_el_-tGNYn38qA-_an_ccByS9NUx{0%{opacity: 0;}16.67%{opacity: 0;}25%{opacity: 1;}100%{opacity: 1;}}@keyframes kf_el_-tGNYn38qA-_an_ccByS9NUx{0%{opacity: 0;}16.67%{opacity: 0;}25%{opacity: 1;}100%{opacity: 1;}}@-webkit-keyframes kf_el_hD356OJvY3A_an_LlTaAsPZQJ{0%{stroke-dasharray: 276.86;}100%{stroke-dasharray: 276.86;}}@keyframes kf_el_hD356OJvY3A_an_LlTaAsPZQJ{0%{stroke-dasharray: 276.86;}100%{stroke-dasharray: 276.86;}}@-webkit-keyframes kf_el_hD356OJvY3A_an_Gboj0xcTN{0%{stroke-dashoffset: 276.86;}16.67%{stroke-dashoffset: 0;}100%{stroke-dashoffset: 0;}}@keyframes kf_el_hD356OJvY3A_an_Gboj0xcTN{0%{stroke-dashoffset: 276.86;}16.67%{stroke-dashoffset: 0;}100%{stroke-dashoffset: 0;}}@-webkit-keyframes kf_el_q-gC89umPUF_an_NwjhDCOUQf{0%{stroke-dasharray: 285.8;}100%{stroke-dasharray: 285.8;}}@keyframes kf_el_q-gC89umPUF_an_NwjhDCOUQf{0%{stroke-dasharray: 285.8;}100%{stroke-dasharray: 285.8;}}@-webkit-keyframes kf_el_q-gC89umPUF_an_cLWmcZE30{0%{stroke-dashoffset: 285.8;}16.67%{stroke-dashoffset: 0;}100%{stroke-dashoffset: 0;}}@keyframes kf_el_q-gC89umPUF_an_cLWmcZE30{0%{stroke-dashoffset: 285.8;}16.67%{stroke-dashoffset: 0;}100%{stroke-dashoffset: 0;}}#el_ysD-gHdZw *{-webkit-animation-duration: 6s;animation-duration: 6s;-webkit-animation-iteration-count: infinite;animation-iteration-count: infinite;-webkit-animation-timing-function: cubic-bezier(0, 0, 1, 1);animation-timing-function: cubic-bezier(0, 0, 1, 1);}#el_lU-sU9SeCp{fill: url(#XMLID_2_);}#el_vX4gvGhnMt{fill: #274187;}#el_N9kRzlShXH{fill: url(#XMLID_3_);}#el_ZVP1Endcue{fill: url(#SVGID_1_);}#el_9trrQK1Tl9{fill: #E3EDFE;}#el_CxJnAuDXNF{fill: #E3EDFE;}#el_1U5Ocet3ix{fill: #E3EDFE;}#el_1t-MKS1Hds{opacity: 0.7;}#el_kJUGjj2Bbc{opacity: 0.3;fill: #111C3A;}#el_1FwsB4QLRm{opacity: 0.3;fill: #111C3A;}#el_x6y_Rc3wrR{opacity: 0.3;fill: #111C3A;}#el_gUYVqxDja0{opacity: 0.3;fill: #111C3A;}#el_oehqE8av6e{opacity: 0.3;fill: #111C3A;}#el_Du10bYR6Vi{opacity: 0.3;fill: #111C3A;}#el_VNqAtn8Zbjo{fill: #6C98E3;}#el_XL1nUXMYvYw{fill: #6C98E3;}#el_wBL9rikZoN5{fill: url(#SVGID_2_);}#el_yjd2LxUVLDt{fill: #B3CDFA;}#el_p6pk6iuOi9K{fill: #B3CDFA;}#el_dev84Z9sLJE{fill: #B3CDFA;}#el_zB6VPevqPpj{fill: #B3CDFA;}#el_4fY0Y-8uhPE{fill: #B3CDFA;}#el_JGORQmJFlOw{fill: #B3CDFA;}#el_LpKHAfKHNKW{fill: #BBD2FB;}#el_4djJ9H6feDL{fill: #BBD2FB;}#el_Yq_wMzEUfCs{fill: #BBD2FB;}#el_VXGsCFujmDx{opacity: 0.3;fill: #B3CDFA;}#el_f2pqaFK9zdC{fill: url(#SVGID_3_);}#el_Yry4XJYAEYA{fill: url(#SVGID_4_);}#el_3sDZiIhofWS{fill: url(#SVGID_5_);}#el_TBN96g2iROe{fill: url(#SVGID_6_);}#el_-uTRG0c84VI{fill: url(#SVGID_7_);}#el_wSRFcB1Jb8C{fill: #E3EDFE;}#el_t6hMU0hl1pH{fill: #E3EDFE;}#el_G_cxz4-X0zQ{fill: url(#SVGID_8_);-webkit-animation-fill-mode: backwards;animation-fill-mode: backwards;opacity: 0;-webkit-animation-name: kf_el_G_cxz4-X0zQ_an_KYNESydYE;animation-name: kf_el_G_cxz4-X0zQ_an_KYNESydYE;-webkit-animation-timing-function: cubic-bezier(0, 0, 0.58, 1);animation-timing-function: cubic-bezier(0, 0, 0.58, 1);}#el_Ev3yYenErkp{fill: none;stroke: url(#orange-path-2_1_);stroke-miterlimit: 10;-webkit-animation-fill-mode: backwards, backwards, backwards;animation-fill-mode: backwards, backwards, backwards;stroke-dashoffset: 113.61;-webkit-animation-name: kf_el_Ev3yYenErkp_an_039xiwdAv, kf_el_Ev3yYenErkp_an_0o2B05KIb_, kf_el_Ev3yYenErkp_an_ezWFq86Vl;animation-name: kf_el_Ev3yYenErkp_an_039xiwdAv, kf_el_Ev3yYenErkp_an_0o2B05KIb_, kf_el_Ev3yYenErkp_an_ezWFq86Vl;-webkit-animation-timing-function: cubic-bezier(0, 0, 0.58, 1), cubic-bezier(0, 0, 0.58, 1), cubic-bezier(0, 0, 0.58, 1);animation-timing-function: cubic-bezier(0, 0, 0.58, 1), cubic-bezier(0, 0, 0.58, 1), cubic-bezier(0, 0, 0.58, 1);stroke-dasharray: 113.61;opacity: 1;}#el_w9Zv6QsLVP_{fill: url(#SVGID_9_);}#el_gS0o8vf-sal{fill: url(#XMLID_4_);}#el_QsoD_B72jIo{fill: #FFFFFF;}#el_qHvfFIYnBcP{fill: #6C98E3;}#el_gaK1KY0NOYp{fill: #6C98E3;}#el_iM8v6Yjs2lU{fill: url(#SVGID_10_);}#el_J9s3RpiI6Db{fill: #E3EDFE;}#el_hBa8UUtI6tf{fill: #B3CDFA;}#el_eEDYxFysSd8{fill: #B3CDFA;}#el_HauZDIwk4Bh{fill: #B3CDFA;}#el_g_qM0p6bCuK{fill: #B3CDFA;}#el_76amLfnL508{fill: #E3EDFE;}#el_5CqtVbhQmXw{fill: #E3EDFE;}#el_SuuoJzdisMg{fill: #E3EDFE;}#el_7R_Agx7NGzn{fill: #E3EDFE;}#el_oO8sB0r-MVA{fill: #E3EDFE;}#el_b3aBNjJve5D{fill: url(#pie-3_1_);-webkit-animation-fill-mode: backwards;animation-fill-mode: backwards;opacity: 0;-webkit-animation-name: kf_el_b3aBNjJve5D_an_ayt9N0ref;animation-name: kf_el_b3aBNjJve5D_an_ayt9N0ref;-webkit-animation-timing-function: cubic-bezier(0, 0, 1, 1);animation-timing-function: cubic-bezier(0, 0, 1, 1);}#el_-EKxVt0uG6u{fill: url(#pie-2_1_);-webkit-animation-fill-mode: backwards;animation-fill-mode: backwards;opacity: 0;-webkit-animation-name: kf_el_-EKxVt0uG6u_an_dguu66G3J;animation-name: kf_el_-EKxVt0uG6u_an_dguu66G3J;-webkit-animation-timing-function: cubic-bezier(0, 0, 0.58, 1);animation-timing-function: cubic-bezier(0, 0, 0.58, 1);}#el_YRPtKXwH1UT{fill: url(#pie-1_1_);-webkit-animation-fill-mode: backwards;animation-fill-mode: backwards;opacity: 0;-webkit-animation-name: kf_el_YRPtKXwH1UT_an_4h4mNJUBf;animation-name: kf_el_YRPtKXwH1UT_an_4h4mNJUBf;-webkit-animation-timing-function: cubic-bezier(0, 0, 0.58, 1);animation-timing-function: cubic-bezier(0, 0, 0.58, 1);}#el_qBRV0SFzzLE{fill: url(#SVGID_11_);}#el_I4rdC2CSa_I{fill: #E1EBFD;}#el_T2UhpUwAV-l{fill: #E1EBFD;}#el_KWgdG5JWDsV{fill: #E1EBFD;}#el_z-0kWqV8D7S{fill: #E1EBFD;}#el_U2z-Sv6ErDW{fill: #E1EBFD;}#el_JVzoF1Vg-67{fill: #E1EBFD;}#el_CCAHA3tfRVg{fill: url(#SVGID_12_);}#el_wBqH6s9nbeh{fill: url(#SVGID_13_);}#el_0gr3DxHCTLd{fill: url(#SVGID_14_);}#el_5qY7yfVI_1m{fill: url(#SVGID_15_);}#el_ZbHCcBqxhlA{fill: url(#SVGID_16_);}#el_tPpT-Ze7mX7{fill: url(#SVGID_17_);}#el_wmGBb6u293t{fill: url(#SVGID_18_);}#el_Fi3jjwJs7Uf{fill: #E1EBFD;}#el_bT_kch0pVa5{fill: #E1EBFD;}#el_hSLZimvxeMN{fill: #E1EBFD;}#el_JasGUjv9yPh{fill: url(#SVGID_19_);}#el_Yoj6i9kUZlQ{fill: #FFFFFF;}#el_pSLUSJRsks5{fill: #FFFFFF;}#el_XpQpCOvP7Zh{fill: #FFFFFF;}#el__k5WTyuVgFe{fill: #FFFFFF;}#el_hD356OJvY3A{opacity: 0.34;fill: none;stroke: #111C3A;stroke-width: 2;stroke-linecap: round;stroke-miterlimit: 10;-webkit-animation-fill-mode: backwards, backwards;animation-fill-mode: backwards, backwards;stroke-dashoffset: 276.86;-webkit-animation-name: kf_el_hD356OJvY3A_an_Gboj0xcTN, kf_el_hD356OJvY3A_an_LlTaAsPZQJ;animation-name: kf_el_hD356OJvY3A_an_Gboj0xcTN, kf_el_hD356OJvY3A_an_LlTaAsPZQJ;-webkit-animation-timing-function: cubic-bezier(0, 0, 0.58, 1), cubic-bezier(0, 0, 0.58, 1);animation-timing-function: cubic-bezier(0, 0, 0.58, 1), cubic-bezier(0, 0, 0.58, 1);stroke-dasharray: 276.86;}#el_q-gC89umPUF{fill: none;stroke: url(#orange-curve_1_);stroke-width: 2;stroke-linecap: round;stroke-miterlimit: 10;-webkit-animation-fill-mode: backwards, backwards;animation-fill-mode: backwards, backwards;stroke-dashoffset: 285.8;-webkit-animation-name: kf_el_q-gC89umPUF_an_cLWmcZE30, kf_el_q-gC89umPUF_an_NwjhDCOUQf;animation-name: kf_el_q-gC89umPUF_an_cLWmcZE30, kf_el_q-gC89umPUF_an_NwjhDCOUQf;-webkit-animation-timing-function: cubic-bezier(0, 0, 0.58, 1), cubic-bezier(0, 0, 0.58, 1);animation-timing-function: cubic-bezier(0, 0, 0.58, 1), cubic-bezier(0, 0, 0.58, 1);stroke-dasharray: 285.8;}#el_-tGNYn38qA-{-webkit-animation-fill-mode: backwards;animation-fill-mode: backwards;opacity: 0;-webkit-animation-name: kf_el_-tGNYn38qA-_an_ccByS9NUx;animation-name: kf_el_-tGNYn38qA-_an_ccByS9NUx;-webkit-animation-timing-function: cubic-bezier(0, 0, 0.58, 1);animation-timing-function: cubic-bezier(0, 0, 0.58, 1);}#el_v_q84CbMmzA_an_ycGe72eL_{-webkit-transform: translate(134.2000274658203px, 210.5px) rotate(0deg) translate(-134.2000274658203px, -210.5px);transform: translate(134.2000274658203px, 210.5px) rotate(0deg) translate(-134.2000274658203px, -210.5px);}#el_hZCBFuQIgol_an_zdW3eF7Mi{-webkit-animation-fill-mode: backwards;animation-fill-mode: backwards;-webkit-transform: translate(102.33806228637695px, 319.29998779296875px) scale(1, 1) translate(-102.33806228637695px, -319.29998779296875px);transform: translate(102.33806228637695px, 319.29998779296875px) scale(1, 1) translate(-102.33806228637695px, -319.29998779296875px);-webkit-animation-name: kf_el_hZCBFuQIgol_an_zdW3eF7Mi;animation-name: kf_el_hZCBFuQIgol_an_zdW3eF7Mi;-webkit-animation-timing-function: cubic-bezier(0, 0, 0.58, 1);animation-timing-function: cubic-bezier(0, 0, 0.58, 1);}#el_QtOaui8z26a_an_152fxqlGg{-webkit-animation-fill-mode: backwards;animation-fill-mode: backwards;-webkit-transform: translate(336.6000061035156px, 283.9499969482422px) translate(-336.6000061035156px, -283.9499969482422px) translate(0px, 0px);transform: translate(336.6000061035156px, 283.9499969482422px) translate(-336.6000061035156px, -283.9499969482422px) translate(0px, 0px);-webkit-animation-name: kf_el_QtOaui8z26a_an_152fxqlGg;animation-name: kf_el_QtOaui8z26a_an_152fxqlGg;-webkit-animation-timing-function: cubic-bezier(0, 0, 0.58, 1);animation-timing-function: cubic-bezier(0, 0, 0.58, 1);}</style>

<g id="el_sOx-pXkyQ5">
	<linearGradient id="XMLID_2_" gradientUnits="userSpaceOnUse" x1="61.9111" y1="360.6047" x2="343.0425" y2="59.5783">
		<stop offset="0" style="stop-color:#2842A2"/>
		<stop offset="0.5392" style="stop-color:#2D4BAA"/>
		<stop offset="1" style="stop-color:#3457B4"/>
	</linearGradient>
	<path id="el_lU-sU9SeCp" d="M285.9,360.1H74.1c-6.3,0-11.1-5.6-10.2-11.8l43.3-279.3c0.8-5.3,5.8-9.7,11.1-9.7h216.7&#xA;&#9;&#9;c5.3,0,9,4.3,8.2,9.7l-43.3,279C299,354.9,292.9,360.1,285.9,360.1z"/>
	<path d="M339.5,60.4c0.5,1.3,0.7,2.8,0.4,4.4l-43.3,279c-1.1,7-7.1,12.2-14.1,12.2H70.7c-2.2,0-4.3-0.7-6-1.9&#xA;&#9;&#9;c1.6,3.5,5.2,6,9.3,6h211.8c7.1,0,13.1-5.2,14.1-12.2l43.3-279C343.8,65.3,342.3,62.1,339.5,60.4z" id="el_vX4gvGhnMt"/>
	
		<linearGradient id="XMLID_3_" gradientUnits="userSpaceOnUse" x1="113.8956" y1="72.9709" x2="349.9562" y2="72.9709" gradientTransform="matrix(1 0 -0.1503 1 3.6954 0)">
		<stop offset="0" style="stop-color:#3457B4"/>
		<stop offset="0.3723" style="stop-color:#4E75CA"/>
		<stop offset="0.7641" style="stop-color:#648FDC"/>
		<stop offset="1" style="stop-color:#6C98E3"/>
	</linearGradient>
	<path id="el_N9kRzlShXH" d="M340.6,86.7l2.8-18.4c0.7-4.9-2.7-8.9-7.6-8.9H117.6c-4.9,0-9.5,4-10.3,8.9l-2.8,18.4H340.6z"/>
	<linearGradient id="SVGID_1_" gradientUnits="userSpaceOnUse" x1="336.6306" y1="74.7822" x2="343.3999" y2="74.7822">
		<stop offset="0" style="stop-color:#3457B4"/>
		<stop offset="0.2224" style="stop-color:#3A5EB9"/>
		<stop offset="0.5521" style="stop-color:#4C72C8"/>
		<stop offset="0.9471" style="stop-color:#6893DF"/>
		<stop offset="1" style="stop-color:#6C98E3"/>
	</linearGradient>
	<path d="M336.6,86.7l3.6,2.5l1.5-10l1.5-10.2c0.6-3.7-1-6.9-3.8-8.5c0.5,1.3,0.7,2.8,0.4,4.4L336.6,86.7z" id="el_ZVP1Endcue"/>
	<path id="el_9trrQK1Tl9" d="M129,73c-0.2,1.6-1.7,2.8-3.2,2.8c-1.6,0-2.6-1.3-2.4-2.8c0.2-1.6,1.7-2.8,3.2-2.8&#xA;&#9;&#9;C128.1,70.2,129.2,71.4,129,73z"/>
	<path id="el_CxJnAuDXNF" d="M141.6,73c-0.2,1.6-1.7,2.8-3.2,2.8c-1.6,0-2.6-1.3-2.4-2.8c0.2-1.6,1.7-2.8,3.2-2.8&#xA;&#9;&#9;C140.7,70.2,141.8,71.4,141.6,73z"/>
	<path id="el_1U5Ocet3ix" d="M154.2,73c-0.2,1.6-1.7,2.8-3.2,2.8c-1.6,0-2.6-1.3-2.4-2.8c0.2-1.6,1.7-2.8,3.2-2.8&#xA;&#9;&#9;C153.4,70.2,154.4,71.4,154.2,73z"/>
</g>
<g id="el_1t-MKS1Hds">
	<path d="M111.5,149c-1.1,0-2,0.9-2.2,1.9c-0.1,1,0.5,1.8,1.4,1.9L81.9,354.3h0.4l28.8-201.5c1-0.1,1.8-0.9,2-1.9&#xA;&#9;&#9;C113.3,149.8,112.5,149,111.5,149z" id="el_kJUGjj2Bbc"/>
	<path d="M149.4,157.7c-1.1,0-2,0.9-2.2,1.9c-0.1,1,0.5,1.8,1.4,1.9l-27.6,192.9h0.4l27.6-192.9c1-0.1,1.8-0.9,2-1.9&#xA;&#9;&#9;C151.2,158.5,150.4,157.7,149.4,157.7z" id="el_1FwsB4QLRm"/>
	<path d="M193.7,120.8c-1.1,0-2,0.9-2.2,1.9c-0.1,1,0.5,1.8,1.4,1.9l-32.8,229.7h0.4l32.8-229.7c1-0.1,1.8-0.9,2-1.9&#xA;&#9;&#9;C195.5,121.7,194.8,120.8,193.7,120.8z" id="el_x6y_Rc3wrR"/>
	<path d="M234.8,107.2c-1.1,0-2,0.9-2.2,1.9c-0.1,1,0.5,1.8,1.4,1.9l-34.7,243.3h0.4L234.5,111c1-0.1,1.8-0.9,2-1.9&#xA;&#9;&#9;C236.6,108.1,235.9,107.2,234.8,107.2z" id="el_gUYVqxDja0"/>
	<path d="M270.1,134.3c-1.1,0-2,0.9-2.2,1.9c-0.1,1,0.5,1.8,1.4,1.9l-30.9,216.2h0.4l30.9-216.2c1-0.1,1.8-0.9,2-1.9&#xA;&#9;&#9;C271.9,135.2,271.2,134.3,270.1,134.3z" id="el_oehqE8av6e"/>
	<path d="M312.2,127.1c0.1-1.1-0.6-1.9-1.6-1.9c-1.1,0-2,0.9-2.2,1.9c-0.1,1,0.5,1.8,1.4,1.9l-32.2,225.3l0.4,0&#xA;&#9;&#9;L310.2,129C311.2,128.9,312,128.1,312.2,127.1z" id="el_Du10bYR6Vi"/>
</g>
<polygon points="181.4,106.3 115.6,106.3 116,102.9 181.9,102.9 " id="el_VNqAtn8Zbjo"/>
<polygon points="148.5,114.7 114.4,114.7 114.9,111.2 149,111.2 " id="el_XL1nUXMYvYw"/>
<g id="el_zkcP_yExFwr">
	<linearGradient id="SVGID_2_" gradientUnits="userSpaceOnUse" x1="98.3187" y1="236.2644" x2="210.3284" y2="178.7856">
		<stop offset="0" style="stop-color:#EEF4FE"/>
		<stop offset="0.4655" style="stop-color:#F8FBFF"/>
		<stop offset="1" style="stop-color:#FFFFFF"/>
	</linearGradient>
	<path d="M190.8,235.4H99.3c-0.9,0-1.5-0.7-1.4-1.7l6.4-46.4c0.1-0.9,1-1.7,1.9-1.7h91.5c0.9,0,1.5,0.7,1.4,1.7&#xA;&#9;&#9;l-6.4,46.4C192.6,234.6,191.7,235.4,190.8,235.4z" id="el_wBL9rikZoN5"/>
	<polygon points="113.8,192.5 108.3,192.5 108.7,189.7 114.2,189.7 &#9;" id="el_yjd2LxUVLDt"/>
	<polygon points="112.7,200.2 107.2,200.2 107.6,197.4 113.1,197.4 &#9;" id="el_p6pk6iuOi9K"/>
	<polygon points="111.7,208 106.1,208 106.5,205.2 112,205.2 &#9;" id="el_dev84Z9sLJE"/>
	<polygon points="110.6,215.7 105.1,215.7 105.5,212.9 111,212.9 &#9;" id="el_zB6VPevqPpj"/>
	<polygon points="109.5,223.4 104,223.4 104.4,220.6 109.9,220.6 &#9;" id="el_4fY0Y-8uhPE"/>
	<polygon points="108.5,231.1 103,231.1 103.3,228.3 108.9,228.3 &#9;" id="el_JGORQmJFlOw"/>
	<polygon points="189.3,204 160.5,204 160.8,201.2 189.7,201.2 &#9;" id="el_LpKHAfKHNKW"/>
	<polygon points="188.2,211.9 159.4,211.9 159.8,209.1 188.6,209.1 &#9;" id="el_4djJ9H6feDL"/>
	<polygon points="174.8,219.8 158.3,219.8 158.7,217 175.2,217 &#9;" id="el_Yq_wMzEUfCs"/>
	<path d="M140,194L140,194c-4.9,0-9.6,2-13.3,5.2c-3.7,3.2-6.3,7.7-6.9,12.6c-1.4,9.8,5.5,17.8,15.4,17.8&#xA;&#9;&#9;c4.9,0,9.6-2,13.3-5.2c3.7-3.2,6.3-7.7,6.9-12.6v0C156.7,202,149.9,194,140,194z M145.4,220.8c-2.6,2.3-6,3.7-9.5,3.7&#xA;&#9;&#9;c-7,0-12-5.7-11-12.7c0.5-3.5,2.3-6.7,5-9c2.6-2.3,6-3.7,9.5-3.7l0,0c7,0,12,5.7,11,12.7v0C149.8,215.3,148,218.5,145.4,220.8z" id="el_VXGsCFujmDx"/>
	<g id="el_v_q84CbMmzA">
		<linearGradient id="SVGID_3_" gradientUnits="userSpaceOnUse" x1="123.3558" y1="197.1262" x2="136.6611" y2="197.1262">
			<stop offset="3.605769e-04" style="stop-color:#ED1179"/>
			<stop offset="0.3956" style="stop-color:#EF3259"/>
			<stop offset="1" style="stop-color:#F36B21"/>
		</linearGradient>
		<path d="M136,197.8L136,197.8l0.7-5.1h0c-4.9,0-9.6,2-13.3,5.2l3.1,3.6C129.1,199.2,132.4,197.8,136,197.8z" id="el_f2pqaFK9zdC"/>
		<linearGradient id="SVGID_4_" gradientUnits="userSpaceOnUse" x1="135.9649" y1="207.9233" x2="152.1884" y2="207.9233">
			<stop offset="3.605769e-04" style="stop-color:#086BB5"/>
			<stop offset="0.4511" style="stop-color:#058CB5"/>
			<stop offset="1" style="stop-color:#00B9B6"/>
		</linearGradient>
		<path d="M136.7,192.7l-0.7,5.1c7,0,12,5.7,11,12.7v0c-0.5,3.5-2.3,6.7-5,9l3.1,3.6c3.7-3.2,6.3-7.7,6.9-12.6v0&#xA;&#9;&#9;&#9;C153.4,200.7,146.5,192.7,136.7,192.7z" id="el_Yry4XJYAEYA"/>
		<linearGradient id="SVGID_5_" gradientUnits="userSpaceOnUse" x1="116.412" y1="204.2361" x2="126.447" y2="204.2361">
			<stop offset="3.605769e-04" style="stop-color:#4EC4D3"/>
			<stop offset="0.5236" style="stop-color:#59A3CA"/>
			<stop offset="1" style="stop-color:#6482C1"/>
		</linearGradient>
		<path d="M121.5,210.5c0.5-3.5,2.3-6.7,5-9l-3.1-3.6c-3.7,3.2-6.3,7.7-6.9,12.6l0,0H121.5L121.5,210.5z" id="el_3sDZiIhofWS"/>
		
			<linearGradient id="SVGID_6_" gradientUnits="userSpaceOnUse" x1="110.2058" y1="219.4324" x2="140.5988" y2="219.4324" gradientTransform="matrix(1 0 -0.1374 1 35.1331 0)">
			<stop offset="3.605769e-04" style="stop-color:#F04D25"/>
			<stop offset="0.3435" style="stop-color:#F26E28"/>
			<stop offset="1" style="stop-color:#F6B62F"/>
		</linearGradient>
		<path d="M142,219.5c-2.6,2.3-6,3.7-9.5,3.7c-7,0-12-5.7-11-12.7h-5.1c-1.4,9.8,5.5,17.8,15.4,17.8&#xA;&#9;&#9;&#9;c4.9,0,9.6-2,13.3-5.2L142,219.5z" id="el_TBN96g2iROe"/>
	</g>
</g>
<g id="el_NSaHRIO4FQe">
	<linearGradient id="SVGID_7_" gradientUnits="userSpaceOnUse" x1="180.8761" y1="295.9101" x2="97.2943" y2="243.1031">
		<stop offset="0" style="stop-color:#EEF4FE"/>
		<stop offset="0.4655" style="stop-color:#F8FBFF"/>
		<stop offset="1" style="stop-color:#FFFFFF"/>
	</linearGradient>
	<path d="M180.5,298.4l-88.4,0c-2.3,0-3.8-1.8-3.5-4.1l6.9-48.1c0.3-2.2,2.4-4,4.7-4l88.4,0c2.3,0,3.8,1.8,3.5,4.1&#xA;&#9;&#9;l-6.9,48.1C184.9,296.6,182.8,298.4,180.5,298.4z" id="el_-uTRG0c84VI"/>
	<polygon points="143,251.9 104.2,251.9 104.7,248.5 143.5,248.5 &#9;" id="el_wSRFcB1Jb8C"/>
	<polygon points="122.5,259.3 103.1,259.3 103.6,255.9 123,255.9 &#9;" id="el_t6hMU0hl1pH"/>
	<linearGradient id="SVGID_8_" gradientUnits="userSpaceOnUse" x1="94.353" y1="277.2031" x2="181.2954" y2="277.2031">
		<stop offset="3.605769e-04" style="stop-color:#F04D25"/>
		<stop offset="0.3435" style="stop-color:#F26E28"/>
		<stop offset="1" style="stop-color:#F6B62F"/>
	</linearGradient>
	<path d="M94.4,289.9c3.7-4.2,7.8-9.5,11.9-13.3c1.4-1.3,3.1-2.7,4.9-3c2.6-0.4,4.6,1.6,6.2,3.3c2,2.1,4.1,4.2,7.1,4.8&#xA;&#9;&#9;c3.7,0.7,7.6-1.1,11.2-2.9c3.1-1.6,6.4-3.3,8.8-5.8c2.4-2.5,3.9-5.7,6.8-7.6c0.5-0.3,1.1-0.6,1.6-0.7c1-0.1,1.8,0.5,2.4,1.2&#xA;&#9;&#9;c1.5,1.8,1.8,4.4,2.4,6.8c0.6,2.4,1.8,4.8,4.2,5.4c3.1,0.7,6.5-2.1,8.6-5c2.1-2.9,3.8-6.2,7-7.9c1-0.5,2.2-0.8,3-0.3&#xA;&#9;&#9;c0.9,0.6,0.9,1.9,0.8,3c-0.2,4.6-0.5,9.3-0.7,13.9c-0.1,1.9-0.6,6.6-2,8.1L94.4,289.9z" id="el_G_cxz4-X0zQ"/>
	<linearGradient id="orange-path-2_1_" gradientUnits="userSpaceOnUse" x1="94.0356" y1="277.0609" x2="179.6822" y2="277.0609">
		<stop offset="3.605769e-04" style="stop-color:#F04D25"/>
		<stop offset="0.3435" style="stop-color:#F26E28"/>
		<stop offset="1" style="stop-color:#F6B62F"/>
	</linearGradient>
	<path id="el_Ev3yYenErkp" d="M94.4,289.6c3.1-3.5,6.2-7.1,9.3-10.6c1.3-1.4,2.5-2.9,4.1-3.9s3.6-1.5,5.4-1&#xA;&#9;&#9;c2.3,0.7,3.7,3,5.5,4.6c4.3,3.8,10.9,3.8,16,1.5c5.2-2.3,9.2-6.6,12.7-11.1c1.5-1.9,3.6-4.2,6-3.6c2.2,0.5,3.2,2.9,3.6,5.1&#xA;&#9;&#9;c0.4,2.2,0.6,4.6,2.2,6.2c2.1,2,5.7,1.5,8-0.3c2.3-1.8,3.8-4.4,5.5-6.8c1.7-2.4,4-4.6,6.9-5"/>
</g>
<g id="el_cLOff2REhzV">
	<linearGradient id="SVGID_9_" gradientUnits="userSpaceOnUse" x1="178.4878" y1="333.3134" x2="87.9098" y2="305.5362">
		<stop offset="0" style="stop-color:#EEF4FE"/>
		<stop offset="0.4655" style="stop-color:#F8FBFF"/>
		<stop offset="1" style="stop-color:#FFFFFF"/>
	</linearGradient>
	<path d="M180.6,305.7l-89.6,0c-1.7,0-3.2,1.4-3.5,3.1l-3.1,21.7c-0.2,1.7,0.9,3.1,2.6,3.1l89.6,0&#xA;&#9;&#9;c1.7,0,3.2-1.4,3.5-3.1l3.1-21.7C183.4,307.1,182.3,305.7,180.6,305.7z" id="el_w9Zv6QsLVP_"/>
	<g id="el_hZCBFuQIgol_an_zdW3eF7Mi" data-animator-group="true" data-animator-type="2"><g id="el_hZCBFuQIgol">
		<linearGradient id="XMLID_4_" gradientUnits="userSpaceOnUse" x1="96.0436" y1="319.2915" x2="108.5633" y2="319.2915">
			<stop offset="3.605769e-04" style="stop-color:#4EC4D3"/>
			<stop offset="0.5236" style="stop-color:#59A3CA"/>
			<stop offset="1" style="stop-color:#6482C1"/>
		</linearGradient>
		<path id="el_gS0o8vf-sal" d="M108.5,319.3c-0.5,3.4-3.7,6.2-7.1,6.2s-5.8-2.8-5.2-6.2c0.5-3.4,3.7-6.2,7.1-6.2&#xA;&#9;&#9;&#9;C106.7,313.1,109,315.9,108.5,319.3z"/>
		<g id="el_TZN2gYqZJGd">
			<polygon id="el_QsoD_B72jIo" points="100.9,322.4 98.6,319.6 99.8,318.5 101.1,320.1 105.3,316.5 106.2,317.7 &#9;&#9;&#9;"/>
		</g>
	</g></g>
	<polygon points="167.5,317.3 119.5,317.3 119.8,314.8 168,314.8 &#9;" id="el_qHvfFIYnBcP"/>
	<polygon points="154,323.4 118.6,323.4 119,320.9 154.4,320.9 &#9;" id="el_gaK1KY0NOYp"/>
</g>
<g id="el__EfBpd9_cpj">
	<linearGradient id="SVGID_10_" gradientUnits="userSpaceOnUse" x1="295.3975" y1="236.3739" x2="205.6957" y2="182.1435">
		<stop offset="0" style="stop-color:#EEF4FE"/>
		<stop offset="0.4655" style="stop-color:#F8FBFF"/>
		<stop offset="1" style="stop-color:#FFFFFF"/>
	</linearGradient>
	<path d="M294.6,235.5h-90.9c-1.2,0-2-1-1.8-2.1l6.4-45.6c0.2-1.2,1.3-2.1,2.4-2.1h90.9c1.2,0,2,1,1.8,2.1l-6.4,45.6&#xA;&#9;&#9;C296.9,234.5,295.8,235.5,294.6,235.5z" id="el_iM8v6Yjs2lU"/>
	<polygon points="217.9,192.4 212.4,192.4 212.8,189.6 218.3,189.6 &#9;" id="el_J9s3RpiI6Db"/>
	<polygon points="296.2,196.9 253.7,196.9 254.1,194.1 296.6,194.1 &#9;" id="el_hBa8UUtI6tf"/>
	<polygon points="295.1,204.9 252.5,204.9 252.9,202 295.5,202 &#9;" id="el_eEDYxFysSd8"/>
	<polygon points="293.9,212.8 251.4,212.8 251.8,210 294.3,210 &#9;" id="el_HauZDIwk4Bh"/>
	<polygon points="274.7,220.7 250.3,220.7 250.7,217.9 275.1,217.9 &#9;" id="el_g_qM0p6bCuK"/>
	<polygon points="216.8,200.2 211.3,200.2 211.7,197.4 217.2,197.4 &#9;" id="el_76amLfnL508"/>
	<polygon points="215.7,207.9 210.2,207.9 210.6,205.1 216.1,205.1 &#9;" id="el_5CqtVbhQmXw"/>
	<polygon points="214.6,215.7 209.1,215.7 209.5,212.9 215,212.9 &#9;" id="el_SuuoJzdisMg"/>
	<polygon points="213.5,223.5 208,223.5 208.4,220.6 213.9,220.6 &#9;" id="el_7R_Agx7NGzn"/>
	<polygon points="212.4,231.2 206.9,231.2 207.3,228.4 212.8,228.4 &#9;" id="el_oO8sB0r-MVA"/>
	<g id="el_Ti85Gj1oEhx">
		<linearGradient id="pie-3_1_" gradientUnits="userSpaceOnUse" x1="234.438" y1="205.8577" x2="247.5943" y2="205.8577">
			<stop offset="1.983173e-03" style="stop-color:#EF486C"/>
			<stop offset="0.2335" style="stop-color:#CE4E79"/>
			<stop offset="0.7401" style="stop-color:#7B5C9C"/>
			<stop offset="1" style="stop-color:#4E64AE"/>
		</linearGradient>
		<path id="el_b3aBNjJve5D" d="M236.3,194.7l-1.8,13l0,0l7.9,9.2c2.7-2.3,4.6-5.6,5.1-9.2c0,0,0,0,0,0&#xA;&#9;&#9;&#9;C248.5,200.6,243.5,194.7,236.3,194.7z"/>
		
			<linearGradient id="pie-2_1_" gradientUnits="userSpaceOnUse" x1="217.4739" y1="201.2501" x2="230.4978" y2="201.2501" gradientTransform="matrix(1 0 -0.1414 1 32.685 0)">
			<stop offset="3.605769e-04" style="stop-color:#F04D25"/>
			<stop offset="0.3435" style="stop-color:#F26E28"/>
			<stop offset="1" style="stop-color:#F6B62F"/>
		</linearGradient>
		<path id="el_-EKxVt0uG6u" d="M225.9,198.5c-2.7,2.4-4.6,5.6-5.1,9.2l13,0l0,0l1.8-13C232.1,194.7,228.6,196.2,225.9,198.5z"/>
		<linearGradient id="pie-1_1_" gradientUnits="userSpaceOnUse" x1="220.5596" y1="214.892" x2="241.6088" y2="214.892">
			<stop offset="3.605769e-04" style="stop-color:#4EC4D3"/>
			<stop offset="0.5236" style="stop-color:#59A3CA"/>
			<stop offset="1" style="stop-color:#6482C1"/>
		</linearGradient>
		<path id="el_YRPtKXwH1UT" d="M233.7,208.4L233.7,208.4l-13,0c0,0,0,0,0,0c-1,7.2,4,13,11.2,13c3.6,0,7-1.5,9.7-3.8&#xA;&#9;&#9;&#9;L233.7,208.4z"/>
	</g>
</g>
<g id="el_ONNANl3SAt3">
	<linearGradient id="SVGID_11_" gradientUnits="userSpaceOnUse" x1="290.9134" y1="318.3646" x2="186.7811" y2="255.4101">
		<stop offset="0" style="stop-color:#EEF4FE"/>
		<stop offset="0.4655" style="stop-color:#F8FBFF"/>
		<stop offset="1" style="stop-color:#FFFFFF"/>
	</linearGradient>
	<path d="M293.1,243.2h-90.9c-1.2,0-2.3,1-2.4,2.2l-0.3,2.5c-0.1,0.2-0.2,0.5-0.2,0.7l-5,36.1c0,0.1,0,0.1-0.1,0.2&#xA;&#9;&#9;l-6.4,46.5c-0.2,1.2,0.7,2.2,1.8,2.2h90.9c1.2,0,2.3-1,2.4-2.2l0.3-2.5c0.1-0.2,0.2-0.5,0.2-0.7l5-36.1c0-0.1,0-0.1,0.1-0.2&#xA;&#9;&#9;l6.4-46.5C295.1,244.2,294.3,243.2,293.1,243.2z" id="el_qBRV0SFzzLE"/>
	<g id="el_YSmQPREYjeY">
		<polygon points="216.8,307 213.3,307 222.5,248.3 226,248.3 &#9;&#9;" id="el_I4rdC2CSa_I"/>
		<polygon points="225.6,307 222.2,307 231.3,248.3 234.8,248.3 &#9;&#9;" id="el_T2UhpUwAV-l"/>
		<polygon points="234.4,307 231,307 240.2,248.3 243.6,248.3 &#9;&#9;" id="el_KWgdG5JWDsV"/>
		<polygon points="243.2,307 239.8,307 249,248.3 252.4,248.3 &#9;&#9;" id="el_z-0kWqV8D7S"/>
		<polygon points="252.1,307 248.6,307 257.8,248.3 261.3,248.3 &#9;&#9;" id="el_U2z-Sv6ErDW"/>
		<polygon points="260.9,307 257.5,307 266.7,248.3 270.1,248.3 &#9;&#9;" id="el_JVzoF1Vg-67"/>
		<g id="el_-tGNYn38qA-">
			<linearGradient id="SVGID_12_" gradientUnits="userSpaceOnUse" x1="217.0681" y1="307.0378" x2="217.0681" y2="281.1767">
				<stop offset="3.605769e-04" style="stop-color:#F04D25"/>
				<stop offset="0.3435" style="stop-color:#F26E28"/>
				<stop offset="1" style="stop-color:#F6B62F"/>
			</linearGradient>
			<polygon points="216.8,307 213.3,307 217.4,281.2 220.8,281.2 &#9;&#9;&#9;" id="el_CCAHA3tfRVg"/>
			<linearGradient id="SVGID_13_" gradientUnits="userSpaceOnUse" x1="222.1514" y1="288.738" x2="231.3213" y2="288.738">
				<stop offset="3.605769e-04" style="stop-color:#F04D25"/>
				<stop offset="0.3435" style="stop-color:#F26E28"/>
				<stop offset="1" style="stop-color:#F6B62F"/>
			</linearGradient>
			<polygon points="225.6,307 222.2,307 227.9,270.4 231.3,270.4 &#9;&#9;&#9;" id="el_wBqH6s9nbeh"/>
			<linearGradient id="SVGID_14_" gradientUnits="userSpaceOnUse" x1="230.9789" y1="286.0088" x2="241.0039" y2="286.0088">
				<stop offset="3.605769e-04" style="stop-color:#F04D25"/>
				<stop offset="0.3435" style="stop-color:#F26E28"/>
				<stop offset="1" style="stop-color:#F6B62F"/>
			</linearGradient>
			<polygon points="234.4,307 231,307 237.6,265 241,265 &#9;&#9;&#9;" id="el_0gr3DxHCTLd"/>
			<linearGradient id="SVGID_15_" gradientUnits="userSpaceOnUse" x1="239.8064" y1="288.7414" x2="248.9764" y2="288.7414">
				<stop offset="3.605769e-04" style="stop-color:#F04D25"/>
				<stop offset="0.3435" style="stop-color:#F26E28"/>
				<stop offset="1" style="stop-color:#F6B62F"/>
			</linearGradient>
			<polygon points="243.2,307 239.8,307 245.5,270.4 249,270.4 &#9;&#9;&#9;" id="el_5qY7yfVI_1m"/>
			<linearGradient id="SVGID_16_" gradientUnits="userSpaceOnUse" x1="248.6339" y1="283.3722" x2="259.4855" y2="283.3722">
				<stop offset="3.605769e-04" style="stop-color:#F04D25"/>
				<stop offset="0.3435" style="stop-color:#F26E28"/>
				<stop offset="1" style="stop-color:#F6B62F"/>
			</linearGradient>
			<polygon points="252.1,307 248.6,307 256,259.7 259.5,259.7 &#9;&#9;&#9;" id="el_ZbHCcBqxhlA"/>
			<linearGradient id="SVGID_17_" gradientUnits="userSpaceOnUse" x1="257.4615" y1="280.4608" x2="269.2252" y2="280.4608">
				<stop offset="3.605769e-04" style="stop-color:#F04D25"/>
				<stop offset="0.3435" style="stop-color:#F26E28"/>
				<stop offset="1" style="stop-color:#F6B62F"/>
			</linearGradient>
			<polygon points="260.9,307 257.5,307 265.8,253.9 269.2,253.9 &#9;&#9;&#9;" id="el_tPpT-Ze7mX7"/>
		</g>
		<linearGradient id="SVGID_18_" gradientUnits="userSpaceOnUse" x1="210.178" y1="322.5713" x2="224.3804" y2="322.5713">
			<stop offset="3.605769e-04" style="stop-color:#4EC4D3"/>
			<stop offset="0.5236" style="stop-color:#59A3CA"/>
			<stop offset="1" style="stop-color:#6482C1"/>
		</linearGradient>
		<path d="M224.3,322.6c-0.6,3.9-4.2,7.1-8,7.1c-3.9,0-6.6-3.2-6-7.1c0.6-3.9,4.2-7.1,8-7.1&#xA;&#9;&#9;&#9;C222.2,315.5,224.9,318.7,224.3,322.6z" id="el_wmGBb6u293t"/>
		<polygon points="259.1,318.5 228.7,318.5 228.9,316.6 259.4,316.6 &#9;&#9;" id="el_Fi3jjwJs7Uf"/>
		<polygon points="258.3,324.1 227.9,324.1 228.2,322.2 258.6,322.2 &#9;&#9;" id="el_bT_kch0pVa5"/>
		<polygon points="240,329.6 227.1,329.6 227.4,327.7 240.3,327.7 &#9;&#9;" id="el_hSLZimvxeMN"/>
	</g>
</g>
<g id="el_QtOaui8z26a_an_152fxqlGg" data-animator-group="true" data-animator-type="0"><g id="el_QtOaui8z26a">
	
		<linearGradient id="SVGID_19_" gradientUnits="userSpaceOnUse" x1="-1531.353" y1="-124.717" x2="-1472.104" y2="-183.966" gradientTransform="matrix(4.489700e-11 -1 -1 -4.489700e-11 182.25 -1217.75)">
		<stop offset="3.605769e-04" style="stop-color:#EF4E26"/>
		<stop offset="0.3435" style="stop-color:#F26E28"/>
		<stop offset="1" style="stop-color:#F4B42A"/>
	</linearGradient>
	<polygon points="299,262.2 299,305.7 336.6,327.3 374.2,305.7 374.2,262.2 336.6,240.6 &#9;" id="el_JasGUjv9yPh"/>
	<g id="el_wrbqKycr2T6">
		<path d="M339.3,283.7h-6.6c-0.6,0-1.1,0.6-1.1,1.1V299c0,0.6,0.6,1.1,1.1,1.1h6.6c0.6,0,1.1-0.6,1.1-1.1v-14.3&#xA;&#9;&#9;&#9;C340.4,284.1,339.8,283.7,339.3,283.7z" id="el_Yoj6i9kUZlQ"/>
		<path d="M326.1,290.3h-6.6c-0.6,0-1.1,0.6-1.1,1.1v7.7c0,0.6,0.6,1.1,1.1,1.1h6.6c0.6,0,1.1-0.6,1.1-1.1v-7.8&#xA;&#9;&#9;&#9;C327.1,290.8,326.6,290.3,326.1,290.3z" id="el_pSLUSJRsks5"/>
		<path d="M352.4,277h-6.6c-0.6,0-1.1,0.6-1.1,1.1V299c0,0.6,0.6,1.1,1.1,1.1h6.6c0.6,0,1.1-0.6,1.1-1.1v-20.9&#xA;&#9;&#9;&#9;C353.5,277.5,353,277,352.4,277z" id="el_XpQpCOvP7Zh"/>
		<path d="M335.9,278.1c0.3,0,0.6-0.1,0.7-0.3l9.1-9.1v5h2.2V266c0-0.6-0.6-1.1-1.1-1.1h-7.6v2.2h5l-8.3,8.4l-4.7-4.7&#xA;&#9;&#9;&#9;c-0.4-0.4-1.1-0.4-1.6,0l-5.5,5.5l1.6,1.6l4.7-4.7l4.7,4.7C335.4,278,335.7,278.1,335.9,278.1z" id="el__k5WTyuVgFe"/>
	</g>
</g></g>
<path id="el_hD356OJvY3A" d="M93.4,158.9c7.9,4.2,15.7,8.3,23.6,12.5c5.2,2.8,10.6,5.6,16.4,6.4c8.7,1.2,17.5-2.1,24.7-7.1&#xA;&#9;c7.2-5,13.1-11.6,19.3-17.8c8.6-8.6,17.9-16.6,28.9-21.7c10.9-5.1,23.7-7.2,35.3-3.6c8,2.5,15.1,7.7,19.9,14.5&#xA;&#9;c3.4,4.8,5.9,10.5,11,13.3c6.7,3.7,15,0.9,21.8-2.3c12.6-6,24.5-13.6,35.3-22.5"/>
<linearGradient id="orange-curve_1_" gradientUnits="userSpaceOnUse" x1="89.7573" y1="147.979" x2="335.2696" y2="147.9545">
	<stop offset="3.605769e-04" style="stop-color:#F04D25"/>
	<stop offset="0.3435" style="stop-color:#F26E28"/>
	<stop offset="1" style="stop-color:#F6B62F"/>
</linearGradient>
<path id="el_q-gC89umPUF" d="M90.8,155.3c8.1,4.3,16.2,8.6,24.3,13c5.4,2.9,10.9,5.8,16.9,6.6c8.9,1.3,18-2.2,25.4-7.4&#xA;&#9;c7.4-5.2,13.5-12,19.9-18.4c8.8-8.9,18.5-17.2,29.7-22.5c11.3-5.3,24.5-7.5,36.4-3.7c8.2,2.6,15.6,7.9,20.6,15&#xA;&#9;c3.5,4.9,6.1,10.9,11.4,13.8c6.9,3.8,15.4,1,22.5-2.4c13-6.2,25.3-14.1,36.4-23.3"/>
</svg>