<?xml version="1.0" encoding="utf-8"?>
<!-- Generator: Adobe Illustrator 23.0.3, SVG Export Plug-In . SVG Version: 6.00 Build 0)  -->
<svg version="1.1" id="Layer_1" xmlns="http://www.w3.org/2000/svg" xmlns:xlink="http://www.w3.org/1999/xlink" x="0px" y="0px"
	 viewBox="0 0 144.7 66.3" style="enable-background:new 0 0 144.7 66.3;" xml:space="preserve">
<style type="text/css">
	.st0{fill:#FFFFFF;}
</style>
<g>
	<g>
		<g>
			<rect x="9.9" y="5.3" class="st0" width="14.6" height="55.2"/>
		</g>
		<g>
			<path class="st0" d="M39,53.2h-2.9V30.9h7.6c1.9,0,3.5,0.6,4.9,1.9c1.4,1.3,2.1,2.8,2.1,4.7c0,1.9-0.7,3.5-2.1,4.7
				c-1.4,1.3-3,1.9-4.9,1.9H39V53.2z M39,41.4h4.8c1.2,0,2.2-0.4,2.9-1.2c0.7-0.8,1.1-1.7,1.1-2.7c0-1-0.4-1.9-1.1-2.7
				c-0.7-0.8-1.7-1.2-2.9-1.2H39V41.4z"/>
			<path class="st0" d="M57.4,53.7c-1.6,0-3-0.5-4.1-1.4c-1.1-0.9-1.6-2.2-1.6-3.7c0-1.7,0.6-3,1.9-3.9c1.3-0.9,2.9-1.4,4.8-1.4
				c1.7,0,3.1,0.3,4.1,0.9v-0.4c0-1.1-0.4-2-1.2-2.7c-0.8-0.7-1.7-1-2.8-1c-0.8,0-1.6,0.2-2.3,0.6c-0.7,0.4-1.1,0.9-1.4,1.6
				l-2.6-1.1c0.4-0.9,1-1.8,2.1-2.5c1-0.8,2.4-1.2,4.1-1.2c1.9,0,3.6,0.6,4.9,1.7c1.3,1.1,1.9,2.7,1.9,4.8v9.2h-2.7v-2.1h-0.1
				C61.3,52.8,59.6,53.7,57.4,53.7z M57.9,51.1c1.2,0,2.3-0.4,3.2-1.3c1-0.9,1.4-1.9,1.4-3.1c-0.8-0.7-2-1-3.6-1
				c-1.4,0-2.4,0.3-3.1,0.9c-0.7,0.6-1.1,1.3-1.1,2.1c0,0.7,0.3,1.3,1,1.8C56.3,50.9,57.1,51.1,57.9,51.1z"/>
			<path class="st0" d="M71.3,38v2.5h0.1c0.3-0.9,0.9-1.6,1.9-2.1c0.9-0.5,1.9-0.8,3-0.8c0.3,0,0.7,0,1,0.1v2.8
				c-0.4,0-0.8-0.1-1.2-0.1c-1.4,0-2.5,0.4-3.4,1.2c-0.9,0.8-1.3,1.9-1.3,3.3v8.3h-2.9V38H71.3z M86.9,53.5c-1.6,0-2.8-0.4-3.7-1.3
				c-0.8-0.9-1.3-2.1-1.3-3.6v-8h-2.7V38H82v-4.7h2.9V38h3.7v2.6h-3.7v7.8c0,1.7,0.7,2.5,2.1,2.5c0.5,0,1-0.1,1.3-0.2l1,2.5
				C88.6,53.3,87.9,53.5,86.9,53.5z"/>
			<path class="st0" d="M94.3,38v2.1h0.1c0.4-0.7,1.1-1.3,2-1.8c0.9-0.5,1.8-0.8,2.9-0.8c1.9,0,3.3,0.6,4.3,1.7
				c1,1.2,1.5,2.7,1.5,4.7v9.3h-2.9v-8.9c0-2.8-1.3-4.2-3.8-4.2c-1.2,0-2.1,0.5-2.9,1.4c-0.7,0.9-1.1,2-1.1,3.3v8.4h-2.9V38H94.3z"
				/>
			<path class="st0" d="M115.3,53.7c-2.3,0-4.2-0.8-5.6-2.3c-1.4-1.5-2.2-3.5-2.2-5.8c0-2.2,0.7-4.1,2.1-5.7
				c1.4-1.6,3.2-2.4,5.4-2.4c2.3,0,4.1,0.7,5.4,2.2c1.4,1.5,2,3.4,2,5.9l0,0.5h-12c0.1,1.5,0.6,2.7,1.5,3.6c0.9,0.9,2,1.3,3.3,1.3
				c2.1,0,3.4-0.9,4.2-2.6l2.6,1.1c-0.5,1.2-1.3,2.2-2.5,3C118.3,53.3,116.9,53.7,115.3,53.7z M119.4,43.7c-0.1-0.9-0.5-1.7-1.2-2.5
				c-0.7-0.8-1.8-1.2-3.3-1.2c-1.1,0-2,0.3-2.8,1c-0.8,0.7-1.3,1.6-1.6,2.7H119.4z"/>
			<path class="st0" d="M127.9,53.2h-2.9V38h2.7v2.5h0.1c0.3-0.8,0.9-1.5,1.8-2.1c0.9-0.5,1.8-0.8,2.6-0.8c0.8,0,1.6,0.1,2.1,0.4
				l-1.1,2.7c-0.4-0.1-0.9-0.2-1.5-0.2c-1,0-2,0.4-2.8,1.2c-0.8,0.8-1.2,1.9-1.2,3.2V53.2z"/>
		</g>
		<path class="st0" d="M42.7,25.8c-3.8,0-6.9-3.1-6.9-6.8c0-3.8,3.2-6.8,6.9-6.8c2.1,0,3.6,0.8,4.7,1.9l-1.3,1.3
			c-0.8-0.7-1.9-1.3-3.4-1.3c-2.7,0-4.9,2.2-4.9,5c0,2.7,2.1,5,4.9,5c1.8,0,2.8-0.7,3.5-1.4c0.5-0.5,0.9-1.3,1-2.3h-4.5v-1.9H49
			c0.1,0.3,0.1,0.8,0.1,1.2c0,1.4-0.4,3.1-1.6,4.4C46.3,25.2,44.7,25.8,42.7,25.8z"/>
		<path class="st0" d="M59.1,21.4c0,2.5-2,4.4-4.4,4.4c-2.4,0-4.4-1.9-4.4-4.4c0-2.5,2-4.4,4.4-4.4C57.1,17,59.1,18.9,59.1,21.4z
			 M57.1,21.4c0-1.6-1.2-2.7-2.5-2.7c-1.3,0-2.5,1.1-2.5,2.7c0,1.6,1.2,2.7,2.5,2.7C56,24.1,57.1,23,57.1,21.4z"/>
		<path class="st0" d="M69.1,21.4c0,2.5-2,4.4-4.4,4.4c-2.4,0-4.4-1.9-4.4-4.4c0-2.5,2-4.4,4.4-4.4C67.1,17,69.1,18.9,69.1,21.4z
			 M67.1,21.4c0-1.6-1.2-2.7-2.5-2.7c-1.3,0-2.5,1.1-2.5,2.7c0,1.6,1.2,2.7,2.5,2.7C66,24.1,67.1,23,67.1,21.4z"/>
		<path class="st0" d="M78.6,17.3v7.9c0,3.2-1.9,4.6-4.2,4.6c-2.1,0-3.4-1.4-3.9-2.6l1.7-0.7c0.3,0.7,1,1.6,2.2,1.6
			c1.4,0,2.4-0.9,2.4-2.6v-0.6h-0.1c-0.4,0.5-1.3,1-2.3,1c-2.2,0-4.2-1.9-4.2-4.4c0-2.5,2-4.4,4.2-4.4c1.1,0,1.9,0.5,2.3,1h0.1v-0.7
			H78.6z M76.9,21.5c0-1.5-1-2.7-2.3-2.7c-1.3,0-2.4,1.1-2.4,2.7c0,1.5,1.1,2.7,2.4,2.7C75.9,24.1,76.9,23,76.9,21.5z"/>
		<path class="st0" d="M82.4,12.6v12.9h-1.9V12.6H82.4z"/>
		<path class="st0" d="M90.3,22.9l1.5,1c-0.5,0.7-1.6,2-3.7,2c-2.5,0-4.4-1.9-4.4-4.4c0-2.6,1.9-4.4,4.1-4.4c2.3,0,3.4,1.8,3.8,2.8
			l0.2,0.5L86,22.8c0.5,0.9,1.2,1.3,2.1,1.3C89.1,24.1,89.8,23.6,90.3,22.9z M85.7,21.3l3.9-1.6c-0.2-0.6-0.9-0.9-1.6-0.9
			C87,18.7,85.6,19.6,85.7,21.3z"/>
	</g>
</g>
</svg>
