<?xml version="1.0" encoding="utf-8"?>
<!-- Generator: Adobe Illustrator 23.0.3, SVG Export Plug-In . SVG Version: 6.00 Build 0)  -->
<svg version="1.1" id="Layer_1" xmlns="http://www.w3.org/2000/svg" xmlns:xlink="http://www.w3.org/1999/xlink" x="0px" y="0px"
	 viewBox="0 0 144.7 66.3" style="enable-background:new 0 0 144.7 66.3;" xml:space="preserve">
<style type="text/css">
	.st0{fill:none;}
	.st1{fill:#FFFFFF;}
</style>
<g>
	<path class="st0" d="M61,38.7c-1.1,0-2.4,0.6-3.3,2c-1.2,2-1.4,6.1-1.4,9.2c0,1.7,0,3.4,0.4,5.1c0.6,2.4,2,3.9,4,3.9
		c3.9,0,4.5-5.1,4.5-9.6c0-1.4-0.1-4.9-0.5-6.8C64.4,40.5,63.2,38.7,61,38.7z"/>
	<path class="st0" d="M49,39.8H35l-0.5,4.5c0.3-0.2,0.6-0.4,1-0.5c1.4-0.6,3.4-0.9,5.1-0.9c2.6,0,4.9,0.6,6.9,1.7
		c0.5,0.3,0.9,0.5,1.3,0.9c-0.4-0.3-0.8-0.6-1.3-0.9C47.8,42.8,48.3,41.2,49,39.8L49,39.8c0.2-0.4,0.4-0.7,0.6-1.1
		C49.4,39,49.2,39.4,49,39.8z"/>
	<path class="st0" d="M50.9,59.6c0,0.1-0.1,0.1-0.1,0.2C50.8,59.7,50.9,59.7,50.9,59.6z"/>
	<path class="st0" d="M51.7,58.1c0.6-1.5,1-3.1,1-4.7c0-0.8-0.1-1.5-0.3-2.2c0.2,0.7,0.2,1.5,0.2,2.2C52.6,55,52.3,56.6,51.7,58.1z"
		/>
	<path class="st0" d="M82.9,38.8c-1.1,0-2.4,0.6-3.3,2c-1.2,2-1.4,6.1-1.4,9.2c0,1.7,0,3.4,0.4,5.1c0.6,2.4,2,3.9,4,3.9
		c3.9,0,4.6-5.1,4.6-9.6c0-1.4-0.1-4.9-0.6-6.8C86.3,40.6,85.1,38.8,82.9,38.8z"/>
	<path class="st0" d="M104.6,38.8c-0.4,0-0.8,0.1-1.2,0.2c-0.7,0.3-1.5,0.8-2,1.7c-1.2,2-1.4,6.1-1.4,9.2c0,1.7,0,3.4,0.4,5.1
		c0.4,1.4,1,2.6,1.8,3.2c0.6,0.5,1.3,0.7,2.2,0.7c3.9,0,4.5-5.1,4.5-9.6c0-1.4-0.1-4.9-0.6-6.8C107.9,40.6,106.8,38.8,104.6,38.8z"
		/>
	<polygon class="st1" points="72,38 72,38 72,38 72,38 	"/>
	<polygon class="st1" points="71.6,59.9 71.6,59.9 71.6,59.9 71.6,59.9 	"/>
	<path class="st1" d="M72,38c-2.1,3.1-3.1,7.1-3.1,11.5c0,4.2,1,7.7,2.7,10.4c2.2-3.3,3.1-7.5,3.1-11.4C74.7,45.2,74.1,41.2,72,38z"
		/>
	<path class="st1" d="M74.7,48.5c0,3.9-0.9,8.1-3.1,11.4c0,0,0,0,0,0C73.8,56.6,74.7,52.4,74.7,48.5c0-3.3-0.7-7.3-2.7-10.5
		c0,0,0,0,0,0C74.1,41.2,74.7,45.2,74.7,48.5z"/>
	<path class="st1" d="M49.1,39.8H51l0.2-1.6l0.2-1.7c-0.6,0.7-1.2,1.4-1.7,2.3C49.4,39,49.2,39.4,49.1,39.8z"/>
	<polygon class="st1" points="49.1,39.8 49.1,39.8 51,39.8 51.2,38.1 51,39.8 	"/>
	<path class="st1" d="M49.7,38.7c0.5-0.8,1.1-1.6,1.7-2.3l0,0C50.7,37.1,50.1,37.8,49.7,38.7z"/>
	<path class="st1" d="M50.9,59.6c0.3-0.5,0.6-1,0.8-1.5c0.6-1.5,1-3.1,1-4.7c0-0.8-0.1-1.5-0.2-2.2c-0.5-2.4-1.8-4.4-3.7-5.8
		c-0.4-0.3-0.8-0.6-1.3-0.9c-0.3,1.5-0.4,3.2-0.4,4.9c0,4.7,1.2,8.4,3.2,11.1c0.2-0.2,0.3-0.5,0.5-0.7c0,0,0,0,0,0
		C50.8,59.7,50.9,59.7,50.9,59.6z"/>
	<path class="st1" d="M50.8,59.8C50.8,59.8,50.8,59.8,50.8,59.8C50.8,59.8,50.8,59.8,50.8,59.8z"/>
	<path class="st1" d="M52.4,51.2c-0.5-2.4-1.8-4.4-3.7-5.8C50.6,46.8,51.9,48.8,52.4,51.2z"/>
	<path class="st1" d="M51.7,58.1c-0.2,0.5-0.5,1-0.8,1.5C51.2,59.1,51.5,58.6,51.7,58.1z"/>
	<polygon class="st1" points="51.7,21.6 48.2,21.6 48.2,7 51.7,7 51.7,0.7 33.1,0.7 33.1,7 36.6,7 36.6,21.6 33.1,21.6 33.1,27.4 
		51.7,27.4 	"/>
	<path class="st1" d="M67.2,21.6h-2.8v-5c0-2.1,1.6-3.7,3.7-3.7c1.7,0,3,0.8,3,2.7v6.1h-2.7v5.8h14.2v-5.8c0,0,0,0,0,0h-2.3v-7.7
		c0-4.9-3.6-6.7-8-6.7c-3.1,0-5.5,0.9-7.6,3.3c-0.1,0.2-0.3,0.4-0.5,0.6V7H52.7v5.8h2.6v8.8h-2.6v5.8h14.5V21.6z"/>
	<polygon class="st1" points="81.8,17.5 81.8,17.5 81.8,17.5 	"/>
	<path class="st1" d="M82.6,21.6c1.9,4.3,6.9,6.3,12,6.3c4.1,0,9.9-1,11.1-7.3l0.1-0.7l-7.5,0l-0.3,0c0,2.1-1.6,3.2-3.3,3.2
		c-3.4,0-3.6-2.8-3.6-5.5v-0.1v0c0-2.7,0.3-5.5,3.6-5.5c2.7,0,3.1,2.3,3.2,4.5l7.8-0.9c-1-9.1-11.1-8.5-11.1-8.5
		c-6.5,0-12.8,3.2-12.8,10.4C81.8,19,82.1,20.4,82.6,21.6L82.6,21.6L82.6,21.6z"/>
	<path class="st1" d="M82.6,21.6L82.6,21.6C82.6,21.6,82.6,21.6,82.6,21.6L82.6,21.6z"/>
	<path class="st1" d="M82.6,21.6L82.6,21.6C82.6,21.6,82.6,21.6,82.6,21.6L82.6,21.6z"/>
	<path class="st1" d="M108.5,27.5c1.8,0,3.3-1.5,3.3-3.3c0-1.8-1.5-3.3-3.3-3.3c-1.8,0-3.3,1.5-3.3,3.3
		C105.2,26,106.7,27.5,108.5,27.5z"/>
	<path class="st1" d="M71.6,59.9c-1.7-2.6-2.7-6.1-2.7-10.4c0-4.4,1-8.5,3.1-11.5c0,0,0,0,0,0c0,0,0,0,0,0c-2-3.1-5.3-5.5-10.6-5.5
		c-4.4-0.1-7.7,1.5-10.1,3.9l-0.2,1.7L51,39.8h-1.9c0,0,0,0,0,0h0c-0.7,1.5-1.2,3.1-1.6,4.8c0.5,0.3,0.9,0.6,1.3,0.9
		c1.9,1.4,3.2,3.4,3.7,5.8c0.2,0.7,0.3,1.5,0.3,2.2c0,1.6-0.3,3.2-1,4.7c-0.2,0.5-0.5,1-0.8,1.5c0,0.1-0.1,0.1-0.1,0.2c0,0,0,0,0,0
		c-0.2,0.2-0.3,0.5-0.5,0.7c2.4,3.2,6,4.9,10.3,4.9C65.8,65.4,69.4,63.1,71.6,59.9C71.6,59.9,71.6,59.9,71.6,59.9
		C71.6,59.9,71.6,59.9,71.6,59.9z M60.9,59c-2.1,0-3.4-1.5-4-3.9c-0.4-1.7-0.4-3.4-0.4-5.1c0-3.1,0.2-7.2,1.4-9.2
		c0.9-1.4,2.2-2,3.3-2c2.2,0,3.4,1.8,3.8,3.8c0.5,2,0.5,5.4,0.5,6.8C65.4,53.8,64.7,59,60.9,59z"/>
	<path class="st1" d="M90.6,49.5c0-4.4,1-8.5,3.1-11.5c0,0,0,0,0.1-0.1c0,0,0,0,0,0c-1-1.4-2.2-2.7-3.8-3.6c-1.8-1-3.9-1.6-6.6-1.7
		H83c-5.1,0-8.7,2.1-11,5.4c0,0,0,0,0,0c2,3.2,2.7,7.2,2.7,10.5c0,3.9-0.9,8.1-3.1,11.4c0,0,0,0,0,0c2.4,3.7,6.2,5.7,10.8,5.7
		c3,0,5.5-0.8,7.5-2c1.3-0.8,2.4-1.9,3.3-3.1c0.1-0.1,0.2-0.2,0.3-0.4c0-0.1-0.1-0.1-0.1-0.2C91.5,57.2,90.6,53.8,90.6,49.5z
		 M82.7,59.1c-2.1,0-3.4-1.5-4-3.9c-0.4-1.7-0.4-3.4-0.4-5.1c0-3.1,0.2-7.2,1.4-9.2c0.9-1.4,2.2-2,3.3-2c2.2,0,3.4,1.8,3.8,3.8
		c0.5,2,0.6,5.4,0.6,6.8C87.3,53.9,86.6,59.1,82.7,59.1z"/>
	<path class="st1" d="M47.5,44.5c-1.9-1.1-4.3-1.7-6.9-1.7c-1.7,0-3.8,0.3-5.1,0.9c-0.3,0.1-0.6,0.3-1,0.5l0.5-4.5H49
		c0.2-0.4,0.4-0.7,0.6-1.1c0.5-0.8,1.1-1.6,1.7-2.3l0,0c0,0,0,0,0,0l0.3-3.2H28.3l-1.7,17.1l7.9,1c0.6-0.8,1.3-2,3.9-2
		c3.3,0,4.8,2.1,4.8,4.9c0,2.5-1.3,4.9-4.7,4.9c-1.9,0-3.4-0.9-3.9-2.7c-0.2-0.7-0.2-1.5-0.2-2.3l-9.4,1c0.5,2.4,1,4.6,3,6.7
		c3.6,3.6,8.8,3.6,10.5,3.6c2.7,0,7.6-0.2,11-3.8c0.3-0.3,0.6-0.7,0.9-1.1c-2.1-2.7-3.2-6.5-3.2-11.1C47,47.7,47.2,46.1,47.5,44.5z"
		/>
	<path class="st1" d="M104.9,32.6l-0.2,0c-5,0-8.6,2.1-10.9,5.4c0.1,0.1,0.1,0.2,0.2,0.3c-2,3-3,7-3,11.3c0,4.2,1,7.7,2.6,10.3
		c-0.1,0.1-0.1,0.2-0.2,0.3c2.4,3.5,6.2,5.5,10.7,5.5c10.5,0,14.2-9.1,14.2-17C118.3,42.1,115.6,32.7,104.9,32.6z M104.4,59.1
		c-0.9,0-1.6-0.3-2.2-0.7c-0.9-0.7-1.5-1.8-1.8-3.2c-0.4-1.7-0.4-3.4-0.4-5.1c0-3.1,0.2-7.2,1.4-9.2c0.6-0.9,1.3-1.5,2-1.7
		c0.4-0.2,0.8-0.2,1.2-0.2c2.2,0,3.4,1.8,3.8,3.8c0.5,2,0.6,5.4,0.6,6.8C108.9,53.9,108.2,59.1,104.4,59.1z"/>
	<path class="st1" d="M90.9,49.5c0-4.3,1-8.3,3-11.3c-0.1-0.1-0.1-0.2-0.2-0.3c0,0,0,0-0.1,0.1c-2.1,3.1-3.1,7.2-3.1,11.5
		c0,4.2,1,7.7,2.7,10.4c0,0.1,0.1,0.1,0.1,0.2c0.1-0.1,0.1-0.2,0.2-0.3C91.9,57.2,90.9,53.7,90.9,49.5z"/>
</g>
</svg>
