<svg version="1.1" id="el_05hrJWBWb" xmlns="http://www.w3.org/2000/svg" xmlns:xlink="http://www.w3.org/1999/xlink" x="0px" y="0px" viewBox="0 0 433 423" style="enable-background:new 0 0 433.7 423.1;" xml:space="preserve"><style>@-webkit-keyframes kf_el_7_1msl4JIRA_an_WTNVO4pCq{0%{-webkit-transform: translate(213.65472602844238px, 218.8814353942871px) rotate(0deg) translate(-213.65472602844238px, -218.8814353942871px);transform: translate(213.65472602844238px, 218.8814353942871px) rotate(0deg) translate(-213.65472602844238px, -218.8814353942871px);}61.11%{-webkit-transform: translate(213.65472602844238px, 218.8814353942871px) rotate(0deg) translate(-213.65472602844238px, -218.8814353942871px);transform: translate(213.65472602844238px, 218.8814353942871px) rotate(0deg) translate(-213.65472602844238px, -218.8814353942871px);}66.67%{-webkit-transform: translate(213.65472602844238px, 218.8814353942871px) rotate(-5deg) translate(-213.65472602844238px, -218.8814353942871px);transform: translate(213.65472602844238px, 218.8814353942871px) rotate(-5deg) translate(-213.65472602844238px, -218.8814353942871px);}72.22%{-webkit-transform: translate(213.65472602844238px, 218.8814353942871px) rotate(5deg) translate(-213.65472602844238px, -218.8814353942871px);transform: translate(213.65472602844238px, 218.8814353942871px) rotate(5deg) translate(-213.65472602844238px, -218.8814353942871px);}77.78%{-webkit-transform: translate(213.65472602844238px, 218.8814353942871px) rotate(0deg) translate(-213.65472602844238px, -218.8814353942871px);transform: translate(213.65472602844238px, 218.8814353942871px) rotate(0deg) translate(-213.65472602844238px, -218.8814353942871px);}100%{-webkit-transform: translate(213.65472602844238px, 218.8814353942871px) rotate(0deg) translate(-213.65472602844238px, -218.8814353942871px);transform: translate(213.65472602844238px, 218.8814353942871px) rotate(0deg) translate(-213.65472602844238px, -218.8814353942871px);}}@keyframes kf_el_7_1msl4JIRA_an_WTNVO4pCq{0%{-webkit-transform: translate(213.65472602844238px, 218.8814353942871px) rotate(0deg) translate(-213.65472602844238px, -218.8814353942871px);transform: translate(213.65472602844238px, 218.8814353942871px) rotate(0deg) translate(-213.65472602844238px, -218.8814353942871px);}61.11%{-webkit-transform: translate(213.65472602844238px, 218.8814353942871px) rotate(0deg) translate(-213.65472602844238px, -218.8814353942871px);transform: translate(213.65472602844238px, 218.8814353942871px) rotate(0deg) translate(-213.65472602844238px, -218.8814353942871px);}66.67%{-webkit-transform: translate(213.65472602844238px, 218.8814353942871px) rotate(-5deg) translate(-213.65472602844238px, -218.8814353942871px);transform: translate(213.65472602844238px, 218.8814353942871px) rotate(-5deg) translate(-213.65472602844238px, -218.8814353942871px);}72.22%{-webkit-transform: translate(213.65472602844238px, 218.8814353942871px) rotate(5deg) translate(-213.65472602844238px, -218.8814353942871px);transform: translate(213.65472602844238px, 218.8814353942871px) rotate(5deg) translate(-213.65472602844238px, -218.8814353942871px);}77.78%{-webkit-transform: translate(213.65472602844238px, 218.8814353942871px) rotate(0deg) translate(-213.65472602844238px, -218.8814353942871px);transform: translate(213.65472602844238px, 218.8814353942871px) rotate(0deg) translate(-213.65472602844238px, -218.8814353942871px);}100%{-webkit-transform: translate(213.65472602844238px, 218.8814353942871px) rotate(0deg) translate(-213.65472602844238px, -218.8814353942871px);transform: translate(213.65472602844238px, 218.8814353942871px) rotate(0deg) translate(-213.65472602844238px, -218.8814353942871px);}}@-webkit-keyframes kf_el_mTHDgqEtzFB_an_OLi-PBjPl{0%{-webkit-transform: translate(299.6999969482422px, 103.04998779296875px) translate(-299.6999969482422px, -103.04998779296875px) translate(0px, 0px);transform: translate(299.6999969482422px, 103.04998779296875px) translate(-299.6999969482422px, -103.04998779296875px) translate(0px, 0px);}38.89%{-webkit-transform: translate(299.6999969482422px, 103.04998779296875px) translate(-299.6999969482422px, -103.04998779296875px) translate(0px, 0px);transform: translate(299.6999969482422px, 103.04998779296875px) translate(-299.6999969482422px, -103.04998779296875px) translate(0px, 0px);}44.44%{-webkit-transform: translate(299.6999969482422px, 103.04998779296875px) translate(-299.6999969482422px, -103.04998779296875px) translate(0px, -5px);transform: translate(299.6999969482422px, 103.04998779296875px) translate(-299.6999969482422px, -103.04998779296875px) translate(0px, -5px);}50%{-webkit-transform: translate(299.6999969482422px, 103.04998779296875px) translate(-299.6999969482422px, -103.04998779296875px) translate(0px, 5px);transform: translate(299.6999969482422px, 103.04998779296875px) translate(-299.6999969482422px, -103.04998779296875px) translate(0px, 5px);}55.56%{-webkit-transform: translate(299.6999969482422px, 103.04998779296875px) translate(-299.6999969482422px, -103.04998779296875px) translate(0px, 0px);transform: translate(299.6999969482422px, 103.04998779296875px) translate(-299.6999969482422px, -103.04998779296875px) translate(0px, 0px);}100%{-webkit-transform: translate(299.6999969482422px, 103.04998779296875px) translate(-299.6999969482422px, -103.04998779296875px) translate(0px, 0px);transform: translate(299.6999969482422px, 103.04998779296875px) translate(-299.6999969482422px, -103.04998779296875px) translate(0px, 0px);}}@keyframes kf_el_mTHDgqEtzFB_an_OLi-PBjPl{0%{-webkit-transform: translate(299.6999969482422px, 103.04998779296875px) translate(-299.6999969482422px, -103.04998779296875px) translate(0px, 0px);transform: translate(299.6999969482422px, 103.04998779296875px) translate(-299.6999969482422px, -103.04998779296875px) translate(0px, 0px);}38.89%{-webkit-transform: translate(299.6999969482422px, 103.04998779296875px) translate(-299.6999969482422px, -103.04998779296875px) translate(0px, 0px);transform: translate(299.6999969482422px, 103.04998779296875px) translate(-299.6999969482422px, -103.04998779296875px) translate(0px, 0px);}44.44%{-webkit-transform: translate(299.6999969482422px, 103.04998779296875px) translate(-299.6999969482422px, -103.04998779296875px) translate(0px, -5px);transform: translate(299.6999969482422px, 103.04998779296875px) translate(-299.6999969482422px, -103.04998779296875px) translate(0px, -5px);}50%{-webkit-transform: translate(299.6999969482422px, 103.04998779296875px) translate(-299.6999969482422px, -103.04998779296875px) translate(0px, 5px);transform: translate(299.6999969482422px, 103.04998779296875px) translate(-299.6999969482422px, -103.04998779296875px) translate(0px, 5px);}55.56%{-webkit-transform: translate(299.6999969482422px, 103.04998779296875px) translate(-299.6999969482422px, -103.04998779296875px) translate(0px, 0px);transform: translate(299.6999969482422px, 103.04998779296875px) translate(-299.6999969482422px, -103.04998779296875px) translate(0px, 0px);}100%{-webkit-transform: translate(299.6999969482422px, 103.04998779296875px) translate(-299.6999969482422px, -103.04998779296875px) translate(0px, 0px);transform: translate(299.6999969482422px, 103.04998779296875px) translate(-299.6999969482422px, -103.04998779296875px) translate(0px, 0px);}}@-webkit-keyframes kf_el_-9ymSvZ7k7U_an_2qB5iuH0Q{0%{-webkit-transform: translate(67.44999885559082px, -169.39999389648438px) rotate(0deg) translate(-67.44999885559082px, 169.39999389648438px);transform: translate(67.44999885559082px, -169.39999389648438px) rotate(0deg) translate(-67.44999885559082px, 169.39999389648438px);}16.67%{-webkit-transform: translate(67.44999885559082px, -169.39999389648438px) rotate(0deg) translate(-67.44999885559082px, 169.39999389648438px);transform: translate(67.44999885559082px, -169.39999389648438px) rotate(0deg) translate(-67.44999885559082px, 169.39999389648438px);}33.33%{-webkit-transform: translate(67.44999885559082px, -169.39999389648438px) rotate(90deg) translate(-67.44999885559082px, 169.39999389648438px);transform: translate(67.44999885559082px, -169.39999389648438px) rotate(90deg) translate(-67.44999885559082px, 169.39999389648438px);}50%{-webkit-transform: translate(67.44999885559082px, -169.39999389648438px) rotate(0deg) translate(-67.44999885559082px, 169.39999389648438px);transform: translate(67.44999885559082px, -169.39999389648438px) rotate(0deg) translate(-67.44999885559082px, 169.39999389648438px);}100%{-webkit-transform: translate(67.44999885559082px, -169.39999389648438px) rotate(0deg) translate(-67.44999885559082px, 169.39999389648438px);transform: translate(67.44999885559082px, -169.39999389648438px) rotate(0deg) translate(-67.44999885559082px, 169.39999389648438px);}}@keyframes kf_el_-9ymSvZ7k7U_an_2qB5iuH0Q{0%{-webkit-transform: translate(67.44999885559082px, -169.39999389648438px) rotate(0deg) translate(-67.44999885559082px, 169.39999389648438px);transform: translate(67.44999885559082px, -169.39999389648438px) rotate(0deg) translate(-67.44999885559082px, 169.39999389648438px);}16.67%{-webkit-transform: translate(67.44999885559082px, -169.39999389648438px) rotate(0deg) translate(-67.44999885559082px, 169.39999389648438px);transform: translate(67.44999885559082px, -169.39999389648438px) rotate(0deg) translate(-67.44999885559082px, 169.39999389648438px);}33.33%{-webkit-transform: translate(67.44999885559082px, -169.39999389648438px) rotate(90deg) translate(-67.44999885559082px, 169.39999389648438px);transform: translate(67.44999885559082px, -169.39999389648438px) rotate(90deg) translate(-67.44999885559082px, 169.39999389648438px);}50%{-webkit-transform: translate(67.44999885559082px, -169.39999389648438px) rotate(0deg) translate(-67.44999885559082px, 169.39999389648438px);transform: translate(67.44999885559082px, -169.39999389648438px) rotate(0deg) translate(-67.44999885559082px, 169.39999389648438px);}100%{-webkit-transform: translate(67.44999885559082px, -169.39999389648438px) rotate(0deg) translate(-67.44999885559082px, 169.39999389648438px);transform: translate(67.44999885559082px, -169.39999389648438px) rotate(0deg) translate(-67.44999885559082px, 169.39999389648438px);}}@-webkit-keyframes kf_el_Jrt4RxIz64I_an_P5hzLFOyq{0%{-webkit-transform: translate(61.25000190734863px, 312.8000030517578px) scale(1, 1) translate(-61.25000190734863px, -312.8000030517578px);transform: translate(61.25000190734863px, 312.8000030517578px) scale(1, 1) translate(-61.25000190734863px, -312.8000030517578px);}16.67%{-webkit-transform: translate(61.25000190734863px, 312.8000030517578px) scale(1.1, 1.1) translate(-61.25000190734863px, -312.8000030517578px);transform: translate(61.25000190734863px, 312.8000030517578px) scale(1.1, 1.1) translate(-61.25000190734863px, -312.8000030517578px);}33.33%{-webkit-transform: translate(61.25000190734863px, 312.8000030517578px) scale(1, 1) translate(-61.25000190734863px, -312.8000030517578px);transform: translate(61.25000190734863px, 312.8000030517578px) scale(1, 1) translate(-61.25000190734863px, -312.8000030517578px);}100%{-webkit-transform: translate(61.25000190734863px, 312.8000030517578px) scale(1, 1) translate(-61.25000190734863px, -312.8000030517578px);transform: translate(61.25000190734863px, 312.8000030517578px) scale(1, 1) translate(-61.25000190734863px, -312.8000030517578px);}}@keyframes kf_el_Jrt4RxIz64I_an_P5hzLFOyq{0%{-webkit-transform: translate(61.25000190734863px, 312.8000030517578px) scale(1, 1) translate(-61.25000190734863px, -312.8000030517578px);transform: translate(61.25000190734863px, 312.8000030517578px) scale(1, 1) translate(-61.25000190734863px, -312.8000030517578px);}16.67%{-webkit-transform: translate(61.25000190734863px, 312.8000030517578px) scale(1.1, 1.1) translate(-61.25000190734863px, -312.8000030517578px);transform: translate(61.25000190734863px, 312.8000030517578px) scale(1.1, 1.1) translate(-61.25000190734863px, -312.8000030517578px);}33.33%{-webkit-transform: translate(61.25000190734863px, 312.8000030517578px) scale(1, 1) translate(-61.25000190734863px, -312.8000030517578px);transform: translate(61.25000190734863px, 312.8000030517578px) scale(1, 1) translate(-61.25000190734863px, -312.8000030517578px);}100%{-webkit-transform: translate(61.25000190734863px, 312.8000030517578px) scale(1, 1) translate(-61.25000190734863px, -312.8000030517578px);transform: translate(61.25000190734863px, 312.8000030517578px) scale(1, 1) translate(-61.25000190734863px, -312.8000030517578px);}}#el_05hrJWBWb *{-webkit-animation-duration: 3s;animation-duration: 3s;-webkit-animation-iteration-count: infinite;animation-iteration-count: infinite;-webkit-animation-timing-function: cubic-bezier(0, 0, 1, 1);animation-timing-function: cubic-bezier(0, 0, 1, 1);}#el_-ioH3XL7tA{fill: #DDECF1;}#el_i9-FUmaNfS{-webkit-transform: translate(109.911421px, 203px);transform: translate(109.911421px, 203px);}#el_I0qANJ6m1d{fill: url(#SVGID_13_);opacity: 0.3;enable-background: new;}#el_KGnqJzugcI{fill: #E5E5E5;}#el_BWFAltnhI6{fill: #FFFFFF;enable-background: new;}#el_-v69QOutP1{fill: #85CFF3;}#el_kV1s_Ljsh3{fill: url(#SVGID_1_);}#el_7adRYyOnHX{fill: #F2F4FF;}#el_Vv6DeCv1EO{fill: #F2F4FF;}#el_q96tynmscf{fill: #F2F4FF;}#el_F1xw8U14oH{fill: #0D3E60;}#el_9bhuNyTmhK{fill: #F2F4FF;}#el_YbSAwfcrXy{fill: #D1D3D4;}#el_1wiEGjYITLB{-webkit-clip-path: url(#SVGID_3_);clip-path: url(#SVGID_3_);fill: #DDEDF2;}#el_nSjYANsAvvZ{-webkit-clip-path: url(#SVGID_3_);clip-path: url(#SVGID_3_);fill: #D1D3D4;}#el_R8ZohCuKpnN{opacity: 0.18;}#el_MnLM4iv-Dyq{-webkit-clip-path: url(#SVGID_5_);clip-path: url(#SVGID_5_);fill: #FFFFFF;}#el_aSuIBb2tn56{-webkit-clip-path: url(#SVGID_5_);clip-path: url(#SVGID_5_);fill: #FFFFFF;}#el_bMpErSt_4iM{fill: #FFFFFF;}#el_J-ZHasABXRL{-webkit-transform: translate(716.60236px, 220.088808px);transform: translate(716.60236px, 220.088808px);}#el_On3p8FJS0gY{fill: url(#SVGID_6_);}#el_0nF2ZleTp56{fill: url(#SVGID_7_);}#el_uWEg_z-GVOy{-webkit-transform: translate(42.46049756382px, 14.479502188709997px) rotate(-7deg);transform: translate(42.46049756382px, 14.479502188709997px) rotate(-7deg);}#el_M_MbNQKFoem{-webkit-transform: translate(5px, 8px);transform: translate(5px, 8px);}#el_Jf9wKCAQEK3{fill: url(#SVGID_8_);}#el_RtOze2k98kB{opacity: 0.2;-webkit-mask: url(#mask-8_2_);mask: url(#mask-8_2_);fill: #DA433D;enable-background: new;}#el_t5mZxIZu5GB{fill: url(#Path_1_);}#el_8EfGJAJgY5e{-webkit-transform: translate(5px, 140px);transform: translate(5px, 140px);}#el_YP3m8XYqA80{fill: url(#SVGID_9_);}#el_2Ddbs6RsUHP{opacity: 0.3;-webkit-clip-path: url(#SVGID_11_);clip-path: url(#SVGID_11_);fill: #151731;enable-background: new;}#el_AJaXrVwYS37{opacity: 0.3;-webkit-clip-path: url(#SVGID_11_);clip-path: url(#SVGID_11_);fill: #151731;enable-background: new;}#el_nNhCCF8_1B3{fill: url(#Hand_1_);-webkit-transform: translate(129px, 0px);transform: translate(129px, 0px);}#el_5nWs5Cj-T5L{-webkit-transform: translate(12px, 16px);transform: translate(12px, 16px);}#el_0vIhlwtW8Qp{fill: url(#SVGID_12_);}#el_bfkl8NnBKzw{opacity: 0.3;-webkit-mask: url(#mask-17_6_);mask: url(#mask-17_6_);fill: #373A5B;enable-background: new;}#el_qjDhOu_S_rF{opacity: 0.3;-webkit-mask: url(#mask-17_5_);mask: url(#mask-17_5_);fill: #373A5B;enable-background: new;}#el_Xp1PhwaanJf{opacity: 0.3;-webkit-mask: url(#mask-17_4_);mask: url(#mask-17_4_);fill: #373A5B;enable-background: new;}#el_7_1msl4JIRA{-webkit-transform: translate(250.470033px, 254.127794px);transform: translate(250.470033px, 254.127794px);}#el_dcDnmVRMA1j{fill: url(#Path_4_);}#el_xeMYF21HEBo{opacity: 0.3;fill: #373A5B;enable-background: new;}#el_WZbn7eZZZeM{fill: #FFFFFF;}#el_qfyjeCerFTU{-webkit-transform: translate(265.216787px, 475.864185px);transform: translate(265.216787px, 475.864185px);}#el_te_V5iY0uIH{fill: url(#Path_5_);}#el_-9ymSvZ7k7U{-webkit-transform: translate(42px, 10px);transform: translate(42px, 10px);}#el_npEoTKK9wP_{fill: #D1A3F1;}#el_AipEqN2-rDq{fill: #FFFFFF;}#el_qxtU9WzXUum{fill: #FFFFFF;}#el_Ju9h9BkIS8d{fill: #DCA7EC;}#el_zW4DVk-OcAl{fill: #DCA7EC;}#el_mTHDgqEtzFB{-webkit-transform: translate(173.216787px, 398px);transform: translate(173.216787px, 398px);}#el_xy3C6Seu7qe{fill: url(#Path_6_);}#el_HFGZ2vWKIKm{fill: url(#SVGID_13_);}#el_L3IwPmUDROz{-webkit-transform: translate(9px, 0px);transform: translate(9px, 0px);}#el_YSfmE4mt9pq{opacity: 0.1;fill: #373A5B;enable-background: new;}#el_zRQ1Ic1khlm{fill: #FDC8FF;}#el_lXNfcGJKCUk{-webkit-transform: translate(34px, 0px);transform: translate(34px, 0px);}#el_K9fd4oxEUgg{opacity: 0.1;fill: #373A5B;enable-background: new;}#el_7AOLqPgjFJC{fill: #FDC8FF;}#el_oYnJSQUgXRz{fill: url(#SVGID_14_);}#el_Ug0yGw2g-Gn{fill: #FFFFFF;}#el_dFmbsFfOej5{fill: #FFFFFF;}#el_Jrt4RxIz64I_an_P5hzLFOyq{-webkit-animation-fill-mode: backwards;animation-fill-mode: backwards;-webkit-transform: translate(61.25000190734863px, 312.8000030517578px) scale(1, 1) translate(-61.25000190734863px, -312.8000030517578px);transform: translate(61.25000190734863px, 312.8000030517578px) scale(1, 1) translate(-61.25000190734863px, -312.8000030517578px);-webkit-animation-name: kf_el_Jrt4RxIz64I_an_P5hzLFOyq;animation-name: kf_el_Jrt4RxIz64I_an_P5hzLFOyq;-webkit-animation-timing-function: cubic-bezier(0, 0, 0.58, 1);animation-timing-function: cubic-bezier(0, 0, 0.58, 1);}#el_-9ymSvZ7k7U_an_2qB5iuH0Q{-webkit-animation-fill-mode: backwards;animation-fill-mode: backwards;-webkit-transform: translate(67.44999885559082px, -169.39999389648438px) rotate(0deg) translate(-67.44999885559082px, 169.39999389648438px);transform: translate(67.44999885559082px, -169.39999389648438px) rotate(0deg) translate(-67.44999885559082px, 169.39999389648438px);-webkit-animation-name: kf_el_-9ymSvZ7k7U_an_2qB5iuH0Q;animation-name: kf_el_-9ymSvZ7k7U_an_2qB5iuH0Q;-webkit-animation-timing-function: cubic-bezier(0, 0, 0.58, 1);animation-timing-function: cubic-bezier(0, 0, 0.58, 1);}#el_mTHDgqEtzFB_an_OLi-PBjPl{-webkit-animation-fill-mode: backwards;animation-fill-mode: backwards;-webkit-transform: translate(299.6999969482422px, 103.04998779296875px) translate(-299.6999969482422px, -103.04998779296875px) translate(0px, 0px);transform: translate(299.6999969482422px, 103.04998779296875px) translate(-299.6999969482422px, -103.04998779296875px) translate(0px, 0px);-webkit-animation-name: kf_el_mTHDgqEtzFB_an_OLi-PBjPl;animation-name: kf_el_mTHDgqEtzFB_an_OLi-PBjPl;-webkit-animation-timing-function: cubic-bezier(0, 0, 0.58, 1);animation-timing-function: cubic-bezier(0, 0, 0.58, 1);}#el_7_1msl4JIRA_an_WTNVO4pCq{-webkit-animation-fill-mode: backwards;animation-fill-mode: backwards;-webkit-transform: translate(213.65472602844238px, 218.8814353942871px) rotate(0deg) translate(-213.65472602844238px, -218.8814353942871px);transform: translate(213.65472602844238px, 218.8814353942871px) rotate(0deg) translate(-213.65472602844238px, -218.8814353942871px);-webkit-animation-name: kf_el_7_1msl4JIRA_an_WTNVO4pCq;animation-name: kf_el_7_1msl4JIRA_an_WTNVO4pCq;-webkit-animation-timing-function: cubic-bezier(0, 0, 0.58, 1);animation-timing-function: cubic-bezier(0, 0, 0.58, 1);}</style>

<ellipse id="el_-ioH3XL7tA" cx="129.4" cy="391" rx="70" ry="3"/>
<g id="el_2IdJET1TTD">
	<g id="el_i9-FUmaNfS">
		<g id="el_I0qANJ6m1d">
			<path d="M-67.4-136.4h354.8c4.5,0,8.1,3.6,8.1,8.1v236.5c0,4.5-3.6,8.1-8.1,8.1H-67.4c-4.5,0-8.1-3.6-8.1-8.1v-236.5&#xA;&#9;&#9;&#9;&#9;C-75.5-132.8-71.9-136.4-67.4-136.4z" id="el_KGnqJzugcI"/>
		</g>
		<path d="M-67.4-136.4h354.8c4.5,0,8.1,3.6,8.1,8.1v12.8H-75.5v-12.8C-75.5-132.8-71.9-136.4-67.4-136.4z" id="el_BWFAltnhI6"/>
		<path d="M-62.7-128.7c1.5,0,2.7,1.2,2.7,2.7s-1.2,2.7-2.7,2.7c-1.5,0-2.7-1.2-2.7-2.7S-64.2-128.7-62.7-128.7z&#xA;&#9;&#9;&#9; M-55.3-126c0,1.5,1.2,2.7,2.7,2.7c1.5,0,2.7-1.2,2.7-2.7s-1.2-2.7-2.7-2.7C-54.1-128.7-55.3-127.5-55.3-126z M-45.3-126&#xA;&#9;&#9;&#9;c0,1.5,1.2,2.7,2.7,2.7s2.7-1.2,2.7-2.7s-1.2-2.7-2.7-2.7S-45.3-127.5-45.3-126z" id="el_-v69QOutP1"/>
	</g>
	<linearGradient id="SVGID_1_" gradientUnits="userSpaceOnUse" x1="150.9411" y1="170.5727" x2="313.9494" y2="3.2404">
		<stop offset="3.605769e-04" style="stop-color:#086BB5"/>
		<stop offset="0.4511" style="stop-color:#058CB5"/>
		<stop offset="1" style="stop-color:#00B9B6"/>
	</linearGradient>
	<rect x="34.6" y="87.4" width="370.4" height="25" id="el_kV1s_Ljsh3"/>
	<path d="M336.7,102.2c-1.1,0-2-0.9-2-2s0.9-2,2-2h37.7c1.1,0,2,0.9,2,2s-0.9,2-2,2H336.7z" id="el_7adRYyOnHX"/>
	<path d="M386.8,98.1c-0.3,0-0.5-0.3-0.5-0.7s0.2-0.7,0.5-0.7h9.1c0.3,0,0.5,0.3,0.5,0.7s-0.2,0.7-0.5,0.7H386.8z&#xA;&#9;&#9; M395.9,100.8c0.3,0,0.5-0.3,0.5-0.7s-0.2-0.7-0.5-0.7h-9.1c-0.3,0-0.5,0.3-0.5,0.7s0.2,0.7,0.5,0.7H395.9z M395.9,103.5&#xA;&#9;&#9;c0.3,0,0.5-0.3,0.5-0.7c0-0.4-0.2-0.7-0.5-0.7h-9.1c-0.3,0-0.5,0.3-0.5,0.7c0,0.4,0.2,0.7,0.5,0.7H395.9z" id="el_Vv6DeCv1EO"/>
	<path d="M287.8,102.2c-1.1,0-2-0.9-2-2s0.9-2,2-2h37.7c1.1,0,2,0.9,2,2s-0.9,2-2,2H287.8z" id="el_q96tynmscf"/>
	<rect x="34.6" y="112.4" width="370.5" height="104" id="el_F1xw8U14oH"/>
	<path d="M162.9,163.7c-3,0-5.5-2.5-5.5-5.5s2.5-5.5,5.5-5.5h103.4c3,0,5.5,2.5,5.5,5.5s-2.5,5.5-5.5,5.5H162.9z&#xA;&#9;&#9; M241.2,174.9c1.6,0,2.8-1.3,2.8-2.8c0-1.6-1.3-2.8-2.8-2.8H188c-1.6,0-2.8,1.3-2.8,2.8c0,1.6,1.3,2.8,2.8,2.8H241.2z M241.2,186.2&#xA;&#9;&#9;c1.6,0,2.8-1.3,2.8-2.8c0-1.6-1.3-2.8-2.8-2.8H188c-1.6,0-2.8,1.3-2.8,2.8c0,1.6,1.3,2.8,2.8,2.8H241.2z" id="el_9bhuNyTmhK"/>
	<path d="M71.2,265.7c-1.6,0-2.8-1.3-2.8-2.8c0-1.6,1.3-2.8,2.8-2.8h53.2c1.6,0,2.8,1.3,2.8,2.8c0,1.6-1.3,2.8-2.8,2.8&#xA;&#9;&#9;H71.2z M151.2,252c2.3,0,4.2-1.9,4.2-4.2c0-2.3-1.9-4.2-4.2-4.2H72.6c-2.3,0-4.2,1.9-4.2,4.2c0,2.3,1.9,4.2,4.2,4.2H151.2z&#xA;&#9;&#9; M124.4,277.7c1.6,0,2.8-1.3,2.8-2.8c0-1.6-1.3-2.8-2.8-2.8H71.2c-1.6,0-2.8,1.3-2.8,2.8c0,1.6,1.3,2.8,2.8,2.8H124.4z&#xA;&#9;&#9; M124.4,289.7c1.6,0,2.8-1.3,2.8-2.8c0-1.6-1.3-2.8-2.8-2.8H71.2c-1.6,0-2.8,1.3-2.8,2.8c0,1.6,1.3,2.8,2.8,2.8H124.4z" id="el_YbSAwfcrXy"/>
	<g id="el_YhpSmDpS5S">
		<defs>
			<path id="SVGID_2_" d="M42.5,66.6h354.8c4.5,0,8.1,3.6,8.1,8.1v236.5c0,4.5-3.6,8.1-8.1,8.1H42.5c-4.5,0-8.1-3.6-8.1-8.1V74.7&#xA;&#9;&#9;&#9;&#9;C34.4,70.2,38,66.6,42.5,66.6z"/>
		</defs>
		<clipPath id="SVGID_3_">
			<use xlink:href="#SVGID_2_" style="overflow:visible;"/>
		</clipPath>
		<path d="M216.1,320.3c-26.7-1.5-30.6-33.9-9.6-46.1c17.5-10.1,45-4.6,63.1-4.8c26.9-0.3,40.4-18,63.6-27.4&#xA;&#9;&#9;&#9;c22.9-9.2,34.2-1,51.5,13.8c15.7,13.5,32.4,17.3,50.4,24.6c16.7,6.7,29,18.1,28.6,38.7c-0.4,21.4-21.5,28.6-38.5,29.4&#xA;&#9;&#9;&#9;c-19.4,0.9-38,0.6-56.6,6.5c-27.7,8.8-55.6,11-83.3,1.8c-14.2-4.8-21.7-10.9-34.2-19.3C241.7,331.1,225.8,320.9,216.1,320.3z" id="el_1wiEGjYITLB"/>
		<path d="M366.9,382.6L366.9,382.6c-1.1-1.4-4.4-3.3-4.6-2.7c-0.2,0.2-0.3,0.5-0.4,0.7l-3.9-2.9l0.4-0.8&#xA;&#9;&#9;&#9;c0,0-20.3-15.7-26.4-19.1c-2.4-4.4,2.3-29.5,3.7-36.4c0.5-0.3,0.8-0.7,0.9-1.2c0.4-2.1,2.3-10,1.4-21.6c0,0.1,0.1,0.1,0.1,0.2&#xA;&#9;&#9;&#9;c-0.1-1.5-0.3-3.1-0.6-4.7c-0.1-0.7-0.2-1.4-0.3-2.1c0.9,1.3,1.6,2.4,2.1,3.1c4.8,8.1,12.4,25.5,12.4,25.5l0.2,0&#xA;&#9;&#9;&#9;c0,1.2,0.1,2.4,0.1,2.4c0,2.1-0.7,6.7,0.3,6.7c0.8,0,1.4-2.3,1.8-4.1c3.7,1.6,13.9,4.9,11.4,1.3c-1.5-2.1-7.4-4-9.3-7.2l0.5-0.1&#xA;&#9;&#9;&#9;c0,0-0.3-16.1-8.9-30.5c-3.9-6.5-12.2-22-18.7-26.1c-0.2-0.3-0.3-0.6-0.4-0.8c0-0.1,0-0.1-0.1-0.2l0,0l-0.3-2.4l-0.5,0.2&#xA;&#9;&#9;&#9;c-0.7-1.9-1.4-4.2-2-6.8c0,0,4.8-5.4,6.2-7.3c2.7-3.6,3.6-8.4,1.1-11c-1.2-1.3-3.8-1.2-3.8-1.2s-3.4-8.2-12.1-6&#xA;&#9;&#9;&#9;c-5.6,1.4-8.7,9.9-8.7,9.9s0.9,0.9,3.4,1.1c-2.2,5-2.5,11.7-1.5,15.8c1.7,7.2,6,2.3,9.5,0.8c-0.2,0.1-0.3,3.9-0.2,7.3&#xA;&#9;&#9;&#9;c-0.1,0.1-0.3,0.2-0.4,0.4l-2.6,1.2l-1.9,2.7l2.2-0.8l-0.5,1.9c-2.9,6.8-6.2,17.7-13.9,24c-6.5,5.3-19.9,7.7-19.9,7.7l0.1,0.4&#xA;&#9;&#9;&#9;c-1.3,0.3-2.6,0.5-3.7,0.6c-5.8,0.5-12.8,0.7-12.8,3.1c0,1.6,10.1,1,10.1,1s-3.9,2.9-2.6,3.3c0.7,0.2,3.1-1.5,4.8-2.3&#xA;&#9;&#9;&#9;c0.8-0.4,3-1.2,4.9-1.8l0.1,0.5c0,0,16.1,2.1,26.4-5.1c-0.1,0.7-0.2,1.3-0.4,2l-1.1,5.6l0.2,0.4c-0.6,4.2-0.8,7.8-0.7,10.8&#xA;&#9;&#9;&#9;c0,0.6,0.2,1.1,0.5,1.4l-12.8,73.4l0.4,0.1l-0.7,3.4c-0.2-0.4-0.3-0.7-0.8-0.7c-0.9,0-3.7,2.7-14,5.1c-2.9,0.7-2.6,2.8,0.2,3.4&#xA;&#9;&#9;&#9;l13.7-0.4l-0.3,0v1.1h6l0.4-1.7c0.7-1.7,0.6-5.5,0-5.4c-0.2,0-0.3,0-0.5,0l1.1-4.1l2.8,0.4l13.7-32.1c0.7,2.4,1.5,4.3,2.3,5.6&#xA;&#9;&#9;&#9;c14.5,8.4,34.2,16.2,34.2,16.2l1-1.7l2.3,1.5c-0.1,0-0.2,0.1-0.3,0.3c-0.5,0.7,0.5,4.5-2.7,14.6c-0.9,2.8,1.3,3.1,3.2,1l6.2-11.2&#xA;&#9;&#9;&#9;l0.9,0.5l3-5.2L366.9,382.6z" id="el_nSjYANsAvvZ"/>
	</g>
	<g id="el_R8ZohCuKpnN">
		<defs>
			<rect id="SVGID_4_" x="34.6" y="112.4" class="st10" width="370.5" height="104"/>
		</defs>
		<clipPath id="SVGID_5_">
			<use xlink:href="#SVGID_4_" style="overflow:visible;"/>
		</clipPath>
		<path d="M284.7,134.3c-3.4,0.9-5.3-5.8-11.9-11.9c-6.7-6.1-12.2-3.5-15.2-1.1c-1,0.8-3,3.2-2.5,4.9&#xA;&#9;&#9;&#9;c-2.4-1.3-5.7-1.4-9.9,0.5c-2.4-0.2-5.9,0.2-7.6,3.8c-2.8,5.8,0.6,5.4,0.6,13c0,0,0,0.1,0,0.1c0.1,1.1,0.2,2.1,0.4,3&#xA;&#9;&#9;&#9;c1.4,6.1,5,1.9,8,0.7c-0.1,0.1-0.3,3.3-0.2,6.2c-0.2,0.1-0.3,0.2-0.5,0.3c-1.6,1.1-1.6,2.2-3.4,7.4c-2.2,5.6-5,12.8-10.5,17.3&#xA;&#9;&#9;&#9;c-5.5,4.4-16.8,6.5-16.8,6.5l0,0.3c-1.1,0.2-2.2,0.4-3.1,0.5c-4.9,0.4-10.8,0.6-10.8,2.6c0,1.3,8.5,0.9,8.5,0.9s-3.3,2.4-2.2,2.8&#xA;&#9;&#9;&#9;c0.6,0.2,2.7-1.3,4.1-2c0.7-0.3,2.5-1,4.1-1.5l0.3,1.4c0,0,7.2,2.5,14.4,1.8c-4.5,12.1-9,24.3-10.1,26.8c1.4,1,8.5,2.1,13.2,2.9&#xA;&#9;&#9;&#9;L227,260h0.2l-1.1,5.6c-0.1-0.1-0.3-0.2-0.5-0.2c-0.7,0-3.1,2.5-11.3,2.7c-2.5,0.1-2.6,4.1-0.2,4.6h16.1c1.7-0.8,1.4-6.3,0.3-6.2&#xA;&#9;&#9;&#9;c-0.1,0-0.2,0-0.3,0l1.7-6.4h3.2l9.7-22.5c0.6,2,1.2,3.7,1.9,4.8c12.2,7.1,26.5,12.7,26.5,12.7l0.7-2l4.2,2.7&#xA;&#9;&#9;&#9;c-0.2,0.1-0.3,0.2-0.4,0.4c-0.3,0.7,1.2,3.8-1.6,11.4c-0.9,2.4,2.8,3.9,4.2,1.9l5.9-15c-0.1-1.9-5.4-3.6-5.7-2.6&#xA;&#9;&#9;&#9;c0,0.1-0.1,0.2-0.1,0.3l-4.9-3.6l0.1-0.2c0,0-13.8-11.4-18.9-14.3c-0.8-1.6-0.6-6.3,0-11.6c3.6-0.3,6.7-0.7,9.3-1.3&#xA;&#9;&#9;&#9;c-0.2-1-0.8-23.8-2.7-39c4,7.1,9.7,20.6,9.7,20.6l0.7-0.1c0,1,0,2,0,2c0,1.8-0.6,5.7,0.2,5.6c0.7,0,1.2-2,1.5-3.4&#xA;&#9;&#9;&#9;c3.1,1.4,11.7,4.1,9.7,1.1c-1.2-1.8-6.2-3.4-7.8-6l0.8-0.2c0,0,2.6-14.3-4.7-26.5c-3-5-10.8-15.9-17-20.2c-0.2-0.4-0.3-0.7-0.5-1&#xA;&#9;&#9;&#9;c-0.2-0.3-1-0.7-2-0.9c-0.7-1.6-1.5-3.7-2.1-6.2c3.3-0.9,8.4-5.2,9-9.4c0.4-2.7-0.9-7.8-4.4-10.5c2.8,0.2,9.7-1.1,11.6,9.1&#xA;&#9;&#9;&#9;c2.2,12.2,21.6,13.8,28,10.9C301.7,144.4,298.8,130.7,284.7,134.3z" id="el_MnLM4iv-Dyq"/>
		<path d="M179.2,173.5c-6.6-0.3-7.8,11.5-12.8,15.3c-1.2,0.9-2.2,2-3,3.1c-1.5-2.9-3-5.7-1.9-8.7&#xA;&#9;&#9;&#9;c2.3-6.8-0.4-17.8-8.4-15c-6.2,2.2-2.9,13.6-6.1,19c-3.2,5.4-2.2,12.6,0.9,17.4c3.1,4.8-0.2,3-0.2,13.1c0,7.1,3.7,15.5,5.9,19.8&#xA;&#9;&#9;&#9;c0.2,2.2,0.4,3.6,0.4,3.6s0.3-0.5,0.8-1.4c0.2,0.4,0.4,0.7,0.4,0.7s0.1-0.7,0.3-1.7c1.7-2.5,4.7-6.5,8-8&#xA;&#9;&#9;&#9;c12.1-5.5,1.9-13.5,13.3-20.6c7.5-4.7,0.1-14.2,4.8-19.6C186,185.2,187.7,173.9,179.2,173.5z M152.2,204.6&#xA;&#9;&#9;&#9;c-1.7-4.3,0.1-9.9,2.1-14.4c2-4.5,0-16.4,0-16.4s4.3,7.6,2.4,15.6c-1.4,6.1-4,8.1-2.4,13.4c1.4,4.7,2.1,8.7,2.2,11.9&#xA;&#9;&#9;&#9;c-0.3,0.7-0.7,1.5-1.1,2.4c-1.7,4.1-2.2,9.3-2.3,13.8c-0.4-2.9-0.6-6.7,0.4-10C155.5,214.8,153.9,208.8,152.2,204.6z M174.6,194.5&#xA;&#9;&#9;&#9;c-3.6,5.1-6.7,6-7.3,11.6c-0.7,7.1-2.2,12.2-4.2,15.5c0.3-1.6,0.1-3-0.2-4.5c1.4-3.6,1.7-7.3,1.8-10.3c0-4.6,3.8-9.1,7.3-12.5&#xA;&#9;&#9;&#9;c3.5-3.4,6.2-15.2,6.2-15.2S179.4,187.8,174.6,194.5z" id="el_aSuIBb2tn56"/>
	</g>
	<path d="M53.9,91c-5.1,0-9.3,4.1-9.3,9.3c0,5.1,4.1,9.3,9.3,9.3s9.3-4.1,9.3-9.3C63.2,95.1,59.1,91,53.9,91z&#xA;&#9;&#9; M53.9,107.4c-3.9,0-7.1-3.2-7.1-7.1c0-3.9,3.2-7.1,7.1-7.1s7.1,3.2,7.1,7.1C61.1,104.2,57.9,107.4,53.9,107.4z" id="el_bMpErSt_4iM"/>
</g>
<g id="el_J-ZHasABXRL">
	<g id="el_zjO-QQEVYM2">
		<linearGradient id="SVGID_6_" gradientUnits="userSpaceOnUse" x1="-571.3898" y1="185.9712" x2="-558.889" y2="161.6219">
			<stop offset="0" style="stop-color:#CE8BA0"/>
			<stop offset="1" style="stop-color:#875151"/>
		</linearGradient>
		<path d="M-553.7,166.1c-5.6-0.3-8.9-2.3-9.8-6.1h-12.4l-2.3,8.8c-0.7,2.3,0.4,3.4,3.5,3.4c3.1,0,12.5,0,28.1,0&#xA;&#9;&#9;&#9;C-545.7,168.4-548.1,166.4-553.7,166.1z" id="el_On3p8FJS0gY"/>
		<linearGradient id="SVGID_7_" gradientUnits="userSpaceOnUse" x1="-620.5963" y1="185.5566" x2="-607.3141" y2="159.6851">
			<stop offset="0" style="stop-color:#CE8BA0"/>
			<stop offset="1" style="stop-color:#875151"/>
		</linearGradient>
		<path d="M-601.9,166.1c-2.4-1.8-4.2-3.8-5.4-6.1h-12.4l-5.5,8.8c-0.7,2.3,0.4,3.4,3.5,3.4c4.6,0,18.1,0,20.1,0&#xA;&#9;&#9;&#9;C-599.6,172.1-598.3,168.8-601.9,166.1z" id="el_0nF2ZleTp56"/>
	</g>
	
		<g id="el_uWEg_z-GVOy">
		<g id="el_M_MbNQKFoem">
			<g id="el_R6p3Y0I7RlU">
				
					<linearGradient id="SVGID_8_" gradientUnits="userSpaceOnUse" x1="-1259.2368" y1="939.8414" x2="-1258.6356" y2="940.508" gradientTransform="matrix(27.7295 4.0366 3.4047 -32.8755 31094.9688 35853.0273)">
					<stop offset="0" style="stop-color:#FF9292"/>
					<stop offset="1" style="stop-color:#FFB59D"/>
				</linearGradient>
				<path d="M-610.8-135l-0.1,3.4c-1.3,2.5-3,3.7-5.3,3.5c-2.3-0.2-4.5-1.8-6.7-4.7l3.1-9.6l2,0&#xA;&#9;&#9;&#9;&#9;&#9;c-0.8-4.4,0.4-9.7,0.3-11c3.5,1.3,13.4,1.7,16,0c0.1,12.7-1,19.4-4.3,19.4C-606.8-134.1-608.8-134.3-610.8-135z" id="el_Jf9wKCAQEK3"/>
			</g>
			<defs>
				<filter id="Adobe_OpacityMaskFilter" filterUnits="userSpaceOnUse" x="-618.6" y="-153.5" width="15.6" height="7.1">
					<feColorMatrix type="matrix" values="1 0 0 0 0  0 1 0 0 0  0 0 1 0 0  0 0 0 1 0"/>
				</filter>
			</defs>
			<mask maskUnits="userSpaceOnUse" x="-618.6" y="-153.5" width="15.6" height="7.1" id="mask-8_2_">
				<g class="st16">
					<path id="path-7_2_" class="st17" d="M-610.8-135l-0.1,3.4c-1.3,2.5-3,3.7-5.3,3.5c-2.3-0.2-4.5-1.8-6.7-4.7l3.1-9.6l2,0&#xA;&#9;&#9;&#9;&#9;&#9;&#9;c-0.8-4.4,0.4-9.7,0.3-11c3.5,1.3,13.4,1.7,16,0c0.1,12.7-1,19.4-4.3,19.4C-606.8-134.1-608.8-134.3-610.8-135z"/>
				</g>
			</mask>
			<path id="el_RtOze2k98kB" d="M-603-153.5c-3,2.6-5.9,3.6-8.8,3.1c-4.2-0.9-3.3,5.5-6.8,3.9l1.4-8.4L-603-153.5z"/>
		</g>
		
			<linearGradient id="Path_1_" gradientUnits="userSpaceOnUse" x1="-1256.8069" y1="947.437" x2="-1256.0963" y2="948.0407" gradientTransform="matrix(36.5175 4.0006 4.4838 -32.5824 41032.8945 35760.0469)">
			<stop offset="0" style="stop-color:#321847"/>
			<stop offset="1" style="stop-color:#834A88"/>
		</linearGradient>
		<path id="el_t5mZxIZu5GB" d="M-600.9-138.8c-1.6,0-3,1.4-3,3.1c0,0.9,0.4,1.7,1,2.3c-1,0.9-2.1,1.9-2.9,3.4&#xA;&#9;&#9;&#9;c-1.2,2.1-3.3,1.6-6,1.6c-2.8,0-4.7-1.1-5.7-3.1c-4-8.8-4.5-14.6-1.8-16.2c0.4-0.2,1.6-0.5,2.8,0.1c0-3.9,2.1-5.6,6.4-5.3&#xA;&#9;&#9;&#9;c2.7,0.2,13.5-1.8,16.2,0.7c2.7,2.6-0.1,7.9-3.9,10.4c-0.9,0.6-1.2,2.1-1.5,3.5C-599.7-138.6-600.3-138.8-600.9-138.8z"/>
	</g>
	<g id="el_8EfGJAJgY5e">
		<g id="el_VngEptk2MoZ">
			
				<linearGradient id="SVGID_9_" gradientUnits="userSpaceOnUse" x1="-1097.047" y1="996.5198" x2="-1098.0248" y2="995.8661" gradientTransform="matrix(84.6787 0 0 -165.6956 92353.4297 165020.3906)">
				<stop offset="0" style="stop-color:#404683"/>
				<stop offset="1" style="stop-color:#373A5B"/>
			</linearGradient>
			<path d="M-604.6-105.9c-9.7,46.2-6.7,42.8-11.6,70.9c-1.1,6.3-2.1,12.7-3.3,19c-2,10.1-2.6,19.7-5.1,29.8&#xA;&#9;&#9;&#9;&#9;c-0.6,2.4-3.2,6.2-0.2,6.8c3,0.6,11.9,0.4,13.9,0.4c2,0,1.7-4.1,2.4-6c4.9-12.9,7.7-24.6,8.4-35.1c0.7-12.1,5.8-29.4,15.1-51.8&#xA;&#9;&#9;&#9;&#9;c3.7,21.1,4.8,38.6,3.3,52.5c-1.2,11-1.2,21.7,0.1,32.1c0.3,2.7-1.8,7.5,1.2,8c3,0.5,10.7,0.5,12.8,0.4c2.1-0.1,1.6-6.4,2.6-13.4&#xA;&#9;&#9;&#9;&#9;c1.1-6.9,2.3-15.9,3.2-40.9c0.6-16.7,0.6-40.9,0-72.6H-604.6z" id="el_YP3m8XYqA80"/>
		</g>
		<g id="el_-a8mFl-4Bet">
			<defs>
				<path id="SVGID_10_" d="M-604.6-105.9c-9.7,46.2-6.7,42.8-11.6,70.9c-1.1,6.3-2.1,12.7-3.3,19c-2,10.1-2.6,19.7-5.1,29.8&#xA;&#9;&#9;&#9;&#9;&#9;c-0.6,2.4-3.2,6.2-0.2,6.8c3,0.6,11.9,0.4,13.9,0.4c2,0,1.7-4.1,2.4-6c4.9-12.9,7.7-24.6,8.4-35.1c0.7-12.1,5.8-29.4,15.1-51.8&#xA;&#9;&#9;&#9;&#9;&#9;c3.7,21.1,4.8,38.6,3.3,52.5c-1.2,11-1.2,21.7,0.1,32.1c0.3,2.7-1.8,7.5,1.2,8c3,0.5,10.7,0.5,12.8,0.4&#xA;&#9;&#9;&#9;&#9;&#9;c2.1-0.1,1.6-6.4,2.6-13.4c1.1-6.9,2.3-15.9,3.2-40.9c0.6-16.7,0.6-40.9,0-72.6H-604.6z"/>
			</defs>
			<clipPath id="SVGID_11_">
				<use xlink:href="#SVGID_10_" style="overflow:visible;"/>
			</clipPath>
			<path d="M-562.3-105.9c-0.3,6-5.1,9-14.3,9c-13.8,0-6.4,10.8-20.5,14.4c-14.1,3.6-6.5,18.9-15.1,18.9&#xA;&#9;&#9;&#9;&#9;c-5.7,0-6.4-14.1-2.2-42.3H-562.3z" id="el_2Ddbs6RsUHP"/>
			<path d="M-599-11.5c-2.3-0.7-3.1-2.8-2.4-6.3c1-5.2-1-28.3,3.4-30.7c4.5-2.4,0.9-13.5,3.5-18c1.8-3,4.8-4.9,9.3-5.8&#xA;&#9;&#9;&#9;&#9;L-599-11.5z" id="el_AJaXrVwYS37"/>
		</g>
	</g>
	<linearGradient id="Hand_1_" gradientUnits="userSpaceOnUse" x1="-524.6716" y1="-64.1421" x2="-512.1982" y2="-64.1421">
		<stop offset="0" style="stop-color:#FF9292"/>
		<stop offset="1" style="stop-color:#FFB59D"/>
	</linearGradient>
	<path id="el_nNhCCF8_1B3" d="M-647.1-57.2c-2.7,1.6-4.4,2-5.3,1.2&#xA;&#9;&#9;s-1.3-1.6-1.2-2.4c1-4.3,1.8-7,2.4-8.1c0.4-0.7,3.3-2.4,4.8-3.1c0.6-0.3,4.1-3,4.7-3.1c1-0.1,0.5,1.8-1.6,3.6&#xA;&#9;&#9;c-2.3,2,1.7,4.6,0.4,8.1C-643.7-58.6-645.1-57.4-647.1-57.2z"/>
	<g id="el_5nWs5Cj-T5L">
		<g id="el_VkRddzKgvYV">
			
				<linearGradient id="SVGID_12_" gradientUnits="userSpaceOnUse" x1="-1106.8103" y1="1118.1215" x2="-1106.5381" y2="1118.8174" gradientTransform="matrix(131.8333 0 0 -132.833 145315.5625 148533.3281)">
				<stop offset="0" style="stop-color:#5D63D3"/>
				<stop offset="1" style="stop-color:#B986FF"/>
			</linearGradient>
			<path d="M-576.7-50.7c-5.9-0.7-21.3,0.3-29.9,1.6c-6,0.9-10.1,3.5-12.1,7.9c-7.7,21-10.9,33.4-9.4,37.2&#xA;&#9;&#9;&#9;&#9;c1.4,3.8,6.6,6.4,15.5,7.9c0,4.2-0.6,8.5-1.8,13c-0.8,2.2-2.1,5.3,5.9,6.3s21.9,2.5,30.7,1c8.7-1.5,12.8-1.9,10-8.2&#xA;&#9;&#9;&#9;&#9;s-3.4-42.2-0.5-44.8c2.9-2.6,20.4-11.9,23.6-16.3c2.2-3,7.9-11.9,17.3-26.8c-2-3.9-5.1-5.5-9.2-4.8&#xA;&#9;&#9;&#9;&#9;c-9.5,14.2-14.8,21.5-15.8,21.9C-554.1-54.3-570.9-50-576.7-50.7z" id="el_0vIhlwtW8Qp"/>
		</g>
		<defs>
			<filter id="Adobe_OpacityMaskFilter_1_" filterUnits="userSpaceOnUse" x="-612.4" y="-51.9" width="28.9" height="5.4">
				<feColorMatrix type="matrix" values="1 0 0 0 0  0 1 0 0 0  0 0 1 0 0  0 0 0 1 0"/>
			</filter>
		</defs>
		<mask maskUnits="userSpaceOnUse" x="-612.4" y="-51.9" width="28.9" height="5.4" id="mask-17_6_">
			<g class="st24">
				<path id="path-16_6_" class="st17" d="M-576.7-50.7c-5.9-0.7-21.3,0.3-29.9,1.6c-6,0.9-10.1,3.5-12.1,7.9&#xA;&#9;&#9;&#9;&#9;&#9;c-7.7,21-10.9,33.4-9.4,37.2c1.4,3.8,6.6,6.4,15.5,7.9c0,4.2-0.6,8.5-1.8,13c-0.8,2.2-2.1,5.3,5.9,6.3s21.9,2.5,30.7,1&#xA;&#9;&#9;&#9;&#9;&#9;c8.7-1.5,12.8-1.9,10-8.2s-3.4-42.2-0.5-44.8c2.9-2.6,20.4-11.9,23.6-16.3c2.2-3,7.9-11.9,17.3-26.8c-2-3.9-5.1-5.5-9.2-4.8&#xA;&#9;&#9;&#9;&#9;&#9;c-9.5,14.2-14.8,21.5-15.8,21.9C-554.1-54.3-570.9-50-576.7-50.7z"/>
			</g>
		</mask>
		<path id="el_bfkl8NnBKzw" d="M-611.6-50.7c-2.2,2.8,0.5,4.1,8.2,4.1c7.7,0,14.3-1.8,20-5.4L-611.6-50.7z"/>
		<defs>
			<filter id="Adobe_OpacityMaskFilter_2_" filterUnits="userSpaceOnUse" x="-568.5" y="-49.3" width="27.5" height="19.6">
				<feColorMatrix type="matrix" values="1 0 0 0 0  0 1 0 0 0  0 0 1 0 0  0 0 0 1 0"/>
			</filter>
		</defs>
		<mask maskUnits="userSpaceOnUse" x="-568.5" y="-49.3" width="27.5" height="19.6" id="mask-17_5_">
			<g class="st26">
				<path id="path-16_5_" class="st17" d="M-576.7-50.7c-5.9-0.7-21.3,0.3-29.9,1.6c-6,0.9-10.1,3.5-12.1,7.9&#xA;&#9;&#9;&#9;&#9;&#9;c-7.7,21-10.9,33.4-9.4,37.2c1.4,3.8,6.6,6.4,15.5,7.9c0,4.2-0.6,8.5-1.8,13c-0.8,2.2-2.1,5.3,5.9,6.3s21.9,2.5,30.7,1&#xA;&#9;&#9;&#9;&#9;&#9;c8.7-1.5,12.8-1.9,10-8.2s-3.4-42.2-0.5-44.8c2.9-2.6,20.4-11.9,23.6-16.3c2.2-3,7.9-11.9,17.3-26.8c-2-3.9-5.1-5.5-9.2-4.8&#xA;&#9;&#9;&#9;&#9;&#9;c-9.5,14.2-14.8,21.5-15.8,21.9C-554.1-54.3-570.9-50-576.7-50.7z"/>
			</g>
		</mask>
		<path id="el_qjDhOu_S_rF" d="M-568.5-29.7c1.4-4.7,5-7.5,11-8.5c8.9-1.4,9.1-9.4,14.7-11c3.7-1,1.6,2.3-6.3,10&#xA;&#9;&#9;&#9;L-568.5-29.7z"/>
		<defs>
			<filter id="Adobe_OpacityMaskFilter_3_" filterUnits="userSpaceOnUse" x="-621.2" y="-32" width="10.5" height="42.4">
				<feColorMatrix type="matrix" values="1 0 0 0 0  0 1 0 0 0  0 0 1 0 0  0 0 0 1 0"/>
			</filter>
		</defs>
		<mask maskUnits="userSpaceOnUse" x="-621.2" y="-32" width="10.5" height="42.4" id="mask-17_4_">
			<g class="st28">
				<path id="path-16_4_" class="st17" d="M-576.7-50.7c-5.9-0.7-21.3,0.3-29.9,1.6c-6,0.9-10.1,3.5-12.1,7.9&#xA;&#9;&#9;&#9;&#9;&#9;c-7.7,21-10.9,33.4-9.4,37.2c1.4,3.8,6.6,6.4,15.5,7.9c0,4.2-0.6,8.5-1.8,13c-0.8,2.2-2.1,5.3,5.9,6.3s21.9,2.5,30.7,1&#xA;&#9;&#9;&#9;&#9;&#9;c8.7-1.5,12.8-1.9,10-8.2s-3.4-42.2-0.5-44.8c2.9-2.6,20.4-11.9,23.6-16.3c2.2-3,7.9-11.9,17.3-26.8c-2-3.9-5.1-5.5-9.2-4.8&#xA;&#9;&#9;&#9;&#9;&#9;c-9.5,14.2-14.8,21.5-15.8,21.9C-554.1-54.3-570.9-50-576.7-50.7z"/>
			</g>
		</mask>
		<path id="el_Xp1PhwaanJf" d="M-613,10.4c2-19.3,2.7-33.5,2-42.4c-1.4,1.7-2,4.8-2,9.5c0,6.9-7,0-4.3,10.2&#xA;&#9;&#9;&#9;c2.7,10.2-8.2,7.5-1.9,14.3c4.2,4.5,6,7.3,5.4,8.2L-613,10.4z"/>
	</g>
</g>
<g id="el_7_1msl4JIRA_an_WTNVO4pCq" data-animator-group="true" data-animator-type="1"><g id="el_7_1msl4JIRA">
	
		<linearGradient id="Path_4_" gradientUnits="userSpaceOnUse" x1="-698.7783" y1="293.6702" x2="-698.7783" y2="292.1696" gradientTransform="matrix(49.3573 0 0 -59.2298 34453.4805 17321.3066)">
		<stop offset="0" style="stop-color:#52DEEA"/>
		<stop offset="1" style="stop-color:#3488ED"/>
	</linearGradient>
	<path id="el_dcDnmVRMA1j" d="M-34.5-70.4l26.1,15.6c1.2,0.7,1.9,2,1.8,3.4c-0.8,12.4-3.6,22.8-8.1,31.1&#xA;&#9;&#9;c-4.8,8.8-11.1,15.5-18.7,20c-1.4,1.3-3.8,1.3-5.6,0.1C-48-5.8-54.7-13-59.2-21.9c-4.2-8.3-6.6-18.2-6.9-29.7h0&#xA;&#9;&#9;c0-1.3,0.6-2.6,1.8-3.2l26.2-15.6C-37-71.1-35.6-71.1-34.5-70.4z"/>
	<circle id="el_xeMYF21HEBo" cx="-36.3" cy="-37" r="15"/>
	<path id="el_WZbn7eZZZeM" d="M-32.3-41.4c0.6-0.6,1.5-0.6,2.1,0c0.6,0.6,0.6,1.5,0,2.1l-5.9,5.9c-0.6,0.6-1.5,0.6-2.1,0&#xA;&#9;&#9;l-3.9-3.9c-0.6-0.6-0.6-1.5,0-2.1s1.5-0.6,2.1,0l2.8,2.8L-32.3-41.4z"/>
</g></g>
<g id="el_qfyjeCerFTU">
	
		<linearGradient id="Path_5_" gradientUnits="userSpaceOnUse" x1="-717.1868" y1="66.7574" x2="-717.0972" y2="68.2359" gradientTransform="matrix(76.9427 0 0 -45.6854 55227.7773 2921.9934)">
		<stop offset="0" style="stop-color:#FF90D7"/>
		<stop offset="1" style="stop-color:#906EFA"/>
	</linearGradient>
	<path id="el_te_V5iY0uIH" d="M9.2-195.8h81.1c1.9,0,3.4,1.5,3.4,3.4v45.3c0,1.9-1.5,3.4-3.4,3.4H9.2c-1.9,0-3.4-1.5-3.4-3.4&#xA;&#9;&#9;v-45.3C5.8-194.3,7.3-195.8,9.2-195.8z"/>
	<g id="el_-9ymSvZ7k7U_an_2qB5iuH0Q" data-animator-group="true" data-animator-type="1"><g id="el_-9ymSvZ7k7U">
		<path id="el_npEoTKK9wP_" d="M25.4-162.9c-9.2,0-16.6-7.4-16.6-16.6S16.2-196,25.4-196S42-188.6,42-179.4&#xA;&#9;&#9;&#9;S34.5-162.9,25.4-162.9z M25.4-167.4c6.6,0,12-5.4,12-12s-5.4-12-12-12s-12,5.4-12,12S18.8-167.4,25.4-167.4z"/>
		<path d="M15.4-166.2c-1-0.8-1.2-2.2-0.4-3.2s2.2-1.2,3.2-0.4c2.1,1.6,4.6,2.4,7.3,2.4c6.6,0,12-5.4,12-12&#xA;&#9;&#9;&#9;s-5.4-12-12-12c-1.3,0-2.3-1-2.3-2.3c0-1.3,1-2.3,2.3-2.3c9.2,0,16.6,7.4,16.6,16.6s-7.4,16.6-16.6,16.6&#xA;&#9;&#9;&#9;C21.7-162.9,18.2-164.1,15.4-166.2z" id="el_AipEqN2-rDq"/>
	</g></g>
	<path id="el_qxtU9WzXUum" d="M18.7-182.7c-0.6,0-1-0.5-1-1c0-0.6,0.5-1,1-1h10.1c0.6,0,1,0.5,1,1c0,0.6-0.5,1-1,1H18.7z&#xA;&#9;&#9;"/>
	<path id="el_Ju9h9BkIS8d" d="M18.7-176.6c-0.6,0-1-0.5-1-1c0-0.6,0.5-1,1-1h16.8c0.6,0,1,0.5,1,1c0,0.6-0.5,1-1,1&#xA;&#9;&#9;H18.7z"/>
	<path id="el_zW4DVk-OcAl" d="M18.7-156c-0.6,0-1-0.5-1-1c0-0.6,0.5-1,1-1h5.4c0.6,0,1,0.5,1,1c0,0.6-0.5,1-1,1H18.7z&#xA;&#9;&#9;"/>
</g>
<g id="el_mTHDgqEtzFB_an_OLi-PBjPl" data-animator-group="true" data-animator-type="0"><g id="el_mTHDgqEtzFB">
	
		<linearGradient id="Path_6_" gradientUnits="userSpaceOnUse" x1="-620.3533" y1="150.8422" x2="-620.7836" y2="150.2334" gradientTransform="matrix(52 0 0 -52 32396.1719 7538.7549)">
		<stop offset="0" style="stop-color:#FFFFFF"/>
		<stop offset="1" style="stop-color:#C2E7F9"/>
	</linearGradient>
	<path id="el_xy3C6Seu7qe" d="M113.6-315h32.6c2.7,0,4.9,2.2,4.9,4.9v32.6c0,2.7-2.2,4.9-4.9,4.9h-32.6&#xA;&#9;&#9;c-2.7,0-4.9-2.2-4.9-4.9v-32.6C108.7-312.8,110.9-315,113.6-315z"/>
	
		<linearGradient id="SVGID_13_" gradientUnits="userSpaceOnUse" x1="-620.9615" y1="139.218" x2="-620.1638" y2="140.2509" gradientTransform="matrix(52 0 0 -14 32396.1719 1648.7546)">
		<stop offset="0" style="stop-color:#FFCFAA"/>
		<stop offset="1" style="stop-color:#FA6EB9"/>
	</linearGradient>
	<path d="M113.6-315h32.6c2.7,0,4.9,2.2,4.9,4.9v6.5h-42.3v-6.5C108.7-312.8,110.9-315,113.6-315z" id="el_HFGZ2vWKIKm"/>
	<g id="el_L3IwPmUDROz">
		<circle id="el_YSfmE4mt9pq" cx="110" cy="-309.2" r="3"/>
		<path id="el_zRQ1Ic1khlm" d="M108.5-315.7c0-0.9,0.7-1.6,1.6-1.6c0.9,0,1.6,0.7,1.6,1.6v6.4c0,0.9-0.7,1.6-1.6,1.6&#xA;&#9;&#9;&#9;c-0.9,0-1.6-0.7-1.6-1.6V-315.7z"/>
	</g>
	<g id="el_lXNfcGJKCUk">
		<circle cx="105.3" cy="-309.2" r="3" id="el_K9fd4oxEUgg"/>
		<path d="M103.8-315.7c0-0.9,0.7-1.6,1.6-1.6s1.6,0.7,1.6,1.6v6.4c0,0.9-0.7,1.6-1.6,1.6s-1.6-0.7-1.6-1.6V-315.7z" id="el_7AOLqPgjFJC"/>
	</g>
</g></g>
<g id="el_Jrt4RxIz64I_an_P5hzLFOyq" data-animator-group="true" data-animator-type="2"><g id="el_Jrt4RxIz64I">
	
		<linearGradient id="SVGID_14_" gradientUnits="userSpaceOnUse" x1="-1557.1116" y1="147.5692" x2="-1504.0792" y2="94.5368" gradientTransform="matrix(4.489700e-11 -1 -1 -4.489700e-11 182.25 -1217.75)">
		<stop offset="3.605769e-04" style="stop-color:#0A6CB5"/>
		<stop offset="0.4511" style="stop-color:#0C8BB4"/>
		<stop offset="1" style="stop-color:#00B8B5"/>
	</linearGradient>
	<polygon points="27.6,293.4 27.6,332.3 61.2,351.6 94.9,332.3 94.9,293.4 61.2,274 &#9;" id="el_oYnJSQUgXRz"/>
	<g id="el_mrfeqljRFE2">
		<path d="M45.7,304.1c0-1.1,0.9-2,2-2h27.2c1.1,0,2,0.9,2,2v17.5h3.9v-17.5c0-3.2-2.6-5.8-5.8-5.8H47.7&#xA;&#9;&#9;&#9;c-3.2,0-5.8,2.6-5.8,5.8v17.5h3.9V304.1z" id="el_Ug0yGw2g-Gn"/>
		<path d="M38,321.5v1.5c0,2.4,2.6,4.4,5.8,4.4h34.9c3.2,0,5.8-2,5.8-4.4v-1.5H38z" id="el_dFmbsFfOej5"/>
	</g>
</g></g>
</svg>