<svg version="1.1" id="el_TiJd-HTmH" xmlns="http://www.w3.org/2000/svg" xmlns:xlink="http://www.w3.org/1999/xlink" x="0px" y="0px" viewBox="0 0 433 423" style="enable-background:new 0 0 433.7 423.1;" xml:space="preserve"><style>@-webkit-keyframes kf_el_3ViIsQ_ZkTX_an_BLZkzSMQd{0%{opacity: 0;}62.50%{opacity: 0;}75%{opacity: 1;}100%{opacity: 0;}}@keyframes kf_el_3ViIsQ_ZkTX_an_BLZkzSMQd{0%{opacity: 0;}62.50%{opacity: 0;}75%{opacity: 1;}100%{opacity: 0;}}@-webkit-keyframes kf_el_3ViIsQ_ZkTX_an_nbSFhqb71k{0%{-webkit-transform: translate(215.10000610351562px, 104.5999984741211px) scale(0.5, 0.5) translate(-215.10000610351562px, -104.5999984741211px);transform: translate(215.10000610351562px, 104.5999984741211px) scale(0.5, 0.5) translate(-215.10000610351562px, -104.5999984741211px);}62.50%{-webkit-transform: translate(215.10000610351562px, 104.5999984741211px) scale(0.5, 0.5) translate(-215.10000610351562px, -104.5999984741211px);transform: translate(215.10000610351562px, 104.5999984741211px) scale(0.5, 0.5) translate(-215.10000610351562px, -104.5999984741211px);}75%{-webkit-transform: translate(215.10000610351562px, 104.5999984741211px) scale(1, 1) translate(-215.10000610351562px, -104.5999984741211px);transform: translate(215.10000610351562px, 104.5999984741211px) scale(1, 1) translate(-215.10000610351562px, -104.5999984741211px);}100%{-webkit-transform: translate(215.10000610351562px, 104.5999984741211px) scale(1, 1) translate(-215.10000610351562px, -104.5999984741211px);transform: translate(215.10000610351562px, 104.5999984741211px) scale(1, 1) translate(-215.10000610351562px, -104.5999984741211px);}}@keyframes kf_el_3ViIsQ_ZkTX_an_nbSFhqb71k{0%{-webkit-transform: translate(215.10000610351562px, 104.5999984741211px) scale(0.5, 0.5) translate(-215.10000610351562px, -104.5999984741211px);transform: translate(215.10000610351562px, 104.5999984741211px) scale(0.5, 0.5) translate(-215.10000610351562px, -104.5999984741211px);}62.50%{-webkit-transform: translate(215.10000610351562px, 104.5999984741211px) scale(0.5, 0.5) translate(-215.10000610351562px, -104.5999984741211px);transform: translate(215.10000610351562px, 104.5999984741211px) scale(0.5, 0.5) translate(-215.10000610351562px, -104.5999984741211px);}75%{-webkit-transform: translate(215.10000610351562px, 104.5999984741211px) scale(1, 1) translate(-215.10000610351562px, -104.5999984741211px);transform: translate(215.10000610351562px, 104.5999984741211px) scale(1, 1) translate(-215.10000610351562px, -104.5999984741211px);}100%{-webkit-transform: translate(215.10000610351562px, 104.5999984741211px) scale(1, 1) translate(-215.10000610351562px, -104.5999984741211px);transform: translate(215.10000610351562px, 104.5999984741211px) scale(1, 1) translate(-215.10000610351562px, -104.5999984741211px);}}@-webkit-keyframes kf_el_3ViIsQ_ZkTX_an_NeIkHnOtq{0%{-webkit-transform: translate(215.10000610351562px, 104.5999984741211px) translate(-215.10000610351562px, -104.5999984741211px) translate(0px, 50px);transform: translate(215.10000610351562px, 104.5999984741211px) translate(-215.10000610351562px, -104.5999984741211px) translate(0px, 50px);}62.50%{-webkit-transform: translate(215.10000610351562px, 104.5999984741211px) translate(-215.10000610351562px, -104.5999984741211px) translate(0px, 50px);transform: translate(215.10000610351562px, 104.5999984741211px) translate(-215.10000610351562px, -104.5999984741211px) translate(0px, 50px);}75%{-webkit-transform: translate(215.10000610351562px, 104.5999984741211px) translate(-215.10000610351562px, -104.5999984741211px) translate(0px, 0px);transform: translate(215.10000610351562px, 104.5999984741211px) translate(-215.10000610351562px, -104.5999984741211px) translate(0px, 0px);}100%{-webkit-transform: translate(215.10000610351562px, 104.5999984741211px) translate(-215.10000610351562px, -104.5999984741211px) translate(0px, 0px);transform: translate(215.10000610351562px, 104.5999984741211px) translate(-215.10000610351562px, -104.5999984741211px) translate(0px, 0px);}}@keyframes kf_el_3ViIsQ_ZkTX_an_NeIkHnOtq{0%{-webkit-transform: translate(215.10000610351562px, 104.5999984741211px) translate(-215.10000610351562px, -104.5999984741211px) translate(0px, 50px);transform: translate(215.10000610351562px, 104.5999984741211px) translate(-215.10000610351562px, -104.5999984741211px) translate(0px, 50px);}62.50%{-webkit-transform: translate(215.10000610351562px, 104.5999984741211px) translate(-215.10000610351562px, -104.5999984741211px) translate(0px, 50px);transform: translate(215.10000610351562px, 104.5999984741211px) translate(-215.10000610351562px, -104.5999984741211px) translate(0px, 50px);}75%{-webkit-transform: translate(215.10000610351562px, 104.5999984741211px) translate(-215.10000610351562px, -104.5999984741211px) translate(0px, 0px);transform: translate(215.10000610351562px, 104.5999984741211px) translate(-215.10000610351562px, -104.5999984741211px) translate(0px, 0px);}100%{-webkit-transform: translate(215.10000610351562px, 104.5999984741211px) translate(-215.10000610351562px, -104.5999984741211px) translate(0px, 0px);transform: translate(215.10000610351562px, 104.5999984741211px) translate(-215.10000610351562px, -104.5999984741211px) translate(0px, 0px);}}@-webkit-keyframes kf_el_42QEMfSSONj_an_4JkzQhHpH7{0%{opacity: 0;}50%{opacity: 0;}62.50%{opacity: 1;}75%{opacity: 0;}100%{opacity: 0;}}@keyframes kf_el_42QEMfSSONj_an_4JkzQhHpH7{0%{opacity: 0;}50%{opacity: 0;}62.50%{opacity: 1;}75%{opacity: 0;}100%{opacity: 0;}}@-webkit-keyframes kf_el_42QEMfSSONj_an_zg97lzlMR{0%{-webkit-transform: translate(184.70001220703125px, 133.49999618530273px) scale(0.5, 0.5) translate(-184.70001220703125px, -133.49999618530273px);transform: translate(184.70001220703125px, 133.49999618530273px) scale(0.5, 0.5) translate(-184.70001220703125px, -133.49999618530273px);}50%{-webkit-transform: translate(184.70001220703125px, 133.49999618530273px) scale(0.5, 0.5) translate(-184.70001220703125px, -133.49999618530273px);transform: translate(184.70001220703125px, 133.49999618530273px) scale(0.5, 0.5) translate(-184.70001220703125px, -133.49999618530273px);}62.50%{-webkit-transform: translate(184.70001220703125px, 133.49999618530273px) scale(1, 1) translate(-184.70001220703125px, -133.49999618530273px);transform: translate(184.70001220703125px, 133.49999618530273px) scale(1, 1) translate(-184.70001220703125px, -133.49999618530273px);}100%{-webkit-transform: translate(184.70001220703125px, 133.49999618530273px) scale(1, 1) translate(-184.70001220703125px, -133.49999618530273px);transform: translate(184.70001220703125px, 133.49999618530273px) scale(1, 1) translate(-184.70001220703125px, -133.49999618530273px);}}@keyframes kf_el_42QEMfSSONj_an_zg97lzlMR{0%{-webkit-transform: translate(184.70001220703125px, 133.49999618530273px) scale(0.5, 0.5) translate(-184.70001220703125px, -133.49999618530273px);transform: translate(184.70001220703125px, 133.49999618530273px) scale(0.5, 0.5) translate(-184.70001220703125px, -133.49999618530273px);}50%{-webkit-transform: translate(184.70001220703125px, 133.49999618530273px) scale(0.5, 0.5) translate(-184.70001220703125px, -133.49999618530273px);transform: translate(184.70001220703125px, 133.49999618530273px) scale(0.5, 0.5) translate(-184.70001220703125px, -133.49999618530273px);}62.50%{-webkit-transform: translate(184.70001220703125px, 133.49999618530273px) scale(1, 1) translate(-184.70001220703125px, -133.49999618530273px);transform: translate(184.70001220703125px, 133.49999618530273px) scale(1, 1) translate(-184.70001220703125px, -133.49999618530273px);}100%{-webkit-transform: translate(184.70001220703125px, 133.49999618530273px) scale(1, 1) translate(-184.70001220703125px, -133.49999618530273px);transform: translate(184.70001220703125px, 133.49999618530273px) scale(1, 1) translate(-184.70001220703125px, -133.49999618530273px);}}@-webkit-keyframes kf_el_42QEMfSSONj_an_LGeE7fQrR{0%{-webkit-transform: translate(184.70001220703125px, 133.49999618530273px) translate(-184.70001220703125px, -133.49999618530273px) translate(0px, 50px);transform: translate(184.70001220703125px, 133.49999618530273px) translate(-184.70001220703125px, -133.49999618530273px) translate(0px, 50px);}50%{-webkit-transform: translate(184.70001220703125px, 133.49999618530273px) translate(-184.70001220703125px, -133.49999618530273px) translate(0px, 50px);transform: translate(184.70001220703125px, 133.49999618530273px) translate(-184.70001220703125px, -133.49999618530273px) translate(0px, 50px);}62.50%{-webkit-transform: translate(184.70001220703125px, 133.49999618530273px) translate(-184.70001220703125px, -133.49999618530273px) translate(0px, 0px);transform: translate(184.70001220703125px, 133.49999618530273px) translate(-184.70001220703125px, -133.49999618530273px) translate(0px, 0px);}100%{-webkit-transform: translate(184.70001220703125px, 133.49999618530273px) translate(-184.70001220703125px, -133.49999618530273px) translate(0px, 0px);transform: translate(184.70001220703125px, 133.49999618530273px) translate(-184.70001220703125px, -133.49999618530273px) translate(0px, 0px);}}@keyframes kf_el_42QEMfSSONj_an_LGeE7fQrR{0%{-webkit-transform: translate(184.70001220703125px, 133.49999618530273px) translate(-184.70001220703125px, -133.49999618530273px) translate(0px, 50px);transform: translate(184.70001220703125px, 133.49999618530273px) translate(-184.70001220703125px, -133.49999618530273px) translate(0px, 50px);}50%{-webkit-transform: translate(184.70001220703125px, 133.49999618530273px) translate(-184.70001220703125px, -133.49999618530273px) translate(0px, 50px);transform: translate(184.70001220703125px, 133.49999618530273px) translate(-184.70001220703125px, -133.49999618530273px) translate(0px, 50px);}62.50%{-webkit-transform: translate(184.70001220703125px, 133.49999618530273px) translate(-184.70001220703125px, -133.49999618530273px) translate(0px, 0px);transform: translate(184.70001220703125px, 133.49999618530273px) translate(-184.70001220703125px, -133.49999618530273px) translate(0px, 0px);}100%{-webkit-transform: translate(184.70001220703125px, 133.49999618530273px) translate(-184.70001220703125px, -133.49999618530273px) translate(0px, 0px);transform: translate(184.70001220703125px, 133.49999618530273px) translate(-184.70001220703125px, -133.49999618530273px) translate(0px, 0px);}}@-webkit-keyframes kf_el_Zvcx79rEuEO_an_K7TTbww8K{0%{opacity: 0;}37.50%{opacity: 0;}50%{opacity: 1;}62.50%{opacity: 0;}100%{opacity: 0;}}@keyframes kf_el_Zvcx79rEuEO_an_K7TTbww8K{0%{opacity: 0;}37.50%{opacity: 0;}50%{opacity: 1;}62.50%{opacity: 0;}100%{opacity: 0;}}@-webkit-keyframes kf_el_Zvcx79rEuEO_an_n0DqKXMYR{0%{-webkit-transform: translate(156.70001220703125px, 103.19999694824219px) scale(0.5, 0.5) translate(-156.70001220703125px, -103.19999694824219px);transform: translate(156.70001220703125px, 103.19999694824219px) scale(0.5, 0.5) translate(-156.70001220703125px, -103.19999694824219px);}37.50%{-webkit-transform: translate(156.70001220703125px, 103.19999694824219px) scale(0.5, 0.5) translate(-156.70001220703125px, -103.19999694824219px);transform: translate(156.70001220703125px, 103.19999694824219px) scale(0.5, 0.5) translate(-156.70001220703125px, -103.19999694824219px);}50%{-webkit-transform: translate(156.70001220703125px, 103.19999694824219px) scale(1, 1) translate(-156.70001220703125px, -103.19999694824219px);transform: translate(156.70001220703125px, 103.19999694824219px) scale(1, 1) translate(-156.70001220703125px, -103.19999694824219px);}100%{-webkit-transform: translate(156.70001220703125px, 103.19999694824219px) scale(1, 1) translate(-156.70001220703125px, -103.19999694824219px);transform: translate(156.70001220703125px, 103.19999694824219px) scale(1, 1) translate(-156.70001220703125px, -103.19999694824219px);}}@keyframes kf_el_Zvcx79rEuEO_an_n0DqKXMYR{0%{-webkit-transform: translate(156.70001220703125px, 103.19999694824219px) scale(0.5, 0.5) translate(-156.70001220703125px, -103.19999694824219px);transform: translate(156.70001220703125px, 103.19999694824219px) scale(0.5, 0.5) translate(-156.70001220703125px, -103.19999694824219px);}37.50%{-webkit-transform: translate(156.70001220703125px, 103.19999694824219px) scale(0.5, 0.5) translate(-156.70001220703125px, -103.19999694824219px);transform: translate(156.70001220703125px, 103.19999694824219px) scale(0.5, 0.5) translate(-156.70001220703125px, -103.19999694824219px);}50%{-webkit-transform: translate(156.70001220703125px, 103.19999694824219px) scale(1, 1) translate(-156.70001220703125px, -103.19999694824219px);transform: translate(156.70001220703125px, 103.19999694824219px) scale(1, 1) translate(-156.70001220703125px, -103.19999694824219px);}100%{-webkit-transform: translate(156.70001220703125px, 103.19999694824219px) scale(1, 1) translate(-156.70001220703125px, -103.19999694824219px);transform: translate(156.70001220703125px, 103.19999694824219px) scale(1, 1) translate(-156.70001220703125px, -103.19999694824219px);}}@-webkit-keyframes kf_el_Zvcx79rEuEO_an_7Mm8ehvGL{0%{-webkit-transform: translate(156.70001220703125px, 103.19999694824219px) translate(-156.70001220703125px, -103.19999694824219px) translate(0px, 50px);transform: translate(156.70001220703125px, 103.19999694824219px) translate(-156.70001220703125px, -103.19999694824219px) translate(0px, 50px);}37.50%{-webkit-transform: translate(156.70001220703125px, 103.19999694824219px) translate(-156.70001220703125px, -103.19999694824219px) translate(0px, 50px);transform: translate(156.70001220703125px, 103.19999694824219px) translate(-156.70001220703125px, -103.19999694824219px) translate(0px, 50px);}50%{-webkit-transform: translate(156.70001220703125px, 103.19999694824219px) translate(-156.70001220703125px, -103.19999694824219px) translate(0px, 0px);transform: translate(156.70001220703125px, 103.19999694824219px) translate(-156.70001220703125px, -103.19999694824219px) translate(0px, 0px);}100%{-webkit-transform: translate(156.70001220703125px, 103.19999694824219px) translate(-156.70001220703125px, -103.19999694824219px) translate(0px, 0px);transform: translate(156.70001220703125px, 103.19999694824219px) translate(-156.70001220703125px, -103.19999694824219px) translate(0px, 0px);}}@keyframes kf_el_Zvcx79rEuEO_an_7Mm8ehvGL{0%{-webkit-transform: translate(156.70001220703125px, 103.19999694824219px) translate(-156.70001220703125px, -103.19999694824219px) translate(0px, 50px);transform: translate(156.70001220703125px, 103.19999694824219px) translate(-156.70001220703125px, -103.19999694824219px) translate(0px, 50px);}37.50%{-webkit-transform: translate(156.70001220703125px, 103.19999694824219px) translate(-156.70001220703125px, -103.19999694824219px) translate(0px, 50px);transform: translate(156.70001220703125px, 103.19999694824219px) translate(-156.70001220703125px, -103.19999694824219px) translate(0px, 50px);}50%{-webkit-transform: translate(156.70001220703125px, 103.19999694824219px) translate(-156.70001220703125px, -103.19999694824219px) translate(0px, 0px);transform: translate(156.70001220703125px, 103.19999694824219px) translate(-156.70001220703125px, -103.19999694824219px) translate(0px, 0px);}100%{-webkit-transform: translate(156.70001220703125px, 103.19999694824219px) translate(-156.70001220703125px, -103.19999694824219px) translate(0px, 0px);transform: translate(156.70001220703125px, 103.19999694824219px) translate(-156.70001220703125px, -103.19999694824219px) translate(0px, 0px);}}@-webkit-keyframes kf_el_D5oTS6pilDT_an_ilUnYxKWiy{0%{opacity: 0;}25%{opacity: 0;}37.50%{opacity: 1;}50%{opacity: 0;}100%{opacity: 0;}}@keyframes kf_el_D5oTS6pilDT_an_ilUnYxKWiy{0%{opacity: 0;}25%{opacity: 0;}37.50%{opacity: 1;}50%{opacity: 0;}100%{opacity: 0;}}@-webkit-keyframes kf_el_D5oTS6pilDT_an_9rXHboohJ{0%{-webkit-transform: translate(207px, 161.3000030517578px) scale(0.5, 0.5) translate(-207px, -161.3000030517578px);transform: translate(207px, 161.3000030517578px) scale(0.5, 0.5) translate(-207px, -161.3000030517578px);}25%{-webkit-transform: translate(207px, 161.3000030517578px) scale(0.5, 0.5) translate(-207px, -161.3000030517578px);transform: translate(207px, 161.3000030517578px) scale(0.5, 0.5) translate(-207px, -161.3000030517578px);}37.50%{-webkit-transform: translate(207px, 161.3000030517578px) scale(1, 1) translate(-207px, -161.3000030517578px);transform: translate(207px, 161.3000030517578px) scale(1, 1) translate(-207px, -161.3000030517578px);}100%{-webkit-transform: translate(207px, 161.3000030517578px) scale(1, 1) translate(-207px, -161.3000030517578px);transform: translate(207px, 161.3000030517578px) scale(1, 1) translate(-207px, -161.3000030517578px);}}@keyframes kf_el_D5oTS6pilDT_an_9rXHboohJ{0%{-webkit-transform: translate(207px, 161.3000030517578px) scale(0.5, 0.5) translate(-207px, -161.3000030517578px);transform: translate(207px, 161.3000030517578px) scale(0.5, 0.5) translate(-207px, -161.3000030517578px);}25%{-webkit-transform: translate(207px, 161.3000030517578px) scale(0.5, 0.5) translate(-207px, -161.3000030517578px);transform: translate(207px, 161.3000030517578px) scale(0.5, 0.5) translate(-207px, -161.3000030517578px);}37.50%{-webkit-transform: translate(207px, 161.3000030517578px) scale(1, 1) translate(-207px, -161.3000030517578px);transform: translate(207px, 161.3000030517578px) scale(1, 1) translate(-207px, -161.3000030517578px);}100%{-webkit-transform: translate(207px, 161.3000030517578px) scale(1, 1) translate(-207px, -161.3000030517578px);transform: translate(207px, 161.3000030517578px) scale(1, 1) translate(-207px, -161.3000030517578px);}}@-webkit-keyframes kf_el_D5oTS6pilDT_an_havFeHOXF{0%{-webkit-transform: translate(207px, 161.3000030517578px) translate(-207px, -161.3000030517578px) translate(0px, 50px);transform: translate(207px, 161.3000030517578px) translate(-207px, -161.3000030517578px) translate(0px, 50px);}25%{-webkit-transform: translate(207px, 161.3000030517578px) translate(-207px, -161.3000030517578px) translate(0px, 50px);transform: translate(207px, 161.3000030517578px) translate(-207px, -161.3000030517578px) translate(0px, 50px);}37.50%{-webkit-transform: translate(207px, 161.3000030517578px) translate(-207px, -161.3000030517578px) translate(0px, 0px);transform: translate(207px, 161.3000030517578px) translate(-207px, -161.3000030517578px) translate(0px, 0px);}100%{-webkit-transform: translate(207px, 161.3000030517578px) translate(-207px, -161.3000030517578px) translate(0px, 0px);transform: translate(207px, 161.3000030517578px) translate(-207px, -161.3000030517578px) translate(0px, 0px);}}@keyframes kf_el_D5oTS6pilDT_an_havFeHOXF{0%{-webkit-transform: translate(207px, 161.3000030517578px) translate(-207px, -161.3000030517578px) translate(0px, 50px);transform: translate(207px, 161.3000030517578px) translate(-207px, -161.3000030517578px) translate(0px, 50px);}25%{-webkit-transform: translate(207px, 161.3000030517578px) translate(-207px, -161.3000030517578px) translate(0px, 50px);transform: translate(207px, 161.3000030517578px) translate(-207px, -161.3000030517578px) translate(0px, 50px);}37.50%{-webkit-transform: translate(207px, 161.3000030517578px) translate(-207px, -161.3000030517578px) translate(0px, 0px);transform: translate(207px, 161.3000030517578px) translate(-207px, -161.3000030517578px) translate(0px, 0px);}100%{-webkit-transform: translate(207px, 161.3000030517578px) translate(-207px, -161.3000030517578px) translate(0px, 0px);transform: translate(207px, 161.3000030517578px) translate(-207px, -161.3000030517578px) translate(0px, 0px);}}@-webkit-keyframes kf_el_TT_SCBMQ2Y-_an_v6a2s2ICtF{0%{opacity: 0;}12.50%{opacity: 0;}25%{opacity: 1;}37.50%{opacity: 0;}100%{opacity: 0;}}@keyframes kf_el_TT_SCBMQ2Y-_an_v6a2s2ICtF{0%{opacity: 0;}12.50%{opacity: 0;}25%{opacity: 1;}37.50%{opacity: 0;}100%{opacity: 0;}}@-webkit-keyframes kf_el_TT_SCBMQ2Y-_an_UPn3jkXCa{0%{-webkit-transform: translate(134.10000228881836px, 141px) scale(0.5, 0.5) translate(-134.10000228881836px, -141px);transform: translate(134.10000228881836px, 141px) scale(0.5, 0.5) translate(-134.10000228881836px, -141px);}12.50%{-webkit-transform: translate(134.10000228881836px, 141px) scale(0.5, 0.5) translate(-134.10000228881836px, -141px);transform: translate(134.10000228881836px, 141px) scale(0.5, 0.5) translate(-134.10000228881836px, -141px);}25%{-webkit-transform: translate(134.10000228881836px, 141px) scale(1, 1) translate(-134.10000228881836px, -141px);transform: translate(134.10000228881836px, 141px) scale(1, 1) translate(-134.10000228881836px, -141px);}100%{-webkit-transform: translate(134.10000228881836px, 141px) scale(1, 1) translate(-134.10000228881836px, -141px);transform: translate(134.10000228881836px, 141px) scale(1, 1) translate(-134.10000228881836px, -141px);}}@keyframes kf_el_TT_SCBMQ2Y-_an_UPn3jkXCa{0%{-webkit-transform: translate(134.10000228881836px, 141px) scale(0.5, 0.5) translate(-134.10000228881836px, -141px);transform: translate(134.10000228881836px, 141px) scale(0.5, 0.5) translate(-134.10000228881836px, -141px);}12.50%{-webkit-transform: translate(134.10000228881836px, 141px) scale(0.5, 0.5) translate(-134.10000228881836px, -141px);transform: translate(134.10000228881836px, 141px) scale(0.5, 0.5) translate(-134.10000228881836px, -141px);}25%{-webkit-transform: translate(134.10000228881836px, 141px) scale(1, 1) translate(-134.10000228881836px, -141px);transform: translate(134.10000228881836px, 141px) scale(1, 1) translate(-134.10000228881836px, -141px);}100%{-webkit-transform: translate(134.10000228881836px, 141px) scale(1, 1) translate(-134.10000228881836px, -141px);transform: translate(134.10000228881836px, 141px) scale(1, 1) translate(-134.10000228881836px, -141px);}}@-webkit-keyframes kf_el_TT_SCBMQ2Y-_an_IPnuxASOL{0%{-webkit-transform: translate(134.10000228881836px, 141px) translate(-134.10000228881836px, -141px) translate(0px, 50px);transform: translate(134.10000228881836px, 141px) translate(-134.10000228881836px, -141px) translate(0px, 50px);}12.50%{-webkit-transform: translate(134.10000228881836px, 141px) translate(-134.10000228881836px, -141px) translate(0px, 50px);transform: translate(134.10000228881836px, 141px) translate(-134.10000228881836px, -141px) translate(0px, 50px);}25%{-webkit-transform: translate(134.10000228881836px, 141px) translate(-134.10000228881836px, -141px) translate(0px, 0px);transform: translate(134.10000228881836px, 141px) translate(-134.10000228881836px, -141px) translate(0px, 0px);}100%{-webkit-transform: translate(134.10000228881836px, 141px) translate(-134.10000228881836px, -141px) translate(0px, 0px);transform: translate(134.10000228881836px, 141px) translate(-134.10000228881836px, -141px) translate(0px, 0px);}}@keyframes kf_el_TT_SCBMQ2Y-_an_IPnuxASOL{0%{-webkit-transform: translate(134.10000228881836px, 141px) translate(-134.10000228881836px, -141px) translate(0px, 50px);transform: translate(134.10000228881836px, 141px) translate(-134.10000228881836px, -141px) translate(0px, 50px);}12.50%{-webkit-transform: translate(134.10000228881836px, 141px) translate(-134.10000228881836px, -141px) translate(0px, 50px);transform: translate(134.10000228881836px, 141px) translate(-134.10000228881836px, -141px) translate(0px, 50px);}25%{-webkit-transform: translate(134.10000228881836px, 141px) translate(-134.10000228881836px, -141px) translate(0px, 0px);transform: translate(134.10000228881836px, 141px) translate(-134.10000228881836px, -141px) translate(0px, 0px);}100%{-webkit-transform: translate(134.10000228881836px, 141px) translate(-134.10000228881836px, -141px) translate(0px, 0px);transform: translate(134.10000228881836px, 141px) translate(-134.10000228881836px, -141px) translate(0px, 0px);}}@-webkit-keyframes kf_el_mfuKLpAyCL2_an_26UTUxzi3{0%{opacity: 0;}12.50%{opacity: 1;}25%{opacity: 0;}100%{opacity: 0;}}@keyframes kf_el_mfuKLpAyCL2_an_26UTUxzi3{0%{opacity: 0;}12.50%{opacity: 1;}25%{opacity: 0;}100%{opacity: 0;}}@-webkit-keyframes kf_el_mfuKLpAyCL2_an_xf34T8m3K{0%{-webkit-transform: translate(165.3000030517578px, 172px) scale(0.5, 0.5) translate(-165.3000030517578px, -172px);transform: translate(165.3000030517578px, 172px) scale(0.5, 0.5) translate(-165.3000030517578px, -172px);}12.50%{-webkit-transform: translate(165.3000030517578px, 172px) scale(1, 1) translate(-165.3000030517578px, -172px);transform: translate(165.3000030517578px, 172px) scale(1, 1) translate(-165.3000030517578px, -172px);}100%{-webkit-transform: translate(165.3000030517578px, 172px) scale(1, 1) translate(-165.3000030517578px, -172px);transform: translate(165.3000030517578px, 172px) scale(1, 1) translate(-165.3000030517578px, -172px);}}@keyframes kf_el_mfuKLpAyCL2_an_xf34T8m3K{0%{-webkit-transform: translate(165.3000030517578px, 172px) scale(0.5, 0.5) translate(-165.3000030517578px, -172px);transform: translate(165.3000030517578px, 172px) scale(0.5, 0.5) translate(-165.3000030517578px, -172px);}12.50%{-webkit-transform: translate(165.3000030517578px, 172px) scale(1, 1) translate(-165.3000030517578px, -172px);transform: translate(165.3000030517578px, 172px) scale(1, 1) translate(-165.3000030517578px, -172px);}100%{-webkit-transform: translate(165.3000030517578px, 172px) scale(1, 1) translate(-165.3000030517578px, -172px);transform: translate(165.3000030517578px, 172px) scale(1, 1) translate(-165.3000030517578px, -172px);}}@-webkit-keyframes kf_el_mfuKLpAyCL2_an_VPSHCjLvi{0%{-webkit-transform: translate(165.3000030517578px, 172px) translate(-165.3000030517578px, -172px) translate(0px, 50px);transform: translate(165.3000030517578px, 172px) translate(-165.3000030517578px, -172px) translate(0px, 50px);}12.50%{-webkit-transform: translate(165.3000030517578px, 172px) translate(-165.3000030517578px, -172px) translate(0px, 0px);transform: translate(165.3000030517578px, 172px) translate(-165.3000030517578px, -172px) translate(0px, 0px);}100%{-webkit-transform: translate(165.3000030517578px, 172px) translate(-165.3000030517578px, -172px) translate(0px, 0px);transform: translate(165.3000030517578px, 172px) translate(-165.3000030517578px, -172px) translate(0px, 0px);}}@keyframes kf_el_mfuKLpAyCL2_an_VPSHCjLvi{0%{-webkit-transform: translate(165.3000030517578px, 172px) translate(-165.3000030517578px, -172px) translate(0px, 50px);transform: translate(165.3000030517578px, 172px) translate(-165.3000030517578px, -172px) translate(0px, 50px);}12.50%{-webkit-transform: translate(165.3000030517578px, 172px) translate(-165.3000030517578px, -172px) translate(0px, 0px);transform: translate(165.3000030517578px, 172px) translate(-165.3000030517578px, -172px) translate(0px, 0px);}100%{-webkit-transform: translate(165.3000030517578px, 172px) translate(-165.3000030517578px, -172px) translate(0px, 0px);transform: translate(165.3000030517578px, 172px) translate(-165.3000030517578px, -172px) translate(0px, 0px);}}#el_TiJd-HTmH *{-webkit-animation-duration: 4s;animation-duration: 4s;-webkit-animation-iteration-count: infinite;animation-iteration-count: infinite;-webkit-animation-timing-function: cubic-bezier(0, 0, 1, 1);animation-timing-function: cubic-bezier(0, 0, 1, 1);}#el_6h8g7QYfSt{fill: #DDECF1;}#el_pCGh9cXSBo{fill: #DDECF1;}#el_6-PFMjk7WV{fill: #D3903E;}#el_5Y9XDLCN0G{fill: #D3903E;}#el_fd2qEoNbmh{fill: #D3903E;}#el_1vHVPRVXhl{fill: #D3903E;}#el_LhIegrYB-p{fill: #FED389;}#el_mgbYnAbOrB{fill: #E3B979;}#el_U_smU4BeI3{fill: #CC3350;}#el_6TqbMTS3AV{fill: #E2AC86;}#el_c7t-GwvtXS{fill: #CC3350;}#el_jmMPika89J{fill: #E2AC86;}#el_Ermxg1YjHu{fill: #3F2F16;}#el_AgSni0dtCjX{fill: #C89B2C;}#el_HRYBUfQ78hl{fill: #424366;}#el__Rk7oxKxBBl{fill: #181C3C;}#el_n9-b1ifZHtN{fill: #C89B2C;}#el_cfjESLLvLdo{fill: #58598E;}#el_XWfPJXvRQ-C{fill: #181C3C;}#el_J3yAfz_CBqp{fill: #EF3953;}#el_ltwyz76xXED{fill: #F7C86D;}#el_mYZPHIVqabr{fill: #F7C86D;}#el_vrmiPfLm0fQ{fill: #EF3953;}#el_vU1KSrwvAfS{fill: #CC3350;}#el_jRUBcIUBj5B{fill: #E2AC86;}#el_uHCBtH90O8F{fill: #EF3953;}#el_yMxowyIbZwB{fill: #D3903E;}#el_56CfvXPVxpj{fill: #D3903E;}#el_1P9k-wy-1DU{fill: #D3903E;}#el_FVJgFM61Si5{fill: #D3903E;}#el_ZXQsYCYlGwP{fill: #D3903E;}#el_IEhxqUU0F4U{fill: #EEF0F2;}#el_hnxwisn0eka{fill: #9F9F9F;}#el_UStu5INi3kd{fill: #EAE8E8;}#el_u5LCBqcPoTk{fill: #FFFFFF;}#el_mfuKLpAyCL2{fill: #0F998E;-webkit-animation-fill-mode: backwards;animation-fill-mode: backwards;opacity: 0;-webkit-animation-name: kf_el_mfuKLpAyCL2_an_26UTUxzi3;animation-name: kf_el_mfuKLpAyCL2_an_26UTUxzi3;-webkit-animation-timing-function: cubic-bezier(0, 0, 1, 1);animation-timing-function: cubic-bezier(0, 0, 1, 1);}#el_TT_SCBMQ2Y-{fill: #0F998E;-webkit-animation-fill-mode: backwards;animation-fill-mode: backwards;-webkit-animation-name: kf_el_TT_SCBMQ2Y-_an_v6a2s2ICtF;animation-name: kf_el_TT_SCBMQ2Y-_an_v6a2s2ICtF;-webkit-animation-timing-function: cubic-bezier(0, 0, 1, 1);animation-timing-function: cubic-bezier(0, 0, 1, 1);opacity: 0;}#el_D5oTS6pilDT{fill: #0F998E;-webkit-animation-fill-mode: backwards;animation-fill-mode: backwards;opacity: 0;-webkit-animation-name: kf_el_D5oTS6pilDT_an_ilUnYxKWiy;animation-name: kf_el_D5oTS6pilDT_an_ilUnYxKWiy;-webkit-animation-timing-function: cubic-bezier(0, 0, 1, 1);animation-timing-function: cubic-bezier(0, 0, 1, 1);}#el_Zvcx79rEuEO{fill: #0F998E;-webkit-animation-fill-mode: backwards;animation-fill-mode: backwards;-webkit-animation-name: kf_el_Zvcx79rEuEO_an_K7TTbww8K;animation-name: kf_el_Zvcx79rEuEO_an_K7TTbww8K;-webkit-animation-timing-function: cubic-bezier(0, 0, 1, 1);animation-timing-function: cubic-bezier(0, 0, 1, 1);opacity: 0;}#el_42QEMfSSONj{fill: #0F998E;-webkit-animation-fill-mode: backwards;animation-fill-mode: backwards;opacity: 0;-webkit-animation-name: kf_el_42QEMfSSONj_an_4JkzQhHpH7;animation-name: kf_el_42QEMfSSONj_an_4JkzQhHpH7;-webkit-animation-timing-function: cubic-bezier(0, 0, 1, 1);animation-timing-function: cubic-bezier(0, 0, 1, 1);}#el_3ViIsQ_ZkTX{fill: #0F998E;-webkit-animation-fill-mode: backwards;animation-fill-mode: backwards;-webkit-animation-name: kf_el_3ViIsQ_ZkTX_an_BLZkzSMQd;animation-name: kf_el_3ViIsQ_ZkTX_an_BLZkzSMQd;-webkit-animation-timing-function: cubic-bezier(0, 0, 1, 1);animation-timing-function: cubic-bezier(0, 0, 1, 1);opacity: 0;}#el_mfuKLpAyCL2_an_VPSHCjLvi{-webkit-animation-fill-mode: backwards;animation-fill-mode: backwards;-webkit-transform: translate(165.3000030517578px, 172px) translate(-165.3000030517578px, -172px) translate(0px, 50px);transform: translate(165.3000030517578px, 172px) translate(-165.3000030517578px, -172px) translate(0px, 50px);-webkit-animation-name: kf_el_mfuKLpAyCL2_an_VPSHCjLvi;animation-name: kf_el_mfuKLpAyCL2_an_VPSHCjLvi;-webkit-animation-timing-function: cubic-bezier(0, 0, 1, 1);animation-timing-function: cubic-bezier(0, 0, 1, 1);}#el_mfuKLpAyCL2_an_xf34T8m3K{-webkit-animation-fill-mode: backwards;animation-fill-mode: backwards;-webkit-transform: translate(165.3000030517578px, 172px) scale(0.5, 0.5) translate(-165.3000030517578px, -172px);transform: translate(165.3000030517578px, 172px) scale(0.5, 0.5) translate(-165.3000030517578px, -172px);-webkit-animation-name: kf_el_mfuKLpAyCL2_an_xf34T8m3K;animation-name: kf_el_mfuKLpAyCL2_an_xf34T8m3K;-webkit-animation-timing-function: cubic-bezier(0, 0, 1, 1);animation-timing-function: cubic-bezier(0, 0, 1, 1);}#el_TT_SCBMQ2Y-_an_IPnuxASOL{-webkit-animation-fill-mode: backwards;animation-fill-mode: backwards;-webkit-animation-name: kf_el_TT_SCBMQ2Y-_an_IPnuxASOL;animation-name: kf_el_TT_SCBMQ2Y-_an_IPnuxASOL;-webkit-animation-timing-function: cubic-bezier(0, 0, 1, 1);animation-timing-function: cubic-bezier(0, 0, 1, 1);-webkit-transform: translate(134.10000228881836px, 141px) translate(-134.10000228881836px, -141px) translate(0px, 50px);transform: translate(134.10000228881836px, 141px) translate(-134.10000228881836px, -141px) translate(0px, 50px);}#el_TT_SCBMQ2Y-_an_UPn3jkXCa{-webkit-animation-fill-mode: backwards;animation-fill-mode: backwards;-webkit-animation-name: kf_el_TT_SCBMQ2Y-_an_UPn3jkXCa;animation-name: kf_el_TT_SCBMQ2Y-_an_UPn3jkXCa;-webkit-animation-timing-function: cubic-bezier(0, 0, 1, 1);animation-timing-function: cubic-bezier(0, 0, 1, 1);-webkit-transform: translate(134.10000228881836px, 141px) scale(0.5, 0.5) translate(-134.10000228881836px, -141px);transform: translate(134.10000228881836px, 141px) scale(0.5, 0.5) translate(-134.10000228881836px, -141px);}#el_D5oTS6pilDT_an_havFeHOXF{-webkit-animation-fill-mode: backwards;animation-fill-mode: backwards;-webkit-transform: translate(207px, 161.3000030517578px) translate(-207px, -161.3000030517578px) translate(0px, 50px);transform: translate(207px, 161.3000030517578px) translate(-207px, -161.3000030517578px) translate(0px, 50px);-webkit-animation-name: kf_el_D5oTS6pilDT_an_havFeHOXF;animation-name: kf_el_D5oTS6pilDT_an_havFeHOXF;-webkit-animation-timing-function: cubic-bezier(0, 0, 1, 1);animation-timing-function: cubic-bezier(0, 0, 1, 1);}#el_D5oTS6pilDT_an_9rXHboohJ{-webkit-animation-fill-mode: backwards;animation-fill-mode: backwards;-webkit-transform: translate(207px, 161.3000030517578px) scale(0.5, 0.5) translate(-207px, -161.3000030517578px);transform: translate(207px, 161.3000030517578px) scale(0.5, 0.5) translate(-207px, -161.3000030517578px);-webkit-animation-name: kf_el_D5oTS6pilDT_an_9rXHboohJ;animation-name: kf_el_D5oTS6pilDT_an_9rXHboohJ;-webkit-animation-timing-function: cubic-bezier(0, 0, 1, 1);animation-timing-function: cubic-bezier(0, 0, 1, 1);}#el_Zvcx79rEuEO_an_7Mm8ehvGL{-webkit-animation-fill-mode: backwards;animation-fill-mode: backwards;-webkit-animation-name: kf_el_Zvcx79rEuEO_an_7Mm8ehvGL;animation-name: kf_el_Zvcx79rEuEO_an_7Mm8ehvGL;-webkit-animation-timing-function: cubic-bezier(0, 0, 1, 1);animation-timing-function: cubic-bezier(0, 0, 1, 1);-webkit-transform: translate(156.70001220703125px, 103.19999694824219px) translate(-156.70001220703125px, -103.19999694824219px) translate(0px, 50px);transform: translate(156.70001220703125px, 103.19999694824219px) translate(-156.70001220703125px, -103.19999694824219px) translate(0px, 50px);}#el_Zvcx79rEuEO_an_n0DqKXMYR{-webkit-animation-fill-mode: backwards;animation-fill-mode: backwards;-webkit-animation-name: kf_el_Zvcx79rEuEO_an_n0DqKXMYR;animation-name: kf_el_Zvcx79rEuEO_an_n0DqKXMYR;-webkit-animation-timing-function: cubic-bezier(0, 0, 1, 1);animation-timing-function: cubic-bezier(0, 0, 1, 1);-webkit-transform: translate(156.70001220703125px, 103.19999694824219px) scale(0.5, 0.5) translate(-156.70001220703125px, -103.19999694824219px);transform: translate(156.70001220703125px, 103.19999694824219px) scale(0.5, 0.5) translate(-156.70001220703125px, -103.19999694824219px);}#el_42QEMfSSONj_an_LGeE7fQrR{-webkit-animation-fill-mode: backwards;animation-fill-mode: backwards;-webkit-transform: translate(184.70001220703125px, 133.49999618530273px) translate(-184.70001220703125px, -133.49999618530273px) translate(0px, 50px);transform: translate(184.70001220703125px, 133.49999618530273px) translate(-184.70001220703125px, -133.49999618530273px) translate(0px, 50px);-webkit-animation-name: kf_el_42QEMfSSONj_an_LGeE7fQrR;animation-name: kf_el_42QEMfSSONj_an_LGeE7fQrR;-webkit-animation-timing-function: cubic-bezier(0, 0, 1, 1);animation-timing-function: cubic-bezier(0, 0, 1, 1);}#el_42QEMfSSONj_an_zg97lzlMR{-webkit-animation-fill-mode: backwards;animation-fill-mode: backwards;-webkit-transform: translate(184.70001220703125px, 133.49999618530273px) scale(0.5, 0.5) translate(-184.70001220703125px, -133.49999618530273px);transform: translate(184.70001220703125px, 133.49999618530273px) scale(0.5, 0.5) translate(-184.70001220703125px, -133.49999618530273px);-webkit-animation-name: kf_el_42QEMfSSONj_an_zg97lzlMR;animation-name: kf_el_42QEMfSSONj_an_zg97lzlMR;-webkit-animation-timing-function: cubic-bezier(0, 0, 1, 1);animation-timing-function: cubic-bezier(0, 0, 1, 1);}#el_3ViIsQ_ZkTX_an_NeIkHnOtq{-webkit-animation-fill-mode: backwards;animation-fill-mode: backwards;-webkit-animation-name: kf_el_3ViIsQ_ZkTX_an_NeIkHnOtq;animation-name: kf_el_3ViIsQ_ZkTX_an_NeIkHnOtq;-webkit-animation-timing-function: cubic-bezier(0, 0, 1, 1);animation-timing-function: cubic-bezier(0, 0, 1, 1);-webkit-transform: translate(215.10000610351562px, 104.5999984741211px) translate(-215.10000610351562px, -104.5999984741211px) translate(0px, 50px);transform: translate(215.10000610351562px, 104.5999984741211px) translate(-215.10000610351562px, -104.5999984741211px) translate(0px, 50px);}#el_3ViIsQ_ZkTX_an_nbSFhqb71k{-webkit-animation-fill-mode: backwards;animation-fill-mode: backwards;-webkit-animation-name: kf_el_3ViIsQ_ZkTX_an_nbSFhqb71k;animation-name: kf_el_3ViIsQ_ZkTX_an_nbSFhqb71k;-webkit-animation-timing-function: cubic-bezier(0, 0, 1, 1);animation-timing-function: cubic-bezier(0, 0, 1, 1);-webkit-transform: translate(215.10000610351562px, 104.5999984741211px) scale(0.5, 0.5) translate(-215.10000610351562px, -104.5999984741211px);transform: translate(215.10000610351562px, 104.5999984741211px) scale(0.5, 0.5) translate(-215.10000610351562px, -104.5999984741211px);}</style>

<ellipse cx="172.3" cy="349.8" rx="113.2" ry="12.4" id="el_6h8g7QYfSt"/>
<ellipse cx="284.9" cy="333.2" rx="46" ry="7.6" id="el_pCGh9cXSBo"/>
<g id="el_0-gVp-0b5f">
	<g id="el_O0qsU9uUgK">
		<path d="M315.8,336.3l-8.7-65.3c-0.1-0.8-2.8-1-3.6-0.9c-0.8,0.1-3.2,1.2-3.1,2l12.5,64.7c0.1,0.8,0.9,1.4,1.7,1.2&#xA;&#9;&#9;&#9;C315.4,337.9,315.9,337.1,315.8,336.3z" id="el_6-PFMjk7WV"/>
		<path d="M295.2,255.6c-0.1-0.8-2.8-1-3.6-0.9c-0.8,0.1-3.2,1.2-3.1,2l12.5,64.7c0.1,0.8,0.9,1.4,1.7,1.2&#xA;&#9;&#9;&#9;c0.8-0.1,1.4-0.9,1.2-1.7L295.2,255.6z" id="el_5Y9XDLCN0G"/>
		<path d="M272.6,272.4c-0.8-0.1-3.4,0.4-3.5,1.2l-3.5,65.8c-0.1,0.8,0.5,1.5,1.4,1.6c0.8,0.1,1.5-0.5,1.6-1.4l7.3-65.5&#xA;&#9;&#9;&#9;C276,273.3,273.4,272.4,272.6,272.4z" id="el_fd2qEoNbmh"/>
		<path d="M254.4,261.4c-0.8-0.1-3.4,0.4-3.5,1.2l-3.5,58.5c-0.1,0.8,0.5,1.5,1.4,1.6c0.8,0.1,1.5-0.5,1.6-1.4l7.3-58.2&#xA;&#9;&#9;&#9;C257.8,262.3,255.3,261.4,254.4,261.4z" id="el_1vHVPRVXhl"/>
	</g>
	<path d="M256.9,259.9c0,0,39.5,0.5,41.9-16.3c2.4-16.8-2.6-44.2,4.6-47.5c7.2-3.3,24.7,0.8,31.1,6.3&#xA;&#9;&#9;c3,2.6-8.8,61.4-28,67.1c-19.2,5.8-49.3,17.3-55.4,9.6c-2.3-2.9-4-6.8-4.6-9.2C245.2,264,249.3,260.2,256.9,259.9z" id="el_LhIegrYB-p"/>
	<path d="M257.3,281.2c0,3.3,31.1-1.7,48.4-9.2c17.2-7.4,34.9-69.8,27.6-69.8c-3.2,0-8,55.9-29.5,66.3&#xA;&#9;&#9;C281.7,279.3,257.3,279.9,257.3,281.2z" id="el_mgbYnAbOrB"/>
</g>
<polygon points="263.7,165.8 260.8,169.9 279.5,162.9 278.1,159.1 " id="el_U_smU4BeI3"/>
<path d="M282.5,167.6c-10.6-7.7-13.7,40.2-37.7,46.1c-12.3,3-32.4,3.7-32.4,3.7v0c-2.7-0.4-5.3-0.9-6.5-1.3&#xA;&#9;c-2.7-0.8-6.9-2.7-7.8-2.2c-1.8,1,4.8,4.3,4.8,4.3s-15.2,1.7-14.8,4.1c0.6,3.5,11,1.6,19.8,1.3c11.9-0.4,23.4,3.8,47.9-0.9&#xA;&#9;C270.2,219.9,292.2,174.6,282.5,167.6z" id="el_6TqbMTS3AV"/>
<path d="M259.2,223.6L245,208.9c0,0,1.4-2,10.5-13c5.7-6.8,17.8-29.7,26.5-22.9c9.5,7.3-4.3,24.9-9.1,32.9&#xA;&#9;C267.3,215.2,259.2,223.6,259.2,223.6z" id="el_c7t-GwvtXS"/>
<path d="M275,143.7c2.4-4.2,6.2-7.1,5.9-12.3c-0.2-3.7-2-7.7-4.9-10.1c-3.1-2.6-6.8-3.7-10.6-3.1&#xA;&#9;c-12.9,2.2-15.6,23.2-13.2,33.6c2.6,10.9,9,3.5,14.4,1.3c-0.4,0.1-0.6,12.4,0,17.3c4.8-0.8,10.3-1.9,15.2-2.6&#xA;&#9;c-2-4.4-5.9-12.3-7.3-24.1" id="el_jmMPika89J"/>
<path d="M293.6,122.7c-2.3-3.6-5.1-4.1-6.3-4.1c-0.3-1.2-1.9-7.6-4.4-9.7c0,0,0,1.5-0.1,3.2c-1.7-1.2-4.1-2.2-7.5-2.6&#xA;&#9;c-6.2-0.7-12.3,1.8-16.1,6.5c-0.1,0.2-0.2,0.3-0.4,0.5v0c0,0-4.8,4.4-7.4,4c0,0,3.1,4.2,7.4,4.1c0.4,0,0.8,0,1.2,0&#xA;&#9;c2.8-0.1,7.2-0.7,9,1.5c0.4,0.5,0.7,1.2,0.7,2c0.2,1.9-0.2,4.2-0.7,6.1c-2,2.4-6.1,7.2-9.9,9c-5.1,2.5-8.4,2.3-8.2,4.2&#xA;&#9;c0.2,2.6,6.1-0.2,6.7,0.3c0.7,0.6,2.2,4.6-0.3,6c-1.5,0.9-5.3,0.5-6,1.9c-1.8,3.2,2.3,7.7,4.5,6.7c1.2-0.6,8.5-4,10.5-6&#xA;&#9;c2-2,0.7-9,0.6-13.3c0-4.3,5.1-8.1,5.1-8.1l0-0.1c1.6-0.9,3.3-1,4.6,1c3.2,5-5.2,8.1-5.2,8.1l6.8,14.9c0,0-2.2-8.1,8.9-13&#xA;&#9;c0.1-0.1,0.3-0.1,0.4-0.2C295.2,142.1,297.8,129.3,293.6,122.7z M286.8,118.6c-0.1,0-0.2,0-0.2,0s0,0,0-0.1&#xA;&#9;C286.7,118.6,286.8,118.6,286.8,118.6z" id="el_Ermxg1YjHu"/>
<polygon points="216.3,321.8 222.7,340.8 228.9,339 225.8,317.8 " id="el_AgSni0dtCjX"/>
<path d="M259.4,241.3l26.9,17.9c0,0-61.2,19.9-64.5,28.2c4.3,13.8,13.7,45,13.7,45l-17.8,0c0,0-15.7-28.5-20.2-53.4&#xA;&#9;C200.1,258.9,259.4,241.3,259.4,241.3z" id="el_HRYBUfQ78hl"/>
<path d="M229.2,338.4c-1.2-0.2-1.7,0.6-5.5-0.1c-3.2-0.5-2.2-3.1-3.7-3.1c-1.3,0-5.6,4.1-21.2,7.7&#xA;&#9;c-4.4,1-3.9,4.2,0.3,5.1l20.8-0.6l-0.5,0v1.6h9.1l0.7-2.6C230.2,344,230.2,338.2,229.2,338.4z" id="el__Rk7oxKxBBl"/>
<polygon points="238.9,323.3 245.2,342.3 251.5,340.5 248.3,319.3 " id="el_n9-b1ifZHtN"/>
<path d="M286.2,233.4c0,0,15,15,12.3,25.5c-4.5,17-51,21.8-54.3,30.1c4.3,13.8,8.2,43.5,8.2,43.5l-20.6,1&#xA;&#9;c0,0-7.5-28-12-52.9C223.1,261.7,286.2,233.4,286.2,233.4z" id="el_cfjESLLvLdo"/>
<path d="M251.7,339.9c-1.2-0.2-1.7,0.6-5.5-0.1c-3.2-0.5-2.2-3.1-3.7-3.1c-1.3,0-5.6,4.1-21.2,7.7&#xA;&#9;c-4.4,1-3.9,4.2,0.3,5.1l20.8-0.6l-0.5,0v1.6h9.1l0.7-2.6C252.7,345.5,252.7,339.8,251.7,339.9z" id="el_XWfPJXvRQ-C"/>
<path d="M281.7,162.4c3.8,6,9.2,23.3,12.4,40.1c5,25.9,0.7,44.2-0.1,48.2c-1.1,5.1-13.9,1.1-26.1,1.1&#xA;&#9;c-8.8,0-17.2,1.3-17.4-4.1c-0.4-12,2.8-30.2,8.4-53.1c6.4-26.2,5.4-25,9.2-28.6C271.2,162.9,280.5,160.5,281.7,162.4z" id="el_J3yAfz_CBqp"/>
<g id="el_Q-bF8ybdIp_">
	<polygon points="264.4,168 262.5,175.3 266.2,176 270.2,167.6 &#9;" id="el_ltwyz76xXED"/>
	<polygon points="262.6,174.5 252.1,228.5 257.1,238.4 262.1,228.5 266.3,175.2 &#9;" id="el_mYZPHIVqabr"/>
</g>
<polygon points="265.1,165.8 266.5,169.9 281.8,162.5 281.3,158.9 " id="el_vrmiPfLm0fQ"/>
<path d="M277,170.3c-5,9.8,3.9,44,3.9,44l-8-0.9C273,213.4,268.1,176.3,277,170.3z" id="el_vU1KSrwvAfS"/>
<path d="M294.3,210.6c-0.2-14.5-0.8-40.9-11.1-41.7c-11-0.8-0.7,28.4-0.1,37.2c1,14.2-29.8,16.4-29.8,16.4l0,0&#xA;&#9;c-0.9,0.1-1.6,0.1-1.6,0.1c-2.8-1.5-8.4-5.8-9.1-4.5c-0.6,1.1,2.1,3.6,4.1,5.4c-4.9,3.7-16.6,14.9-10.1,14.2&#xA;&#9;c3.9-0.4,9.1-5.7,18.8-7.6C255.6,230.2,294.5,231.1,294.3,210.6z" id="el_jRUBcIUBj5B"/>
<path d="M297.1,212.8l-21.8,0.8c0,0,1.2,0-0.1-14.2c-0.8-8.8-5.6-29.5,5.3-30.9c11.9-1.5,12.4,16.7,14,25.7&#xA;&#9;C296.5,204.7,297.1,212.8,297.1,212.8z" id="el_uHCBtH90O8F"/>
<g id="el_U1yQMSQd3FF">
	<g id="el_W2GLNOWxJvG">
		<path d="M271.4,253.6c-0.2-1.2-3.2-1.8-4.1-1.6c-0.9,0.1-3.6,1.6-3.4,2.8l18.3,98.8c0.2,1.2,1.1,2.1,2,2&#xA;&#9;&#9;&#9;c0.9-0.1,1.5-1.3,1.3-2.5L271.4,253.6z" id="el_yMxowyIbZwB"/>
		<path d="M213,253.6c-0.2-1.2-3.2-1.8-4.1-1.6c-0.9,0.1-3.6,1.6-3.4,2.8l18.3,98.8c0.2,1.2,1.1,2.1,2,2&#xA;&#9;&#9;&#9;c0.9-0.1,1.5-1.3,1.3-2.5L213,253.6z" id="el_56CfvXPVxpj"/>
		<path d="M74.3,249.5c-0.9-0.2-3.9,0.1-4.1,1.3l-15,100.4c-0.2,1.2,0.3,2.4,1.2,2.6c0.9,0.2,1.8-0.6,2-1.8l19.2-99.3&#xA;&#9;&#9;&#9;C77.8,251.5,75.2,249.8,74.3,249.5z" id="el_1P9k-wy-1DU"/>
		<path d="M129.5,249.5c-0.9-0.2-3.9,0.1-4.1,1.3l-15,100.4c-0.2,1.2,0.3,2.4,1.2,2.6c0.9,0.2,1.8-0.6,2-1.8l19.2-99.3&#xA;&#9;&#9;&#9;C133,251.5,130.4,249.8,129.5,249.5z" id="el_FVJgFM61Si5"/>
		<path d="M302.9,237.6H46.7c-1.8,0-3.2,1.9-3.2,4.1c0,2.3,1.4,4.1,3.2,4.1h256.2c1.8,0,3.2-1.9,3.2-4.1&#xA;&#9;&#9;&#9;C306.1,239.4,304.7,237.6,302.9,237.6z" id="el_ZXQsYCYlGwP"/>
	</g>
	<rect x="56.2" y="245.7" width="229.9" height="11.7" id="el_IEhxqUU0F4U"/>
</g>
<g id="el_p1TtjJwn7pe">
	<path d="M185.7,233c0,4.1-2.7,4.6-6,4.6h-49.3c-3.3,0-4.4-0.9-6-4.6L114,196.8c0-4.1,13.1-7.4,16.4-7.4h38.9&#xA;&#9;&#9;c3.3,0,4.6,3.4,6,7.4L185.7,233z" id="el_hnxwisn0eka"/>
	<path d="M206.4,233.8h-23.6c0-0.3,0-0.5,0-0.8l-10.4-36.2c-1.1-4.3-2.7-7.4-6-7.4h-49.3c-3.3,0-6,3.3-6,7.4l10.4,36.2&#xA;&#9;&#9;c0.1,0.4,0.3,0.8,0.4,1.1c-0.2,0.2-0.4,0.4-0.4,0.7v1.9c0,0.6,0.7,1,1.5,1h83.2c0.9,0,1.5-0.5,1.5-1v-1.9&#xA;&#9;&#9;C207.9,234.3,207.2,233.8,206.4,233.8z" id="el_UStu5INi3kd"/>
	<polygon points="142.3,215.1 139.8,210.8 142.3,206.4 147.3,206.4 149.8,210.8 147.3,215.1 &#9;" id="el_u5LCBqcPoTk"/>
</g>
<g id="el_mfuKLpAyCL2_an_VPSHCjLvi" data-animator-group="true" data-animator-type="0"><g id="el_mfuKLpAyCL2_an_xf34T8m3K" data-animator-group="true" data-animator-type="2"><path d="M175.2,172c0,5.5-4.4,9.9-9.9,9.9c-5.5,0-9.9-4.4-9.9-9.9c0-5.5,4.4-9.9,9.9-9.9&#xA;&#9;C170.8,162.1,175.2,166.5,175.2,172z M162.2,170.5h-1.5c-0.2,0-0.3,0.1-0.3,0.3v5.1c0,0.2,0.1,0.3,0.3,0.3h1.5&#xA;&#9;c0.2,0,0.3-0.1,0.3-0.3v-5.1C162.5,170.6,162.3,170.5,162.2,170.5z M169.8,170.8c-0.2-0.4-0.6-0.6-1-0.6h-2.4v-1.5&#xA;&#9;c0-0.8-0.6-1.6-1.4-1.8c-0.3-0.1-0.6,0.1-0.7,0.5c0,0,0,0.1,0,0.1v2l-1.2,1.4v5.3h5.1c0.7,0,1.2-0.5,1.3-1.2l0.4-3.6v0&#xA;&#9;C170,171.2,169.9,171,169.8,170.8z" id="el_mfuKLpAyCL2"/></g></g>
<g id="el_TT_SCBMQ2Y-_an_IPnuxASOL" data-animator-group="true" data-animator-type="0"><g id="el_TT_SCBMQ2Y-_an_UPn3jkXCa" data-animator-group="true" data-animator-type="2"><path d="M144,141c0,5.5-4.4,9.9-9.9,9.9c-5.5,0-9.9-4.4-9.9-9.9c0-5.5,4.4-9.9,9.9-9.9C139.6,131.1,144,135.5,144,141z&#xA;&#9; M131,139.5h-1.5c-0.2,0-0.3,0.1-0.3,0.3v5.1c0,0.2,0.1,0.3,0.3,0.3h1.5c0.2,0,0.3-0.1,0.3-0.3v-5.1&#xA;&#9;C131.3,139.6,131.2,139.5,131,139.5z M138.6,139.8c-0.2-0.4-0.6-0.6-1-0.6h-2.4v-1.5c0-0.8-0.6-1.6-1.4-1.8&#xA;&#9;c-0.3-0.1-0.6,0.1-0.7,0.5c0,0,0,0.1,0,0.1v2l-1.2,1.4v5.3h5.1c0.7,0,1.2-0.5,1.3-1.2l0.4-3.6v0C138.8,140.2,138.8,140,138.6,139.8z&#xA;&#9;" id="el_TT_SCBMQ2Y-"/></g></g>
<g id="el_D5oTS6pilDT_an_havFeHOXF" data-animator-group="true" data-animator-type="0"><g id="el_D5oTS6pilDT_an_9rXHboohJ" data-animator-group="true" data-animator-type="2"><path d="M216.9,161.3c0,5.5-4.4,9.9-9.9,9.9c-5.5,0-9.9-4.4-9.9-9.9c0-5.5,4.4-9.9,9.9-9.9&#xA;&#9;C212.5,151.4,216.9,155.8,216.9,161.3z M203.8,159.8h-1.5c-0.2,0-0.3,0.1-0.3,0.3v5.1c0,0.2,0.1,0.3,0.3,0.3h1.5&#xA;&#9;c0.2,0,0.3-0.1,0.3-0.3v-5.1C204.1,159.9,204,159.8,203.8,159.8z M211.5,160.1c-0.2-0.4-0.6-0.6-1-0.6H208V158&#xA;&#9;c0-0.8-0.6-1.6-1.4-1.8c-0.3-0.1-0.6,0.1-0.7,0.5c0,0,0,0.1,0,0.1v2l-1.2,1.4v5.3h5.1c0.7,0,1.2-0.5,1.3-1.2l0.4-3.6v0&#xA;&#9;C211.7,160.5,211.6,160.3,211.5,160.1z" id="el_D5oTS6pilDT"/></g></g>
<g id="el_Zvcx79rEuEO_an_7Mm8ehvGL" data-animator-group="true" data-animator-type="0"><g id="el_Zvcx79rEuEO_an_n0DqKXMYR" data-animator-group="true" data-animator-type="2"><path d="M166.6,103.2c0,5.5-4.4,9.9-9.9,9.9s-9.9-4.4-9.9-9.9c0-5.5,4.4-9.9,9.9-9.9S166.6,97.7,166.6,103.2z&#xA;&#9; M153.6,101.7h-1.5c-0.2,0-0.3,0.1-0.3,0.3v5.1c0,0.2,0.1,0.3,0.3,0.3h1.5c0.2,0,0.3-0.1,0.3-0.3V102&#xA;&#9;C153.9,101.8,153.7,101.7,153.6,101.7z M161.2,102c-0.2-0.4-0.6-0.6-1-0.6h-2.4v-1.5c0-0.8-0.6-1.6-1.4-1.8&#xA;&#9;c-0.3-0.1-0.6,0.1-0.7,0.5c0,0,0,0.1,0,0.1v2l-1.2,1.4v5.3h5.1c0.7,0,1.2-0.5,1.3-1.2l0.4-3.6v0C161.4,102.4,161.3,102.2,161.2,102z&#xA;&#9;" id="el_Zvcx79rEuEO"/></g></g>
<g id="el_42QEMfSSONj_an_LGeE7fQrR" data-animator-group="true" data-animator-type="0"><g id="el_42QEMfSSONj_an_zg97lzlMR" data-animator-group="true" data-animator-type="2"><path d="M194.6,133.5c0,5.5-4.4,9.9-9.9,9.9s-9.9-4.4-9.9-9.9c0-5.5,4.4-9.9,9.9-9.9S194.6,128.1,194.6,133.5z&#xA;&#9; M181.6,132.1h-1.5c-0.2,0-0.3,0.1-0.3,0.3v5.1c0,0.2,0.1,0.3,0.3,0.3h1.5c0.2,0,0.3-0.1,0.3-0.3v-5.1&#xA;&#9;C181.9,132.2,181.8,132.1,181.6,132.1z M189.2,132.3c-0.2-0.4-0.6-0.6-1-0.6h-2.4v-1.5c0-0.8-0.6-1.6-1.4-1.8&#xA;&#9;c-0.3-0.1-0.6,0.1-0.7,0.5c0,0,0,0.1,0,0.1v2l-1.2,1.4v5.3h5.1c0.7,0,1.2-0.5,1.3-1.2l0.4-3.6v0&#xA;&#9;C189.4,132.8,189.3,132.5,189.2,132.3z" id="el_42QEMfSSONj"/></g></g>
<g id="el_3ViIsQ_ZkTX_an_NeIkHnOtq" data-animator-group="true" data-animator-type="0"><g id="el_3ViIsQ_ZkTX_an_nbSFhqb71k" data-animator-group="true" data-animator-type="2"><path d="M225,104.6c0,5.5-4.4,9.9-9.9,9.9c-5.5,0-9.9-4.4-9.9-9.9c0-5.5,4.4-9.9,9.9-9.9&#xA;&#9;C220.5,94.7,225,99.2,225,104.6z M211.9,103.1h-1.5c-0.2,0-0.3,0.1-0.3,0.3v5.1c0,0.2,0.1,0.3,0.3,0.3h1.5c0.2,0,0.3-0.1,0.3-0.3&#xA;&#9;v-5.1C212.2,103.3,212.1,103.1,211.9,103.1z M219.6,103.4c-0.2-0.4-0.6-0.6-1-0.6h-2.4v-1.5c0-0.8-0.6-1.6-1.4-1.8&#xA;&#9;c-0.3-0.1-0.6,0.1-0.7,0.5c0,0,0,0.1,0,0.1v2l-1.2,1.4v5.3h5.1c0.7,0,1.2-0.5,1.3-1.2l0.4-3.6v0&#xA;&#9;C219.8,103.9,219.7,103.6,219.6,103.4z" id="el_3ViIsQ_ZkTX"/></g></g>
</svg>