<?xml version="1.0" encoding="utf-8"?>
<!-- Generator: Adobe Illustrator 23.0.2, SVG Export Plug-In . SVG Version: 6.00 Build 0)  -->
<svg version="1.1" id="Layer_1" xmlns="http://www.w3.org/2000/svg" xmlns:xlink="http://www.w3.org/1999/xlink" x="0px" y="0px"
	 viewBox="0 0 948 866.9" style="enable-background:new 0 0 948 866.9;" xml:space="preserve">
<style type="text/css">
	.st0{fill:none;}
	.st1{fill:#E6E7E8;}
	.st2{opacity:0.33;fill:#E6E7E8;enable-background:new    ;}
</style>
<path class="st0" d="M186.1,1c138.6,0,179.5,179.1,120.3,296.5S213,570.2,402.8,607.7s313.4,22,313.4,223.3
	c0,105,77.7,137.7,233,98.1V1C348.1,1,93.7,1,186.1,1z"/>
<path id="Shape" class="st1" d="M608-2c-61.4,61.8-99.4,147-99.4,241c0,188.8,153.1,341.9,341.9,341.9c40.6,0,79.5-7.1,115.6-20
	v258.8c-37.4,7.4-76,11.3-115.6,11.3c-326.9,0-591.9-265-591.9-591.9c0-85.8,18.3-167.4,51.1-241L608-2z"/>
<ellipse id="Oval_2_" transform="matrix(0.7071 -0.7071 0.7071 0.7071 23.7643 520.7158)" class="st2" cx="640.4" cy="231.7" rx="102.9" ry="102.9"/>
</svg>
