<?xml version="1.0" encoding="utf-8"?>
<!-- Generator: Adobe Illustrator 23.0.2, SVG Export Plug-In . SVG Version: 6.00 Build 0)  -->
<svg version="1.1" id="Layer_1" xmlns="http://www.w3.org/2000/svg" xmlns:xlink="http://www.w3.org/1999/xlink" x="0px" y="0px"
	 viewBox="0 0 948 948" style="enable-background:new 0 0 948 948;" xml:space="preserve">
<style type="text/css">
	.st0{opacity:0.18;fill:#E6E7E8;enable-background:new    ;}
	.st1{fill:none;}
	.st2{fill:#E6E7E8;}
</style>
<path class="st0" d="M918.5,891.2c-42.9,7.3-86.5,9.6-129.8,5.2c-43.3-4.4-87.1-22-114.3-56.5c-23.4-29.7-32.5-69-56.4-98.2
	c-40.2-49.2-113.7-60.3-152.9-110.4c-32.2-41.1-33.5-99.5-20.8-150.4c12.7-50.9,37.5-97.8,53.3-147.8c15.8-50,22-106.8-2-153.3
	c-23.7-46-71.6-72.8-116.9-97C319.1,51,259.5,19.2,200-12.7l717.7,3.9L918.5,891.2z"/>
<path class="st1" d="M186.1,1c138.6,0,179.5,179.1,120.3,296.5S213,570.2,402.8,607.7s313.4,22,313.4,223.3
	c0,105,77.7,137.7,233,98.1V1C348.1,1,93.7,1,186.1,1z"/>
<path class="st2" d="M953.5,896.6c-42.9,7.3-86.5,9.6-129.8,5.2s-87.1-22-114.3-56.5c-23.4-29.7-32.5-69-56.4-98.2
	c-40.2-49.2-113.7-60.3-152.9-110.4c-32.2-41.1-33.5-99.5-20.8-150.4c12.7-50.9,37.5-97.8,53.3-147.8c15.8-50,22-106.8-2-153.3
	c-23.7-46-71.6-72.8-116.9-97C354.2,56.4,294.6,24.6,235-7.3l717.7,3.9L953.5,896.6z"/>
</svg>
