<?xml version="1.0" encoding="utf-8"?>
<!-- Generator: Adobe Illustrator 23.0.2, SVG Export Plug-In . SVG Version: 6.00 Build 0)  -->
<svg version="1.1" id="Layer_1" xmlns="http://www.w3.org/2000/svg" xmlns:xlink="http://www.w3.org/1999/xlink" x="0px" y="0px"
	 viewBox="0 0 948 866.9" style="enable-background:new 0 0 948 866.9;" xml:space="preserve">
<style type="text/css">
	.st0{fill:none;}
	.st1{opacity:0.18;fill:#E6E7E8;enable-background:new    ;}
	.st2{fill:#E6E7E8;}
</style>
<path class="st0" d="M186.1,1c138.6,0,179.5,179.1,120.3,296.5S213,570.2,402.8,607.7s313.4,22,313.4,223.3
	c0,105,77.7,137.7,233,98.1V1C348.1,1,93.7,1,186.1,1z"/>
<path id="Rectangle-Copy_2_" class="st1" d="M186.5-12H982v851.1l-374.6,14.2c-90.6,3.4-172.2-54.5-198.8-141.2L186.5-12z"/>
<path class="st2" d="M199.9-12.4l795.5,0.8l-0.8,735.8L652,813.6C548.2,840.7,441.5,781,410.2,678.3L199.9-12.4z"/>
</svg>
