<svg version="1.1" id="el_OEgRhz3zn" xmlns="http://www.w3.org/2000/svg" xmlns:xlink="http://www.w3.org/1999/xlink" x="0px" y="0px" viewBox="0 0 500 454" style="enable-background:new 0 0 500 454;" xml:space="preserve"><style>@-webkit-keyframes kf_el_jEkqbtcWdC_an_usda3YVC_{0%{opacity: 0;}25%{opacity: 0.3;}50%{opacity: 0;}100%{opacity: 0;}}@keyframes kf_el_jEkqbtcWdC_an_usda3YVC_{0%{opacity: 0;}25%{opacity: 0.3;}50%{opacity: 0;}100%{opacity: 0;}}@-webkit-keyframes kf_el_X2y9sanaV9_an_48MIPQLTX{0%{opacity: 0.2;}25%{opacity: 0.8;}50%{opacity: 0.2;}100%{opacity: 0.2;}}@keyframes kf_el_X2y9sanaV9_an_48MIPQLTX{0%{opacity: 0.2;}25%{opacity: 0.8;}50%{opacity: 0.2;}100%{opacity: 0.2;}}@-webkit-keyframes kf_el_gB2cG29V81_an__kA8vkKCl{0%{-webkit-transform: translate(307.29997634887695px, 48.5px) scale(1, 1) translate(-307.29997634887695px, -48.5px);transform: translate(307.29997634887695px, 48.5px) scale(1, 1) translate(-307.29997634887695px, -48.5px);}25%{-webkit-transform: translate(307.29997634887695px, 48.5px) scale(0.8, 0.8) translate(-307.29997634887695px, -48.5px);transform: translate(307.29997634887695px, 48.5px) scale(0.8, 0.8) translate(-307.29997634887695px, -48.5px);}50%{-webkit-transform: translate(307.29997634887695px, 48.5px) scale(1, 1) translate(-307.29997634887695px, -48.5px);transform: translate(307.29997634887695px, 48.5px) scale(1, 1) translate(-307.29997634887695px, -48.5px);}100%{-webkit-transform: translate(307.29997634887695px, 48.5px) scale(1, 1) translate(-307.29997634887695px, -48.5px);transform: translate(307.29997634887695px, 48.5px) scale(1, 1) translate(-307.29997634887695px, -48.5px);}}@keyframes kf_el_gB2cG29V81_an__kA8vkKCl{0%{-webkit-transform: translate(307.29997634887695px, 48.5px) scale(1, 1) translate(-307.29997634887695px, -48.5px);transform: translate(307.29997634887695px, 48.5px) scale(1, 1) translate(-307.29997634887695px, -48.5px);}25%{-webkit-transform: translate(307.29997634887695px, 48.5px) scale(0.8, 0.8) translate(-307.29997634887695px, -48.5px);transform: translate(307.29997634887695px, 48.5px) scale(0.8, 0.8) translate(-307.29997634887695px, -48.5px);}50%{-webkit-transform: translate(307.29997634887695px, 48.5px) scale(1, 1) translate(-307.29997634887695px, -48.5px);transform: translate(307.29997634887695px, 48.5px) scale(1, 1) translate(-307.29997634887695px, -48.5px);}100%{-webkit-transform: translate(307.29997634887695px, 48.5px) scale(1, 1) translate(-307.29997634887695px, -48.5px);transform: translate(307.29997634887695px, 48.5px) scale(1, 1) translate(-307.29997634887695px, -48.5px);}}#el_OEgRhz3zn *{-webkit-animation-duration: 6s;animation-duration: 6s;-webkit-animation-iteration-count: infinite;animation-iteration-count: infinite;-webkit-animation-timing-function: cubic-bezier(0, 0, 1, 1);animation-timing-function: cubic-bezier(0, 0, 1, 1);}#el_wqQPSEoJ2o{opacity: 0.3;fill: url(#SVGID_1_);enable-background: new;}#el_MHaqtLFrc7{opacity: 0.5;fill: url(#SVGID_2_);enable-background: new;}#el_gB2cG29V81{opacity: 0.3;fill: url(#SVGID_3_);enable-background: new;}#el_X2y9sanaV9{opacity: 0.2;fill: url(#SVGID_4_);enable-background: new;-webkit-animation-fill-mode: backwards;animation-fill-mode: backwards;-webkit-animation-name: kf_el_X2y9sanaV9_an_48MIPQLTX;animation-name: kf_el_X2y9sanaV9_an_48MIPQLTX;-webkit-animation-timing-function: cubic-bezier(0, 0, 1, 1);animation-timing-function: cubic-bezier(0, 0, 1, 1);}#el_jEkqbtcWdC{opacity: 0;fill: url(#SVGID_5_);enable-background: new;-webkit-animation-fill-mode: backwards;animation-fill-mode: backwards;-webkit-animation-name: kf_el_jEkqbtcWdC_an_usda3YVC_;animation-name: kf_el_jEkqbtcWdC_an_usda3YVC_;-webkit-animation-timing-function: cubic-bezier(0, 0, 1, 1);animation-timing-function: cubic-bezier(0, 0, 1, 1);}#el_RdPdGMjGmh{-webkit-transform: translate(285.332px, 176.357px);transform: translate(285.332px, 176.357px);}#el_e4q9bE5IiL{fill: url(#SVGID_6_);}#el_EeY2LvgHOb{-webkit-transform: translate(7.7px, 15.4px);transform: translate(7.7px, 15.4px);}#el_DATMVSgasv{fill: #FFFFFF;}#el_AMXtdSu6aI{fill: #9574FE;}#el_k-USykQUiP{fill: #E488DF;}#el_tYSaTgEXeQ{fill: #FBCCEE;}#el_H8pJ7OVcQh{opacity: 0.3;fill: #48B4BF;enable-background: new;}#el_QVlXGc7Uul{opacity: 0.1;fill: #373A5B;enable-background: new;}#el_k4JcEobZzI1{-webkit-transform: translate(493.22px, 116.634px);transform: translate(493.22px, 116.634px);}#el_hTWNUnOt-cx{fill: url(#SVGID_7_);}#el_GZfenuzGVz3{fill: #FFFFFF;}#el_cUnaFkipHqU{-webkit-transform: translate(256.725px, 375.098px);transform: translate(256.725px, 375.098px);}#el_Q7n3cNdyCaK{fill: url(#SVGID_8_);}#el_dHDX5ukLph0{opacity: 0.3;fill: #373A5B;enable-background: new;}#el_fcEXII58Vz4{fill: #FFFFFF;}#el_lwNjN8Z7UGJ{-webkit-transform: translate(460.132px, 230.109px);transform: translate(460.132px, 230.109px);}#el_Nrqo5KLDLuQ{fill: url(#SVGID_9_);}#el_fiFl-EhkoYI{fill: #D2EEE9;}#el_HVxeQyGFuvJ{opacity: 0.1;fill: #373A5B;enable-background: new;}#el_jUFHaPOrssR{-webkit-transform: translate(16px, 11px);transform: translate(16px, 11px);}#el_NrbHghqryzg{fill: #FFFFFF;}#el_-UHF066rADZ{fill: #F9B9BD;}#el_I3MwXXw1fBg{fill: #F3747B;}#el_RlxL2Xsr7g0{-webkit-transform: translate(359.22px, 338px);transform: translate(359.22px, 338px);}#el_018R-N3vsgM{fill: #FFFFFF;}#el_Z_phQxYYIxH{fill: #9771FE;}#el_l-ZTknrglDk{fill: #EAE3FF;}#el_sqDPHzeuLUQ{opacity: 0.1;fill: #FF769A;enable-background: new;}#el_CEhv3krAStY{fill: #FFB3C6;}#el_Ow5vBAm1mWR{fill: #FF769A;}#el_o3vyEZCGqjN{-webkit-transform: translate(418.22px, 454.94px);transform: translate(418.22px, 454.94px);}#el_h0IjdLpyA6k{fill: url(#SVGID_10_);}#el_spxZMmzv0Nj{-webkit-transform: translate(9.5px, 8.005px);transform: translate(9.5px, 8.005px);}#el_qVPCPJ5wN_N{fill: #FFFFFF;}#el_JeUEqkyWEdF{fill: #FFFFFF;}#el_ZxFBtXi8E4k{-webkit-transform: translate(190.725px, 132.634px);transform: translate(190.725px, 132.634px);visibility: hidden;}#el_X_c2jpsWn08{fill: url(#SVGID_11_);}#el_A6hAWbJC97K{-webkit-transform: translate(49.621px, 17.837px);transform: translate(49.621px, 17.837px);}#el_uE897J_CnPr{fill: #FFFFFF;}#el_wk_E6pmNjp9{opacity: 0.3;fill: url(#SVGID_12_);enable-background: new;}#el_jN58nEe1mRe{fill: #F3747B;}#el_DR7nMBpHTBh{opacity: 0.3;fill: #F3747B;enable-background: new;}#el_G6dsonJET6o{fill: #FFFFFF;}#el_JkUDEaFQBU-{opacity: 0.1;fill: #472A68;enable-background: new;}#el_HW0ZqhpGBjD{fill: #FFFFFF;}#el_TzdkhEaBZCM{fill: #DCB7F3;}#el_KrbHzXexBlB{-webkit-transform: translate(105.851px, 241.325px);transform: translate(105.851px, 241.325px);}#el_dQB1ayIHkEB{fill: url(#SVGID_13_);}#el_YVonyOejLB6{opacity: 0.3;-webkit-mask: url(#hero-phone-ui-x_1_);mask: url(#hero-phone-ui-x_1_);fill: #151731;enable-background: new;}#el_1M45OhpZqYL{opacity: 0.3;-webkit-mask: url(#hero-phone-ui-x_2_);mask: url(#hero-phone-ui-x_2_);fill: #151731;enable-background: new;}#el_VtC4v_T0MRI{-webkit-transform: translate(8.8px, 48.4px);transform: translate(8.8px, 48.4px);}#el_ErsTafIL4Lz{fill: url(#SVGID_14_);}#el_Xop0fpPWqSn{opacity: 0.3;-webkit-mask: url(#hero-phone-ui-A_1_);mask: url(#hero-phone-ui-A_1_);fill: #373A5B;enable-background: new;}#el_bJ1EQKkEj1G{opacity: 0.3;-webkit-mask: url(#hero-phone-ui-A_2_);mask: url(#hero-phone-ui-A_2_);}#el_Cq5_4l6da0Y{-webkit-transform: translate(-7.7px, 12.1px);transform: translate(-7.7px, 12.1px);}#el_zgcUDe0Na-p{fill: #FFFFFF;}#el_DCuBaqOTbOj{fill: #FFFFFF;}#el_twVdZaVZ-zn{fill: #FFFFFF;}#el_IeJGIRx_kJ1{fill: #FFFFFF;}#el_PQhsO5PzEEI{fill: #FFFFFF;}#el_NJ8dPHmC6oI{fill: #FFFFFF;}#el_E-Hygmk_PJK{fill: #FFFFFF;}#el_2OI3ECGJvH7{fill: #FFFFFF;}#el_uR5zOTYrWw4{fill: #FFFFFF;}#el_q_BH3cJerRV{fill: #FFFFFF;}#el_MzOh6g-6jxB{fill: #FFFFFF;}#el_SoiGbr5NNg5{fill: #FFFFFF;}#el_ewhuUco1tYw{fill: #FFFFFF;}#el_h9NIpzbFjDT{fill: #FFFFFF;}#el_CqVivx2hdU8{fill: #FFFFFF;}#el_sVtZ1kdZn1U{fill: #FFFFFF;}#el_ZZ66UR4OLs_{fill: #FFFFFF;}#el_rOgWJ_11wet{fill: #FFFFFF;}#el_kdrVBJPyWQ1{fill: #FFFFFF;}#el_iOA1VBNoED4{fill: #FFFFFF;}#el_dreLiEVURky{fill: #FFFFFF;}#el_4-UoURLaXvk{fill: #FFFFFF;}#el__-0kwhlS2X2{fill: #FFFFFF;}#el_ppGcDIjCLeH{fill: #FFFFFF;}#el_UEl_eFC7qhQ{fill: #FFFFFF;}#el_tgTBprK1-zD{fill: #FFFFFF;}#el_Np6_4uqTdvc{fill: #FFFFFF;}#el_SU4EbyJ8sVL{fill: #FFFFFF;}#el_uRsqDVqEPWf{fill: #FFFFFF;}#el_tlboF1hIHIo{fill: #FFFFFF;}#el_8wbNAB-4MUN{fill: #FFFFFF;}#el_mz5D8ZPOkDF{fill: #FFFFFF;}#el_ysGWemmFCkD{fill: #FFFFFF;}#el_osCbw-eel_X{fill: #FFFFFF;}#el_OdbDO4Tn-pP{fill: #FFFFFF;}#el_i4kac5atLr0{fill: #FFFFFF;}#el_XqfIXsCfzew{fill: #FFFFFF;}#el_CdbT8lkK4wH{fill: #FFFFFF;}#el_YFqDOFbrlHg{fill: #FFFFFF;}#el_9zI9bp8J5j1{fill: #FFFFFF;}#el_Gz-aZrE2vdU{fill: #FFFFFF;}#el_7Z_PMR0fCH9{fill: #FFFFFF;}#el_H5nuy8entGd{fill: #FFFFFF;}#el_LxLuQcjDa8m{fill: #FFFFFF;}#el_TWJFnSiYOrh{fill: #FFFFFF;}#el_nTFgChAXvYD{fill: #FFFFFF;}#el_Ew-CUohbPUo{fill: #FFFFFF;}#el_yzci2H8_Cw7{fill: #FFFFFF;}#el_jDYvOI7QZLz{opacity: 0.3;-webkit-mask: url(#hero-phone-ui-A_3_);mask: url(#hero-phone-ui-A_3_);fill: #FFFFFF;enable-background: new;}#el_kcaBF5B-n37{opacity: 0.3;-webkit-mask: url(#hero-phone-ui-A_4_);mask: url(#hero-phone-ui-A_4_);fill: #373A5B;enable-background: new;}#el_NUXUavPBtX9{fill: #FFD5D7;}#el_f1lTlKwO6ZY{fill: url(#SVGID_15_);}#el_UYfu4YSLOVJ{-webkit-transform: translate(50.6px, 22px);transform: translate(50.6px, 22px);}#el_hs7pLe5XonZ{fill: url(#SVGID_16_);}#el_ruSMRjgGZCO{fill: url(#SVGID_17_);}#el_gB2cG29V81_an__kA8vkKCl{-webkit-animation-fill-mode: backwards;animation-fill-mode: backwards;-webkit-transform: translate(307.29997634887695px, 48.5px) scale(1, 1) translate(-307.29997634887695px, -48.5px);transform: translate(307.29997634887695px, 48.5px) scale(1, 1) translate(-307.29997634887695px, -48.5px);-webkit-animation-name: kf_el_gB2cG29V81_an__kA8vkKCl;animation-name: kf_el_gB2cG29V81_an__kA8vkKCl;-webkit-animation-timing-function: cubic-bezier(0, 0, 1, 1);animation-timing-function: cubic-bezier(0, 0, 1, 1);}</style>

<g id="el_EfLVnf1pdp">
	
		<linearGradient id="SVGID_1_" gradientUnits="userSpaceOnUse" x1="-248.344" y1="726.235" x2="-247.9793" y2="726.9858" gradientTransform="matrix(481 0 0 -481 119677.8281 349703.9688)">
		<stop offset="0" style="stop-color:#39ABC5"/>
		<stop offset="1" style="stop-color:#A8EB9D"/>
	</linearGradient>
	<circle cx="303.9" cy="221.1" r="179.4" id="el_wqQPSEoJ2o"/>
	
		<linearGradient id="SVGID_2_" gradientUnits="userSpaceOnUse" x1="-247.524" y1="723.8174" x2="-246.7927" y2="724.7641" gradientTransform="matrix(70 0 0 -70 17762.7773 50990.5)">
		<stop offset="0" style="stop-color:#FFCFAA"/>
		<stop offset="1" style="stop-color:#FA6EB9"/>
	</linearGradient>
	<circle cx="466.9" cy="283.4" r="26.1" id="el_MHaqtLFrc7"/>
	
		<linearGradient id="SVGID_3_" gradientUnits="userSpaceOnUse" x1="-247.4548" y1="724.3044" x2="-246.8683" y2="725.1059" gradientTransform="matrix(114.606 0 0 -114.606 28633.4199 83104.1797)">
		<stop offset="0" style="stop-color:#46E5F2"/>
		<stop offset="1" style="stop-color:#9E66FF"/>
	</linearGradient>
	<g id="el_gB2cG29V81_an__kA8vkKCl" data-animator-group="true" data-animator-type="2"><circle cx="307.3" cy="48.5" r="42.7" id="el_gB2cG29V81"/></g>
	
		<linearGradient id="SVGID_4_" gradientUnits="userSpaceOnUse" x1="-246.4571" y1="723.4665" x2="-245.9072" y2="724.2078" gradientTransform="matrix(45 0 0 -45 11515.2783 32994.957)">
		<stop offset="0" style="stop-color:#6F4DE2"/>
		<stop offset="1" style="stop-color:#FF7C7C"/>
	</linearGradient>
	<circle cx="440.8" cy="417.3" r="16.8" id="el_X2y9sanaV9"/>
	
		<linearGradient id="SVGID_5_" gradientUnits="userSpaceOnUse" x1="-245.194" y1="718.7972" x2="-245.4876" y2="719.374" gradientTransform="matrix(32 0 0 -32 8300.7783 23065.6133)">
		<stop offset="0" style="stop-color:#37CEDB"/>
		<stop offset="1" style="stop-color:#3488ED"/>
	</linearGradient>
	<circle cx="452.7" cy="60.5" r="11.9" id="el_jEkqbtcWdC"/>
	<g id="el_RdPdGMjGmh">
		
			<linearGradient id="SVGID_6_" gradientUnits="userSpaceOnUse" x1="-533.0981" y1="549.8909" x2="-532.9852" y2="550.6093" gradientTransform="matrix(201.3 0 0 -413.6 107312.0312 227680.25)">
			<stop offset="0" style="stop-color:#FAE6FF"/>
			<stop offset="1" style="stop-color:#B2DDFF"/>
		</linearGradient>
		<path d="M-46-39.6H64.8c10.9,0,19.7,8.8,19.7,19.7v269.2c0,10.9-8.8,19.7-19.7,19.7H-46c-10.9,0-19.7-8.8-19.7-19.7
			V-19.9C-65.7-30.8-56.9-39.6-46-39.6z" id="el_e4q9bE5IiL"/>
		<g id="el_EeY2LvgHOb">
			<path d="M-51.1-43H54.5C63.6-43,71-35.6,71-26.6v251.7c0,9.1-7.3,16.4-16.4,16.4H-51.1c-9.1,0-16.4-7.3-16.4-16.4
				V-26.6C-67.5-35.6-60.2-43-51.1-43z" id="el_DATMVSgasv"/>
			<path d="M2.8,21.3c-7.7,0-14-6.2-14-14s6.2-14,14-14s14,6.2,14,14S10.5,21.3,2.8,21.3z M2.8,18
				c5.9,0,10.7-4.8,10.7-10.7S8.7-3.3,2.8-3.3S-7.9,1.4-7.9,7.3S-3.1,18,2.8,18z" id="el_AMXtdSu6aI"/>
			<path d="M-4.5,40.2c-0.9,0-1.6-0.7-1.6-1.6c0-0.9,0.7-1.6,1.6-1.6h14.6c0.9,0,1.6,0.7,1.6,1.6c0,0.9-0.7,1.6-1.6,1.6
				H-4.5z" id="el_k-USykQUiP"/>
			<path d="M-12.7,48.4c-0.9,0-1.6-0.7-1.6-1.6c0-0.9,0.7-1.6,1.6-1.6h31c0.9,0,1.6,0.7,1.6,1.6c0,0.9-0.7,1.6-1.6,1.6
				H-12.7z" id="el_tYSaTgEXeQ"/>
		</g>
		<path d="M0.7-31.7c-0.7,0-1.2-0.6-1.2-1.2c0-0.7,0.6-1.2,1.2-1.2H19c0.7,0,1.2,0.6,1.2,1.2c0,0.7-0.6,1.2-1.2,1.2
			H0.7z M25.3-31.7c-0.7,0-1.2-0.6-1.2-1.2c0-0.7,0.6-1.2,1.2-1.2h1.1c0.7,0,1.2,0.6,1.2,1.2c0,0.7-0.6,1.2-1.2,1.2H25.3z" id="el_H8pJ7OVcQh"/>
	</g>
	<ellipse cx="190.7" cy="444.9" rx="183.9" ry="4.1" id="el_QVlXGc7Uul"/>
	<g id="el_k4JcEobZzI1">
		
			<linearGradient id="SVGID_7_" gradientUnits="userSpaceOnUse" x1="-737.5668" y1="603.0723" x2="-738.023" y2="602.3262" gradientTransform="matrix(32 0 0 -32 23502.0391 19275.2109)">
			<stop offset="0" style="stop-color:#FFB782"/>
			<stop offset="1" style="stop-color:#EB4878"/>
		</linearGradient>
		<circle cx="-106.6" cy="-12.5" r="11.9" id="el_hTWNUnOt-cx"/>
		<path d="M-103.3-14.9c0.3-0.3,0.8-0.3,1.1,0c0.3,0.3,0.3,0.8,0,1.1l-4.2,4.2c-0.3,0.3-0.8,0.3-1.1,0l-2.6-2.6
			c-0.3-0.3-0.3-0.8,0-1.1s0.8-0.3,1.1,0l2.1,2.1L-103.3-14.9z" id="el_GZfenuzGVz3"/>
	</g>
	<g id="el_cUnaFkipHqU">
		
			<linearGradient id="SVGID_8_" gradientUnits="userSpaceOnUse" x1="-502.7274" y1="350.3272" x2="-502.7274" y2="349.4005" gradientTransform="matrix(72.5843 0 0 -87.1026 36458.9531 30422.8906)">
			<stop offset="0" style="stop-color:#52DEEA"/>
			<stop offset="1" style="stop-color:#3488ED"/>
		</linearGradient>
		<path d="M-29.5-89.5l23.7,14.2c1.1,0.6,1.7,1.8,1.6,3.1C-4.9-61-7.3-51.5-11.5-44c-4.4,8-10.1,14.1-17,18.1
			c-1.3,1.2-3.4,1.2-5.1,0.1c-8.1-5-14.2-11.5-18.3-19.6c-3.9-7.6-5.9-16.6-6.3-27l0,0c0-1.2,0.6-2.3,1.6-2.9l23.8-14.2
			C-31.8-90.1-30.5-90.1-29.5-89.5z" id="el_Q7n3cNdyCaK"/>
		<circle cx="-31.1" cy="-59.1" r="13.7" id="el_dHDX5ukLph0"/>
		<path d="M-27.5-63.1c0.5-0.5,1.4-0.5,1.9,0s0.5,1.4,0,1.9l-5.4,5.4c-0.5,0.5-1.4,0.5-1.9,0l-3.5-3.5
			c-0.5-0.5-0.5-1.4,0-1.9s1.4-0.5,1.9,0l2.6,2.6L-27.5-63.1z" id="el_fcEXII58Vz4"/>
	</g>
	<g id="el_lwNjN8Z7UGJ">
		
			<linearGradient id="SVGID_9_" gradientUnits="userSpaceOnUse" x1="-706.0342" y1="492.6921" x2="-706.3278" y2="493.2687" gradientTransform="matrix(52 0 0 -52 36626.7617 25592.5879)">
			<stop offset="0" style="stop-color:#37CEDB"/>
			<stop offset="1" style="stop-color:#3488ED"/>
		</linearGradient>
		<path d="M-105-52.7h29.8c2.5,0,4.5,2,4.5,4.5v29.8c0,2.5-2,4.5-4.5,4.5H-105c-2.5,0-4.5-2-4.5-4.5v-29.8
			C-109.4-50.7-107.4-52.7-105-52.7z" id="el_Nrqo5KLDLuQ"/>
		<path d="M-93.6-23c-0.4,0-0.7-0.3-0.7-0.7s0.3-0.7,0.7-0.7h7.4c0.4,0,0.7,0.3,0.7,0.7s-0.3,0.7-0.7,0.7H-93.6z" id="el_fiFl-EhkoYI"/>
		<circle cx="-89.9" cy="-34.5" r="8.2" id="el_HVxeQyGFuvJ"/>
		<g id="el_jUFHaPOrssR">
			<circle cx="-105.9" cy="-47.8" r="8.2" id="el_NrbHghqryzg"/>
			<path d="M-103-44.5c0,0.4-0.3,0.7-0.7,0.7s-0.7-0.3-0.7-0.7c0-0.7-0.6-1.3-1.4-1.3s-1.4,0.6-1.4,1.3
				c0,0.4-0.3,0.7-0.7,0.7s-0.7-0.3-0.7-0.7c0-1.6,1.3-2.8,2.9-2.8S-103-46.1-103-44.5z" id="el_-UHF066rADZ"/>
			<path d="M-105.9-45.9c-1.6,0-2.9-1.3-2.9-2.8c0-1.6,1.3-2.8,2.9-2.8s2.9,1.3,2.9,2.8
				C-103-47.2-104.3-45.9-105.9-45.9z M-105.9-47.4c0.8,0,1.4-0.6,1.4-1.3c0-0.7-0.6-1.3-1.4-1.3s-1.4,0.6-1.4,1.3
				C-107.2-48-106.6-47.4-105.9-47.4z" id="el_I3MwXXw1fBg"/>
		</g>
	</g>
	<g id="el_RlxL2Xsr7g0">
		<path d="M-78.5-80.7h100c3.3,0,6,2.7,6,6v29.8c0,3.3-2.7,6-6,6h-100c-3.3,0-6-2.7-6-6v-29.8
			C-84.5-78-81.8-80.7-78.5-80.7z" id="el_018R-N3vsgM"/>
		<path d="M-39.7-62.4c-0.8,0-1.5-0.7-1.5-1.5s0.7-1.5,1.5-1.5h13.2c0.8,0,1.5,0.7,1.5,1.5s-0.7,1.5-1.5,1.5H-39.7z" id="el_Z_phQxYYIxH"/>
		<path d="M-39.7-54.9c-0.8,0-1.5-0.7-1.5-1.5s0.7-1.5,1.5-1.5h28.2c0.8,0,1.5,0.7,1.5,1.5s-0.7,1.5-1.5,1.5H-39.7z" id="el_l-ZTknrglDk"/>
		<circle cx="-61.3" cy="-59.8" r="9.7" id="el_sqDPHzeuLUQ"/>
		<path d="M-58.5-56.8c0,0.4-0.3,0.7-0.7,0.7c-0.4,0-0.7-0.3-0.7-0.7c0-0.7-0.6-1.3-1.4-1.3s-1.4,0.6-1.4,1.3
			c0,0.4-0.3,0.7-0.7,0.7c-0.4,0-0.7-0.3-0.7-0.7c0-1.6,1.3-2.8,2.9-2.8S-58.5-58.4-58.5-56.8z" id="el_CEhv3krAStY"/>
		<path d="M-61.3-58.3c-1.6,0-2.9-1.3-2.9-2.8c0-1.6,1.3-2.8,2.9-2.8s2.9,1.3,2.9,2.8C-58.5-59.5-59.8-58.3-61.3-58.3z
			 M-61.3-59.8c0.8,0,1.4-0.6,1.4-1.3c0-0.7-0.6-1.3-1.4-1.3s-1.4,0.6-1.4,1.3C-62.7-60.4-62.1-59.8-61.3-59.8z" id="el_Ow5vBAm1mWR"/>
	</g>
	<g id="el_o3vyEZCGqjN">
		
			<linearGradient id="SVGID_10_" gradientUnits="userSpaceOnUse" x1="-661.9587" y1="267.3436" x2="-662.4918" y2="266.7916" gradientTransform="matrix(32 0 0 -32 21102.0391 8449.4199)">
			<stop offset="0" style="stop-color:#E6AAFF"/>
			<stop offset="1" style="stop-color:#3488ED"/>
		</linearGradient>
		<circle cx="-87.5" cy="-98.5" r="11.9" id="el_h0IjdLpyA6k"/>
		<g id="el_spxZMmzv0Nj">
			<path d="M-100.7-107.2v4.5h7.5v-4.5H-100.7z M-100.7-108.7h7.5c0.8,0,1.5,0.7,1.5,1.5v4.5c0,0.8-0.7,1.5-1.5,1.5
				h-7.5c-0.8,0-1.5-0.7-1.5-1.5v-4.5C-102.2-108-101.5-108.7-100.7-108.7z" id="el_qVPCPJ5wN_N"/>
			<path d="M-98.4-108c0,0.4-0.3,0.7-0.7,0.7c-0.4,0-0.7-0.3-0.7-0.7v-2c0-1.6,1.3-3,3-3s3,1.3,3,3v2
				c0,0.4-0.3,0.7-0.7,0.7c-0.4,0-0.7-0.3-0.7-0.7v-2c0-0.8-0.7-1.5-1.5-1.5c-0.8,0-1.5,0.7-1.5,1.5V-108z" id="el_JeUEqkyWEdF"/>
		</g>
	</g>
	
	<g id="el_KrbHzXexBlB">
		<linearGradient id="SVGID_13_" gradientUnits="userSpaceOnUse" x1="31.7899" y1="184.7507" x2="2.7848" y2="65.5966">
			<stop offset="0" style="stop-color:#404683"/>
			<stop offset="1" style="stop-color:#373A5B"/>
		</linearGradient>
		<path d="M64.2,199.5c-4.5-1.7-8.2-3.4-11.1-5c-3.2-1.8-5.2-3.1-6.1-3.9c0.8-1.4,0.6-7.5,1.6-14
			c0.4-2.8,2.7-19.1,2.6-45.7c0-16,0-34.7-2.6-59c-0.4-3.9-1.4-9.3-2.8-16.4L5.3,51.9c-8.2,15.9-2.8,43.5-3.3,71
			c-0.4,22.8-5.8,49.5-6.2,54.9c-0.2,2.6-1.6,10,0.4,12.1l-5.9,9.3c-0.8,2.4,0.5,3.6,3.8,3.6c5,0,21.4,0,23.5,0s4.6-1.7,0.8-4.6
			c-2.4-1.8-5.1-4.3-8.2-7.6c1.8-1.7,2.9-11.6,3.3-14c0.7-4.1,3.5-23.1,6.9-43.9c1.4-8.4,3.6-21.9,6.8-40.6
			c4.6,49.6,6.4,79.4,5.4,89.2c-0.3,2.9-1.3,9.2,0.3,9.2c0.1,0,0.2,0,0.3,0l-2.3,8.8c-0.8,2.4,0.5,3.6,3.8,3.6c2.7,0,12.2,0,28.4,0
			C66.4,202.9,67.2,200.6,64.2,199.5z" id="el_dQB1ayIHkEB"/>
		<defs>
			<filter id="Adobe_OpacityMaskFilter" filterUnits="userSpaceOnUse" x="11.3" y="92.4" width="15.1" height="64.3">
				<feColorMatrix type="matrix" values="1 0 0 0 0  0 1 0 0 0  0 0 1 0 0  0 0 0 1 0"/>
			</filter>
		</defs>
		<mask maskUnits="userSpaceOnUse" x="11.3" y="92.4" width="15.1" height="64.3" id="hero-phone-ui-x_1_">
			<g class="st31">
				<path id="hero-phone-ui-v_1_" class="st32" d="M5.3,51.9c-8.2,15.9-2.8,43.5-3.3,71c-0.4,22.8-5.8,49.5-6.2,54.9
					c-0.2,3-2,12.3,1.5,12.7s10.2,0.4,12.3,0.4s3.4-11.6,3.8-14.3c0.7-4.1,3.5-23.1,6.9-43.9c1.4-8.4,3.6-21.9,6.8-40.6
					c4.6,49.6,6.4,79.4,5.4,89.2c-0.3,2.9-1.3,9.2,0.3,9.2c1.6,0,12.5,0.4,13.7,0.4c1.2,0,0.8-6.9,2-14.3c0.4-2.8,2.7-19.1,2.6-45.7
					c0-16,0-34.7-2.6-59c-0.4-3.9-1.4-9.3-2.8-16.4L5.3,51.9z"/>
			</g>
		</mask>
		<path d="M26.5,92.4c-4.7,1-8,3-9.9,6.2c-2.8,4.7,1,16.7-3.8,19.3s4.1,26.5,3,32.1c-0.7,3.7,0.1,6,2.6,6.7L26.5,92.4z
			" id="el_YVonyOejLB6"/>
		<defs>
			<filter id="Adobe_OpacityMaskFilter_1_" filterUnits="userSpaceOnUse" x="-8.3" y="49" width="65.2" height="81.3">
				<feColorMatrix type="matrix" values="1 0 0 0 0  0 1 0 0 0  0 0 1 0 0  0 0 0 1 0"/>
			</filter>
		</defs>
		<mask maskUnits="userSpaceOnUse" x="-8.3" y="49" width="65.2" height="81.3" id="hero-phone-ui-x_2_">
			<g class="st34">
				<path id="hero-phone-ui-v_2_" class="st32" d="M5.3,51.9c-8.2,15.9-2.8,43.5-3.3,71c-0.4,22.8-5.8,49.5-6.2,54.9
					c-0.2,3-2,12.3,1.5,12.7s10.2,0.4,12.3,0.4s3.4-11.6,3.8-14.3c0.7-4.1,3.5-23.1,6.9-43.9c1.4-8.4,3.6-21.9,6.8-40.6
					c4.6,49.6,6.4,79.4,5.4,89.2c-0.3,2.9-1.3,9.2,0.3,9.2c1.6,0,12.5,0.4,13.7,0.4c1.2,0,0.8-6.9,2-14.3c0.4-2.8,2.7-19.1,2.6-45.7
					c0-16,0-34.7-2.6-59c-0.4-3.9-1.4-9.3-2.8-16.4L5.3,51.9z"/>
			</g>
		</mask>
		<path d="M56.9,59.2c-3.4,14-11,21-22.5,21c-17.4,0-3.1,9.1-20.8,13.6c-17.7,4.5-6.9,36.6-17.7,36.6
			c-7.2,0-5.1-27.1,6.2-81.3L56.9,59.2z" id="el_1M45OhpZqYL"/>
		<g id="el_VtC4v_T0MRI">
			<g id="el_zuZQnsZzXte">
				
					<linearGradient id="SVGID_14_" gradientUnits="userSpaceOnUse" x1="-361.6743" y1="435.2534" x2="-361.0896" y2="436.2002" gradientTransform="matrix(115.1845 0 0 -128.8136 41638.7266 56118.9258)">
					<stop offset="0" style="stop-color:#FFCFAA"/>
					<stop offset="1" style="stop-color:#FA6EB9"/>
				</linearGradient>
				<path d="M23.2-61c-11.5-3.2,1.7-0.6-12,0.8c-5.6,0.6-10.6,2.5-15,5.7c-10.8,9.1-19,25.6-17.8,34.8
					C-20.9-13.6-14-11.4-1-13c0,6.8-9.4,21.6-9.4,39.5c0.6,0.1,26.7,4.3,46.3-3.9c0.8-0.3,1.1-5.5,0.9-15.6
					c1.5,11.5,3,17.3,4.4,17.3c0.6,0-1.5-12.4-2.4-18.9c-0.4-2.8-1.6-10.9-1.6-22.2c0-4.4,1.3-12.1,4-23.1
					C51.8-48.2,59-54.6,62.5-59s1.2-7.5-7.2-9.4C41.5-61.4,30.8-58.9,23.2-61z" id="el_ErsTafIL4Lz"/>
			</g>
			<defs>
				<filter id="Adobe_OpacityMaskFilter_2_" filterUnits="userSpaceOnUse" x="40.7" y="-61.1" width="29.5" height="21.1">
					<feColorMatrix type="matrix" values="1 0 0 0 0  0 1 0 0 0  0 0 1 0 0  0 0 0 1 0"/>
				</filter>
			</defs>
			<mask maskUnits="userSpaceOnUse" x="40.7" y="-61.1" width="29.5" height="21.1" id="hero-phone-ui-A_1_">
				<g class="st37">
					<path id="hero-phone-ui-y_1_" class="st32" d="M23.2-61c-11.5-3.2,1.7-0.6-12,0.8c-5.6,0.6-10.6,2.5-15,5.7
						c-10.8,9.1-19,25.6-17.8,34.8C-20.9-13.6-14-11.4-1-13c0,6.8-9.4,21.6-9.4,39.5c0.6,0.1,26.7,4.3,46.3-3.9
						c0.8-0.3,1.1-5.5,0.9-15.6c1.5,11.5,3,17.3,4.4,17.3c0.6,0-1.5-12.4-2.4-18.9c-0.4-2.8-1.6-10.9-1.6-22.2
						c0-4.4,1.3-12.1,4-23.1C51.8-48.2,59-54.6,62.5-59s1.2-7.5-7.2-9.4C41.5-61.4,30.8-58.9,23.2-61z"/>
				</g>
			</mask>
			<path d="M40.7-40c1.5-5,5.4-8.1,11.8-9.1c9.6-1.5,9.7-10.1,15.8-11.8c4-1.1,1.7,2.5-6.8,10.7L40.7-40z" id="el_Xop0fpPWqSn"/>
			<defs>
				<filter id="Adobe_OpacityMaskFilter_3_" filterUnits="userSpaceOnUse" x="-28.1" y="-59.4" width="87" height="78.8">
					<feColorMatrix type="matrix" values="1 0 0 0 0  0 1 0 0 0  0 0 1 0 0  0 0 0 1 0"/>
				</filter>
			</defs>
			<mask maskUnits="userSpaceOnUse" x="-28.1" y="-59.4" width="87" height="78.8" id="hero-phone-ui-A_2_">
				<g class="st39">
					<path id="hero-phone-ui-y_2_" class="st32" d="M23.2-61c-11.5-3.2,1.7-0.6-12,0.8c-5.6,0.6-10.6,2.5-15,5.7
						c-10.8,9.1-19,25.6-17.8,34.8C-20.9-13.6-14-11.4-1-13c0,6.8-9.4,21.6-9.4,39.5c0.6,0.1,26.7,4.3,46.3-3.9
						c0.8-0.3,1.1-5.5,0.9-15.6c1.5,11.5,3,17.3,4.4,17.3c0.6,0-1.5-12.4-2.4-18.9c-0.4-2.8-1.6-10.9-1.6-22.2
						c0-4.4,1.3-12.1,4-23.1C51.8-48.2,59-54.6,62.5-59s1.2-7.5-7.2-9.4C41.5-61.4,30.8-58.9,23.2-61z"/>
				</g>
			</mask>
			<g id="el_bJ1EQKkEj1G">
				<g id="el_Cq5_4l6da0Y">
					<circle cx="-1.5" cy="-60.8" r="2.5" id="el_zgcUDe0Na-p"/>
					<circle cx="14.9" cy="-60.8" r="2.5" id="el_DCuBaqOTbOj"/>
					<circle cx="31.3" cy="-60.8" r="2.5" id="el_twVdZaVZ-zn"/>
					<circle cx="47.7" cy="-60.8" r="2.5" id="el_IeJGIRx_kJ1"/>
					<circle cx="6.7" cy="-69" r="2.5" id="el_PQhsO5PzEEI"/>
					<circle cx="23.1" cy="-69" r="2.5" id="el_NJ8dPHmC6oI"/>
					<circle cx="39.5" cy="-69" r="2.5" id="el_E-Hygmk_PJK"/>
					<circle cx="55.9" cy="-69" r="2.5" id="el_2OI3ECGJvH7"/>
					<circle cx="64.1" cy="-60.8" r="2.5" id="el_uR5zOTYrWw4"/>
					<circle cx="-9.7" cy="-52.6" r="2.5" id="el_q_BH3cJerRV"/>
					<circle cx="6.7" cy="-52.6" r="2.5" id="el_MzOh6g-6jxB"/>
					<circle cx="23.1" cy="-52.6" r="2.5" id="el_SoiGbr5NNg5"/>
					<circle cx="39.5" cy="-52.6" r="2.5" id="el_ewhuUco1tYw"/>
					<circle cx="55.9" cy="-52.6" r="2.5" id="el_h9NIpzbFjDT"/>
					<circle cx="-17.9" cy="-44.4" r="2.5" id="el_CqVivx2hdU8"/>
					<circle cx="-1.5" cy="-44.4" r="2.5" id="el_sVtZ1kdZn1U"/>
					<circle cx="14.9" cy="-44.4" r="2.5" id="el_ZZ66UR4OLs_"/>
					<circle cx="31.3" cy="-44.4" r="2.5" id="el_rOgWJ_11wet"/>
					<circle cx="47.7" cy="-44.4" r="2.5" id="el_kdrVBJPyWQ1"/>
					<circle cx="-9.7" cy="-36.2" r="2.5" id="el_iOA1VBNoED4"/>
					<circle cx="6.7" cy="-36.2" r="2.5" id="el_dreLiEVURky"/>
					<circle cx="23.1" cy="-36.2" r="2.5" id="el_4-UoURLaXvk"/>
					<circle cx="39.5" cy="-36.2" r="2.5" id="el__-0kwhlS2X2"/>
					<circle cx="55.9" cy="-36.2" r="2.5" id="el_ppGcDIjCLeH"/>
					<circle cx="-17.9" cy="-28" r="2.5" id="el_UEl_eFC7qhQ"/>
					<circle cx="-1.5" cy="-28" r="2.5" id="el_tgTBprK1-zD"/>
					<circle cx="14.9" cy="-28" r="2.5" id="el_Np6_4uqTdvc"/>
					<circle cx="31.3" cy="-28" r="2.5" id="el_SU4EbyJ8sVL"/>
					<circle cx="47.7" cy="-28" r="2.5" id="el_uRsqDVqEPWf"/>
					<circle cx="-9.7" cy="-19.8" r="2.5" id="el_tlboF1hIHIo"/>
					<circle cx="6.7" cy="-19.8" r="2.5" id="el_8wbNAB-4MUN"/>
					<circle cx="23.1" cy="-19.8" r="2.5" id="el_mz5D8ZPOkDF"/>
					<circle cx="39.5" cy="-19.8" r="2.5" id="el_ysGWemmFCkD"/>
					<circle cx="55.9" cy="-19.8" r="2.5" id="el_osCbw-eel_X"/>
					<circle cx="-17.9" cy="-11.6" r="2.5" id="el_OdbDO4Tn-pP"/>
					<circle cx="-1.5" cy="-11.6" r="2.5" id="el_i4kac5atLr0"/>
					<circle cx="14.9" cy="-11.6" r="2.5" id="el_XqfIXsCfzew"/>
					<circle cx="31.3" cy="-11.6" r="2.5" id="el_CdbT8lkK4wH"/>
					<circle cx="47.7" cy="-11.6" r="2.5" id="el_YFqDOFbrlHg"/>
					<circle cx="-9.7" cy="-3.4" r="2.5" id="el_9zI9bp8J5j1"/>
					<circle cx="6.7" cy="-3.4" r="2.5" id="el_Gz-aZrE2vdU"/>
					<circle cx="23.1" cy="-3.4" r="2.5" id="el_7Z_PMR0fCH9"/>
					<circle cx="39.5" cy="-3.4" r="2.5" id="el_H5nuy8entGd"/>
					<circle cx="55.9" cy="-3.4" r="2.5" id="el_LxLuQcjDa8m"/>
					<circle cx="-17.9" cy="4.8" r="2.5" id="el_TWJFnSiYOrh"/>
					<circle cx="-1.5" cy="4.8" r="2.5" id="el_nTFgChAXvYD"/>
					<circle cx="14.9" cy="4.8" r="2.5" id="el_Ew-CUohbPUo"/>
					<circle cx="31.3" cy="4.8" r="2.5" id="el_yzci2H8_Cw7"/>
				</g>
			</g>
			<defs>
				<filter id="Adobe_OpacityMaskFilter_4_" filterUnits="userSpaceOnUse" x="37.6" y="14.5" width="4.9" height="4.9">
					<feColorMatrix type="matrix" values="1 0 0 0 0  0 1 0 0 0  0 0 1 0 0  0 0 0 1 0"/>
				</filter>
			</defs>
			<mask maskUnits="userSpaceOnUse" x="37.6" y="14.5" width="4.9" height="4.9" id="hero-phone-ui-A_3_">
				<g class="st41">
					<path id="hero-phone-ui-y_3_" class="st32" d="M23.2-61c-11.5-3.2,1.7-0.6-12,0.8c-5.6,0.6-10.6,2.5-15,5.7
						c-10.8,9.1-19,25.6-17.8,34.8C-20.9-13.6-14-11.4-1-13c0,6.8-9.4,21.6-9.4,39.5c0.6,0.1,26.7,4.3,46.3-3.9
						c0.8-0.3,1.1-5.5,0.9-15.6c1.5,11.5,3,17.3,4.4,17.3c0.6,0-1.5-12.4-2.4-18.9c-0.4-2.8-1.6-10.9-1.6-22.2
						c0-4.4,1.3-12.1,4-23.1C51.8-48.2,59-54.6,62.5-59s1.2-7.5-7.2-9.4C41.5-61.4,30.8-58.9,23.2-61z"/>
				</g>
			</mask>
			<circle cx="40" cy="16.9" r="2.5" id="el_jDYvOI7QZLz"/>
			<defs>
				<filter id="Adobe_OpacityMaskFilter_5_" filterUnits="userSpaceOnUse" x="-26.3" y="-65.1" width="106.7" height="57.4">
					<feColorMatrix type="matrix" values="1 0 0 0 0  0 1 0 0 0  0 0 1 0 0  0 0 0 1 0"/>
				</filter>
			</defs>
			<mask maskUnits="userSpaceOnUse" x="-26.3" y="-65.1" width="106.7" height="57.4" id="hero-phone-ui-A_4_">
				<g class="st43">
					<path id="hero-phone-ui-y_4_" class="st32" d="M23.2-61c-11.5-3.2,1.7-0.6-12,0.8c-5.6,0.6-10.6,2.5-15,5.7
						c-10.8,9.1-19,25.6-17.8,34.8C-20.9-13.6-14-11.4-1-13c0,6.8-9.4,21.6-9.4,39.5c0.6,0.1,26.7,4.3,46.3-3.9
						c0.8-0.3,1.1-5.5,0.9-15.6c1.5,11.5,3,17.3,4.4,17.3c0.6,0-1.5-12.4-2.4-18.9c-0.4-2.8-1.6-10.9-1.6-22.2
						c0-4.4,1.3-12.1,4-23.1C51.8-48.2,59-54.6,62.5-59s1.2-7.5-7.2-9.4C41.5-61.4,30.8-58.9,23.2-61z"/>
				</g>
			</mask>
			<path d="M69.8-52.1c0.7,4.6,2.3,6.9,5,6.9c2.7,0,4.6-1.4,5.6-4.2l-8.7-5.2L69.8-52.1z M29.5-60.2
				C25.2-30,16.3-13.3,3-10.1c-13.4,3.2-23.1,3.2-29.2-0.1L-22-43l43.2-22.1L29.5-60.2z" id="el_kcaBF5B-n37"/>
			<path d="M49.6-63c-3.3-3.4,1.7-5.6,4.3-4.7c2.6,0.9,8.3,7,7.1,12.2s-5.6,7-6.6,5.9C52.1-52.2,52.9-59.7,49.6-63z" id="el_NUXUavPBtX9"/>
		</g>
		
			<linearGradient id="SVGID_15_" gradientUnits="userSpaceOnUse" x1="-349.6185" y1="481.98" x2="-349.3897" y2="482.6293" gradientTransform="matrix(39.888 0 0 -63.8055 14016.2979 30749.2676)">
			<stop offset="0" style="stop-color:#FF9292"/>
			<stop offset="1" style="stop-color:#FFB59D"/>
		</linearGradient>
		<path d="M69.3-7.7c-0.6-6-2.8-9.8-6.6-11.4l16.7-22.3c0.9-3.9,1.7-6.3,2.3-7.3c0.4-0.7,3.5-2.5,5.2-3.3
			c0.6-0.3,4.4-3.2,5.1-3.3c1-0.1,0.5,1.9-1.7,3.9c-2.5,2.1,1.8,5,0.5,8.7c-0.7,2-1.9,3.2-3.5,3.8C77.3-19.7,71.2-9.5,69.3-7.7z" id="el_f1lTlKwO6ZY"/>
		<g id="el_UYfu4YSLOVJ">
			
				<linearGradient id="SVGID_16_" gradientUnits="userSpaceOnUse" x1="-396.9034" y1="458.701" x2="-396.7123" y2="459.3503" gradientTransform="matrix(25.8983 0 0 -45.329 10258.5518 20768.7363)">
				<stop offset="0" style="stop-color:#FF9292"/>
				<stop offset="1" style="stop-color:#FFB59D"/>
			</linearGradient>
			<path d="M-13.3-61.2c1.9,2.4,3.2,4.8,3.8,7.4c2,8.3,1.3,16.1-2.4,17c-1.3,0.3-2.6,0.3-4,0l-0.2,4
				c0.3,3.7,0,5.5-1,5.5c-1.4,0-8.1-1.6-10.7-6.8C-25.9-34.5-15-52.4-13.3-61.2z" id="el_hs7pLe5XonZ"/>
		</g>
		
			<linearGradient id="SVGID_17_" gradientUnits="userSpaceOnUse" x1="-351.6207" y1="484.2087" x2="-351.6207" y2="483.4628" gradientTransform="matrix(80.0667 0 0 -108.4376 28163.2109 52459.5703)">
			<stop offset="0" style="stop-color:#AF3053"/>
			<stop offset="1" style="stop-color:#7A3343"/>
		</linearGradient>
		<path d="M39.8-27.4c-0.6-1-1.6-1.6-2.8-1.6c-1.8,0-3.3,1.5-3.3,3.3c0,1.8,1.5,3.3,3.3,3.3c0.9,0,1.7-0.4,2.3-1
			c-0.6,3.9-1.7,8.2-2.7,12.5c-4,16.4-13.8,47.4-34.4,44.9s-26.3-15.4-18.8-30S5.6-11,7.4-23.3c1.7-12.3,6-26.7,21.3-23
			C38.6-43.9,40.6-36.7,39.8-27.4L39.8-27.4z" id="el_ruSMRjgGZCO"/>
	</g>
</g>
</svg>