<?xml version="1.0" encoding="utf-8"?>
<!-- Generator: Adobe Illustrator 23.0.2, SVG Export Plug-In . SVG Version: 6.00 Build 0)  -->
<svg version="1.1" id="Layer_1" xmlns="http://www.w3.org/2000/svg" xmlns:xlink="http://www.w3.org/1999/xlink" x="0px" y="0px"
	 viewBox="0 0 948 948" style="enable-background:new 0 0 948 948;" xml:space="preserve">
<style type="text/css">
	.st0{opacity:0.35;fill:#E6E7E8;}
	.st1{fill:none;}
	.st2{fill:#E6E7E8;}
</style>
<path class="st0" d="M158.1,1c138.6,0,238.7,141,159.2,281.8S185,570.2,374.8,607.7s353.8,3.4,353.8,204.7
	c0,105,37.2,156.3,192.6,116.8V1C320.1,1,65.7,1,158.1,1z"/>
<path class="st1" d="M186.1,1c138.6,0,179.5,179.1,120.3,296.5S213,570.2,402.8,607.7s313.4,22,313.4,223.3
	c0,105,77.7,137.7,233,98.1V1C348.1,1,93.7,1,186.1,1z"/>
<path class="st2" d="M186.1,1c138.6,0,238.7,141,159.2,281.8S213,570.2,402.8,607.7s353.8,3.4,353.8,204.7
	c0,105,37.2,156.3,192.6,116.8V1C348.1,1,93.7,1,186.1,1z"/>
</svg>
