<svg xmlns="http://www.w3.org/2000/svg" xmlns:xlink="http://www.w3.org/1999/xlink" width="652" height="595" viewBox="0 0 652 595">
  <defs>
    <linearGradient id="hero-phone-ui-a" x1="21.519%" x2="70.406%" y1="92.592%" y2="-8.059%">
      <stop offset="0%" stop-color="#39ABC5"/>
      <stop offset="100%" stop-color="#A8EB9D"/>
    </linearGradient>
    <linearGradient id="hero-phone-ui-b" x1="-8.216%" x2="89.812%" y1="126.906%" y2="0%">
      <stop offset="0%" stop-color="#FFCFAA"/>
      <stop offset="100%" stop-color="#FA6EB9"/>
    </linearGradient>
    <linearGradient id="hero-phone-ui-c" x1="5.388%" x2="84.005%" y1="100%" y2="-7.433%">
      <stop offset="0%" stop-color="#46E5F2"/>
      <stop offset="100%" stop-color="#9E66FF"/>
    </linearGradient>
    <linearGradient id="hero-phone-ui-d" x1="20.394%" x2="94.104%" y1="128.09%" y2="28.726%">
      <stop offset="0%" stop-color="#6F4DE2"/>
      <stop offset="100%" stop-color="#FF7C7C"/>
    </linearGradient>
    <linearGradient id="hero-phone-ui-e" x1="38.977%" x2="-.379%" y1="74.828%" y2="-2.476%">
      <stop offset="0%" stop-color="#37CEDB"/>
      <stop offset="100%" stop-color="#3488ED"/>
    </linearGradient>
    <linearGradient id="hero-phone-ui-f" x1="44.265%" x2="59.404%" y1="92.518%" y2="-3.793%">
      <stop offset="0%" stop-color="#FAE6FF"/>
      <stop offset="100%" stop-color="#B2DDFF"/>
    </linearGradient>
    <linearGradient id="hero-phone-ui-g" x1="67.813%" x2="6.662%" y1="0%" y2="100%">
      <stop offset="0%" stop-color="#FFB782"/>
      <stop offset="100%" stop-color="#EB4878"/>
    </linearGradient>
    <linearGradient id="hero-phone-ui-h" x1="64.737%" x2="64.737%" y1="-2.476%" y2="121.754%">
      <stop offset="0%" stop-color="#52DEEA"/>
      <stop offset="100%" stop-color="#3488ED"/>
    </linearGradient>
    <filter id="hero-phone-ui-i" width="269.3%" height="553.6%" x="-84.7%" y="-226.8%" filterUnits="objectBoundingBox">
      <feOffset dy="22" in="SourceAlpha" result="shadowOffsetOuter1"/>
      <feGaussianBlur in="shadowOffsetOuter1" result="shadowBlurOuter1" stdDeviation="22"/>
      <feColorMatrix in="shadowBlurOuter1" result="shadowMatrixOuter1" values="0 0 0 0 0.443137255   0 0 0 0 0.650980392   0 0 0 0 0.97254902  0 0 0 0.252887228 0"/>
      <feMerge>
        <feMergeNode in="shadowMatrixOuter1"/>
        <feMergeNode in="SourceGraphic"/>
      </feMerge>
    </filter>
    <linearGradient id="hero-phone-ui-j" x1="84.873%" x2="13.408%" y1="26.003%" y2="100%">
      <stop offset="0%" stop-color="#E6AAFF"/>
      <stop offset="100%" stop-color="#3488ED"/>
    </linearGradient>
    <filter id="hero-phone-ui-k" width="269.3%" height="245.1%" x="-84.7%" y="-72.6%" filterUnits="objectBoundingBox">
      <feOffset dy="22" in="SourceAlpha" result="shadowOffsetOuter1"/>
      <feGaussianBlur in="shadowOffsetOuter1" result="shadowBlurOuter1" stdDeviation="22"/>
      <feColorMatrix in="shadowBlurOuter1" result="shadowMatrixOuter1" values="0 0 0 0 0.701290887   0 0 0 0 0.46762252   0 0 0 0 0.999867134  0 0 0 0.24498981 0"/>
      <feMerge>
        <feMergeNode in="shadowMatrixOuter1"/>
        <feMergeNode in="SourceGraphic"/>
      </feMerge>
    </filter>
    <linearGradient id="hero-phone-ui-l" x1="86.735%" x2="27.153%" y1="-2.476%" y2="100%">
      <stop offset="0%" stop-color="#FF90D7"/>
      <stop offset="100%" stop-color="#906EFA"/>
    </linearGradient>
    <linearGradient id="hero-phone-ui-m" x1="14.896%" y1="100%" y2="22.236%">
      <stop offset="0%" stop-color="#FFF" stop-opacity=".503"/>
      <stop offset="100%" stop-color="#FFF"/>
    </linearGradient>
    <linearGradient id="hero-phone-ui-o" x1="134.336%" x2="6.662%" y1="45.203%" y2="56.784%">
      <stop offset="0%" stop-color="#404683"/>
      <stop offset="100%" stop-color="#373A5B"/>
    </linearGradient>
    <path id="hero-phone-ui-n" d="M27.0127094,0.833054296 C27.6568191,1.33172642 24.7676587,3.38883974 18.3452282,7.00439425 C14.4540055,9.19498664 9.49453252,11.438967 3.46680918,13.7363353 C-0.454174662,15.2307543 0.520167127,18.2873638 5.02348175,18.2873638 C26.6896368,18.2873638 39.3612648,18.2873638 43.0383658,18.2873638 C47.4797529,18.2873638 49.1624373,16.6674624 48.086419,13.4276594 L44.7544409,0.833054296 L27.0127094,0.833054296 Z"/>
    <linearGradient id="hero-phone-ui-p" x1="9.105%" x2="87.601%" y1="60.83%" y2="45.343%">
      <stop offset="0%" stop-color="#FF9292"/>
      <stop offset="100%" stop-color="#FFB59D"/>
    </linearGradient>
    <linearGradient id="hero-phone-ui-s" x1="134.336%" x2="6.662%" y1="43.458%" y2="59.251%">
      <stop offset="0%" stop-color="#404683"/>
      <stop offset="100%" stop-color="#373A5B"/>
    </linearGradient>
    <path id="hero-phone-ui-r" d="M15.1511014,0.833054296 C10.612566,5.7660512 6.63393137,9.52169977 3.21519747,12.1 C-1.91290337,15.9674503 1.50568231,18.2873638 4.31519747,18.2873638 C7.12471264,18.2873638 29.1214022,18.2873638 35.7834829,18.2873638 C40.2248701,18.2873638 41.9075545,16.6674624 40.8315361,13.4276594 L32.8928329,0.833054296 L15.1511014,0.833054296 Z"/>
    <linearGradient id="hero-phone-ui-t" x1="9.105%" x2="87.601%" y1="58.674%" y2="46.27%">
      <stop offset="0%" stop-color="#FF9292"/>
      <stop offset="100%" stop-color="#FFB59D"/>
    </linearGradient>
    <linearGradient id="hero-phone-ui-w" x1="63.725%" x2="42.947%" y1="14.643%" y2="100%">
      <stop offset="0%" stop-color="#404683"/>
      <stop offset="100%" stop-color="#373A5B"/>
    </linearGradient>
    <path id="hero-phone-ui-v" d="M14.3,0.744504655 C3.3,22 10.5853835,59.068107 9.88614602,95.9181712 C9.30737679,126.419513 2.1389369,162.270564 1.62895604,169.450721 C1.3477291,173.41019 -1.1,185.970427 3.700259,186.457339 C8.50051799,186.944252 17.3894298,187.013773 20.2016565,187.013773 C23.0138832,187.013773 24.69849,171.442854 25.3,167.832526 C26.2137793,162.347924 30.0177259,136.904725 34.5463078,108.946668 C36.373004,97.6692143 39.413802,79.5466432 43.668702,54.5789549 C49.8329319,121.117191 52.2395198,160.982317 50.8884658,174.174333 C50.4906707,178.058499 49.1934541,186.457339 51.3414784,186.457339 C53.4895026,186.457339 68.1180339,187.013773 69.7286615,187.013773 C71.3392892,187.013773 70.8601988,177.796999 72.3856289,167.832526 C72.9674248,164.032096 75.9529376,142.292026 75.9,106.530613 C75.868323,85.1315704 75.9529376,59.9565934 72.3856289,27.5 C71.8179635,22.3351869 70.5656411,15.0018536 68.6286615,5.5 L14.3,0.744504655 Z"/>
    <linearGradient id="hero-phone-ui-z" x1="3.451%" x2="81.833%" y1="126.906%" y2="0%">
      <stop offset="0%" stop-color="#FFCFAA"/>
      <stop offset="100%" stop-color="#FA6EB9"/>
    </linearGradient>
    <path id="hero-phone-ui-y" d="M60.9996745,9.9 C45.5769628,5.60825888 63.2736086,9.14225301 44.9066626,10.9619271 C37.381892,11.7074309 30.6815424,14.2474012 24.8056137,18.5818378 C10.324713,30.7461351 -0.670805584,52.9025956 0.916285341,65.2304552 C1.97434596,73.4490283 11.2003757,76.4797955 28.5943746,74.322757 C28.6335139,83.3837063 16.047769,103.333902 16.047769,127.317589 C16.8044995,127.402273 51.894561,133.1 78.0507163,122.1 C79.1479654,121.638551 79.53106,114.671884 79.2,101.2 C81.2448104,116.63591 83.1911383,124.353865 85.0389834,124.353865 C85.8733056,124.353865 82.9747079,107.717492 81.8059225,99 C81.3017359,95.2394785 79.657999,84.3417249 79.657999,69.3 C79.657999,63.4333333 81.4516605,53.0930158 85.0389834,38.2790475 C99.4030929,27.0440978 108.987957,18.492325 113.793575,12.6237288 C118.599194,6.75513272 115.366425,2.56517806 104.09527,0.0538648567 C85.6466807,9.4791157 71.2814823,12.7611607 60.9996745,9.9 Z"/>
    <linearGradient id="hero-phone-ui-B" x1="34.018%" x2="64.695%" y1="110.865%" y2="23.826%">
      <stop offset="0%" stop-color="#FF9292"/>
      <stop offset="100%" stop-color="#FFB59D"/>
    </linearGradient>
    <linearGradient id="hero-phone-ui-C" x1="36.651%" x2="62.274%" y1="110.865%" y2="23.826%">
      <stop offset="0%" stop-color="#FF9292"/>
      <stop offset="100%" stop-color="#FFB59D"/>
    </linearGradient>
    <linearGradient id="hero-phone-ui-D" x1="50%" x2="50%" y1="0%" y2="100%">
      <stop offset="0%" stop-color="#AF3053"/>
      <stop offset="100%" stop-color="#7A3343"/>
    </linearGradient>
  </defs>
  <g fill="none" fill-rule="evenodd">
    <circle cx="398.332" cy="289.457" r="240.5" fill="url(#hero-phone-ui-a)" fill-rule="nonzero" opacity=".3"/>
    <circle cx="616.778" cy="373" r="35" fill="url(#hero-phone-ui-b)" fill-rule="nonzero" opacity=".5"/>
    <circle cx="402.828" cy="58.113" r="57.303" fill="url(#hero-phone-ui-c)" fill-rule="nonzero" opacity=".3"/>
    <circle cx="581.778" cy="552.457" r="22.5" fill="url(#hero-phone-ui-d)" fill-rule="nonzero" opacity=".2"/>
    <circle cx="597.778" cy="74.113" r="16" fill="url(#hero-phone-ui-e)" fill-rule="nonzero" opacity=".3"/>
    <g fill-rule="nonzero" transform="translate(285.332 176.357)">
      <path fill="url(#hero-phone-ui-f)" d="M26.4,3.55271368e-16 L174.9,-3.55271368e-15 C189.480317,-6.23107453e-15 201.3,11.8196826 201.3,26.4 L201.3,387.2 C201.3,401.780317 189.480317,413.6 174.9,413.6 L26.4,413.6 C11.8196826,413.6 1.7855739e-15,401.780317 0,387.2 L0,26.4 C-1.7855739e-15,11.8196826 11.8196826,3.03363222e-15 26.4,3.55271368e-16 Z"/>
      <g transform="translate(7.7 15.4)">
        <path fill="#FFF" d="M22.2031837,0.729900432 L163.80227,0.729900432 C175.952535,0.729900432 185.80227,10.5796359 185.80227,22.7299004 L185.80227,360.0701 C185.80227,372.220364 175.952535,382.0701 163.80227,382.0701 L22.2031837,382.0701 C10.0529192,382.0701 0.203183724,372.220364 0.203183724,360.0701 L0.203183724,22.7299004 C0.203183724,10.5796359 10.0529192,0.729900432 22.2031837,0.729900432 Z"/>
        <path fill="#9574FE" d="M94.4556086,86.9 C84.1278838,86.9 75.7556086,78.5277248 75.7556086,68.2 C75.7556086,57.8722752 84.1278838,49.5 94.4556086,49.5 C104.783333,49.5 113.155609,57.8722752 113.155609,68.2 C113.155609,78.5277248 104.783333,86.9 94.4556086,86.9 Z M94.4556086,82.5 C102.353281,82.5 108.755609,76.0976719 108.755609,68.2 C108.755609,60.3023281 102.353281,53.9 94.4556086,53.9 C86.5579367,53.9 80.1556086,60.3023281 80.1556086,68.2 C80.1556086,76.0976719 86.5579367,82.5 94.4556086,82.5 Z"/>
        <path fill="#E488DF" d="M84.7,112.284278 C83.4849736,112.284278 82.5,111.299304 82.5,110.084278 C82.5,108.869252 83.4849736,107.884278 84.7,107.884278 L104.211217,107.884278 C105.426244,107.884278 106.411217,108.869252 106.411217,110.084278 C106.411217,111.299304 105.426244,112.284278 104.211217,112.284278 L84.7,112.284278 Z"/>
        <path fill="#FBCCEE" d="M73.7,123.284278 C72.4849736,123.284278 71.5,122.299304 71.5,121.084278 C71.5,119.869252 72.4849736,118.884278 73.7,118.884278 L115.211217,118.884278 C116.426244,118.884278 117.411217,119.869252 117.411217,121.084278 C117.411217,122.299304 116.426244,123.284278 115.211217,123.284278 L73.7,123.284278 Z"/>
      </g>
      <path fill="#48B4BF" d="M89.0050684 10.6163865C88.0937985 10.6163865 87.3550684 9.87765633 87.3550684 8.96638649 87.3550684 8.05511665 88.0937985 7.31638649 89.0050684 7.31638649L113.587624 7.31638649C114.498894 7.31638649 115.237624 8.05511665 115.237624 8.96638649 115.237624 9.87765633 114.498894 10.6163865 113.587624 10.6163865L89.0050684 10.6163865zM122.005068 10.6163865C121.093799 10.6163865 120.355068 9.87765633 120.355068 8.96638649 120.355068 8.05511665 121.093799 7.31638649 122.005068 7.31638649L123.487624 7.31638649C124.398894 7.31638649 125.137624 8.05511665 125.137624 8.96638649 125.137624 9.87765633 124.398894 10.6163865 123.487624 10.6163865L122.005068 10.6163865z" opacity=".3"/>
    </g>
    <ellipse cx="246.5" cy="589.5" fill="#373A5B" fill-rule="nonzero" opacity=".1" rx="246.5" ry="5.5"/>
    <g fill-rule="nonzero" transform="translate(493.22 116.634)">
      <circle cx="16" cy="16" r="16" fill="url(#hero-phone-ui-g)"/>
      <path fill="#FFF" d="M18,10.5222927 C18,9.97000796 18.4477153,9.52229271 19,9.52229271 C19.5522847,9.52229271 20,9.97000796 20,10.5222927 L20,18.5222927 C20,19.0745775 19.5522847,19.5222927 19,19.5222927 L14,19.5222927 C13.4477153,19.5222927 13,19.0745775 13,18.5222927 C13,17.970008 13.4477153,17.5222927 14,17.5222927 L18,17.5222927 L18,10.5222927 Z" transform="rotate(45 16.5 14.522)"/>
    </g>
    <g fill-rule="nonzero" transform="translate(256.725 375.098)">
      <path fill="url(#hero-phone-ui-h)" d="M38.8494217,0.867403225 L70.6835728,19.8386117 C72.1111868,20.6893825 72.9395768,22.2702253 72.826631,23.9282772 C71.7955276,39.0649353 68.5023326,51.7010821 62.9470459,61.8367177 C57.0625352,72.5730236 49.4569747,80.6772317 40.1303643,86.1493422 C38.3926458,87.7318495 35.509739,87.7318495 33.2575554,86.2423162 C22.3647994,79.5180139 14.1770642,70.7637059 8.69434967,59.9793921 C3.53214348,49.8255074 0.719020068,37.7757918 0.254979441,23.8302454 L0.254997191,23.8302448 C0.201559,22.2242976 1.02548794,20.7162945 2.40580536,19.8937096 L34.3324067,0.867403225 C35.7239019,0.0381570244 37.4579265,0.0381570244 38.8494217,0.867403225 Z"/>
      <circle cx="36.661" cy="41.536" r="18.307" fill="#373A5B" opacity=".3"/>
      <path fill="#FFF" d="M38.3381752,33.6284894 C38.3381752,32.6132601 39.1611812,31.7902542 40.1764105,31.7902542 C41.1916398,31.7902542 42.0146458,32.6132601 42.0146458,33.6284894 L42.0146458,43.8609405 C42.0146458,44.8761698 41.1916398,45.6991758 40.1764105,45.6991758 L33.4514731,45.6991758 C32.4362438,45.6991758 31.6132378,44.8761698 31.6132378,43.8609405 C31.6132378,42.8457111 32.4362438,42.0227052 33.4514731,42.0227052 L38.3381752,42.0227052 L38.3381752,33.6284894 Z" transform="rotate(45 36.814 38.745)"/>
    </g>
    <g fill-rule="nonzero" transform="translate(460.132 230.109)">
      <path fill="url(#hero-phone-ui-e)" d="M6.89864188,0.754673732 L46.8986419,0.754673732 C50.2123504,0.754673732 52.8986419,3.44096523 52.8986419,6.75467373 L52.8986419,46.7546737 C52.8986419,50.0683822 50.2123504,52.7546737 46.8986419,52.7546737 L6.89864188,52.7546737 C3.58493338,52.7546737 0.898641876,50.0683822 0.898641876,46.7546737 L0.898641876,6.75467373 C0.898641876,3.44096523 3.58493338,0.754673732 6.89864188,0.754673732 Z"/>
      <path fill="#D2EEE9" d="M22.1490717,40.592429 C21.6520154,40.592429 21.2490717,40.1894853 21.2490717,39.692429 C21.2490717,39.1953727 21.6520154,38.792429 22.1490717,38.792429 L32.047817,38.792429 C32.5448732,38.792429 32.947817,39.1953727 32.947817,39.692429 C32.947817,40.1894853 32.5448732,40.592429 32.047817,40.592429 L22.1490717,40.592429 Z"/>
      <circle cx="27.098" cy="25.116" r="11" fill="#373A5B" opacity=".1"/>
      <g transform="translate(16 11)">
        <circle cx="11.098" cy="11.116" r="11" fill="#FFF"/>
        <path fill="#F9B9BD" d="M14.9723794,15.4991908 C14.9723794,16.0514756 14.5246642,16.4991908 13.9723794,16.4991908 C13.4200947,16.4991908 12.9723794,16.0514756 12.9723794,15.4991908 C12.9723794,14.5267544 12.1504082,13.72711 11.1228997,13.72711 C10.0953911,13.72711 9.27341991,14.5267544 9.27341991,15.4991908 C9.27341991,16.0514756 8.82570466,16.4991908 8.27341991,16.4991908 C7.72113516,16.4991908 7.27341991,16.0514756 7.27341991,15.4991908 C7.27341991,13.4096713 9.0029598,11.72711 11.1228997,11.72711 C13.2428395,11.72711 14.9723794,13.4096713 14.9723794,15.4991908 Z"/>
        <path fill="#F3747B" d="M11.1228997,13.572312 C9.0029598,13.572312 7.27341991,11.8897508 7.27341991,9.80023128 C7.27341991,7.71071178 9.0029598,6.02815052 11.1228997,6.02815052 C13.2428395,6.02815052 14.9723794,7.71071178 14.9723794,9.80023128 C14.9723794,11.8897508 13.2428395,13.572312 11.1228997,13.572312 Z M11.1228997,11.572312 C12.1504082,11.572312 12.9723794,10.7726676 12.9723794,9.80023128 C12.9723794,8.82779492 12.1504082,8.02815052 11.1228997,8.02815052 C10.0953911,8.02815052 9.27341991,8.82779492 9.27341991,9.80023128 C9.27341991,10.7726676 10.0953911,11.572312 11.1228997,11.572312 Z"/>
      </g>
    </g>
    <g fill-rule="nonzero" filter="url(#hero-phone-ui-i)" transform="translate(359.22 338)">
      <path fill="#FFF" d="M8,0 L142,0 C146.418278,-8.11624501e-16 150,3.581722 150,8 L150,48 C150,52.418278 146.418278,56 142,56 L8,56 C3.581722,56 5.41083001e-16,52.418278 0,48 L0,8 C-5.41083001e-16,3.581722 3.581722,8.11624501e-16 8,0 Z"/>
      <path fill="#9771FE" d="M60,24.5 C58.8954305,24.5 58,23.6045695 58,22.5 C58,21.3954305 58.8954305,20.5 60,20.5 L77.7374702,20.5 C78.8420397,20.5 79.7374702,21.3954305 79.7374702,22.5 C79.7374702,23.6045695 78.8420397,24.5 77.7374702,24.5 L60,24.5 Z"/>
      <path fill="#EAE3FF" d="M60,34.5 C58.8954305,34.5 58,33.6045695 58,32.5 C58,31.3954305 58.8954305,30.5 60,30.5 L97.7374702,30.5 C98.8420397,30.5 99.7374702,31.3954305 99.7374702,32.5 C99.7374702,33.6045695 98.8420397,34.5 97.7374702,34.5 L60,34.5 Z"/>
      <circle cx="31" cy="28" r="13" fill="#FF769A" opacity=".1"/>
      <path fill="#FFB3C6" d="M34.8494798,31.9710403 C34.8494798,32.523325 34.4017645,32.9710403 33.8494798,32.9710403 C33.297195,32.9710403 32.8494798,32.523325 32.8494798,31.9710403 C32.8494798,30.9986039 32.0275086,30.1989595 31,30.1989595 C29.9724914,30.1989595 29.1505202,30.9986039 29.1505202,31.9710403 C29.1505202,32.523325 28.702805,32.9710403 28.1505202,32.9710403 C27.5982355,32.9710403 27.1505202,32.523325 27.1505202,31.9710403 C27.1505202,29.8815208 28.8800601,28.1989595 31,28.1989595 C33.1199399,28.1989595 34.8494798,29.8815208 34.8494798,31.9710403 Z"/>
      <path fill="#FF769A" d="M31,30.0441615 C28.8800601,30.0441615 27.1505202,28.3616003 27.1505202,26.2720808 C27.1505202,24.1825613 28.8800601,22.5 31,22.5 C33.1199399,22.5 34.8494798,24.1825613 34.8494798,26.2720808 C34.8494798,28.3616003 33.1199399,30.0441615 31,30.0441615 Z M31,28.0441615 C32.0275086,28.0441615 32.8494798,27.2445171 32.8494798,26.2720808 C32.8494798,25.2996444 32.0275086,24.5 31,24.5 C29.9724914,24.5 29.1505202,25.2996444 29.1505202,26.2720808 C29.1505202,27.2445171 29.9724914,28.0441615 31,28.0441615 Z"/>
    </g>
    <g fill-rule="nonzero" transform="translate(418.22 454.94)">
      <circle cx="16" cy="16" r="16" fill="url(#hero-phone-ui-j)"/>
      <g fill="#FFF" transform="translate(9.5 8.005)">
        <path d="M1.60235995,6.98536025 L1.60235995,12.9853602 L11.6023599,12.9853602 L11.6023599,6.98536025 L1.60235995,6.98536025 Z M1.60235995,4.98536025 L11.6023599,4.98536025 C12.7069294,4.98536025 13.6023599,5.88079075 13.6023599,6.98536025 L13.6023599,12.9853602 C13.6023599,14.0899297 12.7069294,14.9853602 11.6023599,14.9853602 L1.60235995,14.9853602 C0.497790446,14.9853602 -0.397640054,14.0899297 -0.397640054,12.9853602 L-0.397640054,6.98536025 C-0.397640054,5.88079075 0.497790446,4.98536025 1.60235995,4.98536025 Z"/>
        <path d="M4.60235995,5.98536025 C4.60235995,6.537645 4.1546447,6.98536025 3.60235995,6.98536025 C3.0500752,6.98536025 2.60235995,6.537645 2.60235995,5.98536025 L2.60235995,3.26802193 C2.60235995,1.05888293 4.39322095,-0.731978073 6.60235995,-0.731978073 C8.81149895,-0.731978073 10.6023599,1.05888293 10.6023599,3.26802193 L10.6023599,5.98536025 C10.6023599,6.537645 10.1546447,6.98536025 9.60235995,6.98536025 C9.0500752,6.98536025 8.60235995,6.537645 8.60235995,5.98536025 L8.60235995,3.26802193 C8.60235995,2.16345243 7.70692945,1.26802193 6.60235995,1.26802193 C5.49779045,1.26802193 4.60235995,2.16345243 4.60235995,3.26802193 L4.60235995,5.98536025 Z"/>
      </g>
    </g>
    <g fill-rule="nonzero" filter="url(#hero-phone-ui-k)" transform="translate(190.725 132.634)">
      <path fill="url(#hero-phone-ui-l)" d="M8,0 L142,0 C146.418278,-8.11624501e-16 150,3.581722 150,8 L150,167 C150,171.418278 146.418278,175 142,175 L8,175 C3.581722,175 5.41083001e-16,171.418278 0,167 L0,8 C-5.41083001e-16,3.581722 3.581722,8.11624501e-16 8,0 Z"/>
      <g transform="translate(49.621 17.837)">
        <circle cx="25.143" cy="25.169" r="15.6" fill="#FFF"/>
        <path fill="url(#hero-phone-ui-m)" d="M25.1427773,49.5572903 C11.6118009,49.5572903 0.642777252,38.5882667 0.642777252,25.0572903 C0.642777252,11.526314 11.6118009,0.557290343 25.1427773,0.557290343 C38.6737536,0.557290343 49.6427773,11.526314 49.6427773,25.0572903 C49.6427773,38.5882667 38.6737536,49.5572903 25.1427773,49.5572903 Z M25.1427773,48.5572903 C38.1214689,48.5572903 48.6427773,38.035982 48.6427773,25.0572903 C48.6427773,12.0785987 38.1214689,1.55729034 25.1427773,1.55729034 C12.1640856,1.55729034 1.64277725,12.0785987 1.64277725,25.0572903 C1.64277725,38.035982 12.1640856,48.5572903 25.1427773,48.5572903 Z" opacity=".3"/>
        <path fill="#F3747B" d="M25.1427773,28.0809416 C22.3125581,28.0809416 20.0100771,25.8247318 20.0100771,23.0312931 C20.0100771,20.2378545 22.3125581,17.9816447 25.1427773,17.9816447 C27.9729964,17.9816447 30.2754774,20.2378545 30.2754774,23.0312931 C30.2754774,25.8247318 27.9729964,28.0809416 25.1427773,28.0809416 Z M25.1427773,26.0809416 C26.8774126,26.0809416 28.2754774,24.7109726 28.2754774,23.0312931 C28.2754774,21.3516137 26.8774126,19.9816447 25.1427773,19.9816447 C23.4081419,19.9816447 22.0100771,21.3516137 22.0100771,23.0312931 C22.0100771,24.7109726 23.4081419,26.0809416 25.1427773,26.0809416 Z"/>
        <path fill="#F3747B" d="M30.2754774,31.3567297 C30.2754774,31.9090144 29.8277621,32.3567297 29.2754774,32.3567297 C28.7231926,32.3567297 28.2754774,31.9090144 28.2754774,31.3567297 C28.2754774,29.6770502 26.8774126,28.3070812 25.1427773,28.3070812 C23.4081419,28.3070812 22.0100771,29.6770502 22.0100771,31.3567297 C22.0100771,31.9090144 21.5623619,32.3567297 21.0100771,32.3567297 C20.4577924,32.3567297 20.0100771,31.9090144 20.0100771,31.3567297 C20.0100771,28.563291 22.3125581,26.3070812 25.1427773,26.3070812 C27.9729964,26.3070812 30.2754774,28.563291 30.2754774,31.3567297 Z" opacity=".3"/>
      </g>
      <path fill="#FFF" d="M0,110 L150,110 L150,167 C150,171.418278 146.418278,175 142,175 L8,175 C3.581722,175 5.41083001e-16,171.418278 0,167 L0,110 Z"/>
      <path fill="#472A68" d="M24.2213461,126 L42.2213461,126 C46.0873393,126 49.2213461,129.134007 49.2213461,133 L49.2213461,151 C49.2213461,154.865993 46.0873393,158 42.2213461,158 L24.2213461,158 C20.3553528,158 17.2213461,154.865993 17.2213461,151 L17.2213461,133 C17.2213461,129.134007 20.3553528,126 24.2213461,126 Z M66.2213461,126 L84.2213461,126 C88.0873393,126 91.2213461,129.134007 91.2213461,133 L91.2213461,151 C91.2213461,154.865993 88.0873393,158 84.2213461,158 L66.2213461,158 C62.3553528,158 59.2213461,154.865993 59.2213461,151 L59.2213461,133 C59.2213461,129.134007 62.3553528,126 66.2213461,126 Z M108.221346,126 L126.221346,126 C130.087339,126 133.221346,129.134007 133.221346,133 L133.221346,151 C133.221346,154.865993 130.087339,158 126.221346,158 L108.221346,158 C104.355353,158 101.221346,154.865993 101.221346,151 L101.221346,133 C101.221346,129.134007 104.355353,126 108.221346,126 Z" opacity=".1"/>
      <path fill="#FFF" d="M66.352611,83.0766163 C65.2480415,83.0766163 64.352611,82.1811858 64.352611,81.0766163 C64.352611,79.9720468 65.2480415,79.0766163 66.352611,79.0766163 L84.0900812,79.0766163 C85.1946507,79.0766163 86.0900812,79.9720468 86.0900812,81.0766163 C86.0900812,82.1811858 85.1946507,83.0766163 84.0900812,83.0766163 L66.352611,83.0766163 Z"/>
      <path fill="#DCB7F3" d="M56.352611,93.0766163 C55.2480415,93.0766163 54.352611,92.1811858 54.352611,91.0766163 C54.352611,89.9720468 55.2480415,89.0766163 56.352611,89.0766163 L94.0900812,89.0766163 C95.1946507,89.0766163 96.0900812,89.9720468 96.0900812,91.0766163 C96.0900812,92.1811858 95.1946507,93.0766163 94.0900812,93.0766163 L56.352611,93.0766163 Z"/>
    </g>
    <g transform="translate(105.851 241.325)">
      <g transform="translate(13.2 328.9)">
        <g transform="translate(53.9)">
          <mask id="hero-phone-ui-q" fill="#fff">
            <use xlink:href="#hero-phone-ui-n"/>
          </mask>
          <use fill="url(#hero-phone-ui-o)" fill-rule="nonzero" transform="matrix(-1 0 0 1 49.417 0)" xlink:href="#hero-phone-ui-n"/>
          <path fill="url(#hero-phone-ui-p)" fill-rule="nonzero" d="M-1.70032552,10.6408878 C22.0928402,13.3861559 34.6750217,10.9391933 36.046219,3.3 C37.4174163,-4.33919329 25.4020099,-6.17128283 4.6629367e-15,-2.19626861 L-1.70032552,10.6408878 Z" mask="url(#hero-phone-ui-q)"/>
        </g>
        <mask id="hero-phone-ui-u" fill="#fff">
          <use xlink:href="#hero-phone-ui-r"/>
        </mask>
        <use fill="url(#hero-phone-ui-s)" fill-rule="nonzero" transform="matrix(-1 0 0 1 41.715 0)" xlink:href="#hero-phone-ui-r"/>
        <path fill="url(#hero-phone-ui-t)" fill-rule="nonzero" d="M3.50228131,7.11290849 C17.0798951,10.817494 27.5353687,10.4036971 34.868702,5.8715177 C42.2020354,1.3393383 32.412468,-1.65723596 5.5,-3.11820508 L3.50228131,7.11290849 Z" mask="url(#hero-phone-ui-u)"/>
      </g>
      <g transform="translate(19.8 144.1)">
        <mask id="hero-phone-ui-x" fill="#fff">
          <use xlink:href="#hero-phone-ui-v"/>
        </mask>
        <use fill="url(#hero-phone-ui-w)" fill-rule="nonzero" xlink:href="#hero-phone-ui-v"/>
        <path fill="#151731" fill-rule="nonzero" d="M42.617338,55 C36.2926352,56.2749914 31.8633962,59.0329588 29.3296209,63.2739022 C25.528958,69.6353174 30.6882522,85.6174746 24.2591291,89.0961099 C17.8300061,92.5747451 29.6954241,124.611753 28.2193924,132.12316 C27.2353713,137.130765 28.3825858,140.134912 31.6610357,141.135599 L42.617338,55 Z" mask="url(#hero-phone-ui-x)" opacity=".3"/>
        <path fill="#151731" fill-rule="nonzero" d="M83.4515584,10.4664568 C78.8372216,29.2036649 68.7660841,38.572269 53.238146,38.572269 C29.9462389,38.572269 49.0933556,50.7857195 25.3,56.7970853 C1.50664442,62.808451 16.094202,105.833211 1.62895604,105.833211 C-8.01454126,105.833211 -5.2621446,69.4910606 9.88614602,-3.19323943 L83.4515584,10.4664568 Z" mask="url(#hero-phone-ui-x)" opacity=".3"/>
      </g>
      <g transform="translate(8.8 48.4)">
        <mask id="hero-phone-ui-A" fill="#fff">
          <use xlink:href="#hero-phone-ui-y"/>
        </mask>
        <use fill="url(#hero-phone-ui-z)" fill-rule="nonzero" xlink:href="#hero-phone-ui-y"/>
        <path fill="#373A5B" fill-rule="nonzero" d="M84.4621171,38.0667665 C86.4430672,31.3232037 91.7113851,27.268237 100.267071,25.9018662 C113.100599,23.8523102 113.328123,12.3398948 121.387876,10.1097081 C126.761044,8.6229169 123.725032,13.426267 112.27984,24.5197583 L84.4621171,38.0667665 Z" mask="url(#hero-phone-ui-A)" opacity=".3"/>
        <g fill="#FFF" fill-rule="nonzero" mask="url(#hero-phone-ui-A)" opacity=".3">
          <g transform="translate(-7.7 12.1)">
            <circle cx="25.3" cy="14.3" r="3.3"/>
            <circle cx="47.3" cy="14.3" r="3.3"/>
            <circle cx="69.3" cy="14.3" r="3.3"/>
            <circle cx="91.3" cy="14.3" r="3.3"/>
            <circle cx="36.3" cy="3.3" r="3.3"/>
            <circle cx="58.3" cy="3.3" r="3.3"/>
            <circle cx="80.3" cy="3.3" r="3.3"/>
            <circle cx="102.3" cy="3.3" r="3.3"/>
            <circle cx="113.3" cy="14.3" r="3.3"/>
            <circle cx="14.3" cy="25.3" r="3.3"/>
            <circle cx="36.3" cy="25.3" r="3.3"/>
            <circle cx="58.3" cy="25.3" r="3.3"/>
            <circle cx="80.3" cy="25.3" r="3.3"/>
            <circle cx="102.3" cy="25.3" r="3.3"/>
            <circle cx="3.3" cy="36.3" r="3.3"/>
            <circle cx="25.3" cy="36.3" r="3.3"/>
            <circle cx="47.3" cy="36.3" r="3.3"/>
            <circle cx="69.3" cy="36.3" r="3.3"/>
            <circle cx="91.3" cy="36.3" r="3.3"/>
            <circle cx="14.3" cy="47.3" r="3.3"/>
            <circle cx="36.3" cy="47.3" r="3.3"/>
            <circle cx="58.3" cy="47.3" r="3.3"/>
            <circle cx="80.3" cy="47.3" r="3.3"/>
            <circle cx="102.3" cy="47.3" r="3.3"/>
            <circle cx="3.3" cy="58.3" r="3.3"/>
            <circle cx="25.3" cy="58.3" r="3.3"/>
            <circle cx="47.3" cy="58.3" r="3.3"/>
            <circle cx="69.3" cy="58.3" r="3.3"/>
            <circle cx="91.3" cy="58.3" r="3.3"/>
            <circle cx="14.3" cy="69.3" r="3.3"/>
            <circle cx="36.3" cy="69.3" r="3.3"/>
            <circle cx="58.3" cy="69.3" r="3.3"/>
            <circle cx="80.3" cy="69.3" r="3.3"/>
            <circle cx="102.3" cy="69.3" r="3.3"/>
            <circle cx="3.3" cy="80.3" r="3.3"/>
            <circle cx="25.3" cy="80.3" r="3.3"/>
            <circle cx="47.3" cy="80.3" r="3.3"/>
            <circle cx="69.3" cy="80.3" r="3.3"/>
            <circle cx="91.3" cy="80.3" r="3.3"/>
            <circle cx="14.3" cy="91.3" r="3.3"/>
            <circle cx="36.3" cy="91.3" r="3.3"/>
            <circle cx="58.3" cy="91.3" r="3.3"/>
            <circle cx="80.3" cy="91.3" r="3.3"/>
            <circle cx="102.3" cy="91.3" r="3.3"/>
            <circle cx="3.3" cy="102.3" r="3.3"/>
            <circle cx="25.3" cy="102.3" r="3.3"/>
            <circle cx="47.3" cy="102.3" r="3.3"/>
            <circle cx="69.3" cy="102.3" r="3.3"/>
          </g>
        </g>
        <circle cx="83.6" cy="114.4" r="3.3" fill="#FFF" fill-rule="nonzero" mask="url(#hero-phone-ui-A)" opacity=".3"/>
        <path fill="#373A5B" fill-rule="nonzero" d="M123.462143 21.8923139C124.338079 28.0307222 126.573326 31.0999264 130.167883 31.0999264 133.762441 31.0999264 136.285303 29.2454986 137.736467 25.5366432L126.100237 18.5818378 123.462143 21.8923139zM69.5482676 10.9619271C63.7362884 51.5109391 51.858961 73.937871 33.9162853 78.2427226 15.9736097 82.5475742 2.90964091 82.5-5.27562105 78.1L.424713008 34.1 58.3 4.43434257 69.5482676 10.9619271z" mask="url(#hero-phone-ui-A)" opacity=".3"/>
        <path fill="#FFD5D7" fill-rule="nonzero" d="M96.3910437,7.23527306 C91.9276906,2.74359547 98.6312252,-0.284702933 102.127882,0.984580962 C105.624538,2.25386486 113.238626,10.4252743 111.643837,17.3141644 C110.049048,24.2030545 104.141152,26.6503225 102.845634,25.2346293 C99.8119436,21.7632748 100.854397,11.7269507 96.3910437,7.23527306 Z"/>
      </g>
      <path fill="url(#hero-phone-ui-B)" fill-rule="nonzero" d="M8.95850689,64.9 C8.11177152,56.8203185 5.15117192,51.7182748 0.0767080729,49.593869 L22.5014388,19.6825573 C23.7332072,14.5151375 24.748513,11.2642704 25.5473563,9.92995606 C26.1257179,8.96391415 30.2732928,6.55170042 32.4943693,5.54443556 C33.3349735,5.16321903 38.4549253,1.18788312 39.2907637,1.1 C40.6634094,0.955674979 39.9664961,3.70067671 36.9494361,6.29147241 C33.6633914,9.11324952 39.4155671,12.9686499 37.5941531,17.9059359 C36.6087966,20.5769306 35.0671233,22.2560223 32.9691334,22.9432111 C19.6637391,48.8211651 11.4355729,62.4641194 8.95850689,64.9 Z" transform="translate(110.928 .054)"/>
      <g transform="translate(50.6 22)">
        <path fill="url(#hero-phone-ui-C)" fill-rule="nonzero" d="M19.7729278,0.638247554 C22.3705548,3.83626105 24.0734792,7.13413818 24.8817011,10.5318789 C27.5292633,21.6621522 26.6635008,32.0635591 21.6753708,33.3072396 C19.9597532,33.7349911 18.1425533,33.6855273 16.3246185,33.2624768 L16.0840145,38.5753783 C16.5128507,43.5033054 16.0841744,45.9672689 14.7979854,45.9672689 C12.868702,45.9672689 3.88928802,43.8500807 0.448648327,36.8046746 C2.87157129,36.4612742 17.5073154,12.4530234 19.7729278,0.638247554 Z" transform="translate(6.6)"/>
      </g>
      <path fill="url(#hero-phone-ui-D)" fill-rule="nonzero" d="M80.264641,26.4056845 C79.5046726,25.0873873 78.0809665,24.2 76.45,24.2 C74.0199471,24.2 72.05,26.1699471 72.05,28.6 C72.05,31.0300529 74.0199471,33 76.45,33 C77.6679693,33 78.7703542,32.5051247 79.56705,31.7054789 C78.7034866,36.9937782 77.3497523,42.6414011 75.9403615,48.4 C70.5534476,70.4102729 57.4498603,111.909594 29.8899433,108.57432 C2.33002624,105.239046 -5.35420488,87.9968617 4.62557586,68.4014145 C14.6053566,48.8059672 34.4829453,48.4 36.8216699,31.970795 C39.1603946,15.54159 44.8982391,-3.8006892 65.3996745,1.1 C78.6992662,4.27915134 81.4463984,13.9762853 80.264641,26.4056845 L80.264641,26.4056845 Z" transform="translate(0 12.1)"/>
    </g>
  </g>
</svg>
