<?xml version="1.0" encoding="utf-8"?>
<!-- Generator: Adobe Illustrator 24.0.3, SVG Export Plug-In . SVG Version: 6.00 Build 0)  -->
<svg version="1.1" id="Layer_1" xmlns="http://www.w3.org/2000/svg" xmlns:xlink="http://www.w3.org/1999/xlink" x="0px" y="0px"
	 viewBox="0 0 1166 958.3" style="enable-background:new 0 0 1166 958.3;" xml:space="preserve">
<style type="text/css">
	.st0{fill:#879DAF;}
	.st1{fill:#CDDBE8;}
	.st2{fill:#F9FBFC;}
</style>
<g>
	<path class="st0" d="M435.2,153.2h8.2l-11.9,35.7h-8.2l-7.4-25.8l-7.5,25.8h-8.1l-11.7-35.7h8.5l7.6,27.4l7.6-27.4h7.8l7.7,27.4
		L435.2,153.2z"/>
	<path class="st0" d="M463.9,165c2.3,2.6,3.4,6.1,3.4,10.7c0,0.8,0,1.4-0.1,1.9h-19.3c0.4,1.7,1.3,3.1,2.5,4.1s2.7,1.4,4.5,1.4
		c1.3,0,2.5-0.2,3.7-0.7s2.2-1.2,3.2-2.1l4.1,4.2c-1.4,1.5-3,2.8-5,3.6s-4.1,1.2-6.5,1.2c-2.8,0-5.3-0.6-7.4-1.7
		c-2.1-1.1-3.8-2.8-4.9-4.9c-1.1-2.1-1.7-4.6-1.7-7.4c0-2.8,0.6-5.3,1.8-7.4c1.2-2.1,2.8-3.8,4.9-5s4.5-1.7,7.2-1.7
		C458.3,161.2,461.6,162.5,463.9,165z M460,173c-0.1-1.8-0.6-3.3-1.7-4.4s-2.5-1.6-4.3-1.6c-1.7,0-3.1,0.5-4.2,1.6s-1.8,2.6-2.1,4.4
		H460z"/>
	<path class="st0" d="M493.8,163c1.9,1.2,3.4,2.9,4.5,5s1.6,4.6,1.6,7.5c0,2.8-0.5,5.2-1.6,7.2c-1,2.1-2.5,3.7-4.4,4.9
		c-1.9,1.1-4.1,1.7-6.6,1.7c-1.9,0-3.5-0.4-5-1.1s-2.7-1.8-3.7-3.2v4h-7.7v-38h7.7v14.5c1-1.4,2.2-2.5,3.6-3.2
		c1.5-0.7,3.1-1.1,4.9-1.1C489.7,161.2,491.9,161.8,493.8,163z M490.2,180.7c1.2-1.4,1.9-3.3,1.9-5.5s-0.6-4-1.9-5.4
		c-1.2-1.4-2.8-2.1-4.8-2.1s-3.6,0.7-4.8,2.1c-1.3,1.4-1.9,3.3-1.9,5.4c0,2.2,0.6,4.1,1.9,5.5s2.9,2.1,4.8,2.1
		C487.3,182.7,488.9,182,490.2,180.7z"/>
</g>
<g>
	<path class="st0" d="M616.8,392.5c-2-0.7-3.7-1-5.2-1c-1.4,0-2.5,0.3-3.3,0.8s-1.2,1.2-1.2,2.2c0,1.2,0.6,2.2,1.7,2.9
		c1.2,0.7,2.9,1.3,5.3,2c2.4,0.7,4.4,1.4,5.9,2.1s2.9,1.8,4,3.3c1.1,1.4,1.7,3.4,1.7,5.7c0,2.2-0.6,4.3-1.8,5.9s-2.8,2.9-4.9,3.8
		c-2.1,0.8-4.4,1.3-7.1,1.3c-2.8,0-5.6-0.5-8.4-1.5c-2.7-1-5.1-2.5-7.1-4.2l3.2-6.6c1.8,1.6,3.8,3,6.1,4s4.4,1.5,6.3,1.5
		c1.6,0,2.9-0.3,3.8-0.9c0.9-0.6,1.4-1.5,1.4-2.7c0-0.9-0.3-1.6-0.9-2.2c-0.6-0.6-1.4-1.1-2.4-1.4c-1-0.4-2.3-0.8-3.9-1.3
		c-2.4-0.7-4.4-1.3-5.9-2s-2.8-1.7-3.9-3.2c-1.1-1.4-1.7-3.3-1.7-5.6c0-2.1,0.6-4.1,1.7-5.6c1.1-1.6,2.7-2.9,4.8-3.8
		c2-0.9,4.4-1.3,7.1-1.3c2.4,0,4.8,0.4,7.1,1.1s4.4,1.6,6.2,2.9l-3.1,6.7C620.8,394.1,618.8,393.3,616.8,392.5z"/>
	<path class="st0" d="M651,397.1c2.3,2.6,3.4,6.1,3.4,10.7c0,0.8,0,1.4-0.1,1.9H635c0.4,1.7,1.3,3.1,2.5,4.1s2.7,1.4,4.5,1.4
		c1.3,0,2.5-0.2,3.7-0.7s2.2-1.2,3.2-2.1l4.1,4.2c-1.4,1.5-3,2.8-5,3.6c-2,0.8-4.1,1.2-6.5,1.2c-2.8,0-5.3-0.6-7.4-1.7
		c-2.1-1.1-3.8-2.8-4.9-4.9s-1.7-4.6-1.7-7.4s0.6-5.3,1.8-7.4s2.8-3.8,4.9-5c2.1-1.2,4.5-1.7,7.2-1.7
		C645.5,393.3,648.8,394.6,651,397.1z M647.2,405.1c-0.1-1.8-0.6-3.3-1.7-4.4c-1.1-1.1-2.5-1.6-4.3-1.6c-1.7,0-3.1,0.5-4.2,1.6
		c-1.1,1.1-1.8,2.6-2.1,4.4H647.2z"/>
	<path class="st0" d="M673.5,421v-3.3c-0.9,1.1-2.1,2-3.5,2.7s-3.1,0.9-5,0.9c-2.8,0-5.1-0.8-6.8-2.3c-1.7-1.6-2.5-3.7-2.5-6.2
		c0-2.6,0.9-4.6,2.7-6s4.3-2.1,7.6-2.2h7.4V404c0-1.4-0.5-2.6-1.4-3.4s-2.3-1.2-4.2-1.2c-2.5,0-5.2,0.8-8,2.5l-2.4-5.4
		c2.1-1.1,4.1-1.9,6-2.5s3.9-0.8,6.2-0.8c3.6,0,6.4,0.9,8.4,2.7s3,4.2,3,7.2l0.1,18L673.5,421L673.5,421z M671.3,414.6
		c1.2-0.8,1.9-1.7,2.1-3v-2.5h-6.1c-1.5,0-2.6,0.2-3.3,0.7s-1.1,1.3-1.1,2.3s0.4,1.9,1.1,2.6c0.8,0.6,1.8,0.9,3.1,0.9
		C668.8,415.8,670.1,415.4,671.3,414.6z"/>
	<path class="st0" d="M697.4,394.6c1.5-0.9,3.3-1.3,5.3-1.4v7.5c-0.3,0-0.7,0-1.2,0c-2.4,0-4.3,0.6-5.6,1.9
		c-1.4,1.3-2.1,3.1-2.1,5.2V421h-7.7v-27.6h7.7v5C694.7,396.8,695.9,395.5,697.4,394.6z"/>
	<path class="st0" d="M717.2,400c-1.9,0-3.5,0.7-4.7,2s-1.8,3.2-1.8,5.3c0,2.2,0.6,4,1.8,5.4s2.7,2,4.6,2c2.8,0,4.9-1.1,6.3-3.3
		l5.3,3.7c-1.1,1.9-2.7,3.5-4.8,4.5s-4.5,1.6-7.2,1.6s-5.1-0.6-7.2-1.7c-2.1-1.1-3.7-2.8-4.8-4.9c-1.2-2.1-1.7-4.6-1.7-7.4
		s0.6-5.3,1.7-7.4c1.2-2.1,2.8-3.8,4.9-5c2.1-1.2,4.5-1.7,7.2-1.7c2.6,0,4.9,0.5,6.9,1.5s3.6,2.5,4.8,4.3l-5.2,3.9
		C721.7,400.9,719.7,400,717.2,400z"/>
	<path class="st0" d="M756.3,396.1c1.8,1.9,2.7,4.5,2.7,7.7V421h-7.7v-15c0-1.7-0.5-3.1-1.4-4.1s-2.2-1.5-3.9-1.5
		c-1.9,0-3.4,0.7-4.5,2s-1.7,3-1.7,5V421h-7.7v-38h7.7v15.3c1.9-3.4,5-5.1,9.3-5.2C752.1,393.3,754.5,394.2,756.3,396.1z"/>
</g>
<g>
	<path class="st0" d="M624.7,911.4l-5.6-10.2h-0.8H611v10.2h-7.9v-35.8h15.2c4.6,0,8.1,1.1,10.6,3.3s3.8,5.2,3.8,9.2
		c0,2.8-0.6,5.1-1.7,7c-1.1,1.9-2.7,3.5-4.9,4.5l7.5,11.8H624.7L624.7,911.4z M611.1,894.4h7.3c2.2,0,3.9-0.5,5.1-1.5
		c1.2-1,1.8-2.6,1.8-4.6c0-1.9-0.6-3.5-1.8-4.5s-2.9-1.5-5.1-1.5h-7.3V894.4z"/>
	<path class="st0" d="M659.1,887.5c2.3,2.6,3.4,6.1,3.4,10.7c0,0.8,0,1.4-0.1,1.9h-19.3c0.4,1.7,1.3,3.1,2.5,4.1s2.7,1.4,4.5,1.4
		c1.3,0,2.5-0.2,3.7-0.7s2.2-1.2,3.2-2.1l4.1,4.2c-1.4,1.5-3,2.8-5,3.6s-4.1,1.2-6.5,1.2c-2.8,0-5.3-0.6-7.4-1.7
		c-2.1-1.1-3.8-2.8-4.9-4.9c-1.1-2.1-1.7-4.6-1.7-7.4s0.6-5.3,1.8-7.4c1.2-2.1,2.8-3.8,4.9-5c2.1-1.2,4.5-1.7,7.2-1.7
		C653.6,883.6,656.9,884.9,659.1,887.5z M655.3,895.3c-0.1-1.8-0.6-3.3-1.7-4.4c-1.1-1.1-2.5-1.6-4.3-1.6c-1.7,0-3.1,0.5-4.2,1.6
		c-1.1,1.1-1.8,2.6-2.1,4.4H655.3z"/>
	<path class="st0" d="M689.1,885.3c1.9,1.2,3.4,2.9,4.5,5s1.6,4.6,1.6,7.5c0,2.8-0.5,5.2-1.6,7.2c-1,2.1-2.5,3.7-4.4,4.9
		c-1.9,1.1-4.1,1.7-6.6,1.7c-1.9,0-3.5-0.4-5-1.1c-1.5-0.7-2.7-1.8-3.7-3.2v13.9h-7.7v-37.5h7.7v4.1c1-1.4,2.2-2.5,3.6-3.2
		c1.5-0.7,3.1-1.1,4.9-1.1C684.9,883.6,687.1,884.2,689.1,885.3z M685.4,903c1.2-1.4,1.9-3.3,1.9-5.5s-0.6-4-1.9-5.4
		c-1.2-1.4-2.8-2.1-4.8-2.1s-3.6,0.7-4.8,2.1c-1.3,1.4-1.9,3.3-1.9,5.4c0,2.2,0.6,4.1,1.9,5.5c1.3,1.4,2.9,2.1,4.8,2.1
		C682.6,905.1,684.2,904.4,685.4,903z"/>
	<path class="st0" d="M724.2,883.8v27.6h-7.7v-4.9c-1.8,3.5-4.8,5.2-9,5.2c-3,0-5.3-0.9-7.1-2.9c-1.8-1.9-2.6-4.5-2.6-7.7v-17.3h7.7
		v15c0,1.7,0.5,3.1,1.4,4.1s2.1,1.5,3.7,1.5c1.8,0,3.3-0.7,4.4-2c1.1-1.3,1.6-3,1.6-5v-13.6L724.2,883.8L724.2,883.8L724.2,883.8z"
		/>
	<path class="st0" d="M746.7,909.8c-1,0.6-2.1,1.1-3.3,1.4s-2.4,0.5-3.7,0.5c-2.5,0-4.5-0.7-6.1-2.2c-1.6-1.4-2.4-3.6-2.4-6.3v-12.8
		h-3.8V885h3.8v-7.6h7.7v7.6h7.3v5.5h-7.3v11.3c0,2.1,0.8,3.2,2.5,3.2c1.1,0,2.4-0.3,3.8-1L746.7,909.8z"/>
	<path class="st0" d="M765.3,911.4v-3.3c-0.9,1.1-2.1,2-3.5,2.7c-1.4,0.6-3.1,0.9-5,0.9c-2.8,0-5.1-0.8-6.8-2.3
		c-1.7-1.6-2.5-3.7-2.5-6.2c0-2.6,0.9-4.6,2.7-6s4.3-2.1,7.6-2.2h7.4v-0.5c0-1.4-0.5-2.6-1.4-3.4c-0.9-0.8-2.3-1.2-4.2-1.2
		c-2.5,0-5.2,0.8-8,2.5l-2.4-5.4c2.1-1.1,4.1-1.9,6-2.5s3.9-0.8,6.2-0.8c3.6,0,6.4,0.9,8.4,2.7c2,1.7,3,4.2,3,7.2l0.1,18
		L765.3,911.4L765.3,911.4z M763.1,904.9c1.2-0.8,1.9-1.7,2.1-3v-2.5h-6.1c-1.5,0-2.6,0.2-3.3,0.7s-1.1,1.3-1.1,2.3s0.4,1.9,1.1,2.6
		c0.8,0.6,1.8,0.9,3.1,0.9C760.6,906.1,762,905.7,763.1,904.9z"/>
	<path class="st0" d="M794.5,909.8c-1,0.6-2.1,1.1-3.3,1.4s-2.4,0.5-3.7,0.5c-2.5,0-4.5-0.7-6.1-2.2c-1.6-1.4-2.4-3.6-2.4-6.3v-12.8
		h-3.8V885h3.8v-7.6h7.7v7.6h7.3v5.5h-7.3v11.3c0,2.1,0.8,3.2,2.5,3.2c1.1,0,2.4-0.3,3.8-1L794.5,909.8z"/>
	<path class="st0" d="M804.4,872.9c0.8,0.8,1.2,1.8,1.2,3.2c0,1.3-0.4,2.3-1.2,3.2c-0.8,0.8-1.8,1.2-3,1.2s-2.2-0.4-3-1.2
		s-1.2-1.8-1.2-3.2c0-1.3,0.4-2.3,1.2-3.2c0.8-0.8,1.8-1.2,3-1.2S803.6,872.1,804.4,872.9z M797.6,883.8h7.7v27.6h-7.7V883.8z"/>
	<path class="st0" d="M830.7,885.3c2.2,1.1,3.9,2.8,5.1,4.9c1.2,2.1,1.8,4.6,1.8,7.4s-0.6,5.2-1.8,7.4c-1.2,2.1-2.9,3.8-5.1,5
		c-2.2,1.2-4.7,1.7-7.5,1.7c-2.9,0-5.4-0.6-7.6-1.7c-2.2-1.2-3.9-2.9-5.1-5c-1.2-2.1-1.8-4.6-1.8-7.4s0.6-5.2,1.8-7.4
		c1.2-2.1,2.9-3.8,5.1-4.9c2.2-1.1,4.7-1.7,7.6-1.7C826,883.6,828.6,884.2,830.7,885.3z M818.3,892.3c-1.3,1.4-1.9,3.3-1.9,5.5
		s0.6,4.1,1.9,5.5c1.3,1.4,2.9,2.1,4.9,2.1s3.6-0.7,4.8-2.1c1.2-1.4,1.9-3.3,1.9-5.5s-0.6-4.1-1.9-5.5s-2.9-2.1-4.8-2.1
		C821.2,890.1,819.6,890.8,818.3,892.3z"/>
	<path class="st0" d="M865.3,886.5c1.8,1.9,2.7,4.5,2.7,7.7v17.3h-7.7v-15c0-1.7-0.5-3.1-1.4-4.1c-1-1-2.2-1.5-3.9-1.5
		c-1.9,0-3.4,0.7-4.5,2s-1.7,3-1.7,5v13.6h-7.7v-27.6h7.7v4.8c1.9-3.4,5-5,9.3-5.1C861.1,883.5,863.5,884.5,865.3,886.5z"/>
</g>
<g>
	<path class="st0" d="M848.3,524.8c-2-0.7-3.8-1-5.2-1s-2.5,0.3-3.3,0.8s-1.2,1.2-1.2,2.2c0,1.2,0.6,2.2,1.7,2.9
		c1.2,0.7,2.9,1.3,5.3,2c2.4,0.7,4.4,1.4,5.9,2.1c1.6,0.7,2.9,1.8,4,3.3s1.7,3.4,1.7,5.7c0,2.2-0.6,4.3-1.8,5.9s-2.8,2.9-4.9,3.8
		c-2.1,0.8-4.4,1.3-7.1,1.3c-2.8,0-5.6-0.5-8.4-1.5c-2.7-1-5.1-2.5-7.1-4.2l3.2-6.6c1.8,1.6,3.8,3,6.1,4s4.4,1.5,6.3,1.5
		c1.6,0,2.9-0.3,3.8-0.9c0.9-0.6,1.4-1.5,1.4-2.7c0-0.9-0.3-1.6-0.9-2.2c-0.6-0.6-1.4-1.1-2.4-1.4c-1-0.4-2.3-0.8-3.9-1.3
		c-2.4-0.7-4.4-1.3-5.9-2s-2.8-1.7-3.9-3.2c-1.1-1.4-1.7-3.3-1.7-5.6c0-2.1,0.6-4.1,1.7-5.6c1.1-1.6,2.7-2.9,4.8-3.8
		c2-0.9,4.4-1.3,7.1-1.3c2.4,0,4.8,0.4,7.1,1.1c2.3,0.7,4.4,1.6,6.2,2.9l-3.1,6.7C852.2,526.3,850.3,525.4,848.3,524.8z"/>
	<path class="st0" d="M873,532.2c-1.9,0-3.5,0.7-4.7,2s-1.8,3.2-1.8,5.3s0.6,4,1.8,5.4s2.7,2,4.6,2c2.8,0,4.9-1.1,6.3-3.3l5.3,3.7
		c-1.1,1.9-2.7,3.5-4.8,4.5s-4.5,1.6-7.2,1.6s-5.1-0.6-7.2-1.7c-2.1-1.1-3.7-2.8-4.8-4.9c-1.2-2.1-1.7-4.6-1.7-7.4s0.6-5.3,1.7-7.4
		c1.2-2.1,2.8-3.8,4.9-5c2.1-1.2,4.5-1.7,7.2-1.7c2.6,0,4.9,0.5,6.9,1.5s3.6,2.5,4.8,4.3l-5.2,3.9
		C877.5,533.1,875.5,532.2,873,532.2z"/>
	<path class="st0" d="M912.1,528.3c1.8,1.9,2.7,4.5,2.7,7.7v17.3h-7.7v-15c0-1.7-0.5-3.1-1.4-4.1c-1-1-2.2-1.5-3.9-1.5
		c-1.9,0-3.4,0.7-4.5,2s-1.7,3-1.7,5v13.6h-7.7v-38h7.7v15.3c1.9-3.4,5-5.1,9.3-5.2C907.9,525.5,910.4,526.4,912.1,528.3z"/>
	<path class="st0" d="M941.3,529.4c2.3,2.6,3.4,6.1,3.4,10.7c0,0.8,0,1.4-0.1,1.9h-19.3c0.4,1.7,1.3,3.1,2.5,4.1s2.7,1.4,4.5,1.4
		c1.3,0,2.5-0.2,3.7-0.7s2.2-1.2,3.2-2.1l4.1,4.2c-1.4,1.5-3,2.8-5,3.6s-4.1,1.2-6.5,1.2c-2.8,0-5.3-0.6-7.4-1.7
		c-2.1-1.1-3.8-2.8-4.9-4.9c-1.2-2.1-1.7-4.6-1.7-7.4s0.6-5.3,1.8-7.4c1.2-2.1,2.8-3.8,4.9-5c2.1-1.2,4.5-1.7,7.2-1.7
		C935.7,525.5,939,526.8,941.3,529.4z M937.4,537.2c-0.1-1.8-0.6-3.3-1.7-4.4c-1.1-1.1-2.5-1.6-4.3-1.6c-1.7,0-3.1,0.5-4.2,1.6
		c-1.1,1.1-1.8,2.6-2.1,4.4H937.4z"/>
	<path class="st0" d="M974.6,515.4v38h-7.7v-4.1c-1,1.4-2.2,2.6-3.6,3.3c-1.4,0.7-3.1,1.1-4.9,1.1c-2.5,0-4.8-0.6-6.7-1.7
		c-1.9-1.2-3.4-2.9-4.5-5s-1.6-4.6-1.6-7.5c0-2.8,0.5-5.2,1.6-7.4c1-2.1,2.5-3.8,4.4-4.9c1.9-1.1,4.1-1.7,6.6-1.7
		c3.8,0,6.7,1.4,8.7,4.4v-14.5L974.6,515.4L974.6,515.4z M965.1,545.1c1.3-1.4,1.9-3.3,1.9-5.5s-0.6-4.1-1.9-5.5
		c-1.3-1.4-2.9-2.1-4.8-2.1c-2,0-3.6,0.7-4.9,2.1c-1.3,1.4-1.9,3.3-1.9,5.5s0.7,4.1,1.9,5.5c1.3,1.4,2.9,2.1,4.9,2.1
		C962.2,547.2,963.9,546.5,965.1,545.1z"/>
	<path class="st0" d="M1006.3,525.8v27.6h-7.7v-4.9c-1.8,3.5-4.8,5.2-9,5.2c-3,0-5.3-0.9-7.1-2.9c-1.8-1.9-2.6-4.5-2.6-7.7v-17.3
		h7.7v15c0,1.7,0.5,3.1,1.4,4.1s2.1,1.5,3.7,1.5c1.8,0,3.3-0.7,4.4-2c1.1-1.3,1.6-3,1.6-5v-13.6L1006.3,525.8L1006.3,525.8
		L1006.3,525.8z"/>
	<path class="st0" d="M1012.4,515.4h7.7v38h-7.7V515.4z"/>
	<path class="st0" d="M1047.6,529.4c2.3,2.6,3.4,6.1,3.4,10.7c0,0.8,0,1.4-0.1,1.9h-19.3c0.4,1.7,1.3,3.1,2.5,4.1s2.7,1.4,4.5,1.4
		c1.3,0,2.5-0.2,3.7-0.7s2.2-1.2,3.2-2.1l4.1,4.2c-1.4,1.5-3,2.8-5,3.6s-4.1,1.2-6.5,1.2c-2.8,0-5.3-0.6-7.4-1.7
		c-2.1-1.1-3.8-2.8-4.9-4.9c-1.2-2.1-1.7-4.6-1.7-7.4s0.6-5.3,1.8-7.4c1.2-2.1,2.8-3.8,4.9-5s4.5-1.7,7.2-1.7
		C1042.1,525.5,1045.4,526.8,1047.6,529.4z M1043.7,537.2c-0.1-1.8-0.6-3.3-1.7-4.4c-1.1-1.1-2.5-1.6-4.3-1.6
		c-1.7,0-3.1,0.5-4.2,1.6s-1.8,2.6-2.1,4.4H1043.7z"/>
</g>
<g>
	<path class="st0" d="M325.9,888.5h26.7v6.7h-18.8v7.8h16.9v6.7h-16.9v8h19.3v6.7h-27.2V888.5z"/>
	<path class="st0" d="M381.8,899.3c1.8,1.9,2.7,4.5,2.7,7.7v17.3h-7.7v-15c0-1.7-0.5-3.1-1.4-4.1c-1-1-2.2-1.5-3.9-1.5
		c-1.9,0-3.4,0.7-4.5,2s-1.7,3-1.7,5v13.6h-7.7v-27.6h7.7v4.8c1.9-3.4,5-5,9.3-5.1C377.6,896.5,380,897.5,381.8,899.3z"/>
	<path class="st0" d="M414.7,896.8v25c0,2.6-0.6,4.9-1.8,6.7c-1.2,1.9-2.9,3.4-5.1,4.5c-2.2,1-4.7,1.5-7.5,1.5c-2.2,0-4.3-0.3-6.3-1
		c-2-0.6-3.8-1.5-5.4-2.7l2.9-5.5c2.5,1.8,5.3,2.8,8.4,2.8c2.2,0,4-0.5,5.3-1.6s2-2.6,2-4.5v-3.2c-0.9,1.3-2,2.2-3.4,3s-2.9,1-4.7,1
		c-2.3,0-4.4-0.5-6.1-1.6c-1.8-1.1-3.2-2.7-4.2-4.7s-1.5-4.3-1.5-6.9c0-2.6,0.5-4.9,1.5-6.8s2.4-3.5,4.2-4.6
		c1.8-1.1,3.8-1.6,6.1-1.6c1.7,0,3.3,0.3,4.7,1c1.4,0.7,2.5,1.6,3.5,3v-3.8L414.7,896.8L414.7,896.8z M405.3,914.9
		c1.2-1.3,1.8-3.1,1.8-5.1c0-2.1-0.6-3.9-1.8-5.2c-1.2-1.3-2.7-2-4.6-2s-3.4,0.7-4.6,2s-1.8,3.1-1.8,5.2c0,2.1,0.6,3.9,1.8,5.1
		c1.2,1.3,2.7,1.9,4.6,1.9C402.6,916.9,404.1,916.3,405.3,914.9z"/>
	<path class="st0" d="M435.8,924.3V921c-0.9,1.1-2.1,2-3.5,2.7c-1.4,0.6-3.1,0.9-5,0.9c-2.8,0-5.1-0.8-6.8-2.3
		c-1.7-1.6-2.5-3.7-2.5-6.2s0.9-4.6,2.7-6c1.8-1.4,4.3-2.1,7.6-2.2h7.4v-0.5c0-1.4-0.5-2.6-1.4-3.4s-2.3-1.2-4.2-1.2
		c-2.5,0-5.2,0.8-8,2.5l-2.4-5.4c2.1-1.1,4.1-1.9,6-2.5s3.9-0.8,6.2-0.8c3.6,0,6.4,0.9,8.4,2.7c2,1.7,3,4.2,3,7.2l0.1,18
		L435.8,924.3L435.8,924.3z M433.6,917.9c1.2-0.8,1.9-1.7,2.1-3v-2.5h-6.1c-1.5,0-2.6,0.2-3.3,0.7c-0.7,0.5-1.1,1.3-1.1,2.3
		s0.4,1.9,1.1,2.6c0.8,0.6,1.8,0.9,3.1,0.9C431.1,919,432.4,918.6,433.6,917.9z"/>
	<path class="st0" d="M473.6,896.8v25c0,2.6-0.6,4.9-1.8,6.7c-1.2,1.9-2.9,3.4-5.1,4.5c-2.2,1-4.7,1.5-7.5,1.5c-2.2,0-4.3-0.3-6.3-1
		c-2-0.6-3.8-1.5-5.4-2.7l2.9-5.5c2.5,1.8,5.3,2.8,8.4,2.8c2.2,0,4-0.5,5.3-1.6s2-2.6,2-4.5v-3.2c-0.9,1.3-2,2.2-3.4,3s-2.9,1-4.7,1
		c-2.3,0-4.4-0.5-6.1-1.6c-1.8-1.1-3.2-2.7-4.2-4.7s-1.5-4.3-1.5-6.9c0-2.6,0.5-4.9,1.5-6.8s2.4-3.5,4.2-4.6
		c1.8-1.1,3.8-1.6,6.1-1.6c1.7,0,3.3,0.3,4.7,1c1.4,0.7,2.5,1.6,3.5,3v-3.8L473.6,896.8L473.6,896.8z M464.2,914.9
		c1.2-1.3,1.8-3.1,1.8-5.1c0-2.1-0.6-3.9-1.8-5.2c-1.2-1.3-2.7-2-4.6-2s-3.4,0.7-4.6,2s-1.8,3.1-1.8,5.2c0,2.1,0.6,3.9,1.8,5.1
		c1.2,1.3,2.7,1.9,4.6,1.9C461.5,916.9,463,916.3,464.2,914.9z"/>
	<path class="st0" d="M500.5,900.3c2.3,2.6,3.4,6.1,3.4,10.7c0,0.8,0,1.4-0.1,1.9h-19.3c0.4,1.7,1.3,3.1,2.5,4.1s2.7,1.4,4.5,1.4
		c1.3,0,2.5-0.2,3.7-0.7s2.2-1.2,3.2-2.1l4.1,4.2c-1.4,1.5-3,2.8-5,3.6s-4.1,1.2-6.5,1.2c-2.8,0-5.3-0.6-7.4-1.7
		c-2.1-1.1-3.8-2.8-4.9-4.9c-1.2-2.1-1.7-4.6-1.7-7.4s0.6-5.3,1.8-7.4c1.2-2.1,2.8-3.8,4.9-5s4.5-1.7,7.2-1.7
		C494.9,896.6,498.2,897.8,500.5,900.3z M496.6,908.3c-0.1-1.8-0.6-3.3-1.7-4.4c-1.1-1.1-2.5-1.6-4.3-1.6c-1.7,0-3.1,0.5-4.2,1.6
		s-1.8,2.6-2.1,4.4H496.6z"/>
</g>
<g>
	<path class="st0" d="M246.5,491.2c-1.6-0.8-3.2-1.2-4.9-1.2c-2,0-3.8,0.5-5.4,1.5c-1.6,1-2.9,2.3-3.9,4.1c-0.9,1.7-1.4,3.6-1.4,5.7
		c0,2,0.5,4,1.4,5.7s2.2,3.1,3.9,4.1c1.6,1,3.4,1.5,5.4,1.5c1.6,0,3.2-0.4,4.8-1.1c1.6-0.8,3.1-1.8,4.3-3.1l4.7,5.2
		c-1.9,1.9-4.1,3.6-6.6,4.7c-2.5,1.1-5.1,1.7-7.6,1.7c-3.4,0-6.6-0.8-9.4-2.5c-2.8-1.6-5-3.9-6.6-6.6c-1.6-2.9-2.4-6-2.4-9.5
		s0.8-6.5,2.5-9.4c1.6-2.8,3.9-5,6.7-6.6c2.9-1.6,6-2.5,9.5-2.5c2.5,0,5,0.5,7.5,1.6s4.6,2.6,6.3,4.4l-4.6,5.8
		C249.6,493.1,248.2,492,246.5,491.2z"/>
	<path class="st0" d="M277.4,493.2c2.2,1.1,3.9,2.8,5.1,4.9s1.8,4.6,1.8,7.4s-0.6,5.2-1.8,7.4c-1.2,2.1-2.9,3.8-5.1,5
		s-4.7,1.7-7.5,1.7c-2.9,0-5.4-0.6-7.6-1.7c-2.2-1.2-3.9-2.9-5.1-5c-1.2-2.1-1.8-4.6-1.8-7.4s0.6-5.2,1.8-7.4
		c1.2-2.1,2.9-3.8,5.1-4.9s4.7-1.7,7.6-1.7C272.7,491.5,275.2,492,277.4,493.2z M265,500.1c-1.3,1.4-1.9,3.3-1.9,5.5
		s0.6,4.1,1.9,5.5s2.9,2.1,4.9,2.1s3.6-0.7,4.8-2.1c1.3-1.4,1.9-3.3,1.9-5.5s-0.6-4.1-1.9-5.5s-2.9-2.1-4.8-2.1
		C267.9,498,266.2,498.7,265,500.1z"/>
	<path class="st0" d="M312,494.2c1.8,1.9,2.7,4.5,2.7,7.7v17.3h-7.8v-15c0-1.7-0.5-3.1-1.4-4.1c-1-1-2.2-1.5-3.9-1.5
		c-1.9,0-3.4,0.7-4.5,2s-1.7,3-1.7,5v13.6h-7.7v-27.6h7.7v4.8c1.9-3.4,5-5,9.3-5.1C307.8,491.4,310.2,492.4,312,494.2z"/>
	<path class="st0" d="M336.4,517.7c-1,0.6-2.1,1.1-3.3,1.4c-1.2,0.3-2.4,0.5-3.7,0.5c-2.5,0-4.5-0.7-6.1-2.2
		c-1.6-1.4-2.4-3.6-2.4-6.3v-12.8h-3.8v-5.4h3.8v-7.6h7.7v7.6h7.3v5.5h-7.3v11.3c0,2.1,0.8,3.2,2.5,3.2c1.1,0,2.4-0.3,3.8-1
		L336.4,517.7z"/>
	<path class="st0" d="M360.6,495.3c2.3,2.6,3.4,6.1,3.4,10.7c0,0.8,0,1.4-0.1,1.9h-19.3c0.4,1.7,1.3,3.1,2.5,4.1s2.7,1.4,4.5,1.4
		c1.3,0,2.5-0.2,3.7-0.7s2.2-1.2,3.2-2.1l4.1,4.2c-1.4,1.5-3,2.8-5,3.6s-4.1,1.2-6.5,1.2c-2.8,0-5.3-0.6-7.4-1.7s-3.8-2.8-4.9-4.9
		c-1.1-2.1-1.7-4.6-1.7-7.4s0.6-5.3,1.8-7.4c1.2-2.1,2.8-3.8,4.9-5s4.5-1.7,7.2-1.7C355.1,491.5,358.4,492.7,360.6,495.3z
		 M356.7,503.2c-0.1-1.8-0.6-3.3-1.7-4.4s-2.5-1.6-4.3-1.6c-1.7,0-3.1,0.5-4.2,1.6s-1.8,2.6-2.1,4.4H356.7z"/>
	<path class="st0" d="M391.6,494.2c1.8,1.9,2.7,4.5,2.7,7.7v17.3h-7.7v-15c0-1.7-0.5-3.1-1.4-4.1s-2.2-1.5-3.9-1.5
		c-1.9,0-3.4,0.7-4.5,2s-1.7,3-1.7,5v13.6h-7.7v-27.6h7.7v4.8c1.9-3.4,5-5,9.3-5.1C387.5,491.4,389.9,492.4,391.6,494.2z"/>
	<path class="st0" d="M416,517.7c-1,0.6-2.1,1.1-3.3,1.4c-1.2,0.3-2.4,0.5-3.7,0.5c-2.5,0-4.5-0.7-6.1-2.2c-1.6-1.4-2.4-3.6-2.4-6.3
		v-12.8h-3.8v-5.4h3.8v-7.6h7.7v7.6h7.3v5.5h-7.3v11.3c0,2.1,0.8,3.2,2.5,3.2c1.1,0,2.4-0.3,3.8-1L416,517.7z"/>
</g>
<g>
	<path class="st0" d="M173.1,719.9h7.9v28.8h15v7h-22.9V719.9z"/>
	<path class="st0" d="M220.4,731.9c2.3,2.6,3.4,6.1,3.4,10.7c0,0.8,0,1.4-0.1,1.9h-19.3c0.4,1.7,1.3,3.1,2.5,4.1s2.7,1.4,4.5,1.4
		c1.3,0,2.5-0.2,3.7-0.7s2.2-1.2,3.2-2.1l4.1,4.2c-1.4,1.5-3,2.8-5,3.6s-4.1,1.2-6.5,1.2c-2.8,0-5.3-0.6-7.4-1.7
		c-2.1-1.1-3.8-2.8-4.9-4.9s-1.7-4.6-1.7-7.4s0.6-5.3,1.8-7.4c1.2-2.1,2.8-3.8,4.9-5c2.1-1.2,4.5-1.7,7.2-1.7
		C214.9,728,218.2,729.3,220.4,731.9z M216.5,739.7c-0.1-1.8-0.6-3.3-1.7-4.4c-1.1-1.1-2.5-1.6-4.3-1.6c-1.7,0-3.1,0.5-4.2,1.6
		c-1.1,1.1-1.8,2.6-2.1,4.4H216.5z"/>
	<path class="st0" d="M242.8,755.7v-3.2c-0.9,1.1-2.1,2-3.5,2.7c-1.4,0.6-3.1,0.9-5,0.9c-2.8,0-5.1-0.8-6.8-2.3
		c-1.7-1.6-2.5-3.7-2.5-6.2s0.9-4.6,2.7-6s4.3-2.1,7.6-2.2h7.4v-0.5c0-1.4-0.5-2.6-1.4-3.4s-2.3-1.2-4.2-1.2c-2.5,0-5.2,0.8-8,2.5
		l-2.4-5.4c2.1-1.1,4.1-1.9,6-2.5s3.9-0.8,6.2-0.8c3.6,0,6.4,0.9,8.4,2.7c2,1.7,3,4.2,3,7.2l0.1,18h-7.6V755.7z M240.7,749.3
		c1.2-0.8,1.9-1.7,2.1-3v-2.5h-6.1c-1.5,0-2.6,0.2-3.3,0.7s-1.1,1.3-1.1,2.3s0.4,1.9,1.1,2.6c0.8,0.6,1.8,0.9,3.1,0.9
		C238.1,750.5,239.5,750.1,240.7,749.3z"/>
	<path class="st0" d="M282,717.8v38h-7.6v-4.1c-1,1.4-2.2,2.6-3.6,3.3s-3.1,1.1-4.9,1.1c-2.5,0-4.8-0.6-6.7-1.7
		c-1.9-1.2-3.4-2.9-4.5-5s-1.6-4.6-1.6-7.5c0-2.8,0.5-5.2,1.6-7.4c1-2.1,2.5-3.8,4.4-4.9c1.9-1.1,4.1-1.7,6.6-1.7
		c3.8,0,6.7,1.4,8.7,4.4v-14.5L282,717.8L282,717.8z M272.5,747.6c1.3-1.4,1.9-3.3,1.9-5.5s-0.6-4.1-1.9-5.5s-2.9-2.1-4.8-2.1
		c-2,0-3.6,0.7-4.9,2.1c-1.3,1.4-1.9,3.3-1.9,5.5s0.7,4.1,1.9,5.5c1.3,1.4,2.9,2.1,4.9,2.1C269.6,749.7,271.2,749,272.5,747.6z"/>
	<path class="st0" d="M300.7,734.4c-1.4-0.5-2.7-0.7-3.9-0.7c-0.9,0-1.7,0.2-2.3,0.5s-0.9,0.8-0.9,1.5s0.4,1.3,1.2,1.7
		c0.8,0.4,2,0.9,3.8,1.4c1.9,0.6,3.5,1.1,4.7,1.7c1.2,0.6,2.3,1.4,3.2,2.6c0.9,1.1,1.4,2.6,1.4,4.4c0,2.8-1,4.9-3.1,6.3
		c-2.1,1.5-4.7,2.2-7.9,2.2c-2.2,0-4.3-0.3-6.4-1c-2-0.7-3.8-1.6-5.3-2.9l2.5-5.3c1.4,1.1,2.9,1.9,4.6,2.6c1.7,0.6,3.3,0.9,4.8,0.9
		c1,0,1.9-0.2,2.5-0.5c0.6-0.4,0.9-0.9,0.9-1.6c0-0.8-0.4-1.4-1.2-1.8c-0.8-0.4-2-0.9-3.8-1.4s-3.4-1.1-4.6-1.6s-2.3-1.3-3.1-2.5
		c-0.9-1.1-1.3-2.6-1.3-4.3c0-2.8,1-4.8,3-6.3s4.5-2.2,7.6-2.2c1.8,0,3.7,0.3,5.5,0.8s3.5,1.3,5,2.2l-2.7,5.4
		C303.6,735.4,302.1,734.8,300.7,734.4z"/>
</g>
<g>
	<path class="st0" d="M874.2,268.9c-2-0.7-3.7-1-5.2-1c-1.4,0-2.5,0.3-3.3,0.8s-1.2,1.2-1.2,2.2c0,1.2,0.6,2.2,1.7,2.9
		c1.2,0.7,2.9,1.3,5.3,2c2.4,0.7,4.4,1.4,5.9,2.1s2.9,1.8,4,3.3c1.1,1.4,1.7,3.4,1.7,5.7c0,2.2-0.6,4.3-1.8,5.9s-2.8,2.9-4.9,3.8
		c-2.1,0.8-4.4,1.3-7.1,1.3c-2.8,0-5.6-0.5-8.4-1.5c-2.7-1-5.1-2.5-7.1-4.2l3.2-6.6c1.8,1.6,3.8,3,6.1,4s4.4,1.5,6.3,1.5
		c1.6,0,2.9-0.3,3.8-0.9c0.9-0.6,1.4-1.5,1.4-2.7c0-0.9-0.3-1.6-0.9-2.2c-0.6-0.6-1.4-1.1-2.4-1.4c-1-0.4-2.3-0.8-3.9-1.3
		c-2.4-0.7-4.4-1.3-5.9-2s-2.8-1.7-3.9-3.2c-1.1-1.4-1.7-3.3-1.7-5.6c0-2.1,0.6-4.1,1.7-5.6c1.1-1.6,2.7-2.9,4.8-3.8
		c2-0.9,4.4-1.3,7.1-1.3c2.4,0,4.8,0.4,7.1,1.1s4.4,1.6,6.2,2.9l-2.9,6.6C878.1,270.4,876.2,269.6,874.2,268.9z"/>
	<path class="st0" d="M906.7,271.4c2.2,1.1,3.9,2.8,5.1,4.9c1.2,2.1,1.8,4.6,1.8,7.4s-0.6,5.2-1.8,7.4c-1.2,2.1-2.9,3.8-5.1,5
		c-2.2,1.2-4.7,1.7-7.5,1.7c-2.9,0-5.4-0.6-7.6-1.7c-2.2-1.2-3.9-2.9-5.1-5c-1.2-2.1-1.8-4.6-1.8-7.4s0.6-5.2,1.8-7.4
		c1.2-2.1,2.9-3.8,5.1-4.9c2.2-1.1,4.7-1.7,7.6-1.7C902,269.6,904.5,270.2,906.7,271.4z M894.2,278.3c-1.3,1.4-1.9,3.3-1.9,5.5
		s0.6,4.1,1.9,5.5c1.3,1.4,2.9,2.1,4.9,2.1s3.6-0.7,4.8-2.1c1.3-1.4,1.9-3.3,1.9-5.5s-0.6-4.1-1.9-5.5c-1.3-1.4-2.9-2.1-4.8-2.1
		C897.1,276.2,895.5,276.8,894.2,278.3z"/>
	<path class="st0" d="M929,276.3c-1.9,0-3.5,0.7-4.7,2s-1.8,3.2-1.8,5.3s0.6,4,1.8,5.4s2.7,2,4.6,2c2.8,0,4.9-1.1,6.3-3.3l5.3,3.7
		c-1.1,1.9-2.7,3.5-4.8,4.5s-4.5,1.6-7.2,1.6s-5.1-0.6-7.2-1.7c-2.1-1.1-3.7-2.8-4.8-4.9c-1.2-2.1-1.7-4.6-1.7-7.4s0.6-5.3,1.7-7.4
		c1.2-2.1,2.8-3.8,4.9-5c2.1-1.2,4.5-1.7,7.2-1.7c2.6,0,4.9,0.5,6.9,1.5s3.6,2.5,4.8,4.3l-5.2,3.9
		C933.5,277.4,931.5,276.3,929,276.3z"/>
	<path class="st0" d="M950.4,258.9c0.8,0.8,1.2,1.8,1.2,3.2c0,1.3-0.4,2.3-1.2,3.2s-1.8,1.2-3,1.2s-2.2-0.4-3-1.2
		c-0.8-0.8-1.2-1.8-1.2-3.2s0.4-2.3,1.2-3.2c0.8-0.8,1.8-1.2,3-1.2S949.6,258.1,950.4,258.9z M943.6,269.9h7.7v27.6h-7.7V269.9z"/>
	<path class="st0" d="M972.7,297.5v-3.3c-0.9,1.1-2.1,2-3.5,2.7s-3.1,0.9-5,0.9c-2.8,0-5.1-0.8-6.8-2.3c-1.7-1.6-2.5-3.7-2.5-6.2
		c0-2.6,0.9-4.6,2.7-6s4.3-2.1,7.6-2.2h7.4v-0.5c0-1.4-0.5-2.6-1.4-3.4s-2.3-1.2-4.2-1.2c-2.5,0-5.2,0.8-8,2.5l-2.4-5.4
		c2.1-1.1,4.1-1.9,6-2.5s3.9-0.8,6.2-0.8c3.6,0,6.4,0.9,8.4,2.7s3,4.2,3,7.2l0.1,18L972.7,297.5L972.7,297.5z M970.5,290.9
		c1.2-0.8,1.9-1.7,2.1-3v-2.5h-6.1c-1.5,0-2.6,0.2-3.3,0.7s-1.1,1.3-1.1,2.3s0.4,1.9,1.1,2.6c0.8,0.6,1.8,0.9,3.1,0.9
		C968,292.2,969.3,291.8,970.5,290.9z"/>
	<path class="st0" d="M985.5,259.5h7.7v38h-7.7V259.5z"/>
</g>
<path class="st1" d="M386,753.2l-4.1-0.7l0.3-2.1c22.5-138.9,59.7-260.8,110.3-362.3c50.7-101.5,112.9-195.6,185.1-279.9l1.4-1.6
	l3.1,2.8l-1.4,1.6c-71.8,84.1-133.9,178-184.4,279.1s-87.5,222.6-109.9,361.1L386,753.2z"/>
<path class="st1" d="M434.4,713.2c-42.5,0-91.6-12.3-146.5-36.6l-1.9-0.8l1.7-3.9l1.9,0.8c65.7,29.1,123,40.7,170.2,34.6
	c47-6.1,86.5-30,117.5-71l1.3-1.7l3.3,2.7l-1.3,1.7c-31.7,42-72.2,66.4-120.3,72.6C451.9,712.7,443.3,713.2,434.4,713.2z"/>
<path class="st1" d="M291.9,339.1l-0.6-2c-8.9-33.1-7.4-67.5,4.5-102.2c11.8-34.6,34.6-71.3,67.8-109.1l1.4-1.6l3.1,2.9l-1.4,1.6
	c-32.8,37.4-55.3,73.5-66.9,107.6c-11.6,33.9-13.1,67.5-4.4,99.7l0.6,2L291.9,339.1z"/>
<path class="st1" d="M356.7,347.3l-3.1-2.9l1.4-1.6c46.4-53.4,107.5-92.2,181.5-115.2c73.9-23,164.7-31.1,269.8-24.5l2.1,0.1
	l-0.3,4.3l-2.1-0.1c-104.6-6.7-194.9,1.5-268.4,24.3c-73.3,22.8-133.8,61.1-179.6,114L356.7,347.3z"/>
<path class="st1" d="M175.8,598.6l-1.2-1.3c-58.9-66-85.5-130-79.1-190.1c6.5-60.1,28.8-107,66.4-139.3l1.4-1.2l2.4,2.8l-1.4,1.2
	c-36.8,31.7-58.8,77.8-65.1,136.8c-6.4,59.1,19.9,122.1,78.1,187.3l1.2,1.3L175.8,598.6z"/>
<path class="st1" d="M742.7,722.8l-4-1.1l0.6-2c6.5-24.1,3.9-45.7-7.9-64.3c-11.9-18.7-33.8-35.3-65.1-49.3l-1.9-0.8l1.7-3.9
	l1.9,0.8c32.1,14.4,54.6,31.5,66.9,51c12.4,19.6,15.3,42.4,8.4,67.8L742.7,722.8z"/>
<path class="st1" d="M529.7,495.8l-1.2-1.7c-12.1-17.5-29.1-31-50.5-40.3c-21.5-9.3-48.7-14.6-80.7-15.8l-2.1-0.1l0.2-4.3l2.1,0.1
	c32.5,1.2,60.1,6.7,82.1,16.2c22.1,9.5,39.7,23.6,52.3,41.8l1.2,1.7L529.7,495.8z"/>
<path class="st1" d="M527.4,68.9l-2.5-3.5l1.7-1.2c28.5-21.1,54.5-32.5,77.3-33.7s46.6,4.3,70.7,16.2l1.9,0.9l-1.8,3.9l-1.9-0.9
	c-23.5-11.6-46.6-17-68.7-15.8c-22,1.1-47.3,12.3-75.1,32.9L527.4,68.9z"/>
<path class="st1" d="M244.4,141.3l-3.2-2.7l1.3-1.6c18.3-22.9,37-39.4,55.5-49.1s39.4-16.2,62.2-19.3l2.1-0.3l0.6,4.2l-2.1,0.3
	c-22.3,3.1-42.8,9.4-60.8,18.9s-36.2,25.6-54.2,48.1L244.4,141.3z"/>
<path class="st1" d="M225.3,424.4l-2-0.5c-22.1-5.5-34.6-19.6-37.2-41.7c-2.5-21.4,3-54.5,16.4-98.3l0.6-2l4,1.2l-0.6,2
	c-13.2,43.2-18.6,75.7-16.2,96.5c2.4,20.4,13.5,32.9,34,38l2,0.5L225.3,424.4z"/>
<path class="st1" d="M969.4,685.7l-1.8-3.7l1.5-1.1c60.7-46.2,93.4-86.3,97.2-119.2s-13.1-74.8-50.1-124.7l-1.1-1.5l2.5-2.9l1.1,1.5
	c37.7,50.9,55,93.9,51,128.1s-37.2,75.4-98.8,122.2L969.4,685.7z"/>
<path class="st1" d="M985.5,377.9l-3-2.1l0.8-1.8c40.6-86.4,50.7-153.9,30.1-200.8C992.7,126.3,932.7,91.6,835,70l-1.8-0.4l0.7-4.2
	l1.8,0.4c98.8,21.9,159.7,57.4,180.9,105.5c21.3,48.2,11.1,117-30.2,204.8L985.5,377.9z"/>
<path class="st1" d="M324.8,838.3L323,838c-113-9.7-181.5-42.9-203.6-98.4c-22-55.7,5.8-144.7,83-264.7l1.1-1.7l2.9,2.6l-1.1,1.7
	c-76.2,118.7-104,206.3-82.5,260.3c21.4,54.1,88.9,86.4,200.5,96l1.8,0.2L324.8,838.3z"/>
<path class="st1" d="M542.8,400c-40.9,0-71.5-13.6-91-40.4c-20.5-28.3-29.3-72.7-26.3-132.1l0.1-2.1l4.2,0.2l-0.1,2.1
	c-3,58.4,5.6,102,25.5,129.4c19.8,27.3,51.7,40.2,94.9,38.5l2.1-0.1l0.2,4.3l-2.1,0.1C547.8,399.9,545.3,400,542.8,400z"/>
<path class="st1" d="M651.6,808.6l-2.1-0.1c-61.9-2.2-119.2-24.3-170.3-65.6c-51-41.2-98.4-103.6-140.8-185.9l-1-1.8l3.7-1.9l1,1.8
	c42.1,81.7,89.2,143.8,139.7,184.5c50.4,40.6,106.9,62.4,167.9,64.6l2.1,0.1L651.6,808.6z"/>
<path class="st2" d="M652.9,57c-1,0-1.9-0.8-2.1-1.8c-0.1-1.1,0.7-2.2,1.8-2.3l24.9-3.3c1.2-0.1,2.2,0.7,2.3,1.8s-0.7,2.2-1.8,2.3
	L653.1,57C653.1,57,653,57,652.9,57z"/>
<path class="st2" d="M678.3,53.9c-1,0-1.9-0.8-2.1-1.8l-3.5-25.3c-0.2-1.1,0.6-2.2,1.8-2.5s2.2,0.6,2.4,1.8l3.5,25.3
	c0.2,1.1-0.6,2.2-1.8,2.5C678.5,53.9,678.4,53.9,678.3,53.9z"/>
<path class="st1" d="M526.5,69.2c-0.2,0-0.4,0-0.5-0.1c-1.1-0.3-1.8-1.4-1.5-2.7l6.4-24.7c0.3-1.1,1.4-1.8,2.6-1.5
	c1.1,0.3,1.8,1.4,1.5,2.7l-6.4,24.7C528.3,68.5,527.5,69.2,526.5,69.2z"/>
<path class="st1" d="M550.5,75.8c-0.2,0-0.3,0-0.5-0.1l-24.3-6.2c-1.1-0.3-1.8-1.4-1.5-2.6s1.4-1.8,2.5-1.5l24.3,6.2
	c1.1,0.3,1.8,1.4,1.5,2.6C552.3,75.2,551.4,75.8,550.5,75.8z"/>
<path class="st1" d="M349,92.5c-0.5,0-0.9-0.1-1.3-0.5c-0.9-0.7-1-2-0.3-3l15.7-19.9c0.7-0.9,2-1,2.9-0.3s1,2,0.3,3l-15.7,19.9
	C350.2,92.2,349.6,92.5,349,92.5z"/>
<path class="st1" d="M365.2,72.2c-0.4,0-0.9-0.1-1.3-0.4l-19.7-15.7c-0.9-0.7-1.1-2-0.4-3s2-1.1,2.9-0.4l19.8,15.7
	c0.9,0.7,1.1,2,0.4,3C366.5,72,365.9,72.2,365.2,72.2z"/>
<path class="st1" d="M366.8,153.9c-1.1,0-2.1-0.9-2.1-2l-0.5-25.5c0-1.2,0.9-2.1,2-2.1c1.2,0,2.1,0.9,2.1,2l0.5,25.5
	C368.9,152.9,368,153.9,366.8,153.9C366.9,153.9,366.8,153.9,366.8,153.9z"/>
<path class="st1" d="M341.5,128.7c-1.1,0-2-0.9-2.1-2c0-1.2,0.9-2.1,2-2.2l25-0.9c1.1,0,2.1,0.9,2.2,2c0,1.2-0.9,2.1-2,2.2
	L341.5,128.7L341.5,128.7z"/>
<path class="st1" d="M294.1,344.9c-0.4,0-0.8-0.1-1.2-0.4l-20.8-14.2c-1-0.6-1.2-1.9-0.6-3s1.9-1.2,2.9-0.6l20.8,14.2
	c1,0.6,1.2,1.9,0.6,3C295.5,344.5,294.8,344.9,294.1,344.9z"/>
<path class="st1" d="M294.5,345.4c-0.4,0-0.8-0.1-1.1-0.3c-1-0.6-1.2-1.9-0.6-3l13.6-21.4c0.6-1,1.9-1.2,2.9-0.6s1.2,1.9,0.6,3
	l-13.6,21.4C295.8,345.1,295.1,345.4,294.5,345.4z"/>
<path class="st1" d="M242.3,144c-1.1,0-2-0.9-2.1-2l-1.4-25.5c-0.1-1.2,0.8-2.1,2-2.2s2.1,0.8,2.2,2l1.4,25.5
	C244.5,143,243.6,143.9,242.3,144C242.4,144,242.3,144,242.3,144z"/>
<path class="st1" d="M242.1,144.6c-1.1,0-2-0.8-2.1-1.9c-0.1-1.1,0.8-2.1,1.9-2.2l25-1.7c1.2-0.1,2.1,0.8,2.2,1.9
	c0.1,1.1-0.8,2.1-1.9,2.2L242.1,144.6C242.2,144.6,242.1,144.6,242.1,144.6z"/>
<path class="st1" d="M165,295.5c-0.1,0-0.2,0-0.2,0c-1-0.1-1.7-1.2-1.6-2.3l2.6-25.4c0.1-1.1,1-2,2-1.8c1,0.1,1.7,1.2,1.6,2.3
	l-2.6,25.4C166.7,294.7,165.9,295.5,165,295.5z"/>
<path class="st1" d="M167.8,269.6c-0.1,0-0.1,0-0.2,0l-21.8-2.8c-1-0.1-1.7-1.1-1.7-2.3c0.1-1.1,1-2,2-1.9l21.7,2.7
	c1,0.1,1.7,1.1,1.7,2.3C169.5,268.8,168.7,269.6,167.8,269.6z"/>
<path class="st1" d="M213.7,309.3c-0.9,0-1.8-0.6-2-1.5l-6.6-24.7c-0.3-1.1,0.4-2.3,1.5-2.7c1.1-0.3,2.3,0.4,2.6,1.5l6.6,24.7
	c0.3,1.1-0.4,2.3-1.5,2.7C214.1,309.3,213.9,309.3,213.7,309.3z"/>
<path class="st1" d="M183.1,291c-0.9,0-1.7-0.6-2-1.5c-0.3-1.1,0.3-2.3,1.4-2.7l24.1-7c1.1-0.3,2.3,0.3,2.6,1.4s-0.3,2.3-1.4,2.7
	l-24.1,7C183.5,291,183.3,291,183.1,291z"/>
<path class="st1" d="M203.9,436.3c-0.8,0-1.6-0.5-1.9-1.3c-0.4-1.1,0.1-2.3,1.2-2.8l23.4-9.3c1.1-0.4,2.3,0.1,2.7,1.2
	s-0.1,2.3-1.2,2.8l-23.4,9.3C204.4,436.2,204.2,436.3,203.9,436.3z"/>
<path class="st1" d="M227.9,427.1c-0.8,0-1.6-0.5-1.9-1.3l-9.4-23.7c-0.4-1.1,0.1-2.3,1.2-2.8c1.1-0.4,2.3,0.1,2.7,1.2l9.4,23.7
	c0.4,1.1-0.1,2.3-1.2,2.8C228.4,427.1,228.1,427.1,227.9,427.1z"/>
<path class="st1" d="M158.3,601.5c-0.9,0-1.7-0.7-1.8-1.6c-0.1-1,0.6-1.9,1.6-2l21.7-2.8c1-0.1,1.9,0.6,2,1.6s-0.6,1.9-1.6,2
	l-21.7,2.8C158.4,601.5,158.4,601.5,158.3,601.5z"/>
<path class="st1" d="M180.4,598.9c-0.9,0-1.7-0.7-1.8-1.6l-3-21.9c-0.2-1,0.5-1.9,1.6-2.1c1-0.2,1.9,0.5,2.1,1.6l3,21.9
	c0.2,1-0.5,1.9-1.6,2.1C180.6,598.9,180.5,598.9,180.4,598.9z"/>
<path class="st1" d="M307.9,855.6c-0.5,0-1.1-0.3-1.5-0.8c-0.6-0.9-0.4-2.2,0.3-3l17.3-15.5c0.8-0.7,1.9-0.5,2.5,0.4s0.4,2.2-0.3,3
	L309,855.2C308.7,855.5,308.3,855.6,307.9,855.6z"/>
<path class="st1" d="M325.8,840c-0.5,0-1-0.3-1.4-0.8L311,819.1c-0.6-0.9-0.4-2.2,0.3-3c0.8-0.7,1.9-0.6,2.5,0.4l13.4,20.1
	c0.6,0.9,0.4,2.2-0.3,3C326.6,839.9,326.2,840,325.8,840z"/>
<path class="st1" d="M531.5,499.1c-0.1,0-0.3,0-0.4,0l-24.6-4.8c-1.1-0.2-1.9-1.3-1.7-2.5c0.2-1.1,1.3-1.9,2.4-1.7l24.6,4.8
	c1.1,0.2,1.9,1.3,1.7,2.5C533.3,498.4,532.5,499.1,531.5,499.1z"/>
<path class="st1" d="M532,499.6c-0.1,0-0.2,0-0.4,0c-1.1-0.2-1.9-1.3-1.7-2.5l4.4-25.2c0.2-1.1,1.3-1.9,2.4-1.7
	c1.1,0.2,1.9,1.3,1.7,2.5l-4.4,25.2C533.9,498.8,533,499.6,532,499.6z"/>
<path class="st1" d="M285.1,672.9c-1,0-1.8-0.7-2-1.7c-0.2-1.1,0.5-2.2,1.6-2.6l24.6-5c1.1-0.2,2.2,0.5,2.5,1.6
	c0.2,1.1-0.5,2.2-1.6,2.6l-24.6,5C285.4,672.9,285.2,672.9,285.1,672.9z"/>
<path class="st1" d="M289.7,697.9c-1,0-1.8-0.7-2-1.7l-5.2-25c-0.2-1.1,0.5-2.2,1.6-2.6c1.1-0.2,2.2,0.5,2.5,1.6l5.2,25
	c0.2,1.1-0.5,2.2-1.6,2.6C290,697.9,289.9,697.9,289.7,697.9z"/>
<path class="st1" d="M362.6,560.8c-0.2,0-0.3,0-0.5-0.1l-24.4-5.6c-1.1-0.3-1.8-1.4-1.6-2.6c0.3-1.1,1.4-1.8,2.5-1.6l24.4,5.6
	c1.1,0.3,1.8,1.4,1.6,2.6C364.4,560.1,363.5,560.8,362.6,560.8z"/>
<path class="st1" d="M332.4,579.8c-0.1,0-0.3,0-0.4,0c-1.1-0.2-1.8-1.3-1.6-2.6l5.2-25c0.2-1.1,1.4-1.8,2.5-1.6s1.8,1.3,1.6,2.6
	l-5.2,25C334.3,579.1,333.4,579.8,332.4,579.8z"/>
<path class="st1" d="M585.8,662.5c-1,0-1.9-0.8-2.1-1.8l-3.2-25.4c-0.1-1.1,0.7-2.2,1.8-2.3s2.2,0.7,2.3,1.8l3.2,25.4
	c0.1,1.1-0.7,2.2-1.8,2.3C586,662.5,585.9,662.5,585.8,662.5z"/>
<path class="st1" d="M558,640.2c-1,0-1.9-0.8-2.1-1.8c-0.2-1.1,0.6-2.2,1.8-2.5l24.8-3.6c1.1-0.2,2.2,0.6,2.4,1.8
	c0.2,1.1-0.6,2.2-1.8,2.5l-24.8,3.6C558.2,640.2,558.1,640.2,558,640.2z"/>
<path class="st1" d="M385,756.3c-0.6,0-1.3-0.3-1.7-0.8l-15.2-20.3c-0.7-0.9-0.5-2.2,0.4-3s2.2-0.5,2.9,0.4l15.2,20.3
	c0.7,0.9,0.5,2.2-0.4,3C385.9,756.2,385.4,756.3,385,756.3z"/>
<path class="st1" d="M385.1,756.9c-0.6,0-1.2-0.3-1.6-0.8c-0.7-0.9-0.5-2.2,0.4-3l19.7-15.7c0.9-0.7,2.2-0.6,2.9,0.4
	c0.7,0.9,0.5,2.2-0.4,3l-19.7,15.7C386,756.7,385.6,756.9,385.1,756.9z"/>
<path class="st1" d="M490.5,807.6c-0.3,0-0.5-0.1-0.8-0.2c-1.1-0.4-1.6-1.7-1.1-2.8l9.7-23.6c0.4-1.1,1.7-1.6,2.7-1.1
	c1.1,0.4,1.6,1.7,1.1,2.8l-9.7,23.6C492.1,807.1,491.3,807.6,490.5,807.6z"/>
<path class="st1" d="M513.3,817.6c-0.3,0-0.5,0-0.8-0.2l-23.2-9.6c-1.1-0.4-1.6-1.6-1.2-2.8s1.6-1.6,2.7-1.2l23.2,9.6
	c1.1,0.4,1.6,1.6,1.2,2.8C514.9,817.1,514.2,817.6,513.3,817.6z"/>
<path class="st1" d="M636.3,826.7c-0.6,0-1.1-0.2-1.5-0.7c-0.8-0.9-0.7-2.2,0.1-3l18.5-17.2c0.9-0.8,2.2-0.7,2.9,0.1
	c0.8,0.9,0.7,2.2-0.1,3l-18.5,17.2C637.3,826.5,636.8,826.7,636.3,826.7z"/>
<path class="st1" d="M655.4,809.4c-0.6,0-1.1-0.2-1.5-0.7L636.8,790c-0.8-0.8-0.7-2.2,0.1-3.1c0.8-0.8,2.2-0.7,3,0.1l17.1,18.7
	c0.8,0.8,0.7,2.2-0.1,3.1C656.5,809.2,656,809.4,655.4,809.4z"/>
<path class="st1" d="M741.5,728.5c-0.7,0-1.3-0.3-1.7-0.9l-14.1-21.1c-0.6-1-0.4-2.3,0.6-3s2.3-0.4,2.9,0.6l14.1,21.1
	c0.6,1,0.4,2.3-0.6,3C742.3,728.4,741.9,728.5,741.5,728.5z"/>
<path class="st1" d="M741.6,729.1c-0.7,0-1.3-0.3-1.7-0.9c-0.7-0.9-0.4-2.2,0.5-3l20.5-14.7c0.9-0.7,2.2-0.4,2.9,0.5s0.4,2.2-0.5,3
	l-20.5,14.7C742.4,728.9,742,729.1,741.6,729.1z"/>
<path class="st1" d="M663.4,604.2c-1,0-1.9-0.8-2.1-1.8c-0.1-1.1,0.7-2.2,1.8-2.3l24.9-3.3c1.2-0.1,2.2,0.7,2.3,1.8
	s-0.7,2.2-1.8,2.3l-24.9,3.3C663.6,604.2,663.5,604.2,663.4,604.2z"/>
<path class="st1" d="M666.3,629.3c-1,0-1.9-0.8-2.1-1.8l-3.5-25.3c-0.2-1.1,0.6-2.2,1.8-2.5c1.2-0.2,2.2,0.6,2.4,1.8l3.5,25.3
	c0.2,1.1-0.6,2.2-1.8,2.5C666.5,629.3,666.4,629.3,666.3,629.3z"/>
<path class="st1" d="M392,438.3c-0.6,0-1.2-0.3-1.6-0.8c-0.7-0.9-0.6-2.2,0.3-3l19.7-15.8c0.9-0.7,2.2-0.6,2.9,0.3
	c0.7,0.9,0.6,2.2-0.3,3l-19.7,15.8C392.9,438.2,392.4,438.3,392,438.3z"/>
<path class="st1" d="M407.2,458.4c-0.6,0-1.2-0.3-1.6-0.8l-15.8-19.9c-0.7-0.9-0.6-2.2,0.3-3s2.2-0.6,2.9,0.3l15.8,19.9
	c0.7,0.9,0.6,2.2-0.3,3C408.1,458.2,407.6,458.4,407.2,458.4z"/>
<path class="st1" d="M688.4,472c-1,0-1.9-0.8-2.1-1.8c-0.1-1.1,0.7-2.2,1.8-2.3l24.9-3.3c1.2-0.1,2.2,0.7,2.3,1.8s-0.7,2.2-1.8,2.3
	l-24.9,3.3C688.6,472,688.5,472,688.4,472z"/>
<path class="st1" d="M691.3,497.2c-1,0-1.9-0.8-2.1-1.8l-3.5-25.3c-0.2-1.1,0.6-2.2,1.8-2.5c1.1-0.2,2.2,0.6,2.4,1.8l3.5,25.3
	c0.2,1.1-0.6,2.2-1.8,2.5C691.5,497.2,691.4,497.2,691.3,497.2z"/>
<path class="st1" d="M991.2,595.3c-0.1,0-0.2,0-0.3,0l-20.7-3.5c-0.9-0.2-1.6-1.2-1.5-2.5c0.2-1.1,1-1.9,2-1.8l20.7,3.5
	c0.9,0.2,1.6,1.2,1.5,2.5C992.8,594.5,992.1,595.3,991.2,595.3z"/>
<path class="st1" d="M967.6,616.9c-0.1,0-0.2,0-0.3,0c-0.9-0.1-1.7-1.2-1.5-2.3l2.6-25.4c0.1-1.1,0.9-2,1.9-1.8
	c0.9,0.1,1.7,1.2,1.5,2.3l-2.6,25.4C969.1,616.2,968.4,616.9,967.6,616.9z"/>
<path class="st1" d="M967.2,685.7c-0.2,0-0.3,0-0.5-0.1c-0.9-0.3-1.4-1.5-1.1-2.7l5.5-23.9c0.2-1.1,1.2-1.7,2.1-1.4
	c0.9,0.3,1.4,1.5,1.1,2.7l-5.5,23.9C968.6,685.1,968,685.7,967.2,685.7z"/>
<path class="st1" d="M986.3,693.2c-0.2,0-0.3,0-0.5-0.1l-19.2-6.8c-0.9-0.3-1.4-1.5-1.1-2.7c0.2-1.1,1.2-1.7,2.1-1.4l19.2,6.8
	c0.9,0.3,1.4,1.5,1.1,2.7C987.8,692.5,987.1,693.2,986.3,693.2z"/>
<path class="st1" d="M1035,436.7c-0.1,0-0.2,0-0.2,0l-20.3-3.5c-0.9-0.2-1.6-1.2-1.5-2.5c0.2-1.1,1-1.9,2-1.8l20.3,3.5
	c0.9,0.2,1.6,1.2,1.5,2.5C1036.5,435.9,1035.8,436.7,1035,436.7z"/>
<path class="st1" d="M1011.7,458.3c-0.1,0-0.2,0-0.2,0c-0.9-0.1-1.6-1.2-1.5-2.3l2.5-25.4c0.1-1.1,1-2,1.9-1.8
	c0.9,0.1,1.6,1.2,1.5,2.3l-2.5,25.4C1013.3,457.5,1012.6,458.3,1011.7,458.3z"/>
<path class="st1" d="M836.6,445c-1,0-1.9-0.8-2.1-1.8c-0.1-1.1,0.7-2.2,1.8-2.3l24.9-3.3c1.2-0.1,2.2,0.7,2.3,1.8
	c0.1,1.1-0.7,2.2-1.8,2.3l-24.9,3.3C836.8,445,836.7,445,836.6,445z"/>
<path class="st1" d="M862,442c-1,0-1.9-0.8-2.1-1.8l-3.5-25.3c-0.2-1.1,0.6-2.2,1.8-2.5c1.2-0.2,2.2,0.6,2.4,1.8l3.5,25.3
	c0.2,1.1-0.6,2.2-1.8,2.5C862.2,442,862.1,442,862,442z"/>
<path class="st1" d="M817.5,827.3c-0.3,0-0.7-0.1-0.9-0.3c-0.8-0.6-1-1.9-0.5-3l11.3-21.5c0.5-1,1.6-1.2,2.4-0.6
	c0.8,0.6,1,1.9,0.5,3L819,826.4C818.6,827,818.1,827.3,817.5,827.3z"/>
<path class="st1" d="M834.7,841.2c-0.3,0-0.7-0.1-0.9-0.3l-17.7-13.6c-0.8-0.6-1.1-1.9-0.6-3c0.5-1,1.6-1.3,2.4-0.7l17.7,13.6
	c0.8,0.6,1.1,1.9,0.6,3C835.9,840.9,835.3,841.2,834.7,841.2z"/>
<path class="st1" d="M207.8,501.1c-1,0-1.7-0.9-1.8-2l-1.2-25.5c-0.1-1.2,0.7-2.1,1.7-2.2s1.8,0.8,1.9,2l1.2,25.5
	C209.7,500.1,208.9,501,207.8,501.1C207.9,501.1,207.9,501.1,207.8,501.1z"/>
<path class="st1" d="M185,476.8c-1,0-1.7-0.8-1.8-1.9s0.7-2.1,1.7-2.2l21.8-1.7c1-0.1,1.8,0.8,1.9,1.9s-0.7,2.1-1.7,2.2L185,476.8
	C185.1,476.8,185.1,476.8,185,476.8z"/>
<path class="st1" d="M356.8,348.3c-1.1,0-2.1-0.9-2.1-2.1l-0.1-25.6c0-1.2,0.9-2.1,2.1-2.1l0,0c1.1,0,2.1,0.9,2.1,2.1l0.1,25.6
	C358.9,347.4,357.9,348.3,356.8,348.3L356.8,348.3z"/>
<path class="st1" d="M356.5,348.8c-1.1,0-2.1-0.9-2.1-2.1s0.9-2.1,2.1-2.1l25-0.4c1.1,0,2.1,0.9,2.1,2.1s-0.9,2.1-2.1,2.1
	L356.5,348.8C356.6,348.8,356.6,348.8,356.5,348.8z"/>
<path class="st1" d="M444.7,242.9c-0.5,0-1-0.2-1.4-0.6L424.9,225c-0.8-0.8-0.9-2.1-0.1-3.1c0.8-0.8,2.1-0.9,3-0.1l18.4,17.4
	c0.8,0.8,0.9,2.1,0.1,3.1C445.9,242.7,445.3,242.9,444.7,242.9z"/>
<path class="st1" d="M409.3,244.1c-0.5,0-1-0.2-1.4-0.5c-0.9-0.8-0.9-2.1-0.2-3l16.8-19c0.8-0.9,2.1-0.9,2.9-0.2
	c0.9,0.8,0.9,2.1,0.2,3l-16.7,19C410.5,243.8,409.9,244.1,409.3,244.1z"/>
<path class="st1" d="M536.1,417.5c-0.6,0-1.1-0.2-1.5-0.7c-0.8-0.9-0.7-2.2,0.1-3l18.5-17.2c0.9-0.8,2.2-0.7,2.9,0.1
	c0.8,0.9,0.7,2.2-0.1,3l-18.5,17.2C537.1,417.2,536.6,417.5,536.1,417.5z"/>
<path class="st1" d="M555.2,400c-0.6,0-1.1-0.2-1.5-0.7l-17.1-18.7c-0.8-0.8-0.7-2.2,0.1-3.1c0.8-0.8,2.2-0.7,3,0.1l17.1,18.7
	c0.8,0.8,0.7,2.2-0.1,3.1C556.3,399.8,555.8,400,555.2,400z"/>
<path class="st1" d="M684.3,135.8c-1,0-1.9-0.7-2.1-1.8l-3.6-25.3c-0.2-1.1,0.6-2.2,1.8-2.5c1.1-0.2,2.2,0.6,2.4,1.8l3.6,25.3
	c0.2,1.1-0.6,2.2-1.8,2.5C684.5,135.8,684.4,135.8,684.3,135.8z"/>
<path class="st1" d="M656.1,113.9c-1,0-1.9-0.7-2.1-1.8c-0.2-1.1,0.6-2.2,1.7-2.5l24.7-4c1.1-0.2,2.2,0.6,2.4,1.7s-0.6,2.2-1.7,2.5
	l-24.7,4C656.3,113.9,656.2,113.9,656.1,113.9z"/>
<path class="st1" d="M793.5,228c-0.5,0-1.1-0.2-1.5-0.6c-0.8-0.8-0.8-2.1,0-3.1l18-17.9c0.8-0.8,2.1-0.8,3,0c0.8,0.8,0.8,2.1,0,3.1
	l-18,17.9C794.6,227.8,794.1,228,793.5,228z"/>
<path class="st1" d="M812,210c-0.5,0-1.1-0.2-1.5-0.6l-17.6-18.2c-0.8-0.8-0.8-2.1,0-3.1c0.8-0.9,2.1-0.8,3,0l17.7,18.1
	c0.8,0.8,0.8,2.1,0,3.1C813.1,209.8,812.6,210,812,210z"/>
<path class="st1" d="M816.5,275.9L816.5,275.9c-1.3-0.1-2.1-1-2.1-2.2l1.2-25.5c0.1-1.2,1.1-2,2.2-2c1.2,0.1,2,1,2,2.2l-1.2,25.5
	C818.5,275,817.6,275.9,816.5,275.9z"/>
<path class="st1" d="M817.9,249.8L817.9,249.8l-25.1-0.9c-1.2,0-2.1-1-2-2.2c0-1.2,1-2.1,2.2-2l25,0.9c1.2,0,2.1,1,2,2.2
	C820,248.9,819.1,249.8,817.9,249.8z"/>
<path class="st1" d="M981.1,378.4c-0.9,0-1.7-0.9-1.8-2l-0.8-25.5c0-1.2,0.8-2.1,1.7-2.2s1.8,0.9,1.9,2l0.8,25.5
	C982.9,377.3,982.1,378.3,981.1,378.4L981.1,378.4z"/>
<path class="st1" d="M980.9,379c-0.9,0-1.7-0.9-1.8-2c-0.1-1.2,0.7-2.1,1.7-2.2l21.2-1.3c1-0.1,1.8,0.8,1.9,2
	c0.1,1.2-0.7,2.1-1.7,2.2L980.9,379L980.9,379z"/>
<path class="st1" d="M844.1,88.7c-0.6,0-1.1-0.3-1.4-0.9l-12.1-21c-0.6-0.9-0.3-2.2,0.4-3c0.8-0.7,1.9-0.4,2.5,0.5l12.1,21
	c0.6,0.9,0.3,2.2-0.4,3C844.8,88.6,844.5,88.7,844.1,88.7z"/>
<path class="st1" d="M831.6,67.3c-0.6,0-1.1-0.3-1.4-0.9c-0.5-1-0.3-2.3,0.5-3l17.6-14.3c0.8-0.6,1.9-0.4,2.5,0.6
	c0.5,1,0.3,2.3-0.5,3L832.6,67C832.3,67.2,831.9,67.3,831.6,67.3z"/>
<path class="st1" d="M858.4,439.4l-1.9-0.8c-49-20.6-77.5-46.2-84.8-75.9c-7.3-29.7,7.2-68.6,43.1-115.8l1.3-1.6l3.3,2.7l-1.3,1.6
	c-35.1,46.1-49.4,83.8-42.4,112.1s34.7,52.9,82.4,72.9l1.9,0.8L858.4,439.4z"/>
<path class="st1" d="M820.2,825.9l-0.3-4.3l1.8-0.1c84.2-7,141.7-27.4,171-60.3c28.9-32.5,21.9-88.6-20.9-166.6l-1-1.7l2.9-2.3
	l1,1.7c43.8,80.2,50.6,138.1,20.4,172.2C965.2,798,907,818.6,822,825.8L820.2,825.9z"/>
<path class="st1" d="M494.1,806.1l-1.6-4l1.9-0.8c164.8-69.6,265-130.8,297.9-181.7c11.3-17.6,14.6-34.9,9.8-51.7
	c-9-31.2-46.3-62-111.1-91.2l-1.9-0.8l1.7-3.9l1.9,0.8c65.9,29.8,104,61.4,113.4,93.9c5.2,18,1.7,36.6-10.4,55.2
	c-33.4,51.7-134.2,113.2-299.8,183.3L494.1,806.1z"/>
<g>
	<path class="st0" d="M495.4,36.4H393.8c-1.9,0-3.4,1.5-3.4,3.5v89.9c0,1.9,1.5,3.5,3.4,3.5h101.6c1.9,0,3.4-1.5,3.4-3.5v-90
		C498.8,38,497.3,36.4,495.4,36.4z M417.5,46.8c1.9,0,3.4,1.5,3.4,3.5c0,1.9-1.5,3.5-3.4,3.5s-3.4-1.5-3.4-3.5
		S415.7,46.8,417.5,46.8z M404,46.8c1.9,0,3.4,1.5,3.4,3.5c0,1.9-1.5,3.5-3.4,3.5s-3.4-1.5-3.4-3.5S402.1,46.8,404,46.8z M492,126.3
		h-94.8V64H492V126.3L492,126.3z"/>
	<rect x="407.4" y="74.5" class="st0" width="16.9" height="41.5"/>
	<rect x="434.5" y="74.5" class="st0" width="47.4" height="41.5"/>
</g>
<g>
	<path class="st0" d="M306.1,413.6l45.4-23.2L301,364.6c-0.9-0.5-2-0.5-2.9,0l-44,22.5L306.1,413.6z"/>
	<path class="st0" d="M309.3,419.3V469l43.6-22.3c1.1-0.5,1.8-1.7,1.8-3V396L309.3,419.3z"/>
	<path class="st0" d="M302.8,419.3l-51.9-26.5v47.7c0,1.2,0.7,2.5,1.8,3l50.1,25.6V419.3z"/>
</g>
<g>
	<path class="st0" d="M632.5,301.1H625c0-17,13.4-30.6,30-30.6v7.7C642.6,278.3,632.5,288.5,632.5,301.1z"/>
	<path class="st0" d="M720.3,357L697,333.2c-3,4.1-6.6,7.8-10.6,10.8l23.3,23.8c3,3,7.7,2.9,10.6-0.2
		C723.1,364.7,723.1,360,720.3,357L720.3,357z"/>
	<path class="st0" d="M655,347.1c-24.8,0-45-20.5-45-45.9s20.1-45.9,45-45.9s45,20.5,45,45.9C699.9,326.6,679.8,347.1,655,347.1z
		 M655,263c-20.7,0-37.5,17.2-37.5,38.3c0,21.1,16.8,38.3,37.5,38.3s37.5-17.2,37.5-38.3C692.4,280.1,675.7,263,655,263z"/>
</g>
<g>
	<path class="st0" d="M886,179.4h15.2c1.7,0,3,1.4,3,3.1v52.8c0,1.7-1.4,3.1-3,3.1H886c-1.7,0-3-1.4-3-3.1v-52.8
		C883,180.8,884.3,179.4,886,179.4z"/>
	<path class="st0" d="M978.6,182.3c-2.1-3.7-6-5.9-10.1-6h-24.7v-15.5c0-8.7-5.8-16.1-14.1-18.2c-3.3-0.7-6.4,1.4-7.1,4.8
		c-0.1,0.4-0.1,0.8-0.1,1.3v20.2l-12.2,14.5v54.9H962c6.8,0,12.7-5.1,13.6-12l4.6-37.3l0,0C980.4,186.7,979.8,184.3,978.6,182.3z"/>
</g>
<g>
	<path class="st0" d="M984.7,407h-16.6v-10.2c0-1.8-1.5-3.4-3.3-3.4s-3.3,1.5-3.3,3.4V407h-39.9v-10.2c0-1.8-1.5-3.4-3.3-3.4
		s-3.3,1.5-3.3,3.4V407h-16.6c-3.7,0-6.7,3.1-6.7,6.8V492c0,3.8,3,6.8,6.7,6.8h86.5c3.7,0,6.7-3.1,6.7-6.8v-78.1
		C991.3,410.1,988.3,407,984.7,407z M981.3,491.9h-79.8c-1.8,0-3.3-1.5-3.3-3.4v-61.2c0-1.8,1.5-3.4,3.3-3.4h79.8
		c1.8,0,3.3,1.5,3.3,3.4v61.2C984.7,490.4,983.2,491.9,981.3,491.9z"/>
	<rect x="904.9" y="461.4" class="st0" width="20" height="17"/>
	<rect x="904.9" y="437.6" class="st0" width="20" height="17"/>
	<rect x="931.5" y="461.4" class="st0" width="20" height="17"/>
	<rect x="931.5" y="437.6" class="st0" width="20" height="17"/>
	<rect x="958.1" y="437.6" class="st0" width="20" height="17"/>
</g>
<g>
	<path class="st0" d="M789.7,792.4c-0.4-1.2-1.5-2.1-2.8-2.3l-31.3-4.6l-14-28.9c-1-1.7-3.2-2.3-4.9-1.3c-0.5,0.3-1,0.7-1.3,1.3
		l-14,28.9l-31.3,4.7c-1.9,0.3-3.2,2-2.9,4c0.1,0.7,0.5,1.4,1,2l22.6,22.6l-5.3,31.9c-0.3,1.9,0.9,3.7,2.8,4c0.7,0.1,1.5,0,2.2-0.3
		l28-15l28,15c1.7,0.9,3.7,0.2,4.6-1.4c0.3-0.7,0.5-1.4,0.3-2.2l-5.3-31.9l22.6-22.6C789.7,795.1,790.1,793.7,789.7,792.4z"/>
</g>
<g>
	<path class="st0" d="M447.1,778.3h-74.7c-6.9,0-12.4,5.7-12.4,12.7v50.9c0,7,5.6,12.7,12.4,12.7h20.3l17,20.8l17-20.8H447
		c6.9,0,12.4-5.7,12.4-12.7V791C459.5,784,453.9,778.3,447.1,778.3z M415.9,829.2h-34.2v-6.3h34.2V829.2z M437.7,810.2h-56v-6.3h56
		V810.2z"/>
</g>
<g>
	<path class="st0" d="M289.1,613.5c0-11.3-26.7-16.4-51.5-16.4s-51.5,5.1-51.5,16.4c0,1.8,0.8,3.6,2.1,5.1
		c0.4,0.6,36.1,41.7,36.5,42.2v31.7c0,1.8,1.4,3.3,3.2,3.3h19.3c1.8,0,3.2-1.4,3.2-3.3v-31.7c0.5-0.5,36.2-41.6,36.5-42.2
		C288.3,617.1,289.1,615.4,289.1,613.5z M237.5,603.7c29.8,0,45.1,6.9,45.1,9.9s-15.3,9.9-45.1,9.9s-45.1-6.9-45.1-9.9
		C192.4,610.5,207.8,603.7,237.5,603.7z"/>
</g>
<g>
	<path class="st0" d="M203.2,153.2c-28.9,0-52.4,24-52.4,53.5s23.5,53.5,52.4,53.5s52.4-24,52.4-53.5S232.1,153.2,203.2,153.2z
		 M183.6,200.1c0-11,8.8-20,19.6-20s19.6,9,19.6,20v6.6c0,11-8.8,20-19.6,20s-19.6-9-19.6-20V200.1z M203.2,253.6
		c-9.5,0-18.4-3-25.7-8.1c4.8-5.3,11.6-8.6,19.2-8.6h13.1c7.6,0,14.4,3.4,19.2,8.6C221.6,250.6,212.8,253.6,203.2,253.6z"/>
</g>
<g>
	<path class="st0" d="M755.5,10.7c-28.9,0-52.4,24-52.4,53.5s23.5,53.5,52.4,53.5s52.4-24,52.4-53.5S784.4,10.7,755.5,10.7z
		 M735.9,57.5c0-11,8.8-20,19.6-20s19.6,9,19.6,20v6.6c0,11-8.8,20-19.6,20s-19.6-8.9-19.6-19.9V57.5z M755.5,111
		c-9.5,0-18.4-3-25.7-8.1c4.8-5.3,11.6-8.6,19.2-8.6h13.1c7.6,0,14.4,3.4,19.2,8.6C773.9,108.1,765.1,111,755.5,111z"/>
</g>
<g>
	<path class="st0" d="M609.1,486.1c-28.9,0-52.4,24-52.4,53.5c0,29.5,23.5,53.5,52.4,53.5s52.4-24,52.4-53.5
		S637.9,486.1,609.1,486.1z M589.4,532.8c0-11,8.8-20,19.6-20s19.6,9,19.6,20v6.6c0,11-8.8,20-19.6,20s-19.6-9-19.6-20V532.8z
		 M609.1,586.3c-9.5,0-18.4-3-25.7-8.1c4.8-5.3,11.6-8.6,19.2-8.6h13.1c7.6,0,14.4,3.4,19.2,8.6
		C627.5,583.4,618.6,586.3,609.1,586.3z"/>
</g>
<g>
	<path class="st0" d="M882.5,639.6c-28.9,0-52.4,24-52.4,53.5s23.5,53.5,52.4,53.5s52.4-24,52.4-53.5S911.4,639.6,882.5,639.6z
		 M862.8,686.5c0-11,8.8-20,19.6-20s19.6,9,19.6,20v6.6c0,11-8.8,20-19.6,20s-19.6-9-19.6-20V686.5z M882.5,740
		c-9.5,0-18.4-3-25.7-8.1c4.8-5.3,11.6-8.6,19.2-8.6h13.1c7.6,0,14.4,3.4,19.2,8.6C900.9,737,892,740,882.5,740z"/>
</g>
</svg>
