<?xml version="1.0" encoding="utf-8"?>
<!-- Generator: Adobe Illustrator 23.0.4, SVG Export Plug-In . SVG Version: 6.00 Build 0)  -->
<svg version="1.1" id="Layer_1" xmlns="http://www.w3.org/2000/svg" xmlns:xlink="http://www.w3.org/1999/xlink" x="0px" y="0px"
	 viewBox="0 0 300 96.4" style="enable-background:new 0 0 300 96.4;" xml:space="preserve">
<style type="text/css">
	.st0{fill:#4E66AF;}
</style>
<g>
	<path class="st0" d="M61.6,36.8c3.2,0,5.8-1.3,7.9-3.8l4.2,4.3c-3.3,3.7-7.2,5.6-11.8,5.6c-4.5,0-8.2-1.4-11.1-4.3
		c-2.9-2.8-4.4-6.4-4.4-10.8c0-4.3,1.5-8,4.5-10.9c3-2.9,6.6-4.4,10.9-4.4c4.8,0,8.8,1.8,12.1,5.5l-4.1,4.6
		c-2.1-2.6-4.6-3.9-7.7-3.9c-2.5,0-4.6,0.8-6.3,2.4c-1.7,1.6-2.6,3.8-2.6,6.5c0,2.7,0.8,4.9,2.5,6.6C57.2,36,59.2,36.8,61.6,36.8z"
		/>
	<path class="st0" d="M102.8,38.5c-3,2.9-6.6,4.3-10.9,4.3c-4.3,0-8-1.4-10.9-4.3c-3-2.9-4.4-6.5-4.4-10.8S78,19.8,80.9,17
		c3-2.9,6.6-4.3,10.9-4.3c4.3,0,8,1.4,10.9,4.3c3,2.9,4.4,6.5,4.4,10.8S105.8,35.6,102.8,38.5z M100.6,27.8c0-2.6-0.8-4.8-2.5-6.7
		c-1.7-1.8-3.7-2.8-6.2-2.8c-2.4,0-4.5,0.9-6.2,2.8c-1.7,1.8-2.5,4.1-2.5,6.7s0.8,4.8,2.5,6.7c1.7,1.8,3.7,2.7,6.2,2.7
		c2.4,0,4.5-0.9,6.2-2.7C99.8,32.6,100.6,30.4,100.6,27.8z"/>
	<path class="st0" d="M133.3,13.3h6.5v29.3h-6.5l-14-18.4v18.4h-6.5V13.3h6.1l14.4,18.9V13.3z"/>
	<path class="st0" d="M159.4,18.9v23.6h-6.5V18.9h-8.3v-5.7h23.1v5.7H159.4z"/>
	<path class="st0" d="M193.6,13.3v5.8H179v6h13.1v5.6H179v6.1h15v5.8h-21.6V13.3H193.6z"/>
	<path class="st0" d="M220.4,13.3h6.5v29.3h-6.5l-14-18.4v18.4h-6.5V13.3h6.1l14.4,18.9V13.3z"/>
	<path class="st0" d="M246.5,18.9v23.6H240V18.9h-8.3v-5.7h23.1v5.7H246.5z"/>
	<path class="st0" d="M48.3,65.1l-7.9,16h-3.9l-7.9-16v18.4H22V54.3h8.8l7.5,16.1L46,54.3h8.8v29.3h-6.5V65.1z"/>
	<path class="st0" d="M82.9,83.6l-2.7-6.3H67.9l-2.7,6.3h-7l12.7-29.3h6.3l12.7,29.3H82.9z M74,63l-3.7,8.5h7.3L74,63z"/>
	<path class="st0" d="M117,64c0,4.7-1.9,7.7-5.6,9.1l7.4,10.5h-8l-6.5-9.3h-4.5v9.3h-6.5V54.3h11.1c4.6,0,7.8,0.8,9.7,2.3
		C116,58.1,117,60.6,117,64z M109.1,67.5c0.8-0.7,1.2-1.9,1.2-3.5c0-1.6-0.4-2.7-1.3-3.2c-0.8-0.6-2.3-0.9-4.4-0.9h-4.9v8.7h4.8
		C106.8,68.6,108.3,68.2,109.1,67.5z"/>
	<path class="st0" d="M123.7,54.3h6.5v12l11.1-12h8.1l-11.6,12.9c1,1.4,2.9,4,5.6,7.8c2.7,3.8,4.7,6.7,6.1,8.5h-7.6L133.1,72
		l-2.9,3.3v8.3h-6.5V54.3z"/>
	<path class="st0" d="M174.5,54.3v5.8H160v6h13.1v5.6H160v6.1h15v5.8h-21.6V54.3H174.5z"/>
	<path class="st0" d="M193.2,59.9v23.6h-6.5V59.9h-8.3v-5.7h23.1v5.7H193.2z"/>
	<path class="st0" d="M206.3,54.3h6.5v29.3h-6.5V54.3z"/>
	<path class="st0" d="M240.5,54.3h6.5v29.3h-6.5l-14-18.4v18.4H220V54.3h6.1l14.4,18.9V54.3z"/>
	<path class="st0" d="M273.3,68.7h6.6V79c-2.9,3.2-6.9,4.9-12.1,4.9c-4.3,0-7.9-1.4-10.8-4.3c-2.9-2.8-4.4-6.4-4.4-10.8
		c0-4.3,1.5-8,4.5-10.9c3-2.9,6.6-4.4,10.8-4.4c4.2,0,7.9,1.4,11,4.1l-3.4,4.9c-1.3-1.1-2.5-1.9-3.6-2.4c-1.1-0.4-2.3-0.6-3.6-0.6
		c-2.5,0-4.6,0.8-6.3,2.5c-1.7,1.7-2.6,3.9-2.6,6.7s0.8,5,2.5,6.6c1.6,1.7,3.6,2.5,5.8,2.5s4.1-0.4,5.7-1.3V68.7z"/>
</g>
</svg>
