<?xml version="1.0" encoding="utf-8"?>
<!-- Generator: Adobe Illustrator 24.0.3, SVG Export Plug-In . SVG Version: 6.00 Build 0)  -->
<svg version="1.1" id="Layer_1" xmlns="http://www.w3.org/2000/svg" xmlns:xlink="http://www.w3.org/1999/xlink" x="0px" y="0px"
	 viewBox="0 0 1166 958.3" style="enable-background:new 0 0 1166 958.3;" xml:space="preserve">
<style type="text/css">
	.st0{fill:#0C998E;}
	.st1{fill:#6482C1;}
	.st2{fill:#6A53A3;}
	.st3{fill-rule:evenodd;clip-rule:evenodd;fill:url(#SVGID_1_);}
	.st4{clip-path:url(#SVGID_3_);fill:url(#SVGID_4_);}
	.st5{fill:#FFFFFF;}
	.st6{fill-rule:evenodd;clip-rule:evenodd;fill:#FFFFFF;}
	.st7{clip-path:url(#SVGID_6_);fill:#FFFFFF;}
	.st8{clip-path:url(#SVGID_8_);fill:#FFFFFF;}
	.st9{fill-rule:evenodd;clip-rule:evenodd;fill:url(#SVGID_9_);}
	.st10{clip-path:url(#SVGID_11_);fill:url(#SVGID_12_);}
	.st11{clip-path:url(#SVGID_14_);fill:#FFFFFF;}
	.st12{clip-path:url(#SVGID_16_);fill:#FFFFFF;}
	.st13{clip-path:url(#SVGID_18_);fill:#FFFFFF;}
	.st14{clip-path:url(#SVGID_20_);fill:#FFFFFF;}
	.st15{fill-rule:evenodd;clip-rule:evenodd;fill:url(#SVGID_21_);}
	.st16{clip-path:url(#SVGID_23_);fill:url(#SVGID_24_);}
	.st17{fill:#CDDBE8;}
</style>
<g>
	<path class="st0" d="M463,89.4L458.4,78h-27.2l-4.6,11.4h-13.7l25.5-58.7h13.7l25.1,58.7H463z M435.6,67.4h18.5l-9.2-22.8
		L435.6,67.4z"/>
	<path class="st0" d="M506.2,86.9c-1.7,1-3.5,1.8-5.6,2.3c-2,0.5-4.1,0.8-6.2,0.8c-4.2,0-7.6-1.2-10.2-3.6s-3.9-5.8-3.9-10.3V55.2
		H474v-8.9h6.3V33.9h12.8v12.4h12.3v9h-12.3v18.6c0,3.5,1.4,5.2,4.1,5.2c1.9,0,4-0.6,6.3-1.7L506.2,86.9z"/>
	<path class="st0" d="M539.2,86.9c-1.7,1-3.5,1.8-5.6,2.3c-2,0.5-4.1,0.8-6.2,0.8c-4.2,0-7.6-1.2-10.2-3.6
		c-2.6-2.4-3.9-5.8-3.9-10.3V55.2H507v-8.9h6.3V33.9h12.8v12.4h12.3v9h-12.3v18.6c0,3.5,1.4,5.2,4.1,5.2c1.9,0,4-0.6,6.3-1.7
		L539.2,86.9z"/>
	<path class="st0" d="M563.3,46.1c2.5-1.5,5.5-2.2,8.8-2.3V56c-0.4-0.1-1.1-0.1-2-0.1c-4,0-7.1,1.1-9.4,3.2c-2.3,2.2-3.5,5-3.5,8.6
		v21.7h-12.9V44.3h12.9v8.1C558.7,49.6,560.8,47.5,563.3,46.1z"/>
	<path class="st0" d="M601.1,89.4v-5.3c-1.5,1.9-3.5,3.4-5.9,4.4S590,90,586.9,90c-4.8,0-8.5-1.3-11.3-3.9s-4.2-6-4.2-10.2
		c0-4.3,1.5-7.6,4.5-9.9c3-2.4,7.2-3.6,12.7-3.7H601v-0.8c0-2.4-0.8-4.3-2.4-5.6c-1.6-1.3-3.9-2-7-2c-4.2,0-8.7,1.3-13.4,3.9l-4-8.9
		c3.6-1.8,6.9-3.1,10.1-3.9c3.1-0.8,6.6-1.3,10.3-1.3c6,0,10.7,1.4,14.1,4.3c3.3,2.9,5,6.8,5.1,11.9l0.1,29.5H601.1z M597.5,78.9
		c2-1.3,3.1-2.9,3.5-4.9v-4h-10.2c-2.5,0-4.4,0.4-5.6,1.2c-1.2,0.8-1.8,2.1-1.8,3.9c0,1.7,0.6,3.1,1.9,4.2c1.3,1,3,1.6,5.2,1.6
		C593.2,80.8,595.6,80.2,597.5,78.9z"/>
	<path class="st0" d="M642.2,54.9c-3.2,0-5.9,1.1-7.9,3.3s-3.1,5.1-3.1,8.8c0,3.6,1,6.6,3,8.9s4.6,3.4,7.7,3.4
		c4.7,0,8.2-1.8,10.5-5.3l8.9,6c-1.9,3.2-4.6,5.7-8,7.4c-3.4,1.7-7.5,2.6-12,2.6s-8.5-1-12-2.9s-6.2-4.6-8.1-8.1
		c-1.9-3.5-2.9-7.5-2.9-12c0-4.6,1-8.6,2.9-12.1s4.6-6.2,8.1-8.1c3.5-1.9,7.5-2.9,12.1-2.9c4.3,0,8.1,0.8,11.5,2.5s6,4,8.1,7
		l-8.7,6.3C649.7,56.5,646.4,54.9,642.2,54.9z"/>
	<path class="st0" d="M694.6,86.9c-1.7,1-3.5,1.8-5.6,2.3c-2,0.5-4.1,0.8-6.2,0.8c-4.2,0-7.6-1.2-10.2-3.6
		c-2.6-2.4-3.9-5.8-3.9-10.3V55.2h-6.3v-8.9h6.3V33.9h12.8v12.4h12.3v9h-12.3v18.6c0,3.5,1.4,5.2,4.1,5.2c1.9,0,4-0.6,6.3-1.7
		L694.6,86.9z"/>
	<path class="st0" d="M707.9,78.7c1.2,1.2,1.8,2.8,1.8,4.8s-0.6,3.6-1.8,4.8c-1.2,1.3-2.8,1.9-4.7,1.9c-1.8,0-3.4-0.6-4.6-1.9
		c-1.2-1.3-1.8-2.9-1.8-4.8c0-2,0.6-3.6,1.8-4.8c1.2-1.2,2.8-1.8,4.6-1.8C705.2,76.9,706.7,77.5,707.9,78.7z"/>
</g>
<g>
	<path class="st1" d="M741.5,925.3l-9.3-16.8h-1.3h-12.3v16.8h-13.3v-58.7h25.5c7.7,0,13.6,1.8,17.8,5.3c4.2,3.6,6.3,8.6,6.3,15.1
		c0,4.5-0.9,8.4-2.8,11.6c-1.9,3.2-4.6,5.7-8.2,7.3l12.5,19.4L741.5,925.3L741.5,925.3z M718.7,897.4H731c3.7,0,6.5-0.9,8.5-2.6
		c2-1.7,3-4.2,3-7.5c0-3.2-1-5.7-3-7.3s-4.8-2.5-8.5-2.5h-12.3V897.4z"/>
	<path class="st1" d="M799.1,886c3.8,4.2,5.7,10,5.7,17.5c0,1.3,0,2.4-0.1,3.1h-32.4c0.7,2.9,2.1,5.1,4.2,6.7
		c2.1,1.6,4.6,2.4,7.5,2.4c2.1,0,4.2-0.4,6.1-1.2c2-0.8,3.7-2,5.3-3.6l6.8,6.9c-2.3,2.6-5.1,4.5-8.3,5.9c-3.3,1.4-6.9,2.1-11,2.1
		c-4.8,0-8.9-1-12.5-2.9s-6.3-4.6-8.2-8.1s-2.9-7.5-2.9-12c0-4.6,1-8.6,2.9-12.1c2-3.5,4.7-6.2,8.2-8.1c3.5-1.9,7.6-2.9,12.1-2.9
		C789.8,879.7,795.3,881.8,799.1,886z M792.6,899c-0.1-3-1.1-5.3-2.9-7.1c-1.8-1.8-4.2-2.7-7.1-2.7c-2.8,0-5.1,0.9-7,2.6
		c-1.9,1.8-3.1,4.2-3.6,7.2H792.6z"/>
	<path class="st1" d="M838.4,922.8c-1.7,1-3.5,1.8-5.6,2.3c-2,0.5-4.1,0.8-6.2,0.8c-4.2,0-7.6-1.2-10.2-3.6
		c-2.6-2.4-3.9-5.8-3.9-10.3v-20.9h-6.3v-8.9h6.3v-12.4h12.8v12.4h12.3v9h-12.3v18.6c0,3.5,1.4,5.2,4.1,5.2c1.9,0,4-0.6,6.3-1.7
		L838.4,922.8z"/>
	<path class="st1" d="M869.6,925.3V920c-1.5,1.9-3.5,3.4-5.9,4.4s-5.2,1.5-8.3,1.5c-4.8,0-8.5-1.3-11.3-3.9c-2.8-2.6-4.2-6-4.2-10.2
		c0-4.3,1.5-7.6,4.5-9.9c3-2.4,7.2-3.6,12.7-3.6h12.4v-0.8c0-2.4-0.8-4.3-2.4-5.6c-1.6-1.3-3.9-2-7-2c-4.2,0-8.7,1.3-13.4,3.9
		l-4-8.9c3.6-1.8,6.9-3.1,10.1-3.9c3.1-0.8,6.6-1.3,10.3-1.3c6,0,10.7,1.4,14.1,4.3c3.3,2.9,5,6.8,5.1,11.9l0.1,29.5h-12.8V925.3z
		 M866,914.7c2-1.3,3.1-2.9,3.5-4.9v-4h-10.2c-2.5,0-4.4,0.4-5.6,1.2c-1.2,0.8-1.8,2.1-1.8,3.9c0,1.7,0.6,3.1,1.9,4.2
		c1.3,1,3,1.6,5.2,1.6C861.7,916.7,864.1,916,866,914.7z"/>
	<path class="st1" d="M902.1,862.1c1.3,1.3,2,3.1,2,5.2c0,2.1-0.7,3.9-2,5.2s-3,2-5.1,2c-2,0-3.7-0.7-5-2.1c-1.3-1.4-2-3.1-2-5.2
		c0-2.1,0.7-3.9,2-5.2s3-2,5-2C899.1,860.1,900.8,860.8,902.1,862.1z M890.7,880.2h12.9v45.1h-12.9V880.2z"/>
	<path class="st1" d="M953.8,884.4c3,3.1,4.5,7.3,4.5,12.6v28.4h-12.9v-24.6c0-2.9-0.8-5.1-2.4-6.8c-1.6-1.6-3.8-2.5-6.5-2.5
		c-3.2,0.1-5.7,1.2-7.6,3.3c-1.8,2.2-2.8,4.9-2.8,8.3v22.2h-12.9v-45.1h12.9v7.9c3.1-5.5,8.3-8.3,15.6-8.4
		C946.8,879.7,950.8,881.2,953.8,884.4z"/>
	<path class="st1" d="M975,914.6c1.2,1.2,1.8,2.8,1.8,4.8s-0.6,3.6-1.8,4.8c-1.2,1.3-2.8,1.9-4.7,1.9c-1.8,0-3.4-0.6-4.6-1.9
		c-1.2-1.3-1.8-2.9-1.8-4.8c0-2,0.6-3.6,1.8-4.8s2.8-1.8,4.6-1.8C972.2,912.7,973.8,913.3,975,914.6z"/>
</g>
<g>
	<path class="st2" d="M226,895.7h11.5v22.8c-3.1,2.3-6.9,4.2-11.2,5.6c-4.4,1.4-8.6,2.1-12.6,2.1c-5.9,0-11.2-1.3-15.9-4
		c-4.8-2.7-8.5-6.3-11.2-10.9c-2.7-4.6-4.1-9.8-4.1-15.5s1.4-10.8,4.2-15.4c2.8-4.6,6.6-8.2,11.5-10.9c4.9-2.6,10.3-3.9,16.3-3.9
		c4.4,0,8.6,0.8,12.8,2.3c4.2,1.6,7.8,3.7,10.8,6.4l-7.5,9.5c-2.2-2.1-4.7-3.7-7.6-4.9c-2.9-1.2-5.7-1.8-8.6-1.8
		c-3.4,0-6.5,0.8-9.4,2.5c-2.8,1.7-5,3.9-6.7,6.7c-1.6,2.8-2.4,6-2.4,9.4c0,3.5,0.8,6.6,2.5,9.5c1.6,2.9,3.9,5.1,6.7,6.8
		s5.9,2.5,9.4,2.5c1.7,0,3.6-0.3,5.6-0.9c2-0.6,4-1.4,5.9-2.4V895.7z"/>
	<path class="st2" d="M265.1,881.9c2.5-1.5,5.5-2.2,8.8-2.3v12.2c-0.4-0.1-1.1-0.1-2-0.1c-4,0-7.1,1.1-9.4,3.2
		c-2.3,2.2-3.5,5-3.5,8.6v21.7h-12.9v-45.1H259v8.1C260.6,885.5,262.6,883.4,265.1,881.9z"/>
	<path class="st2" d="M311.2,882.6c3.7,1.9,6.5,4.6,8.5,8.1s3,7.5,3,12.1c0,4.5-1,8.5-3,12s-4.9,6.2-8.5,8.1
		c-3.7,1.9-7.9,2.9-12.6,2.9c-4.8,0-9-1-12.7-2.9s-6.5-4.6-8.5-8.1s-3-7.5-3-12c0-4.6,1-8.6,3-12.1s4.9-6.2,8.5-8.1
		c3.7-1.9,7.9-2.9,12.7-2.9C303.4,879.7,307.6,880.7,311.2,882.6z M290.4,893.9c-2.1,2.3-3.1,5.3-3.1,9s1,6.7,3.1,9s4.8,3.4,8.2,3.4
		c3.3,0,6-1.1,8.1-3.4c2.1-2.3,3.1-5.3,3.1-9s-1-6.7-3.1-9s-4.8-3.4-8.1-3.4S292.5,891.6,290.4,893.9z"/>
	<path class="st2" d="M320.6,880.2l13.2-0.1l10.1,32.3l9.7-32.3h12.7l9.9,32.3l9.9-32.3h12.8l-16.4,45.1h-12.9l-9.7-29.8l-9.7,29.8
		h-12.9L320.6,880.2z"/>
	<path class="st2" d="M407.7,914.6c1.2,1.2,1.8,2.8,1.8,4.8s-0.6,3.6-1.8,4.8c-1.2,1.3-2.8,1.9-4.7,1.9c-1.8,0-3.4-0.6-4.6-1.9
		c-1.2-1.3-1.8-2.9-1.8-4.8c0-2,0.6-3.6,1.8-4.8c1.2-1.2,2.8-1.8,4.6-1.8C405,912.7,406.5,913.3,407.7,914.6z"/>
</g>
<g>
	<g>
		
			<linearGradient id="SVGID_1_" gradientUnits="userSpaceOnUse" x1="703.6" y1="276.6" x2="950.4" y2="276.6" gradientTransform="matrix(1 0 0 -1 0 960)">
			<stop  offset="3.605769e-04" style="stop-color:#4EC4D3"/>
			<stop  offset="0.3128" style="stop-color:#57B1CE"/>
			<stop  offset="1" style="stop-color:#6482C1"/>
		</linearGradient>
		<circle id="SVGID_31_" class="st3" cx="827" cy="683.4" r="123.4"/>
	</g>
	<g>
		<defs>
			<circle id="SVGID_2_" cx="827" cy="683.4" r="123.4"/>
		</defs>
		<clipPath id="SVGID_3_">
			<use xlink:href="#SVGID_2_"  style="overflow:visible;"/>
		</clipPath>
		
			<linearGradient id="SVGID_4_" gradientUnits="userSpaceOnUse" x1="691.2" y1="276.55" x2="962.7" y2="276.55" gradientTransform="matrix(1 0 0 -1 0 960)">
			<stop  offset="3.605769e-04" style="stop-color:#4EC4D3"/>
			<stop  offset="0.3128" style="stop-color:#57B1CE"/>
			<stop  offset="1" style="stop-color:#6482C1"/>
		</linearGradient>
		<rect x="691.2" y="547.7" class="st4" width="271.5" height="271.5"/>
	</g>
</g>
<path class="st5" d="M827,809.3c-69.4,0-125.9-56.5-125.9-125.9S757.6,557.6,827,557.6S952.9,614,952.9,683.4S896.4,809.3,827,809.3
	z M827,562.5c-66.7,0-120.9,54.3-120.9,120.9s54.2,121,120.9,121s120.9-54.3,120.9-120.9S893.7,562.5,827,562.5z"/>
<g>
	<g>
		<path id="SVGID_35_" class="st6" d="M790.2,661.7h78.5c12.4,0,22.4-10.1,22.4-22.4c0-12.4-10.1-22.4-22.4-22.4
			c-12.4,0-22.4,10.1-22.4,22.4v11.2h-33.7v-11.2c0-12.4-10.1-22.4-22.4-22.4s-22.4,10.1-22.4,22.4
			C767.8,651.6,777.8,661.7,790.2,661.7z M857.5,639.2c0-6.2,5-11.2,11.2-11.2s11.2,5,11.2,11.2s-5,11.2-11.2,11.2h-11.2V639.2z
			 M790.2,628c6.2,0,11.2,5,11.2,11.2v11.2h-11.2c-6.2,0-11.2-5-11.2-11.2S784,628,790.2,628z"/>
	</g>
	<g>
		<defs>
			<path id="SVGID_5_" d="M790.2,661.7h78.5c12.4,0,22.4-10.1,22.4-22.4c0-12.4-10.1-22.4-22.4-22.4c-12.4,0-22.4,10.1-22.4,22.4
				v11.2h-33.7v-11.2c0-12.4-10.1-22.4-22.4-22.4s-22.4,10.1-22.4,22.4C767.8,651.6,777.8,661.7,790.2,661.7z M857.5,639.2
				c0-6.2,5-11.2,11.2-11.2s11.2,5,11.2,11.2s-5,11.2-11.2,11.2h-11.2V639.2z M790.2,628c6.2,0,11.2,5,11.2,11.2v11.2h-11.2
				c-6.2,0-11.2-5-11.2-11.2S784,628,790.2,628z"/>
		</defs>
		<clipPath id="SVGID_6_">
			<use xlink:href="#SVGID_5_"  style="overflow:visible;"/>
		</clipPath>
		<rect x="755.4" y="604.5" class="st7" width="148.1" height="69.6"/>
	</g>
</g>
<g>
	<g>
		<path id="SVGID_37_" class="st6" d="M868.7,695.3h-11.2v-28h-11.2v28h-33.7v-28h-11.2v28h-11.2c-12.4,0-22.4,10.1-22.4,22.4
			c0,12.4,10.1,22.4,22.4,22.4s22.4-10.1,22.4-22.4v-5.6h-11.2v5.6c0,6.2-5,11.2-11.2,11.2s-11.2-5-11.2-11.2s5-11.2,11.2-11.2h78.5
			c6.2,0,11.2,5,11.2,11.2s-5,11.2-11.2,11.2s-11.2-5-11.2-11.2v-5.6h-11.2v5.6c0,12.4,10.1,22.4,22.4,22.4
			c12.4,0,22.4-10.1,22.4-22.4C891.2,705.4,881.1,695.3,868.7,695.3"/>
	</g>
	<g>
		<defs>
			<path id="SVGID_7_" d="M868.7,695.3h-11.2v-28h-11.2v28h-33.7v-28h-11.2v28h-11.2c-12.4,0-22.4,10.1-22.4,22.4
				c0,12.4,10.1,22.4,22.4,22.4s22.4-10.1,22.4-22.4v-5.6h-11.2v5.6c0,6.2-5,11.2-11.2,11.2s-11.2-5-11.2-11.2s5-11.2,11.2-11.2
				h78.5c6.2,0,11.2,5,11.2,11.2s-5,11.2-11.2,11.2s-11.2-5-11.2-11.2v-5.6h-11.2v5.6c0,12.4,10.1,22.4,22.4,22.4
				c12.4,0,22.4-10.1,22.4-22.4C891.2,705.4,881.1,695.3,868.7,695.3"/>
		</defs>
		<clipPath id="SVGID_8_">
			<use xlink:href="#SVGID_7_"  style="overflow:visible;"/>
		</clipPath>
		<rect x="755.4" y="654.9" class="st8" width="148.1" height="97.6"/>
	</g>
</g>
<g>
	<g>
		
			<linearGradient id="SVGID_9_" gradientUnits="userSpaceOnUse" x1="175.4" y1="276.6" x2="422.2" y2="276.6" gradientTransform="matrix(1 0 0 -1 0 960)">
			<stop  offset="3.605769e-04" style="stop-color:#6A52A2"/>
			<stop  offset="0.448" style="stop-color:#8451A1"/>
			<stop  offset="1" style="stop-color:#A5509F"/>
		</linearGradient>
		<circle id="SVGID_39_" class="st9" cx="298.8" cy="683.4" r="123.4"/>
	</g>
	<g>
		<defs>
			<circle id="SVGID_10_" cx="298.8" cy="683.4" r="123.4"/>
		</defs>
		<clipPath id="SVGID_11_">
			<use xlink:href="#SVGID_10_"  style="overflow:visible;"/>
		</clipPath>
		
			<linearGradient id="SVGID_12_" gradientUnits="userSpaceOnUse" x1="163.1" y1="276.55" x2="434.6" y2="276.55" gradientTransform="matrix(1 0 0 -1 0 960)">
			<stop  offset="3.605769e-04" style="stop-color:#6A52A2"/>
			<stop  offset="0.448" style="stop-color:#8451A1"/>
			<stop  offset="1" style="stop-color:#A5509F"/>
		</linearGradient>
		<rect x="163.1" y="547.7" class="st10" width="271.5" height="271.5"/>
	</g>
</g>
<path class="st5" d="M298.8,809.3c-69.4,0-125.9-56.5-125.9-125.9s56.5-125.9,125.9-125.9S424.7,614,424.7,683.4
	S368.2,809.3,298.8,809.3z M298.8,562.5c-66.7,0-120.9,54.3-120.9,120.9s54.3,120.9,120.9,120.9S419.7,750,419.7,683.4
	S365.5,562.5,298.8,562.5z"/>
<g>
	<g>
		<path id="SVGID_43_" class="st6" d="M308.1,681.4h-23.5c-1.6,0-2.9,1.3-2.9,2.9v52.9c0,1.6,1.3,2.9,2.9,2.9h23.5
			c1.6,0,2.9-1.3,2.9-2.9v-52.9C311,682.7,309.7,681.4,308.1,681.4"/>
	</g>
	<g>
		<defs>
			<path id="SVGID_13_" d="M308.1,681.4h-23.5c-1.6,0-2.9,1.3-2.9,2.9v52.9c0,1.6,1.3,2.9,2.9,2.9h23.5c1.6,0,2.9-1.3,2.9-2.9v-52.9
				C311,682.7,309.7,681.4,308.1,681.4"/>
		</defs>
		<clipPath id="SVGID_14_">
			<use xlink:href="#SVGID_13_"  style="overflow:visible;"/>
		</clipPath>
		<rect x="269.3" y="669.1" class="st11" width="54.1" height="83.4"/>
	</g>
</g>
<g>
	<g>
		<path id="SVGID_45_" class="st6" d="M261.1,704.9h-23.5c-1.6,0-2.9,1.3-2.9,2.9v29.4c0,1.6,1.3,2.9,2.9,2.9h23.5
			c1.6,0,2.9-1.3,2.9-2.9v-29.4C264,706.3,262.7,704.9,261.1,704.9"/>
	</g>
	<g>
		<defs>
			<path id="SVGID_15_" d="M261.1,704.9h-23.5c-1.6,0-2.9,1.3-2.9,2.9v29.4c0,1.6,1.3,2.9,2.9,2.9h23.5c1.6,0,2.9-1.3,2.9-2.9v-29.4
				C264,706.3,262.7,704.9,261.1,704.9"/>
		</defs>
		<clipPath id="SVGID_16_">
			<use xlink:href="#SVGID_15_"  style="overflow:visible;"/>
		</clipPath>
		<rect x="222.3" y="692.6" class="st12" width="54.1" height="59.9"/>
	</g>
</g>
<g>
	<g>
		<path id="SVGID_47_" class="st6" d="M355.1,657.9h-23.5c-1.6,0-2.9,1.3-2.9,2.9v76.4c0,1.6,1.3,2.9,2.9,2.9h23.5
			c1.6,0,2.9-1.3,2.9-2.9v-76.4C358,659.2,356.7,657.9,355.1,657.9"/>
	</g>
	<g>
		<defs>
			<path id="SVGID_17_" d="M355.1,657.9h-23.5c-1.6,0-2.9,1.3-2.9,2.9v76.4c0,1.6,1.3,2.9,2.9,2.9h23.5c1.6,0,2.9-1.3,2.9-2.9v-76.4
				C358,659.2,356.7,657.9,355.1,657.9"/>
		</defs>
		<clipPath id="SVGID_18_">
			<use xlink:href="#SVGID_17_"  style="overflow:visible;"/>
		</clipPath>
		<rect x="316.3" y="645.6" class="st13" width="54.1" height="107"/>
	</g>
</g>
<g>
	<g>
		<path id="SVGID_49_" class="st6" d="M298.4,662.9l36.1-36.1v16.4c0,1.6,1.3,2.9,2.9,2.9s2.9-1.3,2.9-2.9v-23.5
			c0-0.4-0.1-0.8-0.2-1.1c-0.3-0.7-0.9-1.3-1.6-1.6c-0.4-0.1-0.7-0.2-1.1-0.2H314c-1.6,0-2.9,1.3-2.9,2.9c0,1.6,1.3,2.9,2.9,2.9
			h16.4l-34,34L280.8,641c-1.1-1.1-3-1.1-4.2,0l-23.5,23.5c-1.1,1.1-1.1,3,0,4.2c0.6,0.6,1.3,0.9,2.1,0.9s1.5-0.3,2.1-0.9l21.4-21.4
			l15.6,15.6C295.4,664.1,297.3,664.1,298.4,662.9"/>
	</g>
	<g>
		<defs>
			<path id="SVGID_19_" d="M298.4,662.9l36.1-36.1v16.4c0,1.6,1.3,2.9,2.9,2.9s2.9-1.3,2.9-2.9v-23.5c0-0.4-0.1-0.8-0.2-1.1
				c-0.3-0.7-0.9-1.3-1.6-1.6c-0.4-0.1-0.7-0.2-1.1-0.2H314c-1.6,0-2.9,1.3-2.9,2.9c0,1.6,1.3,2.9,2.9,2.9h16.4l-34,34L280.8,641
				c-1.1-1.1-3-1.1-4.2,0l-23.5,23.5c-1.1,1.1-1.1,3,0,4.2c0.6,0.6,1.3,0.9,2.1,0.9s1.5-0.3,2.1-0.9l21.4-21.4l15.6,15.6
				C295.4,664.1,297.3,664.1,298.4,662.9"/>
		</defs>
		<clipPath id="SVGID_20_">
			<use xlink:href="#SVGID_19_"  style="overflow:visible;"/>
		</clipPath>
		<rect x="239.9" y="604.5" class="st14" width="112.8" height="77.6"/>
	</g>
</g>
<g>
	<g>
		
			<linearGradient id="SVGID_21_" gradientUnits="userSpaceOnUse" x1="437" y1="693.7" x2="683.8" y2="693.7" gradientTransform="matrix(1 0 0 -1 0 960)">
			<stop  offset="0" style="stop-color:#0F998E"/>
			<stop  offset="1" style="stop-color:#6FC171"/>
		</linearGradient>
		<circle id="SVGID_51_" class="st15" cx="560.4" cy="266.3" r="123.4"/>
	</g>
	<g>
		<defs>
			<circle id="SVGID_22_" cx="560.4" cy="266.3" r="123.4"/>
		</defs>
		<clipPath id="SVGID_23_">
			<use xlink:href="#SVGID_22_"  style="overflow:visible;"/>
		</clipPath>
		
			<linearGradient id="SVGID_24_" gradientUnits="userSpaceOnUse" x1="424.7" y1="693.65" x2="696.2" y2="693.65" gradientTransform="matrix(1 0 0 -1 0 960)">
			<stop  offset="0" style="stop-color:#0F998E"/>
			<stop  offset="1" style="stop-color:#6FC171"/>
		</linearGradient>
		<rect x="424.7" y="130.6" class="st16" width="271.5" height="271.5"/>
	</g>
</g>
<path class="st5" d="M560.4,392.2c-69.4,0-125.9-56.5-125.9-125.9S491,140.4,560.4,140.4s125.9,56.5,125.9,125.9
	S629.8,392.2,560.4,392.2z M560.4,145.4c-66.7,0-120.9,54.3-120.9,120.9s54.3,120.9,120.9,120.9c66.7,0,120.9-54.3,120.9-120.9
	S627.1,145.4,560.4,145.4z"/>
<path class="st17" d="M853.1,531.8l-0.2-2.5c-3.5-52.9-15.5-99.4-35.7-138.3c-20.1-38.8-52.6-72.2-96.4-99.1l-2.1-1.3l2.6-4.2
	l2.1,1.3c44.6,27.4,77.7,61.4,98.2,101.1c20.5,39.6,32.7,86.8,36.2,140.3l0.2,2.5L853.1,531.8z"/>
<path class="st17" d="M855.4,534.1c-0.5,0-0.9-0.1-1.4-0.4c-1.1-0.8-1.4-2.3-0.7-3.4l19.7-29.6c0.8-1.1,2.3-1.4,3.4-0.7
	c1.1,0.8,1.4,2.3,0.7,3.4L857.4,533C857,533.7,856.2,534.1,855.4,534.1z"/>
<path class="st17" d="M855.4,534.1c-0.6,0-1.3-0.2-1.7-0.7l-25.9-25.9c-1-1-1-2.5,0-3.5s2.5-1,3.5,0l25.9,25.9c1,1,1,2.5,0,3.5
	C856.6,533.9,856,534.1,855.4,534.1z"/>
<path class="st17" d="M565.4,839.5c-2,0-4,0-6.1-0.1c-44.5-1.2-91.7-13.5-140.3-36.3l-2.2-1.1l2.1-4.5l2.2,1.1
	c47.9,22.6,94.4,34.6,138.3,35.9c43.8,1.2,88.6-11,133.4-36.3l2.1-1.2l2.4,4.3l-2.1,1.2C651.8,827,608.1,839.5,565.4,839.5z"/>
<path class="st17" d="M434.3,833.7c-0.9,0-1.8-0.5-2.2-1.3l-16.3-31.6c-0.6-1.2-0.2-2.7,1.1-3.3c1.2-0.6,2.7-0.1,3.3,1.1l16.3,31.6
	c0.6,1.2,0.2,2.7-1.1,3.3C435.1,833.6,434.7,833.7,434.3,833.7z"/>
<path class="st17" d="M418,802.1c-1.1,0-2.1-0.7-2.4-1.8c-0.4-1.3,0.4-2.7,1.7-3.1l35.2-10.1c1.3-0.4,2.7,0.4,3.1,1.7
	s-0.4,2.7-1.7,3.1L418.7,802C418.4,802.1,418.2,802.1,418,802.1z"/>
<path class="st17" d="M681.6,833.7c-0.4,0-0.8-0.1-1.1-0.3c-1.2-0.6-1.7-2.1-1.1-3.3l16.3-31.6c0.6-1.2,2.1-1.7,3.3-1.1
	c1.2,0.6,1.7,2.1,1.1,3.3l-16.3,31.6C683.4,833.2,682.5,833.7,681.6,833.7z"/>
<path class="st17" d="M697.9,802.1c-0.2,0-0.5,0-0.7-0.1L662,791.9c-1.3-0.4-2.1-1.7-1.7-3.1c0.4-1.3,1.7-2.1,3.1-1.7l35.2,10.1
	c1.3,0.4,2.1,1.7,1.7,3.1C700,801.4,699,802.1,697.9,802.1z"/>
<path class="st17" d="M264.4,528.1v-2.5c-0.4-52.3,10.9-98.4,33.7-136.8c22.7-38.4,56.2-73.7,99.8-105.1l2-1.4l2.9,4l-2,1.4
	c-43,31-76.1,65.8-98.4,103.6c-22.3,37.7-33.4,82.9-33,134.3v2.5H264.4z"/>
<path class="st17" d="M401.4,286.9C401.4,286.9,401.3,286.9,401.4,286.9l-35.7-1.1c-1.4,0-2.4-1.2-2.4-2.5c0-1.4,1.2-2.5,2.5-2.4
	l35.6,1c1.4,0,2.4,1.2,2.4,2.5C403.8,285.9,402.7,286.9,401.4,286.9z"/>
<path class="st17" d="M393.1,322.6c-0.2,0-0.4,0-0.6-0.1c-1.3-0.3-2.2-1.6-1.8-3l8.2-35.7c0.3-1.3,1.6-2.2,3-1.8
	c1.3,0.3,2.2,1.6,1.8,3l-8.2,35.7C395.3,321.9,394.3,322.6,393.1,322.6z"/>
<path class="st17" d="M717,286.9c-1.3,0-2.4-1.1-2.5-2.4c0-1.4,1-2.5,2.4-2.5l35.6-1c1.2,0,2.5,1,2.5,2.4s-1,2.5-2.4,2.5L717,286.9
	L717,286.9z"/>
<path class="st17" d="M725.2,322.6c-1.1,0-2.1-0.8-2.4-1.9l-8.2-35.7c-0.3-1.3,0.5-2.7,1.9-3c1.3-0.3,2.7,0.5,3,1.8l8.2,35.7
	c0.3,1.3-0.5,2.7-1.9,3C725.6,322.6,725.4,322.6,725.2,322.6z"/>
<path class="st17" d="M267.6,535.4c-0.5,0-1-0.1-1.4-0.4c-1.1-0.8-1.4-2.3-0.6-3.4l20.3-29.3c0.8-1.1,2.3-1.4,3.4-0.6
	s1.4,2.3,0.6,3.4l-20.3,29.3C269.1,535.1,268.4,535.4,267.6,535.4z"/>
<path class="st17" d="M267.6,535.4c-0.6,0-1.3-0.3-1.8-0.8l-25.5-26.4c-0.9-1-0.9-2.5,0.1-3.5c1-0.9,2.5-0.9,3.5,0.1l25.5,26.4
	c0.9,1,0.9,2.5-0.1,3.5C268.8,535.2,268.2,535.4,267.6,535.4z"/>
<g>
	
		<ellipse transform="matrix(0.1602 -0.9871 0.9871 0.1602 214.4339 704.4368)" class="st5" cx="521.2" cy="226.2" rx="11.9" ry="11.9"/>
	<path class="st5" d="M525.2,301.3v-39.5c0-5.8,1.8-11.3,4.9-15.7c-0.3,0-0.7-0.1-1-0.1h-15.8c-8.7,0-15.8,7.1-15.8,15.8v23.7h7.9
		v27.7h27.7v-11.9L525.2,301.3L525.2,301.3z"/>
	<circle class="st5" cx="600.3" cy="226.2" r="11.9"/>
	<path class="st5" d="M596.3,301.3v-39.5c0-5.8-1.8-11.3-4.9-15.7c0.3,0,0.7-0.1,1-0.1h15.8c8.7,0,15.8,7.1,15.8,15.8v23.7h-7.9
		v27.7h-27.7v-11.9L596.3,301.3L596.3,301.3z"/>
	<path class="st5" d="M568.6,242h-15.8c-10.9,0-19.8,8.9-19.8,19.8v31.6h11.9V325h31.6v-31.6h11.9v-31.6
		C588.4,250.8,579.5,242,568.6,242z"/>
	<circle class="st5" cx="560.7" cy="218.3" r="15.8"/>
</g>
</svg>
