<?xml version="1.0" encoding="utf-8"?>
<!-- Generator: Adobe Illustrator 23.0.4, SVG Export Plug-In . SVG Version: 6.00 Build 0)  -->
<svg version="1.1" id="Layer_1" xmlns="http://www.w3.org/2000/svg" xmlns:xlink="http://www.w3.org/1999/xlink" x="0px" y="0px"
	 viewBox="0 0 400 400" style="enable-background:new 0 0 400 400;" xml:space="preserve">
<style type="text/css">
	.st0{fill:#FFFFFF;}
</style>
<g>
	<path d="M199.1,322.9c66,0,119.5-53.5,119.5-119.5S265.1,83.9,199.1,83.9S79.6,137.4,79.6,203.4S133.1,322.9,199.1,322.9
		L199.1,322.9z"/>
	<path class="st0" d="M107.8,263c18.4,0,33.5-9.4,33.5-28.5c0-15.2-13.3-23.4-27.8-23.4c-12.3,0-18.2,4.2-22.1,7.8l3-15.6
		c0.7,0.1,11.5,0.5,14.1,0.5c12.6,0,26.1-5.8,35.2-23.3l-0.9-0.7c-4.7,4.4-15.4,5.8-23.1,5.8c-8.5,0-20.1-3-21.6-5.1h-1.3L88.5,225
		l1.8,0.7c3.3-7.3,10-11.9,16-11.9c8.3,0,12.2,7.6,12.2,20.4c0,17-4.8,27.6-12.7,27.6c-4.3,0-7.4-2.4-7.8-5.5
		c1.6-4.1,4.1-8.6,4.1-14.6c0-5.1-3.7-8.6-8.9-8.6c-4.9,0-9.8,4.1-9.8,12.5C83.3,258.3,93.3,263,107.8,263L107.8,263z M171.1,256
		c12.9,0,26.8-10.8,26.8-33.4c0-18.6-10.7-30.7-25.8-30.7c-12.6,0-26.7,10.7-26.7,33.4C145.4,243.8,156,256,171.1,256L171.1,256z
		 M171.4,254.8c-6.8,0-8.7-12-8.7-30.8c0-20.2,3.3-30.9,9-30.9c6.9,0,8.8,12.5,8.8,30.8C180.5,244.1,177.3,254.8,171.4,254.8
		L171.4,254.8z M226.9,256c12.9,0,26.8-10.8,26.8-33.4c0-18.6-10.7-30.7-25.8-30.7c-12.6,0-26.7,10.7-26.7,33.4
		C201.2,243.8,211.9,256,226.9,256L226.9,256z M227.3,254.8c-6.8,0-8.7-12-8.7-30.8c0-20.2,3.3-30.9,9-30.9c6.9,0,8.8,12.5,8.8,30.8
		C236.4,244.1,233.2,254.8,227.3,254.8L227.3,254.8z M282.8,256c12.9,0,26.8-10.8,26.8-33.4c0-18.6-10.7-30.7-25.8-30.7
		c-12.6,0-26.7,10.7-26.7,33.4C257.1,243.8,267.8,256,282.8,256L282.8,256z M283.1,254.8c-6.8,0-8.7-12-8.7-30.8
		c0-20.2,3.3-30.9,9-30.9c6.9,0,8.8,12.5,8.8,30.8C292.2,244.1,289.1,254.8,283.1,254.8L283.1,254.8z"/>
	<polygon class="st0" points="142.3,180.8 142.3,171.6 150.5,171.6 150.5,148.4 144.9,148.4 144.9,138.4 174.4,138.4 174.4,148.4 
		168.9,148.4 168.9,171.6 174.4,171.6 174.4,180.8 142.3,180.8 	"/>
	<path class="st0" d="M201.1,180.8v-9.2h4.3v-9.7c0-2.9-2.1-4.2-4.8-4.2c-3.4,0-6,2.5-6,5.9v8h4.4v9.2H176v-9.2h4.2v-13.9H176v-9.3
		h18.2v6.4c0.3-0.2,0.6-0.6,0.8-0.9c3.3-3.8,7.1-5.2,12.1-5.2c7,0,12.7,2.9,12.7,10.6v12.2h3.7v9.2H201.1L201.1,180.8z"/>
	<path class="st0" d="M260.5,162.1l-12.5,1.4c-0.1-3.5-0.9-7.1-5.1-7.1c-5.4,0-5.8,4.5-5.8,8.7v0v0.1c0,4.3,0.4,8.7,5.8,8.7
		c2.8,0,5.3-1.6,5.3-5l0.4,0l12,0l-0.1,1.1c-2,10.1-11.2,11.7-17.7,11.7c-10.3,0-20.4-5.1-20.4-16.5v0c0-11.5,10.1-16.5,20.4-16.5
		C242.8,148.6,258.9,147.6,260.5,162.1L260.5,162.1z"/>
	<path class="st0" d="M270.5,176.3c0,2.9-2.3,5.2-5.2,5.2c-2.9,0-5.2-2.3-5.2-5.2c0-2.9,2.3-5.2,5.2-5.2
		C268.1,171,270.5,173.4,270.5,176.3L270.5,176.3z"/>
	<path d="M72.2,165c-0.2,0.7-0.4,1.6-0.9,2.2c-0.7,0.9-1.4,1.1-2.2,1.2c-3,0.7-17.9,3.9-26,5.7l-0.2,1.4c5.3,3.1,17,10.3,21.7,13.3
		c1.3,0.8,2.3,1.7,2.7,2.7c0.3,0.8,0.3,1.7,0.2,2.4l0.3,0l1.6-9.8l-0.3,0c-0.3,1.4-1,4.7-2.4,4.5c-0.5-0.1-1.4-0.5-2.3-0.9
		c-0.8-0.4-3.9-2.2-5.1-2.9l1.5-9.3l7.6-1.5c0.3-0.1,0.7-0.1,1,0c1,0.3,0.8,3,0.7,4.4l0.3,0l2.2-13.3L72.2,165L72.2,165z
		 M58.7,184.5l-10.3-6.2l11.7-2.5L58.7,184.5L58.7,184.5z M58.1,153.5l-2.3,7l0.2,0.1c0.3-0.6,0.8-1.3,1.3-1.6
		c0.6-0.4,1.5-0.4,2.3-0.1l11.9,4.8c0.8,0.3,1.2,0.8,1.2,1.6c0,0.5-0.2,1-0.4,1.7l0.3,0.1l3.7-9.2l-0.3-0.1c-0.3,0.6-0.5,1-1,1.4
		c-0.5,0.5-1.2,0.5-2,0.1l-11.2-4.5c-0.6-0.7-1.4-2.5-0.5-4.7c0.6-1.5,2.2-2.1,4.7-1.1l9.6,3.9c0.8,0.3,1.3,0.7,1.3,1.4
		c0,0.5-0.1,1-0.3,1.5l0.3,0.1l3.5-8.8l-0.3-0.1c-0.3,0.6-0.5,1-0.9,1.3c-0.5,0.5-1.2,0.5-2,0.1L66,144c-0.6-0.7-1.3-2.5-0.5-4.6
		c0.6-1.5,2.4-2.1,4.9-1.1l9.6,3.8c0.8,0.3,1.3,0.7,1.3,1.4c0,0.5-0.1,1-0.3,1.6l0.3,0.1l3.6-9.1l-0.3-0.1c-0.3,0.6-0.5,1.1-0.9,1.5
		c-0.6,0.5-1.2,0.5-2,0.2l-9.2-3.7c-3.4-1.4-6.4-0.9-7.8,2.5c-1.2,2.9-0.3,5.2,0.8,7.2l0,0.1c-2.3,0-4.1,1.2-5.1,3.4
		c-1.2,3.1-0.1,5,0.7,7l0,0.1l-2.6-1L58.1,153.5L58.1,153.5z M89.7,122c1.4,2.6,1.5,4.7,0.1,7c-2.2,3.6-6.3,2.8-10.5,0.2l-0.7-0.5
		l6.1-9.8l-0.3-0.2c-3.4-2.1-7.6-2.3-10.6,2.6c-3,4.7-0.7,9.8,3.4,12.4c4.5,2.8,9.7,2.7,13-2.6c1.9-3.1,1.5-6.6-0.2-9.3L89.7,122
		L89.7,122z M78.2,128.5c-3.4-2.3-5.2-5-4.1-6.8c1.4-2.3,4.9-0.6,7.5,1.1L78.2,128.5L78.2,128.5z M92.3,102.4
		c-1.3-1.1-3.1-0.9-4.2,0.4c-1.1,1.4-1.5,3.4-0.9,6.1l-0.1,0.1l-2.2-1.8l-0.2,0l-4.3,6l0.2,0.2c0.5-0.5,1.1-1,1.7-1.2
		c0.7-0.2,1.6,0.1,2.3,0.5l9.9,8.1c0.7,0.6,1,1.2,0.7,1.9c-0.2,0.6-0.5,0.9-0.9,1.5l0.2,0.2l6.9-8.5l-0.2-0.2
		c-0.5,0.5-1.3,1.5-1.9,1.8c-0.6,0.3-1.4,0.3-2.1-0.3l-9.4-7.7c-0.3-0.8-0.6-3.1,0.5-4.5c0.3,0.5,0.7,1.3,1.2,1.7
		c1.2,1,2.4,0.7,3.4-0.5C93.9,105,93.5,103.4,92.3,102.4L92.3,102.4z M91.3,89c-1.1-1.1-2.9-1.1-4.1,0.1c-1.1,1.1-1.1,2.9,0,4.1
		c1.1,1.1,2.9,1.1,4.1,0C92.5,92,92.5,90.2,91.3,89L91.3,89z M111.4,105.4c-0.5,0.4-1,0.9-1.6,1.1c-0.8,0.3-1.4,0-2-0.6L96.7,94.7
		l-0.2,0l-5.2,5.8l0.2,0.2c0.5-0.5,1.5-1.2,2-1.3c0.8-0.1,1.6,0.2,2.2,0.7l9.1,9c0.6,0.6,0.8,1.3,0.5,2c-0.3,0.5-0.6,0.9-1,1.4
		l0.2,0.2l7.2-7.2L111.4,105.4L111.4,105.4z M120.7,91.9c0.6,2.6,0,4.8-2.2,6.6c-2.4,2-6,0.8-9.3-3.2c-3.7-4.6-4.1-7.9-2.3-9.4
		c0.9-0.8,1.9-1,2.5-0.5c0.4,0.6,0.4,2.1,1.2,3.1c1,1.2,2.4,1,3.4,0.2c1.3-1,1.3-2.5,0.4-3.6c-1.6-2-4.6-2.3-7.9,0.5
		c-4.5,3.7-4.2,9.3-1.1,13.2c3.5,4.3,8.3,5.6,13,1.8c2.6-2.1,3.3-5.6,2.6-8.7L120.7,91.9L120.7,91.9z M137.4,81.5
		c0.9,1.6,1.2,3.4,0.1,4.1c-1,0.6-2.1-0.3-2.4-0.8c-0.7-1.1-2.9-5-4.8-8c-2.8-4.5-5.8-3.3-9.3-1.1c-2.7,1.7-4.9,5.2-3.6,7.3
		c0.6,1,1.8,1.7,3.2,0.8c1.4-0.9,1.7-2.4,1.3-3.1c-0.5-0.9-1.8-1.7-2.3-2.4c0.1-0.5,0.4-1.4,1.5-2.1c2.4-1.5,4.2,1.3,4.7,2.1
		l1.5,2.3c-0.7,1.4-2.9,3.5-4.4,5.5c-1.3,1.7-2.4,3.5-0.6,6.4c1.4,2.2,4,2.6,6.3,1.1c2.3-1.4,3.1-3.3,3.4-5.3l0.1-0.1
		c1.5,1,2.9,1.2,4.8,0.1c2.5-1.6,2.7-3.9,0.9-6.9L137.4,81.5L137.4,81.5z M131.6,87.7c-0.1,1.3-0.6,2.3-1.8,3.1
		c-1.2,0.8-2.6,0.3-3.9-1.7c-1.8-2.9-0.7-5.1,1.7-8.1L131.6,87.7L131.6,87.7z M133.9,60.8c-1.1-2.1-2.7-3.5-5-2.3
		c-1.6,0.8-1.7,2.5-1.2,3.5c0.5,1,1.8,2.1,3.8,1.1l1.2-0.6c0.9,2-0.1,4.9-1.5,6.7l0.4,0.2C133.3,67.5,135.5,64,133.9,60.8
		L133.9,60.8z M153.1,74.7c-1.3-3-4-3.6-7.3-3.2c-3.5,0.3-5,0.4-5.8-1.6c-0.6-1.3-0.4-3.3,1.6-4.2c2.4-1,5.4,0.7,7.4,2.6l0.3-0.1
		l-2.6-5.2l-0.3,0.1l-0.2,1.3c-1.2-0.1-3.1,0.2-4.9,1c-3.7,1.6-4.9,4.8-3.7,7.5c1.4,3.2,4.5,3.5,7.2,3.2c3.8-0.4,5.2-0.1,6.1,1.8
		c0.8,1.7,0.3,3.7-1.9,4.7c-2.9,1.3-7.1-1.5-8.7-3.2l-0.3,0.1l2.8,5.8l0.3-0.1l0.2-1.6c1,0.3,3.6,0.3,5.9-0.7
		C152.6,81.3,154.6,78.1,153.1,74.7L153.1,74.7z M178.3,46L156,51l0.1,0.3c0.7-0.1,2.3-0.3,3.1-0.2c1.1,0.2,1.4,0.8,1.6,1.7
		l4.8,21.1c0.2,0.9,0.1,1.6-0.8,2.2c-0.5,0.3-2.2,0.9-2.9,1.1l0.1,0.3l13.4-3l-0.1-0.3c-0.7,0.1-2.4,0.3-3,0.2
		c-1-0.2-1.4-0.8-1.6-1.6L168.4,62l3.2-0.7c1.9-0.4,3,0,3.7,0.4c0.9,0.6,2.2,2.8,2.6,3.9l0.4-0.1l-2.5-11l-0.4,0.1
		c0.1,1.3-0.3,3.6-0.8,4.4c-0.4,0.6-1.1,1.4-3.2,1.9l-3.2,0.7l-2.8-12.2l4.1-0.9c1.2-0.3,2.8-0.6,3.7-0.6c1.9,0,5.2,3.3,6.1,4.9
		l0.3-0.1L178.3,46L178.3,46z M202.1,67c0,1.9-0.6,3.6-1.9,3.6c-1.1,0.1-1.7-1.3-1.8-1.8c-0.1-1.3-0.1-5.8-0.3-9.4
		c-0.3-5.3-3.5-5.7-7.6-5.5c-3.2,0.2-6.8,2.2-6.7,4.6c0.1,1.1,0.8,2.3,2.4,2.2c1.7-0.1,2.7-1.3,2.6-2.1c-0.1-1-0.7-2.4-0.8-3.2
		c0.3-0.4,1-1,2.3-1.1c2.8-0.2,3,3.2,3.1,4.2l0.2,2.7c-1.3,0.9-4.2,1.7-6.5,2.7c-1.9,0.9-3.8,2-3.6,5.3c0.1,2.6,2.2,4.2,5,4
		c2.7-0.2,4.3-1.4,5.6-3l0.1,0c0.8,1.6,2,2.5,4.1,2.4c2.9-0.2,4.2-2.1,4.2-5.6L202.1,67L202.1,67z M194,69.6
		c-0.7,1.1-1.7,1.7-3.1,1.8c-1.4,0.1-2.4-1-2.6-3.3c-0.2-3.4,1.9-4.8,5.4-6.3L194,69.6L194,69.6z M216.9,67.9c0.2-3.2-1.9-5-5-6.2
		c-3.3-1.3-4.6-2-4.4-4.1c0.1-1.5,1.2-3.1,3.3-3c2.6,0.2,4.5,3.1,5.4,5.7l0.3,0l0.1-5.8l-0.4,0l-0.8,1.1c-1-0.7-2.8-1.3-4.8-1.4
		c-4-0.3-6.6,2-6.8,5c-0.2,3.5,2.4,5.2,4.9,6.2c3.6,1.4,4.7,2.3,4.6,4.4c-0.1,1.9-1.4,3.4-3.9,3.2c-3.2-0.2-5.6-4.6-6.3-6.8l-0.3,0
		l-0.2,6.5l0.4,0l0.9-1.3c0.7,0.7,3.1,1.9,5.6,2.1C213.4,73.6,216.6,71.6,216.9,67.9L216.9,67.9z M229.9,70.4
		c-0.4,1.5-1.6,3.3-3.3,3c-2.1-0.3-2.4-2.1-2.1-4l1.9-12l5.2,0.8l0.1-0.6l-5.2-0.8l0.9-5.8l-4.4-0.7l-0.9,5.8l-3.6-0.6l-0.1,0.6
		l3.6,0.6l-2,12.2c-0.6,3.5,0.8,5.7,4.1,6.3c3.4,0.6,5.5-1.8,6.3-4.7L229.9,70.4L229.9,70.4z M246.4,75.6c-2.1,2.1-4.1,2.7-6.8,2
		c-4.1-1.2-4.4-5.3-3-10l0.2-0.8L248,70l0.1-0.3c1.1-3.8,0.1-7.9-5.3-9.5c-5.4-1.6-9.6,1.9-11,6.7c-1.5,5.1,0,10.1,6,11.8
		c3.5,1,6.7-0.3,8.9-2.7L246.4,75.6L246.4,75.6z M237,66.3c1.3-3.9,3.4-6.4,5.5-5.8c2.6,0.8,1.9,4.5,1,7.6L237,66.3L237,66.3z
		 M260.8,81.5c1.3-3-0.1-5.3-2.6-7.6c-2.7-2.4-3.6-3.4-2.8-5.4c0.6-1.3,2.1-2.5,4.1-1.7c2.4,1,3.2,4.4,3.1,7.2l0.3,0.1l2.1-5.4
		l-0.3-0.1l-1.1,0.7c-0.7-1-2.2-2.1-4.1-2.9c-3.7-1.6-6.9-0.3-8.1,2.4c-1.4,3.2,0.5,5.7,2.6,7.5c2.9,2.5,3.6,3.8,2.8,5.7
		c-0.8,1.7-2.5,2.7-4.7,1.8c-2.9-1.3-3.7-6.3-3.6-8.5l-0.3-0.1l-2.4,6l0.3,0.1l1.3-0.9c0.4,0.9,2.2,2.8,4.6,3.8
		C255.6,85.6,259.3,84.9,260.8,81.5L260.8,81.5z M272.4,88.2c-0.9,1.3-2.6,2.6-4.2,1.7c-1.9-1-1.6-2.8-0.6-4.5l5.9-10.6l4.6,2.5
		l0.3-0.6l-4.6-2.5l2.8-5.1l-3.9-2.2l-2.8,5.1l-3.2-1.8l-0.3,0.6l3.2,1.8l-6,10.8c-1.7,3.1-1.2,5.7,1.7,7.3c3.1,1.7,5.8,0.2,7.5-2.3
		L272.4,88.2L272.4,88.2z M274.3,85.9l10.3,7.2l1.9-2.8l-10.3-7.2L274.3,85.9L274.3,85.9z M310.5,111.8l-9.7-9.3l-0.2,0.2
		c0.5,0.5,1.7,1.9,2.1,2.8c0.5,1,0.1,1.8-0.6,2.5l-3.2,3.4c-2,1.3-4.6,1.4-7.3-1c-3.7-3.5-1.9-9.5,3.6-15.2c5.7-6,11.3-8,15.3-4.3
		c3.5,3.3,2.9,8.7,0.6,13.6l0.3,0.3l6.6-7.2l-0.3-0.3l-2.3,0.5c-0.4-1.8-1.8-4.6-4.1-6.8c-6.2-5.8-14.9-5.6-20.7,0.5
		c-6.2,6.6-4.9,14.2-0.2,18.6c2.5,2.4,5.6,3.9,8.5,4.8l0,3.4l0.3,0.1l6.7-7.1c0.6-0.6,1.3-1,2.3-0.6c0.7,0.3,1.6,1,2.2,1.4
		L310.5,111.8L310.5,111.8z M323.6,125.1c1.4-1,1.7-2.8,0.6-4.1c-1.1-1.4-3-2.3-5.7-2.4l0-0.1l2.3-1.7l0-0.2l-4.8-5.7l-0.2,0.1
		c0.4,0.6,0.7,1.3,0.8,1.9c0,0.7-0.5,1.6-1.1,2.1l-10.3,7.6c-0.7,0.5-1.4,0.7-2,0.2c-0.5-0.3-0.8-0.7-1.2-1.2l-0.2,0.2l6.5,8.8
		l0.2-0.2c-0.4-0.6-1.1-1.6-1.3-2.3c-0.2-0.7,0.1-1.4,0.8-1.9l9.8-7.2c0.9-0.1,3.1,0.2,4.2,1.6c-0.6,0.2-1.4,0.4-2,0.8
		c-1.2,0.9-1.2,2.2-0.4,3.4C320.7,126,322.3,126,323.6,125.1L323.6,125.1z M327.6,145.6c4.7-2.7,6.5-7.7,3.6-12.8
		c-2.8-5-8.1-6.4-13.1-3.6c-5.2,2.9-6.2,8.4-3.8,12.8C317.4,147.4,322.9,148.2,327.6,145.6L327.6,145.6z M325.1,141.1
		c-4.4,2.5-8.7,3.7-10.3,0.8c-1.7-3,1.7-6,6.1-8.5c3.7-2.1,8.1-3.7,10-0.5C332.5,135.9,329.1,138.9,325.1,141.1L325.1,141.1z
		 M345.3,169l-2.2-6.3l-0.2,0.1c0.2,1,0.5,3-0.3,3.4c-0.3,0.1-0.9,0.2-1.4,0.2c-2.6,0-7.7-0.1-10.8-0.2c2.4-2.2,7.9-6.6,9.1-7.6
		c0.3-0.3,0.7-0.5,0.7-0.5c0.7-0.2,1.3,1.1,1.6,1.9l0.3-0.1l-3.1-8.6l-0.3,0.1c0.2,1.1,0.1,1.9-1,2.8c-0.4,0.4-2,1.8-2.6,2.3
		c-2.2-0.1-6-0.2-8.4-0.3c2.5-2.3,7.8-6.7,9-7.8c0.4-0.3,0.6-0.5,0.7-0.5c0.6-0.2,1.2,1,1.5,1.7l0.3-0.1l-3.1-8.8l-0.3,0.1
		c0.3,1.4,0,2.3-1,3.1c-3.5,3.1-8.7,7.7-13,11.5l0.5,1.4c1.8-0.1,3.2-0.1,4.8-0.1c2.2,0,6.7,0.1,8.5,0.3c-2.6,2.3-7.1,5.9-10.2,8.5
		l0.5,1.3c1.8-0.1,3.2-0.1,4.8,0c2.7,0.1,9.5,0.3,12.1,0.4c1.7,0,2.7,1,3.2,2L345.3,169L345.3,169z M354,176.7
		c1.6-0.3,2.5-1.8,2.2-3.4c-0.3-1.6-1.8-2.6-3.4-2.3c-1.6,0.3-2.5,1.8-2.2,3.4C350.9,176,352.4,177,354,176.7L354,176.7z
		 M329.3,184.4c-0.1-0.6-0.2-1.3-0.1-1.9c0.2-0.8,0.7-1.2,1.6-1.3l15.5-3.1l0.1-0.2l-2-7.5l-0.2,0c0.1,0.7,0.2,1.9,0,2.4
		c-0.3,0.7-1,1.2-1.8,1.4l-12.6,2.5c-0.8,0.2-1.5,0-1.9-0.7c-0.3-0.5-0.4-1-0.6-1.7l-0.3,0.1l2,10L329.3,184.4L329.3,184.4z
		 M331.2,206.1c0-0.7,0-1.2,0.2-1.8c0.3-0.7,0.8-1,1.7-1.1l10-0.8c3.8-0.3,6.1-2.1,5.8-5.9c-0.3-3.4-2.2-4.6-3.7-6l0-0.1l2.8-0.2
		l0.1-0.2l-1-7.3l-0.2,0c0,0.7-0.1,1.5-0.4,2c-0.3,0.6-1.1,1-2,1.2l-12.8,1c-0.9,0.1-1.4-0.2-1.7-0.9c-0.2-0.5-0.3-1-0.4-1.7l-0.3,0
		l0.8,9.9l0.3,0c0-0.6,0-1.2,0.2-1.8c0.2-0.7,0.8-0.9,1.7-1l12-1c0.9,0.4,2.4,1.7,2.6,4.1c0.1,1.5-1,3-3.7,3.2l-10.4,0.8
		c-0.9,0.1-1.6-0.1-1.8-0.7c-0.2-0.5-0.3-1-0.4-1.7l-0.3,0l0.8,9.8L331.2,206.1L331.2,206.1z M347.3,225.1c1.1,0.1,2-0.9,2.1-1.9
		c0.1-1.7-0.7-2.9-2.2-4.2c0.2-0.6,1.2-2.5,1.4-5.1c0.2-3.8-1.5-7.8-5.4-8c-2.4-0.2-4.4,1.5-5.7,4.4l-0.2,0c-0.4-1.6-1-3.9-3.1-4
		c-2.2-0.1-3.4,2.3-4,4.2l-0.2,0c0.1-4.2-1.3-6.6-3.5-6.7c-3-0.2-5,2.2-5.4,8.6c-0.5,7.1,2.3,10.5,6.1,10.7c3.5,0.2,5.6-2.5,5.9-4.9
		l0.5-4.7c0.2-2,0.2-4.2,2-4.1c0.7,0,1.1,0.6,1.4,1.2l-0.2,2.8c-0.2,3.6,1.7,7.3,5.2,7.6c1.9,0.1,3.5-0.6,4.7-1.8l0.2,0
		c0.5,0.4,1,1.1,1,2.1c-1.6,0.1-2.4,0.6-2.5,1.9C345.3,224.2,346.1,225,347.3,225.1L347.3,225.1z M326,219.5c-3-0.2-4.9-2.5-4.7-6.3
		c0.3-4.4,2.6-5.8,4.7-5.7c2.3,0.1,3.2,1.4,3.6,3.4c-0.2,3.2-0.5,5.9-0.7,6.7C328.3,219.2,326.9,219.5,326,219.5L326,219.5z
		 M342.4,216.5c-3.1-0.2-5.4-1.2-5.3-3.4c0.1-2,2.5-2.7,5.8-2.5c2.8,0.2,5.4,0.9,5.2,3.2C348,216.1,345.1,216.6,342.4,216.5
		L342.4,216.5z M341.8,257.1c4.2,1.1,7.3-1.8,8.7-7.2l3.5-13.3l-0.3-0.1c-0.2,0.7-0.7,2-1.3,2.8c-0.6,0.9-1.4,0.9-2.2,0.7l-20.9-5.5
		c-0.8-0.2-1.5-0.7-1.6-1.7c-0.1-0.5,0.2-2.2,0.3-2.9l-0.3-0.1l-3.5,13.2l0.3,0.1c0.3-0.9,0.9-2.4,1.2-2.8c0.6-0.8,1.4-0.9,2.2-0.7
		l9.2,2.4l-0.6,2.4C335.2,249.8,336.4,255.7,341.8,257.1L341.8,257.1z M342.4,251.2c-2.6-0.7-6.3-2.8-5-7.7l0.4-1.3l13.4,3.5l-0.5,2
		C349.5,251.8,345.8,252,342.4,251.2L342.4,251.2z M330,270.5c1.6,0.7,3.2,0,3.9-1.5c0.7-1.6,0.5-3.7-0.8-6.1l0-0.1l2.6,1.1l0.2-0.1
		l2.5-7l-0.2-0.1c-0.3,0.6-0.8,1.3-1.3,1.6c-0.6,0.4-1.6,0.4-2.3,0.1l-11.7-5c-0.8-0.3-1.3-0.9-1.2-1.6c0-0.6,0.2-1,0.4-1.7
		l-0.3-0.1l-4.3,10.1l0.3,0.1c0.3-0.6,0.8-1.8,1.4-2.3c0.5-0.5,1.3-0.6,2.1-0.3l11.2,4.8c0.5,0.7,1.4,2.8,0.8,4.5
		c-0.5-0.4-1-1-1.7-1.3c-1.4-0.6-2.5,0-3.1,1.4C327.8,268.5,328.5,269.9,330,270.5L330,270.5z M334.9,282.8c1.4,0.8,3.1,0.3,3.9-1.2
		c0.8-1.4,0.3-3.1-1.1-3.9c-1.4-0.8-3.1-0.2-3.9,1.1C332.9,280.2,333.5,282,334.9,282.8L334.9,282.8z M311.1,272.6
		c0.3-0.5,0.7-1.1,1.2-1.5c0.7-0.5,1.3-0.4,2,0l13.8,7.7l0.2-0.1l3.4-7l-0.2-0.1c-0.4,0.6-1.1,1.5-1.6,1.8c-0.7,0.3-1.6,0.3-2.3-0.1
		l-11.2-6.2c-0.7-0.4-1.2-1-1-1.7c0.1-0.6,0.3-1,0.6-1.7l-0.2-0.1l-5,8.9L311.1,272.6L311.1,272.6z M316.3,296.9l3.6-5.5l-0.2-0.1
		c-0.9,1-2.1,2.3-2.9,1.9c-0.4-0.2-0.8-0.7-1-1c-1.7-2.5-4.6-6.6-6.2-9c3.5,0.5,10,1.8,11.9,2.2c0.5,0.1,0.8,0.2,0.8,0.3
		c0.5,0.3-0.1,1.6-0.7,2.5l0.3,0.2l5.4-8.2l-0.2-0.2c-0.9,1.1-1.9,1.3-3.1,1.1l-17.4-3l-0.7,1.1c1.2,1.4,2,2.6,2.9,3.8
		c2,2.9,5.3,7.8,6.9,10.3c1,1.5,0.8,2.4,0.3,3.5L316.3,296.9L316.3,296.9z M292.3,303.4c-1.3-1.3-2.1-3-1.2-3.9
		c0.8-0.9,2.1-0.3,2.6,0.1c1,0.9,4.1,4.1,6.8,6.4c3.9,3.5,6.5,1.6,9.2-1.4c2.1-2.4,3.3-6.4,1.5-8c-0.9-0.8-2.2-1.1-3.3,0.1
		c-1.1,1.3-1,2.8-0.4,3.4c0.8,0.7,2.2,1.2,2.9,1.7c0.1,0.5,0,1.4-0.9,2.4c-1.9,2.1-4.4-0.1-5.1-0.8l-2-1.8c0.3-1.5,1.8-4.1,2.7-6.5
		c0.8-2,1.3-4.1-1.2-6.3c-1.9-1.7-4.5-1.4-6.4,0.6c-1.8,2-2.1,4-1.9,6.1l-0.1,0.1c-1.7-0.6-3.2-0.4-4.6,1.2c-2,2.2-1.5,4.5,1,6.9
		L292.3,303.4L292.3,303.4z M296.3,295.8c-0.3-1.3,0-2.4,0.9-3.4c1-1.1,2.4-1,4.2,0.5c2.6,2.3,2.1,4.8,0.6,8.2L296.3,295.8
		L296.3,295.8z M283.3,311.2c-0.9-1.3-1.6-3.3-0.3-4.5c1.6-1.4,3.2-0.6,4.5,0.9l8.2,9l-3.9,3.5l0.4,0.5l3.9-3.5l3.9,4.3l3.3-3
		l-3.9-4.3l2.7-2.5l-0.4-0.5l-2.7,2.4l-8.3-9.2c-2.4-2.6-5-3-7.5-0.7c-2.6,2.3-2.1,5.4-0.2,7.8L283.3,311.2L283.3,311.2z
		 M268.8,320.7c-0.3-3,0.4-4.9,2.7-6.5c3.5-2.4,6.9-0.1,9.7,4l0.5,0.7l-9.5,6.6l0.2,0.3c2.3,3.2,6.1,5.1,10.7,1.8
		c4.6-3.2,4.5-8.7,1.7-12.8c-3-4.4-7.9-6.3-13-2.7c-3,2.1-4,5.4-3.5,8.6L268.8,320.7L268.8,320.7z M282,319.2
		c2.2,3.4,2.8,6.6,1.1,7.9c-2.2,1.5-4.7-1.4-6.5-4L282,319.2L282,319.2z M240.9,336.3c0.2-4.1,1.7-7.7,5.8-9.5
		c5.2-2.3,10,1.2,13.1,8.3c3.4,7.6,2.9,13.3-1.6,15.3c-4,1.8-8.5-0.7-12.4-5l-0.4,0.2l4.2,9l0.4-0.2l0.4-2.2
		c1.8,0.4,4.6,0.2,7.5-1.1c7.4-3.3,10.4-11.2,7-18.9c-3.4-7.8-10.7-10.4-17.8-7.2c-5.4,2.4-7,7.1-7,11.4L240.9,336.3L240.9,336.3z
		 M221.4,342.6c1.3,5.3,5.8,8.3,11.4,6.9c5.6-1.4,8.3-6.2,6.9-11.7c-1.5-5.8-6.5-8.2-11.4-7C222.3,332.3,220.1,337.4,221.4,342.6
		L221.4,342.6z M226.3,341.4c-1.2-4.8-1.3-9.3,1.9-10.1c3.4-0.9,5.4,3.3,6.6,8.1c1,4.1,1.5,8.8-2.1,9.7
		C229.4,349.9,227.5,345.8,226.3,341.4L226.3,341.4z M213.9,352.4l7.3-0.8l0-0.2c-0.7,0-1.5-0.2-2-0.4c-0.6-0.4-1-1.1-1.1-2
		l-0.7-12.8c0-0.9,0.2-1.4,0.9-1.7c0.5-0.2,1-0.3,1.7-0.4l0-0.3l-9.9,0.6l0,0.3c0.6,0,1.2,0,1.7,0.3c0.6,0.2,0.9,0.9,1,1.7l0.7,12
		c-0.4,0.9-1.7,2.3-4,2.5c-1.6,0.1-2.9-1.1-3-3.8l-0.6-10.4c0-0.9,0.1-1.5,0.7-1.8c0.5-0.2,0.9-0.3,1.5-0.4l0-0.3l-9.4,0.5l0,0.3
		c0.6,0,1.1,0.1,1.6,0.3c0.7,0.3,0.9,0.9,1,1.8l0.7,12.1c-0.4,0.9-1.7,2.2-4,2.4c-1.7,0.1-2.9-1.3-3.1-3.9l-0.6-10.3
		c0-0.9,0.1-1.5,0.7-1.8c0.5-0.2,0.9-0.3,1.6-0.4l0-0.3l-9.7,0.5l0,0.3c0.7,0,1.2,0,1.8,0.2c0.7,0.3,1,0.9,1.1,1.7l0.6,9.9
		c0.2,3.6,1.9,6.2,5.5,6c3.1-0.2,4.8-1.9,6.2-3.8l0.1,0c1,2,2.8,3.3,5.3,3.1c3.3-0.2,4.6-2,6-3.6l0.1,0l0.2,2.8L213.9,352.4
		L213.9,352.4z M179.1,324.1l0,0.3c0.8,0.1,2,0.5,2.7,0.9c0.7,0.4,1,1.1,0.8,2l-1,7l-0.2,0c-0.8-0.8-2-1.5-4.2-1.8
		c-4.7-0.6-9.3,2.7-10,8.3c-0.8,5.7,2.1,9.9,6.6,10.5c2.5,0.3,4.5-1,5.6-1.8l0.2,0.1l-0.3,2l0.1,0.2l7.4,0.6l0-0.2
		c-0.7-0.1-1.6-0.5-2-0.8c-0.6-0.5-0.8-1.3-0.7-2.2l2.9-21.4c0.1-0.8,0.5-1.5,1.3-1.7c0.5-0.1,1.5-0.1,2.2,0l0-0.3L179.1,324.1
		L179.1,324.1z M179.7,348.7c-1,0.9-2.1,1.4-3.8,1.2c-3.5-0.5-4.2-4.5-3.6-8.7c0.7-5.2,2.7-8.6,5.7-8.2c2.3,0.3,3.1,2.2,3.4,3.5
		L179.7,348.7L179.7,348.7z M147.1,329.8c0.6-1.8,1.8-3.1,3-2.7c1.1,0.3,1.2,1.8,1,2.4c-0.4,1.2-2,5.4-3.1,8.8
		c-1.6,5,1.2,6.6,5.1,7.8c3,1,7.2,0.4,7.9-1.9c0.3-1.1,0.1-2.5-1.4-3c-1.6-0.5-2.9,0.2-3.2,1.1c-0.3,1-0.2,2.5-0.4,3.3
		c-0.4,0.3-1.3,0.6-2.5,0.2c-2.7-0.9-1.7-4-1.4-5l0.8-2.6c1.5-0.3,4.5-0.1,7-0.2c2.1-0.1,4.2-0.5,5.2-3.7c0.8-2.5-0.6-4.7-3.2-5.5
		c-2.6-0.8-4.5-0.2-6.3,0.8l-0.1,0c-0.2-1.8-0.9-3-3-3.7c-2.8-0.9-4.7,0.5-5.9,3.8L147.1,329.8L147.1,329.8z M155.6,330.3
		c1-0.8,2.2-1,3.5-0.6c1.4,0.4,1.9,1.8,1.2,4c-1,3.3-3.5,3.8-7.2,3.9L155.6,330.3L155.6,330.3z M128.8,315.4c0.6,0.4,1,0.6,1.4,1.1
		c0.5,0.6,0.5,1.2,0.1,2l-4.4,9c-1.7,3.4-1.3,6.3,2.1,8c3,1.5,5.1,0.5,7.1-0.2l0.1,0.1l-1.2,2.5l0.1,0.2l6.8,2.9l0.1-0.2
		c-0.6-0.3-1.2-0.9-1.5-1.4c-0.4-0.6-0.3-1.5,0-2.3l5.6-11.5c0.4-0.8,0.9-1.2,1.7-1c0.5,0.1,1,0.2,1.7,0.5l0.1-0.2l-8.9-4.4
		l-0.1,0.2c0.6,0.3,1,0.6,1.4,1.1c0.4,0.5,0.4,1.2,0,2l-5.3,10.8c-0.8,0.6-2.7,1.2-4.8,0.1c-1.4-0.7-2.1-2.4-0.9-4.9l4.6-9.3
		c0.4-0.8,0.9-1.3,1.6-1.2c0.5,0.1,1.1,0.3,1.7,0.5l0.1-0.2l-8.9-4.4L128.8,315.4L128.8,315.4z M108.3,331.9c-0.9,1.3-0.5,3,0.9,4
		c1.3,0.9,3.1,0.5,4-0.8c0.9-1.3,0.5-3.1-0.8-4C111,330.1,109.2,330.5,108.3,331.9L108.3,331.9z M120.3,309c0.5,0.4,1.1,0.8,1.4,1.3
		c0.4,0.7,0.3,1.3-0.2,2l-8.7,13.2l0,0.2l6.7,3.9l0.1-0.2c-0.6-0.4-1.4-1.2-1.7-1.7c-0.3-0.7-0.2-1.6,0.3-2.3l7-10.7
		c0.5-0.7,1.1-1.1,1.8-0.9c0.6,0.1,1,0.4,1.6,0.7l0.2-0.2l-8.5-5.6L120.3,309L120.3,309z M104.9,302.1c2.8-1.1,4.8-0.9,7,0.8
		c3.3,2.7,1.9,6.6-1.2,10.4l-0.6,0.7l-9-7.3l-0.2,0.2c-2.5,3.1-3.2,7.2,1.2,10.8c4.3,3.5,9.6,2,12.7-1.8c3.4-4.1,3.9-9.3-0.9-13.2
		c-2.8-2.3-6.3-2.3-9.3-1L104.9,302.1L104.9,302.1z M109.9,314.3c-2.7,3.1-5.6,4.5-7.3,3.2c-2.1-1.7,0.1-4.9,2-7.3L109.9,314.3
		L109.9,314.3z M93.6,290.3c-2.4,2.2-2.2,4.9-0.8,8c1.4,3.2,1.9,4.6,0.3,6c-1.1,1-3,1.4-4.5-0.2c-1.7-1.9-1.1-5.4,0.2-7.9l-0.2-0.2
		l-4.2,4.1l0.2,0.3l1.3-0.2c0.3,1.2,1.1,2.9,2.5,4.4c2.7,3,6.1,3.2,8.3,1.2c2.6-2.4,1.9-5.4,0.8-7.8c-1.6-3.5-1.7-4.9-0.2-6.3
		c1.4-1.3,3.4-1.5,5,0.4c2.2,2.4,0.8,7.3-0.3,9.3l0.2,0.2l4.7-4.5l-0.2-0.3l-1.5,0.3c0-1-0.9-3.5-2.6-5.4
		C100.1,288.7,96.4,287.8,93.6,290.3L93.6,290.3z"/>
</g>
</svg>
