<?xml version="1.0" encoding="utf-8"?>
<!-- Generator: Adobe Illustrator 23.0.4, SVG Export Plug-In . SVG Version: 6.00 Build 0)  -->
<svg version="1.1" id="Layer_1" xmlns="http://www.w3.org/2000/svg" xmlns:xlink="http://www.w3.org/1999/xlink" x="0px" y="0px"
	 viewBox="0 0 400 400" style="enable-background:new 0 0 400 400;" xml:space="preserve">
<style type="text/css">
	.st0{fill:#FFFFFF;}
	.st1{fill:#FCEE21;}
</style>
<g>
	<path d="M199.1,322.9c66,0,119.5-53.5,119.5-119.5S265.1,83.9,199.1,83.9S79.6,137.4,79.6,203.4S133.1,322.9,199.1,322.9
		L199.1,322.9z"/>
	<g>
		<path class="st0" d="M153.2,170.8c9.6,0,17.4-4.9,17.4-14.8c0-7.9-6.9-12.2-14.5-12.2c-6.4,0-9.5,2.2-11.5,4.1l1.6-8.1
			c0.4,0.1,6,0.3,7.3,0.3c6.6,0,13.6-3,18.3-12.1l-0.5-0.4c-2.4,2.3-8,3-12,3c-4.4,0-10.5-1.6-11.2-2.7h-0.7l-4.3,23.2l0.9,0.4
			c1.7-3.8,5.2-6.2,8.3-6.2c4.3,0,6.4,4,6.4,10.6c0,8.9-2.5,14.4-6.6,14.4c-2.2,0-3.9-1.2-4.1-2.9c0.8-2.1,2.1-4.5,2.1-7.6
			c0-2.7-1.9-4.5-4.6-4.5c-2.6,0-5.1,2.1-5.1,6.5C140.5,168.4,145.7,170.8,153.2,170.8L153.2,170.8z M186.2,167.2
			c6.7,0,14-5.6,14-17.4c0-9.7-5.6-16-13.4-16c-6.6,0-13.9,5.6-13.9,17.4C172.8,160.8,178.3,167.2,186.2,167.2L186.2,167.2z
			 M186.3,166.6c-3.5,0-4.5-6.2-4.5-16c0-10.5,1.7-16.1,4.7-16.1c3.6,0,4.6,6.5,4.6,16C191.1,161,189.4,166.6,186.3,166.6
			L186.3,166.6z M215.2,167.2c6.7,0,14-5.6,14-17.4c0-9.7-5.6-16-13.4-16c-6.6,0-13.9,5.6-13.9,17.4
			C201.9,160.8,207.4,167.2,215.2,167.2L215.2,167.2z M215.4,166.6c-3.5,0-4.5-6.2-4.5-16c0-10.5,1.7-16.1,4.7-16.1
			c3.6,0,4.6,6.5,4.6,16C220.2,161,218.5,166.6,215.4,166.6L215.4,166.6z M244.3,167.2c6.7,0,14-5.6,14-17.4c0-9.7-5.6-16-13.4-16
			c-6.6,0-13.9,5.6-13.9,17.4C231,160.8,236.5,167.2,244.3,167.2L244.3,167.2z M244.5,166.6c-3.5,0-4.5-6.2-4.5-16
			c0-10.5,1.7-16.1,4.7-16.1c3.6,0,4.6,6.5,4.6,16C249.2,161,247.6,166.6,244.5,166.6L244.5,166.6z"/>
		<polygon class="st0" points="171.2,128 171.2,123.2 175.4,123.2 175.4,111.2 172.5,111.2 172.5,106 187.9,106 187.9,111.2 
			185,111.2 185,123.2 187.9,123.2 187.9,128 		"/>
		<path class="st0" d="M201.8,128v-4.8h2.2v-5.1c0-1.5-1.1-2.2-2.5-2.2c-1.8,0-3.1,1.3-3.1,3.1v4.2h2.3v4.8h-12v-4.8h2.2V116h-2.2
			v-4.8h9.5v3.3c0.2-0.1,0.3-0.3,0.4-0.5c1.7-2,3.7-2.7,6.3-2.7c3.6,0,6.6,1.5,6.6,5.5v6.4h1.9v4.8L201.8,128L201.8,128z"/>
		<path class="st0" d="M232.7,118.3l-6.5,0.7c-0.1-1.8-0.5-3.7-2.7-3.7c-2.8,0-3,2.3-3,4.5l0,0v0.1c0,2.2,0.2,4.5,3,4.5
			c1.5,0,2.8-0.8,2.8-2.6h0.2h6.2l-0.1,0.6c-1,5.3-5.8,6.1-9.2,6.1c-5.4,0-10.6-2.7-10.6-8.6l0,0c0-6,5.3-8.6,10.6-8.6
			C223.5,111.3,231.9,110.8,232.7,118.3L232.7,118.3z"/>
		<path class="st0" d="M237.9,125.7c0,1.5-1.2,2.7-2.7,2.7s-2.7-1.2-2.7-2.7c0-1.5,1.2-2.7,2.7-2.7
			C236.7,122.9,237.9,124.2,237.9,125.7L237.9,125.7z"/>
	</g>
	<path d="M72.2,165c-0.2,0.7-0.4,1.6-0.9,2.2c-0.7,0.9-1.4,1.1-2.2,1.2c-3,0.7-17.9,3.9-26,5.7l-0.2,1.4c5.3,3.1,17,10.3,21.7,13.3
		c1.3,0.8,2.3,1.7,2.7,2.7c0.3,0.8,0.3,1.7,0.2,2.4h0.3l1.6-9.8h-0.3c-0.3,1.4-1,4.7-2.4,4.5c-0.5-0.1-1.4-0.5-2.3-0.9
		c-0.8-0.4-3.9-2.2-5.1-2.9l1.5-9.3l7.6-1.5c0.3-0.1,0.7-0.1,1,0c1,0.3,0.8,3,0.7,4.4h0.3l2.2-13.3L72.2,165L72.2,165z M58.7,184.5
		l-10.3-6.2l11.7-2.5L58.7,184.5L58.7,184.5z M58.1,153.5l-2.3,7l0.2,0.1c0.3-0.6,0.8-1.3,1.3-1.6c0.6-0.4,1.5-0.4,2.3-0.1l11.9,4.8
		c0.8,0.3,1.2,0.8,1.2,1.6c0,0.5-0.2,1-0.4,1.7l0.3,0.1l3.7-9.2l-0.3-0.1c-0.3,0.6-0.5,1-1,1.4c-0.5,0.5-1.2,0.5-2,0.1l-11.2-4.5
		c-0.6-0.7-1.4-2.5-0.5-4.7c0.6-1.5,2.2-2.1,4.7-1.1l9.6,3.9c0.8,0.3,1.3,0.7,1.3,1.4c0,0.5-0.1,1-0.3,1.5l0.3,0.1l3.5-8.8l-0.3-0.1
		c-0.3,0.6-0.5,1-0.9,1.3c-0.5,0.5-1.2,0.5-2,0.1L66,144c-0.6-0.7-1.3-2.5-0.5-4.6c0.6-1.5,2.4-2.1,4.9-1.1l9.6,3.8
		c0.8,0.3,1.3,0.7,1.3,1.4c0,0.5-0.1,1-0.3,1.6l0.3,0.1l3.6-9.1l-0.3-0.1c-0.3,0.6-0.5,1.1-0.9,1.5c-0.6,0.5-1.2,0.5-2,0.2l-9.2-3.7
		c-3.4-1.4-6.4-0.9-7.8,2.5c-1.2,2.9-0.3,5.2,0.8,7.2v0.1c-2.3,0-4.1,1.2-5.1,3.4c-1.2,3.1-0.1,5,0.7,7v0.1l-2.6-1L58.1,153.5
		L58.1,153.5z M89.7,122c1.4,2.6,1.5,4.7,0.1,7c-2.2,3.6-6.3,2.8-10.5,0.2l-0.7-0.5l6.1-9.8l-0.3-0.2c-3.4-2.1-7.6-2.3-10.6,2.6
		c-3,4.7-0.7,9.8,3.4,12.4c4.5,2.8,9.7,2.7,13-2.6c1.9-3.1,1.5-6.6-0.2-9.3L89.7,122L89.7,122z M78.2,128.5c-3.4-2.3-5.2-5-4.1-6.8
		c1.4-2.3,4.9-0.6,7.5,1.1L78.2,128.5L78.2,128.5z M92.3,102.4c-1.3-1.1-3.1-0.9-4.2,0.4c-1.1,1.4-1.5,3.4-0.9,6.1l-0.1,0.1
		l-2.2-1.8h-0.2l-4.3,6l0.2,0.2c0.5-0.5,1.1-1,1.7-1.2c0.7-0.2,1.6,0.1,2.3,0.5l9.9,8.1c0.7,0.6,1,1.2,0.7,1.9
		c-0.2,0.6-0.5,0.9-0.9,1.5l0.2,0.2l6.9-8.5l-0.2-0.2c-0.5,0.5-1.3,1.5-1.9,1.8s-1.4,0.3-2.1-0.3l-9.4-7.7c-0.3-0.8-0.6-3.1,0.5-4.5
		c0.3,0.5,0.7,1.3,1.2,1.7c1.2,1,2.4,0.7,3.4-0.5S93.5,103.4,92.3,102.4L92.3,102.4z M91.3,89c-1.1-1.1-2.9-1.1-4.1,0.1
		c-1.1,1.1-1.1,2.9,0,4.1c1.1,1.1,2.9,1.1,4.1,0C92.5,92,92.5,90.2,91.3,89L91.3,89z M111.4,105.4c-0.5,0.4-1,0.9-1.6,1.1
		c-0.8,0.3-1.4,0-2-0.6L96.7,94.7h-0.2l-5.2,5.8l0.2,0.2c0.5-0.5,1.5-1.2,2-1.3c0.8-0.1,1.6,0.2,2.2,0.7l9.1,9
		c0.6,0.6,0.8,1.3,0.5,2c-0.3,0.5-0.6,0.9-1,1.4l0.2,0.2l7.2-7.2L111.4,105.4L111.4,105.4z M120.7,91.9c0.6,2.6,0,4.8-2.2,6.6
		c-2.4,2-6,0.8-9.3-3.2c-3.7-4.6-4.1-7.9-2.3-9.4c0.9-0.8,1.9-1,2.5-0.5c0.4,0.6,0.4,2.1,1.2,3.1c1,1.2,2.4,1,3.4,0.2
		c1.3-1,1.3-2.5,0.4-3.6c-1.6-2-4.6-2.3-7.9,0.5c-4.5,3.7-4.2,9.3-1.1,13.2c3.5,4.3,8.3,5.6,13,1.8c2.6-2.1,3.3-5.6,2.6-8.7H120.7
		L120.7,91.9z M137.4,81.5c0.9,1.6,1.2,3.4,0.1,4.1c-1,0.6-2.1-0.3-2.4-0.8c-0.7-1.1-2.9-5-4.8-8c-2.8-4.5-5.8-3.3-9.3-1.1
		c-2.7,1.7-4.9,5.2-3.6,7.3c0.6,1,1.8,1.7,3.2,0.8c1.4-0.9,1.7-2.4,1.3-3.1c-0.5-0.9-1.8-1.7-2.3-2.4c0.1-0.5,0.4-1.4,1.5-2.1
		c2.4-1.5,4.2,1.3,4.7,2.1l1.5,2.3c-0.7,1.4-2.9,3.5-4.4,5.5c-1.3,1.7-2.4,3.5-0.6,6.4c1.4,2.2,4,2.6,6.3,1.1
		c2.3-1.4,3.1-3.3,3.4-5.3l0.1-0.1c1.5,1,2.9,1.2,4.8,0.1c2.5-1.6,2.7-3.9,0.9-6.9L137.4,81.5L137.4,81.5z M131.6,87.7
		c-0.1,1.3-0.6,2.3-1.8,3.1c-1.2,0.8-2.6,0.3-3.9-1.7c-1.8-2.9-0.7-5.1,1.7-8.1L131.6,87.7L131.6,87.7z M133.9,60.8
		c-1.1-2.1-2.7-3.5-5-2.3c-1.6,0.8-1.7,2.5-1.2,3.5s1.8,2.1,3.8,1.1l1.2-0.6c0.9,2-0.1,4.9-1.5,6.7l0.4,0.2
		C133.3,67.5,135.5,64,133.9,60.8L133.9,60.8z M153.1,74.7c-1.3-3-4-3.6-7.3-3.2c-3.5,0.3-5,0.4-5.8-1.6c-0.6-1.3-0.4-3.3,1.6-4.2
		c2.4-1,5.4,0.7,7.4,2.6l0.3-0.1l-2.6-5.2l-0.3,0.1l-0.2,1.3c-1.2-0.1-3.1,0.2-4.9,1c-3.7,1.6-4.9,4.8-3.7,7.5
		c1.4,3.2,4.5,3.5,7.2,3.2c3.8-0.4,5.2-0.1,6.1,1.8c0.8,1.7,0.3,3.7-1.9,4.7c-2.9,1.3-7.1-1.5-8.7-3.2l-0.3,0.1l2.8,5.8l0.3-0.1
		l0.2-1.6c1,0.3,3.6,0.3,5.9-0.7C152.6,81.3,154.6,78.1,153.1,74.7L153.1,74.7z M178.3,46L156,51l0.1,0.3c0.7-0.1,2.3-0.3,3.1-0.2
		c1.1,0.2,1.4,0.8,1.6,1.7l4.8,21.1c0.2,0.9,0.1,1.6-0.8,2.2c-0.5,0.3-2.2,0.9-2.9,1.1l0.1,0.3l13.4-3l-0.1-0.3
		c-0.7,0.1-2.4,0.3-3,0.2c-1-0.2-1.4-0.8-1.6-1.6L168.4,62l3.2-0.7c1.9-0.4,3,0,3.7,0.4c0.9,0.6,2.2,2.8,2.6,3.9l0.4-0.1l-2.5-11
		l-0.4,0.1c0.1,1.3-0.3,3.6-0.8,4.4c-0.4,0.6-1.1,1.4-3.2,1.9l-3.2,0.7l-2.8-12.2l4.1-0.9c1.2-0.3,2.8-0.6,3.7-0.6
		c1.9,0,5.2,3.3,6.1,4.9l0.3-0.1L178.3,46L178.3,46z M202.1,67c0,1.9-0.6,3.6-1.9,3.6c-1.1,0.1-1.7-1.3-1.8-1.8
		c-0.1-1.3-0.1-5.8-0.3-9.4c-0.3-5.3-3.5-5.7-7.6-5.5c-3.2,0.2-6.8,2.2-6.7,4.6c0.1,1.1,0.8,2.3,2.4,2.2c1.7-0.1,2.7-1.3,2.6-2.1
		c-0.1-1-0.7-2.4-0.8-3.2c0.3-0.4,1-1,2.3-1.1c2.8-0.2,3,3.2,3.1,4.2l0.2,2.7c-1.3,0.9-4.2,1.7-6.5,2.7c-1.9,0.9-3.8,2-3.6,5.3
		c0.1,2.6,2.2,4.2,5,4c2.7-0.2,4.3-1.4,5.6-3h0.1c0.8,1.6,2,2.5,4.1,2.4c2.9-0.2,4.2-2.1,4.2-5.6H202.1L202.1,67z M194,69.6
		c-0.7,1.1-1.7,1.7-3.1,1.8c-1.4,0.1-2.4-1-2.6-3.3c-0.2-3.4,1.9-4.8,5.4-6.3L194,69.6L194,69.6z M216.9,67.9c0.2-3.2-1.9-5-5-6.2
		c-3.3-1.3-4.6-2-4.4-4.1c0.1-1.5,1.2-3.1,3.3-3c2.6,0.2,4.5,3.1,5.4,5.7h0.3l0.1-5.8h-0.4l-0.8,1.1c-1-0.7-2.8-1.3-4.8-1.4
		c-4-0.3-6.6,2-6.8,5c-0.2,3.5,2.4,5.2,4.9,6.2c3.6,1.4,4.7,2.3,4.6,4.4c-0.1,1.9-1.4,3.4-3.9,3.2c-3.2-0.2-5.6-4.6-6.3-6.8h-0.3
		l-0.2,6.5h0.4l0.9-1.3c0.7,0.7,3.1,1.9,5.6,2.1C213.4,73.6,216.6,71.6,216.9,67.9L216.9,67.9z M229.9,70.4c-0.4,1.5-1.6,3.3-3.3,3
		c-2.1-0.3-2.4-2.1-2.1-4l1.9-12l5.2,0.8l0.1-0.6l-5.2-0.8l0.9-5.8l-4.4-0.7l-0.9,5.8l-3.6-0.6l-0.1,0.6l3.6,0.6l-2,12.2
		c-0.6,3.5,0.8,5.7,4.1,6.3c3.4,0.6,5.5-1.8,6.3-4.7L229.9,70.4L229.9,70.4z M246.4,75.6c-2.1,2.1-4.1,2.7-6.8,2
		c-4.1-1.2-4.4-5.3-3-10l0.2-0.8L248,70l0.1-0.3c1.1-3.8,0.1-7.9-5.3-9.5c-5.4-1.6-9.6,1.9-11,6.7c-1.5,5.1,0,10.1,6,11.8
		c3.5,1,6.7-0.3,8.9-2.7L246.4,75.6L246.4,75.6z M237,66.3c1.3-3.9,3.4-6.4,5.5-5.8c2.6,0.8,1.9,4.5,1,7.6L237,66.3L237,66.3z
		 M260.8,81.5c1.3-3-0.1-5.3-2.6-7.6c-2.7-2.4-3.6-3.4-2.8-5.4c0.6-1.3,2.1-2.5,4.1-1.7c2.4,1,3.2,4.4,3.1,7.2l0.3,0.1l2.1-5.4
		l-0.3-0.1l-1.1,0.7c-0.7-1-2.2-2.1-4.1-2.9c-3.7-1.6-6.9-0.3-8.1,2.4c-1.4,3.2,0.5,5.7,2.6,7.5c2.9,2.5,3.6,3.8,2.8,5.7
		c-0.8,1.7-2.5,2.7-4.7,1.8c-2.9-1.3-3.7-6.3-3.6-8.5l-0.3-0.1l-2.4,6l0.3,0.1l1.3-0.9c0.4,0.9,2.2,2.8,4.6,3.8
		C255.6,85.6,259.3,84.9,260.8,81.5L260.8,81.5z M272.4,88.2c-0.9,1.3-2.6,2.6-4.2,1.7c-1.9-1-1.6-2.8-0.6-4.5l5.9-10.6l4.6,2.5
		l0.3-0.6l-4.6-2.5l2.8-5.1l-3.9-2.2l-2.8,5.1l-3.2-1.8l-0.3,0.6l3.2,1.8l-6,10.8c-1.7,3.1-1.2,5.7,1.7,7.3c3.1,1.7,5.8,0.2,7.5-2.3
		L272.4,88.2L272.4,88.2z M274.3,85.9l10.3,7.2l1.9-2.8l-10.3-7.2L274.3,85.9L274.3,85.9z M310.5,111.8l-9.7-9.3l-0.2,0.2
		c0.5,0.5,1.7,1.9,2.1,2.8c0.5,1,0.1,1.8-0.6,2.5l-3.2,3.4c-2,1.3-4.6,1.4-7.3-1c-3.7-3.5-1.9-9.5,3.6-15.2c5.7-6,11.3-8,15.3-4.3
		c3.5,3.3,2.9,8.7,0.6,13.6l0.3,0.3l6.6-7.2l-0.3-0.3l-2.3,0.5c-0.4-1.8-1.8-4.6-4.1-6.8c-6.2-5.8-14.9-5.6-20.7,0.5
		c-6.2,6.6-4.9,14.2-0.2,18.6c2.5,2.4,5.6,3.9,8.5,4.8v3.4l0.3,0.1l6.7-7.1c0.6-0.6,1.3-1,2.3-0.6c0.7,0.3,1.6,1,2.2,1.4
		L310.5,111.8L310.5,111.8z M323.6,125.1c1.4-1,1.7-2.8,0.6-4.1c-1.1-1.4-3-2.3-5.7-2.4v-0.1l2.3-1.7v-0.2l-4.8-5.7l-0.2,0.1
		c0.4,0.6,0.7,1.3,0.8,1.9c0,0.7-0.5,1.6-1.1,2.1l-10.3,7.6c-0.7,0.5-1.4,0.7-2,0.2c-0.5-0.3-0.8-0.7-1.2-1.2l-0.2,0.2l6.5,8.8
		l0.2-0.2c-0.4-0.6-1.1-1.6-1.3-2.3c-0.2-0.7,0.1-1.4,0.8-1.9l9.8-7.2c0.9-0.1,3.1,0.2,4.2,1.6c-0.6,0.2-1.4,0.4-2,0.8
		c-1.2,0.9-1.2,2.2-0.4,3.4C320.7,126,322.3,126,323.6,125.1L323.6,125.1z M327.6,145.6c4.7-2.7,6.5-7.7,3.6-12.8
		c-2.8-5-8.1-6.4-13.1-3.6c-5.2,2.9-6.2,8.4-3.8,12.8C317.4,147.4,322.9,148.2,327.6,145.6L327.6,145.6z M325.1,141.1
		c-4.4,2.5-8.7,3.7-10.3,0.8c-1.7-3,1.7-6,6.1-8.5c3.7-2.1,8.1-3.7,10-0.5C332.5,135.9,329.1,138.9,325.1,141.1L325.1,141.1z
		 M345.3,169l-2.2-6.3l-0.2,0.1c0.2,1,0.5,3-0.3,3.4c-0.3,0.1-0.9,0.2-1.4,0.2c-2.6,0-7.7-0.1-10.8-0.2c2.4-2.2,7.9-6.6,9.1-7.6
		c0.3-0.3,0.7-0.5,0.7-0.5c0.7-0.2,1.3,1.1,1.6,1.9l0.3-0.1l-3.1-8.6l-0.3,0.1c0.2,1.1,0.1,1.9-1,2.8c-0.4,0.4-2,1.8-2.6,2.3
		c-2.2-0.1-6-0.2-8.4-0.3c2.5-2.3,7.8-6.7,9-7.8c0.4-0.3,0.6-0.5,0.7-0.5c0.6-0.2,1.2,1,1.5,1.7l0.3-0.1l-3.1-8.8l-0.3,0.1
		c0.3,1.4,0,2.3-1,3.1c-3.5,3.1-8.7,7.7-13,11.5l0.5,1.4c1.8-0.1,3.2-0.1,4.8-0.1c2.2,0,6.7,0.1,8.5,0.3c-2.6,2.3-7.1,5.9-10.2,8.5
		l0.5,1.3c1.8-0.1,3.2-0.1,4.8,0c2.7,0.1,9.5,0.3,12.1,0.4c1.7,0,2.7,1,3.2,2L345.3,169L345.3,169z M354,176.7
		c1.6-0.3,2.5-1.8,2.2-3.4c-0.3-1.6-1.8-2.6-3.4-2.3s-2.5,1.8-2.2,3.4C350.9,176,352.4,177,354,176.7L354,176.7z M329.3,184.4
		c-0.1-0.6-0.2-1.3-0.1-1.9c0.2-0.8,0.7-1.2,1.6-1.3l15.5-3.1l0.1-0.2l-2-7.5h-0.2c0.1,0.7,0.2,1.9,0,2.4c-0.3,0.7-1,1.2-1.8,1.4
		l-12.6,2.5c-0.8,0.2-1.5,0-1.9-0.7c-0.3-0.5-0.4-1-0.6-1.7l-0.3,0.1l2,10H329.3L329.3,184.4z M331.2,206.1c0-0.7,0-1.2,0.2-1.8
		c0.3-0.7,0.8-1,1.7-1.1l10-0.8c3.8-0.3,6.1-2.1,5.8-5.9c-0.3-3.4-2.2-4.6-3.7-6v-0.1l2.8-0.2l0.1-0.2l-1-7.3h-0.2
		c0,0.7-0.1,1.5-0.4,2c-0.3,0.6-1.1,1-2,1.2l-12.8,1c-0.9,0.1-1.4-0.2-1.7-0.9c-0.2-0.5-0.3-1-0.4-1.7h-0.3l0.8,9.9h0.3
		c0-0.6,0-1.2,0.2-1.8c0.2-0.7,0.8-0.9,1.7-1l12-1c0.9,0.4,2.4,1.7,2.6,4.1c0.1,1.5-1,3-3.7,3.2l-10.4,0.8c-0.9,0.1-1.6-0.1-1.8-0.7
		c-0.2-0.5-0.3-1-0.4-1.7h-0.3l0.8,9.8L331.2,206.1L331.2,206.1z M347.3,225.1c1.1,0.1,2-0.9,2.1-1.9c0.1-1.7-0.7-2.9-2.2-4.2
		c0.2-0.6,1.2-2.5,1.4-5.1c0.2-3.8-1.5-7.8-5.4-8c-2.4-0.2-4.4,1.5-5.7,4.4h-0.2c-0.4-1.6-1-3.9-3.1-4c-2.2-0.1-3.4,2.3-4,4.2H330
		c0.1-4.2-1.3-6.6-3.5-6.7c-3-0.2-5,2.2-5.4,8.6c-0.5,7.1,2.3,10.5,6.1,10.7c3.5,0.2,5.6-2.5,5.9-4.9l0.5-4.7c0.2-2,0.2-4.2,2-4.1
		c0.7,0,1.1,0.6,1.4,1.2l-0.2,2.8c-0.2,3.6,1.7,7.3,5.2,7.6c1.9,0.1,3.5-0.6,4.7-1.8h0.2c0.5,0.4,1,1.1,1,2.1
		c-1.6,0.1-2.4,0.6-2.5,1.9C345.3,224.2,346.1,225,347.3,225.1L347.3,225.1z M326,219.5c-3-0.2-4.9-2.5-4.7-6.3
		c0.3-4.4,2.6-5.8,4.7-5.7c2.3,0.1,3.2,1.4,3.6,3.4c-0.2,3.2-0.5,5.9-0.7,6.7C328.3,219.2,326.9,219.5,326,219.5L326,219.5z
		 M342.4,216.5c-3.1-0.2-5.4-1.2-5.3-3.4c0.1-2,2.5-2.7,5.8-2.5c2.8,0.2,5.4,0.9,5.2,3.2C348,216.1,345.1,216.6,342.4,216.5
		L342.4,216.5z M341.8,257.1c4.2,1.1,7.3-1.8,8.7-7.2l3.5-13.3l-0.3-0.1c-0.2,0.7-0.7,2-1.3,2.8c-0.6,0.9-1.4,0.9-2.2,0.7l-20.9-5.5
		c-0.8-0.2-1.5-0.7-1.6-1.7c-0.1-0.5,0.2-2.2,0.3-2.9l-0.3-0.1l-3.5,13.2l0.3,0.1c0.3-0.9,0.9-2.4,1.2-2.8c0.6-0.8,1.4-0.9,2.2-0.7
		l9.2,2.4l-0.6,2.4C335.2,249.8,336.4,255.7,341.8,257.1L341.8,257.1z M342.4,251.2c-2.6-0.7-6.3-2.8-5-7.7l0.4-1.3l13.4,3.5l-0.5,2
		C349.5,251.8,345.8,252,342.4,251.2L342.4,251.2z M330,270.5c1.6,0.7,3.2,0,3.9-1.5c0.7-1.6,0.5-3.7-0.8-6.1v-0.1l2.6,1.1l0.2-0.1
		l2.5-7l-0.2-0.1c-0.3,0.6-0.8,1.3-1.3,1.6c-0.6,0.4-1.6,0.4-2.3,0.1l-11.7-5c-0.8-0.3-1.3-0.9-1.2-1.6c0-0.6,0.2-1,0.4-1.7
		l-0.3-0.1l-4.3,10.1l0.3,0.1c0.3-0.6,0.8-1.8,1.4-2.3c0.5-0.5,1.3-0.6,2.1-0.3l11.2,4.8c0.5,0.7,1.4,2.8,0.8,4.5
		c-0.5-0.4-1-1-1.7-1.3c-1.4-0.6-2.5,0-3.1,1.4C327.8,268.5,328.5,269.9,330,270.5L330,270.5z M334.9,282.8c1.4,0.8,3.1,0.3,3.9-1.2
		c0.8-1.4,0.3-3.1-1.1-3.9s-3.1-0.2-3.9,1.1C332.9,280.2,333.5,282,334.9,282.8L334.9,282.8z M311.1,272.6c0.3-0.5,0.7-1.1,1.2-1.5
		c0.7-0.5,1.3-0.4,2,0l13.8,7.7l0.2-0.1l3.4-7l-0.2-0.1c-0.4,0.6-1.1,1.5-1.6,1.8c-0.7,0.3-1.6,0.3-2.3-0.1l-11.2-6.2
		c-0.7-0.4-1.2-1-1-1.7c0.1-0.6,0.3-1,0.6-1.7l-0.2-0.1l-5,8.9L311.1,272.6L311.1,272.6z M316.3,296.9l3.6-5.5l-0.2-0.1
		c-0.9,1-2.1,2.3-2.9,1.9c-0.4-0.2-0.8-0.7-1-1c-1.7-2.5-4.6-6.6-6.2-9c3.5,0.5,10,1.8,11.9,2.2c0.5,0.1,0.8,0.2,0.8,0.3
		c0.5,0.3-0.1,1.6-0.7,2.5l0.3,0.2l5.4-8.2l-0.2-0.2c-0.9,1.1-1.9,1.3-3.1,1.1l-17.4-3l-0.7,1.1c1.2,1.4,2,2.6,2.9,3.8
		c2,2.9,5.3,7.8,6.9,10.3c1,1.5,0.8,2.4,0.3,3.5L316.3,296.9L316.3,296.9z M292.3,303.4c-1.3-1.3-2.1-3-1.2-3.9
		c0.8-0.9,2.1-0.3,2.6,0.1c1,0.9,4.1,4.1,6.8,6.4c3.9,3.5,6.5,1.6,9.2-1.4c2.1-2.4,3.3-6.4,1.5-8c-0.9-0.8-2.2-1.1-3.3,0.1
		c-1.1,1.3-1,2.8-0.4,3.4c0.8,0.7,2.2,1.2,2.9,1.7c0.1,0.5,0,1.4-0.9,2.4c-1.9,2.1-4.4-0.1-5.1-0.8l-2-1.8c0.3-1.5,1.8-4.1,2.7-6.5
		c0.8-2,1.3-4.1-1.2-6.3c-1.9-1.7-4.5-1.4-6.4,0.6c-1.8,2-2.1,4-1.9,6.1l-0.1,0.1c-1.7-0.6-3.2-0.4-4.6,1.2c-2,2.2-1.5,4.5,1,6.9
		L292.3,303.4L292.3,303.4z M296.3,295.8c-0.3-1.3,0-2.4,0.9-3.4c1-1.1,2.4-1,4.2,0.5c2.6,2.3,2.1,4.8,0.6,8.2L296.3,295.8
		L296.3,295.8z M283.3,311.2c-0.9-1.3-1.6-3.3-0.3-4.5c1.6-1.4,3.2-0.6,4.5,0.9l8.2,9l-3.9,3.5l0.4,0.5l3.9-3.5l3.9,4.3l3.3-3
		l-3.9-4.3l2.7-2.5l-0.4-0.5l-2.7,2.4l-8.3-9.2c-2.4-2.6-5-3-7.5-0.7c-2.6,2.3-2.1,5.4-0.2,7.8L283.3,311.2L283.3,311.2z
		 M268.8,320.7c-0.3-3,0.4-4.9,2.7-6.5c3.5-2.4,6.9-0.1,9.7,4l0.5,0.7l-9.5,6.6l0.2,0.3c2.3,3.2,6.1,5.1,10.7,1.8
		c4.6-3.2,4.5-8.7,1.7-12.8c-3-4.4-7.9-6.3-13-2.7c-3,2.1-4,5.4-3.5,8.6H268.8L268.8,320.7z M282,319.2c2.2,3.4,2.8,6.6,1.1,7.9
		c-2.2,1.5-4.7-1.4-6.5-4L282,319.2L282,319.2z M240.9,336.3c0.2-4.1,1.7-7.7,5.8-9.5c5.2-2.3,10,1.2,13.1,8.3
		c3.4,7.6,2.9,13.3-1.6,15.3c-4,1.8-8.5-0.7-12.4-5l-0.4,0.2l4.2,9l0.4-0.2l0.4-2.2c1.8,0.4,4.6,0.2,7.5-1.1
		c7.4-3.3,10.4-11.2,7-18.9c-3.4-7.8-10.7-10.4-17.8-7.2c-5.4,2.4-7,7.1-7,11.4L240.9,336.3L240.9,336.3z M221.4,342.6
		c1.3,5.3,5.8,8.3,11.4,6.9c5.6-1.4,8.3-6.2,6.9-11.7c-1.5-5.8-6.5-8.2-11.4-7C222.3,332.3,220.1,337.4,221.4,342.6L221.4,342.6z
		 M226.3,341.4c-1.2-4.8-1.3-9.3,1.9-10.1c3.4-0.9,5.4,3.3,6.6,8.1c1,4.1,1.5,8.8-2.1,9.7C229.4,349.9,227.5,345.8,226.3,341.4
		L226.3,341.4z M213.9,352.4l7.3-0.8v-0.2c-0.7,0-1.5-0.2-2-0.4c-0.6-0.4-1-1.1-1.1-2l-0.7-12.8c0-0.9,0.2-1.4,0.9-1.7
		c0.5-0.2,1-0.3,1.7-0.4v-0.3l-9.9,0.6v0.3c0.6,0,1.2,0,1.7,0.3c0.6,0.2,0.9,0.9,1,1.7l0.7,12c-0.4,0.9-1.7,2.3-4,2.5
		c-1.6,0.1-2.9-1.1-3-3.8l-0.6-10.4c0-0.9,0.1-1.5,0.7-1.8c0.5-0.2,0.9-0.3,1.5-0.4v-0.3l-9.4,0.5v0.3c0.6,0,1.1,0.1,1.6,0.3
		c0.7,0.3,0.9,0.9,1,1.8l0.7,12.1c-0.4,0.9-1.7,2.2-4,2.4c-1.7,0.1-2.9-1.3-3.1-3.9l-0.6-10.3c0-0.9,0.1-1.5,0.7-1.8
		c0.5-0.2,0.9-0.3,1.6-0.4v-0.3l-9.7,0.5v0.3c0.7,0,1.2,0,1.8,0.2c0.7,0.3,1,0.9,1.1,1.7l0.6,9.9c0.2,3.6,1.9,6.2,5.5,6
		c3.1-0.2,4.8-1.9,6.2-3.8h0.1c1,2,2.8,3.3,5.3,3.1c3.3-0.2,4.6-2,6-3.6h0.1L213.9,352.4L213.9,352.4L213.9,352.4z M179.1,324.1v0.3
		c0.8,0.1,2,0.5,2.7,0.9s1,1.1,0.8,2l-1,7h-0.2c-0.8-0.8-2-1.5-4.2-1.8c-4.7-0.6-9.3,2.7-10,8.3c-0.8,5.7,2.1,9.9,6.6,10.5
		c2.5,0.3,4.5-1,5.6-1.8l0.2,0.1l-0.3,2l0.1,0.2l7.4,0.6v-0.2c-0.7-0.1-1.6-0.5-2-0.8c-0.6-0.5-0.8-1.3-0.7-2.2l2.9-21.4
		c0.1-0.8,0.5-1.5,1.3-1.7c0.5-0.1,1.5-0.1,2.2,0v-0.3L179.1,324.1L179.1,324.1z M179.7,348.7c-1,0.9-2.1,1.4-3.8,1.2
		c-3.5-0.5-4.2-4.5-3.6-8.7c0.7-5.2,2.7-8.6,5.7-8.2c2.3,0.3,3.1,2.2,3.4,3.5L179.7,348.7L179.7,348.7z M147.1,329.8
		c0.6-1.8,1.8-3.1,3-2.7c1.1,0.3,1.2,1.8,1,2.4c-0.4,1.2-2,5.4-3.1,8.8c-1.6,5,1.2,6.6,5.1,7.8c3,1,7.2,0.4,7.9-1.9
		c0.3-1.1,0.1-2.5-1.4-3c-1.6-0.5-2.9,0.2-3.2,1.1c-0.3,1-0.2,2.5-0.4,3.3c-0.4,0.3-1.3,0.6-2.5,0.2c-2.7-0.9-1.7-4-1.4-5l0.8-2.6
		c1.5-0.3,4.5-0.1,7-0.2c2.1-0.1,4.2-0.5,5.2-3.7c0.8-2.5-0.6-4.7-3.2-5.5c-2.6-0.8-4.5-0.2-6.3,0.8h-0.1c-0.2-1.8-0.9-3-3-3.7
		c-2.8-0.9-4.7,0.5-5.9,3.8L147.1,329.8L147.1,329.8z M155.6,330.3c1-0.8,2.2-1,3.5-0.6c1.4,0.4,1.9,1.8,1.2,4
		c-1,3.3-3.5,3.8-7.2,3.9L155.6,330.3L155.6,330.3z M128.8,315.4c0.6,0.4,1,0.6,1.4,1.1c0.5,0.6,0.5,1.2,0.1,2l-4.4,9
		c-1.7,3.4-1.3,6.3,2.1,8c3,1.5,5.1,0.5,7.1-0.2l0.1,0.1l-1.2,2.5l0.1,0.2l6.8,2.9l0.1-0.2c-0.6-0.3-1.2-0.9-1.5-1.4
		c-0.4-0.6-0.3-1.5,0-2.3l5.6-11.5c0.4-0.8,0.9-1.2,1.7-1c0.5,0.1,1,0.2,1.7,0.5l0.1-0.2l-8.9-4.4l-0.1,0.2c0.6,0.3,1,0.6,1.4,1.1
		s0.4,1.2,0,2l-5.3,10.8c-0.8,0.6-2.7,1.2-4.8,0.1c-1.4-0.7-2.1-2.4-0.9-4.9l4.6-9.3c0.4-0.8,0.9-1.3,1.6-1.2
		c0.5,0.1,1.1,0.3,1.7,0.5l0.1-0.2l-8.9-4.4L128.8,315.4L128.8,315.4z M108.3,331.9c-0.9,1.3-0.5,3,0.9,4c1.3,0.9,3.1,0.5,4-0.8
		s0.5-3.1-0.8-4C111,330.1,109.2,330.5,108.3,331.9L108.3,331.9z M120.3,309c0.5,0.4,1.1,0.8,1.4,1.3c0.4,0.7,0.3,1.3-0.2,2
		l-8.7,13.2v0.2l6.7,3.9l0.1-0.2c-0.6-0.4-1.4-1.2-1.7-1.7c-0.3-0.7-0.2-1.6,0.3-2.3l7-10.7c0.5-0.7,1.1-1.1,1.8-0.9
		c0.6,0.1,1,0.4,1.6,0.7l0.2-0.2l-8.5-5.6L120.3,309L120.3,309z M104.9,302.1c2.8-1.1,4.8-0.9,7,0.8c3.3,2.7,1.9,6.6-1.2,10.4
		l-0.6,0.7l-9-7.3l-0.2,0.2c-2.5,3.1-3.2,7.2,1.2,10.8c4.3,3.5,9.6,2,12.7-1.8c3.4-4.1,3.9-9.3-0.9-13.2c-2.8-2.3-6.3-2.3-9.3-1
		L104.9,302.1L104.9,302.1z M109.9,314.3c-2.7,3.1-5.6,4.5-7.3,3.2c-2.1-1.7,0.1-4.9,2-7.3L109.9,314.3L109.9,314.3z M93.6,290.3
		c-2.4,2.2-2.2,4.9-0.8,8c1.4,3.2,1.9,4.6,0.3,6c-1.1,1-3,1.4-4.5-0.2c-1.7-1.9-1.1-5.4,0.2-7.9l-0.2-0.2l-4.2,4.1l0.2,0.3l1.3-0.2
		c0.3,1.2,1.1,2.9,2.5,4.4c2.7,3,6.1,3.2,8.3,1.2c2.6-2.4,1.9-5.4,0.8-7.8c-1.6-3.5-1.7-4.9-0.2-6.3c1.4-1.3,3.4-1.5,5,0.4
		c2.2,2.4,0.8,7.3-0.3,9.3l0.2,0.2l4.7-4.5l-0.2-0.3l-1.5,0.3c0-1-0.9-3.5-2.6-5.4C100.1,288.7,96.4,287.8,93.6,290.3L93.6,290.3z"
		/>
	<g>
		<g>
			<path class="st1" d="M136.3,184.7h18.2v79.7h-10.3v-70.6h-7.9V184.7z"/>
			<path class="st1" d="M179.9,210.6h-10.5l-0.1-3.1c0-8.7,1.3-14.8,3.9-18.4c2.6-3.6,7.1-5.4,13.3-5.4c11.7,0,17.6,6.5,17.6,19.5
				c0,8.8-4.4,21.4-13.2,37.9l-6.3,11.9c0,0.1-0.1,0.3-0.3,0.6c-0.2,0.3-0.4,0.8-0.7,1.5h19.7v9.2h-35c0.6-1.3,1.8-3.9,3.7-7.8
				c1.9-3.9,4.4-9.1,7.6-15.7c2.7-5.8,5-10.7,6.8-14.7c1.8-4,3.2-7.3,4.1-9.9c1.9-5.2,2.8-9.6,2.8-13.4c0-6.6-2.3-9.9-6.9-9.9
				c-4.4,0-6.6,4.1-6.6,12.3l0.1,4.5L179.9,210.6z"/>
			<path class="st1" d="M237.8,221.1c3.6,1.3,6,3.4,7.4,6.2c1.3,2.9,2,7.5,2,13.9c0,8.3-1.4,14.3-4.2,18.2c-2.8,3.9-7.1,5.8-13,5.8
				c-6,0-10.3-1.9-13.1-5.8c-2.8-3.9-4.2-10-4.2-18.2c0-6.4,0.7-11,2-13.9c1.3-2.9,3.8-4.9,7.4-6.2c-3.2-1.4-5.4-3.4-6.7-6.1
				c-1.3-2.9-2-6.8-2-11.7c0-3.4,0.3-6.3,1-8.8c0.6-2.5,1.6-4.5,3-6.1c1.3-1.6,3.1-2.8,5.1-3.5c2.1-0.8,4.6-1.1,7.5-1.1
				s5.4,0.4,7.4,1.1c2.1,0.8,3.8,1.9,5.1,3.5c1.3,1.6,2.3,3.6,3,6.1c0.6,2.5,1,5.4,1,8.8c0,4.9-0.7,8.8-2,11.7
				C243.2,217.7,240.9,219.8,237.8,221.1z M236.6,242.5c0-2.8-0.1-5.2-0.4-7.1c-0.2-2-0.6-3.6-1.2-4.8c-0.6-1.2-1.2-2.2-2.1-2.7
				c-0.8-0.6-1.9-0.9-3-0.9c-2.3,0-4,1.2-5,3.6c-1.1,2.4-1.6,6.2-1.6,11.5c0,9.3,2.2,13.9,6.7,13.9
				C234.4,255.9,236.6,251.4,236.6,242.5z M235.9,204.2c0-7.5-2-11.3-5.9-11.3c-3.9,0-5.9,3.7-5.9,11.2c0,8.3,2,12.4,5.9,12.4
				C233.9,216.5,235.9,212.4,235.9,204.2z"/>
			<path class="st1" d="M264.7,184.7H290v9.2h-17.2l-2.6,20h1.3c3.1,0,5.9,0.5,8.3,1.5c2.4,1,4.5,2.5,6.1,4.4
				c1.7,1.9,2.9,4.3,3.8,7.1s1.3,6,1.3,9.7c0,8.9-1.9,16-5.8,21.1c-3.9,5.1-9.3,7.6-16.2,7.6c-3.9,0-8.1-1.1-12.6-3.3l2.7-9.5
				c3.7,1.9,6.8,2.9,9.2,2.9c3.5,0,6.3-1.6,8.4-4.7c2.1-3.2,3.1-7.5,3.1-12.9c0-10.2-4.4-15.3-13.2-15.3c-2.2,0-4.4,0.3-6.6,1
				L264.7,184.7z"/>
		</g>
		<g>
			<path class="st1" d="M127.2,240v4.4h-4.2l-1.5,12.5h-4.2l1.5-12.5h-3.3l-1.5,12.5h-4.2l1.5-12.5h-3.7V240h4.3l0.7-6.1h-3.6v-4.4
				h4.2l1.4-11.8h4.1l-1.4,11.8h3.3l1.5-11.8h4.2l-1.4,11.8h4.1v4.4h-4.6l-0.8,6.1H127.2z M120.2,233.8h-3.3l-0.7,6.1h3.3
				L120.2,233.8z"/>
		</g>
	</g>
	<g>
		<path class="st0" d="M179.3,289c0,0-0.1,0.4-0.2,1.1c-0.2,1.1-0.4,3.3-0.7,6.7c-0.9,0-2.9-0.1-6-0.2c-1.3-0.1-2.4-0.1-3.3-0.1
			c-1.2,0-3.1,0.1-5.9,0.2c-0.4,0-0.7,0-1,0c-1.2,0-1.8-0.1-1.8-0.3c0-0.2,0.3-0.4,0.8-0.6c0.8-0.3,2.4-1.2,4.8-2.7
			c3.7-2.2,5.5-4.9,5.5-8c0-1.4-0.4-2.6-1.2-3.4c-0.8-0.8-1.9-1.3-3.2-1.3c-1.3,0-2.2,0.4-2.8,1.1c-0.6,0.7-0.9,1.3-0.9,1.8
			c0,0.3,0.2,0.4,0.7,0.5c1.8,0.3,2.6,1,2.6,2c0,1.3-0.7,2-2,2c-0.8,0-1.4-0.3-1.9-0.8c-0.5-0.5-0.7-1.3-0.7-2.1
			c0-1.7,0.7-3.1,2.1-4.2c1.4-1.1,3.2-1.6,5.4-1.6c2.2,0,4.1,0.5,5.6,1.6c1.5,1.1,2.2,2.4,2.2,4c0,1.9-1.1,3.6-3.3,5
			c-1.3,0.9-2.9,1.6-4.7,2.1c-0.6,0.2-0.9,0.3-0.9,0.4c0,0.1,0.2,0.2,0.6,0.2c2.6,0,4.8-0.1,6.5-0.2c1-0.1,1.6-0.3,2-0.6
			c0.4-0.3,0.6-1,0.8-1.9c0.1-0.8,0.4-1.2,0.7-1.2C179.2,288.7,179.3,288.8,179.3,289z"/>
		<path class="st0" d="M202.5,288.2c0,2.7-1.1,5-3.4,6.8c-1.9,1.5-4.3,2.3-7.3,2.3c-3,0-5.5-0.7-7.3-2.2c-2.3-1.8-3.4-4-3.4-6.5
			c0-1.3,0.4-2.6,1.1-3.9c0.7-1.3,1.7-2.4,2.8-3.2c2-1.4,4.5-2.1,7.4-2.1c2.9,0,5.3,0.8,7.2,2.5
			C201.6,283.6,202.5,285.7,202.5,288.2z M197.1,288c0-5.2-1.6-7.8-4.9-7.8c-1.4,0-2.4,0.4-3.2,1.3c-1.4,1.5-2,3.8-2,6.7
			c0,2.1,0.4,3.9,1.1,5.4c0.9,2,2.3,2.9,4.2,2.9C195.5,296.5,197.1,293.7,197.1,288z"/>
		<path class="st0" d="M217.8,280.1c0,0.2-0.1,0.3-0.4,0.3c-0.1,0-0.8,0-2.2,0.1c-0.9,0-1.4,0.2-1.5,0.5c-0.1,0.3-0.2,1.2-0.2,2.7
			v11.3c0,0.4,0.1,0.6,0.2,0.8c0.2,0.3,0.6,0.5,1.3,0.5h1l1,0.1c0.4,0,0.6,0.1,0.6,0.3c0,0.2-0.2,0.3-0.7,0.3h-0.2h-7.8h-3.9
			c-0.6,0-0.9-0.1-0.9-0.3c0-0.2,0.1-0.3,0.3-0.3c0.2,0,0.8-0.1,1.9-0.1c0.9,0,1.4-0.1,1.6-0.3c0.2-0.2,0.3-0.7,0.3-1.5v-9
			c0-2.8-0.1-4.3-0.2-4.5c-0.2-0.3-1.1-0.5-2.5-0.5c-0.8,0-1.2-0.1-1.2-0.3c0-0.2,0.4-0.3,1.1-0.3l0.8,0l5.6,0c0.7,0,1.4,0,2.1,0
			c0.8,0,1.8,0,3,0C217.5,279.7,217.8,279.8,217.8,280.1z"/>
		<path class="st0" d="M238.4,287.3c0,3.1-1.2,5.8-3.7,7.9c-2.5,2.1-5.5,3.2-9.2,3.2c-1.5,0-2.8-0.2-3.8-0.7s-1.4-1.1-1.4-1.8
			c0-0.5,0.2-1,0.7-1.3c0.5-0.3,1.1-0.5,1.9-0.5c1.5,0,2.2,0.5,2.2,1.4c0,0.4-0.2,0.7-0.5,1c-0.2,0.2-0.6,0.4-1.3,0.6
			c-0.2,0.1-0.2,0.1-0.2,0.3c0,0.4,0.8,0.6,2.3,0.6c2.1,0,3.7-0.8,4.9-2.5c1.2-1.7,1.8-3.6,1.8-5.8c-1.4,0.9-3,1.4-5,1.4
			c-2.2,0-4.1-0.5-5.6-1.6c-1.5-1.1-2.2-2.4-2.2-3.9c0-1.8,0.9-3.2,2.7-4.3c1.8-1.1,4.1-1.7,6.9-1.7c2.9,0,5.2,0.7,6.9,2.1
			C237.5,282.9,238.4,284.8,238.4,287.3z M232.8,285.4c0-1.9-0.4-3.3-1.2-4.3c-0.7-0.8-1.7-1.3-2.9-1.3c-0.8,0-1.6,0.3-2.2,0.8
			c-1,0.8-1.5,2.1-1.5,4c0,3.7,1.3,5.5,3.8,5.5c1.2,0,2.1-0.4,2.9-1.3C232.5,287.9,232.8,286.8,232.8,285.4z"/>
	</g>
</g>
</svg>
