<?xml version="1.0" encoding="utf-8"?>
<!-- Generator: Adobe Illustrator 23.0.4, SVG Export Plug-In . SVG Version: 6.00 Build 0)  -->
<svg version="1.1" id="Layer_1" xmlns="http://www.w3.org/2000/svg" xmlns:xlink="http://www.w3.org/1999/xlink" x="0px" y="0px"
	 viewBox="0 0 300 96.4" style="enable-background:new 0 0 300 96.4;" xml:space="preserve">
<style type="text/css">
	.st0{fill:#4E66AF;}
</style>
<g>
	<path class="st0" d="M122.1,15.9c2.1,1.7,3.1,4.4,3.1,8c0,3.6-1.1,6.3-3.2,7.9c-2.1,1.7-5.3,2.5-9.7,2.5h-3.9v8.2h-6.5V13.3h10.3
		C116.8,13.3,120.1,14.2,122.1,15.9z M117.3,27.4c0.8-0.9,1.2-2.2,1.2-3.9c0-1.7-0.5-2.9-1.5-3.6c-1-0.7-2.6-1.1-4.8-1.1h-3.7v9.8
		h4.4C115.1,28.7,116.5,28.3,117.3,27.4z"/>
	<path class="st0" d="M149.5,42.6l-2.7-6.3h-12.3l-2.7,6.3h-7l12.7-29.3h6.3l12.7,29.3H149.5z M140.6,22l-3.7,8.5h7.3L140.6,22z"/>
	<path class="st0" d="M159.8,13.3h6.5v29.3h-6.5V13.3z"/>
	<path class="st0" d="M195.9,17.1c2.8,2.6,4.2,6.1,4.2,10.7c0,4.6-1.4,8.2-4.1,10.8c-2.7,2.7-6.9,4-12.5,4h-10V13.3h10.3
		C189.1,13.3,193.1,14.6,195.9,17.1z M191.1,34.5c1.6-1.5,2.4-3.7,2.4-6.6s-0.8-5.1-2.4-6.6c-1.6-1.5-4.1-2.3-7.4-2.3h-3.6v17.8h4.1
		C187.2,36.8,189.5,36,191.1,34.5z"/>
	<path class="st0" d="M27.6,83.6l-2.7-6.3H12.6l-2.7,6.3h-7l12.7-29.3h6.3l12.7,29.3H27.6z M18.8,63l-3.7,8.5h7.3L18.8,63z"/>
	<path class="st0" d="M60.3,58.1c2.8,2.6,4.2,6.1,4.2,10.7c0,4.6-1.4,8.2-4.1,10.8c-2.7,2.7-6.9,4-12.5,4H38V54.3h10.3
		C53.5,54.3,57.6,55.6,60.3,58.1z M55.5,75.5C57.2,74,58,71.8,58,69s-0.8-5.1-2.4-6.6c-1.6-1.6-4.1-2.3-7.4-2.3h-3.6v17.8h4.1
		C51.6,77.8,53.9,77,55.5,75.5z"/>
	<path class="st0" d="M80.3,72.9l7.5-18.6h7.1L83.1,83.6h-5.5L65.8,54.3h7.1L80.3,72.9z"/>
	<path class="st0" d="M119.5,54.3v5.8h-14.6v6H118v5.6h-13.1v6.1h15v5.8H98.3V54.3H119.5z"/>
	<path class="st0" d="M149.5,64c0,4.7-1.9,7.7-5.6,9.1l7.4,10.5h-8l-6.5-9.3h-4.5v9.3h-6.5V54.3h11.1c4.6,0,7.8,0.8,9.7,2.3
		C148.5,58.1,149.5,60.6,149.5,64z M141.6,67.5c0.8-0.7,1.2-1.9,1.2-3.5c0-1.6-0.4-2.7-1.3-3.2c-0.8-0.6-2.3-0.9-4.4-0.9h-4.9v8.7
		h4.8C139.3,68.6,140.8,68.2,141.6,67.5z"/>
	<path class="st0" d="M168,59.9v23.6h-6.5V59.9h-8.3v-5.7h23.1v5.7H168z"/>
	<path class="st0" d="M181.1,54.3h6.5v29.3h-6.5V54.3z"/>
	<path class="st0" d="M201.7,60.1c-0.6,0.5-0.9,1.2-0.9,2.1c0,0.9,0.4,1.5,1.2,2c0.8,0.5,2.5,1.1,5.3,1.8c2.8,0.7,4.9,1.7,6.5,3.1
		c1.5,1.4,2.3,3.4,2.3,6s-1,4.8-3,6.4c-2,1.6-4.6,2.5-7.8,2.5c-4.6,0-8.8-1.7-12.5-5.2l3.9-4.8c3.2,2.8,6.1,4.1,8.8,4.1
		c1.2,0,2.1-0.3,2.8-0.8s1-1.2,1-2.1s-0.4-1.6-1.1-2.1c-0.7-0.5-2.2-1-4.3-1.6c-3.4-0.8-5.9-1.9-7.5-3.2c-1.6-1.3-2.4-3.3-2.4-6.1
		c0-2.8,1-4.9,3-6.4c2-1.5,4.5-2.3,7.5-2.3c2,0,3.9,0.3,5.9,1c2,0.7,3.7,1.6,5.1,2.8l-3.3,4.8c-2.5-1.9-5.2-2.9-7.9-2.9
		C203.2,59.4,202.3,59.6,201.7,60.1z"/>
	<path class="st0" d="M221.6,54.3h6.5v29.3h-6.5V54.3z"/>
	<path class="st0" d="M255.8,54.3h6.5v29.3h-6.5l-14-18.4v18.4h-6.5V54.3h6.1l14.4,18.9V54.3z"/>
	<path class="st0" d="M288.6,68.7h6.6V79c-2.9,3.2-6.9,4.9-12.1,4.9c-4.3,0-7.9-1.4-10.8-4.3c-2.9-2.8-4.4-6.4-4.4-10.8
		c0-4.3,1.5-8,4.5-10.9c3-2.9,6.6-4.4,10.8-4.4c4.2,0,7.9,1.4,11,4.1l-3.4,4.9c-1.3-1.1-2.5-1.9-3.6-2.4c-1.1-0.4-2.3-0.6-3.6-0.6
		c-2.5,0-4.6,0.8-6.3,2.5c-1.7,1.7-2.6,3.9-2.6,6.7s0.8,5,2.5,6.6c1.6,1.7,3.6,2.5,5.8,2.5s4.1-0.4,5.7-1.3V68.7z"/>
</g>
</svg>
