<?xml version="1.0" encoding="utf-8"?>
<!-- Generator: Adobe Illustrator 23.0.4, SVG Export Plug-In . SVG Version: 6.00 Build 0)  -->
<svg version="1.1" id="Layer_1" xmlns="http://www.w3.org/2000/svg" xmlns:xlink="http://www.w3.org/1999/xlink" x="0px" y="0px"
	 viewBox="0 0 300 96.4" style="enable-background:new 0 0 300 96.4;" xml:space="preserve">
<style type="text/css">
	.st0{fill:#4E66AF;}
</style>
<g>
	<path class="st0" d="M96.5,31.9l7.5-18.6h7.1L99.3,42.6h-5.5L82,13.3H89L96.5,31.9z"/>
	<path class="st0" d="M114.5,13.3h6.5v29.3h-6.5V13.3z"/>
	<path class="st0" d="M150.6,17.1c2.8,2.6,4.2,6.1,4.2,10.7c0,4.6-1.4,8.2-4.1,10.8c-2.7,2.7-6.9,4-12.5,4h-10V13.3h10.3
		C143.8,13.3,147.8,14.6,150.6,17.1z M145.8,34.5c1.6-1.5,2.4-3.7,2.4-6.6s-0.8-5.1-2.4-6.6c-1.6-1.5-4.1-2.3-7.4-2.3h-3.6v17.8h4.1
		C141.9,36.8,144.2,36,145.8,34.5z"/>
	<path class="st0" d="M181.6,13.3v5.8H167v6h13.1v5.6H167v6.1h15v5.8h-21.6V13.3H181.6z"/>
	<path class="st0" d="M212.1,38.5c-3,2.9-6.6,4.3-10.9,4.3c-4.3,0-8-1.4-10.9-4.3c-3-2.9-4.4-6.5-4.4-10.8s1.5-7.9,4.4-10.8
		c3-2.9,6.6-4.3,10.9-4.3c4.3,0,8,1.4,10.9,4.3c3,2.9,4.4,6.5,4.4,10.8S215,35.6,212.1,38.5z M209.8,27.8c0-2.6-0.8-4.8-2.5-6.7
		c-1.7-1.8-3.7-2.8-6.2-2.8s-4.5,0.9-6.2,2.8c-1.7,1.8-2.5,4.1-2.5,6.7s0.8,4.8,2.5,6.7c1.7,1.8,3.7,2.7,6.2,2.7s4.5-0.9,6.2-2.7
		C209,32.6,209.8,30.4,209.8,27.8z"/>
	<path class="st0" d="M26.3,56.9c2.1,1.7,3.1,4.4,3.1,8c0,3.6-1.1,6.3-3.2,7.9s-5.3,2.5-9.7,2.5h-3.9v8.2H6.1V54.3h10.3
		C20.9,54.3,24.2,55.2,26.3,56.9z M21.5,68.4c0.8-0.9,1.2-2.2,1.2-3.9c0-1.7-0.5-2.9-1.5-3.6c-1-0.7-2.6-1.1-4.8-1.1h-3.7v9.8H17
		C19.2,69.7,20.7,69.3,21.5,68.4z"/>
	<path class="st0" d="M58.2,64c0,4.7-1.9,7.7-5.6,9.1l7.4,10.5h-8l-6.5-9.3H41v9.3h-6.5V54.3h11.1c4.6,0,7.8,0.8,9.7,2.3
		C57.2,58.1,58.2,60.6,58.2,64z M50.3,67.5c0.8-0.7,1.2-1.9,1.2-3.5c0-1.6-0.4-2.7-1.3-3.2c-0.8-0.6-2.3-0.9-4.4-0.9H41v8.7h4.8
		C48,68.6,49.5,68.2,50.3,67.5z"/>
	<path class="st0" d="M89.3,79.5c-3,2.9-6.6,4.3-10.9,4.3c-4.3,0-8-1.4-10.9-4.3c-3-2.9-4.4-6.5-4.4-10.8c0-4.3,1.5-7.9,4.4-10.8
		c3-2.9,6.6-4.3,10.9-4.3c4.3,0,8,1.4,10.9,4.3c3,2.9,4.4,6.5,4.4,10.8C93.7,73,92.2,76.6,89.3,79.5z M87,68.8
		c0-2.6-0.8-4.8-2.5-6.7c-1.7-1.8-3.7-2.8-6.2-2.8c-2.4,0-4.5,0.9-6.2,2.8c-1.7,1.8-2.5,4.1-2.5,6.7s0.8,4.8,2.5,6.7
		c1.7,1.8,3.7,2.7,6.2,2.7c2.4,0,4.5-0.9,6.2-2.7C86.2,73.6,87,71.4,87,68.8z"/>
	<path class="st0" d="M121.6,58.1c2.8,2.6,4.2,6.1,4.2,10.7c0,4.6-1.4,8.2-4.1,10.8c-2.7,2.7-6.9,4-12.5,4h-10V54.3h10.3
		C114.8,54.3,118.8,55.6,121.6,58.1z M116.8,75.5c1.6-1.5,2.4-3.7,2.4-6.6s-0.8-5.1-2.4-6.6c-1.6-1.6-4.1-2.3-7.4-2.3h-3.6v17.8h4.1
		C112.9,77.8,115.2,77,116.8,75.5z"/>
	<path class="st0" d="M139.2,76c1.1,1.4,2.6,2,4.4,2c1.8,0,3.3-0.7,4.4-2c1.1-1.4,1.6-3.2,1.6-5.6V54.3h6.5v16.4
		c0,4.2-1.2,7.5-3.5,9.8c-2.3,2.3-5.4,3.4-9,3.4c-3.7,0-6.7-1.1-9-3.4c-2.4-2.3-3.5-5.5-3.5-9.8V54.3h6.5v16.2
		C137.6,72.8,138.1,74.7,139.2,76z"/>
	<path class="st0" d="M176.4,77.8c3.2,0,5.8-1.3,7.9-3.8l4.2,4.3c-3.3,3.7-7.2,5.6-11.8,5.6s-8.2-1.4-11.1-4.3
		c-2.9-2.8-4.4-6.4-4.4-10.8c0-4.3,1.5-8,4.5-10.9c3-2.9,6.6-4.4,10.9-4.4c4.8,0,8.8,1.8,12.1,5.5l-4.1,4.6
		c-2.1-2.6-4.6-3.9-7.7-3.9c-2.5,0-4.6,0.8-6.3,2.4c-1.7,1.6-2.6,3.8-2.6,6.5c0,2.7,0.8,4.9,2.5,6.6C172,77,174,77.8,176.4,77.8z"/>
	<path class="st0" d="M206,59.9v23.6h-6.5V59.9h-8.3v-5.7h23.1v5.7H206z"/>
	<path class="st0" d="M219.1,54.3h6.5v29.3h-6.5V54.3z"/>
	<path class="st0" d="M257.4,79.5c-3,2.9-6.6,4.3-10.9,4.3c-4.3,0-8-1.4-10.9-4.3s-4.4-6.5-4.4-10.8c0-4.3,1.5-7.9,4.4-10.8
		c3-2.9,6.6-4.3,10.9-4.3c4.3,0,8,1.4,10.9,4.3c3,2.9,4.4,6.5,4.4,10.8C261.9,73,260.4,76.6,257.4,79.5z M255.2,68.8
		c0-2.6-0.8-4.8-2.5-6.7c-1.7-1.8-3.7-2.8-6.2-2.8s-4.5,0.9-6.2,2.8c-1.7,1.8-2.5,4.1-2.5,6.7s0.8,4.8,2.5,6.7
		c1.7,1.8,3.7,2.7,6.2,2.7s4.5-0.9,6.2-2.7C254.4,73.6,255.2,71.4,255.2,68.8z"/>
	<path class="st0" d="M287.9,54.3h6.5v29.3h-6.5l-14-18.4v18.4h-6.5V54.3h6.1l14.4,18.9V54.3z"/>
</g>
</svg>
