<?xml version="1.0" encoding="utf-8"?>
<!-- Generator: Adobe Illustrator 23.0.3, SVG Export Plug-In . SVG Version: 6.00 Build 0)  -->
<svg version="1.1" id="Layer_1" xmlns="http://www.w3.org/2000/svg" xmlns:xlink="http://www.w3.org/1999/xlink" x="0px" y="0px"
	 viewBox="0 0 32 32" style="enable-background:new 0 0 32 32;" xml:space="preserve">
<style type="text/css">
	.st0{fill:#FFFFFF;}
</style>
<g>
	<path class="st0" d="M16,2.9c4.3,0,4.8,0,6.5,0.1c1.8,0.1,3.5,0.4,4.8,1.7c1.3,1.3,1.7,3,1.7,4.8c0.1,1.7,0.1,2.2,0.1,6.5
		s0,4.8-0.1,6.5c-0.1,1.8-0.4,3.5-1.7,4.8c-1.3,1.3-3,1.7-4.8,1.7c-1.7,0.1-2.2,0.1-6.5,0.1s-4.8,0-6.5-0.1
		c-1.8-0.1-3.5-0.4-4.8-1.7s-1.7-3-1.7-4.8c-0.1-1.7-0.1-2.2-0.1-6.5s0-4.8,0.1-6.5C3.1,7.7,3.4,6,4.7,4.7s3-1.7,4.8-1.7
		C11.2,2.9,11.7,2.9,16,2.9 M16,0c-4.3,0-4.9,0-6.6,0.1C6.8,0.2,4.5,0.9,2.7,2.7C0.9,4.5,0.2,6.8,0.1,9.4C0,11.1,0,11.7,0,16
		s0,4.9,0.1,6.6c0.1,2.6,0.8,4.9,2.6,6.7c1.8,1.8,4.1,2.5,6.7,2.6C11.1,32,11.7,32,16,32s4.9,0,6.6-0.1c2.6-0.1,4.9-0.8,6.7-2.6
		c1.8-1.8,2.5-4.1,2.6-6.7C32,20.9,32,20.3,32,16s0-4.9-0.1-6.6c-0.1-2.6-0.8-4.9-2.6-6.7c-1.8-1.8-4.1-2.5-6.7-2.6
		C20.9,0,20.3,0,16,0L16,0z"/>
	<path class="st0" d="M16,7.8c-4.5,0-8.2,3.7-8.2,8.2c0,4.5,3.7,8.2,8.2,8.2s8.2-3.7,8.2-8.2C24.2,11.5,20.5,7.8,16,7.8z M16,21.3
		c-2.9,0-5.3-2.4-5.3-5.3c0-2.9,2.4-5.3,5.3-5.3c2.9,0,5.3,2.4,5.3,5.3C21.3,18.9,18.9,21.3,16,21.3z"/>
	<circle class="st0" cx="24.5" cy="7.5" r="1.9"/>
</g>
</svg>
