<?xml version="1.0" encoding="utf-8"?>
<!-- Generator: Adobe Illustrator 23.0.3, SVG Export Plug-In . SVG Version: 6.00 Build 0)  -->
<svg version="1.1" id="Layer_1" xmlns="http://www.w3.org/2000/svg" xmlns:xlink="http://www.w3.org/1999/xlink" x="0px" y="0px"
	 viewBox="0 0 149 140" style="enable-background:new 0 0 149 140;" xml:space="preserve">
<style type="text/css">
	.st0{fill:url(#SVGID_1_);}
	.st1{fill:#FFFFFF;}
	.st2{fill:#ED1B79;}
</style>
<g id="Content_Multiplier">
	
		<linearGradient id="SVGID_1_" gradientUnits="userSpaceOnUse" x1="-2427.5034" y1="1124.5535" x2="-2363.1382" y2="1188.9186" gradientTransform="matrix(4.489700e-11 -1 1 4.489700e-11 -1082.4283 -2341.2285)">
		<stop  offset="3.605769e-04" style="stop-color:#ED1979"/>
		<stop  offset="0.3956" style="stop-color:#EE365A"/>
		<stop  offset="1" style="stop-color:#F36C24"/>
	</linearGradient>
	<polygon class="st0" points="33.5,30.5 33.5,77.7 74.3,101.2 115.2,77.7 115.2,30.5 74.3,7 	"/>
	<g>
		<path class="st1" d="M97.5,42.3L74,28.8c-0.3-0.2-0.6-0.2-0.9,0L49.6,42.3c-0.3,0.2-0.4,0.4-0.4,0.7s0.2,0.6,0.4,0.7l23.5,13.5
			c0.2,0.1,0.3,0.1,0.4,0.1s0.3,0,0.4-0.1l23.5-13.4c0.3-0.2,0.4-0.4,0.4-0.7C97.9,42.7,97.7,42.5,97.5,42.3z"/>
		<path class="st1" d="M97.5,64.5l-5.8-3.4l-16.9,9.6C74.4,71,73.9,71,73.5,71s-0.9-0.1-1.3-0.3l-16.7-9.6l-5.9,3.4
			c-0.3,0.2-0.4,0.4-0.4,0.7c0,0.3,0.2,0.6,0.4,0.7l23.5,13.4c0.1,0.1,0.2,0.1,0.4,0.1c0.2,0,0.3,0,0.4-0.1l23.5-13.4
			c0.3-0.2,0.4-0.4,0.4-0.7C97.9,64.9,97.7,64.6,97.5,64.5z"/>
		<path class="st1" d="M97.5,53.4l-5.8-3.3l-16.9,9.6C74.4,60,73.9,60,73.5,60s-0.9-0.1-1.3-0.3l-16.7-9.6l-5.9,3.4
			c-0.3,0.1-0.5,0.4-0.5,0.7c0,0.3,0.2,0.6,0.4,0.7l23.6,13.4c0.2,0.1,0.3,0.1,0.4,0.1s0.3,0,0.4-0.1l23.5-13.4
			c0.3-0.2,0.4-0.4,0.4-0.7S97.7,53.5,97.5,53.4z"/>
	</g>
</g>
<g>
	<path class="st2" d="M48,118.3c0.9,0,1.7-0.4,2.3-1.1l1.2,1.2c-1,1.1-2.1,1.6-3.4,1.6s-2.4-0.4-3.2-1.2s-1.3-1.8-1.3-3.1
		c0-1.2,0.4-2.3,1.3-3.1s1.9-1.2,3.1-1.2c1.4,0,2.5,0.5,3.5,1.6l-1.2,1.3c-0.6-0.7-1.3-1.1-2.2-1.1c-0.7,0-1.3,0.2-1.8,0.7
		s-0.8,1.1-0.8,1.9s0.2,1.4,0.7,1.9C46.8,118.1,47.4,118.3,48,118.3z"/>
	<path class="st2" d="M59.8,118.8c-0.8,0.8-1.9,1.2-3.1,1.2c-1.2,0-2.3-0.4-3.1-1.2s-1.3-1.9-1.3-3.1c0-1.2,0.4-2.3,1.3-3.1
		c0.8-0.8,1.9-1.2,3.1-1.2c1.2,0,2.3,0.4,3.1,1.2s1.3,1.9,1.3,3.1C61.1,117,60.7,118,59.8,118.8z M59.2,115.8c0-0.7-0.2-1.4-0.7-1.9
		s-1.1-0.8-1.8-0.8s-1.3,0.3-1.8,0.8s-0.7,1.2-0.7,1.9s0.2,1.4,0.7,1.9s1.1,0.8,1.8,0.8s1.3-0.3,1.8-0.8
		C59,117.1,59.2,116.5,59.2,115.8z"/>
	<path class="st2" d="M68.6,111.6h1.9v8.4h-1.9l-4-5.3v5.3h-1.9v-8.4h1.8l4.1,5.4V111.6z"/>
	<path class="st2" d="M76,113.2v6.8h-1.9v-6.8h-2.4v-1.6h6.6v1.6H76z"/>
	<path class="st2" d="M85.8,111.6v1.7h-4.2v1.7h3.8v1.6h-3.8v1.7H86v1.7h-6.2v-8.4L85.8,111.6L85.8,111.6z"/>
	<path class="st2" d="M93.5,111.6h1.9v8.4h-1.9l-4-5.3v5.3h-1.9v-8.4h1.8l4.1,5.4V111.6z"/>
	<path class="st2" d="M101,113.2v6.8h-1.9v-6.8h-2.4v-1.6h6.6v1.6H101z"/>
	<path class="st2" d="M45.4,127.7l-2.3,4.6H42l-2.3-4.6v5.3h-1.9v-8.4h2.5l2.2,4.6l2.2-4.6h2.5v8.4h-1.9v-5.3H45.4z"/>
	<path class="st2" d="M51.5,130.8c0.3,0.4,0.7,0.6,1.3,0.6c0.5,0,0.9-0.2,1.3-0.6c0.3-0.4,0.5-0.9,0.5-1.6v-4.6h1.9v4.7
		c0,1.2-0.3,2.2-1,2.8c-0.7,0.7-1.5,1-2.6,1c-1,0-1.9-0.3-2.6-1c-0.7-0.7-1-1.6-1-2.8v-4.7h1.9v4.6
		C51.1,129.9,51.2,130.4,51.5,130.8z"/>
	<path class="st2" d="M58.3,133v-8.4h1.9v6.7h3.6v1.7H58.3z"/>
	<path class="st2" d="M67.9,126.2v6.8H66v-6.8h-2.4v-1.6h6.6v1.6H67.9z"/>
	<path class="st2" d="M71.7,124.6h1.9v8.4h-1.9V124.6z"/>
	<path class="st2" d="M81.4,125.3c0.6,0.5,0.9,1.3,0.9,2.3c0,1-0.3,1.8-0.9,2.3s-1.5,0.7-2.8,0.7h-1.1v2.3h-1.9v-8.4h3
		C79.9,124.6,80.8,124.8,81.4,125.3z M80,128.6c0.2-0.3,0.3-0.6,0.3-1.1c0-0.5-0.1-0.8-0.4-1s-0.7-0.3-1.4-0.3h-1.1v2.8h1.3
		C79.4,129,79.8,128.9,80,128.6z"/>
	<path class="st2" d="M83.7,133v-8.4h1.9v6.7h3.6v1.7H83.7z"/>
	<path class="st2" d="M90.6,124.6h1.9v8.4h-1.9V124.6z"/>
	<path class="st2" d="M100.5,124.6v1.7h-4.2v1.7h3.8v1.6h-3.8v1.7h4.3v1.7h-6.2v-8.4H100.5z"/>
	<path class="st2" d="M109.1,127.3c0,1.3-0.5,2.2-1.6,2.6l2.1,3h-2.3l-1.9-2.7h-1.3v2.7h-1.9v-8.4h3.2c1.3,0,2.2,0.2,2.8,0.7
		C108.9,125.7,109.1,126.3,109.1,127.3z M106.9,128.4c0.2-0.2,0.3-0.5,0.3-1s-0.1-0.8-0.4-0.9s-0.7-0.3-1.3-0.3h-1.4v2.5h1.4
		C106.2,128.6,106.7,128.6,106.9,128.4z"/>
</g>
</svg>
