<?xml version="1.0" encoding="utf-8"?>
<!-- Generator: Adobe Illustrator 23.0.3, SVG Export Plug-In . SVG Version: 6.00 Build 0)  -->
<svg version="1.1" id="Layer_7" xmlns="http://www.w3.org/2000/svg" xmlns:xlink="http://www.w3.org/1999/xlink" x="0px" y="0px"
	 viewBox="0 0 149 145" style="enable-background:new 0 0 149 145;" xml:space="preserve">
<style type="text/css">
	.st0{fill:url(#SVGID_1_);}
	.st1{fill:#FFFFFF;}
	.st2{fill:#EF496C;}
</style>
<g id="Growth_Accelerators">
	
		<linearGradient id="SVGID_1_" gradientUnits="userSpaceOnUse" x1="-2428.1536" y1="1127.0535" x2="-2363.7883" y2="1191.4186" gradientTransform="matrix(4.489700e-11 -1 1 4.489700e-11 -1084.9283 -2338.7285)">
		<stop  offset="1.983173e-03" style="stop-color:#EF496C"/>
		<stop  offset="0.1943" style="stop-color:#D65177"/>
		<stop  offset="0.6143" style="stop-color:#995E92"/>
		<stop  offset="1" style="stop-color:#4F65AF"/>
	</linearGradient>
	<polygon class="st0" points="33.5,33.6 33.5,80.8 74.3,104.3 115.2,80.8 115.2,33.6 74.3,10.1 	"/>
	<g>
		<path class="st1" d="M73.7,42.3c-5.1-1.5-10.7-0.1-14.5,3.8c-0.9,0.9-1.6,1.9-2.3,3c-0.2,0.3-0.1,0.6,0.1,0.8l4.8,4.8
			C64.1,51,67.9,46.2,73.7,42.3z"/>
		<path class="st1" d="M76.6,69.5l4.8,4.8c0.1,0.1,0.3,0.2,0.5,0.2c0.1,0,0.2,0,0.3-0.1c1.1-0.7,2.1-1.4,3-2.3
			c3.9-3.9,5.3-9.5,3.8-14.6C85.1,63.3,80.2,67.2,76.6,69.5z"/>
		<path class="st1" d="M59.1,67.6c-2.6,0-4.6,2.1-4.6,4.6v4c0,0.4,0.3,0.7,0.7,0.7h4c2.6,0,4.6-2.1,4.6-4.6
			C63.7,69.6,61.6,67.6,59.1,67.6z"/>
		<path class="st1" d="M91.3,50.5c1.5-3.7,2.6-7.9,2.9-12.7c0-0.2-0.1-0.4-0.2-0.5s-0.3-0.2-0.5-0.2c-4.8,0.3-9.1,1.3-12.7,2.9
			L91.3,50.5z"/>
		<path class="st1" d="M79.5,40.5c-13.7,6.4-19.1,19.4-19.2,19.6c-0.1,0.2,0,0.5,0.1,0.7l10,10c0.1,0.1,0.3,0.2,0.5,0.2
			c0.1,0,0.2,0,0.3,0c0.2-0.1,13.1-5.5,19.5-19.2L79.5,40.5z M79.7,56.6c-1.4,1.4-3.6,1.4-5,0s-1.4-3.6,0-5s3.6-1.4,5,0
			C81.1,52.9,81.1,55.2,79.7,56.6z"/>
	</g>
</g>
<g>
	<path class="st2" d="M52.1,118.4H54v3c-0.8,0.9-2,1.4-3.5,1.4c-1.2,0-2.3-0.4-3.1-1.2s-1.3-1.8-1.3-3.1c0-1.2,0.4-2.3,1.3-3.1
		s1.9-1.2,3.1-1.2s2.2,0.4,3.1,1.2l-1,1.4c-0.4-0.3-0.7-0.6-1-0.7s-0.7-0.2-1-0.2c-0.7,0-1.3,0.2-1.8,0.7s-0.7,1.1-0.7,1.9
		c0,0.8,0.2,1.4,0.7,1.9s1,0.7,1.7,0.7s1.2-0.1,1.6-0.4V118.4z"/>
	<path class="st2" d="M62.5,117c0,1.3-0.5,2.2-1.6,2.6l2.1,3h-2.3l-1.9-2.7h-1.3v2.7h-1.9v-8.4h3.2c1.3,0,2.2,0.2,2.8,0.7
		C62.2,115.3,62.5,116.1,62.5,117z M60.2,118c0.2-0.2,0.3-0.5,0.3-1s-0.1-0.8-0.4-0.9c-0.2-0.2-0.7-0.3-1.3-0.3h-1.4v2.5h1.4
		C59.6,118.3,60,118.2,60.2,118z"/>
	<path class="st2" d="M71.4,121.5c-0.8,0.8-1.9,1.2-3.1,1.2s-2.3-0.4-3.1-1.2c-0.8-0.8-1.3-1.9-1.3-3.1c0-1.2,0.4-2.3,1.3-3.1
		c0.8-0.8,1.9-1.2,3.1-1.2s2.3,0.4,3.1,1.2s1.3,1.9,1.3,3.1C72.7,119.6,72.2,120.6,71.4,121.5z M70.8,118.4c0-0.7-0.2-1.4-0.7-1.9
		s-1.1-0.8-1.8-0.8s-1.3,0.3-1.8,0.8s-0.7,1.2-0.7,1.9c0,0.7,0.2,1.4,0.7,1.9s1.1,0.8,1.8,0.8s1.3-0.3,1.8-0.8
		C70.5,119.8,70.8,119.1,70.8,118.4z"/>
	<path class="st2" d="M76.7,119.1l1.5-4.8h2l1.5,4.8l1.7-4.8h2l-2.9,8.4H81l-1.8-5.8l-1.8,5.8H76l-2.9-8.4h2L76.7,119.1z"/>
	<path class="st2" d="M89.9,115.9v6.8H88v-6.8h-2.4v-1.6h6.6v1.6C92.2,115.9,89.9,115.9,89.9,115.9z"/>
	<path class="st2" d="M98.8,114.2h1.9v8.4h-1.9v-3.3h-3.3v3.3h-1.9v-8.4h1.9v3.5h3.3V114.2z"/>
	<path class="st2" d="M31,135.6l-0.8-1.8h-3.5l-0.8,1.8h-2l3.6-8.4h1.8l3.6,8.4H31z M28.5,129.7l-1.1,2.4h2.1L28.5,129.7z"/>
	<path class="st2" d="M37.8,134c0.9,0,1.7-0.4,2.3-1.1l1.2,1.2c-1,1.1-2.1,1.6-3.4,1.6s-2.4-0.4-3.2-1.2s-1.3-1.8-1.3-3.1
		s0.4-2.3,1.3-3.1c0.9-0.8,1.9-1.2,3.1-1.2c1.4,0,2.5,0.5,3.5,1.6l-1.2,1.3c-0.6-0.7-1.3-1.1-2.2-1.1c-0.7,0-1.3,0.2-1.8,0.7
		s-0.8,1.1-0.8,1.9s0.2,1.4,0.7,1.9C36.6,133.7,37.1,134,37.8,134z"/>
	<path class="st2" d="M46.6,134c0.9,0,1.7-0.4,2.3-1.1l1.2,1.2c-1,1.1-2.1,1.6-3.4,1.6s-2.4-0.4-3.2-1.2s-1.3-1.8-1.3-3.1
		s0.4-2.3,1.3-3.1c0.9-0.8,1.9-1.2,3.1-1.2c1.4,0,2.5,0.5,3.5,1.6l-1.2,1.3c-0.6-0.7-1.3-1.1-2.2-1.1c-0.7,0-1.3,0.2-1.8,0.7
		s-0.8,1.1-0.8,1.9s0.2,1.4,0.7,1.9C45.4,133.7,45.9,134,46.6,134z"/>
	<path class="st2" d="M57.6,127.2v1.7h-4.2v1.7h3.8v1.6h-3.8v1.7h4.3v1.7h-6.2v-8.4H57.6z"/>
	<path class="st2" d="M59.4,135.6v-8.4h1.9v6.7h3.6v1.7H59.4z"/>
	<path class="st2" d="M72.2,127.2v1.7H68v1.7h3.8v1.6H68v1.7h4.3v1.7h-6.2v-8.4H72.2z"/>
	<path class="st2" d="M80.8,130c0,1.3-0.5,2.2-1.6,2.6l2.1,3H79l-1.9-2.7h-1.3v2.7H74v-8.4h3.2c1.3,0,2.2,0.2,2.8,0.7
		C80.6,128.3,80.8,129.1,80.8,130z M78.6,131c0.2-0.2,0.3-0.5,0.3-1s-0.1-0.8-0.4-0.9s-0.7-0.3-1.3-0.3h-1.4v2.5h1.4
		C77.9,131.3,78.4,131.2,78.6,131z"/>
	<path class="st2" d="M88.7,135.6l-0.8-1.8h-3.5l-0.8,1.8h-2l3.6-8.4H87l3.6,8.4H88.7z M86.2,129.7l-1.1,2.4h2.1L86.2,129.7z"/>
	<path class="st2" d="M94.6,128.9v6.8h-1.9v-6.8h-2.4v-1.6H97v1.6H94.6z"/>
	<path class="st2" d="M105.2,134.5c-0.8,0.8-1.9,1.2-3.1,1.2s-2.3-0.4-3.1-1.2c-0.8-0.8-1.3-1.9-1.3-3.1c0-1.2,0.4-2.3,1.3-3.1
		c0.8-0.8,1.9-1.2,3.1-1.2s2.3,0.4,3.1,1.2c0.8,0.8,1.3,1.9,1.3,3.1S106.1,133.6,105.2,134.5z M104.6,131.4c0-0.7-0.2-1.4-0.7-1.9
		s-1.1-0.8-1.8-0.8s-1.3,0.3-1.8,0.8s-0.7,1.2-0.7,1.9s0.2,1.4,0.7,1.9s1.1,0.8,1.8,0.8s1.3-0.3,1.8-0.8
		C104.3,132.8,104.6,132.1,104.6,131.4z"/>
	<path class="st2" d="M114.9,130c0,1.3-0.5,2.2-1.6,2.6l2.1,3h-2.3l-1.9-2.7h-1.3v2.7H108v-8.4h3.2c1.3,0,2.2,0.2,2.8,0.7
		C114.6,128.3,114.9,129.1,114.9,130z M112.6,131c0.2-0.2,0.3-0.5,0.3-1s-0.1-0.8-0.4-0.9c-0.2-0.2-0.7-0.3-1.3-0.3h-1.4v2.5h1.4
		C112,131.3,112.4,131.2,112.6,131z"/>
	<path class="st2" d="M118.8,128.9c-0.2,0.1-0.3,0.3-0.3,0.6s0.1,0.4,0.3,0.6c0.2,0.1,0.7,0.3,1.5,0.5s1.4,0.5,1.9,0.9
		c0.4,0.4,0.7,1,0.7,1.7s-0.3,1.4-0.8,1.8c-0.6,0.5-1.3,0.7-2.2,0.7c-1.3,0-2.5-0.5-3.6-1.5l1.1-1.4c0.9,0.8,1.7,1.2,2.5,1.2
		c0.3,0,0.6-0.1,0.8-0.2c0.2-0.1,0.3-0.3,0.3-0.6s-0.1-0.5-0.3-0.6c-0.2-0.1-0.6-0.3-1.2-0.4c-1-0.2-1.7-0.5-2.1-0.9s-0.7-1-0.7-1.8
		s0.3-1.4,0.9-1.8c0.6-0.4,1.3-0.6,2.1-0.6c0.6,0,1.1,0.1,1.7,0.3s1,0.5,1.5,0.8l-0.9,1.4c-0.7-0.6-1.5-0.8-2.3-0.8
		C119.2,128.7,118.9,128.8,118.8,128.9z"/>
</g>
</svg>
