<?xml version="1.0" encoding="utf-8"?>
<!-- Generator: Adobe Illustrator 23.0.3, SVG Export Plug-In . SVG Version: 6.00 Build 0)  -->
<svg version="1.1" id="Layer_3" xmlns="http://www.w3.org/2000/svg" xmlns:xlink="http://www.w3.org/1999/xlink" x="0px" y="0px"
	 viewBox="0 0 149 140" style="enable-background:new 0 0 149 140;" xml:space="preserve">
<style type="text/css">
	.st0{fill:url(#SVGID_1_);}
	.st1{fill:#FFFFFF;}
	.st2{fill:#4DC4D2;}
</style>
<g id="Search_Amplifier">
	
		<linearGradient id="SVGID_1_" gradientUnits="userSpaceOnUse" x1="-2428.2534" y1="1124.7534" x2="-2363.8882" y2="1189.1187" gradientTransform="matrix(4.489700e-11 -1 1 4.489700e-11 -1082.4283 -2341.2285)">
		<stop  offset="0" style="stop-color:#6583C1"/>
		<stop  offset="0.4764" style="stop-color:#59A3CB"/>
		<stop  offset="0.9996" style="stop-color:#4EC5D4"/>
	</linearGradient>
	<polygon class="st0" points="33.7,31.2 33.7,78.4 74.5,101.9 115.4,78.4 115.4,31.2 74.5,7.7 	"/>
	<g>
		<path class="st1" d="M73.7,42.7c-6.7,0-12.1,5.4-12.1,12.1S67,66.9,73.7,66.9s12.1-5.4,12.1-12.1C85.8,48.1,80.4,42.7,73.7,42.7z
			 M73.7,64.2c-5.2,0-9.4-4.2-9.4-9.4s4.2-9.4,9.4-9.4c5.2,0,9.4,4.2,9.4,9.4S78.9,64.2,73.7,64.2z"/>
		<circle class="st1" cx="73.7" cy="54.8" r="2.7"/>
		<path class="st1" d="M91.9,50.1c0.4,1.5,0.6,3.1,0.6,4.7c0,10.4-8.4,18.8-18.8,18.8s-18.8-8.4-18.8-18.8S63.3,36,73.7,36
			c3.7,0,7.1,1.1,10,2.9c-0.4,0.7-0.6,1.6-0.6,2.5c0,3,2.4,5.4,5.4,5.4s5.4-2.4,5.4-5.4S91.5,36,88.5,36c-1.1,0-2.1,0.3-3,0.9
			c-3.4-2.3-7.5-3.6-11.8-3.6c-11.9,0-21.5,9.6-21.5,21.5s9.6,21.5,21.5,21.5s21.5-9.6,21.5-21.5c0-2.1-0.3-4.1-0.9-6.1
			C93.6,49.3,92.8,49.8,91.9,50.1z"/>
	</g>
</g>
<g>
	<path class="st2" d="M52,113.6c-0.2,0.1-0.3,0.3-0.3,0.6s0.1,0.4,0.3,0.6c0.2,0.1,0.7,0.3,1.5,0.5s1.4,0.5,1.9,0.9
		c0.4,0.4,0.7,1,0.7,1.7s-0.3,1.4-0.8,1.8c-0.6,0.5-1.3,0.7-2.2,0.7c-1.3,0-2.5-0.5-3.6-1.5l1.1-1.4c0.9,0.8,1.7,1.2,2.5,1.2
		c0.3,0,0.6-0.1,0.8-0.2c0.2-0.1,0.3-0.3,0.3-0.6s-0.1-0.5-0.3-0.6s-0.6-0.3-1.2-0.4c-1-0.2-1.7-0.5-2.1-0.9c-0.5-0.4-0.7-1-0.7-1.8
		s0.3-1.4,0.9-1.8c0.6-0.4,1.3-0.6,2.1-0.6c0.6,0,1.1,0.1,1.7,0.3c0.6,0.2,1,0.5,1.5,0.8l-0.9,1.4c-0.7-0.6-1.5-0.8-2.3-0.8
		C52.4,113.3,52.2,113.4,52,113.6z"/>
	<path class="st2" d="M63.7,111.9v1.7h-4.2v1.7h3.8v1.6h-3.8v1.7h4.3v1.7h-6.2v-8.4C57.6,111.9,63.7,111.9,63.7,111.9z"/>
	<path class="st2" d="M71.5,120.3l-0.8-1.8h-3.5l-0.8,1.8h-2l3.6-8.4h1.8l3.6,8.4H71.5z M69,114.4l-1.1,2.4H70L69,114.4z"/>
	<path class="st2" d="M81.3,114.7c0,1.3-0.5,2.2-1.6,2.6l2.1,3h-2.3l-1.9-2.7h-1.3v2.7h-1.9v-8.4h3.2c1.3,0,2.2,0.2,2.8,0.7
		C81,113,81.3,113.7,81.3,114.7z M79,115.7c0.2-0.2,0.3-0.5,0.3-1s-0.1-0.8-0.4-0.9s-0.7-0.3-1.3-0.3h-1.4v2.5h1.4
		C78.4,116,78.8,115.9,79,115.7z"/>
	<path class="st2" d="M87.1,118.6c0.9,0,1.7-0.4,2.3-1.1l1.2,1.2c-1,1.1-2.1,1.6-3.4,1.6s-2.4-0.4-3.2-1.2s-1.3-1.8-1.3-3.1
		c0-1.2,0.4-2.3,1.3-3.1c0.9-0.8,1.9-1.2,3.1-1.2c1.4,0,2.5,0.5,3.5,1.6l-1.2,1.3c-0.6-0.7-1.3-1.1-2.2-1.1c-0.7,0-1.3,0.2-1.8,0.7
		s-0.8,1.1-0.8,1.9s0.2,1.4,0.7,1.9C85.8,118.4,86.4,118.6,87.1,118.6z"/>
	<path class="st2" d="M97.2,111.9h1.9v8.4h-1.9V117h-3.3v3.3H92v-8.4h1.9v3.5h3.3C97.2,115.4,97.2,111.9,97.2,111.9z"/>
	<path class="st2" d="M48,133.3l-0.8-1.8h-3.5l-0.8,1.8h-2l3.6-8.4h1.8l3.6,8.4H48z M45.5,127.4l-1.1,2.4h2.1L45.5,127.4z"/>
	<path class="st2" d="M58.5,128l-2.3,4.6h-1.1l-2.3-4.6v5.3H51v-8.4h2.5l2.2,4.6l2.2-4.6h2.5v8.4h-1.9V128z"/>
	<path class="st2" d="M68.2,125.6c0.6,0.5,0.9,1.3,0.9,2.3s-0.3,1.8-0.9,2.3s-1.5,0.7-2.8,0.7h-1.1v2.3h-1.9v-8.4h3
		C66.7,124.9,67.6,125.1,68.2,125.6z M66.8,128.9c0.2-0.3,0.3-0.6,0.3-1.1s-0.1-0.8-0.4-1s-0.7-0.3-1.4-0.3h-1.1v2.8h1.3
		C66.2,129.3,66.6,129.2,66.8,128.9z"/>
	<path class="st2" d="M70.5,133.3v-8.4h1.9v6.7H76v1.7H70.5z"/>
	<path class="st2" d="M77.4,124.9h1.9v8.4h-1.9V124.9z"/>
	<path class="st2" d="M87,124.9v1.6h-3.9v1.8h3.7v1.6h-3.7v3.3h-1.9v-8.4L87,124.9L87,124.9z"/>
	<path class="st2" d="M88.6,124.9h1.9v8.4h-1.9V124.9z"/>
	<path class="st2" d="M98.6,124.9v1.7h-4.2v1.7h3.8v1.6h-3.8v1.7h4.3v1.7h-6.2v-8.4H98.6z"/>
	<path class="st2" d="M107.2,127.7c0,1.3-0.5,2.2-1.6,2.6l2.1,3h-2.3l-1.9-2.7h-1.3v2.7h-1.9v-8.4h3.2c1.3,0,2.2,0.2,2.8,0.7
		C106.9,126,107.2,126.7,107.2,127.7z M105,128.7c0.2-0.2,0.3-0.5,0.3-1s-0.1-0.8-0.4-0.9s-0.7-0.3-1.3-0.3h-1.4v2.5h1.4
		C104.3,129,104.7,128.9,105,128.7z"/>
</g>
</svg>
