<?xml version="1.0" encoding="utf-8"?>
<!-- Generator: Adobe Illustrator 23.0.3, SVG Export Plug-In . SVG Version: 6.00 Build 0)  -->
<svg version="1.1" id="Layer_4" xmlns="http://www.w3.org/2000/svg" xmlns:xlink="http://www.w3.org/1999/xlink" x="0px" y="0px"
	 viewBox="0 0 149 140" style="enable-background:new 0 0 149 140;" xml:space="preserve">
<style type="text/css">
	.st0{fill:url(#SVGID_1_);}
	.st1{fill:#FFFFFF;}
	.st2{fill:#0A9A8F;}
</style>
<g id="Social_Reputation">
	
		<linearGradient id="SVGID_1_" gradientUnits="userSpaceOnUse" x1="-2428.1536" y1="1124.3534" x2="-2363.7883" y2="1188.7186" gradientTransform="matrix(4.489700e-11 -1 1 4.489700e-11 -1082.4283 -2341.2285)">
		<stop  offset="0" style="stop-color:#109A8F"/>
		<stop  offset="1" style="stop-color:#70C172"/>
	</linearGradient>
	<polygon class="st0" points="33.3,31.1 33.3,78.3 74.1,101.8 115,78.3 115,31.1 74.1,7.6 	"/>
	<g>
		<path class="st1" d="M88.1,48.5h-8.6v-4.9c0-3.8-2.3-8.2-6.6-9.5c-0.7-0.2-1.6-0.1-2.2,0.4s-1,1.1-1,2v6.8l-6.1,7.9v19.1l2.3,1.2
			c2.3,1.1,4.9,1.7,7.5,1.7h12.3c2.7,0,5-2,5.5-4.8L93,53.6v-0.1C93.1,50.7,90.8,48.5,88.1,48.5z"/>
		<path class="st1" d="M59.9,49.7H55c-0.7,0-1.2,0.5-1.2,1.2v20.9c0,0.7,0.5,1.2,1.2,1.2h4.9c0.7,0,1.2-0.5,1.2-1.2V50.9
			C61.1,50.2,60.6,49.7,59.9,49.7z"/>
	</g>
</g>
<g>
	<path class="st2" d="M54.1,113.9c-0.2,0.1-0.3,0.3-0.3,0.6s0.1,0.4,0.3,0.6c0.2,0.1,0.7,0.3,1.5,0.5s1.4,0.5,1.9,0.9
		c0.4,0.4,0.7,1,0.7,1.7s-0.3,1.4-0.8,1.8c-0.6,0.5-1.3,0.7-2.2,0.7c-1.3,0-2.5-0.5-3.6-1.5l1.1-1.4c0.9,0.8,1.7,1.2,2.5,1.2
		c0.3,0,0.6-0.1,0.8-0.2c0.2-0.1,0.3-0.3,0.3-0.6s-0.1-0.5-0.3-0.6s-0.6-0.3-1.2-0.4c-1-0.2-1.7-0.5-2.1-0.9c-0.5-0.4-0.7-1-0.7-1.8
		s0.3-1.4,0.9-1.8c0.6-0.4,1.3-0.6,2.1-0.6c0.6,0,1.1,0.1,1.7,0.3c0.6,0.2,1,0.5,1.5,0.8l-0.9,1.4c-0.7-0.6-1.5-0.8-2.3-0.8
		C54.5,113.7,54.3,113.7,54.1,113.9z"/>
	<path class="st2" d="M66.9,119.4c-0.8,0.8-1.9,1.2-3.1,1.2c-1.2,0-2.3-0.4-3.1-1.2s-1.3-1.9-1.3-3.1c0-1.2,0.4-2.3,1.3-3.1
		c0.8-0.8,1.9-1.2,3.1-1.2s2.3,0.4,3.1,1.2s1.3,1.9,1.3,3.1C68.1,117.6,67.7,118.6,66.9,119.4z M66.2,116.4c0-0.7-0.2-1.4-0.7-1.9
		s-1.1-0.8-1.8-0.8s-1.3,0.3-1.8,0.8s-0.7,1.2-0.7,1.9s0.2,1.4,0.7,1.9s1.1,0.8,1.8,0.8s1.3-0.3,1.8-0.8
		C66,117.7,66.2,117.1,66.2,116.4z"/>
	<path class="st2" d="M73.6,118.9c0.9,0,1.7-0.4,2.3-1.1l1.2,1.2c-1,1.1-2.1,1.6-3.4,1.6s-2.4-0.4-3.2-1.2c-0.8-0.8-1.3-1.8-1.3-3.1
		c0-1.2,0.4-2.3,1.3-3.1s1.9-1.2,3.1-1.2c1.4,0,2.5,0.5,3.5,1.6l-1.2,1.3c-0.6-0.7-1.3-1.1-2.2-1.1c-0.7,0-1.3,0.2-1.8,0.7
		s-0.8,1.1-0.8,1.9s0.2,1.4,0.7,1.9C72.3,118.7,72.9,118.9,73.6,118.9z"/>
	<path class="st2" d="M78.5,112.2h1.9v8.4h-1.9V112.2z"/>
	<path class="st2" d="M88.4,120.6l-0.8-1.8h-3.5l-0.8,1.8h-2l3.6-8.4h1.8l3.6,8.4H88.4z M85.9,114.7l-1.1,2.4h2.1L85.9,114.7z"/>
	<path class="st2" d="M91.4,120.6v-8.4h1.9v6.7h3.6v1.7H91.4z"/>
	<path class="st2" d="M42.2,128c0,1.3-0.5,2.2-1.6,2.6l2.1,3h-2.3l-1.9-2.7h-1.3v2.7h-1.9v-8.4h3.2c1.3,0,2.2,0.2,2.8,0.7
		C41.9,126.3,42.2,127,42.2,128z M39.9,129c0.2-0.2,0.3-0.5,0.3-1s-0.1-0.8-0.4-0.9c-0.2-0.2-0.7-0.3-1.3-0.3h-1.4v2.5h1.4
		C39.2,129.3,39.7,129.2,39.9,129z"/>
	<path class="st2" d="M50.1,125.2v1.7h-4.2v1.7h3.8v1.6h-3.8v1.7h4.3v1.7H44v-8.4H50.1z"/>
	<path class="st2" d="M57.7,126c0.6,0.5,0.9,1.3,0.9,2.3s-0.3,1.8-0.9,2.3c-0.6,0.5-1.5,0.7-2.8,0.7h-1.1v2.3h-1.9v-8.4h3
		C56.2,125.2,57.1,125.5,57.7,126z M56.3,129.3c0.2-0.3,0.3-0.6,0.3-1.1s-0.1-0.8-0.4-1s-0.7-0.3-1.4-0.3h-1.1v2.8H55
		C55.7,129.6,56.1,129.5,56.3,129.3z"/>
	<path class="st2" d="M62.3,131.4c0.3,0.4,0.7,0.6,1.3,0.6c0.5,0,0.9-0.2,1.3-0.6c0.3-0.4,0.5-0.9,0.5-1.6v-4.6h1.9v4.7
		c0,1.2-0.3,2.2-1,2.8c-0.7,0.7-1.5,1-2.6,1c-1,0-1.9-0.3-2.6-1c-0.7-0.7-1-1.6-1-2.8v-4.7H62v4.6C61.8,130.5,62,131,62.3,131.4z"/>
	<path class="st2" d="M72.6,126.8v6.8h-1.9v-6.8h-2.4v-1.6H75v1.6H72.6z"/>
	<path class="st2" d="M81.7,133.6l-0.8-1.8h-3.5l-0.8,1.8h-2l3.6-8.4H80l3.6,8.4H81.7z M79.2,127.7l-1.1,2.4h2.1L79.2,127.7z"/>
	<path class="st2" d="M87.6,126.8v6.8h-1.9v-6.8h-2.4v-1.6H90v1.6H87.6z"/>
	<path class="st2" d="M91.4,125.2h1.9v8.4h-1.9V125.2z"/>
	<path class="st2" d="M102.4,132.4c-0.8,0.8-1.9,1.2-3.1,1.2s-2.3-0.4-3.1-1.2s-1.3-1.9-1.3-3.1c0-1.2,0.4-2.3,1.3-3.1
		s1.9-1.2,3.1-1.2s2.3,0.4,3.1,1.2c0.8,0.8,1.3,1.9,1.3,3.1C103.6,130.6,103.2,131.6,102.4,132.4z M101.7,129.4
		c0-0.7-0.2-1.4-0.7-1.9s-1.1-0.8-1.8-0.8s-1.3,0.3-1.8,0.8s-0.7,1.2-0.7,1.9s0.2,1.4,0.7,1.9s1.1,0.8,1.8,0.8s1.3-0.3,1.8-0.8
		C101.5,130.7,101.7,130.1,101.7,129.4z"/>
	<path class="st2" d="M111.1,125.2h1.9v8.4h-1.9l-4-5.3v5.3h-1.9v-8.4h1.8l4.1,5.4V125.2z"/>
</g>
</svg>
