<?xml version="1.0" encoding="utf-8"?>
<!-- Generator: Adobe Illustrator 23.0.3, SVG Export Plug-In . SVG Version: 6.00 Build 0)  -->
<svg version="1.1" id="Layer_6" xmlns="http://www.w3.org/2000/svg" xmlns:xlink="http://www.w3.org/1999/xlink" x="0px" y="0px"
	 viewBox="0 0 149 140" style="enable-background:new 0 0 149 140;" xml:space="preserve">
<style type="text/css">
	.st0{fill:url(#SVGID_1_);}
	.st1{fill:#FFFFFF;}
	.st2{fill:#F05027;}
</style>
<g id="Success_Insights">
	
		<linearGradient id="SVGID_1_" gradientUnits="userSpaceOnUse" x1="-2428.2534" y1="1124.3534" x2="-2363.8882" y2="1188.7186" gradientTransform="matrix(4.489700e-11 -1 1 4.489700e-11 -1082.4283 -2341.2285)">
		<stop  offset="3.605769e-04" style="stop-color:#F04F26"/>
		<stop  offset="0.3435" style="stop-color:#F36F28"/>
		<stop  offset="1" style="stop-color:#F5B62B"/>
	</linearGradient>
	<polygon class="st0" points="33.3,31.2 33.3,78.4 74.1,101.9 115,78.4 115,31.2 74.1,7.7 	"/>
	<g>
		<path class="st1" d="M77,54.5h-7.2c-0.7,0-1.2,0.6-1.2,1.2v15.5c0,0.7,0.6,1.2,1.2,1.2H77c0.7,0,1.2-0.6,1.2-1.2V55.7
			C78.2,55,77.6,54.5,77,54.5z"/>
		<path class="st1" d="M62.7,61.7h-7.2c-0.7,0-1.2,0.6-1.2,1.2v8.4c0,0.7,0.6,1.2,1.2,1.2h7.2c0.7,0,1.2-0.6,1.2-1.2v-8.5
			C63.8,62.2,63.3,61.7,62.7,61.7z"/>
		<path class="st1" d="M91.3,47.3h-7.2c-0.7,0-1.2,0.6-1.2,1.2v22.7c0,0.7,0.6,1.2,1.2,1.2h7.2c0.7,0,1.2-0.6,1.2-1.2V48.5
			C92.5,47.8,91.9,47.3,91.3,47.3z"/>
		<path class="st1" d="M73.4,48.5c0.3,0,0.6-0.1,0.8-0.3l9.9-9.9v5.4h2.4v-8.4c0-0.7-0.6-1.2-1.2-1.2H77v2.4h5.4l-9,9.1l-5.1-5.1
			c-0.4-0.4-1.2-0.4-1.7,0l-6,6l1.7,1.7l5.1-5.1l5.1,5.1C72.8,48.4,73.1,48.5,73.4,48.5z"/>
	</g>
</g>
<g>
	<path class="st2" d="M48.4,113.6c-0.2,0.1-0.3,0.3-0.3,0.6s0.1,0.4,0.3,0.6c0.2,0.1,0.7,0.3,1.5,0.5s1.4,0.5,1.9,0.9
		c0.4,0.4,0.7,1,0.7,1.7s-0.3,1.4-0.8,1.8c-0.6,0.5-1.3,0.7-2.2,0.7c-1.3,0-2.5-0.5-3.6-1.5l1.1-1.4c0.9,0.8,1.7,1.2,2.5,1.2
		c0.3,0,0.6-0.1,0.8-0.2c0.2-0.1,0.3-0.3,0.3-0.6s-0.1-0.5-0.3-0.6s-0.6-0.3-1.2-0.4c-1-0.2-1.7-0.5-2.1-0.9c-0.5-0.4-0.7-1-0.7-1.8
		s0.3-1.4,0.9-1.8c0.6-0.4,1.3-0.6,2.1-0.6c0.6,0,1.1,0.1,1.7,0.3c0.6,0.2,1,0.5,1.5,0.8l-0.9,1.4c-0.7-0.6-1.5-0.8-2.3-0.8
		C48.9,113.3,48.6,113.4,48.4,113.6z"/>
	<path class="st2" d="M56.4,118.1c0.3,0.4,0.7,0.6,1.3,0.6c0.5,0,0.9-0.2,1.3-0.6c0.3-0.4,0.5-0.9,0.5-1.6v-4.6h1.9v4.7
		c0,1.2-0.3,2.2-1,2.8c-0.7,0.7-1.5,1-2.6,1c-1,0-1.9-0.3-2.6-1c-0.7-0.7-1-1.6-1-2.8v-4.7h1.9v4.6C55.9,117.2,56,117.7,56.4,118.1z
		"/>
	<path class="st2" d="M67,118.6c0.9,0,1.7-0.4,2.3-1.1l1.2,1.2c-1,1.1-2.1,1.6-3.4,1.6s-2.4-0.4-3.2-1.2s-1.3-1.8-1.3-3.1
		c0-1.2,0.4-2.3,1.3-3.1s1.9-1.2,3.1-1.2c1.4,0,2.5,0.5,3.5,1.6l-1.2,1.3c-0.6-0.7-1.3-1.1-2.2-1.1c-0.7,0-1.3,0.2-1.8,0.7
		s-0.8,1.1-0.8,1.9s0.2,1.4,0.7,1.9C65.8,118.4,66.3,118.6,67,118.6z"/>
	<path class="st2" d="M75.8,118.6c0.9,0,1.7-0.4,2.3-1.1l1.2,1.2c-1,1.1-2.1,1.6-3.4,1.6s-2.4-0.4-3.2-1.2c-0.8-0.8-1.3-1.8-1.3-3.1
		c0-1.2,0.4-2.3,1.3-3.1s1.9-1.2,3.1-1.2c1.4,0,2.5,0.5,3.5,1.6l-1.2,1.3c-0.6-0.7-1.3-1.1-2.2-1.1c-0.7,0-1.3,0.2-1.8,0.7
		s-0.8,1.1-0.8,1.9s0.2,1.4,0.7,1.9C74.5,118.4,75.1,118.6,75.8,118.6z"/>
	<path class="st2" d="M86.8,111.9v1.7h-4.2v1.7h3.8v1.6h-3.8v1.7h4.3v1.7h-6.2v-8.4C80.7,111.9,86.8,111.9,86.8,111.9z"/>
	<path class="st2" d="M90.5,113.6c-0.2,0.1-0.3,0.3-0.3,0.6s0.1,0.4,0.3,0.6c0.2,0.1,0.7,0.3,1.5,0.5s1.4,0.5,1.9,0.9
		c0.4,0.4,0.7,1,0.7,1.7s-0.3,1.4-0.8,1.8c-0.6,0.5-1.3,0.7-2.2,0.7c-1.3,0-2.5-0.5-3.6-1.5l1.1-1.4c0.9,0.8,1.7,1.2,2.5,1.2
		c0.3,0,0.6-0.1,0.8-0.2c0.2-0.1,0.3-0.3,0.3-0.6s-0.1-0.5-0.3-0.6c-0.2-0.1-0.6-0.3-1.2-0.4c-1-0.2-1.7-0.5-2.1-0.9
		c-0.5-0.4-0.7-1-0.7-1.8s0.3-1.4,0.9-1.8s1.3-0.6,2.1-0.6c0.6,0,1.1,0.1,1.7,0.3s1,0.5,1.5,0.8l-0.9,1.4c-0.7-0.6-1.5-0.8-2.3-0.8
		C91,113.3,90.7,113.4,90.5,113.6z"/>
	<path class="st2" d="M98.2,113.6c-0.2,0.1-0.3,0.3-0.3,0.6s0.1,0.4,0.3,0.6c0.2,0.1,0.7,0.3,1.5,0.5s1.4,0.5,1.9,0.9
		c0.4,0.4,0.7,1,0.7,1.7s-0.3,1.4-0.8,1.8c-0.6,0.5-1.3,0.7-2.2,0.7c-1.3,0-2.5-0.5-3.6-1.5l1.1-1.4c0.9,0.8,1.7,1.2,2.5,1.2
		c0.3,0,0.6-0.1,0.8-0.2c0.2-0.1,0.3-0.3,0.3-0.6s-0.1-0.5-0.3-0.6c-0.2-0.1-0.6-0.3-1.2-0.4c-1-0.2-1.7-0.5-2.1-0.9
		c-0.5-0.4-0.7-1-0.7-1.8s0.3-1.4,0.9-1.8s1.3-0.6,2.1-0.6c0.6,0,1.1,0.1,1.7,0.3c0.6,0.2,1,0.5,1.5,0.8l-0.9,1.4
		c-0.7-0.6-1.5-0.8-2.3-0.8C98.6,113.3,98.4,113.4,98.2,113.6z"/>
	<path class="st2" d="M46,124.9h1.9v8.4H46V124.9z"/>
	<path class="st2" d="M55.8,124.9h1.9v8.4h-1.9l-4-5.3v5.3h-1.9v-8.4h1.8l4.1,5.4C55.8,130.3,55.8,124.9,55.8,124.9z"/>
	<path class="st2" d="M61.7,126.6c-0.2,0.1-0.3,0.3-0.3,0.6s0.1,0.4,0.3,0.6c0.2,0.1,0.7,0.3,1.5,0.5s1.4,0.5,1.9,0.9
		c0.4,0.4,0.7,1,0.7,1.7s-0.3,1.4-0.8,1.8c-0.6,0.5-1.3,0.7-2.2,0.7c-1.3,0-2.5-0.5-3.6-1.5l1.1-1.4c0.9,0.8,1.7,1.2,2.5,1.2
		c0.3,0,0.6-0.1,0.8-0.2c0.2-0.1,0.3-0.3,0.3-0.6s-0.1-0.5-0.3-0.6s-0.6-0.3-1.2-0.4c-1-0.2-1.7-0.5-2.1-0.9c-0.5-0.4-0.7-1-0.7-1.8
		s0.3-1.4,0.9-1.8c0.6-0.4,1.3-0.6,2.1-0.6c0.6,0,1.1,0.1,1.7,0.3s1,0.5,1.5,0.8l-0.9,1.4c-0.7-0.6-1.5-0.8-2.3-0.8
		C62.1,126.3,61.9,126.4,61.7,126.6z"/>
	<path class="st2" d="M67.4,124.9h1.9v8.4h-1.9V124.9z"/>
	<path class="st2" d="M76.8,129h1.9v3c-0.8,0.9-2,1.4-3.5,1.4c-1.2,0-2.3-0.4-3.1-1.2c-0.8-0.8-1.3-1.8-1.3-3.1s0.4-2.3,1.3-3.1
		s1.9-1.2,3.1-1.2s2.2,0.4,3.1,1.2l-1,1.4c-0.4-0.3-0.7-0.6-1-0.7c-0.3-0.1-0.7-0.2-1-0.2c-0.7,0-1.3,0.2-1.8,0.7s-0.7,1.1-0.7,1.9
		s0.2,1.4,0.7,1.9s1,0.7,1.7,0.7s1.2-0.1,1.6-0.4C76.8,131.3,76.8,129,76.8,129z"/>
	<path class="st2" d="M85.5,124.9h1.9v8.4h-1.9V130h-3.3v3.3h-1.9v-8.4h1.9v3.5h3.3V124.9z"/>
	<path class="st2" d="M93,126.5v6.8h-1.9v-6.8h-2.4v-1.6h6.6v1.6H93z"/>
	<path class="st2" d="M98.7,126.6c-0.2,0.1-0.3,0.3-0.3,0.6s0.1,0.4,0.3,0.6c0.2,0.1,0.7,0.3,1.5,0.5s1.4,0.5,1.9,0.9
		c0.4,0.4,0.7,1,0.7,1.7s-0.3,1.4-0.8,1.8c-0.6,0.5-1.3,0.7-2.2,0.7c-1.3,0-2.5-0.5-3.6-1.5l1.1-1.4c0.9,0.8,1.7,1.2,2.5,1.2
		c0.3,0,0.6-0.1,0.8-0.2c0.2-0.1,0.3-0.3,0.3-0.6s-0.1-0.5-0.3-0.6c-0.2-0.1-0.6-0.3-1.2-0.4c-1-0.2-1.7-0.5-2.1-0.9s-0.7-1-0.7-1.8
		s0.3-1.4,0.9-1.8c0.6-0.4,1.3-0.6,2.1-0.6c0.6,0,1.1,0.1,1.7,0.3s1,0.5,1.5,0.8l-0.9,1.4c-0.7-0.6-1.5-0.8-2.3-0.8
		C99.1,126.3,98.8,126.4,98.7,126.6z"/>
</g>
</svg>
