<?xml version="1.0" encoding="utf-8"?>
<!-- Generator: Adobe Illustrator 23.0.3, SVG Export Plug-In . SVG Version: 6.00 Build 0)  -->
<svg version="1.1" id="Layer_1" xmlns="http://www.w3.org/2000/svg" xmlns:xlink="http://www.w3.org/1999/xlink" x="0px" y="0px"
	 viewBox="0 0 149 140" style="enable-background:new 0 0 149 140;" xml:space="preserve">
<style type="text/css">
	.st0{fill:url(#SVGID_1_);}
	.st1{fill:#FFFFFF;}
	.st2{fill:#126DB5;}
</style>
<g id="Website_Engineering">
	
		<linearGradient id="SVGID_1_" gradientUnits="userSpaceOnUse" x1="-2427.6536" y1="1124.7534" x2="-2363.2883" y2="1189.1187" gradientTransform="matrix(4.489700e-11 -1 1 4.489700e-11 -1082.4283 -2341.2285)">
		<stop  offset="3.605769e-04" style="stop-color:#0E6CB6"/>
		<stop  offset="0.4511" style="stop-color:#108CB5"/>
		<stop  offset="1" style="stop-color:#02B9B6"/>
	</linearGradient>
	<polygon class="st0" points="33.7,30.6 33.7,77.8 74.5,101.3 115.4,77.8 115.4,30.6 74.5,7.1 	"/>
	<g>
		<path class="st1" d="M55.7,43.6c0-1.3,1.1-2.4,2.4-2.4h33c1.3,0,2.4,1.1,2.4,2.4v21.2h4.7V43.6c0-3.9-3.2-7.1-7.1-7.1h-33
			c-3.9,0-7.1,3.2-7.1,7.1v21.2h4.7C55.7,64.8,55.7,43.6,55.7,43.6z"/>
		<path class="st1" d="M46.3,64.8v1.8c0,2.9,3.2,5.3,7.1,5.3h42.4c3.9,0,7.1-2.4,7.1-5.3v-1.8H46.3z"/>
	</g>
</g>
<g>
	<path class="st2" d="M50.6,116.4l1.5-4.8h2l1.5,4.8l1.7-4.8h2l-2.9,8.4H55l-1.8-5.8l-1.8,5.8H50l-2.9-8.4h2L50.6,116.4z"/>
	<path class="st2" d="M66.3,111.6v1.7h-4.2v1.7h3.8v1.6h-3.8v1.7h4.3v1.7h-6.2v-8.4H66.3z"/>
	<path class="st2" d="M71.8,120h-3.7v-8.4h3.3c0.6,0,1.1,0.1,1.5,0.2s0.7,0.3,0.9,0.6c0.4,0.4,0.6,0.9,0.6,1.5
		c0,0.7-0.2,1.1-0.6,1.5c-0.1,0.1-0.2,0.2-0.3,0.2c-0.1,0-0.2,0.1-0.3,0.1c0.5,0.1,0.9,0.3,1.2,0.7c0.3,0.4,0.5,0.8,0.5,1.3
		c0,0.6-0.2,1.1-0.6,1.5C73.7,119.7,72.9,120,71.8,120z M70,115h0.9c0.5,0,0.9-0.1,1.2-0.2c0.3-0.1,0.4-0.4,0.4-0.7
		s-0.1-0.6-0.3-0.7s-0.6-0.2-1.2-0.2h-1V115z M70,118.4h1.3c0.5,0,0.9-0.1,1.2-0.2s0.4-0.4,0.4-0.8c0-0.4-0.1-0.6-0.4-0.8
		c-0.3-0.1-0.7-0.2-1.4-0.2H70V118.4z"/>
	<path class="st2" d="M78.3,113.3c-0.2,0.1-0.3,0.3-0.3,0.6s0.1,0.4,0.3,0.6c0.2,0.1,0.7,0.3,1.5,0.5s1.4,0.5,1.9,0.9
		c0.4,0.4,0.7,1,0.7,1.7s-0.3,1.4-0.8,1.8c-0.6,0.5-1.3,0.7-2.2,0.7c-1.3,0-2.5-0.5-3.6-1.5l1.1-1.4c0.9,0.8,1.7,1.2,2.5,1.2
		c0.3,0,0.6-0.1,0.8-0.2c0.2-0.1,0.3-0.3,0.3-0.6s-0.1-0.5-0.3-0.6c-0.2-0.1-0.6-0.3-1.2-0.4c-1-0.2-1.7-0.5-2.1-0.9
		c-0.5-0.4-0.7-1-0.7-1.8s0.3-1.4,0.9-1.8s1.3-0.6,2.1-0.6c0.6,0,1.1,0.1,1.7,0.3c0.6,0.2,1,0.5,1.5,0.8l-0.9,1.4
		c-0.7-0.6-1.5-0.8-2.3-0.8C78.7,113.1,78.5,113.1,78.3,113.3z"/>
	<path class="st2" d="M84,111.6h1.9v8.4H84V111.6z"/>
	<path class="st2" d="M91.5,113.2v6.8h-1.9v-6.8h-2.4v-1.6h6.6v1.6H91.5z"/>
	<path class="st2" d="M101.3,111.6v1.7h-4.2v1.7h3.8v1.6h-3.8v1.7h4.3v1.7h-6.2v-8.4H101.3z"/>
	<path class="st2" d="M36.9,127.7l-2.3,4.6h-1.1l-2.3-4.6v5.3h-1.9v-8.4h2.5l2.2,4.6l2.2-4.6h2.5v8.4h-1.9L36.9,127.7L36.9,127.7z"
		/>
	<path class="st2" d="M46.8,133l-0.8-1.8h-3.5l-0.8,1.8h-2l3.6-8.4h1.8l3.6,8.4H46.8z M44.3,127.1l-1.1,2.4h2.1L44.3,127.1z"/>
	<path class="st2" d="M55.6,124.6h1.9v8.4h-1.9l-4-5.3v5.3h-1.9v-8.4h1.8l4.1,5.4C55.6,130,55.6,124.6,55.6,124.6z"/>
	<path class="st2" d="M65.5,133l-0.8-1.8h-3.5l-0.8,1.8h-2l3.6-8.4h1.8l3.6,8.4H65.5z M63,127.1l-1.1,2.4H64L63,127.1z"/>
	<path class="st2" d="M73.9,128.7h1.9v3c-0.8,0.9-2,1.4-3.5,1.4c-1.2,0-2.3-0.4-3.1-1.2c-0.8-0.8-1.3-1.8-1.3-3.1
		c0-1.3,0.4-2.3,1.3-3.1s1.9-1.2,3.1-1.2s2.2,0.4,3.1,1.2l-1,1.4c-0.4-0.3-0.7-0.6-1-0.7s-0.7-0.2-1-0.2c-0.7,0-1.3,0.2-1.8,0.7
		s-0.7,1.1-0.7,1.9s0.2,1.4,0.7,1.9s1,0.7,1.7,0.7s1.2-0.1,1.6-0.4C73.9,131,73.9,128.7,73.9,128.7z"/>
	<path class="st2" d="M83.5,124.6v1.7h-4.2v1.7h3.8v1.6h-3.8v1.7h4.3v1.7h-6.2v-8.4H83.5z"/>
	<path class="st2" d="M92.9,127.7l-2.3,4.6h-1.1l-2.3-4.6v5.3h-1.9v-8.4h2.5l2.2,4.6l2.2-4.6h2.5v8.4h-1.9v-5.3H92.9z"/>
	<path class="st2" d="M102.8,124.6v1.7h-4.2v1.7h3.8v1.6h-3.8v1.7h4.3v1.7h-6.2v-8.4H102.8z"/>
	<path class="st2" d="M110.5,124.6h1.9v8.4h-1.9l-4-5.3v5.3h-1.9v-8.4h1.8l4.1,5.4V124.6z"/>
	<path class="st2" d="M118,126.2v6.8h-1.9v-6.8h-2.4v-1.6h6.6v1.6H118z"/>
</g>
</svg>
