<svg version="1.1" id="el_TnFkOJrd2" xmlns="http://www.w3.org/2000/svg" xmlns:xlink="http://www.w3.org/1999/xlink" x="0px" y="0px" viewBox="0 0 433 423" style="enable-background:new 0 0 433.7 423.1;" xml:space="preserve"><style>@-webkit-keyframes kf_el_2dOk267shth_an_uSoVnespS{0%{-webkit-transform: translate(111.29999923706055px, 303.3000030517578px) translate(-111.29999923706055px, -303.3000030517578px) translate(0px, 0px);transform: translate(111.29999923706055px, 303.3000030517578px) translate(-111.29999923706055px, -303.3000030517578px) translate(0px, 0px);}40.67%{-webkit-transform: translate(111.29999923706055px, 303.3000030517578px) translate(-111.29999923706055px, -303.3000030517578px) translate(0px, 0px);transform: translate(111.29999923706055px, 303.3000030517578px) translate(-111.29999923706055px, -303.3000030517578px) translate(0px, 0px);}47.33%{-webkit-transform: translate(111.29999923706055px, 303.3000030517578px) translate(-111.29999923706055px, -303.3000030517578px) translate(0px, -10px);transform: translate(111.29999923706055px, 303.3000030517578px) translate(-111.29999923706055px, -303.3000030517578px) translate(0px, -10px);}49.33%{-webkit-transform: translate(111.29999923706055px, 303.3000030517578px) translate(-111.29999923706055px, -303.3000030517578px) translate(0px, 0px);transform: translate(111.29999923706055px, 303.3000030517578px) translate(-111.29999923706055px, -303.3000030517578px) translate(0px, 0px);}100%{-webkit-transform: translate(111.29999923706055px, 303.3000030517578px) translate(-111.29999923706055px, -303.3000030517578px) translate(0px, 0px);transform: translate(111.29999923706055px, 303.3000030517578px) translate(-111.29999923706055px, -303.3000030517578px) translate(0px, 0px);}}@keyframes kf_el_2dOk267shth_an_uSoVnespS{0%{-webkit-transform: translate(111.29999923706055px, 303.3000030517578px) translate(-111.29999923706055px, -303.3000030517578px) translate(0px, 0px);transform: translate(111.29999923706055px, 303.3000030517578px) translate(-111.29999923706055px, -303.3000030517578px) translate(0px, 0px);}40.67%{-webkit-transform: translate(111.29999923706055px, 303.3000030517578px) translate(-111.29999923706055px, -303.3000030517578px) translate(0px, 0px);transform: translate(111.29999923706055px, 303.3000030517578px) translate(-111.29999923706055px, -303.3000030517578px) translate(0px, 0px);}47.33%{-webkit-transform: translate(111.29999923706055px, 303.3000030517578px) translate(-111.29999923706055px, -303.3000030517578px) translate(0px, -10px);transform: translate(111.29999923706055px, 303.3000030517578px) translate(-111.29999923706055px, -303.3000030517578px) translate(0px, -10px);}49.33%{-webkit-transform: translate(111.29999923706055px, 303.3000030517578px) translate(-111.29999923706055px, -303.3000030517578px) translate(0px, 0px);transform: translate(111.29999923706055px, 303.3000030517578px) translate(-111.29999923706055px, -303.3000030517578px) translate(0px, 0px);}100%{-webkit-transform: translate(111.29999923706055px, 303.3000030517578px) translate(-111.29999923706055px, -303.3000030517578px) translate(0px, 0px);transform: translate(111.29999923706055px, 303.3000030517578px) translate(-111.29999923706055px, -303.3000030517578px) translate(0px, 0px);}}@-webkit-keyframes kf_el_WLzUKh5wmUp_an_BBOqq_-MY{0%{-webkit-transform: translate(305.1999969482422px, 117.44999694824219px) scale(0, 0) translate(-305.1999969482422px, -117.44999694824219px);transform: translate(305.1999969482422px, 117.44999694824219px) scale(0, 0) translate(-305.1999969482422px, -117.44999694824219px);}30.67%{-webkit-transform: translate(305.1999969482422px, 117.44999694824219px) scale(0, 0) translate(-305.1999969482422px, -117.44999694824219px);transform: translate(305.1999969482422px, 117.44999694824219px) scale(0, 0) translate(-305.1999969482422px, -117.44999694824219px);}40%{-webkit-transform: translate(305.1999969482422px, 117.44999694824219px) scale(1.1, 1.1) translate(-305.1999969482422px, -117.44999694824219px);transform: translate(305.1999969482422px, 117.44999694824219px) scale(1.1, 1.1) translate(-305.1999969482422px, -117.44999694824219px);}40.67%{-webkit-transform: translate(305.1999969482422px, 117.44999694824219px) scale(1, 1) translate(-305.1999969482422px, -117.44999694824219px);transform: translate(305.1999969482422px, 117.44999694824219px) scale(1, 1) translate(-305.1999969482422px, -117.44999694824219px);}100%{-webkit-transform: translate(305.1999969482422px, 117.44999694824219px) scale(1, 1) translate(-305.1999969482422px, -117.44999694824219px);transform: translate(305.1999969482422px, 117.44999694824219px) scale(1, 1) translate(-305.1999969482422px, -117.44999694824219px);}}@keyframes kf_el_WLzUKh5wmUp_an_BBOqq_-MY{0%{-webkit-transform: translate(305.1999969482422px, 117.44999694824219px) scale(0, 0) translate(-305.1999969482422px, -117.44999694824219px);transform: translate(305.1999969482422px, 117.44999694824219px) scale(0, 0) translate(-305.1999969482422px, -117.44999694824219px);}30.67%{-webkit-transform: translate(305.1999969482422px, 117.44999694824219px) scale(0, 0) translate(-305.1999969482422px, -117.44999694824219px);transform: translate(305.1999969482422px, 117.44999694824219px) scale(0, 0) translate(-305.1999969482422px, -117.44999694824219px);}40%{-webkit-transform: translate(305.1999969482422px, 117.44999694824219px) scale(1.1, 1.1) translate(-305.1999969482422px, -117.44999694824219px);transform: translate(305.1999969482422px, 117.44999694824219px) scale(1.1, 1.1) translate(-305.1999969482422px, -117.44999694824219px);}40.67%{-webkit-transform: translate(305.1999969482422px, 117.44999694824219px) scale(1, 1) translate(-305.1999969482422px, -117.44999694824219px);transform: translate(305.1999969482422px, 117.44999694824219px) scale(1, 1) translate(-305.1999969482422px, -117.44999694824219px);}100%{-webkit-transform: translate(305.1999969482422px, 117.44999694824219px) scale(1, 1) translate(-305.1999969482422px, -117.44999694824219px);transform: translate(305.1999969482422px, 117.44999694824219px) scale(1, 1) translate(-305.1999969482422px, -117.44999694824219px);}}@-webkit-keyframes kf_el_vYoBbHHTwW1_an_MtBGHf3nV{0%{-webkit-transform: translate(136.05000686645508px, 135.99999237060547px) scale(0, 0) translate(-136.05000686645508px, -135.99999237060547px);transform: translate(136.05000686645508px, 135.99999237060547px) scale(0, 0) translate(-136.05000686645508px, -135.99999237060547px);}20.67%{-webkit-transform: translate(136.05000686645508px, 135.99999237060547px) scale(0, 0) translate(-136.05000686645508px, -135.99999237060547px);transform: translate(136.05000686645508px, 135.99999237060547px) scale(0, 0) translate(-136.05000686645508px, -135.99999237060547px);}30%{-webkit-transform: translate(136.05000686645508px, 135.99999237060547px) scale(1.1, 1.1) translate(-136.05000686645508px, -135.99999237060547px);transform: translate(136.05000686645508px, 135.99999237060547px) scale(1.1, 1.1) translate(-136.05000686645508px, -135.99999237060547px);}30.67%{-webkit-transform: translate(136.05000686645508px, 135.99999237060547px) scale(1, 1) translate(-136.05000686645508px, -135.99999237060547px);transform: translate(136.05000686645508px, 135.99999237060547px) scale(1, 1) translate(-136.05000686645508px, -135.99999237060547px);}100%{-webkit-transform: translate(136.05000686645508px, 135.99999237060547px) scale(1, 1) translate(-136.05000686645508px, -135.99999237060547px);transform: translate(136.05000686645508px, 135.99999237060547px) scale(1, 1) translate(-136.05000686645508px, -135.99999237060547px);}}@keyframes kf_el_vYoBbHHTwW1_an_MtBGHf3nV{0%{-webkit-transform: translate(136.05000686645508px, 135.99999237060547px) scale(0, 0) translate(-136.05000686645508px, -135.99999237060547px);transform: translate(136.05000686645508px, 135.99999237060547px) scale(0, 0) translate(-136.05000686645508px, -135.99999237060547px);}20.67%{-webkit-transform: translate(136.05000686645508px, 135.99999237060547px) scale(0, 0) translate(-136.05000686645508px, -135.99999237060547px);transform: translate(136.05000686645508px, 135.99999237060547px) scale(0, 0) translate(-136.05000686645508px, -135.99999237060547px);}30%{-webkit-transform: translate(136.05000686645508px, 135.99999237060547px) scale(1.1, 1.1) translate(-136.05000686645508px, -135.99999237060547px);transform: translate(136.05000686645508px, 135.99999237060547px) scale(1.1, 1.1) translate(-136.05000686645508px, -135.99999237060547px);}30.67%{-webkit-transform: translate(136.05000686645508px, 135.99999237060547px) scale(1, 1) translate(-136.05000686645508px, -135.99999237060547px);transform: translate(136.05000686645508px, 135.99999237060547px) scale(1, 1) translate(-136.05000686645508px, -135.99999237060547px);}100%{-webkit-transform: translate(136.05000686645508px, 135.99999237060547px) scale(1, 1) translate(-136.05000686645508px, -135.99999237060547px);transform: translate(136.05000686645508px, 135.99999237060547px) scale(1, 1) translate(-136.05000686645508px, -135.99999237060547px);}}@-webkit-keyframes kf_el_fZ1aKGVaWI5_an__PYSfrCNm{0%{-webkit-transform: translate(279.6499938964844px, 203.8000030517578px) scale(0, 0) translate(-279.6499938964844px, -203.8000030517578px);transform: translate(279.6499938964844px, 203.8000030517578px) scale(0, 0) translate(-279.6499938964844px, -203.8000030517578px);}10.67%{-webkit-transform: translate(279.6499938964844px, 203.8000030517578px) scale(0, 0) translate(-279.6499938964844px, -203.8000030517578px);transform: translate(279.6499938964844px, 203.8000030517578px) scale(0, 0) translate(-279.6499938964844px, -203.8000030517578px);}20%{-webkit-transform: translate(279.6499938964844px, 203.8000030517578px) scale(1.1, 1.1) translate(-279.6499938964844px, -203.8000030517578px);transform: translate(279.6499938964844px, 203.8000030517578px) scale(1.1, 1.1) translate(-279.6499938964844px, -203.8000030517578px);}20.67%{-webkit-transform: translate(279.6499938964844px, 203.8000030517578px) scale(1, 1) translate(-279.6499938964844px, -203.8000030517578px);transform: translate(279.6499938964844px, 203.8000030517578px) scale(1, 1) translate(-279.6499938964844px, -203.8000030517578px);}100%{-webkit-transform: translate(279.6499938964844px, 203.8000030517578px) scale(1, 1) translate(-279.6499938964844px, -203.8000030517578px);transform: translate(279.6499938964844px, 203.8000030517578px) scale(1, 1) translate(-279.6499938964844px, -203.8000030517578px);}}@keyframes kf_el_fZ1aKGVaWI5_an__PYSfrCNm{0%{-webkit-transform: translate(279.6499938964844px, 203.8000030517578px) scale(0, 0) translate(-279.6499938964844px, -203.8000030517578px);transform: translate(279.6499938964844px, 203.8000030517578px) scale(0, 0) translate(-279.6499938964844px, -203.8000030517578px);}10.67%{-webkit-transform: translate(279.6499938964844px, 203.8000030517578px) scale(0, 0) translate(-279.6499938964844px, -203.8000030517578px);transform: translate(279.6499938964844px, 203.8000030517578px) scale(0, 0) translate(-279.6499938964844px, -203.8000030517578px);}20%{-webkit-transform: translate(279.6499938964844px, 203.8000030517578px) scale(1.1, 1.1) translate(-279.6499938964844px, -203.8000030517578px);transform: translate(279.6499938964844px, 203.8000030517578px) scale(1.1, 1.1) translate(-279.6499938964844px, -203.8000030517578px);}20.67%{-webkit-transform: translate(279.6499938964844px, 203.8000030517578px) scale(1, 1) translate(-279.6499938964844px, -203.8000030517578px);transform: translate(279.6499938964844px, 203.8000030517578px) scale(1, 1) translate(-279.6499938964844px, -203.8000030517578px);}100%{-webkit-transform: translate(279.6499938964844px, 203.8000030517578px) scale(1, 1) translate(-279.6499938964844px, -203.8000030517578px);transform: translate(279.6499938964844px, 203.8000030517578px) scale(1, 1) translate(-279.6499938964844px, -203.8000030517578px);}}@-webkit-keyframes kf_el_whvUgdJIE2G_an_LrmTofbc1{0%{-webkit-transform: translate(128.89999771118164px, 222.9499969482422px) scale(0, 0) translate(-128.89999771118164px, -222.9499969482422px);transform: translate(128.89999771118164px, 222.9499969482422px) scale(0, 0) translate(-128.89999771118164px, -222.9499969482422px);}10%{-webkit-transform: translate(128.89999771118164px, 222.9499969482422px) scale(1.1, 1.1) translate(-128.89999771118164px, -222.9499969482422px);transform: translate(128.89999771118164px, 222.9499969482422px) scale(1.1, 1.1) translate(-128.89999771118164px, -222.9499969482422px);}10.67%{-webkit-transform: translate(128.89999771118164px, 222.9499969482422px) scale(1, 1) translate(-128.89999771118164px, -222.9499969482422px);transform: translate(128.89999771118164px, 222.9499969482422px) scale(1, 1) translate(-128.89999771118164px, -222.9499969482422px);}100%{-webkit-transform: translate(128.89999771118164px, 222.9499969482422px) scale(1, 1) translate(-128.89999771118164px, -222.9499969482422px);transform: translate(128.89999771118164px, 222.9499969482422px) scale(1, 1) translate(-128.89999771118164px, -222.9499969482422px);}}@keyframes kf_el_whvUgdJIE2G_an_LrmTofbc1{0%{-webkit-transform: translate(128.89999771118164px, 222.9499969482422px) scale(0, 0) translate(-128.89999771118164px, -222.9499969482422px);transform: translate(128.89999771118164px, 222.9499969482422px) scale(0, 0) translate(-128.89999771118164px, -222.9499969482422px);}10%{-webkit-transform: translate(128.89999771118164px, 222.9499969482422px) scale(1.1, 1.1) translate(-128.89999771118164px, -222.9499969482422px);transform: translate(128.89999771118164px, 222.9499969482422px) scale(1.1, 1.1) translate(-128.89999771118164px, -222.9499969482422px);}10.67%{-webkit-transform: translate(128.89999771118164px, 222.9499969482422px) scale(1, 1) translate(-128.89999771118164px, -222.9499969482422px);transform: translate(128.89999771118164px, 222.9499969482422px) scale(1, 1) translate(-128.89999771118164px, -222.9499969482422px);}100%{-webkit-transform: translate(128.89999771118164px, 222.9499969482422px) scale(1, 1) translate(-128.89999771118164px, -222.9499969482422px);transform: translate(128.89999771118164px, 222.9499969482422px) scale(1, 1) translate(-128.89999771118164px, -222.9499969482422px);}}@-webkit-keyframes kf_el__p3eEsOrTZ__an_SmgnP3-Cln{0%{stroke-dasharray: 202.57;}100%{stroke-dasharray: 202.57;}}@keyframes kf_el__p3eEsOrTZ__an_SmgnP3-Cln{0%{stroke-dasharray: 202.57;}100%{stroke-dasharray: 202.57;}}@-webkit-keyframes kf_el__p3eEsOrTZ__an_VlB3JvYA7{0%{stroke-dashoffset: 202.57;}26.67%{stroke-dashoffset: 0;}100%{stroke-dashoffset: 0;}}@keyframes kf_el__p3eEsOrTZ__an_VlB3JvYA7{0%{stroke-dashoffset: 202.57;}26.67%{stroke-dashoffset: 0;}100%{stroke-dashoffset: 0;}}@-webkit-keyframes kf_el_13LxgfKhWma_an_XT4BoyittO{0%{stroke-dasharray: 177.24;}100%{stroke-dasharray: 177.24;}}@keyframes kf_el_13LxgfKhWma_an_XT4BoyittO{0%{stroke-dasharray: 177.24;}100%{stroke-dasharray: 177.24;}}@-webkit-keyframes kf_el_13LxgfKhWma_an_a8Ht0qGow{0%{stroke-dashoffset: 177.24;}20%{stroke-dashoffset: 0;}100%{stroke-dashoffset: 0;}}@keyframes kf_el_13LxgfKhWma_an_a8Ht0qGow{0%{stroke-dashoffset: 177.24;}20%{stroke-dashoffset: 0;}100%{stroke-dashoffset: 0;}}#el_TnFkOJrd2 *{-webkit-animation-duration: 5s;animation-duration: 5s;-webkit-animation-iteration-count: infinite;animation-iteration-count: infinite;-webkit-animation-timing-function: cubic-bezier(0, 0, 1, 1);animation-timing-function: cubic-bezier(0, 0, 1, 1);}#el_rSxvJ8sl4Z{fill: #ABA4B0;}#el_23eTyf5sqI{fill: #ABA4B0;}#el_7PaQrv_Pqj{fill: #ABA4B0;}#el_rZ2Wt0EqhR{fill: #ABA4B0;}#el_PdOuCELxao{fill: #ABA4B0;}#el_x33HU44JVK{fill: #ABA4B0;}#el_YhVkHWoMsY{enable-background: new;}#el_JUPC0iW0j5P{fill: #ABA4B0;}#el_ESTbCPT3Wvb{fill: #ABA4B0;}#el_B09ESUJ320x{fill: #ABA4B0;}#el_q_MVjkYMqre{fill: #ABA4B0;}#el__b9bZxmzIvs{fill: #ABA4B0;}#el_p5yiKRNn9OA{fill: #ABA4B0;}#el__p3eEsOrTZ_{fill: none;stroke: #6A53A3;stroke-miterlimit: 10;-webkit-animation-fill-mode: backwards, backwards;animation-fill-mode: backwards, backwards;stroke-dashoffset: 202.57;-webkit-animation-name: kf_el__p3eEsOrTZ__an_VlB3JvYA7, kf_el__p3eEsOrTZ__an_SmgnP3-Cln;animation-name: kf_el__p3eEsOrTZ__an_VlB3JvYA7, kf_el__p3eEsOrTZ__an_SmgnP3-Cln;-webkit-animation-timing-function: cubic-bezier(0, 0, 1, 1), cubic-bezier(0, 0, 1, 1);animation-timing-function: cubic-bezier(0, 0, 1, 1), cubic-bezier(0, 0, 1, 1);stroke-dasharray: 202.57;}#el_13LxgfKhWma{fill: none;stroke: #A5509F;stroke-miterlimit: 10;-webkit-animation-fill-mode: backwards, backwards;animation-fill-mode: backwards, backwards;stroke-dashoffset: 177.24;-webkit-animation-name: kf_el_13LxgfKhWma_an_a8Ht0qGow, kf_el_13LxgfKhWma_an_XT4BoyittO;animation-name: kf_el_13LxgfKhWma_an_a8Ht0qGow, kf_el_13LxgfKhWma_an_XT4BoyittO;-webkit-animation-timing-function: cubic-bezier(0, 0, 0.58, 1), cubic-bezier(0, 0, 0.58, 1);animation-timing-function: cubic-bezier(0, 0, 0.58, 1), cubic-bezier(0, 0, 0.58, 1);stroke-dasharray: 177.24;}#el_jAmqVpcsVH_{fill: #2C3B51;}#el_4LMuwvEfRQF{fill: #A5509F;}#el_8VwJ4pYOfwF{fill: url(#SVGID_1_);}#el_9WI5IFPyIF7{opacity: 0.15;}#el_PS-njIxi1rP{opacity: 0;fill: #FFFFFF;}#el_bo4RV2mJE5e{opacity: 2.439000e-02;fill: #FFFFFF;}#el_KS7etPRpB1y{opacity: 4.878000e-02;fill: #FFFFFF;}#el_YfVmLnhwqlO{opacity: 7.317100e-02;fill: #FFFFFF;}#el_NXLZBZFhbMI{opacity: 9.756100e-02;fill: #FFFFFF;}#el_wjQMnQwCT9O{opacity: 0.122;fill: #FFFFFF;}#el_1fY_W-wcV55{opacity: 0.1463;fill: #FFFFFF;}#el_0QeE59gg4cQ{opacity: 0.1707;fill: #FFFFFF;}#el_XUoL9uRPk7F{opacity: 0.1951;fill: #FFFFFF;}#el_fJg8zHqe9Kb{opacity: 0.2195;fill: #FFFFFF;}#el_setQdR7goeH{opacity: 0.2439;fill: #FFFFFF;}#el_0lkEejhY8MK{opacity: 0.2683;fill: #FFFFFF;}#el_SCcowy6Lu3W{opacity: 0.2927;fill: #FFFFFF;}#el_c8CXnno_iRS{opacity: 0.3171;fill: #FFFFFF;}#el_vkqrw99Cv6S{opacity: 0.3415;fill: #FFFFFF;}#el_UlY1-GbLlo_{opacity: 0.3659;fill: #FFFFFF;}#el_CnFp4ay2W6p{opacity: 0.3902;fill: #FFFFFF;}#el_tAwTA3KeCOB{opacity: 0.4146;fill: #FFFFFF;}#el_49YdRUHBiZC{opacity: 0.439;fill: #FFFFFF;}#el_s7155wbQBc_{opacity: 0.4634;fill: #FFFFFF;}#el_tl5prujtJSD{opacity: 0.4878;fill: #FFFFFF;}#el_zXrkLLKZ7XH{opacity: 0.5122;fill: #FFFFFF;}#el_jhHZg9lj6rb{opacity: 0.5366;fill: #FFFFFF;}#el_0BFLlO5iv7m{opacity: 0.561;fill: #FFFFFF;}#el_i7zdGFpcn-E{opacity: 0.5854;fill: #FFFFFF;}#el_0UQp5NfIfE6{opacity: 0.6098;fill: #FFFFFF;}#el_I-6Y0RdH3zB{opacity: 0.6341;fill: #FFFFFF;}#el_tqp-6sCJbXl{opacity: 0.6585;fill: #FFFFFF;}#el_QthiiCSeonr{opacity: 0.6829;fill: #FFFFFF;}#el_RNysytXZ6Tt{opacity: 0.7073;fill: #FFFFFF;}#el_6XuqkSLG2nZ{opacity: 0.7317;fill: #FFFFFF;}#el_wwojP2w8trz{opacity: 0.7561;fill: #FFFFFF;}#el_iJinz1CHj4r{opacity: 0.7805;fill: #FFFFFF;}#el_NudURwkHeAy{opacity: 0.8049;fill: #FFFFFF;}#el_QBSt2uXKQyu{opacity: 0.8293;fill: #FFFFFF;}#el_bANcRcImvg8{opacity: 0.8537;fill: #FFFFFF;}#el_pdcTlncHK5L{opacity: 0.878;fill: #FFFFFF;}#el_udh7pJGH6LP{opacity: 0.9024;fill: #FFFFFF;}#el_KgxWAJ02R5c{opacity: 0.9268;fill: #FFFFFF;}#el_ltnPbEz7OvY{opacity: 0.9512;fill: #FFFFFF;}#el_Ucs7GMZBbA7{opacity: 0.9756;fill: #FFFFFF;}#el_fJcfgoT_Z_P{fill: #FFFFFF;}#el_kz5LnbFFNhO{opacity: 5.000000e-02;}#el_dyqHlrnSHgh{-webkit-clip-path: url(#SVGID_2_);clip-path: url(#SVGID_2_);fill: #F2EBF7;-webkit-transform: matrix(0.9962, -8.755702e-02, 8.755702e-02, 0.9962, -10.8697, 19.1342);transform: matrix(0.9962, -8.755702e-02, 8.755702e-02, 0.9962, -10.8697, 19.1342);}#el_ccv-dhXK4ua{-webkit-clip-path: url(#SVGID_2_);clip-path: url(#SVGID_2_);fill: #F2EBF7;-webkit-transform: matrix(0.9962, -8.755702e-02, 8.755702e-02, 0.9962, -9.2742, 18.8353);transform: matrix(0.9962, -8.755702e-02, 8.755702e-02, 0.9962, -9.2742, 18.8353);}#el_Xt1NuYpE1dc{-webkit-clip-path: url(#SVGID_2_);clip-path: url(#SVGID_2_);fill: #F2EBF7;-webkit-transform: matrix(0.9962, -8.755702e-02, 8.755702e-02, 0.9962, -13.7245, 19.4884);transform: matrix(0.9962, -8.755702e-02, 8.755702e-02, 0.9962, -13.7245, 19.4884);}#el_Oj-lCluNLSM{fill: #F2EBF7;}#el_37zi6nV53tc{fill: #6A53A3;}#el_ZYG2wxqcrg6{fill: #A5509F;}#el_kM5C4kNZDjF{fill: #A5509F;}#el_Ajo7dfLWvxw{fill: #A5509F;}#el_7yIqrINpTVZ{fill: #A5509F;}#el_yfOEhIeouwO{fill: #6A53A3;}#el_E_Yj925MWzW{fill: #FFFFFF;}#el_mdUWxyiuHfm{fill: #F2EBF7;}#el_DUTw2-2DoX4{fill: #6A53A3;}#el_DRjjhBz1_Ia{fill: #6A53A3;}#el_SB6GkNZmF6Q{fill: #A5509F;}#el_rrF0hcj_sjN{fill: #A5509F;}#el_jyyb4z1udA3{fill: #A5509F;}#el_QQiUpNMHbuQ{fill: #A5509F;}#el_fyDOouTTXF5{fill: #A5509F;}#el_dGT3obwD7ZP{fill: #6A53A3;}#el_VHq6Oq0oAWl{fill: #6A53A3;}#el_MQOK22HQy4e{fill: #6A53A3;}#el_Vm368jiYawI{fill: #6A53A3;}#el_I37sXvCQXVq{fill: #F2EBF7;}#el_w4e7UuRchwb{fill: #6A53A3;}#el_n7Zf352OA0E{fill: #A5509F;}#el_jj3c5uVMDBC{fill: #A5509F;}#el_84h3tXWmfc8{fill: #A5509F;}#el_ZCVoFf18za9{fill: #A5509F;}#el_xHwEE2zxOFn{fill: #F2EBF7;}#el_ej7r6ANLsRG{fill: #6A53A3;}#el_oSaFKrOWv1G{fill: #6A53A3;}#el_cCyzvrPCued{fill: #A5509F;}#el_HtizmYMxvSW{fill: #A5509F;}#el_x7W5R6nFfnh{fill: #A5509F;}#el_vsg3Qp4cWNg{fill: #A5509F;}#el_4Eb92Ll7AY9{fill: #A5509F;}#el_1KlzuxbaoPY{fill: #6A53A3;}#el_xuSAa6MOu5F{fill: #6A53A3;}#el_jYztTo6M7Uw{fill: #6A53A3;}#el_AvVZ-d8fU-7{fill: #6A53A3;}#el__av6-3m5gxL{fill: url(#SVGID_3_);}#el_c8JoXWhzaNg{fill: #FFFFFF;}#el_6brUD0mzSxN{fill: #FFFFFF;}#el_DaT6v73p0hT{fill: #202227;}#el_pYV82LI2S8I{fill: #202227;}#el_ExQ48J4u7Fs{fill: #202227;}#el_iww_WlFPF5L{fill: #202227;}#el_VEerRnMu7hv{fill: #202227;}#el_whvUgdJIE2G_an_LrmTofbc1{-webkit-animation-fill-mode: backwards;animation-fill-mode: backwards;-webkit-transform: translate(128.89999771118164px, 222.9499969482422px) scale(0, 0) translate(-128.89999771118164px, -222.9499969482422px);transform: translate(128.89999771118164px, 222.9499969482422px) scale(0, 0) translate(-128.89999771118164px, -222.9499969482422px);-webkit-animation-name: kf_el_whvUgdJIE2G_an_LrmTofbc1;animation-name: kf_el_whvUgdJIE2G_an_LrmTofbc1;-webkit-animation-timing-function: cubic-bezier(0, 0, 0.58, 1);animation-timing-function: cubic-bezier(0, 0, 0.58, 1);}#el_fZ1aKGVaWI5_an__PYSfrCNm{-webkit-animation-fill-mode: backwards;animation-fill-mode: backwards;-webkit-transform: translate(279.6499938964844px, 203.8000030517578px) scale(0, 0) translate(-279.6499938964844px, -203.8000030517578px);transform: translate(279.6499938964844px, 203.8000030517578px) scale(0, 0) translate(-279.6499938964844px, -203.8000030517578px);-webkit-animation-name: kf_el_fZ1aKGVaWI5_an__PYSfrCNm;animation-name: kf_el_fZ1aKGVaWI5_an__PYSfrCNm;-webkit-animation-timing-function: cubic-bezier(0, 0, 0.58, 1);animation-timing-function: cubic-bezier(0, 0, 0.58, 1);}#el_vYoBbHHTwW1_an_MtBGHf3nV{-webkit-animation-fill-mode: backwards;animation-fill-mode: backwards;-webkit-transform: translate(136.05000686645508px, 135.99999237060547px) scale(0, 0) translate(-136.05000686645508px, -135.99999237060547px);transform: translate(136.05000686645508px, 135.99999237060547px) scale(0, 0) translate(-136.05000686645508px, -135.99999237060547px);-webkit-animation-name: kf_el_vYoBbHHTwW1_an_MtBGHf3nV;animation-name: kf_el_vYoBbHHTwW1_an_MtBGHf3nV;-webkit-animation-timing-function: cubic-bezier(0, 0, 0.58, 1);animation-timing-function: cubic-bezier(0, 0, 0.58, 1);}#el_WLzUKh5wmUp_an_BBOqq_-MY{-webkit-animation-fill-mode: backwards;animation-fill-mode: backwards;-webkit-transform: translate(305.1999969482422px, 117.44999694824219px) scale(0, 0) translate(-305.1999969482422px, -117.44999694824219px);transform: translate(305.1999969482422px, 117.44999694824219px) scale(0, 0) translate(-305.1999969482422px, -117.44999694824219px);-webkit-animation-name: kf_el_WLzUKh5wmUp_an_BBOqq_-MY;animation-name: kf_el_WLzUKh5wmUp_an_BBOqq_-MY;-webkit-animation-timing-function: cubic-bezier(0, 0, 0.58, 1);animation-timing-function: cubic-bezier(0, 0, 0.58, 1);}#el_2dOk267shth_an_uSoVnespS{-webkit-animation-fill-mode: backwards;animation-fill-mode: backwards;-webkit-transform: translate(111.29999923706055px, 303.3000030517578px) translate(-111.29999923706055px, -303.3000030517578px) translate(0px, 0px);transform: translate(111.29999923706055px, 303.3000030517578px) translate(-111.29999923706055px, -303.3000030517578px) translate(0px, 0px);-webkit-animation-name: kf_el_2dOk267shth_an_uSoVnespS;animation-name: kf_el_2dOk267shth_an_uSoVnespS;-webkit-animation-timing-function: cubic-bezier(0, 0, 0.58, 1);animation-timing-function: cubic-bezier(0, 0, 0.58, 1);}</style>

<g id="el_Cx0aLs5yp0">
	<g id="el_SokpUvu7Ok">
		<polygon points="210.5,290.6 210.6,290.7 202.6,297.4 202.4,297.3 &#9;&#9;" id="el_rSxvJ8sl4Z"/>
	</g>
	<g id="el_8Wk6yoFj8E">
		<polygon points="333.8,308.6 334.1,308.5 319.5,320.8 319.3,320.8 &#9;&#9;" id="el_23eTyf5sqI"/>
	</g>
	<g id="el_P0w2QHOZHp">
		<polygon points="275,317.7 258.6,331.6 258.4,331.5 274.8,317.7 &#9;&#9;" id="el_7PaQrv_Pqj"/>
	</g>
	<g id="el_augGpzNBnU">
		<polygon points="285.9,308.3 286,308.4 275.6,317.2 275.4,317.1 &#9;&#9;" id="el_rZ2Wt0EqhR"/>
	</g>
	<g id="el_izFd5Lwblx">
		<polygon points="244,303 244.2,303 234.9,310.9 234.7,310.8 &#9;&#9;" id="el_PdOuCELxao"/>
	</g>
	<g id="el_r3r3S3GKNI">
		<polygon points="202,297.9 193.1,305.5 192.9,305.4 201.8,297.9 &#9;&#9;" id="el_x33HU44JVK"/>
	</g>
	<g id="el_YhVkHWoMsY">
		<g id="el_uXKVWPIS1d">
			<polygon points="248.1,259 211.2,290.2 211.1,290.1 247.9,259 &#9;&#9;&#9;" id="el_JUPC0iW0j5P"/>
		</g>
		<g id="el_kPV5ln45qZ_">
			<polygon points="280.7,272 280.9,272.1 244.8,302.5 244.6,302.5 &#9;&#9;&#9;" id="el_ESTbCPT3Wvb"/>
		</g>
		<g id="el_4AdVOYZ-fw1">
			<polygon points="313.6,285.1 286.6,307.9 286.5,307.8 313.4,285.1 &#9;&#9;&#9;" id="el_B09ESUJ320x"/>
		</g>
		<g id="el_XLWXwil41k7">
			<polygon points="318.9,321.3 291.3,344.6 291.2,344.6 318.7,321.3 &#9;&#9;&#9;" id="el_q_MVjkYMqre"/>
		</g>
	</g>
	<g id="el_KIeTqZrC7oL">
		<polygon points="346.2,298.1 346.4,298.2 335,307.8 334.7,307.8 &#9;&#9;" id="el__b9bZxmzIvs"/>
	</g>
	<g id="el_2jxseMZ23u3">
		<polygon points="234.3,311.4 225.8,318.5 225.6,318.5 234.1,311.3 &#9;&#9;" id="el_p5yiKRNn9OA"/>
	</g>
</g>
<polyline id="el__p3eEsOrTZ_" points="162,293 284.9,307.9 318.7,321.3 360.7,327.2 "/>
<polyline id="el_13LxgfKhWma" points="171.6,285.3 211,290 234.3,311.4 278.1,318.2 338.8,307.7 "/>
<g id="el_Wsy_eYCizpC">
	<g id="el_oSeS9IJ1UTO">
		<path id="el_jAmqVpcsVH_" d="M245.3,308.3h-94.2c-10.6,0-19.2-8.6-19.2-19.2L162,68.8c0-7,5.7-12.6,12.6-12.6h92&#xA;&#9;&#9;&#9;c11.8,0,21.4,9.6,21.4,21.4l-30.2,218.1C257,302.8,252.3,308.3,245.3,308.3z"/>
		<path id="el_4LMuwvEfRQF" d="M240.7,303.3h-96c-7,0-12.6-5.7-12.6-12.6l30.2-221.8c0-7,5.7-12.6,12.6-12.6h96&#xA;&#9;&#9;&#9;c7,0,12.6,5.7,12.6,12.6l-30.2,221.8C251.9,297.4,247.7,303.3,240.7,303.3z"/>
		<linearGradient id="SVGID_1_" gradientUnits="userSpaceOnUse" x1="137.2771" y1="295.9775" x2="278.3366" y2="62.289">
			<stop offset="3.605769e-04" style="stop-color:#6A52A2"/>
			<stop offset="0.5806" style="stop-color:#8B51A0"/>
			<stop offset="1" style="stop-color:#A5509F"/>
		</linearGradient>
		<path d="M144.6,302.4c-6.4,0-11.7-5.2-11.7-11.6L163.1,69v-0.1c0-6.4,5.2-11.7,11.7-11.7h96c6.4,0,11.7,5.2,11.7,11.6&#xA;&#9;&#9;&#9;l-30.2,221.7c-1.2,5.7-4.9,11.8-11.7,11.8H144.6z" id="el_8VwJ4pYOfwF"/>
		<g id="el_9WI5IFPyIF7">
			<path d="M277,59c1.1,1.8,1.8,3.9,1.8,6.1L263.7,176l-15.1,110.8c-1.2,5.7-4.9,11.8-11.7,11.8h-48h-48&#xA;&#9;&#9;&#9;&#9;c-2.3,0-4.4-0.7-6.2-1.8c2.1,3.3,5.7,5.5,9.9,5.5h48h48c6.8,0,10.5-6.1,11.7-11.8l15.1-110.8l15.1-110.8&#xA;&#9;&#9;&#9;&#9;C282.5,64.7,280.3,61.1,277,59z" id="el_PS-njIxi1rP"/>
			<path d="M277.1,59.1c2,1.3,3.6,3.1,4.5,5.3c0.6,1.4,0.9,3,0.9,4.5l-15.1,110.7l-15.1,110.8&#xA;&#9;&#9;&#9;&#9;c-1.1,5.4-4.5,11.2-10.7,11.8c-0.3,0-0.7,0-1,0h-48h-47.9c-1.4,0-2.9-0.3-4.2-0.8c-2.4-0.9-4.4-2.6-5.8-4.7&#xA;&#9;&#9;&#9;&#9;c0.8,0.5,1.6,0.9,2.5,1.2c1.1,0.4,2.4,0.6,3.6,0.6h47.9h48c6.8,0,10.5-6.1,11.7-11.8L263.7,176l15.1-110.8c0-1.2-0.2-2.4-0.5-3.5&#xA;&#9;&#9;&#9;&#9;c0,0,0,0,0-0.1C277.9,60.7,277.5,59.9,277.1,59.1z" id="el_bo4RV2mJE5e"/>
			<path d="M277.1,59.2c2,1.3,3.6,3.2,4.5,5.4c0.6,1.3,0.9,3,0.9,4.5l-15,110.6l-15.1,110.8&#xA;&#9;&#9;&#9;&#9;c-1.1,5.4-4.5,11.2-10.7,11.7c-0.3,0-0.7,0-1,0h-48h-47.8c-1.4,0-2.9-0.3-4.2-0.7c-2.4-0.9-4.4-2.5-5.8-4.6&#xA;&#9;&#9;&#9;&#9;c0.8,0.5,1.6,0.9,2.5,1.1c1.1,0.4,2.4,0.6,3.6,0.6h47.8h48c6.9,0,10.6-6.1,11.7-11.9L263.8,176l15.1-110.7c0-1.2-0.2-2.5-0.5-3.5&#xA;&#9;&#9;&#9;&#9;c0,0,0,0,0-0.1C278,60.8,277.6,60,277.1,59.2z" id="el_KS7etPRpB1y"/>
			<path d="M277.2,59.3c2,1.3,3.5,3.2,4.4,5.4c0.6,1.3,0.8,3,0.8,4.5l-15,110.5l-15.1,110.8&#xA;&#9;&#9;&#9;&#9;c-1.1,5.4-4.5,11.2-10.7,11.7c-0.3,0-0.7,0-1,0h-47.9H145c-1.4,0-3-0.3-4.2-0.7c-2.4-0.9-4.4-2.5-5.8-4.6&#xA;&#9;&#9;&#9;&#9;c0.8,0.5,1.6,0.8,2.5,1.1c1.1,0.4,2.5,0.5,3.6,0.5h47.7h48c6.9,0,10.6-6,11.8-11.9L263.8,176l15-110.6c0-1.1-0.2-2.5-0.5-3.5&#xA;&#9;&#9;&#9;&#9;c0,0,0,0,0-0.1C278,60.9,277.7,60.1,277.2,59.3z" id="el_YfVmLnhwqlO"/>
			<path d="M277.3,59.4c2,1.3,3.5,3.2,4.3,5.4c0.5,1.3,0.8,3.1,0.8,4.5l-15,110.4l-15.1,110.8&#xA;&#9;&#9;&#9;&#9;c-1.1,5.4-4.5,11.2-10.7,11.7c-0.3,0-0.7,0-1,0h-47.9h-47.6c-1.3,0-3-0.2-4.1-0.7c-2.4-0.8-4.4-2.4-5.8-4.5&#xA;&#9;&#9;&#9;&#9;c0.8,0.5,1.6,0.8,2.5,1.1c1,0.3,2.5,0.5,3.6,0.5h47.7h48c6.9,0,10.6-6,11.8-11.9L263.8,176l15-110.5c0-1.1-0.1-2.5-0.5-3.5&#xA;&#9;&#9;&#9;&#9;c0,0,0,0,0-0.1C278.1,61,277.7,60.2,277.3,59.4z" id="el_NXLZBZFhbMI"/>
			<path d="M277.3,59.5c1.9,1.3,3.5,3.2,4.3,5.4c0.5,1.2,0.8,3.1,0.8,4.5l-15,110.3l-15.1,110.8&#xA;&#9;&#9;&#9;&#9;c-1.1,5.4-4.5,11.2-10.7,11.7c-0.3,0-0.7,0-1,0h-47.9h-47.5c-1.3,0-3-0.2-4.1-0.7c-2.4-0.8-4.4-2.4-5.8-4.4&#xA;&#9;&#9;&#9;&#9;c0.8,0.5,1.6,0.8,2.5,1.1c1,0.3,2.5,0.5,3.6,0.5H189h48c7,0,10.6-6,11.8-11.9L263.9,176l15-110.4c0-1.1-0.1-2.5-0.4-3.5&#xA;&#9;&#9;&#9;&#9;c0,0,0,0,0-0.1C278.2,61.1,277.8,60.3,277.3,59.5z" id="el_wjQMnQwCT9O"/>
			<path d="M277.4,59.6c1.9,1.3,3.4,3.2,4.2,5.5c0.5,1.2,0.7,3.2,0.7,4.5l-15,110.2l-15.1,110.8&#xA;&#9;&#9;&#9;&#9;c-1.1,5.4-4.5,11.2-10.7,11.7c-0.3,0-0.7,0-1,0h-47.9h-47.4c-1.3,0-3-0.2-4.1-0.7c-2.4-0.8-4.4-2.3-5.9-4.4&#xA;&#9;&#9;&#9;&#9;c0.8,0.4,1.6,0.8,2.5,1.1c1,0.3,2.6,0.5,3.6,0.5H189h48c7,0,10.6-5.9,11.8-11.9L263.9,176l15-110.4c0-1.1-0.1-2.6-0.4-3.5&#xA;&#9;&#9;&#9;&#9;c0,0,0,0,0-0.1C278.2,61.2,277.9,60.4,277.4,59.6z" id="el_1fY_W-wcV55"/>
			<path d="M277.5,59.7c1.9,1.4,3.4,3.3,4.2,5.5c0.5,1.2,0.7,3.2,0.7,4.5l-15,110.1l-15.1,110.8&#xA;&#9;&#9;&#9;&#9;c-1.1,5.4-4.5,11.2-10.7,11.6c-0.3,0-0.7,0-1,0h-47.9h-47.3c-1.2,0-3.1-0.2-4.1-0.6c-2.4-0.8-4.4-2.3-5.9-4.3&#xA;&#9;&#9;&#9;&#9;c0.8,0.4,1.7,0.8,2.5,1c1,0.3,2.6,0.5,3.6,0.5H189h48c7,0,10.6-5.9,11.9-11.9l15.1-110.9l15-110.3c0-1-0.1-2.6-0.4-3.5&#xA;&#9;&#9;&#9;&#9;c0,0,0,0,0-0.1C278.3,61.3,277.9,60.5,277.5,59.7z" id="el_0QeE59gg4cQ"/>
			<path d="M277.6,59.8c1.9,1.4,3.3,3.3,4.1,5.5c0.5,1.1,0.6,3.2,0.6,4.5l-15,110l-15.1,110.8&#xA;&#9;&#9;&#9;&#9;c-1.1,5.4-4.5,11.2-10.7,11.6c-0.3,0-0.7,0-1,0h-47.8h-47.3c-1.2,0-3.1-0.2-4.1-0.6c-2.4-0.7-4.5-2.3-5.9-4.3&#xA;&#9;&#9;&#9;&#9;c0.8,0.4,1.7,0.8,2.6,1c0.9,0.3,2.6,0.5,3.6,0.5H189h48c7.1,0,10.7-5.9,11.9-12L264,176.1l15-110.2c0-1-0.1-2.6-0.4-3.5&#xA;&#9;&#9;&#9;&#9;c0,0,0,0,0-0.1C278.3,61.4,278,60.6,277.6,59.8z" id="el_XUoL9uRPk7F"/>
			<path d="M277.6,59.9c1.9,1.4,3.3,3.3,4.1,5.5c0.5,1.1,0.6,3.3,0.6,4.5l-14.9,109.9l-15.1,110.8&#xA;&#9;&#9;&#9;&#9;c-1.1,5.4-4.5,11.2-10.7,11.6c-0.3,0-0.7,0-1,0h-47.8h-47.2c-1.1,0-3.1-0.2-4.1-0.6c-2.4-0.7-4.5-2.2-5.9-4.2&#xA;&#9;&#9;&#9;&#9;c0.8,0.4,1.7,0.8,2.6,1c0.9,0.3,2.6,0.5,3.6,0.5H189h48c7.1,0,10.7-5.8,11.9-12L264,176.1L279,66c0-1-0.1-2.6-0.3-3.5&#xA;&#9;&#9;&#9;&#9;c0,0,0,0,0-0.1C278.4,61.5,278,60.7,277.6,59.9z" id="el_fJg8zHqe9Kb"/>
			<path d="M277.7,60c1.9,1.4,3.3,3.3,4,5.6c0.5,1.1,0.6,3.3,0.6,4.5l-14.9,109.8l-15.1,110.8&#xA;&#9;&#9;&#9;&#9;c-1.1,5.4-4.5,11.2-10.7,11.6c-0.2,0-0.7,0-1,0h-47.8h-47.1c-1.1,0-3.1-0.2-4.1-0.6c-2.4-0.7-4.5-2.2-5.9-4.1&#xA;&#9;&#9;&#9;&#9;c0.8,0.4,1.7,0.7,2.6,1c0.9,0.3,2.7,0.4,3.6,0.4H189h48c7.1,0,10.7-5.8,11.9-12L264,176.1l15-110c0-0.9,0-2.7-0.3-3.5&#xA;&#9;&#9;&#9;&#9;c0,0,0,0,0-0.1C278.4,61.6,278.1,60.8,277.7,60z" id="el_setQdR7goeH"/>
			<path d="M277.8,60.1c1.8,1.4,3.2,3.4,3.9,5.6c0.4,1,0.5,3.3,0.5,4.5l-14.9,109.7l-15.1,110.8&#xA;&#9;&#9;&#9;&#9;c-1.1,5.4-4.5,11.1-10.7,11.6c-0.2,0-0.7,0-1,0h-47.8h-47c-1.1,0-3.2-0.2-4.1-0.6c-2.4-0.7-4.5-2.1-5.9-4.1&#xA;&#9;&#9;&#9;&#9;c0.8,0.4,1.7,0.7,2.6,0.9c0.8,0.3,2.7,0.4,3.6,0.4h47h48c7.2,0,10.7-5.8,11.9-12l15.1-110.9l15-109.9c0-0.9,0-2.7-0.3-3.5&#xA;&#9;&#9;&#9;&#9;c0,0,0,0,0-0.1C278.5,61.7,278.2,60.9,277.8,60.1z" id="el_0lkEejhY8MK"/>
			<path d="M277.8,60.2c1.8,1.4,3.2,3.4,3.9,5.6c0.4,1,0.5,3.4,0.5,4.5l-14.9,109.5l-15.1,110.8&#xA;&#9;&#9;&#9;&#9;c-1.1,5.4-4.5,11.1-10.7,11.5c-0.2,0-0.7,0-1,0h-47.7h-46.9c-1,0-3.2-0.2-4.1-0.5c-2.4-0.7-4.5-2.1-6-4c0.8,0.4,1.7,0.7,2.6,0.9&#xA;&#9;&#9;&#9;&#9;c0.8,0.3,2.7,0.4,3.6,0.4h47h48c7.2,0,10.7-5.7,12-12l15.1-110.9L279,66.3c0-0.9,0-2.7-0.3-3.5c0,0,0-0.1,0-0.1&#xA;&#9;&#9;&#9;&#9;C278.5,61.8,278.2,61,277.8,60.2z" id="el_SCcowy6Lu3W"/>
			<path d="M277.9,60.3c1.8,1.4,3.2,3.4,3.8,5.6c0.4,1,0.5,3.4,0.5,4.5l-14.9,109.4l-15.1,110.8&#xA;&#9;&#9;&#9;&#9;c-1.1,5.4-4.5,11.1-10.7,11.5c-0.2,0-0.8,0-1,0h-47.7H146c-1,0-3.2-0.2-4.1-0.5c-2.4-0.6-4.5-2-6-3.9c0.8,0.4,1.7,0.7,2.6,0.9&#xA;&#9;&#9;&#9;&#9;c0.8,0.3,2.8,0.4,3.6,0.4h46.9h48c7.2,0,10.8-5.7,12-12.1l15.1-110.9l14.9-109.8c0-0.8,0-2.7-0.2-3.5c0,0,0-0.1,0-0.1&#xA;&#9;&#9;&#9;&#9;C278.6,61.9,278.3,61.1,277.9,60.3z" id="el_c8CXnno_iRS"/>
			<path d="M278,60.3c1.8,1.4,3.1,3.4,3.8,5.7c0.4,0.9,0.4,3.4,0.4,4.5l-14.9,109.3l-15.1,110.8&#xA;&#9;&#9;&#9;&#9;c-1.1,5.4-4.5,11.1-10.7,11.5c-0.2,0-0.8,0-1,0h-47.7h-46.7c-1,0-3.2-0.2-4.1-0.5c-2.4-0.6-4.5-2-6-3.9c0.8,0.4,1.7,0.7,2.6,0.9&#xA;&#9;&#9;&#9;&#9;c0.8,0.3,2.8,0.4,3.6,0.4h46.8h48c7.3,0,10.8-5.7,12-12.1l15.1-110.9l14.9-109.7c0-0.8,0-2.8-0.2-3.5c0,0,0-0.1,0-0.1&#xA;&#9;&#9;&#9;&#9;C278.7,62,278.4,61.2,278,60.3z" id="el_vkqrw99Cv6S"/>
			<path d="M278,60.4c1.8,1.5,3.1,3.4,3.7,5.7c0.4,0.9,0.4,3.5,0.4,4.5l-14.9,109.2l-15.1,110.8&#xA;&#9;&#9;&#9;&#9;c-1.1,5.4-4.5,11.1-10.7,11.5c-0.2,0-0.8,0-1,0h-47.7h-46.6c-0.9,0-3.3-0.2-4.1-0.5c-2.4-0.6-4.5-1.9-6-3.8&#xA;&#9;&#9;&#9;&#9;c0.8,0.4,1.7,0.7,2.6,0.9c0.7,0.2,2.8,0.4,3.6,0.4h46.7h48c7.3,0.1,10.8-5.6,12-12.1l15.1-110.9l14.9-109.6c0-0.8,0-2.8-0.2-3.5&#xA;&#9;&#9;&#9;&#9;c0,0,0-0.1,0-0.1C278.7,62.1,278.4,61.3,278,60.4z" id="el_UlY1-GbLlo_"/>
			<path d="M278.1,60.5c1.8,1.5,3.1,3.5,3.6,5.7c0.4,0.9,0.3,3.5,0.3,4.5l-14.8,109.1l-15.1,110.8&#xA;&#9;&#9;&#9;&#9;c-1.1,5.4-4.5,11.1-10.7,11.5c-0.2,0-0.8,0-1,0h-47.6h-46.5c-0.9,0-3.3-0.2-4.1-0.5c-2.4-0.6-4.5-1.9-6-3.8&#xA;&#9;&#9;&#9;&#9;c0.8,0.4,1.7,0.7,2.6,0.8c0.7,0.2,2.9,0.4,3.6,0.4h46.6h48c7.3,0.1,10.8-5.6,12.1-12.1l15.1-110.9l14.9-109.5&#xA;&#9;&#9;&#9;&#9;c0-0.8,0.1-2.8-0.2-3.5c0,0,0-0.1,0-0.1C278.8,62.2,278.5,61.4,278.1,60.5z" id="el_CnFp4ay2W6p"/>
			<path d="M278.2,60.6c1.8,1.5,3,3.5,3.6,5.7c0.4,0.8,0.3,3.5,0.3,4.5l-14.8,109l-15.1,110.8&#xA;&#9;&#9;&#9;&#9;c-1.1,5.3-4.5,11.1-10.7,11.5c-0.2,0-0.8,0-1,0h-47.6h-46.4c-0.9,0-3.3-0.2-4.1-0.5c-2.4-0.5-4.5-1.9-6.1-3.7&#xA;&#9;&#9;&#9;&#9;c0.8,0.4,1.7,0.6,2.6,0.8c0.7,0.2,2.9,0.3,3.6,0.3h46.5h48c7.4,0.1,10.8-5.6,12.1-12.1l15.1-110.9l14.9-109.5&#xA;&#9;&#9;&#9;&#9;c0-0.7,0.1-2.8-0.1-3.5c0,0,0-0.1,0-0.1C278.8,62.3,278.6,61.4,278.2,60.6z" id="el_tAwTA3KeCOB"/>
			<path d="M278.3,60.7c1.7,1.5,3,3.5,3.5,5.8c0.3,0.8,0.3,3.6,0.3,4.5l-14.8,108.9l-15.1,110.8&#xA;&#9;&#9;&#9;&#9;c-1.1,5.3-4.5,11.1-10.7,11.4c-0.2,0-0.8,0-1,0h-47.6h-46.3c-0.8,0-3.3-0.2-4.1-0.4c-2.4-0.5-4.5-1.8-6.1-3.6&#xA;&#9;&#9;&#9;&#9;c0.8,0.4,1.7,0.6,2.6,0.8c0.6,0.2,2.9,0.3,3.6,0.3h46.4h48c7.4,0.1,10.9-5.6,12.1-12.1l15.1-110.9l14.9-109.4&#xA;&#9;&#9;&#9;&#9;c0-0.7,0.1-2.9-0.1-3.5c0,0,0-0.1,0-0.1C278.9,62.4,278.6,61.5,278.3,60.7z" id="el_49YdRUHBiZC"/>
			<path d="M278.3,60.8c1.7,1.5,2.9,3.5,3.5,5.8c0.3,0.7,0.2,3.6,0.2,4.5l-14.8,108.8l-15.1,110.8&#xA;&#9;&#9;&#9;&#9;c-1.1,5.3-4.5,11.1-10.7,11.4c-0.2,0-0.8,0-1,0h-47.6h-46.2c-0.8,0-3.4-0.1-4-0.4c-2.4-0.5-4.5-1.8-6.1-3.6&#xA;&#9;&#9;&#9;&#9;c0.8,0.4,1.7,0.6,2.6,0.8c0.6,0.2,3,0.3,3.6,0.3h46.3h48c7.4,0.1,10.9-5.5,12.1-12.2l15.1-110.9l14.9-109.3&#xA;&#9;&#9;&#9;&#9;c0-0.7,0.1-2.9-0.1-3.5c0,0,0-0.1,0-0.1C278.9,62.5,278.7,61.6,278.3,60.8z" id="el_s7155wbQBc_"/>
			<path d="M278.4,60.9c1.7,1.5,2.9,3.6,3.4,5.8c0.3,0.7,0.2,3.7,0.2,4.5l-14.8,108.7l-15.1,110.8&#xA;&#9;&#9;&#9;&#9;c-1.1,5.3-4.5,11.1-10.7,11.4c-0.2,0-0.8,0-1,0h-47.5h-46.1c-0.8,0-3.4-0.1-4-0.4c-2.4-0.5-4.5-1.7-6.1-3.5&#xA;&#9;&#9;&#9;&#9;c0.8,0.3,1.7,0.6,2.6,0.8c0.6,0.2,3,0.3,3.6,0.3h46.2h48c7.5,0.1,10.9-5.5,12.1-12.2l15.1-110.9L279.2,67c0-0.6,0.1-2.9-0.1-3.5&#xA;&#9;&#9;&#9;&#9;c0,0,0-0.1,0-0.1C279,62.6,278.7,61.7,278.4,60.9z" id="el_tl5prujtJSD"/>
			<path d="M278.5,61c1.7,1.5,2.9,3.6,3.4,5.8c0.3,0.7,0.2,3.7,0.2,4.5l-14.8,108.6l-15.1,110.8&#xA;&#9;&#9;&#9;&#9;c-1.1,5.3-4.5,11.1-10.7,11.4c-0.2,0-0.8,0-1,0h-47.5h-46c-0.7,0-3.4-0.1-4-0.4c-2.4-0.4-4.5-1.7-6.1-3.4&#xA;&#9;&#9;&#9;&#9;c0.8,0.3,1.7,0.6,2.6,0.7c0.6,0.2,3,0.3,3.6,0.3h46.2h48c7.5,0.1,10.9-5.5,12.2-12.2l15.1-110.9l14.8-109.1c0-0.6,0.1-2.9,0-3.5&#xA;&#9;&#9;&#9;&#9;c0,0,0-0.1,0-0.1C279.1,62.7,278.8,61.8,278.5,61z" id="el_zXrkLLKZ7XH"/>
			<path d="M278.5,61.1c1.7,1.6,2.8,3.6,3.3,5.9c0.3,0.6,0.1,3.7,0.1,4.5l-14.8,108.5l-15.1,110.8&#xA;&#9;&#9;&#9;&#9;c-1.1,5.3-4.5,11.1-10.7,11.4c-0.2,0-0.8,0-1,0h-47.5H147c-0.7,0-3.4-0.1-4-0.4c-2.4-0.4-4.5-1.6-6.1-3.4&#xA;&#9;&#9;&#9;&#9;c0.8,0.3,1.7,0.6,2.6,0.7c0.5,0.2,3,0.3,3.6,0.3h46.1h48c7.5,0.1,10.9-5.4,12.2-12.2l15.1-110.9l14.8-109c0-0.6,0.2-3,0-3.5&#xA;&#9;&#9;&#9;&#9;c0,0,0-0.1,0-0.1C279.1,62.8,278.9,61.9,278.5,61.1z" id="el_jhHZg9lj6rb"/>
			<path d="M278.6,61.2c1.7,1.6,2.8,3.6,3.2,5.9c0.3,0.6,0.1,3.8,0.1,4.5l-14.7,108.3l-15.1,110.8&#xA;&#9;&#9;&#9;&#9;c-1.1,5.3-4.5,11.1-10.7,11.3c-0.1,0-0.8,0-1,0h-47.5h-45.8c-0.6,0-3.5-0.1-4-0.3c-2.4-0.4-4.5-1.6-6.2-3.3&#xA;&#9;&#9;&#9;&#9;c0.8,0.3,1.7,0.6,2.6,0.7c0.5,0.2,3.1,0.3,3.6,0.3h46h48c7.5,0.1,11-5.4,12.2-12.2l15.1-110.9l14.8-109c0-0.5,0.2-3,0-3.5&#xA;&#9;&#9;&#9;&#9;c0,0,0-0.1,0-0.1C279.2,62.9,278.9,62,278.6,61.2z" id="el_0BFLlO5iv7m"/>
			<path d="M278.7,61.3c1.6,1.6,2.8,3.6,3.2,5.9c0.3,0.6,0,3.8,0,4.5l-14.7,108.2l-15.1,110.8&#xA;&#9;&#9;&#9;&#9;c-1.1,5.3-4.5,11.1-10.7,11.3c-0.1,0-0.8,0-1,0h-47.5h-45.7c-0.6,0-3.5-0.1-4-0.3c-2.4-0.4-4.5-1.5-6.2-3.3&#xA;&#9;&#9;&#9;&#9;c0.8,0.3,1.7,0.5,2.6,0.7c0.5,0.2,3.1,0.2,3.6,0.2h45.9h48c7.6,0.1,11-5.4,12.2-12.3l15.1-110.9l14.8-108.9c0-0.5,0.2-3,0-3.5&#xA;&#9;&#9;&#9;&#9;c0,0,0-0.1,0-0.1C279.2,63,279,62.1,278.7,61.3z" id="el_i7zdGFpcn-E"/>
			<path d="M278.8,61.4c1.6,1.6,2.7,3.7,3.1,5.9c0.2,0.5,0,3.8,0,4.5l-14.7,108.1l-15.1,110.8&#xA;&#9;&#9;&#9;&#9;c-1.1,5.3-4.5,11.1-10.7,11.3c-0.1,0-0.8,0-1,0h-47.4h-45.6c-0.6,0-3.5-0.1-4-0.3c-2.4-0.4-4.6-1.5-6.2-3.2&#xA;&#9;&#9;&#9;&#9;c0.8,0.3,1.7,0.5,2.6,0.6c0.4,0.1,3.1,0.2,3.6,0.2h45.8h48c7.6,0.1,11-5.3,12.3-12.3l15.1-110.9l14.8-108.8c0-0.5,0.2-3,0.1-3.5&#xA;&#9;&#9;&#9;&#9;c0,0,0-0.1,0-0.1C279.3,63.1,279.1,62.2,278.8,61.4z" id="el_0UQp5NfIfE6"/>
			<path d="M278.8,61.5c1.6,1.6,2.7,3.7,3.1,6c0.2,0.5,0,3.9,0,4.5l-14.7,108l-15.1,110.8c-1.1,5.3-4.5,11.1-10.7,11.3&#xA;&#9;&#9;&#9;&#9;c-0.1,0-0.8,0-1,0H193h-45.5c-0.5,0-3.5-0.1-4-0.3c-2.4-0.3-4.6-1.5-6.2-3.1c0.9,0.3,1.7,0.5,2.6,0.6c0.4,0.1,3.2,0.2,3.6,0.2&#xA;&#9;&#9;&#9;&#9;h45.7h48c7.6,0.1,11-5.3,12.3-12.3l15.1-110.9l14.8-108.7c0-0.5,0.2-3.1,0.1-3.5c0,0,0-0.1,0-0.1&#xA;&#9;&#9;&#9;&#9;C279.3,63.2,279.1,62.3,278.8,61.5z" id="el_I-6Y0RdH3zB"/>
			<path d="M278.9,61.6c1.6,1.6,2.7,3.7,3,6c0.2,0.5-0.1,3.9-0.1,4.5L267.1,180l-15.1,110.8&#xA;&#9;&#9;&#9;&#9;c-1.1,5.3-4.5,11.1-10.7,11.3c-0.1,0-0.9,0-1,0H193h-45.4c-0.5,0-3.6-0.1-4-0.3c-2.4-0.3-4.6-1.4-6.2-3.1&#xA;&#9;&#9;&#9;&#9;c0.9,0.3,1.7,0.5,2.6,0.6c0.4,0.1,3.2,0.2,3.6,0.2h45.6h48c7.7,0.1,11-5.3,12.3-12.3l15.1-110.9l14.8-108.6&#xA;&#9;&#9;&#9;&#9;c0-0.4,0.2-3.1,0.1-3.5c0,0,0-0.1,0-0.1C279.4,63.3,279.2,62.4,278.9,61.6z" id="el_tqp-6sCJbXl"/>
			<path d="M279,61.7c1.6,1.6,2.6,3.7,2.9,6c0.2,0.4-0.1,3.9-0.1,4.5L267.1,180l-15.1,110.8&#xA;&#9;&#9;&#9;&#9;c-1.1,5.3-4.5,11.1-10.7,11.2c-0.1,0-0.9,0-1,0H193h-45.3c-0.5,0-3.6-0.1-4-0.2c-2.4-0.3-4.6-1.4-6.2-3c0.9,0.3,1.7,0.5,2.7,0.6&#xA;&#9;&#9;&#9;&#9;c0.4,0.1,3.2,0.2,3.6,0.2h45.5h48c7.7,0.1,11.1-5.2,12.3-12.3l15.1-110.9l14.8-108.5c0-0.4,0.3-3.1,0.1-3.5c0,0,0-0.1,0-0.1&#xA;&#9;&#9;&#9;&#9;C279.4,63.4,279.2,62.5,279,61.7z" id="el_QthiiCSeonr"/>
			<path d="M279,61.8c1.6,1.6,2.6,3.8,2.9,6.1c0.2,0.4-0.1,4-0.1,4.5L267.1,180L252,290.8c-1.1,5.3-4.5,11.1-10.7,11.2&#xA;&#9;&#9;&#9;&#9;c-0.1,0-0.9,0-1,0H193h-45.2c-0.4,0-3.6-0.1-4-0.2c-2.4-0.3-4.6-1.3-6.3-2.9c0.9,0.3,1.7,0.5,2.7,0.6c0.3,0.1,3.3,0.2,3.6,0.2&#xA;&#9;&#9;&#9;&#9;h45.5h48c7.7,0.1,11.1-5.2,12.3-12.3l15.1-110.9l14.8-108.5c0-0.4,0.3-3.1,0.2-3.5c0,0,0-0.1,0-0.1&#xA;&#9;&#9;&#9;&#9;C279.5,63.5,279.3,62.6,279,61.8z" id="el_RNysytXZ6Tt"/>
			<path d="M279.1,61.9c1.5,1.7,2.6,3.8,2.8,6.1c0.2,0.4-0.2,4-0.2,4.5L267.1,180L252,290.8&#xA;&#9;&#9;&#9;&#9;c-1.1,5.3-4.5,11.1-10.7,11.2c-0.1,0-0.9,0-1,0H193h-45.2c-0.4,0-3.6-0.1-4-0.2c-2.4-0.2-4.6-1.3-6.3-2.9&#xA;&#9;&#9;&#9;&#9;c0.9,0.3,1.8,0.5,2.7,0.5c0.3,0.1,3.3,0.2,3.6,0.2h45.4h48c7.8,0.1,11.1-5.2,12.4-12.4l15.1-110.9L279.5,68&#xA;&#9;&#9;&#9;&#9;c0-0.3,0.3-3.2,0.2-3.5c0,0,0-0.1,0-0.1C279.6,63.6,279.4,62.7,279.1,61.9z" id="el_6XuqkSLG2nZ"/>
			<path d="M279.2,62c1.5,1.7,2.5,3.8,2.8,6.1c0.1,0.3-0.2,4.1-0.2,4.5L267.1,180L252,290.8&#xA;&#9;&#9;&#9;&#9;c-1.1,5.3-4.5,11.1-10.8,11.2c-0.1,0-0.9,0-1,0H193H148c-0.4,0-3.7-0.1-4-0.2c-2.4-0.2-4.6-1.2-6.3-2.8c0.9,0.3,1.8,0.4,2.7,0.5&#xA;&#9;&#9;&#9;&#9;c0.3,0.1,3.3,0.1,3.6,0.1h45.3h48c7.8,0.1,11.1-5.1,12.4-12.4l15.1-110.9l14.7-108.3c0-0.3,0.3-3.2,0.2-3.5c0,0,0-0.1,0-0.1&#xA;&#9;&#9;&#9;&#9;C279.6,63.7,279.4,62.8,279.2,62z" id="el_wwojP2w8trz"/>
			<path d="M279.2,62.1c1.5,1.7,2.5,3.8,2.7,6.1c0.1,0.3-0.3,4.1-0.3,4.4L267.1,180L252,290.8&#xA;&#9;&#9;&#9;&#9;c-1.1,5.3-4.5,11-10.8,11.2c-0.1,0-0.9,0-1,0H193h-45c-0.3,0-3.7-0.1-4-0.2c-2.4-0.2-4.6-1.2-6.3-2.7c0.9,0.3,1.8,0.4,2.7,0.5&#xA;&#9;&#9;&#9;&#9;c0.3,0.1,3.3,0.1,3.6,0.1h45.2h48c7.8,0.1,11.1-5.1,12.4-12.4l15.1-110.9l14.7-108.2c0-0.3,0.3-3.2,0.2-3.5c0,0,0-0.1,0-0.1&#xA;&#9;&#9;&#9;&#9;C279.7,63.8,279.5,62.9,279.2,62.1z" id="el_iJinz1CHj4r"/>
			<path d="M279.3,62.2c1.5,1.7,2.4,3.8,2.6,6.2c0.1,0.3-0.3,4.1-0.3,4.4L267.1,180L252,290.8&#xA;&#9;&#9;&#9;&#9;c-1.1,5.3-4.5,11-10.8,11.2c-0.1,0-0.9,0-1,0H193h-44.9c-0.3,0-3.7-0.1-4-0.2c-2.4-0.2-4.6-1.1-6.3-2.7c0.9,0.3,1.8,0.4,2.7,0.5&#xA;&#9;&#9;&#9;&#9;c0.2,0.1,3.4,0.1,3.6,0.1h45.1h48c7.9,0.1,11.1-5.1,12.4-12.4l15.1-110.9l14.7-108.1c0-0.2,0.3-3.2,0.3-3.5c0,0,0-0.1,0-0.1&#xA;&#9;&#9;&#9;&#9;C279.7,63.9,279.6,63,279.3,62.2z" id="el_NudURwkHeAy"/>
			<path d="M279.4,62.3c1.5,1.7,2.4,3.9,2.6,6.2c0.1,0.2-0.3,4.2-0.3,4.4L267.1,180L252,290.9&#xA;&#9;&#9;&#9;&#9;c-1.1,5.3-4.5,11-10.8,11.1c-0.1,0-0.9,0-1,0h-47.2h-44.8c-0.3,0-3.7,0-4-0.1c-2.4-0.2-4.6-1.1-6.4-2.6c0.9,0.2,1.8,0.4,2.7,0.5&#xA;&#9;&#9;&#9;&#9;c0.2,0.1,3.4,0.1,3.6,0.1h45h48c7.9,0.1,11.2-5,12.5-12.4l15.1-110.9l14.7-108.1c0-0.2,0.4-3.3,0.3-3.5c0,0,0-0.1,0-0.1&#xA;&#9;&#9;&#9;&#9;C279.8,64,279.6,63.1,279.4,62.3z" id="el_QBSt2uXKQyu"/>
			<path d="M279.5,62.4c1.5,1.7,2.4,3.9,2.5,6.2c0.1,0.2-0.4,4.2-0.4,4.4l-14.6,107L252,290.9&#xA;&#9;&#9;&#9;&#9;c-1.1,5.3-4.5,11-10.8,11.1c0,0-0.9,0-1,0h-47.2h-44.7c-0.2,0-3.8,0-3.9-0.1c-2.4-0.1-4.6-1-6.4-2.6c0.9,0.2,1.8,0.4,2.7,0.4&#xA;&#9;&#9;&#9;&#9;c0.2,0.1,3.4,0.1,3.6,0.1h44.9h48c7.9,0.1,11.2-5,12.5-12.5l15.1-110.9l14.7-108c0-0.2,0.4-3.3,0.3-3.5c0,0,0-0.1,0-0.1&#xA;&#9;&#9;&#9;&#9;C279.8,64.1,279.7,63.2,279.5,62.4z" id="el_bANcRcImvg8"/>
			<path d="M279.5,62.4c1.5,1.7,2.3,3.9,2.5,6.2c0.1,0.2-0.4,4.2-0.4,4.4L267,180L252,290.9c-1.1,5.3-4.5,11-10.8,11.1&#xA;&#9;&#9;&#9;&#9;c0,0-0.9,0-1,0h-47.2h-44.6c-0.2,0-3.8,0-3.9-0.1c-2.4-0.1-4.6-1-6.4-2.5c0.9,0.2,1.8,0.4,2.7,0.4c0.1,0,3.5,0.1,3.6,0.1h44.8h48&#xA;&#9;&#9;&#9;&#9;c8,0.1,11.2-5,12.5-12.5l15.1-110.9l14.7-107.9c0-0.2,0.4-3.3,0.3-3.5c0,0,0-0.1,0-0.1C279.9,64.2,279.8,63.3,279.5,62.4z" id="el_pdcTlncHK5L"/>
			<path d="M279.6,62.5c1.4,1.8,2.3,3.9,2.4,6.3c0.1,0.1-0.5,4.3-0.5,4.4L267,180.1L252,290.9&#xA;&#9;&#9;&#9;&#9;c-1.1,5.3-4.5,11-10.8,11.1c0,0-0.9,0-1,0h-47.2h-44.5c-0.1,0-3.8,0-3.9-0.1c-2.4-0.1-4.6-1-6.4-2.4c0.9,0.2,1.8,0.4,2.7,0.4&#xA;&#9;&#9;&#9;&#9;c0.1,0,3.5,0.1,3.6,0.1h44.7h48c8,0.1,11.2-4.9,12.5-12.5L265,176.5l14.7-107.8c0-0.1,0.4-3.3,0.4-3.4c0,0,0-0.1,0-0.1&#xA;&#9;&#9;&#9;&#9;C279.9,64.3,279.8,63.4,279.6,62.5z" id="el_udh7pJGH6LP"/>
			<path d="M279.7,62.6c1.4,1.8,2.3,4,2.4,6.3c0,0.1-0.5,4.3-0.5,4.4L267,180.1l-15.1,110.8c-1.1,5.3-4.5,11-10.8,11.1&#xA;&#9;&#9;&#9;&#9;c0,0-0.9,0-1,0h-47.1h-44.4c-0.1,0-3.8,0-3.9-0.1c-2.4-0.1-4.6-0.9-6.4-2.4c0.9,0.2,1.8,0.3,2.7,0.4c0.1,0,3.5,0,3.6,0h44.7h48&#xA;&#9;&#9;&#9;&#9;c8,0.1,11.2-4.9,12.6-12.5L265,176.5l14.7-107.7c0-0.1,0.4-3.4,0.4-3.4c0,0,0-0.1,0-0.1C280,64.4,279.9,63.5,279.7,62.6z" id="el_KgxWAJ02R5c"/>
			<path d="M279.7,62.7c1.4,1.8,2.2,4,2.3,6.3c0,0.1-0.5,4.3-0.5,4.4L267,180.1l-15.1,110.8c-1.1,5.3-4.5,11-10.8,11&#xA;&#9;&#9;&#9;&#9;c0,0-0.9,0-1,0h-47.1h-44.3c-0.1,0-3.9,0-3.9,0c-2.4,0-4.6-0.9-6.4-2.3c0.9,0.2,1.8,0.3,2.7,0.3c0.1,0,3.6,0,3.6,0h44.6h48&#xA;&#9;&#9;&#9;&#9;c8.1,0.1,11.3-4.9,12.6-12.5L265,176.5l14.6-107.6c0-0.1,0.4-3.4,0.4-3.4c0,0,0-0.1,0-0.1C280.1,64.5,279.9,63.6,279.7,62.7z" id="el_ltnPbEz7OvY"/>
			<path d="M279.8,62.8c1.4,1.8,2.2,4,2.2,6.3c0,0-0.6,4.4-0.6,4.4L267,180.1l-15.1,110.8c-1.1,5.3-4.5,11-10.8,11&#xA;&#9;&#9;&#9;&#9;c0,0-0.9,0-1,0h-47.1h-44.2c0,0-3.9,0-3.9,0c-2.4,0-4.6-0.8-6.5-2.2c0.9,0.2,1.8,0.3,2.7,0.3c0,0,3.6,0,3.6,0h44.5h48&#xA;&#9;&#9;&#9;&#9;c8.1,0.1,11.3-4.8,12.6-12.5l15.1-110.9L279.7,69c0,0,0.5-3.4,0.4-3.4l0-0.1C280.1,64.6,280,63.7,279.8,62.8z" id="el_Ucs7GMZBbA7"/>
			<path d="M145.1,301.9c-2.4,0-4.6-0.8-6.5-2.2c0.9,0.2,1.8,0.3,2.7,0.3h48h48c8.1,0.1,11.3-4.8,12.6-12.6l15.1-110.9&#xA;&#9;&#9;&#9;&#9;l15.1-110.9v-0.1c0-0.9-0.1-1.8-0.3-2.7c1.4,1.8,2.2,4,2.2,6.4L267,180.1l-15.1,110.8c-1.1,5.3-4.5,11-10.8,11h-48H145.1z" id="el_fJcfgoT_Z_P"/>
		</g>
		<g id="el_kz5LnbFFNhO">
			<defs>
				<path id="SVGID_8_" class="st50" d="M144.6,301.4c-6.4,0-11.7-5.2-11.7-11.6l30.2-221.8V68c0-6.4,5.2-11.7,11.7-11.7h96&#xA;&#9;&#9;&#9;&#9;&#9;c6.4,0,11.7,5.2,11.7,11.6l-30.2,221.7c-1.2,5.7-4.9,11.8-11.7,11.8H144.6z"/>
			</defs>
			<clipPath id="SVGID_2_">
				<use xlink:href="#SVGID_8_" style="overflow:visible;"/>
			</clipPath>
			
				<rect x="121.9" y="127.5" width="181.5" height="12" id="el_dyqHlrnSHgh"/>
			
				<rect x="119.3" y="112.8" width="181.5" height="4.7" id="el_ccv-dhXK4ua"/>
			
				<rect x="124.5" y="149.2" width="181.5" height="34" id="el_Xt1NuYpE1dc"/>
		</g>
	</g>
</g>
<g id="el_WLzUKh5wmUp_an_BBOqq_-MY" data-animator-group="true" data-animator-type="2"><g id="el_WLzUKh5wmUp">
	<rect x="228.5" y="92.5" width="153.4" height="49.9" id="el_Oj-lCluNLSM"/>
	<g id="el_lOK7Sqef1u1">
		<g id="el_zM03UIuDupo">
			<rect x="298.3" y="101.2" width="56.3" height="3.8" id="el_37zi6nV53tc"/>
		</g>
		<g id="el_6x0i1ESW5Ph">
			<rect x="298.3" y="109.2" width="64.2" height="2.8" id="el_ZYG2wxqcrg6"/>
		</g>
		<g id="el_qqbHkvKF1i7">
			<rect x="298.1" y="115.8" width="56.1" height="2.8" id="el_kM5C4kNZDjF"/>
		</g>
		<g id="el_6U4dEZ_D8Rk">
			<rect x="298.1" y="122.2" width="62.4" height="2.8" id="el_Ajo7dfLWvxw"/>
		</g>
		<g id="el_zBInaay75Ya">
			<rect x="298.1" y="129" width="13.9" height="2.8" id="el_7yIqrINpTVZ"/>
		</g>
	</g>
	<rect x="236.4" y="101.4" width="56.7" height="33" id="el_yfOEhIeouwO"/>
	<path d="M264.7,112.3c-3.1,0-5.6,2.5-5.6,5.6s2.5,5.6,5.6,5.6s5.6-2.5,5.6-5.6S267.8,112.3,264.7,112.3z M267,117.9&#xA;&#9;&#9;l-3.7,2.1c0,0,0,0-0.1,0c0,0,0,0,0-0.1v-4.3v-0.1c0,0,0,0,0.1,0L267,117.9C267,117.8,267,117.9,267,117.9L267,117.9z" id="el_E_Yj925MWzW"/>
</g></g>
<g id="el_vYoBbHHTwW1_an_MtBGHf3nV" data-animator-group="true" data-animator-type="2"><g id="el_vYoBbHHTwW1">
	<rect x="94.4" y="107.7" width="83.3" height="56.6" id="el_mdUWxyiuHfm"/>
	<g id="el_CAk_ippaWXh">
		<g id="el_ZuMRqYUzRKR">
			<rect x="103.4" y="148.2" width="27.7" height="2.4" id="el_DUTw2-2DoX4"/>
			<rect x="103.4" y="152.6" width="10.4" height="2.4" id="el_DRjjhBz1_Ia"/>
		</g>
		<g id="el_MoWB5Gs90sU">
			<path d="M111.1,136.1l-1.6-5.1c-0.1-0.2-0.3-0.4-0.5-0.4l0,0c-1.2-0.4-2.3-0.4-3.5,0l0,0c-0.2,0-0.4,0.2-0.5,0.4&#xA;&#9;&#9;&#9;&#9;l-1.6,5.1c-0.1,0.3,0.1,0.7,0.4,0.8c0.1,0,0.1,0,0.2,0c0.3,0,0.5-0.2,0.6-0.5l0.8-2.7h0.1c-0.2,1-0.4,2-0.6,3&#xA;&#9;&#9;&#9;&#9;c-0.1,0.5,0.2,0.9,0.6,0.9v2.7c0,0.4,0.3,0.8,0.8,0.8c0.4,0,0.8-0.4,0.8-0.8v-2.6c0.1,0,0.1,0,0.2,0v2.6c0,0.4,0.4,0.8,0.8,0.8&#xA;&#9;&#9;&#9;&#9;s0.8-0.4,0.8-0.8v-2.7c0.4-0.1,0.7-0.5,0.6-0.9c-0.2-1-0.4-2-0.6-3h0.1l0.8,2.7c0.1,0.3,0.3,0.5,0.6,0.5c0.1,0,0.1,0,0.2,0&#xA;&#9;&#9;&#9;&#9;C111,136.7,111.2,136.4,111.1,136.1z" id="el_SB6GkNZmF6Q"/>
			<path d="M107.3,129.9c0.8,0,1.4-0.6,1.4-1.4c0-0.8-0.6-1.4-1.4-1.4s-1.4,0.6-1.4,1.4&#xA;&#9;&#9;&#9;&#9;C105.8,129.2,106.5,129.9,107.3,129.9z" id="el_rrF0hcj_sjN"/>
		</g>
		<g id="el_ksN7YYym_tm">
			<rect x="114.4" y="127.9" width="54.9" height="2.8" id="el_jyyb4z1udA3"/>
			<rect x="114.4" y="132.8" width="54.9" height="2.8" id="el_QQiUpNMHbuQ"/>
			<rect x="114.4" y="137.7" width="54.9" height="2.8" id="el_fyDOouTTXF5"/>
			<rect x="114.4" y="127.9" width="20.8" height="2.8" id="el_dGT3obwD7ZP"/>
			<rect x="114.4" y="132.8" width="8" height="2.8" id="el_VHq6Oq0oAWl"/>
			<rect x="114.4" y="137.7" width="49.6" height="2.8" id="el_MQOK22HQy4e"/>
		</g>
		<rect x="103.4" y="114.8" width="30.1" height="3.9" id="el_Vm368jiYawI"/>
	</g>
</g></g>
<g id="el_whvUgdJIE2G_an_LrmTofbc1" data-animator-group="true" data-animator-type="2"><g id="el_whvUgdJIE2G">
	<g id="el_MA0_BBcsn8u">
		<g id="el_I2wYlJxpkFy">
			<rect x="49.7" y="195.5" width="158.4" height="54.9" id="el_I37sXvCQXVq"/>
		</g>
		<g id="el_nyP4m0QH3rt">
			<g id="el_EKuPY8JA-GK">
				<rect x="58.6" y="206" width="118" height="3.8" id="el_w4e7UuRchwb"/>
			</g>
			<g id="el_7rtAgAzofcV">
				<rect x="58.6" y="214.2" width="134.6" height="2.9" id="el_n7Zf352OA0E"/>
			</g>
			<g id="el_CFLjZ16OT-8">
				<rect x="58.1" y="220.9" width="117.5" height="2.9" id="el_jj3c5uVMDBC"/>
			</g>
			<g id="el_eE2jLrOt7al">
				<rect x="58.1" y="227.3" width="130.8" height="2.9" id="el_84h3tXWmfc8"/>
			</g>
			<g id="el_4prJDewPnMS">
				<rect x="58.1" y="234.3" width="29.2" height="2.9" id="el_ZCVoFf18za9"/>
			</g>
		</g>
	</g>
</g></g>
<g id="el_fZ1aKGVaWI5_an__PYSfrCNm" data-animator-group="true" data-animator-type="2"><g id="el_fZ1aKGVaWI5">
	<g id="el_5yrF0m1Hq5L">
		<rect x="238" y="175.5" width="83.3" height="56.6" id="el_xHwEE2zxOFn"/>
		<g id="el_u0Kk2FvybhG">
			<g id="el_gCc5iIFZTip">
				<rect x="245" y="216" width="27.7" height="2.4" id="el_ej7r6ANLsRG"/>
				<rect x="245" y="220.4" width="10.4" height="2.4" id="el_oSaFKrOWv1G"/>
			</g>
			<g id="el_qH20pE2Dz58">
				<path d="M247.9,197.7c0.8,0,1.4-0.6,1.4-1.4s-0.6-1.4-1.4-1.4s-1.4,0.6-1.4,1.4C246.5,197,247.1,197.7,247.9,197.7z&#xA;&#9;&#9;&#9;&#9;&#9;" id="el_cCyzvrPCued"/>
				<path d="M250.8,198.6c0-0.3-0.3-0.5-0.6-0.6h-0.1c-1.5-0.1-3-0.1-4.4,0c-0.1,0-0.1,0-0.1,0&#xA;&#9;&#9;&#9;&#9;&#9;c-0.3,0.1-0.5,0.3-0.5,0.6l-0.3,5c0,0.4,0.3,0.7,0.6,0.7l0,0c0.3,0,0.6-0.3,0.6-0.6v-0.6l0,0h0.1v0.1v5c0,0.4,0.4,0.8,0.8,0.8&#xA;&#9;&#9;&#9;&#9;&#9;s0.8-0.4,0.8-0.8v-5c0-0.1,0-0.1,0-0.2c0.1,0,0.2,0,0.3,0c0,0.1,0,0.1,0,0.2v5c0,0.4,0.4,0.8,0.8,0.8s0.8-0.4,0.8-0.8v-5v-0.1&#xA;&#9;&#9;&#9;&#9;&#9;h0.1l0,0v0.6c0,0.3,0.3,0.6,0.6,0.6l0,0c0.4,0,0.6-0.3,0.6-0.7L250.8,198.6z" id="el_HtizmYMxvSW"/>
			</g>
			<g id="el_gy_W_NyW6pP">
				<rect x="254.9" y="195.7" width="54.9" height="2.8" id="el_x7W5R6nFfnh"/>
				<rect x="254.9" y="200.6" width="54.9" height="2.8" id="el_vsg3Qp4cWNg"/>
				<rect x="254.9" y="205.5" width="54.9" height="2.8" id="el_4Eb92Ll7AY9"/>
				<rect x="254.9" y="195.7" width="51.2" height="2.8" id="el_1KlzuxbaoPY"/>
				<rect x="254.9" y="200.6" width="19.3" height="2.8" id="el_xuSAa6MOu5F"/>
				<rect x="254.9" y="205.5" width="25.8" height="2.8" id="el_jYztTo6M7Uw"/>
			</g>
			<rect x="244.7" y="182.6" width="30.1" height="3.9" id="el_AvVZ-d8fU-7"/>
		</g>
	</g>
</g></g>
<g id="el_2dOk267shth_an_uSoVnespS" data-animator-group="true" data-animator-type="0"><g id="el_2dOk267shth">
	
		<linearGradient id="SVGID_3_" gradientUnits="userSpaceOnUse" x1="-2112.6375" y1="901.443" x2="-2067.3984" y2="946.6819" gradientTransform="matrix(4.489700e-11 -1 1 4.489700e-11 -812.75 -1786.75)">
		<stop offset="3.605769e-04" style="stop-color:#6A53A2"/>
		<stop offset="0.5806" style="stop-color:#8A52A0"/>
		<stop offset="1" style="stop-color:#A4509E"/>
	</linearGradient>
	<polygon points="82.6,286.7 82.6,319.8 111.3,336.4 140,319.8 140,286.7 111.3,270.2 &#9;" id="el__av6-3m5gxL"/>
	<g id="el_qHdoiEgj2tU">
		<path d="M123.5,299.4c-0.5,6.4-6.9,11.6-14.7,11.6c-0.6,0-1.2,0-1.8-0.1c2.5,2,6.1,2.9,9.8,2.5l6.7,3.4v-6.4&#xA;&#9;&#9;&#9;c1.6-1.5,2.5-3.4,2.5-5.4C126.1,302.7,125.2,300.9,123.5,299.4z" id="el_c8JoXWhzaNg"/>
		<path d="M108.8,288.7c-6.8,0-12.3,4.4-12.3,9.8c0,2.2,0.9,4.2,2.5,5.8v6.4l6-2.9c1.2,0.4,2.6,0.5,3.9,0.5&#xA;&#9;&#9;&#9;c6.8,0,12.3-4.4,12.3-9.8C121.2,293.2,115.6,288.7,108.8,288.7z" id="el_6brUD0mzSxN"/>
	</g>
</g></g>
<g id="el_qHPrxEEfRNC">
	<g id="el_MCKFkWysNMG">
		<g id="el_GGh2rPXAF_w">
			<polygon points="230.8,331.3 230.3,331.9 227.3,331 226.5,331.8 229.3,332.6 228.8,333.1 226,332.3 225.3,333.1 &#xA;&#9;&#9;&#9;&#9;228.4,334.1 227.9,334.6 223.7,333.3 226.7,330.1 &#9;&#9;&#9;" id="el_DaT6v73p0hT"/>
		</g>
		<g id="el_FKxI_ADfXnm">
			<polygon points="222.9,328.9 220.5,331.6 222.9,332.4 222.4,332.9 218.9,331.8 221.9,328.6 &#9;&#9;&#9;" id="el_pYV82LI2S8I"/>
		</g>
		<g id="el_48fxoehlnUS">
			<path d="M248.6,336.9c0.3,0.2,0.5,0.4,0.7,0.5l-0.9,0.4c-0.2-0.2-0.4-0.4-0.7-0.5c0,0,0,0-0.1,0&#xA;&#9;&#9;&#9;&#9;c-0.2-0.1-0.4-0.2-0.7-0.3c-0.3-0.1-0.5-0.1-0.7-0.1c-0.2,0-0.3,0.1-0.4,0.2c-0.1,0.1-0.1,0.2,0,0.3c0,0.1,0.1,0.2,0.3,0.3&#xA;&#9;&#9;&#9;&#9;c0.1,0.1,0.3,0.2,0.5,0.3c0.1,0,0.1,0.1,0.2,0.1c0.2,0.1,0.5,0.3,0.6,0.4c0.2,0.1,0.3,0.3,0.4,0.5c0.1,0.2,0,0.4-0.2,0.6&#xA;&#9;&#9;&#9;&#9;c-0.2,0.2-0.4,0.3-0.7,0.4c-0.3,0.1-0.7,0.1-1.1,0.1c-0.4,0-0.8-0.1-1.2-0.2c-0.3-0.1-0.6-0.2-0.9-0.4c-0.1,0-0.2-0.1-0.2-0.1&#xA;&#9;&#9;&#9;&#9;c-0.3-0.2-0.6-0.5-0.7-0.7l0.9-0.4c0.1,0.2,0.4,0.5,0.6,0.7c0.1,0.1,0.2,0.1,0.3,0.2c0.2,0.1,0.4,0.2,0.6,0.3&#xA;&#9;&#9;&#9;&#9;c0.3,0.1,0.6,0.1,0.8,0.1c0.2,0,0.4-0.1,0.5-0.2c0.1-0.1,0.1-0.2,0-0.3c0-0.1-0.1-0.2-0.3-0.3c-0.1-0.1-0.2-0.1-0.4-0.2&#xA;&#9;&#9;&#9;&#9;c-0.1,0-0.1-0.1-0.2-0.1c-0.3-0.2-0.6-0.3-0.8-0.5c-0.2-0.1-0.3-0.3-0.4-0.5c-0.1-0.2,0-0.4,0.2-0.6c0.2-0.2,0.4-0.3,0.7-0.4&#xA;&#9;&#9;&#9;&#9;c0.3-0.1,0.6-0.1,1-0.1c0.4,0,0.8,0.1,1.2,0.2C248,336.6,248.3,336.7,248.6,336.9z" id="el_ExQ48J4u7Fs"/>
		</g>
		<g id="el_I4ZT-I8jFRW">
			<path d="M242.8,337.1c-0.3,0.3-0.7,0.6-1.1,0.7c-0.5,0.2-1,0.2-1.6,0.3c-0.6,0-1.1-0.1-1.7-0.3l-2.3-0.7l3-3.2&#xA;&#9;&#9;&#9;&#9;l2.3,0.7c0.4,0.1,0.7,0.2,0.9,0.4c0.2,0.1,0.3,0.2,0.4,0.3c0.3,0.3,0.5,0.6,0.5,0.9C243.2,336.5,243,336.8,242.8,337.1z&#xA;&#9;&#9;&#9;&#9; M240.9,337.3c0.3-0.1,0.6-0.3,0.7-0.5c0.2-0.2,0.3-0.4,0.3-0.6c0-0.2-0.1-0.4-0.3-0.6c-0.1-0.1-0.2-0.1-0.3-0.2&#xA;&#9;&#9;&#9;&#9;c-0.2-0.1-0.3-0.2-0.5-0.2l-1.2-0.4l-2,2.2l1.3,0.4c0.3,0.1,0.7,0.2,1.1,0.2C240.3,337.4,240.6,337.4,240.9,337.3" id="el_iww_WlFPF5L"/>
		</g>
		<g id="el_M2hEYJMPsvh">
			<path d="M235.4,332.8l-0.5,4l-1.2-0.4l0.1-0.8l-2.7-0.9l-1.1,0.5l-1.1-0.3l5.4-2.5L235.4,332.8z M231.9,334.3l2,0.6&#xA;&#9;&#9;&#9;&#9;l0.3-1.7L231.9,334.3" id="el_VEerRnMu7hv"/>
		</g>
	</g>
</g>
</svg>