<svg version="1.1" id="el_Aw88Obv0l" xmlns="http://www.w3.org/2000/svg" xmlns:xlink="http://www.w3.org/1999/xlink" x="0px" y="0px" viewBox="0 0 433 423" style="enable-background:new 0 0 433.7 423.1;" xml:space="preserve"><style>@-webkit-keyframes kf_el_LpHky9orIdR_an_WlFLvLL4Z{0%{-webkit-transform: translate(295.1326904296875px, 206.9000015258789px) scale(0, 0) translate(-295.1326904296875px, -206.9000015258789px);transform: translate(295.1326904296875px, 206.9000015258789px) scale(0, 0) translate(-295.1326904296875px, -206.9000015258789px);}12%{-webkit-transform: translate(295.1326904296875px, 206.9000015258789px) scale(0, 0) translate(-295.1326904296875px, -206.9000015258789px);transform: translate(295.1326904296875px, 206.9000015258789px) scale(0, 0) translate(-295.1326904296875px, -206.9000015258789px);}16%{-webkit-transform: translate(295.1326904296875px, 206.9000015258789px) scale(1.1, 1.1) translate(-295.1326904296875px, -206.9000015258789px);transform: translate(295.1326904296875px, 206.9000015258789px) scale(1.1, 1.1) translate(-295.1326904296875px, -206.9000015258789px);}17%{-webkit-transform: translate(295.1326904296875px, 206.9000015258789px) scale(1, 1) translate(-295.1326904296875px, -206.9000015258789px);transform: translate(295.1326904296875px, 206.9000015258789px) scale(1, 1) translate(-295.1326904296875px, -206.9000015258789px);}100%{-webkit-transform: translate(295.1326904296875px, 206.9000015258789px) scale(1, 1) translate(-295.1326904296875px, -206.9000015258789px);transform: translate(295.1326904296875px, 206.9000015258789px) scale(1, 1) translate(-295.1326904296875px, -206.9000015258789px);}}@keyframes kf_el_LpHky9orIdR_an_WlFLvLL4Z{0%{-webkit-transform: translate(295.1326904296875px, 206.9000015258789px) scale(0, 0) translate(-295.1326904296875px, -206.9000015258789px);transform: translate(295.1326904296875px, 206.9000015258789px) scale(0, 0) translate(-295.1326904296875px, -206.9000015258789px);}12%{-webkit-transform: translate(295.1326904296875px, 206.9000015258789px) scale(0, 0) translate(-295.1326904296875px, -206.9000015258789px);transform: translate(295.1326904296875px, 206.9000015258789px) scale(0, 0) translate(-295.1326904296875px, -206.9000015258789px);}16%{-webkit-transform: translate(295.1326904296875px, 206.9000015258789px) scale(1.1, 1.1) translate(-295.1326904296875px, -206.9000015258789px);transform: translate(295.1326904296875px, 206.9000015258789px) scale(1.1, 1.1) translate(-295.1326904296875px, -206.9000015258789px);}17%{-webkit-transform: translate(295.1326904296875px, 206.9000015258789px) scale(1, 1) translate(-295.1326904296875px, -206.9000015258789px);transform: translate(295.1326904296875px, 206.9000015258789px) scale(1, 1) translate(-295.1326904296875px, -206.9000015258789px);}100%{-webkit-transform: translate(295.1326904296875px, 206.9000015258789px) scale(1, 1) translate(-295.1326904296875px, -206.9000015258789px);transform: translate(295.1326904296875px, 206.9000015258789px) scale(1, 1) translate(-295.1326904296875px, -206.9000015258789px);}}@-webkit-keyframes kf_el_RFdA3SsXONL_an_qOuzmHY0W{0%{-webkit-transform: translate(137.7888641357422px, 143.69999313354492px) scale(0, 0) translate(-137.7888641357422px, -143.69999313354492px);transform: translate(137.7888641357422px, 143.69999313354492px) scale(0, 0) translate(-137.7888641357422px, -143.69999313354492px);}8%{-webkit-transform: translate(137.7888641357422px, 143.69999313354492px) scale(0, 0) translate(-137.7888641357422px, -143.69999313354492px);transform: translate(137.7888641357422px, 143.69999313354492px) scale(0, 0) translate(-137.7888641357422px, -143.69999313354492px);}12%{-webkit-transform: translate(137.7888641357422px, 143.69999313354492px) scale(1.1, 1.1) translate(-137.7888641357422px, -143.69999313354492px);transform: translate(137.7888641357422px, 143.69999313354492px) scale(1.1, 1.1) translate(-137.7888641357422px, -143.69999313354492px);}13%{-webkit-transform: translate(137.7888641357422px, 143.69999313354492px) scale(1, 1) translate(-137.7888641357422px, -143.69999313354492px);transform: translate(137.7888641357422px, 143.69999313354492px) scale(1, 1) translate(-137.7888641357422px, -143.69999313354492px);}100%{-webkit-transform: translate(137.7888641357422px, 143.69999313354492px) scale(1, 1) translate(-137.7888641357422px, -143.69999313354492px);transform: translate(137.7888641357422px, 143.69999313354492px) scale(1, 1) translate(-137.7888641357422px, -143.69999313354492px);}}@keyframes kf_el_RFdA3SsXONL_an_qOuzmHY0W{0%{-webkit-transform: translate(137.7888641357422px, 143.69999313354492px) scale(0, 0) translate(-137.7888641357422px, -143.69999313354492px);transform: translate(137.7888641357422px, 143.69999313354492px) scale(0, 0) translate(-137.7888641357422px, -143.69999313354492px);}8%{-webkit-transform: translate(137.7888641357422px, 143.69999313354492px) scale(0, 0) translate(-137.7888641357422px, -143.69999313354492px);transform: translate(137.7888641357422px, 143.69999313354492px) scale(0, 0) translate(-137.7888641357422px, -143.69999313354492px);}12%{-webkit-transform: translate(137.7888641357422px, 143.69999313354492px) scale(1.1, 1.1) translate(-137.7888641357422px, -143.69999313354492px);transform: translate(137.7888641357422px, 143.69999313354492px) scale(1.1, 1.1) translate(-137.7888641357422px, -143.69999313354492px);}13%{-webkit-transform: translate(137.7888641357422px, 143.69999313354492px) scale(1, 1) translate(-137.7888641357422px, -143.69999313354492px);transform: translate(137.7888641357422px, 143.69999313354492px) scale(1, 1) translate(-137.7888641357422px, -143.69999313354492px);}100%{-webkit-transform: translate(137.7888641357422px, 143.69999313354492px) scale(1, 1) translate(-137.7888641357422px, -143.69999313354492px);transform: translate(137.7888641357422px, 143.69999313354492px) scale(1, 1) translate(-137.7888641357422px, -143.69999313354492px);}}@-webkit-keyframes kf_el_Cwq2nQ9VKkk_an_1yQf-mk7z{0%{-webkit-transform: translate(128.86504364013672px, 216.54998779296875px) translate(-128.86504364013672px, -216.54998779296875px) translate(10px, 0px);transform: translate(128.86504364013672px, 216.54998779296875px) translate(-128.86504364013672px, -216.54998779296875px) translate(10px, 0px);}100%{-webkit-transform: translate(128.86504364013672px, 216.54998779296875px) translate(-128.86504364013672px, -216.54998779296875px) translate(10px, 0px);transform: translate(128.86504364013672px, 216.54998779296875px) translate(-128.86504364013672px, -216.54998779296875px) translate(10px, 0px);}}@keyframes kf_el_Cwq2nQ9VKkk_an_1yQf-mk7z{0%{-webkit-transform: translate(128.86504364013672px, 216.54998779296875px) translate(-128.86504364013672px, -216.54998779296875px) translate(10px, 0px);transform: translate(128.86504364013672px, 216.54998779296875px) translate(-128.86504364013672px, -216.54998779296875px) translate(10px, 0px);}100%{-webkit-transform: translate(128.86504364013672px, 216.54998779296875px) translate(-128.86504364013672px, -216.54998779296875px) translate(10px, 0px);transform: translate(128.86504364013672px, 216.54998779296875px) translate(-128.86504364013672px, -216.54998779296875px) translate(10px, 0px);}}@-webkit-keyframes kf_el_Cwq2nQ9VKkk_an_06JxHESDW{0%{-webkit-transform: translate(128.86504364013672px, 216.54998779296875px) scale(0, 0) translate(-128.86504364013672px, -216.54998779296875px);transform: translate(128.86504364013672px, 216.54998779296875px) scale(0, 0) translate(-128.86504364013672px, -216.54998779296875px);}4%{-webkit-transform: translate(128.86504364013672px, 216.54998779296875px) scale(1.1, 1.1) translate(-128.86504364013672px, -216.54998779296875px);transform: translate(128.86504364013672px, 216.54998779296875px) scale(1.1, 1.1) translate(-128.86504364013672px, -216.54998779296875px);}5%{-webkit-transform: translate(128.86504364013672px, 216.54998779296875px) scale(1, 1) translate(-128.86504364013672px, -216.54998779296875px);transform: translate(128.86504364013672px, 216.54998779296875px) scale(1, 1) translate(-128.86504364013672px, -216.54998779296875px);}100%{-webkit-transform: translate(128.86504364013672px, 216.54998779296875px) scale(1, 1) translate(-128.86504364013672px, -216.54998779296875px);transform: translate(128.86504364013672px, 216.54998779296875px) scale(1, 1) translate(-128.86504364013672px, -216.54998779296875px);}}@keyframes kf_el_Cwq2nQ9VKkk_an_06JxHESDW{0%{-webkit-transform: translate(128.86504364013672px, 216.54998779296875px) scale(0, 0) translate(-128.86504364013672px, -216.54998779296875px);transform: translate(128.86504364013672px, 216.54998779296875px) scale(0, 0) translate(-128.86504364013672px, -216.54998779296875px);}4%{-webkit-transform: translate(128.86504364013672px, 216.54998779296875px) scale(1.1, 1.1) translate(-128.86504364013672px, -216.54998779296875px);transform: translate(128.86504364013672px, 216.54998779296875px) scale(1.1, 1.1) translate(-128.86504364013672px, -216.54998779296875px);}5%{-webkit-transform: translate(128.86504364013672px, 216.54998779296875px) scale(1, 1) translate(-128.86504364013672px, -216.54998779296875px);transform: translate(128.86504364013672px, 216.54998779296875px) scale(1, 1) translate(-128.86504364013672px, -216.54998779296875px);}100%{-webkit-transform: translate(128.86504364013672px, 216.54998779296875px) scale(1, 1) translate(-128.86504364013672px, -216.54998779296875px);transform: translate(128.86504364013672px, 216.54998779296875px) scale(1, 1) translate(-128.86504364013672px, -216.54998779296875px);}}@-webkit-keyframes kf_el_k2YlOntC5Pu_an_8A3_2ZVUS{0%{-webkit-transform: translate(307.95001220703125px, 117.44999694824219px) scale(0, 0) translate(-307.95001220703125px, -117.44999694824219px);transform: translate(307.95001220703125px, 117.44999694824219px) scale(0, 0) translate(-307.95001220703125px, -117.44999694824219px);}4%{-webkit-transform: translate(307.95001220703125px, 117.44999694824219px) scale(0, 0) translate(-307.95001220703125px, -117.44999694824219px);transform: translate(307.95001220703125px, 117.44999694824219px) scale(0, 0) translate(-307.95001220703125px, -117.44999694824219px);}8%{-webkit-transform: translate(307.95001220703125px, 117.44999694824219px) scale(1.1, 1.1) translate(-307.95001220703125px, -117.44999694824219px);transform: translate(307.95001220703125px, 117.44999694824219px) scale(1.1, 1.1) translate(-307.95001220703125px, -117.44999694824219px);}9%{-webkit-transform: translate(307.95001220703125px, 117.44999694824219px) scale(1, 1) translate(-307.95001220703125px, -117.44999694824219px);transform: translate(307.95001220703125px, 117.44999694824219px) scale(1, 1) translate(-307.95001220703125px, -117.44999694824219px);}100%{-webkit-transform: translate(307.95001220703125px, 117.44999694824219px) scale(1, 1) translate(-307.95001220703125px, -117.44999694824219px);transform: translate(307.95001220703125px, 117.44999694824219px) scale(1, 1) translate(-307.95001220703125px, -117.44999694824219px);}}@keyframes kf_el_k2YlOntC5Pu_an_8A3_2ZVUS{0%{-webkit-transform: translate(307.95001220703125px, 117.44999694824219px) scale(0, 0) translate(-307.95001220703125px, -117.44999694824219px);transform: translate(307.95001220703125px, 117.44999694824219px) scale(0, 0) translate(-307.95001220703125px, -117.44999694824219px);}4%{-webkit-transform: translate(307.95001220703125px, 117.44999694824219px) scale(0, 0) translate(-307.95001220703125px, -117.44999694824219px);transform: translate(307.95001220703125px, 117.44999694824219px) scale(0, 0) translate(-307.95001220703125px, -117.44999694824219px);}8%{-webkit-transform: translate(307.95001220703125px, 117.44999694824219px) scale(1.1, 1.1) translate(-307.95001220703125px, -117.44999694824219px);transform: translate(307.95001220703125px, 117.44999694824219px) scale(1.1, 1.1) translate(-307.95001220703125px, -117.44999694824219px);}9%{-webkit-transform: translate(307.95001220703125px, 117.44999694824219px) scale(1, 1) translate(-307.95001220703125px, -117.44999694824219px);transform: translate(307.95001220703125px, 117.44999694824219px) scale(1, 1) translate(-307.95001220703125px, -117.44999694824219px);}100%{-webkit-transform: translate(307.95001220703125px, 117.44999694824219px) scale(1, 1) translate(-307.95001220703125px, -117.44999694824219px);transform: translate(307.95001220703125px, 117.44999694824219px) scale(1, 1) translate(-307.95001220703125px, -117.44999694824219px);}}@-webkit-keyframes kf_el_ohz5qghr0yG_an_CSeLHcZO2{20%{-webkit-transform: translate(111.29999923706055px, 303.3000030517578px) translate(-111.29999923706055px, -303.3000030517578px) translate(0px, 0px);transform: translate(111.29999923706055px, 303.3000030517578px) translate(-111.29999923706055px, -303.3000030517578px) translate(0px, 0px);}23%{-webkit-transform: translate(111.29999923706055px, 303.3000030517578px) translate(-111.29999923706055px, -303.3000030517578px) translate(0px, -10px);transform: translate(111.29999923706055px, 303.3000030517578px) translate(-111.29999923706055px, -303.3000030517578px) translate(0px, -10px);}24.67%{-webkit-transform: translate(111.29999923706055px, 303.3000030517578px) translate(-111.29999923706055px, -303.3000030517578px) translate(0px, 0px);transform: translate(111.29999923706055px, 303.3000030517578px) translate(-111.29999923706055px, -303.3000030517578px) translate(0px, 0px);}0%{-webkit-transform: translate(111.29999923706055px, 303.3000030517578px) translate(-111.29999923706055px, -303.3000030517578px) translate(0px, 0px);transform: translate(111.29999923706055px, 303.3000030517578px) translate(-111.29999923706055px, -303.3000030517578px) translate(0px, 0px);}100%{-webkit-transform: translate(111.29999923706055px, 303.3000030517578px) translate(-111.29999923706055px, -303.3000030517578px) translate(0px, 0px);transform: translate(111.29999923706055px, 303.3000030517578px) translate(-111.29999923706055px, -303.3000030517578px) translate(0px, 0px);}}@keyframes kf_el_ohz5qghr0yG_an_CSeLHcZO2{20%{-webkit-transform: translate(111.29999923706055px, 303.3000030517578px) translate(-111.29999923706055px, -303.3000030517578px) translate(0px, 0px);transform: translate(111.29999923706055px, 303.3000030517578px) translate(-111.29999923706055px, -303.3000030517578px) translate(0px, 0px);}23%{-webkit-transform: translate(111.29999923706055px, 303.3000030517578px) translate(-111.29999923706055px, -303.3000030517578px) translate(0px, -10px);transform: translate(111.29999923706055px, 303.3000030517578px) translate(-111.29999923706055px, -303.3000030517578px) translate(0px, -10px);}24.67%{-webkit-transform: translate(111.29999923706055px, 303.3000030517578px) translate(-111.29999923706055px, -303.3000030517578px) translate(0px, 0px);transform: translate(111.29999923706055px, 303.3000030517578px) translate(-111.29999923706055px, -303.3000030517578px) translate(0px, 0px);}0%{-webkit-transform: translate(111.29999923706055px, 303.3000030517578px) translate(-111.29999923706055px, -303.3000030517578px) translate(0px, 0px);transform: translate(111.29999923706055px, 303.3000030517578px) translate(-111.29999923706055px, -303.3000030517578px) translate(0px, 0px);}100%{-webkit-transform: translate(111.29999923706055px, 303.3000030517578px) translate(-111.29999923706055px, -303.3000030517578px) translate(0px, 0px);transform: translate(111.29999923706055px, 303.3000030517578px) translate(-111.29999923706055px, -303.3000030517578px) translate(0px, 0px);}}@-webkit-keyframes kf_el_apuaqjiRnPO_an_Hc_ag-oFU4{0%{stroke-dasharray: 177.24;}6.67%{stroke-dasharray: 177.24;}100%{stroke-dasharray: 177.24;}}@keyframes kf_el_apuaqjiRnPO_an_Hc_ag-oFU4{0%{stroke-dasharray: 177.24;}6.67%{stroke-dasharray: 177.24;}100%{stroke-dasharray: 177.24;}}@-webkit-keyframes kf_el_apuaqjiRnPO_an_7dqGhpg3L{0%{stroke-dashoffset: 177.24;}6.67%{stroke-dashoffset: 177.24;}14.00%{stroke-dashoffset: 0;}100%{stroke-dashoffset: 0;}}@keyframes kf_el_apuaqjiRnPO_an_7dqGhpg3L{0%{stroke-dashoffset: 177.24;}6.67%{stroke-dashoffset: 177.24;}14.00%{stroke-dashoffset: 0;}100%{stroke-dashoffset: 0;}}@-webkit-keyframes kf_el_fIiHomuIwPU_an_C0dgKE-72T{0%{stroke-dasharray: 202.57;}6.67%{stroke-dasharray: 202.57;}100%{stroke-dasharray: 202.57;}}@keyframes kf_el_fIiHomuIwPU_an_C0dgKE-72T{0%{stroke-dasharray: 202.57;}6.67%{stroke-dasharray: 202.57;}100%{stroke-dasharray: 202.57;}}@-webkit-keyframes kf_el_fIiHomuIwPU_an_ws9KDsFSI{0%{stroke-dashoffset: 202.57;}6.67%{stroke-dashoffset: 202.57;}15%{stroke-dashoffset: 0;}100%{stroke-dashoffset: 0;}}@keyframes kf_el_fIiHomuIwPU_an_ws9KDsFSI{0%{stroke-dashoffset: 202.57;}6.67%{stroke-dashoffset: 202.57;}15%{stroke-dashoffset: 0;}100%{stroke-dashoffset: 0;}}#el_Aw88Obv0l *{-webkit-animation-duration: 10s;animation-duration: 10s;-webkit-animation-iteration-count: infinite;animation-iteration-count: infinite;-webkit-animation-timing-function: cubic-bezier(0, 0, 1, 1);animation-timing-function: cubic-bezier(0, 0, 1, 1);}#el_qDPFf97NP4{fill: #ABA4B0;}#el_4Ljs0a8Q4d{fill: #ABA4B0;}#el_EFbzqTBOIr{fill: #ABA4B0;}#el_I7oYGnIyQv{fill: #ABA4B0;}#el_J-pydLGrRn{fill: #ABA4B0;}#el_umc9pTiON9{fill: #ABA4B0;}#el_IICP4MnEfe{enable-background: new;}#el_zovqLT3pMi-{fill: #ABA4B0;}#el_siE1TaZ2e0i{fill: #ABA4B0;}#el_EqoEaP7TVmx{fill: #ABA4B0;}#el_1v6iQs0iwU1{fill: #ABA4B0;}#el_SCbvN2RF0Gy{fill: #ABA4B0;}#el_oOcALZPcNFq{fill: #ABA4B0;}#el_fIiHomuIwPU{fill: none;stroke: #6A53A3;stroke-miterlimit: 10;-webkit-animation-fill-mode: backwards, backwards;animation-fill-mode: backwards, backwards;stroke-dashoffset: 202.57;-webkit-animation-name: kf_el_fIiHomuIwPU_an_ws9KDsFSI, kf_el_fIiHomuIwPU_an_C0dgKE-72T;animation-name: kf_el_fIiHomuIwPU_an_ws9KDsFSI, kf_el_fIiHomuIwPU_an_C0dgKE-72T;-webkit-animation-timing-function: cubic-bezier(0, 0, 0.58, 1), cubic-bezier(0, 0, 1, 1);animation-timing-function: cubic-bezier(0, 0, 0.58, 1), cubic-bezier(0, 0, 1, 1);stroke-dasharray: 202.57;}#el_apuaqjiRnPO{fill: none;stroke: #A5509F;stroke-miterlimit: 10;-webkit-animation-fill-mode: backwards, backwards;animation-fill-mode: backwards, backwards;stroke-dashoffset: 177.24;-webkit-animation-name: kf_el_apuaqjiRnPO_an_7dqGhpg3L, kf_el_apuaqjiRnPO_an_Hc_ag-oFU4;animation-name: kf_el_apuaqjiRnPO_an_7dqGhpg3L, kf_el_apuaqjiRnPO_an_Hc_ag-oFU4;-webkit-animation-timing-function: cubic-bezier(0, 0, 0.58, 1), cubic-bezier(0, 0, 1, 1);animation-timing-function: cubic-bezier(0, 0, 0.58, 1), cubic-bezier(0, 0, 1, 1);stroke-dasharray: 177.24;}#el_c355Z-5QxXa{fill: #2C3B51;}#el_RvindRsWhH1{fill: #A5509F;}#el_cMinMwa5jhT{fill: url(#SVGID_1_);}#el_umJOXSt31kw{opacity: 0.15;}#el__g69AKVfJA0{fill: #FFFFFF;fill-opacity: 0;}#el_fUVT-v6Us2p{opacity: 2.439000e-02;fill: #FFFFFF;enable-background: new;}#el_eLc_XDGD2t4{opacity: 4.878000e-02;fill: #FFFFFF;enable-background: new;}#el_CgJsYUus0qy{opacity: 7.317100e-02;fill: #FFFFFF;enable-background: new;}#el_IbV1NXBe8aH{opacity: 9.756100e-02;fill: #FFFFFF;enable-background: new;}#el_E-tFabKqUbJ{opacity: 0.122;fill: #FFFFFF;enable-background: new;}#el_Nra1ENtHuLY{opacity: 0.1463;fill: #FFFFFF;enable-background: new;}#el_UBeH4YWxCLC{opacity: 0.1707;fill: #FFFFFF;enable-background: new;}#el_eAJ-_WVO6Nc{opacity: 0.1951;fill: #FFFFFF;enable-background: new;}#el_Bt_kl_jlMCn{opacity: 0.2195;fill: #FFFFFF;enable-background: new;}#el_zaQ5Zx2BN1r{opacity: 0.2439;fill: #FFFFFF;enable-background: new;}#el_-kTkpKe5li5{opacity: 0.2683;fill: #FFFFFF;enable-background: new;}#el_PMFjcwbbTEO{opacity: 0.2927;fill: #FFFFFF;enable-background: new;}#el_7cDHnjJWQz2{opacity: 0.3171;fill: #FFFFFF;enable-background: new;}#el_J2o_OGiY5J1{opacity: 0.3415;fill: #FFFFFF;enable-background: new;}#el_LDiu3Pdfail{opacity: 0.3659;fill: #FFFFFF;enable-background: new;}#el_qYVTKGwcEs1{opacity: 0.3902;fill: #FFFFFF;enable-background: new;}#el_dgW70FVP-rv{opacity: 0.4146;fill: #FFFFFF;enable-background: new;}#el_6WZNegypSch{opacity: 0.439;fill: #FFFFFF;enable-background: new;}#el_BTVv-CZpLQX{opacity: 0.4634;fill: #FFFFFF;enable-background: new;}#el_b8Iw0lHP1KY{opacity: 0.4878;fill: #FFFFFF;enable-background: new;}#el_kajO5aN0Zm4{opacity: 0.5122;fill: #FFFFFF;enable-background: new;}#el_ED-d9IUxka9{opacity: 0.5366;fill: #FFFFFF;enable-background: new;}#el_CLl63lYKB7Z{opacity: 0.561;fill: #FFFFFF;enable-background: new;}#el_RrWwkK1yqYe{opacity: 0.5854;fill: #FFFFFF;enable-background: new;}#el_y8VQLlq5fgS{opacity: 0.6098;fill: #FFFFFF;enable-background: new;}#el_-2PMBayuR0g{opacity: 0.6341;fill: #FFFFFF;enable-background: new;}#el_w78KFAO9rcX{opacity: 0.6585;fill: #FFFFFF;enable-background: new;}#el_5K4r1Fsh2Gu{opacity: 0.6829;fill: #FFFFFF;enable-background: new;}#el_Nocfy_s98uk{opacity: 0.7073;fill: #FFFFFF;enable-background: new;}#el_WbgcrvGvXhZ{opacity: 0.7317;fill: #FFFFFF;enable-background: new;}#el_DfdjgxehpV0{opacity: 0.7561;fill: #FFFFFF;enable-background: new;}#el_8_EcwEuUFwS{opacity: 0.7805;fill: #FFFFFF;enable-background: new;}#el_Z4lESuzQyt0{opacity: 0.8049;fill: #FFFFFF;enable-background: new;}#el_FXfoG79XMoO{opacity: 0.8293;fill: #FFFFFF;enable-background: new;}#el_1srZBwgUDnJ{opacity: 0.8537;fill: #FFFFFF;enable-background: new;}#el_2u2X-k4r3w3{opacity: 0.878;fill: #FFFFFF;enable-background: new;}#el_0tj9uVwpbbV{opacity: 0.9024;fill: #FFFFFF;enable-background: new;}#el_REhL5O9S29i{opacity: 0.9268;fill: #FFFFFF;enable-background: new;}#el_NpLAQuuKPeD{opacity: 0.9512;fill: #FFFFFF;enable-background: new;}#el_PqOKVO_4AU5{opacity: 0.9756;fill: #FFFFFF;enable-background: new;}#el_rEoPzY9tAQ8{fill: #FFFFFF;}#el_hZCOvZEwiHt{opacity: 5.000000e-02;}#el_Uw-uQFwLyVM{-webkit-clip-path: url(#SVGID_3_);clip-path: url(#SVGID_3_);fill: #F2EBF7;-webkit-transform: matrix(0.9962, -8.755349e-02, 8.755349e-02, 0.9962, -10.8724, 19.1319);transform: matrix(0.9962, -8.755349e-02, 8.755349e-02, 0.9962, -10.8724, 19.1319);}#el_sFAaiZMJQ5y{-webkit-clip-path: url(#SVGID_5_);clip-path: url(#SVGID_5_);fill: #F2EBF7;-webkit-transform: matrix(0.9962, -8.755349e-02, 8.755349e-02, 0.9962, -9.2757, 18.8337);transform: matrix(0.9962, -8.755349e-02, 8.755349e-02, 0.9962, -9.2757, 18.8337);}#el_B3y8oIMuhrK{-webkit-clip-path: url(#SVGID_7_);clip-path: url(#SVGID_7_);fill: #F2EBF7;-webkit-transform: matrix(0.9962, -8.755349e-02, 8.755349e-02, 0.9962, -13.7256, 19.485);transform: matrix(0.9962, -8.755349e-02, 8.755349e-02, 0.9962, -13.7256, 19.485);}#el_60F1_YGz2BO{fill: url(#SVGID_8_);}#el_hNQ2LsfnoOh{fill: #FFFFFF;}#el_Wkv_AhRnHov{fill: #FFFFFF;}#el_V2P-kM_UW0l{fill: #202227;}#el_O1pBQVuUNDt{fill: #202227;}#el_n28oEH2LNIo{fill: #202227;}#el_wDHxkSoTcGK{fill: #202227;}#el_umYchQg4Ser{fill: #202227;}#el_ACyuUJqiFDN{fill: url(#SVGID_9_);}#el_6w8Makgn1nx{fill: #B5CBE9;}#el_RPQ_hMp-kD8{fill: #BED1EC;}#el_cyggr6xMjSW{fill: #BED1EC;}#el_QCcNFQogDPk{fill: #BED1EC;}#el_ykv6f3bwTYV{fill: url(#SVGID_10_);}#el_c7JoVqK9-VF{fill: #FFFFFF;}#el_DtNt6lWwqmB{fill: url(#SVGID_11_);}#el_2nqizzjqaqR{fill: #B5CBE9;}#el_nmHVfgf5R3j{fill: url(#SVGID_12_);}#el_lABMoTQHSo5{fill: url(#SVGID_13_);}#el_6xm_OAh8FHW{fill: #8EACD8;}#el_n7pbusKSwhG{fill: #C4D5EE;}#el_1Ml24y1B4Ww{fill: #C4D5EE;}#el_QRfnagBlwia{fill: #C4D5EE;}#el_Y2Q8gsYktV2{fill: #E4ECF8;}#el_T6r1G0LWXuC{fill: #E4ECF8;}#el_5DhZq9FvkSm{fill: #E4ECF8;}#el_2mQOD5xxp-9{fill: url(#SVGID_14_);}#el_GOpXS4MdLmm{fill: #B5CBE9;}#el_CYXBwcKNl2n{fill: url(#XMLID_2_);}#el_zzMzgRifhoR{fill: #FFFFFF;}#el_42RMJsI0qZb{fill: #C4D5EE;}#el_EDh10DxRAEW{fill: #C4D5EE;}#el_uA9ojRzSVj8{fill: url(#SVGID_15_);}#el_UfLRng360HN{fill: #B5CBE9;}#el_DMgAi0t-2Um{fill: #E4ECF8;}#el_yT1opnXmnnz{fill: #E4ECF8;}#el_jUtKg4KtKGD{fill: url(#SVGID_16_);}#el_eVHo3eTDb04{fill: #E4ECF8;}#el_TmyE1gx9KJR{fill: url(#SVGID_17_);}#el_UNws8FGWKHh{fill: #E4ECF8;}#el_ohz5qghr0yG_an_CSeLHcZO2{-webkit-animation-fill-mode: backwards;animation-fill-mode: backwards;-webkit-transform: translate(111.29999923706055px, 303.3000030517578px) translate(-111.29999923706055px, -303.3000030517578px) translate(0px, 0px);transform: translate(111.29999923706055px, 303.3000030517578px) translate(-111.29999923706055px, -303.3000030517578px) translate(0px, 0px);-webkit-animation-name: kf_el_ohz5qghr0yG_an_CSeLHcZO2;animation-name: kf_el_ohz5qghr0yG_an_CSeLHcZO2;-webkit-animation-timing-function: cubic-bezier(0, 0, 0.58, 1);animation-timing-function: cubic-bezier(0, 0, 0.58, 1);}#el_k2YlOntC5Pu_an_8A3_2ZVUS{-webkit-animation-fill-mode: backwards;animation-fill-mode: backwards;-webkit-transform: translate(307.95001220703125px, 117.44999694824219px) scale(0, 0) translate(-307.95001220703125px, -117.44999694824219px);transform: translate(307.95001220703125px, 117.44999694824219px) scale(0, 0) translate(-307.95001220703125px, -117.44999694824219px);-webkit-animation-name: kf_el_k2YlOntC5Pu_an_8A3_2ZVUS;animation-name: kf_el_k2YlOntC5Pu_an_8A3_2ZVUS;-webkit-animation-timing-function: cubic-bezier(0, 0, 0.58, 1);animation-timing-function: cubic-bezier(0, 0, 0.58, 1);}#el_Cwq2nQ9VKkk_an_06JxHESDW{-webkit-animation-fill-mode: backwards;animation-fill-mode: backwards;-webkit-transform: translate(128.86504364013672px, 216.54998779296875px) scale(0, 0) translate(-128.86504364013672px, -216.54998779296875px);transform: translate(128.86504364013672px, 216.54998779296875px) scale(0, 0) translate(-128.86504364013672px, -216.54998779296875px);-webkit-animation-name: kf_el_Cwq2nQ9VKkk_an_06JxHESDW;animation-name: kf_el_Cwq2nQ9VKkk_an_06JxHESDW;-webkit-animation-timing-function: cubic-bezier(0, 0, 0.58, 1);animation-timing-function: cubic-bezier(0, 0, 0.58, 1);}#el_Cwq2nQ9VKkk_an_1yQf-mk7z{-webkit-animation-fill-mode: backwards;animation-fill-mode: backwards;-webkit-transform: translate(128.86504364013672px, 216.54998779296875px) translate(-128.86504364013672px, -216.54998779296875px) translate(10px, 0px);transform: translate(128.86504364013672px, 216.54998779296875px) translate(-128.86504364013672px, -216.54998779296875px) translate(10px, 0px);-webkit-animation-name: kf_el_Cwq2nQ9VKkk_an_1yQf-mk7z;animation-name: kf_el_Cwq2nQ9VKkk_an_1yQf-mk7z;-webkit-animation-timing-function: cubic-bezier(0, 0, 1, 1);animation-timing-function: cubic-bezier(0, 0, 1, 1);}#el_RFdA3SsXONL_an_qOuzmHY0W{-webkit-animation-fill-mode: backwards;animation-fill-mode: backwards;-webkit-transform: translate(137.7888641357422px, 143.69999313354492px) scale(0, 0) translate(-137.7888641357422px, -143.69999313354492px);transform: translate(137.7888641357422px, 143.69999313354492px) scale(0, 0) translate(-137.7888641357422px, -143.69999313354492px);-webkit-animation-name: kf_el_RFdA3SsXONL_an_qOuzmHY0W;animation-name: kf_el_RFdA3SsXONL_an_qOuzmHY0W;-webkit-animation-timing-function: cubic-bezier(0, 0, 0.58, 1);animation-timing-function: cubic-bezier(0, 0, 0.58, 1);}#el_LpHky9orIdR_an_WlFLvLL4Z{-webkit-animation-fill-mode: backwards;animation-fill-mode: backwards;-webkit-transform: translate(295.1326904296875px, 206.9000015258789px) scale(0, 0) translate(-295.1326904296875px, -206.9000015258789px);transform: translate(295.1326904296875px, 206.9000015258789px) scale(0, 0) translate(-295.1326904296875px, -206.9000015258789px);-webkit-animation-name: kf_el_LpHky9orIdR_an_WlFLvLL4Z;animation-name: kf_el_LpHky9orIdR_an_WlFLvLL4Z;-webkit-animation-timing-function: cubic-bezier(0, 0, 0.58, 1);animation-timing-function: cubic-bezier(0, 0, 0.58, 1);}</style>

<g id="el_GwbqwCECJT">
	<g id="el_vo0V-0S1w7">
		<polygon points="210.5,290.6 210.6,290.7 202.6,297.4 202.4,297.3 &#9;&#9;" id="el_qDPFf97NP4"/>
	</g>
	<g id="el_kykhSsFumK">
		<polygon points="333.8,308.6 334.1,308.5 319.5,320.8 319.3,320.8 &#9;&#9;" id="el_4Ljs0a8Q4d"/>
	</g>
	<g id="el_Bx--oMY8rK">
		<polygon points="275,317.7 258.6,331.6 258.4,331.5 274.8,317.7 &#9;&#9;" id="el_EFbzqTBOIr"/>
	</g>
	<g id="el_GzxJdL6Gfy">
		<polygon points="285.9,308.3 286,308.4 275.6,317.2 275.4,317.1 &#9;&#9;" id="el_I7oYGnIyQv"/>
	</g>
	<g id="el_w4kx3odHEj">
		<polygon points="244,303 244.2,303 234.9,310.9 234.7,310.8 &#9;&#9;" id="el_J-pydLGrRn"/>
	</g>
	<g id="el_9DA0mPPKr5">
		<polygon points="202,297.9 193.1,305.5 192.9,305.4 201.8,297.9 &#9;&#9;" id="el_umc9pTiON9"/>
	</g>
	<g id="el_IICP4MnEfe">
		<g id="el_re-8DptkQU">
			<polygon points="248.1,259 211.2,290.2 211.1,290.1 247.9,259 &#9;&#9;&#9;" id="el_zovqLT3pMi-"/>
		</g>
		<g id="el_LxrgFkpZwN7">
			<polygon points="280.7,272 280.9,272.1 244.8,302.5 244.6,302.5 &#9;&#9;&#9;" id="el_siE1TaZ2e0i"/>
		</g>
		<g id="el_T71HLYSndvt">
			<polygon points="313.6,285.1 286.6,307.9 286.5,307.8 313.4,285.1 &#9;&#9;&#9;" id="el_EqoEaP7TVmx"/>
		</g>
		<g id="el__aeXcNGhIG0">
			<polygon points="318.9,321.3 291.3,344.6 291.2,344.6 318.7,321.3 &#9;&#9;&#9;" id="el_1v6iQs0iwU1"/>
		</g>
	</g>
	<g id="el_rZ-MxpMbJc6">
		<polygon points="346.2,298.1 346.4,298.2 335,307.8 334.7,307.8 &#9;&#9;" id="el_SCbvN2RF0Gy"/>
	</g>
	<g id="el_3b4PlFQ6L7m">
		<polygon points="234.3,311.4 225.8,318.5 225.6,318.5 234.1,311.3 &#9;&#9;" id="el_oOcALZPcNFq"/>
	</g>
</g>
<polyline id="el_fIiHomuIwPU" points="162,293 284.9,307.9 318.7,321.3 360.7,327.2 "/>
<polyline id="el_apuaqjiRnPO" points="171.6,285.3 211,290 234.3,311.4 278.1,318.2 338.8,307.7 "/>
<g id="el_xGGHpOcNxOx">
	<g id="el_e3YzNcQ8dXD">
		<path id="el_c355Z-5QxXa" d="M245.3,308.3h-94.2c-10.6,0-19.2-8.6-19.2-19.2L162,68.8c0-7,5.7-12.6,12.6-12.6h92&#xA;&#9;&#9;&#9;c11.8,0,21.4,9.6,21.4,21.4l-30.2,218.1C257,302.8,252.3,308.3,245.3,308.3z"/>
		<path id="el_RvindRsWhH1" d="M240.7,303.3h-96c-7,0-12.6-5.7-12.6-12.6l30.2-221.8c0-7,5.7-12.6,12.6-12.6h96&#xA;&#9;&#9;&#9;c7,0,12.6,5.7,12.6,12.6l-30.2,221.8C251.9,297.4,247.7,303.3,240.7,303.3z"/>
		
			<linearGradient id="SVGID_1_" gradientUnits="userSpaceOnUse" x1="137.2187" y1="130.0577" x2="278.2783" y2="363.7462" gradientTransform="matrix(1 0 0 -1 0 426)">
			<stop offset="3.605769e-04" style="stop-color:#6A52A2"/>
			<stop offset="0.5806" style="stop-color:#8B51A0"/>
			<stop offset="1" style="stop-color:#A5509F"/>
		</linearGradient>
		<path d="M144.6,302.4c-6.4,0-11.7-5.2-11.7-11.6L163.1,69v-0.1c0-6.4,5.2-11.7,11.7-11.7h96c6.4,0,11.7,5.2,11.7,11.6&#xA;&#9;&#9;&#9;l-30.2,221.7c-1.2,5.7-4.9,11.8-11.7,11.8h-96V302.4z" id="el_cMinMwa5jhT"/>
		<g id="el_umJOXSt31kw">
			<path d="M277,59c1.1,1.8,1.8,3.9,1.8,6.1L263.7,176l-15.1,110.8c-1.2,5.7-4.9,11.8-11.7,11.8h-48h-48&#xA;&#9;&#9;&#9;&#9;c-2.3,0-4.4-0.7-6.2-1.8c2.1,3.3,5.7,5.5,9.9,5.5h48h48c6.8,0,10.5-6.1,11.7-11.8l15.1-110.8l15.1-110.8&#xA;&#9;&#9;&#9;&#9;C282.5,64.7,280.3,61.1,277,59z" id="el__g69AKVfJA0"/>
			<path d="M277.1,59.1c2,1.3,3.6,3.1,4.5,5.3c0.6,1.4,0.9,3,0.9,4.5l-15.1,110.7l-15.1,110.8&#xA;&#9;&#9;&#9;&#9;c-1.1,5.4-4.5,11.2-10.7,11.8c-0.3,0-0.7,0-1,0h-48h-47.9c-1.4,0-2.9-0.3-4.2-0.8c-2.4-0.9-4.4-2.6-5.8-4.7&#xA;&#9;&#9;&#9;&#9;c0.8,0.5,1.6,0.9,2.5,1.2c1.1,0.4,2.4,0.6,3.6,0.6h47.9h48c6.8,0,10.5-6.1,11.7-11.8L263.7,176l15.1-110.8c0-1.2-0.2-2.4-0.5-3.5&#xA;&#9;&#9;&#9;&#9;c0,0,0,0,0-0.1C277.9,60.7,277.5,59.9,277.1,59.1z" id="el_fUVT-v6Us2p"/>
			<path d="M277.1,59.2c2,1.3,3.6,3.2,4.5,5.4c0.6,1.3,0.9,3,0.9,4.5l-15,110.6l-15.1,110.8&#xA;&#9;&#9;&#9;&#9;c-1.1,5.4-4.5,11.2-10.7,11.7c-0.3,0-0.7,0-1,0h-48h-47.8c-1.4,0-2.9-0.3-4.2-0.7c-2.4-0.9-4.4-2.5-5.8-4.6&#xA;&#9;&#9;&#9;&#9;c0.8,0.5,1.6,0.9,2.5,1.1c1.1,0.4,2.4,0.6,3.6,0.6h47.8h48c6.9,0,10.6-6.1,11.7-11.9L263.8,176l15.1-110.7c0-1.2-0.2-2.5-0.5-3.5&#xA;&#9;&#9;&#9;&#9;c0,0,0,0,0-0.1C278,60.8,277.6,60,277.1,59.2z" id="el_eLc_XDGD2t4"/>
			<path d="M277.2,59.3c2,1.3,3.5,3.2,4.4,5.4c0.6,1.3,0.8,3,0.8,4.5l-15,110.5l-15.1,110.8&#xA;&#9;&#9;&#9;&#9;c-1.1,5.4-4.5,11.2-10.7,11.7c-0.3,0-0.7,0-1,0h-47.9H145c-1.4,0-3-0.3-4.2-0.7c-2.4-0.9-4.4-2.5-5.8-4.6&#xA;&#9;&#9;&#9;&#9;c0.8,0.5,1.6,0.8,2.5,1.1c1.1,0.4,2.5,0.5,3.6,0.5h47.7h48c6.9,0,10.6-6,11.8-11.9L263.8,176l15-110.6c0-1.1-0.2-2.5-0.5-3.5&#xA;&#9;&#9;&#9;&#9;c0,0,0,0,0-0.1C278,60.9,277.7,60.1,277.2,59.3z" id="el_CgJsYUus0qy"/>
			<path d="M277.3,59.4c2,1.3,3.5,3.2,4.3,5.4c0.5,1.3,0.8,3.1,0.8,4.5l-15,110.4l-15.1,110.8&#xA;&#9;&#9;&#9;&#9;c-1.1,5.4-4.5,11.2-10.7,11.7c-0.3,0-0.7,0-1,0h-47.9h-47.6c-1.3,0-3-0.2-4.1-0.7c-2.4-0.8-4.4-2.4-5.8-4.5&#xA;&#9;&#9;&#9;&#9;c0.8,0.5,1.6,0.8,2.5,1.1c1,0.3,2.5,0.5,3.6,0.5H189h48c6.9,0,10.6-6,11.8-11.9l15-110.7l15-110.5c0-1.1-0.1-2.5-0.5-3.5&#xA;&#9;&#9;&#9;&#9;c0,0,0,0,0-0.1C278.1,61,277.7,60.2,277.3,59.4z" id="el_IbV1NXBe8aH"/>
			<path d="M277.3,59.5c1.9,1.3,3.5,3.2,4.3,5.4c0.5,1.2,0.8,3.1,0.8,4.5l-15,110.3l-15.1,110.8&#xA;&#9;&#9;&#9;&#9;c-1.1,5.4-4.5,11.2-10.7,11.7c-0.3,0-0.7,0-1,0h-47.9h-47.5c-1.3,0-3-0.2-4.1-0.7c-2.4-0.8-4.4-2.4-5.8-4.4&#xA;&#9;&#9;&#9;&#9;c0.8,0.5,1.6,0.8,2.5,1.1c1,0.3,2.5,0.5,3.6,0.5H189h48c7,0,10.6-6,11.8-11.9L263.9,176l15-110.4c0-1.1-0.1-2.5-0.4-3.5&#xA;&#9;&#9;&#9;&#9;c0,0,0,0,0-0.1C278.2,61.1,277.8,60.3,277.3,59.5z" id="el_E-tFabKqUbJ"/>
			<path d="M277.4,59.6c1.9,1.3,3.4,3.2,4.2,5.5c0.5,1.2,0.7,3.2,0.7,4.5l-15,110.2l-15.1,110.8&#xA;&#9;&#9;&#9;&#9;c-1.1,5.4-4.5,11.2-10.7,11.7c-0.3,0-0.7,0-1,0h-47.9h-47.4c-1.3,0-3-0.2-4.1-0.7c-2.4-0.8-4.4-2.3-5.9-4.4&#xA;&#9;&#9;&#9;&#9;c0.8,0.4,1.6,0.8,2.5,1.1c1,0.3,2.6,0.5,3.6,0.5H189h48c7,0,10.6-5.9,11.8-11.9L263.9,176l15-110.4c0-1.1-0.1-2.6-0.4-3.5&#xA;&#9;&#9;&#9;&#9;c0,0,0,0,0-0.1C278.2,61.2,277.9,60.4,277.4,59.6z" id="el_Nra1ENtHuLY"/>
			<path d="M277.5,59.7c1.9,1.4,3.4,3.3,4.2,5.5c0.5,1.2,0.7,3.2,0.7,4.5l-15,110.1l-15.1,110.8&#xA;&#9;&#9;&#9;&#9;c-1.1,5.4-4.5,11.2-10.7,11.6c-0.3,0-0.7,0-1,0h-47.9h-47.3c-1.2,0-3.1-0.2-4.1-0.6c-2.4-0.8-4.4-2.3-5.9-4.3&#xA;&#9;&#9;&#9;&#9;c0.8,0.4,1.7,0.8,2.5,1c1,0.3,2.6,0.5,3.6,0.5H189h48c7,0,10.6-5.9,11.9-11.9L264,176l15-110.3c0-1-0.1-2.6-0.4-3.5&#xA;&#9;&#9;&#9;&#9;c0,0,0,0,0-0.1C278.3,61.3,277.9,60.5,277.5,59.7z" id="el_UBeH4YWxCLC"/>
			<path d="M277.6,59.8c1.9,1.4,3.3,3.3,4.1,5.5c0.5,1.1,0.6,3.2,0.6,4.5l-15,110l-15.1,110.8&#xA;&#9;&#9;&#9;&#9;c-1.1,5.4-4.5,11.2-10.7,11.6c-0.3,0-0.7,0-1,0h-47.8h-47.3c-1.2,0-3.1-0.2-4.1-0.6c-2.4-0.7-4.5-2.3-5.9-4.3&#xA;&#9;&#9;&#9;&#9;c0.8,0.4,1.7,0.8,2.6,1c0.9,0.3,2.6,0.5,3.6,0.5H189h48c7.1,0,10.7-5.9,11.9-12L264,176.1l15-110.2c0-1-0.1-2.6-0.4-3.5&#xA;&#9;&#9;&#9;&#9;c0,0,0,0,0-0.1C278.3,61.4,278,60.6,277.6,59.8z" id="el_eAJ-_WVO6Nc"/>
			<path d="M277.6,59.9c1.9,1.4,3.3,3.3,4.1,5.5c0.5,1.1,0.6,3.3,0.6,4.5l-14.9,109.9l-15.1,110.8&#xA;&#9;&#9;&#9;&#9;c-1.1,5.4-4.5,11.2-10.7,11.6c-0.3,0-0.7,0-1,0h-47.8h-47.2c-1.1,0-3.1-0.2-4.1-0.6c-2.4-0.7-4.5-2.2-5.9-4.2&#xA;&#9;&#9;&#9;&#9;c0.8,0.4,1.7,0.8,2.6,1c0.9,0.3,2.6,0.5,3.6,0.5H189h48c7.1,0,10.7-5.8,11.9-12L264,176.1L279,66c0-1-0.1-2.6-0.3-3.5&#xA;&#9;&#9;&#9;&#9;c0,0,0,0,0-0.1C278.4,61.5,278,60.7,277.6,59.9z" id="el_Bt_kl_jlMCn"/>
			<path d="M277.7,60c1.9,1.4,3.3,3.3,4,5.6c0.5,1.1,0.6,3.3,0.6,4.5l-14.9,109.8l-15.1,110.8&#xA;&#9;&#9;&#9;&#9;c-1.1,5.4-4.5,11.2-10.7,11.6c-0.2,0-0.7,0-1,0h-47.8h-47.1c-1.1,0-3.1-0.2-4.1-0.6c-2.4-0.7-4.5-2.2-5.9-4.1&#xA;&#9;&#9;&#9;&#9;c0.8,0.4,1.7,0.7,2.6,1c0.9,0.3,2.7,0.4,3.6,0.4H189h48c7.1,0,10.7-5.8,11.9-12L264,176.1l15-110c0-0.9,0-2.7-0.3-3.5&#xA;&#9;&#9;&#9;&#9;c0,0,0,0,0-0.1C278.4,61.6,278.1,60.8,277.7,60z" id="el_zaQ5Zx2BN1r"/>
			<path d="M277.8,60.1c1.8,1.4,3.2,3.4,3.9,5.6c0.4,1,0.5,3.3,0.5,4.5l-14.9,109.7l-15.1,110.8&#xA;&#9;&#9;&#9;&#9;c-1.1,5.4-4.5,11.1-10.7,11.6c-0.2,0-0.7,0-1,0h-47.8h-47c-1.1,0-3.2-0.2-4.1-0.6c-2.4-0.7-4.5-2.1-5.9-4.1&#xA;&#9;&#9;&#9;&#9;c0.8,0.4,1.7,0.7,2.6,0.9c0.8,0.3,2.7,0.4,3.6,0.4h47h48c7.2,0,10.7-5.8,11.9-12L263.9,176l15-109.9c0-0.9,0-2.7-0.3-3.5&#xA;&#9;&#9;&#9;&#9;c0,0,0,0,0-0.1C278.5,61.7,278.2,60.9,277.8,60.1z" id="el_-kTkpKe5li5"/>
			<path d="M277.8,60.2c1.8,1.4,3.2,3.4,3.9,5.6c0.4,1,0.5,3.4,0.5,4.5l-14.9,109.5l-15.1,110.8&#xA;&#9;&#9;&#9;&#9;c-1.1,5.4-4.5,11.1-10.7,11.5c-0.2,0-0.7,0-1,0h-47.7h-46.9c-1,0-3.2-0.2-4.1-0.5c-2.4-0.7-4.5-2.1-6-4c0.8,0.4,1.7,0.7,2.6,0.9&#xA;&#9;&#9;&#9;&#9;c0.8,0.3,2.7,0.4,3.6,0.4h47h48c7.2,0,10.7-5.7,12-12L264.1,176L279,66.3c0-0.9,0-2.7-0.3-3.5v-0.1&#xA;&#9;&#9;&#9;&#9;C278.5,61.8,278.2,61,277.8,60.2z" id="el_PMFjcwbbTEO"/>
			<path d="M277.9,60.3c1.8,1.4,3.2,3.4,3.8,5.6c0.4,1,0.5,3.4,0.5,4.5l-14.9,109.4l-15.1,110.8&#xA;&#9;&#9;&#9;&#9;c-1.1,5.4-4.5,11.1-10.7,11.5c-0.2,0-0.8,0-1,0h-47.7H146c-1,0-3.2-0.2-4.1-0.5c-2.4-0.6-4.5-2-6-3.9c0.8,0.4,1.7,0.7,2.6,0.9&#xA;&#9;&#9;&#9;&#9;c0.8,0.3,2.8,0.4,3.6,0.4H189h48c7.2,0,10.8-5.7,12-12.1L264.1,176L279,66.2c0-0.8,0-2.7-0.2-3.5v-0.1&#xA;&#9;&#9;&#9;&#9;C278.6,61.9,278.3,61.1,277.9,60.3z" id="el_7cDHnjJWQz2"/>
			<path d="M278,60.3c1.8,1.4,3.1,3.4,3.8,5.7c0.4,0.9,0.4,3.4,0.4,4.5l-14.9,109.3l-15.1,110.8&#xA;&#9;&#9;&#9;&#9;c-1.1,5.4-4.5,11.1-10.7,11.5c-0.2,0-0.8,0-1,0h-47.7h-46.7c-1,0-3.2-0.2-4.1-0.5c-2.4-0.6-4.5-2-6-3.9c0.8,0.4,1.7,0.7,2.6,0.9&#xA;&#9;&#9;&#9;&#9;c0.8,0.3,2.8,0.4,3.6,0.4H189h48c7.3,0,10.8-5.7,12-12.1L264.1,176L279,66.3c0-0.8,0-2.8-0.2-3.5v-0.1&#xA;&#9;&#9;&#9;&#9;C278.7,62,278.4,61.2,278,60.3z" id="el_J2o_OGiY5J1"/>
			<path d="M278,60.4c1.8,1.5,3.1,3.4,3.7,5.7c0.4,0.9,0.4,3.5,0.4,4.5l-14.9,109.2l-15.1,110.8&#xA;&#9;&#9;&#9;&#9;c-1.1,5.4-4.5,11.1-10.7,11.5c-0.2,0-0.8,0-1,0h-47.7h-46.6c-0.9,0-3.3-0.2-4.1-0.5c-2.4-0.6-4.5-1.9-6-3.8&#xA;&#9;&#9;&#9;&#9;c0.8,0.4,1.7,0.7,2.6,0.9c0.7,0.2,2.8,0.4,3.6,0.4h46.7h48c7.3,0.1,10.8-5.6,12-12.1L264,176.1l14.9-109.6c0-0.8,0-2.8-0.2-3.5&#xA;&#9;&#9;&#9;&#9;v-0.1C278.7,62.1,278.4,61.3,278,60.4z" id="el_LDiu3Pdfail"/>
			<path d="M278.1,60.5c1.8,1.5,3.1,3.5,3.6,5.7c0.4,0.9,0.3,3.5,0.3,4.5l-14.8,109.1l-15.1,110.8&#xA;&#9;&#9;&#9;&#9;c-1.1,5.4-4.5,11.1-10.7,11.5c-0.2,0-0.8,0-1,0h-47.6h-46.5c-0.9,0-3.3-0.2-4.1-0.5c-2.4-0.6-4.5-1.9-6-3.8&#xA;&#9;&#9;&#9;&#9;c0.8,0.4,1.7,0.7,2.6,0.8c0.7,0.2,2.9,0.4,3.6,0.4H189h48c7.3,0.1,10.8-5.6,12.1-12.1L264.2,176l14.9-109.5&#xA;&#9;&#9;&#9;&#9;c0-0.8,0.1-2.8-0.2-3.5v-0.1C278.8,62.2,278.5,61.4,278.1,60.5z" id="el_qYVTKGwcEs1"/>
			<path d="M278.2,60.6c1.8,1.5,3,3.5,3.6,5.7c0.4,0.8,0.3,3.5,0.3,4.5l-14.8,109l-15.1,110.8&#xA;&#9;&#9;&#9;&#9;c-1.1,5.3-4.5,11.1-10.7,11.5c-0.2,0-0.8,0-1,0h-47.6h-46.4c-0.9,0-3.3-0.2-4.1-0.5c-2.4-0.5-4.5-1.9-6.1-3.7&#xA;&#9;&#9;&#9;&#9;c0.8,0.4,1.7,0.6,2.6,0.8c0.7,0.2,2.9,0.3,3.6,0.3H189h48c7.4,0.1,10.8-5.6,12.1-12.1L264.2,176l14.9-109.5&#xA;&#9;&#9;&#9;&#9;c0-0.7,0.1-2.8-0.1-3.5v-0.1C278.8,62.3,278.6,61.4,278.2,60.6z" id="el_dgW70FVP-rv"/>
			<path d="M278.3,60.7c1.7,1.5,3,3.5,3.5,5.8c0.3,0.8,0.3,3.6,0.3,4.5l-14.8,108.9l-15.1,110.8&#xA;&#9;&#9;&#9;&#9;c-1.1,5.3-4.5,11.1-10.7,11.4c-0.2,0-0.8,0-1,0h-47.6h-46.3c-0.8,0-3.3-0.2-4.1-0.4c-2.4-0.5-4.5-1.8-6.1-3.6&#xA;&#9;&#9;&#9;&#9;c0.8,0.4,1.7,0.6,2.6,0.8c0.6,0.2,2.9,0.3,3.6,0.3H189h48c7.4,0.1,10.9-5.6,12.1-12.1l15.1-110.9l14.9-109.4&#xA;&#9;&#9;&#9;&#9;c0-0.7,0.1-2.9-0.1-3.5v-0.1C278.9,62.4,278.6,61.5,278.3,60.7z" id="el_6WZNegypSch"/>
			<path d="M278.3,60.8c1.7,1.5,2.9,3.5,3.5,5.8c0.3,0.7,0.2,3.6,0.2,4.5l-14.8,108.8l-15.1,110.8&#xA;&#9;&#9;&#9;&#9;c-1.1,5.3-4.5,11.1-10.7,11.4c-0.2,0-0.8,0-1,0h-47.6h-46.2c-0.8,0-3.4-0.1-4-0.4c-2.4-0.5-4.5-1.8-6.1-3.6&#xA;&#9;&#9;&#9;&#9;c0.8,0.4,1.7,0.6,2.6,0.8c0.6,0.2,3,0.3,3.6,0.3H189h48c7.4,0.1,10.9-5.5,12.1-12.2l15.1-110.9l14.9-109.3c0-0.7,0.1-2.9-0.1-3.5&#xA;&#9;&#9;&#9;&#9;v-0.1C278.9,62.5,278.7,61.6,278.3,60.8z" id="el_BTVv-CZpLQX"/>
			<path d="M278.4,60.9c1.7,1.5,2.9,3.6,3.4,5.8c0.3,0.7,0.2,3.7,0.2,4.5l-14.8,108.7l-15.1,110.8&#xA;&#9;&#9;&#9;&#9;c-1.1,5.3-4.5,11.1-10.7,11.4c-0.2,0-0.8,0-1,0h-47.5h-46.1c-0.8,0-3.4-0.1-4-0.4c-2.4-0.5-4.5-1.7-6.1-3.5&#xA;&#9;&#9;&#9;&#9;c0.8,0.3,1.7,0.6,2.6,0.8c0.6,0.2,3,0.3,3.6,0.3h46.2h48c7.5,0.1,10.9-5.5,12.1-12.2l15.1-110.9L279.2,67c0-0.6,0.1-2.9-0.1-3.5&#xA;&#9;&#9;&#9;&#9;v-0.1C279,62.6,278.7,61.7,278.4,60.9z" id="el_b8Iw0lHP1KY"/>
			<path d="M278.5,61c1.7,1.5,2.9,3.6,3.4,5.8c0.3,0.7,0.2,3.7,0.2,4.5l-14.8,108.6l-15.1,110.8&#xA;&#9;&#9;&#9;&#9;c-1.1,5.3-4.5,11.1-10.7,11.4c-0.2,0-0.8,0-1,0H193h-46c-0.7,0-3.4-0.1-4-0.4c-2.4-0.4-4.5-1.7-6.1-3.4c0.8,0.3,1.7,0.6,2.6,0.7&#xA;&#9;&#9;&#9;&#9;c0.6,0.2,3,0.3,3.6,0.3h46.2h48c7.5,0.1,10.9-5.5,12.2-12.2l15.1-110.9l14.8-109.1c0-0.6,0.1-2.9,0-3.5v-0.1&#xA;&#9;&#9;&#9;&#9;C279.1,62.7,278.8,61.8,278.5,61z" id="el_kajO5aN0Zm4"/>
			<path d="M278.5,61.1c1.7,1.6,2.8,3.6,3.3,5.9c0.3,0.6,0.1,3.7,0.1,4.5L267.1,180L252,290.8&#xA;&#9;&#9;&#9;&#9;c-1.1,5.3-4.5,11.1-10.7,11.4c-0.2,0-0.8,0-1,0h-47.5H147c-0.7,0-3.4-0.1-4-0.4c-2.4-0.4-4.5-1.6-6.1-3.4&#xA;&#9;&#9;&#9;&#9;c0.8,0.3,1.7,0.6,2.6,0.7c0.5,0.2,3,0.3,3.6,0.3h46.1h48c7.5,0.1,10.9-5.4,12.2-12.2l15.1-110.9l14.8-109c0-0.6,0.2-3,0-3.5v-0.1&#xA;&#9;&#9;&#9;&#9;C279.1,62.8,278.9,61.9,278.5,61.1z" id="el_ED-d9IUxka9"/>
			<path d="M278.6,61.2c1.7,1.6,2.8,3.6,3.2,5.9c0.3,0.6,0.1,3.8,0.1,4.5l-14.7,108.3l-15.1,110.8&#xA;&#9;&#9;&#9;&#9;c-1.1,5.3-4.5,11.1-10.7,11.3c-0.1,0-0.8,0-1,0h-47.5h-45.8c-0.6,0-3.5-0.1-4-0.3c-2.4-0.4-4.5-1.6-6.2-3.3&#xA;&#9;&#9;&#9;&#9;c0.8,0.3,1.7,0.6,2.6,0.7c0.5,0.2,3.1,0.3,3.6,0.3h46h48c7.5,0.1,11-5.4,12.2-12.2l15.1-110.9l14.8-109c0-0.5,0.2-3,0-3.5v-0.1&#xA;&#9;&#9;&#9;&#9;C279.2,62.9,278.9,62,278.6,61.2z" id="el_CLl63lYKB7Z"/>
			<path d="M278.7,61.3c1.6,1.6,2.8,3.6,3.2,5.9c0.3,0.6,0,3.8,0,4.5l-14.7,108.2l-15.1,110.8&#xA;&#9;&#9;&#9;&#9;c-1.1,5.3-4.5,11.1-10.7,11.3c-0.1,0-0.8,0-1,0h-47.5h-45.7c-0.6,0-3.5-0.1-4-0.3c-2.4-0.4-4.5-1.5-6.2-3.3&#xA;&#9;&#9;&#9;&#9;c0.8,0.3,1.7,0.5,2.6,0.7c0.5,0.2,3.1,0.2,3.6,0.2h45.9h48c7.6,0.1,11-5.4,12.2-12.3l15.1-110.9l14.8-108.9c0-0.5,0.2-3,0-3.5&#xA;&#9;&#9;&#9;&#9;v-0.1C279.2,63,279,62.1,278.7,61.3z" id="el_RrWwkK1yqYe"/>
			<path d="M278.8,61.4c1.6,1.6,2.7,3.7,3.1,5.9c0.2,0.5,0,3.8,0,4.5l-14.7,108.1l-15.1,110.8&#xA;&#9;&#9;&#9;&#9;c-1.1,5.3-4.5,11.1-10.7,11.3c-0.1,0-0.8,0-1,0H193h-45.6c-0.6,0-3.5-0.1-4-0.3c-2.4-0.4-4.6-1.5-6.2-3.2&#xA;&#9;&#9;&#9;&#9;c0.8,0.3,1.7,0.5,2.6,0.6c0.4,0.1,3.1,0.2,3.6,0.2h45.8h48c7.6,0.1,11-5.3,12.3-12.3l15.1-110.9l14.8-108.8c0-0.5,0.2-3,0.1-3.5&#xA;&#9;&#9;&#9;&#9;v-0.1C279.3,63.1,279.1,62.2,278.8,61.4z" id="el_y8VQLlq5fgS"/>
			<path d="M278.8,61.5c1.6,1.6,2.7,3.7,3.1,6c0.2,0.5,0,3.9,0,4.5l-14.7,108l-15.1,110.8c-1.1,5.3-4.5,11.1-10.7,11.3&#xA;&#9;&#9;&#9;&#9;c-0.1,0-0.8,0-1,0H193h-45.5c-0.5,0-3.5-0.1-4-0.3c-2.4-0.3-4.6-1.5-6.2-3.1c0.9,0.3,1.7,0.5,2.6,0.6c0.4,0.1,3.2,0.2,3.6,0.2&#xA;&#9;&#9;&#9;&#9;h45.7h48c7.6,0.1,11-5.3,12.3-12.3l15.1-110.9l14.8-108.7c0-0.5,0.2-3.1,0.1-3.5V64C279.3,63.2,279.1,62.3,278.8,61.5z" id="el_-2PMBayuR0g"/>
			<path d="M278.9,61.6c1.6,1.6,2.7,3.7,3,6c0.2,0.5-0.1,3.9-0.1,4.5L267.1,180L252,290.8c-1.1,5.3-4.5,11.1-10.7,11.3&#xA;&#9;&#9;&#9;&#9;c-0.1,0-0.9,0-1,0H193h-45.4c-0.5,0-3.6-0.1-4-0.3c-2.4-0.3-4.6-1.4-6.2-3.1c0.9,0.3,1.7,0.5,2.6,0.6c0.4,0.1,3.2,0.2,3.6,0.2&#xA;&#9;&#9;&#9;&#9;h45.6h48c7.7,0.1,11-5.3,12.3-12.3l15.1-110.9l14.8-108.6c0-0.4,0.2-3.1,0.1-3.5v-0.1C279.4,63.3,279.2,62.4,278.9,61.6z" id="el_w78KFAO9rcX"/>
			<path d="M279,61.7c1.6,1.6,2.6,3.7,2.9,6c0.2,0.4-0.1,3.9-0.1,4.5L267.1,180L252,290.8c-1.1,5.3-4.5,11.1-10.7,11.2&#xA;&#9;&#9;&#9;&#9;c-0.1,0-0.9,0-1,0H193h-45.3c-0.5,0-3.6-0.1-4-0.2c-2.4-0.3-4.6-1.4-6.2-3c0.9,0.3,1.7,0.5,2.7,0.6c0.4,0.1,3.2,0.2,3.6,0.2h45.5&#xA;&#9;&#9;&#9;&#9;h48c7.7,0.1,11.1-5.2,12.3-12.3l15.1-110.9l14.8-108.5c0-0.4,0.3-3.1,0.1-3.5v-0.1C279.4,63.4,279.2,62.5,279,61.7z" id="el_5K4r1Fsh2Gu"/>
			<path d="M279,61.8c1.6,1.6,2.6,3.8,2.9,6.1c0.2,0.4-0.1,4-0.1,4.5L267.1,180L252,290.8c-1.1,5.3-4.5,11.1-10.7,11.2&#xA;&#9;&#9;&#9;&#9;c-0.1,0-0.9,0-1,0H193h-45.2c-0.4,0-3.6-0.1-4-0.2c-2.4-0.3-4.6-1.3-6.3-2.9c0.9,0.3,1.7,0.5,2.7,0.6c0.3,0.1,3.3,0.2,3.6,0.2&#xA;&#9;&#9;&#9;&#9;h45.5h48c7.7,0.1,11.1-5.2,12.3-12.3l15.1-110.9L279.5,68c0-0.4,0.3-3.1,0.2-3.5v-0.1C279.5,63.5,279.3,62.6,279,61.8z" id="el_Nocfy_s98uk"/>
			<path d="M279.1,61.9c1.5,1.7,2.6,3.8,2.8,6.1c0.2,0.4-0.2,4-0.2,4.5L267.1,180L252,290.8&#xA;&#9;&#9;&#9;&#9;c-1.1,5.3-4.5,11.1-10.7,11.2c-0.1,0-0.9,0-1,0H193h-45.2c-0.4,0-3.6-0.1-4-0.2c-2.4-0.2-4.6-1.3-6.3-2.9&#xA;&#9;&#9;&#9;&#9;c0.9,0.3,1.8,0.5,2.7,0.5c0.3,0.1,3.3,0.2,3.6,0.2h45.4h48c7.8,0.1,11.1-5.2,12.4-12.4l15.1-110.9L279.5,68&#xA;&#9;&#9;&#9;&#9;c0-0.3,0.3-3.2,0.2-3.5v-0.1C279.6,63.6,279.4,62.7,279.1,61.9z" id="el_WbgcrvGvXhZ"/>
			<path d="M279.2,62c1.5,1.7,2.5,3.8,2.8,6.1c0.1,0.3-0.2,4.1-0.2,4.5L267.1,180L252,290.8&#xA;&#9;&#9;&#9;&#9;c-1.1,5.3-4.5,11.1-10.8,11.2c-0.1,0-0.9,0-1,0H193h-45c-0.4,0-3.7-0.1-4-0.2c-2.4-0.2-4.6-1.2-6.3-2.8c0.9,0.3,1.8,0.4,2.7,0.5&#xA;&#9;&#9;&#9;&#9;c0.3,0.1,3.3,0.1,3.6,0.1h45.3h48c7.8,0.1,11.1-5.1,12.4-12.4l15.1-110.9L279.5,68c0-0.3,0.3-3.2,0.2-3.5v-0.1&#xA;&#9;&#9;&#9;&#9;C279.6,63.7,279.4,62.8,279.2,62z" id="el_DfdjgxehpV0"/>
			<path d="M279.2,62.1c1.5,1.7,2.5,3.8,2.7,6.1c0.1,0.3-0.3,4.1-0.3,4.4L267.1,180L252,290.8&#xA;&#9;&#9;&#9;&#9;c-1.1,5.3-4.5,11-10.8,11.2c-0.1,0-0.9,0-1,0H193h-45c-0.3,0-3.7-0.1-4-0.2c-2.4-0.2-4.6-1.2-6.3-2.7c0.9,0.3,1.8,0.4,2.7,0.5&#xA;&#9;&#9;&#9;&#9;c0.3,0.1,3.3,0.1,3.6,0.1h45.2h48c7.8,0.1,11.1-5.1,12.4-12.4l15.1-110.9l14.7-108.2c0-0.3,0.3-3.2,0.2-3.5v-0.1&#xA;&#9;&#9;&#9;&#9;C279.7,63.8,279.5,62.9,279.2,62.1z" id="el_8_EcwEuUFwS"/>
			<path d="M279.3,62.2c1.5,1.7,2.4,3.8,2.6,6.2c0.1,0.3-0.3,4.1-0.3,4.4L267.1,180L252,290.8&#xA;&#9;&#9;&#9;&#9;c-1.1,5.3-4.5,11-10.8,11.2c-0.1,0-0.9,0-1,0H193h-44.9c-0.3,0-3.7-0.1-4-0.2c-2.4-0.2-4.6-1.1-6.3-2.7c0.9,0.3,1.8,0.4,2.7,0.5&#xA;&#9;&#9;&#9;&#9;c0.2,0.1,3.4,0.1,3.6,0.1h45.1h48c7.9,0.1,11.1-5.1,12.4-12.4l15.1-110.9l14.7-108.1c0-0.2,0.3-3.2,0.3-3.5v-0.1&#xA;&#9;&#9;&#9;&#9;C279.7,63.9,279.6,63,279.3,62.2z" id="el_Z4lESuzQyt0"/>
			<path d="M279.4,62.3c1.5,1.7,2.4,3.9,2.6,6.2c0.1,0.2-0.3,4.2-0.3,4.4L267.1,180L252,290.9&#xA;&#9;&#9;&#9;&#9;c-1.1,5.3-4.5,11-10.8,11.1c-0.1,0-0.9,0-1,0H193h-44.8c-0.3,0-3.7,0-4-0.1c-2.4-0.2-4.6-1.1-6.4-2.6c0.9,0.2,1.8,0.4,2.7,0.5&#xA;&#9;&#9;&#9;&#9;c0.2,0.1,3.4,0.1,3.6,0.1h45h48c7.9,0.1,11.2-5,12.5-12.4l15.1-110.9l14.7-108.1c0-0.2,0.4-3.3,0.3-3.5v-0.1&#xA;&#9;&#9;&#9;&#9;C279.8,64,279.6,63.1,279.4,62.3z" id="el_FXfoG79XMoO"/>
			<path d="M279.5,62.4c1.5,1.7,2.4,3.9,2.5,6.2c0.1,0.2-0.4,4.2-0.4,4.4L267,180l-15,110.9c-1.1,5.3-4.5,11-10.8,11.1&#xA;&#9;&#9;&#9;&#9;c0,0-0.9,0-1,0H193h-44.7c-0.2,0-3.8,0-3.9-0.1c-2.4-0.1-4.6-1-6.4-2.6c0.9,0.2,1.8,0.4,2.7,0.4c0.2,0.1,3.4,0.1,3.6,0.1h44.9h48&#xA;&#9;&#9;&#9;&#9;c7.9,0.1,11.2-5,12.5-12.5l15.1-110.9l14.7-108c0-0.2,0.4-3.3,0.3-3.5v-0.1C279.8,64.1,279.7,63.2,279.5,62.4z" id="el_1srZBwgUDnJ"/>
			<path d="M279.5,62.4c1.5,1.7,2.3,3.9,2.5,6.2c0.1,0.2-0.4,4.2-0.4,4.4L267,180l-15,110.9c-1.1,5.3-4.5,11-10.8,11.1&#xA;&#9;&#9;&#9;&#9;c0,0-0.9,0-1,0H193h-44.6c-0.2,0-3.8,0-3.9-0.1c-2.4-0.1-4.6-1-6.4-2.5c0.9,0.2,1.8,0.4,2.7,0.4c0.1,0,3.5,0.1,3.6,0.1h44.8h48&#xA;&#9;&#9;&#9;&#9;c8,0.1,11.2-5,12.5-12.5l15.1-110.9l14.7-107.9c0-0.2,0.4-3.3,0.3-3.5V65C279.9,64.2,279.8,63.3,279.5,62.4z" id="el_2u2X-k4r3w3"/>
			<path d="M279.6,62.5c1.4,1.8,2.3,3.9,2.4,6.3c0.1,0.1-0.5,4.3-0.5,4.4L267,180.1l-15,110.8&#xA;&#9;&#9;&#9;&#9;c-1.1,5.3-4.5,11-10.8,11.1c0,0-0.9,0-1,0H193h-44.5c-0.1,0-3.8,0-3.9-0.1c-2.4-0.1-4.6-1-6.4-2.4c0.9,0.2,1.8,0.4,2.7,0.4&#xA;&#9;&#9;&#9;&#9;c0.1,0,3.5,0.1,3.6,0.1h44.7h48c8,0.1,11.2-4.9,12.5-12.5l15.3-111l14.7-107.8c0-0.1,0.4-3.3,0.4-3.4v-0.1&#xA;&#9;&#9;&#9;&#9;C279.9,64.3,279.8,63.4,279.6,62.5z" id="el_0tj9uVwpbbV"/>
			<path d="M279.7,62.6c1.4,1.8,2.3,4,2.4,6.3c0,0.1-0.5,4.3-0.5,4.4L267,180.1l-15.1,110.8c-1.1,5.3-4.5,11-10.8,11.1&#xA;&#9;&#9;&#9;&#9;c0,0-0.9,0-1,0H193h-44.4c-0.1,0-3.8,0-3.9-0.1c-2.4-0.1-4.6-0.9-6.4-2.4c0.9,0.2,1.8,0.3,2.7,0.4c0.1,0,3.5,0,3.6,0h44.7h48&#xA;&#9;&#9;&#9;&#9;c8,0.1,11.2-4.9,12.6-12.5L265,176.5l14.7-107.7c0-0.1,0.4-3.4,0.4-3.4v-0.1C280,64.4,279.9,63.5,279.7,62.6z" id="el_REhL5O9S29i"/>
			<path d="M279.7,62.7c1.4,1.8,2.2,4,2.3,6.3c0,0.1-0.5,4.3-0.5,4.4L267,180.1l-15.1,110.8c-1.1,5.3-4.5,11-10.8,11&#xA;&#9;&#9;&#9;&#9;c0,0-0.9,0-1,0H193h-44.3c-0.1,0-3.9,0-3.9,0c-2.4,0-4.6-0.9-6.4-2.3c0.9,0.2,1.8,0.3,2.7,0.3c0.1,0,3.6,0,3.6,0h44.6h48&#xA;&#9;&#9;&#9;&#9;c8.1,0.1,11.3-4.9,12.6-12.5L265,176.5l14.6-107.6c0-0.1,0.4-3.4,0.4-3.4v-0.1C280.1,64.5,279.9,63.6,279.7,62.7z" id="el_NpLAQuuKPeD"/>
			<path d="M279.8,62.8c1.4,1.8,2.2,4,2.2,6.3l-0.6,4.4L267,180.1l-15.1,110.8c-1.1,5.3-4.5,11-10.8,11c0,0-0.9,0-1,0&#xA;&#9;&#9;&#9;&#9;H193h-44.2h-3.9c-2.4,0-4.6-0.8-6.5-2.2c0.9,0.2,1.8,0.3,2.7,0.3h3.6h44.5h48c8.1,0.1,11.3-4.8,12.6-12.5l15.1-110.9L279.7,69&#xA;&#9;&#9;&#9;&#9;c0,0,0.5-3.4,0.4-3.4v-0.1C280.1,64.6,280,63.7,279.8,62.8z" id="el_PqOKVO_4AU5"/>
			<path d="M145.1,301.9c-2.4,0-4.6-0.8-6.5-2.2c0.9,0.2,1.8,0.3,2.7,0.3h48h48c8.1,0.1,11.3-4.8,12.6-12.6L265,176.5&#xA;&#9;&#9;&#9;&#9;l15.1-110.9v-0.1c0-0.9-0.1-1.8-0.3-2.7c1.4,1.8,2.2,4,2.2,6.4l-15,110.9l-15.1,110.8c-1.1,5.3-4.5,11-10.8,11h-48L145.1,301.9&#xA;&#9;&#9;&#9;&#9;L145.1,301.9z" id="el_rEoPzY9tAQ8"/>
		</g>
		<g id="el_hZCOvZEwiHt">
			<g id="el_4PhGvEHS59Y">
				<defs>
					<path id="SVGID_2_" d="M159.6,306.7c-6.4,0.6-12.1-4.2-12.7-10.5l10.7-223.6v0c-0.6-6.4,4.2-12.1,10.6-12.7l95.6-8.4&#xA;&#9;&#9;&#9;&#9;&#9;&#9;c6.4-0.6,12.1,4.2,12.7,10.5l-10.7,223.5c-0.7,5.8-3.8,12.2-10.6,12.8L159.6,306.7z"/>
				</defs>
				<clipPath id="SVGID_3_">
					<use xlink:href="#SVGID_2_" style="overflow:visible;"/>
				</clipPath>
				
					<rect x="121.9" y="127.5" width="181.5" height="12" id="el_Uw-uQFwLyVM"/>
			</g>
			<g id="el_DyENoNF4X7a">
				<defs>
					<path id="SVGID_4_" d="M161.2,306.4c-6.4,0.6-12.1-4.2-12.7-10.5l10.7-223.6v0c-0.6-6.4,4.2-12.1,10.6-12.7l95.6-8.4&#xA;&#9;&#9;&#9;&#9;&#9;&#9;c6.4-0.6,12.1,4.2,12.7,10.5l-10.7,223.5c-0.7,5.8-3.8,12.2-10.6,12.8L161.2,306.4z"/>
				</defs>
				<clipPath id="SVGID_5_">
					<use xlink:href="#SVGID_4_" style="overflow:visible;"/>
				</clipPath>
				
					<rect x="119.3" y="112.8" width="181.5" height="4.7" id="el_sFAaiZMJQ5y"/>
			</g>
			<g id="el_p4bACCVLvd9">
				<defs>
					<path id="SVGID_6_" d="M156.7,307.1c-6.4,0.6-12.1-4.2-12.7-10.5l10.7-223.6v0c-0.6-6.4,4.2-12.1,10.6-12.7l95.6-8.4&#xA;&#9;&#9;&#9;&#9;&#9;&#9;c6.4-0.6,12.1,4.2,12.7,10.5L263,285.9c-0.7,5.8-3.8,12.2-10.6,12.8L156.7,307.1z"/>
				</defs>
				<clipPath id="SVGID_7_">
					<use xlink:href="#SVGID_6_" style="overflow:visible;"/>
				</clipPath>
				
					<rect x="124.5" y="149.2" width="181.5" height="34" id="el_B3y8oIMuhrK"/>
			</g>
		</g>
	</g>
</g>
<g id="el_ohz5qghr0yG_an_CSeLHcZO2" data-animator-group="true" data-animator-type="0"><g id="el_ohz5qghr0yG">
	
		<linearGradient id="SVGID_8_" gradientUnits="userSpaceOnUse" x1="-6681.625" y1="-470.425" x2="-6636.375" y2="-515.6749" gradientTransform="matrix(4.489700e-11 -1 -1 -4.489700e-11 -381.75 -6355.75)">
		<stop offset="3.605769e-04" style="stop-color:#6A53A2"/>
		<stop offset="0.5806" style="stop-color:#8A52A0"/>
		<stop offset="1" style="stop-color:#A4509E"/>
	</linearGradient>
	<polygon points="82.6,286.7 82.6,319.8 111.3,336.4 140,319.8 140,286.7 111.3,270.2 &#9;" id="el_60F1_YGz2BO"/>
	<g id="el_kJEKglXsbZ6">
		<path d="M123.5,299.4c-0.5,6.4-6.9,11.6-14.7,11.6c-0.6,0-1.2,0-1.8-0.1c2.5,2,6.1,2.9,9.8,2.5l6.7,3.4v-6.4&#xA;&#9;&#9;&#9;c1.6-1.5,2.5-3.4,2.5-5.4C126.1,302.7,125.2,300.9,123.5,299.4z" id="el_hNQ2LsfnoOh"/>
		<path d="M108.8,288.7c-6.8,0-12.3,4.4-12.3,9.8c0,2.2,0.9,4.2,2.5,5.8v6.4l6-2.9c1.2,0.4,2.6,0.5,3.9,0.5&#xA;&#9;&#9;&#9;c6.8,0,12.3-4.4,12.3-9.8C121.2,293.2,115.6,288.7,108.8,288.7z" id="el_Wkv_AhRnHov"/>
	</g>
</g></g>
<g id="el_cyvxZClQEzs">
	<g id="el_tIkY9BND0FL">
		<g id="el_DbBduHkXdu0">
			<polygon points="230.8,331.3 230.3,331.9 227.3,331 226.5,331.8 229.3,332.6 228.8,333.1 226,332.3 225.3,333.1 &#xA;&#9;&#9;&#9;&#9;228.4,334.1 227.9,334.6 223.7,333.3 226.7,330.1 &#9;&#9;&#9;" id="el_V2P-kM_UW0l"/>
		</g>
		<g id="el_6TiwPaCl1Le">
			<polygon points="222.9,328.9 220.5,331.6 222.9,332.4 222.4,332.9 218.9,331.8 221.9,328.6 &#9;&#9;&#9;" id="el_O1pBQVuUNDt"/>
		</g>
		<g id="el_hHiwcjFJf2j">
			<path d="M248.6,336.9c0.3,0.2,0.5,0.4,0.7,0.5l-0.9,0.4c-0.2-0.2-0.4-0.4-0.7-0.5c0,0,0,0-0.1,0&#xA;&#9;&#9;&#9;&#9;c-0.2-0.1-0.4-0.2-0.7-0.3c-0.3-0.1-0.5-0.1-0.7-0.1s-0.3,0.1-0.4,0.2c-0.1,0.1-0.1,0.2,0,0.3c0,0.1,0.1,0.2,0.3,0.3&#xA;&#9;&#9;&#9;&#9;c0.1,0.1,0.3,0.2,0.5,0.3c0.1,0,0.1,0.1,0.2,0.1c0.2,0.1,0.5,0.3,0.6,0.4c0.2,0.1,0.3,0.3,0.4,0.5c0.1,0.2,0,0.4-0.2,0.6&#xA;&#9;&#9;&#9;&#9;s-0.4,0.3-0.7,0.4s-0.7,0.1-1.1,0.1c-0.4,0-0.8-0.1-1.2-0.2c-0.3-0.1-0.6-0.2-0.9-0.4c-0.1,0-0.2-0.1-0.2-0.1&#xA;&#9;&#9;&#9;&#9;c-0.3-0.2-0.6-0.5-0.7-0.7l0.9-0.4c0.1,0.2,0.4,0.5,0.6,0.7c0.1,0.1,0.2,0.1,0.3,0.2c0.2,0.1,0.4,0.2,0.6,0.3&#xA;&#9;&#9;&#9;&#9;c0.3,0.1,0.6,0.1,0.8,0.1s0.4-0.1,0.5-0.2s0.1-0.2,0-0.3c0-0.1-0.1-0.2-0.3-0.3c-0.1-0.1-0.2-0.1-0.4-0.2c-0.1,0-0.1-0.1-0.2-0.1&#xA;&#9;&#9;&#9;&#9;c-0.3-0.2-0.6-0.3-0.8-0.5c-0.2-0.1-0.3-0.3-0.4-0.5c-0.1-0.2,0-0.4,0.2-0.6s0.4-0.3,0.7-0.4s0.6-0.1,1-0.1s0.8,0.1,1.2,0.2&#xA;&#9;&#9;&#9;&#9;C248,336.6,248.3,336.7,248.6,336.9z" id="el_n28oEH2LNIo"/>
		</g>
		<g id="el_is5vLyhjwLf">
			<path d="M242.8,337.1c-0.3,0.3-0.7,0.6-1.1,0.7c-0.5,0.2-1,0.2-1.6,0.3c-0.6,0-1.1-0.1-1.7-0.3l-2.3-0.7l3-3.2&#xA;&#9;&#9;&#9;&#9;l2.3,0.7c0.4,0.1,0.7,0.2,0.9,0.4c0.2,0.1,0.3,0.2,0.4,0.3c0.3,0.3,0.5,0.6,0.5,0.9C243.2,336.5,243,336.8,242.8,337.1z&#xA;&#9;&#9;&#9;&#9; M240.9,337.3c0.3-0.1,0.6-0.3,0.7-0.5c0.2-0.2,0.3-0.4,0.3-0.6s-0.1-0.4-0.3-0.6c-0.1-0.1-0.2-0.1-0.3-0.2&#xA;&#9;&#9;&#9;&#9;c-0.2-0.1-0.3-0.2-0.5-0.2l-1.2-0.4l-2,2.2l1.3,0.4c0.3,0.1,0.7,0.2,1.1,0.2C240.3,337.4,240.6,337.4,240.9,337.3" id="el_wDHxkSoTcGK"/>
		</g>
		<g id="el_h3eANOtVfXL">
			<path d="M235.4,332.8l-0.5,4l-1.2-0.4l0.1-0.8l-2.7-0.9l-1.1,0.5l-1.1-0.3l5.4-2.5L235.4,332.8z M231.9,334.3l2,0.6&#xA;&#9;&#9;&#9;&#9;l0.3-1.7L231.9,334.3" id="el_umYchQg4Ser"/>
		</g>
	</g>
</g>
<g id="el_k2YlOntC5Pu_an_8A3_2ZVUS" data-animator-group="true" data-animator-type="2"><g id="el_k2YlOntC5Pu">
	<linearGradient id="SVGID_9_" gradientUnits="userSpaceOnUse" x1="240.3934" y1="152.1238" x2="391.2009" y2="74.7357">
		<stop offset="0" style="stop-color:#EEF3FA"/>
		<stop offset="0.4655" style="stop-color:#F8FAFD"/>
		<stop offset="1" style="stop-color:#FFFFFF"/>
	</linearGradient>
	<path d="M364.9,150.9H241.7c-1.2,0-2.1-1-1.9-2.2l8.6-62.5c0.2-1.2,1.3-2.2,2.5-2.2h123.3c1.2,0,2.1,1,1.9,2.2&#xA;&#9;&#9;l-8.6,62.5C367.3,149.9,366.2,150.9,364.9,150.9z" id="el_ACyuUJqiFDN"/>
	<path d="M374.1,84h-0.4l-8.6,62.4c-0.2,1.2-1.3,2.2-2.5,2.2H239.8l0,0c-0.2,1.2,0.7,2.2,1.9,2.2h123.3&#xA;&#9;&#9;c1.2,0,2.4-1,2.5-2.2l8.6-62.5C376.2,85,375.4,84,374.1,84z" id="el_6w8Makgn1nx"/>
	<polygon points="362.8,108.7 324.1,108.7 324.6,105 363.4,105 &#9;" id="el_RPQ_hMp-kD8"/>
	<polygon points="361.4,119.4 322.6,119.4 323.1,115.6 361.9,115.6 &#9;" id="el_cyggr6xMjSW"/>
	<polygon points="343.4,130 321.1,130 321.6,126.2 343.9,126.2 &#9;" id="el_QCcNFQogDPk"/>
	<g id="el_RkzzUr2VEn9">
		<linearGradient id="SVGID_10_" gradientUnits="userSpaceOnUse" x1="247.9309" y1="116.1484" x2="319.0259" y2="116.1484">
			<stop offset="3.605769e-04" style="stop-color:#6A52A1"/>
			<stop offset="0.5898" style="stop-color:#8B519F"/>
			<stop offset="1" style="stop-color:#A4509E"/>
		</linearGradient>
		<path d="M309.3,136.8h-57.6c-2.4,0-4.1-2-3.8-4.4l4.7-32.6c0.3-2.4,2.6-4.4,5-4.4h57.6c2.4,0,4.1,2,3.8,4.4&#xA;&#9;&#9;&#9;l-4.7,32.6C314,134.9,311.7,136.8,309.3,136.8z" id="el_ykv6f3bwTYV"/>
	</g>
	<g id="el_nkch4goxSHC">
		<path d="M283.4,107.8c5,0,8.4,3.7,7.6,8.3c-0.8,4.6-5.6,8.3-10.6,8.3c-5,0-8.4-3.7-7.6-8.3&#xA;&#9;&#9;&#9;C273.6,111.5,278.4,107.8,283.4,107.8z M279.6,120.3l6.8-4.1l-5.3-4.1L279.6,120.3" id="el_c7JoVqK9-VF"/>
	</g>
</g></g>
<g id="el_Cwq2nQ9VKkk_an_1yQf-mk7z" data-animator-group="true" data-animator-type="0"><g id="el_Cwq2nQ9VKkk_an_06JxHESDW" data-animator-group="true" data-animator-type="2"><g id="el_Cwq2nQ9VKkk">
	
		<linearGradient id="SVGID_11_" gradientUnits="userSpaceOnUse" x1="31.0296" y1="216.5434" x2="197.2132" y2="216.5434" gradientTransform="matrix(1 0 -0.2343 1 65.5146 0)">
		<stop offset="0" style="stop-color:#E9F0F9"/>
		<stop offset="1" style="stop-color:#FFFFFF"/>
	</linearGradient>
	<path d="M199.5,242.9H52.1c-3.9,0-6.7-3.2-6.3-7.1l4.5-38.5c0.5-3.9,4-7.1,7.9-7.1h147.4c3.9,0,6.7,3.2,6.3,7.1&#xA;&#9;&#9;l-4.5,38.5C207,239.7,203.4,242.9,199.5,242.9z" id="el_DtNt6lWwqmB"/>
	<path d="M208.7,190.9c0.6,1.1,0.8,2.4,0.7,3.7l-4.5,38.5c-0.5,3.9-4,7.1-7.9,7.1H49.5c-1.1,0-2.1-0.3-3-0.7&#xA;&#9;&#9;c1,2,3.1,3.4,5.6,3.4h147.4c3.9,0,7.5-3.2,7.9-7.1l4.5-38.5C212.3,194.5,210.9,192.1,208.7,190.9z" id="el_2nqizzjqaqR"/>
	
		<linearGradient id="SVGID_12_" gradientUnits="userSpaceOnUse" x1="40.3138" y1="196.4299" x2="201.8896" y2="196.4299" gradientTransform="matrix(1 0 -0.1171 1 33.1563 0)">
		<stop offset="3.605769e-04" style="stop-color:#6A52A1"/>
		<stop offset="0.5898" style="stop-color:#8B519F"/>
		<stop offset="1" style="stop-color:#A4509E"/>
	</linearGradient>
	<path d="M205.2,190.2H58.8c-4.2,0-8,3.4-8.5,7.6l-0.6,4.9h161.6l0.6-4.9C212.4,193.6,209.4,190.2,205.2,190.2z" id="el_nmHVfgf5R3j"/>
	<linearGradient id="SVGID_13_" gradientUnits="userSpaceOnUse" x1="208.3822" y1="197.5001" x2="211.9368" y2="197.5001">
		<stop offset="0" style="stop-color:#A4509E"/>
		<stop offset="0.4102" style="stop-color:#8B519F"/>
		<stop offset="0.9996" style="stop-color:#6A52A1"/>
	</linearGradient>
	<path d="M208.8,191.2c0.5,1,0.7,2.2,0.5,3.5l-0.9,8l2.8,1.1l0.3-2.3l0.4-3.7C212.2,195,210.9,192.5,208.8,191.2z" id="el_lABMoTQHSo5"/>
	<path d="M83.5,223.4c-0.8,6.8-7,12.3-13.8,12.3c-6.8,0-11.7-5.5-10.9-12.3c0.8-6.8,7-12.3,13.8-12.3&#xA;&#9;&#9;C79.5,211.1,84.3,216.6,83.5,223.4z" id="el_6xm_OAh8FHW"/>
	<polygon points="196.2,215.4 91.1,215.4 91.5,212.1 196.6,212.1 &#9;" id="el_n7pbusKSwhG"/>
	<polygon points="195.1,225.1 90,225.1 90.4,221.8 195.5,221.8 &#9;" id="el_1Ml24y1B4Ww"/>
	<polygon points="128.3,234.8 88.9,234.8 89.3,231.5 128.7,231.5 &#9;" id="el_QRfnagBlwia"/>
	<path d="M65.2,196.4c-0.1,0.9-0.9,1.6-1.8,1.6c-0.9,0-1.5-0.7-1.4-1.6c0.1-0.9,0.9-1.6,1.8-1.6&#xA;&#9;&#9;C64.7,194.9,65.3,195.6,65.2,196.4z" id="el_Y2Q8gsYktV2"/>
	<path d="M72,196.4c-0.1,0.9-0.9,1.6-1.8,1.6c-0.9,0-1.5-0.7-1.4-1.6c0.1-0.9,0.9-1.6,1.8-1.6&#xA;&#9;&#9;C71.5,194.9,72.1,195.6,72,196.4z" id="el_T6r1G0LWXuC"/>
	<path d="M78.9,196.4c-0.1,0.9-0.9,1.6-1.8,1.6c-0.9,0-1.5-0.7-1.4-1.6c0.1-0.9,0.9-1.6,1.8-1.6&#xA;&#9;&#9;C78.4,194.9,79,195.6,78.9,196.4z" id="el_5DhZq9FvkSm"/>
</g></g></g>
<g id="el_RFdA3SsXONL_an_qOuzmHY0W" data-animator-group="true" data-animator-type="2"><g id="el_RFdA3SsXONL">
	<linearGradient id="SVGID_14_" gradientUnits="userSpaceOnUse" x1="202.6083" y1="163.5932" x2="71.3491" y2="123.3404">
		<stop offset="0" style="stop-color:#EEF3FA"/>
		<stop offset="0.4655" style="stop-color:#F8FAFD"/>
		<stop offset="1" style="stop-color:#FFFFFF"/>
	</linearGradient>
	<path d="M205.6,123.6l-129.9,0c-2.4,0-4.7,2-5,4.4l-4.5,31.4c-0.4,2.5,1.3,4.4,3.8,4.4l129.9,0c2.4,0,4.7-2,5-4.4&#xA;&#9;&#9;l4.5-31.4C209.7,125.6,208.1,123.6,205.6,123.6z" id="el_2mQOD5xxp-9"/>
	<path d="M207.1,123.9c0.2,0.6,0.4,1.3,0.2,2.1l-4.5,31.4c-0.4,2.5-2.6,4.4-5,4.4l-129.9,0c-0.5,0-1-0.1-1.5-0.3&#xA;&#9;&#9;c0.5,1.4,1.8,2.3,3.5,2.3l129.9,0c2.4,0,4.7-2,5-4.4l4.5-31.4C209.7,126.1,208.7,124.5,207.1,123.9z" id="el_GOpXS4MdLmm"/>
	<g id="el_P5ZQJEVT3MF">
		<linearGradient id="XMLID_2_" gradientUnits="userSpaceOnUse" x1="83.136" y1="143.2736" x2="101.2787" y2="143.2736">
			<stop offset="3.605769e-04" style="stop-color:#6A52A1"/>
			<stop offset="0.5898" style="stop-color:#8B519F"/>
			<stop offset="1" style="stop-color:#A4509E"/>
		</linearGradient>
		<path id="el_CYXBwcKNl2n" d="M101.2,143.3c-0.8,5-5.4,9-10.3,9s-8.3-4-7.6-9c0.8-5,5.4-9,10.3-9&#xA;&#9;&#9;&#9;C98.5,134.3,101.9,138.3,101.2,143.3z"/>
		<g id="el_l4wNQQWIYwR">
			<polygon id="el_zzMzgRifhoR" points="90.2,147.7 86.8,143.7 88.5,142.2 90.5,144.4 96.5,139.3 97.9,141 &#9;&#9;&#9;"/>
		</g>
	</g>
	<polygon points="186.8,140.4 117.1,140.4 117.6,136.8 187.4,136.8 &#9;" id="el_42RMJsI0qZb"/>
	<polygon points="167.1,149.2 115.9,149.2 116.4,145.6 167.8,145.6 &#9;" id="el_EDh10DxRAEW"/>
</g></g>
<g id="el_LpHky9orIdR_an_WlFLvLL4Z" data-animator-group="true" data-animator-type="2"><g id="el_LpHky9orIdR">
	<linearGradient id="SVGID_15_" gradientUnits="userSpaceOnUse" x1="341.5406" y1="235.3186" x2="239.875" y2="173.0334">
		<stop offset="0" style="stop-color:#EEF3FA"/>
		<stop offset="0.4655" style="stop-color:#F8FAFD"/>
		<stop offset="1" style="stop-color:#FFFFFF"/>
	</linearGradient>
	<path d="M350,178l-101.6,0c-1.9,0-3.7,1.6-3.9,3.5l-7.3,50.8c-0.3,1.9,1,3.5,2.9,3.5l101.6,0c1.9,0,3.7-1.6,3.9-3.5&#xA;&#9;&#9;l7.3-50.8C353.3,179.5,351.9,178,350,178z" id="el_uA9ojRzSVj8"/>
	<path d="M351.2,178.2c0.2,0.5,0.3,1,0.2,1.6l-7.3,50.8c-0.3,1.9-2,3.5-3.9,3.5l-101.6,0c-0.4,0-0.8-0.1-1.1-0.2&#xA;&#9;&#9;c0.4,1.1,1.4,1.8,2.8,1.8l101.6,0c1.9,0,3.7-1.6,3.9-3.5l7.3-50.8C353.2,180,352.4,178.7,351.2,178.2z" id="el_UfLRng360HN"/>
	<g id="el_F7k6lUZ-Z0E">
		<path id="el_DMgAi0t-2Um" d="M268.3,193.4c-0.6,3.9-4.2,7-8.1,7c-3.9,0-6.5-3.1-5.9-7c0.6-3.9,4.2-7,8.1-7&#xA;&#9;&#9;&#9;C266.3,186.4,268.9,189.5,268.3,193.4z"/>
	</g>
	<g id="el_c63xlZqFl13">
		<path id="el_yT1opnXmnnz" d="M264.1,218.7c-0.6,3.9-4.2,7-8.1,7s-6.5-3.1-5.9-7c0.6-3.9,4.2-7,8.1-7&#xA;&#9;&#9;&#9;C262,211.7,264.7,214.9,264.1,218.7z"/>
	</g>
	<linearGradient id="SVGID_16_" gradientUnits="userSpaceOnUse" x1="280.796" y1="189.7449" x2="335.7979" y2="189.7449">
		<stop offset="3.605769e-04" style="stop-color:#6A52A1"/>
		<stop offset="0.5898" style="stop-color:#8B519F"/>
		<stop offset="1" style="stop-color:#A4509E"/>
	</linearGradient>
	<polygon points="335.3,191.2 280.8,191.2 281.2,188.3 335.8,188.3 &#9;" id="el_jUtKg4KtKGD"/>
	<polygon points="319.9,198 279.8,198 280.2,195.2 320.4,195.2 &#9;" id="el_eVHo3eTDb04"/>
	<linearGradient id="SVGID_17_" gradientUnits="userSpaceOnUse" x1="276.7961" y1="215.373" x2="295.6521" y2="215.373">
		<stop offset="3.605769e-04" style="stop-color:#EF4D25"/>
		<stop offset="0.3435" style="stop-color:#F16E28"/>
		<stop offset="1" style="stop-color:#F6B62E"/>
	</linearGradient>
	<polygon points="295.1,216.8 276.8,216.8 277.2,214 295.7,214 &#9;" id="el_TmyE1gx9KJR"/>
	<polygon points="304.1,223.7 275.8,223.7 276.2,220.8 304.6,220.8 &#9;" id="el_UNws8FGWKHh"/>
</g></g>
</svg>