<svg version="1.1" id="el_d6XQJcxY2" xmlns="http://www.w3.org/2000/svg" xmlns:xlink="http://www.w3.org/1999/xlink" x="0px" y="0px" viewBox="0 0 433 423" style="enable-background:new 0 0 433.7 423.1;" xml:space="preserve"><style>@-webkit-keyframes kf_el_7VIXfa4QFIT_an_qHq6oitjS{0%{-webkit-transform: translate(124.3499984741211px, 307px) translate(-124.3499984741211px, -307px) translate(0px, 0px);transform: translate(124.3499984741211px, 307px) translate(-124.3499984741211px, -307px) translate(0px, 0px);}69.44%{-webkit-transform: translate(124.3499984741211px, 307px) translate(-124.3499984741211px, -307px) translate(0px, 0px);transform: translate(124.3499984741211px, 307px) translate(-124.3499984741211px, -307px) translate(0px, 0px);}72.22%{-webkit-transform: translate(124.3499984741211px, 307px) translate(-124.3499984741211px, -307px) translate(0px, -5px);transform: translate(124.3499984741211px, 307px) translate(-124.3499984741211px, -307px) translate(0px, -5px);}75%{-webkit-transform: translate(124.3499984741211px, 307px) translate(-124.3499984741211px, -307px) translate(0px, 0px);transform: translate(124.3499984741211px, 307px) translate(-124.3499984741211px, -307px) translate(0px, 0px);}100%{-webkit-transform: translate(124.3499984741211px, 307px) translate(-124.3499984741211px, -307px) translate(0px, 0px);transform: translate(124.3499984741211px, 307px) translate(-124.3499984741211px, -307px) translate(0px, 0px);}}@keyframes kf_el_7VIXfa4QFIT_an_qHq6oitjS{0%{-webkit-transform: translate(124.3499984741211px, 307px) translate(-124.3499984741211px, -307px) translate(0px, 0px);transform: translate(124.3499984741211px, 307px) translate(-124.3499984741211px, -307px) translate(0px, 0px);}69.44%{-webkit-transform: translate(124.3499984741211px, 307px) translate(-124.3499984741211px, -307px) translate(0px, 0px);transform: translate(124.3499984741211px, 307px) translate(-124.3499984741211px, -307px) translate(0px, 0px);}72.22%{-webkit-transform: translate(124.3499984741211px, 307px) translate(-124.3499984741211px, -307px) translate(0px, -5px);transform: translate(124.3499984741211px, 307px) translate(-124.3499984741211px, -307px) translate(0px, -5px);}75%{-webkit-transform: translate(124.3499984741211px, 307px) translate(-124.3499984741211px, -307px) translate(0px, 0px);transform: translate(124.3499984741211px, 307px) translate(-124.3499984741211px, -307px) translate(0px, 0px);}100%{-webkit-transform: translate(124.3499984741211px, 307px) translate(-124.3499984741211px, -307px) translate(0px, 0px);transform: translate(124.3499984741211px, 307px) translate(-124.3499984741211px, -307px) translate(0px, 0px);}}@-webkit-keyframes kf_el_CLc8r-YeRAV_an_e8wR1A1eW{0%{opacity: 0;}50%{opacity: 0;}66.67%{opacity: 1;}100%{opacity: 1;}}@keyframes kf_el_CLc8r-YeRAV_an_e8wR1A1eW{0%{opacity: 0;}50%{opacity: 0;}66.67%{opacity: 1;}100%{opacity: 1;}}@-webkit-keyframes kf_el_CLc8r-YeRAV_an_NNEsxNG5I{0%{-webkit-transform: translate(236.89999389648438px, 152.6999969482422px) translate(-236.89999389648438px, -152.6999969482422px) translate(0px, 100px);transform: translate(236.89999389648438px, 152.6999969482422px) translate(-236.89999389648438px, -152.6999969482422px) translate(0px, 100px);}50%{-webkit-transform: translate(236.89999389648438px, 152.6999969482422px) translate(-236.89999389648438px, -152.6999969482422px) translate(0px, 100px);transform: translate(236.89999389648438px, 152.6999969482422px) translate(-236.89999389648438px, -152.6999969482422px) translate(0px, 100px);}66.67%{-webkit-transform: translate(236.89999389648438px, 152.6999969482422px) translate(-236.89999389648438px, -152.6999969482422px) translate(0px, -10px);transform: translate(236.89999389648438px, 152.6999969482422px) translate(-236.89999389648438px, -152.6999969482422px) translate(0px, -10px);}69.44%{-webkit-transform: translate(236.89999389648438px, 152.6999969482422px) translate(-236.89999389648438px, -152.6999969482422px) translate(0px, 0px);transform: translate(236.89999389648438px, 152.6999969482422px) translate(-236.89999389648438px, -152.6999969482422px) translate(0px, 0px);}100%{-webkit-transform: translate(236.89999389648438px, 152.6999969482422px) translate(-236.89999389648438px, -152.6999969482422px) translate(0px, 0px);transform: translate(236.89999389648438px, 152.6999969482422px) translate(-236.89999389648438px, -152.6999969482422px) translate(0px, 0px);}}@keyframes kf_el_CLc8r-YeRAV_an_NNEsxNG5I{0%{-webkit-transform: translate(236.89999389648438px, 152.6999969482422px) translate(-236.89999389648438px, -152.6999969482422px) translate(0px, 100px);transform: translate(236.89999389648438px, 152.6999969482422px) translate(-236.89999389648438px, -152.6999969482422px) translate(0px, 100px);}50%{-webkit-transform: translate(236.89999389648438px, 152.6999969482422px) translate(-236.89999389648438px, -152.6999969482422px) translate(0px, 100px);transform: translate(236.89999389648438px, 152.6999969482422px) translate(-236.89999389648438px, -152.6999969482422px) translate(0px, 100px);}66.67%{-webkit-transform: translate(236.89999389648438px, 152.6999969482422px) translate(-236.89999389648438px, -152.6999969482422px) translate(0px, -10px);transform: translate(236.89999389648438px, 152.6999969482422px) translate(-236.89999389648438px, -152.6999969482422px) translate(0px, -10px);}69.44%{-webkit-transform: translate(236.89999389648438px, 152.6999969482422px) translate(-236.89999389648438px, -152.6999969482422px) translate(0px, 0px);transform: translate(236.89999389648438px, 152.6999969482422px) translate(-236.89999389648438px, -152.6999969482422px) translate(0px, 0px);}100%{-webkit-transform: translate(236.89999389648438px, 152.6999969482422px) translate(-236.89999389648438px, -152.6999969482422px) translate(0px, 0px);transform: translate(236.89999389648438px, 152.6999969482422px) translate(-236.89999389648438px, -152.6999969482422px) translate(0px, 0px);}}@-webkit-keyframes kf_el_3UnfucLGs12_an_JHlntDAMV{0%{opacity: 0;}33.33%{opacity: 0;}50%{opacity: 1;}100%{opacity: 1;}}@keyframes kf_el_3UnfucLGs12_an_JHlntDAMV{0%{opacity: 0;}33.33%{opacity: 0;}50%{opacity: 1;}100%{opacity: 1;}}@-webkit-keyframes kf_el_3UnfucLGs12_an_n5MEz1Xta{0%{-webkit-transform: translate(321.4499816894531px, 89.79999923706055px) translate(-321.4499816894531px, -89.79999923706055px) translate(0px, 100px);transform: translate(321.4499816894531px, 89.79999923706055px) translate(-321.4499816894531px, -89.79999923706055px) translate(0px, 100px);}33.33%{-webkit-transform: translate(321.4499816894531px, 89.79999923706055px) translate(-321.4499816894531px, -89.79999923706055px) translate(0px, 100px);transform: translate(321.4499816894531px, 89.79999923706055px) translate(-321.4499816894531px, -89.79999923706055px) translate(0px, 100px);}50%{-webkit-transform: translate(321.4499816894531px, 89.79999923706055px) translate(-321.4499816894531px, -89.79999923706055px) translate(0px, -10px);transform: translate(321.4499816894531px, 89.79999923706055px) translate(-321.4499816894531px, -89.79999923706055px) translate(0px, -10px);}52.78%{-webkit-transform: translate(321.4499816894531px, 89.79999923706055px) translate(-321.4499816894531px, -89.79999923706055px) translate(0px, 0px);transform: translate(321.4499816894531px, 89.79999923706055px) translate(-321.4499816894531px, -89.79999923706055px) translate(0px, 0px);}100%{-webkit-transform: translate(321.4499816894531px, 89.79999923706055px) translate(-321.4499816894531px, -89.79999923706055px) translate(0px, 0px);transform: translate(321.4499816894531px, 89.79999923706055px) translate(-321.4499816894531px, -89.79999923706055px) translate(0px, 0px);}}@keyframes kf_el_3UnfucLGs12_an_n5MEz1Xta{0%{-webkit-transform: translate(321.4499816894531px, 89.79999923706055px) translate(-321.4499816894531px, -89.79999923706055px) translate(0px, 100px);transform: translate(321.4499816894531px, 89.79999923706055px) translate(-321.4499816894531px, -89.79999923706055px) translate(0px, 100px);}33.33%{-webkit-transform: translate(321.4499816894531px, 89.79999923706055px) translate(-321.4499816894531px, -89.79999923706055px) translate(0px, 100px);transform: translate(321.4499816894531px, 89.79999923706055px) translate(-321.4499816894531px, -89.79999923706055px) translate(0px, 100px);}50%{-webkit-transform: translate(321.4499816894531px, 89.79999923706055px) translate(-321.4499816894531px, -89.79999923706055px) translate(0px, -10px);transform: translate(321.4499816894531px, 89.79999923706055px) translate(-321.4499816894531px, -89.79999923706055px) translate(0px, -10px);}52.78%{-webkit-transform: translate(321.4499816894531px, 89.79999923706055px) translate(-321.4499816894531px, -89.79999923706055px) translate(0px, 0px);transform: translate(321.4499816894531px, 89.79999923706055px) translate(-321.4499816894531px, -89.79999923706055px) translate(0px, 0px);}100%{-webkit-transform: translate(321.4499816894531px, 89.79999923706055px) translate(-321.4499816894531px, -89.79999923706055px) translate(0px, 0px);transform: translate(321.4499816894531px, 89.79999923706055px) translate(-321.4499816894531px, -89.79999923706055px) translate(0px, 0px);}}@-webkit-keyframes kf_el_FrU3ij0ubqK_an_7rZCc7U1M{0%{opacity: 0;}16.67%{opacity: 0;}33.33%{opacity: 1;}100%{opacity: 1;}}@keyframes kf_el_FrU3ij0ubqK_an_7rZCc7U1M{0%{opacity: 0;}16.67%{opacity: 0;}33.33%{opacity: 1;}100%{opacity: 1;}}@-webkit-keyframes kf_el_FrU3ij0ubqK_an_n63veksBI{0%{-webkit-transform: translate(289.75001525878906px, 273.49999237060547px) translate(-289.75001525878906px, -273.49999237060547px) translate(0px, 100px);transform: translate(289.75001525878906px, 273.49999237060547px) translate(-289.75001525878906px, -273.49999237060547px) translate(0px, 100px);}16.67%{-webkit-transform: translate(289.75001525878906px, 273.49999237060547px) translate(-289.75001525878906px, -273.49999237060547px) translate(0px, 100px);transform: translate(289.75001525878906px, 273.49999237060547px) translate(-289.75001525878906px, -273.49999237060547px) translate(0px, 100px);}33.33%{-webkit-transform: translate(289.75001525878906px, 273.49999237060547px) translate(-289.75001525878906px, -273.49999237060547px) translate(0px, -10px);transform: translate(289.75001525878906px, 273.49999237060547px) translate(-289.75001525878906px, -273.49999237060547px) translate(0px, -10px);}36.11%{-webkit-transform: translate(289.75001525878906px, 273.49999237060547px) translate(-289.75001525878906px, -273.49999237060547px) translate(0px, 0px);transform: translate(289.75001525878906px, 273.49999237060547px) translate(-289.75001525878906px, -273.49999237060547px) translate(0px, 0px);}100%{-webkit-transform: translate(289.75001525878906px, 273.49999237060547px) translate(-289.75001525878906px, -273.49999237060547px) translate(0px, 0px);transform: translate(289.75001525878906px, 273.49999237060547px) translate(-289.75001525878906px, -273.49999237060547px) translate(0px, 0px);}}@keyframes kf_el_FrU3ij0ubqK_an_n63veksBI{0%{-webkit-transform: translate(289.75001525878906px, 273.49999237060547px) translate(-289.75001525878906px, -273.49999237060547px) translate(0px, 100px);transform: translate(289.75001525878906px, 273.49999237060547px) translate(-289.75001525878906px, -273.49999237060547px) translate(0px, 100px);}16.67%{-webkit-transform: translate(289.75001525878906px, 273.49999237060547px) translate(-289.75001525878906px, -273.49999237060547px) translate(0px, 100px);transform: translate(289.75001525878906px, 273.49999237060547px) translate(-289.75001525878906px, -273.49999237060547px) translate(0px, 100px);}33.33%{-webkit-transform: translate(289.75001525878906px, 273.49999237060547px) translate(-289.75001525878906px, -273.49999237060547px) translate(0px, -10px);transform: translate(289.75001525878906px, 273.49999237060547px) translate(-289.75001525878906px, -273.49999237060547px) translate(0px, -10px);}36.11%{-webkit-transform: translate(289.75001525878906px, 273.49999237060547px) translate(-289.75001525878906px, -273.49999237060547px) translate(0px, 0px);transform: translate(289.75001525878906px, 273.49999237060547px) translate(-289.75001525878906px, -273.49999237060547px) translate(0px, 0px);}100%{-webkit-transform: translate(289.75001525878906px, 273.49999237060547px) translate(-289.75001525878906px, -273.49999237060547px) translate(0px, 0px);transform: translate(289.75001525878906px, 273.49999237060547px) translate(-289.75001525878906px, -273.49999237060547px) translate(0px, 0px);}}@-webkit-keyframes kf_el_wGSc6P7GYDw_an_w3C4S60cK{0%{opacity: 0;}16.67%{opacity: 1;}100%{opacity: 1;}}@keyframes kf_el_wGSc6P7GYDw_an_w3C4S60cK{0%{opacity: 0;}16.67%{opacity: 1;}100%{opacity: 1;}}@-webkit-keyframes kf_el_wGSc6P7GYDw_an_f_CVKGlDK{0%{-webkit-transform: translate(137.79999542236328px, 236.1500015258789px) translate(-137.79999542236328px, -236.1500015258789px) translate(0px, 100px);transform: translate(137.79999542236328px, 236.1500015258789px) translate(-137.79999542236328px, -236.1500015258789px) translate(0px, 100px);}16.67%{-webkit-transform: translate(137.79999542236328px, 236.1500015258789px) translate(-137.79999542236328px, -236.1500015258789px) translate(0px, -10px);transform: translate(137.79999542236328px, 236.1500015258789px) translate(-137.79999542236328px, -236.1500015258789px) translate(0px, -10px);}19.44%{-webkit-transform: translate(137.79999542236328px, 236.1500015258789px) translate(-137.79999542236328px, -236.1500015258789px) translate(0px, 0px);transform: translate(137.79999542236328px, 236.1500015258789px) translate(-137.79999542236328px, -236.1500015258789px) translate(0px, 0px);}100%{-webkit-transform: translate(137.79999542236328px, 236.1500015258789px) translate(-137.79999542236328px, -236.1500015258789px) translate(0px, 0px);transform: translate(137.79999542236328px, 236.1500015258789px) translate(-137.79999542236328px, -236.1500015258789px) translate(0px, 0px);}}@keyframes kf_el_wGSc6P7GYDw_an_f_CVKGlDK{0%{-webkit-transform: translate(137.79999542236328px, 236.1500015258789px) translate(-137.79999542236328px, -236.1500015258789px) translate(0px, 100px);transform: translate(137.79999542236328px, 236.1500015258789px) translate(-137.79999542236328px, -236.1500015258789px) translate(0px, 100px);}16.67%{-webkit-transform: translate(137.79999542236328px, 236.1500015258789px) translate(-137.79999542236328px, -236.1500015258789px) translate(0px, -10px);transform: translate(137.79999542236328px, 236.1500015258789px) translate(-137.79999542236328px, -236.1500015258789px) translate(0px, -10px);}19.44%{-webkit-transform: translate(137.79999542236328px, 236.1500015258789px) translate(-137.79999542236328px, -236.1500015258789px) translate(0px, 0px);transform: translate(137.79999542236328px, 236.1500015258789px) translate(-137.79999542236328px, -236.1500015258789px) translate(0px, 0px);}100%{-webkit-transform: translate(137.79999542236328px, 236.1500015258789px) translate(-137.79999542236328px, -236.1500015258789px) translate(0px, 0px);transform: translate(137.79999542236328px, 236.1500015258789px) translate(-137.79999542236328px, -236.1500015258789px) translate(0px, 0px);}}#el_d6XQJcxY2 *{-webkit-animation-duration: 6s;animation-duration: 6s;-webkit-animation-iteration-count: infinite;animation-iteration-count: infinite;-webkit-animation-timing-function: cubic-bezier(0, 0, 1, 1);animation-timing-function: cubic-bezier(0, 0, 1, 1);}#el_o4BxKLJh2s{fill: #C6BECC;}#el_0BT2P6dgyi{fill: #C6BECC;}#el_jyjFZY0b9q{fill: #C6BECC;}#el_bhT07JzpKn{fill: #C6BECC;}#el_2tJ0x9klZC{fill: #C6BECC;}#el_IQbnLJ3Qmhi{fill: #C6BECC;}#el_L6KUubpAo0o{fill: #C6BECC;}#el_8CZCExM_0jU{fill: #C6BECC;}#el_ZNNPjl6wltu{fill: #C6BECC;}#el_9z1_gS3p8VQ{fill: #C6BECC;}#el_gymwhv1-kwj{fill: #C6BECC;}#el_-Qd6-tthgXi{fill: #C6BECC;}#el_QyUMSQTzBVI{fill: #C6BECC;}#el_BGswVOe4Zhd{fill: #C6BECC;}#el_P9eJl894FzX{fill: #C6BECC;}#el_gR3Er0WNn2g{fill: #C6BECC;}#el_aAJn3FK0OGD{fill: #C6BECC;}#el_4C5SA4e1Z_i{fill: #C6BECC;}#el_BGAviVDdIbL{fill: #C6BECC;}#el_0hDxoKjjLuM{fill: #C6BECC;}#el_6cGAGb1aO_8{fill: #C6BECC;}#el_QRYbQyMnIiv{fill: #C6BECC;}#el_ugqkKGfXX0q{fill: #C6BECC;}#el_FuUrtgO8pbs{fill: #C6BECC;}#el_amXfYIYhLjy{fill: #C6BECC;}#el_TFWWJTWayHv{fill: #C6BECC;}#el_PSsuPYSHSFT{fill: #6A53A3;}#el_BrhF6B0Yovj{fill: #A5509F;}#el_bCWtm1nc2mA{fill: #A5509F;}#el_foF4gLxbyRR{fill: #A5509F;}#el_ayc3N1apGk1{fill: #A5509F;}#el_XTih5cLeYBT{fill: #A5509F;}#el_pKO7p0MAIFx{fill: #A5509F;}#el_Ou6G61MAFIP{fill: #A5509F;}#el_0E5LwtEamO1{fill: #A5509F;}#el_JvSyTMuqHkB{fill: #A5509F;}#el_7M9KmMXUIH5{fill: #6A53A3;}#el_Y4qOLsmtdZx{fill: #6A53A3;}#el_9Ocm-epujmG{fill: #6A53A3;}#el_y9KqK9gS52X{fill: #6A53A3;}#el_mmHcQVPUdKD{fill: #194866;}#el_g0u4pZUFegc{fill: #163F59;}#el_HT7FltKsAZN{fill: #194866;}#el_BbgwgPmhmfI{fill: #194866;}#el_-Nin6gWYCJN{fill: #194866;}#el_md-4Wf8ZFXC{fill: url(#SVGID_1_);}#el_-yKneLbjGS2{opacity: 0.2;fill: #FFFFFF;}#el_5Q4IekHm5ov{opacity: 0.2;fill: #FFFFFF;}#el_3wQ2qAUBOQm{fill: #F2EBF7;}#el_IvCsJzipxpL{fill: #6A53A3;}#el_mMW9B78S5ij{fill: #A5509F;}#el_XQziorVO8Y6{fill: #A5509F;}#el_J2YcEt_K-LI{fill: #A5509F;}#el_GkRkBYaw6pV{fill: #A5509F;}#el_Nt-1pj24lY9{fill: #6A53A3;}#el_CQI1Pbu6m1s{fill: #FFFFFF;}#el_7MPBb5GAga6{fill: #F2EBF7;}#el_12m4Z0IUKYe{fill: #6A53A3;}#el_h5tVj40Ts8D{fill: #6A53A3;}#el_RaZHcpYqtsG{fill: #A5509F;}#el_GPkw_LOFL5K{fill: #A5509F;}#el_G88ZQI57RyH{fill: #A5509F;}#el_mPByquOiZlR{fill: #A5509F;}#el_u9w8mSP6rkc{fill: #A5509F;}#el_hgAXEMGDtaJ{fill: #6A53A3;}#el_zBnNmAcVRPZ{fill: #6A53A3;}#el_g1HF06INEsJ{fill: #6A53A3;}#el_mhDXxKIq1RF{fill: #6A53A3;}#el_POVyi7eonm8{fill: #F2EBF7;}#el_XNcLR0eaK3N{fill: #6A53A3;}#el_vpdCl-x-7Eq{fill: #A5509F;}#el_eScmeRfSvuW{fill: #A5509F;}#el_BCTH5vWGYkw{fill: #A5509F;}#el_E-dXWKT2DKo{fill: #A5509F;}#el_e3oYC5fGaid{fill: #F2EBF7;}#el_CfA7a-zcYxU{fill: #6A53A3;}#el_dw24BN0uJ2g{fill: #6A53A3;}#el_TOKMd6Q-lWl{fill: #A5509F;}#el_qG-VJGR1dpP{fill: #A5509F;}#el_o7dNNOJlgYe{fill: #A5509F;}#el__oPSsFMXkVe{fill: #A5509F;}#el_L2siA6R1sjw{fill: #A5509F;}#el_ppnEJBjv7ht{fill: #6A53A3;}#el_HnzHViOt6kb{fill: #6A53A3;}#el_t6xMmXkhaKT{fill: #6A53A3;}#el_ekqDky2XIvq{fill: #6A53A3;}#el_NB0bjoYQV4w{fill: url(#SVGID_2_);}#el_BeDzIVUemk7{fill: #FFFFFF;}#el_p1_oQtBDZXP{fill: #FFFFFF;}#el_wGSc6P7GYDw_an_f_CVKGlDK{-webkit-animation-fill-mode: backwards;animation-fill-mode: backwards;-webkit-transform: translate(137.79999542236328px, 236.1500015258789px) translate(-137.79999542236328px, -236.1500015258789px) translate(0px, 100px);transform: translate(137.79999542236328px, 236.1500015258789px) translate(-137.79999542236328px, -236.1500015258789px) translate(0px, 100px);-webkit-animation-name: kf_el_wGSc6P7GYDw_an_f_CVKGlDK;animation-name: kf_el_wGSc6P7GYDw_an_f_CVKGlDK;-webkit-animation-timing-function: cubic-bezier(0, 0, 0.58, 1);animation-timing-function: cubic-bezier(0, 0, 0.58, 1);}#el_wGSc6P7GYDw{-webkit-animation-fill-mode: backwards;animation-fill-mode: backwards;opacity: 0;-webkit-animation-name: kf_el_wGSc6P7GYDw_an_w3C4S60cK;animation-name: kf_el_wGSc6P7GYDw_an_w3C4S60cK;-webkit-animation-timing-function: cubic-bezier(0, 0, 0.58, 1);animation-timing-function: cubic-bezier(0, 0, 0.58, 1);}#el_FrU3ij0ubqK_an_n63veksBI{-webkit-animation-fill-mode: backwards;animation-fill-mode: backwards;-webkit-transform: translate(289.75001525878906px, 273.49999237060547px) translate(-289.75001525878906px, -273.49999237060547px) translate(0px, 100px);transform: translate(289.75001525878906px, 273.49999237060547px) translate(-289.75001525878906px, -273.49999237060547px) translate(0px, 100px);-webkit-animation-name: kf_el_FrU3ij0ubqK_an_n63veksBI;animation-name: kf_el_FrU3ij0ubqK_an_n63veksBI;-webkit-animation-timing-function: cubic-bezier(0, 0, 0.58, 1);animation-timing-function: cubic-bezier(0, 0, 0.58, 1);}#el_FrU3ij0ubqK{-webkit-animation-fill-mode: backwards;animation-fill-mode: backwards;opacity: 0;-webkit-animation-name: kf_el_FrU3ij0ubqK_an_7rZCc7U1M;animation-name: kf_el_FrU3ij0ubqK_an_7rZCc7U1M;-webkit-animation-timing-function: cubic-bezier(0, 0, 0.58, 1);animation-timing-function: cubic-bezier(0, 0, 0.58, 1);}#el_3UnfucLGs12_an_n5MEz1Xta{-webkit-animation-fill-mode: backwards;animation-fill-mode: backwards;-webkit-transform: translate(321.4499816894531px, 89.79999923706055px) translate(-321.4499816894531px, -89.79999923706055px) translate(0px, 100px);transform: translate(321.4499816894531px, 89.79999923706055px) translate(-321.4499816894531px, -89.79999923706055px) translate(0px, 100px);-webkit-animation-name: kf_el_3UnfucLGs12_an_n5MEz1Xta;animation-name: kf_el_3UnfucLGs12_an_n5MEz1Xta;-webkit-animation-timing-function: cubic-bezier(0, 0, 0.58, 1);animation-timing-function: cubic-bezier(0, 0, 0.58, 1);}#el_3UnfucLGs12{-webkit-animation-fill-mode: backwards;animation-fill-mode: backwards;opacity: 0;-webkit-animation-name: kf_el_3UnfucLGs12_an_JHlntDAMV;animation-name: kf_el_3UnfucLGs12_an_JHlntDAMV;-webkit-animation-timing-function: cubic-bezier(0, 0, 0.58, 1);animation-timing-function: cubic-bezier(0, 0, 0.58, 1);}#el_CLc8r-YeRAV_an_NNEsxNG5I{-webkit-animation-fill-mode: backwards;animation-fill-mode: backwards;-webkit-transform: translate(236.89999389648438px, 152.6999969482422px) translate(-236.89999389648438px, -152.6999969482422px) translate(0px, 100px);transform: translate(236.89999389648438px, 152.6999969482422px) translate(-236.89999389648438px, -152.6999969482422px) translate(0px, 100px);-webkit-animation-name: kf_el_CLc8r-YeRAV_an_NNEsxNG5I;animation-name: kf_el_CLc8r-YeRAV_an_NNEsxNG5I;-webkit-animation-timing-function: cubic-bezier(0, 0, 1, 1);animation-timing-function: cubic-bezier(0, 0, 1, 1);}#el_CLc8r-YeRAV{-webkit-animation-fill-mode: backwards;animation-fill-mode: backwards;opacity: 0;-webkit-animation-name: kf_el_CLc8r-YeRAV_an_e8wR1A1eW;animation-name: kf_el_CLc8r-YeRAV_an_e8wR1A1eW;-webkit-animation-timing-function: cubic-bezier(0, 0, 1, 1);animation-timing-function: cubic-bezier(0, 0, 1, 1);}#el_7VIXfa4QFIT_an_qHq6oitjS{-webkit-animation-fill-mode: backwards;animation-fill-mode: backwards;-webkit-transform: translate(124.3499984741211px, 307px) translate(-124.3499984741211px, -307px) translate(0px, 0px);transform: translate(124.3499984741211px, 307px) translate(-124.3499984741211px, -307px) translate(0px, 0px);-webkit-animation-name: kf_el_7VIXfa4QFIT_an_qHq6oitjS;animation-name: kf_el_7VIXfa4QFIT_an_qHq6oitjS;-webkit-animation-timing-function: cubic-bezier(0, 0, 0.58, 1);animation-timing-function: cubic-bezier(0, 0, 0.58, 1);}</style>

<g id="el_6CZCBtJU1i">
	<g id="el_BtEYR08Ds4">
		<g id="el_Jk6GcnSZqK">
			<rect x="200.8" y="83.9" width="0.2" height="97.4" id="el_o4BxKLJh2s"/>
		</g>
		<g id="el_g3rjEsqLwZ">
			<rect x="161.1" y="83.9" width="0.2" height="97.4" id="el_0BT2P6dgyi"/>
		</g>
		<g id="el_4KYWUqePOK">
			<rect x="121.4" y="83.9" width="0.2" height="97.4" id="el_jyjFZY0b9q"/>
		</g>
		<g id="el_-uiTx1lo0p">
			<rect x="81.7" y="83.9" width="0.2" height="97.4" id="el_bhT07JzpKn"/>
		</g>
		<g id="el_4iXWS66Y__">
			<g id="el_3nDK_vyTIZ">
				<g id="el_ni_AvtsbJz">
					<path d="M240.7,181.4H42V83.8h198.6V181.4z M42.2,181.2h198.2V84H42.2V181.2z" id="el_2tJ0x9klZC"/>
				</g>
				<g id="el_PYsoJsWfVs">
					<rect x="42.1" y="164.9" width="198.4" height="0.2" id="el_IQbnLJ3Qmhi"/>
				</g>
				<g id="el_z2Wf18ONDql">
					<rect x="42.1" y="148.7" width="198.4" height="0.2" id="el_L6KUubpAo0o"/>
				</g>
				<g id="el_5cCM87weogS">
					<rect x="42.1" y="132.5" width="198.4" height="0.2" id="el_8CZCExM_0jU"/>
				</g>
				<g id="el_TSNEzBshMFl">
					<rect x="42.1" y="116.3" width="198.4" height="0.2" id="el_ZNNPjl6wltu"/>
				</g>
				<g id="el_VA1S2hoFrrx">
					<rect x="42.1" y="100" width="198.4" height="0.2" id="el_9z1_gS3p8VQ"/>
				</g>
				<g id="el_y4eSE5U_F6F">
					<path d="M38.8,180.4c0,1.4-0.5,2.2-1.5,2.2c-0.8,0-1.4-0.8-1.4-2.2c0-1.4,0.6-2.2,1.5-2.2&#xA;&#9;&#9;&#9;&#9;&#9;&#9;C38.3,178.3,38.8,179,38.8,180.4z M36.5,180.5c0,1.1,0.3,1.7,0.9,1.7c0.6,0,0.9-0.7,0.9-1.8c0-1-0.3-1.7-0.9-1.7&#xA;&#9;&#9;&#9;&#9;&#9;&#9;C36.8,178.7,36.5,179.3,36.5,180.5z" id="el_gymwhv1-kwj"/>
				</g>
				<g id="el_aDyi_tHibc6">
					<path d="M33.9,162.6L33.9,162.6l-0.7,0.4l-0.1-0.4l0.9-0.5h0.5v4.2h-0.6V162.6z" id="el_-Qd6-tthgXi"/>
					<path d="M38.8,164.1c0,1.4-0.5,2.2-1.5,2.2c-0.8,0-1.4-0.8-1.4-2.2c0-1.4,0.6-2.2,1.5-2.2&#xA;&#9;&#9;&#9;&#9;&#9;&#9;C38.3,162,38.8,162.8,38.8,164.1z M36.5,164.2c0,1.1,0.3,1.7,0.9,1.7c0.6,0,0.9-0.7,0.9-1.8c0-1-0.3-1.7-0.9-1.7&#xA;&#9;&#9;&#9;&#9;&#9;&#9;C36.8,162.4,36.5,163,36.5,164.2z" id="el_QyUMSQTzBVI"/>
				</g>
				<g id="el_ZKHpMfp2zma">
					<path d="M32.6,150v-0.4l0.4-0.4c1.1-1,1.6-1.6,1.6-2.2c0-0.4-0.2-0.8-0.8-0.8c-0.4,0-0.7,0.2-0.9,0.4l-0.2-0.4&#xA;&#9;&#9;&#9;&#9;&#9;&#9;c0.3-0.2,0.7-0.4,1.2-0.4c0.9,0,1.3,0.6,1.3,1.2c0,0.8-0.6,1.4-1.5,2.3l-0.3,0.3v0h1.9v0.5H32.6z" id="el_BGswVOe4Zhd"/>
					<path d="M38.8,147.8c0,1.4-0.5,2.2-1.5,2.2c-0.8,0-1.4-0.8-1.4-2.2c0-1.4,0.6-2.2,1.5-2.2&#xA;&#9;&#9;&#9;&#9;&#9;&#9;C38.3,145.7,38.8,146.5,38.8,147.8z M36.5,147.9c0,1.1,0.3,1.7,0.9,1.7c0.6,0,0.9-0.7,0.9-1.8c0-1-0.3-1.7-0.9-1.7&#xA;&#9;&#9;&#9;&#9;&#9;&#9;C36.8,146.1,36.5,146.7,36.5,147.9z" id="el_P9eJl894FzX"/>
				</g>
				<g id="el_4JD1v8pbJFd">
					<path d="M32.8,133c0.2,0.1,0.5,0.3,0.9,0.3c0.7,0,1-0.5,1-0.8c0-0.6-0.5-0.8-1.1-0.8h-0.3v-0.4h0.3&#xA;&#9;&#9;&#9;&#9;&#9;&#9;c0.4,0,0.9-0.2,0.9-0.7c0-0.3-0.2-0.6-0.7-0.6c-0.3,0-0.7,0.1-0.8,0.3l-0.1-0.4c0.2-0.2,0.6-0.3,1.1-0.3c0.8,0,1.2,0.5,1.2,1&#xA;&#9;&#9;&#9;&#9;&#9;&#9;c0,0.4-0.3,0.8-0.8,1v0c0.5,0.1,0.9,0.5,0.9,1.1c0,0.7-0.5,1.3-1.5,1.3c-0.5,0-0.9-0.1-1.1-0.3L32.8,133z" id="el_gR3Er0WNn2g"/>
					<path d="M38.8,131.5c0,1.4-0.5,2.2-1.5,2.2c-0.8,0-1.4-0.8-1.4-2.2c0-1.4,0.6-2.2,1.5-2.2&#xA;&#9;&#9;&#9;&#9;&#9;&#9;C38.3,129.4,38.8,130.2,38.8,131.5z M36.5,131.6c0,1.1,0.3,1.7,0.9,1.7c0.6,0,0.9-0.7,0.9-1.8c0-1-0.3-1.7-0.9-1.7&#xA;&#9;&#9;&#9;&#9;&#9;&#9;C36.8,129.8,36.5,130.5,36.5,131.6z" id="el_aAJn3FK0OGD"/>
				</g>
				<g id="el_8w3cYLVqg0g">
					<path d="M34.4,117.4v-1.1h-2v-0.4l1.9-2.7h0.6v2.6h0.6v0.4h-0.6v1.1H34.4z M34.4,115.8v-1.4c0-0.2,0-0.4,0-0.7h0&#xA;&#9;&#9;&#9;&#9;&#9;&#9;c-0.1,0.2-0.2,0.4-0.4,0.6l-1,1.4v0H34.4z" id="el_4C5SA4e1Z_i"/>
					<path d="M38.8,115.3c0,1.4-0.5,2.2-1.5,2.2c-0.8,0-1.4-0.8-1.4-2.2c0-1.4,0.6-2.2,1.5-2.2&#xA;&#9;&#9;&#9;&#9;&#9;&#9;C38.3,113.1,38.8,113.9,38.8,115.3z M36.5,115.3c0,1.1,0.3,1.7,0.9,1.7c0.6,0,0.9-0.7,0.9-1.8c0-1-0.3-1.7-0.9-1.7&#xA;&#9;&#9;&#9;&#9;&#9;&#9;C36.8,113.6,36.5,114.2,36.5,115.3z" id="el_BGAviVDdIbL"/>
				</g>
				<g id="el_6GRLdiNeLGB">
					<path d="M35.2,97.4h-1.6l-0.2,1.1c0.1,0,0.2,0,0.3,0c0.3,0,0.6,0.1,0.9,0.2c0.3,0.2,0.6,0.6,0.6,1.1&#xA;&#9;&#9;&#9;&#9;&#9;&#9;c0,0.8-0.7,1.4-1.6,1.4c-0.5,0-0.9-0.1-1.1-0.3l0.1-0.4c0.2,0.1,0.5,0.2,0.9,0.2c0.5,0,1-0.4,1-0.9c0-0.5-0.4-0.9-1.2-0.9&#xA;&#9;&#9;&#9;&#9;&#9;&#9;c-0.2,0-0.4,0-0.6,0l0.3-2h2V97.4z" id="el_0hDxoKjjLuM"/>
					<path d="M38.8,99c0,1.4-0.5,2.2-1.5,2.2c-0.8,0-1.4-0.8-1.4-2.2c0-1.4,0.6-2.2,1.5-2.2&#xA;&#9;&#9;&#9;&#9;&#9;&#9;C38.3,96.8,38.8,97.6,38.8,99z M36.5,99c0,1.1,0.3,1.7,0.9,1.7c0.6,0,0.9-0.7,0.9-1.8c0-1-0.3-1.7-0.9-1.7&#xA;&#9;&#9;&#9;&#9;&#9;&#9;C36.8,97.3,36.5,97.9,36.5,99z" id="el_6cGAGb1aO_8"/>
				</g>
				<g id="el_75nVqrI_sTG">
					<path d="M61.3,186.6L61.3,186.6l-0.7,0.4l-0.1-0.4l0.9-0.5h0.5v4h-0.5V186.6z" id="el_QRYbQyMnIiv"/>
				</g>
				<g id="el_5GHwt4p1Z-i">
					<path d="M99.9,190.1v-0.3l0.4-0.4c1-1,1.5-1.5,1.5-2.1c0-0.4-0.2-0.8-0.8-0.8c-0.4,0-0.7,0.2-0.8,0.3l-0.2-0.4&#xA;&#9;&#9;&#9;&#9;&#9;&#9;c0.3-0.2,0.7-0.4,1.1-0.4c0.9,0,1.2,0.6,1.2,1.2c0,0.7-0.5,1.3-1.4,2.1l-0.3,0.3v0h1.8v0.4H99.9z" id="el_ugqkKGfXX0q"/>
				</g>
				<g id="el_eEqOrF3mBzS">
					<path d="M139.7,189.5c0.2,0.1,0.5,0.2,0.9,0.2c0.7,0,0.9-0.4,0.9-0.8c0-0.6-0.5-0.8-1-0.8h-0.3v-0.4h0.3&#xA;&#9;&#9;&#9;&#9;&#9;&#9;c0.4,0,0.9-0.2,0.9-0.7c0-0.3-0.2-0.6-0.7-0.6c-0.3,0-0.6,0.1-0.8,0.3l-0.1-0.4c0.2-0.2,0.6-0.3,1-0.3c0.8,0,1.1,0.5,1.1,0.9&#xA;&#9;&#9;&#9;&#9;&#9;&#9;c0,0.4-0.2,0.8-0.7,0.9v0c0.5,0.1,0.9,0.5,0.9,1c0,0.6-0.5,1.2-1.4,1.2c-0.4,0-0.8-0.1-1-0.3L139.7,189.5z" id="el_FuUrtgO8pbs"/>
				</g>
				<g id="el_YGgaVmZXAQg">
					<path d="M180.9,190.1V189h-1.8v-0.4l1.8-2.5h0.6v2.5h0.6v0.4h-0.6v1.1H180.9z M180.9,188.6v-1.3c0-0.2,0-0.4,0-0.6&#xA;&#9;&#9;&#9;&#9;&#9;&#9;h0c-0.1,0.2-0.2,0.4-0.3,0.6l-1,1.3v0H180.9z" id="el_amXfYIYhLjy"/>
				</g>
				<g id="el_SpdhLNhBVo4">
					<path d="M221.3,186.6h-1.5l-0.2,1c0.1,0,0.2,0,0.3,0c0.3,0,0.6,0.1,0.9,0.2c0.3,0.2,0.6,0.5,0.6,1&#xA;&#9;&#9;&#9;&#9;&#9;&#9;c0,0.8-0.6,1.4-1.5,1.4c-0.4,0-0.8-0.1-1-0.2l0.1-0.4c0.2,0.1,0.5,0.2,0.8,0.2c0.5,0,0.9-0.3,0.9-0.9c0-0.5-0.3-0.9-1.1-0.9&#xA;&#9;&#9;&#9;&#9;&#9;&#9;c-0.2,0-0.4,0-0.5,0l0.3-1.9h1.9V186.6z" id="el_TFWWJTWayHv"/>
				</g>
			</g>
		</g>
		<g id="el_GognhGG_dt8">
			<g id="el_GMn8GsRDRL6">
				<polygon points="42.3,182.5 41.9,181.4 81.6,165.2 121.3,147.8 161.1,131.8 201.1,131.8 240.3,115.9 240.8,116.9 &#xA;&#9;&#9;&#9;&#9;&#9;201.3,132.9 161.3,132.9 121.7,148.9 82,166.2 &#9;&#9;&#9;&#9;" id="el_PSsuPYSHSFT"/>
			</g>
			<g id="el_hjm4GxTZzeX">
				<polygon points="121.5,165.7 81.8,149.5 42.3,165.6 41.9,164.5 81.8,148.2 82,148.3 121.5,164.4 160.8,149.5 &#xA;&#9;&#9;&#9;&#9;&#9;200.5,100.6 200.6,100.6 240.3,83.3 240.8,84.4 201.2,101.6 161.5,150.5 161.4,150.5 &#9;&#9;&#9;&#9;" id="el_BrhF6B0Yovj"/>
			</g>
			<g id="el_757AGgRk8XV">
				<path d="M203.1,101.1c0,1.3-1,2.3-2.3,2.3c-1.3,0-2.3-1-2.3-2.3c0-1.3,1-2.3,2.3-2.3&#xA;&#9;&#9;&#9;&#9;&#9;C202.1,98.9,203.1,99.9,203.1,101.1z" id="el_bCWtm1nc2mA"/>
				<path d="M200.9,104c-1.6,0-2.9-1.3-2.9-2.9c0-1.6,1.3-2.9,2.9-2.9c1.6,0,2.9,1.3,2.9,2.9&#xA;&#9;&#9;&#9;&#9;&#9;C203.7,102.7,202.4,104,200.9,104z M200.9,99.5c-0.9,0-1.7,0.8-1.7,1.7c0,0.9,0.8,1.7,1.7,1.7c0.9,0,1.7-0.8,1.7-1.7&#xA;&#9;&#9;&#9;&#9;&#9;C202.5,100.2,201.8,99.5,200.9,99.5z" id="el_foF4gLxbyRR"/>
			</g>
			<g id="el_uQ7uO7NrT7v">
				<path d="M163.4,150c0,1.3-1,2.3-2.3,2.3c-1.3,0-2.3-1-2.3-2.3c0-1.3,1-2.3,2.3-2.3&#xA;&#9;&#9;&#9;&#9;&#9;C162.4,147.7,163.4,148.7,163.4,150z" id="el_ayc3N1apGk1"/>
				<path d="M161.2,152.8c-1.6,0-2.9-1.3-2.9-2.9c0-1.6,1.3-2.9,2.9-2.9c1.6,0,2.9,1.3,2.9,2.9&#xA;&#9;&#9;&#9;&#9;&#9;C164,151.6,162.8,152.8,161.2,152.8z M161.2,148.3c-0.9,0-1.7,0.8-1.7,1.7c0,0.9,0.8,1.7,1.7,1.7c0.9,0,1.7-0.8,1.7-1.7&#xA;&#9;&#9;&#9;&#9;&#9;C162.8,149.1,162.1,148.3,161.2,148.3z" id="el_XTih5cLeYBT"/>
			</g>
			<g id="el_DtJk72nZ-VV">
				<path d="M123.8,165.1c0,1.3-1,2.3-2.3,2.3c-1.3,0-2.3-1-2.3-2.3c0-1.3,1-2.3,2.3-2.3&#xA;&#9;&#9;&#9;&#9;&#9;C122.7,162.8,123.8,163.8,123.8,165.1z" id="el_pKO7p0MAIFx"/>
				<path d="M121.5,167.9c-1.6,0-2.9-1.3-2.9-2.9c0-1.6,1.3-2.9,2.9-2.9c1.6,0,2.9,1.3,2.9,2.9&#xA;&#9;&#9;&#9;&#9;&#9;C124.4,166.6,123.1,167.9,121.5,167.9z M121.5,163.4c-0.9,0-1.7,0.8-1.7,1.7c0,0.9,0.8,1.7,1.7,1.7c0.9,0,1.7-0.8,1.7-1.7&#xA;&#9;&#9;&#9;&#9;&#9;C123.2,164.1,122.4,163.4,121.5,163.4z" id="el_Ou6G61MAFIP"/>
			</g>
			<g id="el_IaiIfUrHTb_">
				<path d="M84.1,148.8c0,1.3-1,2.3-2.3,2.3c-1.3,0-2.3-1-2.3-2.3c0-1.3,1-2.3,2.3-2.3&#xA;&#9;&#9;&#9;&#9;&#9;C83.1,146.6,84.1,147.6,84.1,148.8z" id="el_0E5LwtEamO1"/>
				<path d="M81.8,151.7c-1.6,0-2.9-1.3-2.9-2.9c0-1.6,1.3-2.9,2.9-2.9c1.6,0,2.9,1.3,2.9,2.9&#xA;&#9;&#9;&#9;&#9;&#9;C84.7,150.4,83.4,151.7,81.8,151.7z M81.8,147.1c-0.9,0-1.7,0.8-1.7,1.7c0,0.9,0.8,1.7,1.7,1.7c0.9,0,1.7-0.8,1.7-1.7&#xA;&#9;&#9;&#9;&#9;&#9;C83.5,147.9,82.7,147.1,81.8,147.1z" id="el_JvSyTMuqHkB"/>
			</g>
			<g id="el__0no-ANMQvq">
				<path d="M162.5,132.5c0,1.3-1,2.3-2.3,2.3c-1.3,0-2.3-1-2.3-2.3c0-1.3,1-2.3,2.3-2.3&#xA;&#9;&#9;&#9;&#9;&#9;C161.5,130.2,162.5,131.3,162.5,132.5z" id="el_7M9KmMXUIH5"/>
				<path d="M160.3,135.3c-1.6,0-2.8-1.3-2.8-2.8c0-1.6,1.3-2.8,2.8-2.8c1.6,0,2.8,1.3,2.8,2.8&#xA;&#9;&#9;&#9;&#9;&#9;C163.1,134.1,161.8,135.3,160.3,135.3z M160.3,130.8c-0.9,0-1.7,0.8-1.7,1.7c0,0.9,0.8,1.7,1.7,1.7c0.9,0,1.7-0.8,1.7-1.7&#xA;&#9;&#9;&#9;&#9;&#9;C162,131.6,161.2,130.8,160.3,130.8z" id="el_Y4qOLsmtdZx"/>
			</g>
			<g id="el_eoUZUMnYdgU">
				<path d="M203.1,132.5c0,1.3-1,2.3-2.3,2.3c-1.3,0-2.3-1-2.3-2.3c0-1.3,1-2.3,2.3-2.3&#xA;&#9;&#9;&#9;&#9;&#9;C202.1,130.2,203.1,131.3,203.1,132.5z" id="el_9Ocm-epujmG"/>
				<path d="M200.8,135.3c-1.6,0-2.8-1.3-2.8-2.8c0-1.6,1.3-2.8,2.8-2.8c1.6,0,2.8,1.3,2.8,2.8&#xA;&#9;&#9;&#9;&#9;&#9;C203.7,134.1,202.4,135.3,200.8,135.3z M200.8,130.8c-0.9,0-1.7,0.8-1.7,1.7c0,0.9,0.8,1.7,1.7,1.7c0.9,0,1.7-0.8,1.7-1.7&#xA;&#9;&#9;&#9;&#9;&#9;C202.5,131.6,201.8,130.8,200.8,130.8z" id="el_y9KqK9gS52X"/>
			</g>
		</g>
	</g>
</g>
<g id="el_dRSunk5fYF0">
	<g id="el_1XPnMZ9o3ft">
		<path d="M281.7,346.7c-1.7,8.5-10,14.1-18.5,12.5l-92.6-18.1c-8.5-1.7-14.1-10-12.5-18.5l42.9-219.4&#xA;&#9;&#9;&#9;c1.7-8.5,10-14.1,18.5-12.5l92.6,18.1c8.5,1.7,14.1,10,12.5,18.5L281.7,346.7z" id="el_mmHcQVPUdKD"/>
	</g>
	<g id="el_mRLWlFlpUYQ">
		<path d="M173.5,339.2c-8.5-1.7-14.1-10-12.5-18.5L203,106c1.7-8.5,10-14.1,18.5-12.5l87.8,17.2&#xA;&#9;&#9;&#9;c8.5,1.7,14.1,10,12.5,18.5l-42,214.6c-1.7,8.5-10,14.1-18.5,12.5L173.5,339.2z" id="el_g0u4pZUFegc"/>
	</g>
	<polygon points="198.7,127.1 198.7,127.1 195.8,126.5 195.8,126.5 197.7,117 197.7,117 200.6,117.6 200.6,117.6 &#9;" id="el_HT7FltKsAZN"/>
	<polygon points="193.8,152.1 193.8,152.1 190.9,151.6 190.9,151.6 194,135.5 194,135.5 197,136.1 197,136.1 &#9;" id="el_BbgwgPmhmfI"/>
	<polygon points="190.1,171.2 190.1,171.2 187.2,170.7 187.2,170.7 190.2,155.3 190.2,155.3 193.1,155.9 193.1,155.9 &#9;&#xA;&#9;&#9;" id="el_-Nin6gWYCJN"/>
	<g id="el_pJNDBudRJJh">
		<linearGradient id="SVGID_1_" gradientUnits="userSpaceOnUse" x1="168.3097" y1="224.4373" x2="314.4837" y2="224.4373">
			<stop offset="3.605769e-04" style="stop-color:#6A52A2"/>
			<stop offset="0.5806" style="stop-color:#8B51A0"/>
			<stop offset="1" style="stop-color:#A5509F"/>
		</linearGradient>
		<polygon points="276.8,331.3 168.3,310.1 206,117.5 314.5,138.8 &#9;&#9;" id="el_md-4Wf8ZFXC"/>
		<polygon points="193.9,179.4 181.7,241.6 282.3,132.5 244.1,125 &#9;&#9;" id="el_-yKneLbjGS2"/>
		<polygon points="175,276.1 303.6,136.6 289,133.8 179.6,252.4 &#9;&#9;" id="el_5Q4IekHm5ov"/>
	</g>
</g>
<g id="el_CLc8r-YeRAV_an_NNEsxNG5I" data-animator-group="true" data-animator-type="0"><g id="el_CLc8r-YeRAV">
	<rect x="236.9" y="152.7" width="153.4" height="49.9" id="el_3wQ2qAUBOQm"/>
	<g id="el_KwlqEn365rz">
		<g id="el_LZCtE_ZrIGq">
			<rect x="306.7" y="161.4" width="56.3" height="3.8" id="el_IvCsJzipxpL"/>
		</g>
		<g id="el_m6Klhn7rgQD">
			<rect x="306.7" y="169.4" width="64.2" height="2.8" id="el_mMW9B78S5ij"/>
		</g>
		<g id="el_Yyd7pzcN2pB">
			<rect x="306.5" y="176" width="56.1" height="2.8" id="el_XQziorVO8Y6"/>
		</g>
		<g id="el_KxLsFXBflly">
			<rect x="306.5" y="182.4" width="62.4" height="2.8" id="el_J2YcEt_K-LI"/>
		</g>
		<g id="el_RiTZDDxXgmp">
			<rect x="306.5" y="189.2" width="13.9" height="2.8" id="el_GkRkBYaw6pV"/>
		</g>
	</g>
	<rect x="244.8" y="161.6" width="56.7" height="33" id="el_Nt-1pj24lY9"/>
	<path d="M273.1,172.5c-3.1,0-5.6,2.5-5.6,5.6c0,3.1,2.5,5.6,5.6,5.6c3.1,0,5.6-2.5,5.6-5.6&#xA;&#9;&#9;C278.7,175,276.2,172.5,273.1,172.5z M275.4,178.1l-3.7,2.1c0,0,0,0-0.1,0c0,0,0,0,0-0.1v-4.3c0,0,0-0.1,0-0.1c0,0,0,0,0.1,0&#xA;&#9;&#9;L275.4,178.1C275.4,178,275.4,178.1,275.4,178.1C275.4,178.1,275.4,178.1,275.4,178.1z" id="el_CQI1Pbu6m1s"/>
</g></g>
<g id="el_3UnfucLGs12_an_n5MEz1Xta" data-animator-group="true" data-animator-type="0"><g id="el_3UnfucLGs12">
	<rect x="279.8" y="61.5" width="83.3" height="56.6" id="el_7MPBb5GAga6"/>
	<g id="el_Y5Wlrv5yHR5">
		<g id="el_tHMb_f6xWGn">
			<rect x="288.8" y="102" width="27.7" height="2.4" id="el_12m4Z0IUKYe"/>
			<rect x="288.8" y="106.4" width="10.4" height="2.4" id="el_h5tVj40Ts8D"/>
		</g>
		<g id="el_TKVinqjw6gq">
			<path d="M296.5,89.9l-1.6-5.1c-0.1-0.2-0.3-0.4-0.5-0.4c0,0,0,0,0,0c-1.2-0.4-2.3-0.4-3.5,0c0,0,0,0,0,0&#xA;&#9;&#9;&#9;&#9;c-0.2,0-0.4,0.2-0.5,0.4l-1.6,5.1c-0.1,0.3,0.1,0.7,0.4,0.8c0.1,0,0.1,0,0.2,0c0.3,0,0.5-0.2,0.6-0.5l0.8-2.7h0.1&#xA;&#9;&#9;&#9;&#9;c-0.2,1-0.4,2-0.6,3c-0.1,0.5,0.2,0.9,0.6,0.9v2.7c0,0.4,0.3,0.8,0.8,0.8c0.4,0,0.8-0.4,0.8-0.8v-2.6c0.1,0,0.1,0,0.2,0v2.6&#xA;&#9;&#9;&#9;&#9;c0,0.4,0.4,0.8,0.8,0.8c0.4,0,0.8-0.4,0.8-0.8v-2.7c0.4-0.1,0.7-0.5,0.6-0.9c-0.2-1-0.4-2-0.6-3h0.1l0.8,2.7&#xA;&#9;&#9;&#9;&#9;c0.1,0.3,0.3,0.5,0.6,0.5c0.1,0,0.1,0,0.2,0C296.4,90.5,296.6,90.2,296.5,89.9z" id="el_RaZHcpYqtsG"/>
			<path d="M292.7,83.7c0.8,0,1.4-0.6,1.4-1.4c0-0.8-0.6-1.4-1.4-1.4c-0.8,0-1.4,0.6-1.4,1.4&#xA;&#9;&#9;&#9;&#9;C291.2,83,291.9,83.7,292.7,83.7z" id="el_GPkw_LOFL5K"/>
		</g>
		<g id="el_Adyb8xlIqZ2">
			<rect x="299.8" y="81.7" width="54.9" height="2.8" id="el_G88ZQI57RyH"/>
			<rect x="299.8" y="86.6" width="54.9" height="2.8" id="el_mPByquOiZlR"/>
			<rect x="299.8" y="91.5" width="54.9" height="2.8" id="el_u9w8mSP6rkc"/>
			<rect x="299.8" y="81.7" width="20.8" height="2.8" id="el_hgAXEMGDtaJ"/>
			<rect x="299.8" y="86.6" width="8" height="2.8" id="el_zBnNmAcVRPZ"/>
			<rect x="299.8" y="91.5" width="49.6" height="2.8" id="el_g1HF06INEsJ"/>
		</g>
		<rect x="288.8" y="68.6" width="30.1" height="3.9" id="el_mhDXxKIq1RF"/>
	</g>
</g></g>
<g id="el_wGSc6P7GYDw_an_f_CVKGlDK" data-animator-group="true" data-animator-type="0"><g id="el_wGSc6P7GYDw">
	<g id="el_xiY3W50mmu4">
		<g id="el_UCx3nDuP1pb">
			<rect x="58.6" y="208.7" width="158.4" height="54.9" id="el_POVyi7eonm8"/>
		</g>
		<g id="el_OMfHn3f_XGu">
			<g id="el_V4FPLTdxs8I">
				<rect x="67.5" y="219.2" width="118" height="3.8" id="el_XNcLR0eaK3N"/>
			</g>
			<g id="el_67sXZE0vRUk">
				<rect x="67.5" y="227.4" width="134.6" height="2.9" id="el_vpdCl-x-7Eq"/>
			</g>
			<g id="el_6k4lle5AYG3">
				<rect x="67" y="234.1" width="117.5" height="2.9" id="el_eScmeRfSvuW"/>
			</g>
			<g id="el_HjsDpSwEzwK">
				<rect x="67" y="240.5" width="130.8" height="2.9" id="el_BCTH5vWGYkw"/>
			</g>
			<g id="el_MvCJwWnqwtb">
				<rect x="67" y="247.5" width="29.2" height="2.9" id="el_E-dXWKT2DKo"/>
			</g>
		</g>
	</g>
</g></g>
<g id="el_FrU3ij0ubqK_an_n63veksBI" data-animator-group="true" data-animator-type="0"><g id="el_FrU3ij0ubqK">
	<g id="el_LRsZIt0GrfU">
		<rect x="248.1" y="245.2" width="83.3" height="56.6" id="el_e3oYC5fGaid"/>
		<g id="el_6yOuelnqv37">
			<g id="el_nqIuIIRF-XN">
				<rect x="255.1" y="285.7" width="27.7" height="2.4" id="el_CfA7a-zcYxU"/>
				<rect x="255.1" y="290.1" width="10.4" height="2.4" id="el_dw24BN0uJ2g"/>
			</g>
			<g id="el_IB3oZ3Wuaga">
				<path d="M258,267.4c0.8,0,1.4-0.6,1.4-1.4c0-0.8-0.6-1.4-1.4-1.4c-0.8,0-1.4,0.6-1.4,1.4&#xA;&#9;&#9;&#9;&#9;&#9;C256.6,266.7,257.2,267.4,258,267.4z" id="el_TOKMd6Q-lWl"/>
				<path d="M260.9,268.3c0-0.3-0.3-0.5-0.6-0.6c0,0-0.1,0-0.1,0c-1.5-0.1-3-0.1-4.4,0c-0.1,0-0.1,0-0.1,0&#xA;&#9;&#9;&#9;&#9;&#9;c-0.3,0.1-0.5,0.3-0.5,0.6l-0.3,5c0,0.4,0.3,0.7,0.6,0.7h0c0.3,0,0.6-0.3,0.6-0.6l0-0.6c0,0,0,0,0,0c0,0,0.1,0,0.1,0&#xA;&#9;&#9;&#9;&#9;&#9;c0,0,0,0.1,0,0.1v5c0,0.4,0.4,0.8,0.8,0.8c0.4,0,0.8-0.4,0.8-0.8v-5c0-0.1,0-0.1,0-0.2c0.1,0,0.2,0,0.3,0c0,0.1,0,0.1,0,0.2v5&#xA;&#9;&#9;&#9;&#9;&#9;c0,0.4,0.4,0.8,0.8,0.8c0.4,0,0.8-0.4,0.8-0.8v-5c0,0,0-0.1,0-0.1c0,0,0.1,0,0.1,0c0,0,0,0,0,0l0,0.6c0,0.3,0.3,0.6,0.6,0.6&#xA;&#9;&#9;&#9;&#9;&#9;c0,0,0,0,0,0c0.4,0,0.6-0.3,0.6-0.7L260.9,268.3z" id="el_qG-VJGR1dpP"/>
			</g>
			<g id="el_XfYcex8-bPz">
				<rect x="265" y="265.4" width="54.9" height="2.8" id="el_o7dNNOJlgYe"/>
				<rect x="265" y="270.3" width="54.9" height="2.8" id="el__oPSsFMXkVe"/>
				<rect x="265" y="275.2" width="54.9" height="2.8" id="el_L2siA6R1sjw"/>
				<rect x="265" y="265.4" width="51.2" height="2.8" id="el_ppnEJBjv7ht"/>
				<rect x="265" y="270.3" width="19.3" height="2.8" id="el_HnzHViOt6kb"/>
				<rect x="265" y="275.2" width="25.8" height="2.8" id="el_t6xMmXkhaKT"/>
			</g>
			<rect x="254.8" y="252.3" width="30.1" height="3.9" id="el_ekqDky2XIvq"/>
		</g>
	</g>
</g></g>
<g id="el_7VIXfa4QFIT_an_qHq6oitjS" data-animator-group="true" data-animator-type="0"><g id="el_7VIXfa4QFIT">
	
		<linearGradient id="SVGID_2_" gradientUnits="userSpaceOnUse" x1="-1544.0737" y1="77.2764" x2="-1505.4102" y2="38.6129" gradientTransform="matrix(4.489700e-11 -1 -1 -4.489700e-11 182.25 -1217.75)">
		<stop offset="3.605769e-04" style="stop-color:#6A53A2"/>
		<stop offset="0.5806" style="stop-color:#8A52A0"/>
		<stop offset="1" style="stop-color:#A4509E"/>
	</linearGradient>
	<polygon points="99.8,292.8 99.8,321.1 124.3,335.3 148.9,321.1 148.9,292.8 124.3,278.7 &#9;" id="el_NB0bjoYQV4w"/>
	<g id="el_hgLhIs1m9Ut">
		<path d="M134.8,303.6c-0.4,5.5-5.9,9.9-12.6,9.9c-0.5,0-1,0-1.5-0.1c2.1,1.7,5.2,2.5,8.4,2.1l5.7,2.9v-5.5&#xA;&#9;&#9;&#9;c1.4-1.3,2.1-2.9,2.1-4.6C137,306.5,136.2,304.9,134.8,303.6z" id="el_BeDzIVUemk7"/>
		<path d="M122.2,294.5c-5.8,0-10.5,3.8-10.5,8.4c0,1.9,0.8,3.6,2.1,5v5.5l5.1-2.5c1,0.3,2.2,0.4,3.3,0.4&#xA;&#9;&#9;&#9;c5.8,0,10.5-3.8,10.5-8.4C132.8,298.3,128,294.5,122.2,294.5z" id="el_p1_oQtBDZXP"/>
	</g>
</g></g>
</svg>