<?xml version="1.0" encoding="utf-8"?>
<!-- Generator: Adobe Illustrator 23.0.4, SVG Export Plug-In . SVG Version: 6.00 Build 0)  -->
<svg version="1.1" id="Layer_1" xmlns="http://www.w3.org/2000/svg" xmlns:xlink="http://www.w3.org/1999/xlink" x="0px" y="0px"
	 viewBox="0 0 500 500" style="enable-background:new 0 0 500 500;" xml:space="preserve">
<style type="text/css">
	.st0{fill:url(#XMLID_3_);}
	.st1{fill:url(#XMLID_4_);}
	.st2{fill:url(#XMLID_5_);}
	.st3{fill:url(#XMLID_6_);}
	.st4{fill:url(#XMLID_12_);}
	.st5{fill:url(#XMLID_13_);}
	.st6{fill:url(#XMLID_14_);}
	.st7{fill:url(#XMLID_15_);}
	.st8{fill:url(#XMLID_16_);}
	.st9{fill:url(#XMLID_17_);}
	.st10{fill:url(#XMLID_18_);}
	.st11{fill:url(#XMLID_19_);}
	.st12{fill:url(#XMLID_20_);}
	.st13{fill:url(#XMLID_21_);}
	.st14{fill:url(#XMLID_22_);}
	.st15{fill:url(#XMLID_23_);}
	.st16{fill:#BFCBE8;}
	.st17{fill:url(#XMLID_24_);}
	.st18{fill:url(#XMLID_25_);}
	.st19{fill:url(#XMLID_26_);}
	.st20{fill:url(#XMLID_27_);}
	.st21{fill:url(#XMLID_37_);}
	.st22{fill:url(#XMLID_44_);}
	.st23{fill:#CFECF2;}
	.st24{fill:#6A83C1;}
	.st25{fill:#DAE0F2;}
	.st26{fill:#CDB3D6;}
	.st27{fill:#F1F2F2;}
</style>
<g>
	<radialGradient id="XMLID_3_" cx="243" cy="250.2905" r="194.1852" gradientUnits="userSpaceOnUse">
		<stop  offset="1.983173e-03" style="stop-color:#EF486C"/>
		<stop  offset="0.1931" style="stop-color:#D65077"/>
		<stop  offset="0.6106" style="stop-color:#995D92"/>
		<stop  offset="1" style="stop-color:#4E64AE"/>
	</radialGradient>
	<circle id="XMLID_79_" class="st0" cx="243" cy="250.3" r="194.2"/>
	<g id="XMLID_1_">
		<linearGradient id="XMLID_4_" gradientUnits="userSpaceOnUse" x1="243.5457" y1="174.5726" x2="243.5457" y2="473.1879">
			<stop  offset="0" style="stop-color:#FFF4E8"/>
			<stop  offset="0.3183" style="stop-color:#F3DEE1"/>
			<stop  offset="1" style="stop-color:#E1B5D4"/>
		</linearGradient>
		<polygon id="XMLID_78_" class="st1" points="305.2,174.6 254.9,174.6 180.4,174.7 86.4,473.2 254.9,473.2 400.7,473.2 		"/>
		<linearGradient id="XMLID_5_" gradientUnits="userSpaceOnUse" x1="144.5162" y1="141.3023" x2="342.5753" y2="141.3023">
			<stop  offset="0" style="stop-color:#5DB4E5"/>
			<stop  offset="0.535" style="stop-color:#94D7E1"/>
			<stop  offset="1" style="stop-color:#C0E6EC"/>
		</linearGradient>
		<circle id="XMLID_77_" class="st2" cx="243.5" cy="141.3" r="99"/>
		<linearGradient id="XMLID_6_" gradientUnits="userSpaceOnUse" x1="29.5823" y1="190.817" x2="456.4177" y2="190.817">
			<stop  offset="0" style="stop-color:#62429A"/>
			<stop  offset="1" style="stop-color:#9B78B6"/>
		</linearGradient>
		<path id="XMLID_76_" class="st3" d="M342.4,141.3c0,0-32.9,20.3-99.6,20.3s-98.7-20.3-98.7-20.3s-114.5,33-114.5,55.8
			c0,22.8,128.4,43.3,213.2,43.3s213.6-20.4,213.6-43.3C456.4,174.3,342.4,141.3,342.4,141.3z"/>
		<g id="XMLID_48_">
			<linearGradient id="XMLID_12_" gradientUnits="userSpaceOnUse" x1="237.8325" y1="28.8127" x2="242.0916" y2="28.8127">
				<stop  offset="0" style="stop-color:#4D2E91"/>
				<stop  offset="1" style="stop-color:#62429A"/>
			</linearGradient>
			<rect id="XMLID_228_" x="237.8" y="14.6" class="st4" width="4.3" height="28.4"/>
		</g>
		<linearGradient id="XMLID_13_" gradientUnits="userSpaceOnUse" x1="230.0255" y1="14.9881" x2="251.0056" y2="14.9881">
			<stop  offset="0" style="stop-color:#62429A"/>
			<stop  offset="1" style="stop-color:#9B78B6"/>
		</linearGradient>
		<circle id="XMLID_47_" class="st5" cx="240.5" cy="15" r="10.5"/>
		<linearGradient id="XMLID_14_" gradientUnits="userSpaceOnUse" x1="243.5457" y1="449.9042" x2="243.5457" y2="496.0829">
			<stop  offset="0" style="stop-color:#FFF4E8"/>
			<stop  offset="0.3183" style="stop-color:#F3DEE1"/>
			<stop  offset="1" style="stop-color:#E1B5D4"/>
		</linearGradient>
		<ellipse id="XMLID_45_" class="st6" cx="243.5" cy="473" rx="157.1" ry="23.1"/>
		<g id="XMLID_36_">
			<linearGradient id="XMLID_15_" gradientUnits="userSpaceOnUse" x1="188.8524" y1="340.4501" x2="310.5511" y2="340.4501">
				<stop  offset="0" style="stop-color:#5DB4E5"/>
				<stop  offset="0.535" style="stop-color:#94D7E1"/>
				<stop  offset="1" style="stop-color:#C0E6EC"/>
			</linearGradient>
			<path id="XMLID_43_" class="st7" d="M309,350.7L247.4,397c-1.8,1.3-4.3,1-5.6-0.8l-52.2-69.4c-1.3-1.8-1-4.3,0.8-5.6l50.6-38
				l25.4,4.4l43.3,57.6C311.1,346.9,310.7,349.4,309,350.7z"/>
			<linearGradient id="XMLID_16_" gradientUnits="userSpaceOnUse" x1="241.0365" y1="290.2299" x2="266.4644" y2="290.2299">
				<stop  offset="0.4264" style="stop-color:#5355A5"/>
				<stop  offset="0.7654" style="stop-color:#5463AD"/>
				<stop  offset="1" style="stop-color:#6475B8"/>
			</linearGradient>
			<path id="XMLID_42_" class="st8" d="M241,283.1l25.4,4.4l-11,9.1c-1.4,1.2-3.6,0.9-4.7-0.6L241,283.1z"/>
			<g id="XMLID_39_">
				<linearGradient id="XMLID_17_" gradientUnits="userSpaceOnUse" x1="222.0125" y1="334.4906" x2="232.24" y2="334.4906">
					<stop  offset="0" style="stop-color:#4D2E91"/>
					<stop  offset="1" style="stop-color:#62429A"/>
				</linearGradient>
				<path id="XMLID_41_" class="st9" d="M231.2,331.4c1.7,2.3,1.2,5.5-1,7.2c-2.3,1.7-5.5,1.2-7.2-1c-1.7-2.3-1.2-5.5,1-7.2
					C226.3,328.7,229.5,329.2,231.2,331.4z"/>
				<linearGradient id="XMLID_18_" gradientUnits="userSpaceOnUse" x1="249.872" y1="313.5586" x2="260.0996" y2="313.5586">
					<stop  offset="0" style="stop-color:#4D2E91"/>
					<stop  offset="1" style="stop-color:#62429A"/>
				</linearGradient>
				<path id="XMLID_40_" class="st10" d="M259.1,310.5c1.7,2.3,1.2,5.5-1,7.2c-2.3,1.7-5.5,1.2-7.2-1c-1.7-2.3-1.2-5.5,1-7.2
					C254.2,307.8,257.4,308.2,259.1,310.5z"/>
			</g>
			<linearGradient id="XMLID_19_" gradientUnits="userSpaceOnUse" x1="245.0901" y1="341.339" x2="262.585" y2="341.339">
				<stop  offset="0.4264" style="stop-color:#5355A5"/>
				<stop  offset="0.7654" style="stop-color:#5463AD"/>
				<stop  offset="1" style="stop-color:#6475B8"/>
			</linearGradient>
			<path id="XMLID_38_" class="st11" d="M258.4,337.9c4.1,5.5,5.4,11.4,2.8,13.4c-2.5,1.9-7.9-1-12-6.4c-4.1-5.5-5.4-11.4-2.8-13.4
				C248.9,329.5,254.3,332.4,258.4,337.9z"/>
		</g>
		<linearGradient id="XMLID_20_" gradientUnits="userSpaceOnUse" x1="332.5711" y1="287.9344" x2="374.9815" y2="287.9344">
			<stop  offset="0" style="stop-color:#5DB4E5"/>
			<stop  offset="0.535" style="stop-color:#94D7E1"/>
			<stop  offset="1" style="stop-color:#C0E6EC"/>
		</linearGradient>
		<path id="XMLID_35_" class="st12" d="M357.3,312.2l-23.5,2.6c-1.2,0.1-1.7-1.4-0.8-2.1c4.4-2.9,10.6-8.7,15-19.3
			c4.5-10.8,3.5-17.2,3-19.3c-0.1-0.5,0.1-1,0.6-1.3l21.3-11.6c0.7-0.4,1.5,0,1.7,0.8c0.6,3.7,1.4,13.8-3.3,25.9
			c-5,12.9-11.7,21.9-13.2,23.8C357.9,312,357.6,312.1,357.3,312.2z"/>
		<linearGradient id="XMLID_21_" gradientUnits="userSpaceOnUse" x1="88.4091" y1="419.1762" x2="137.3712" y2="419.1762">
			<stop  offset="0" style="stop-color:#5DB4E5"/>
			<stop  offset="0.535" style="stop-color:#94D7E1"/>
			<stop  offset="1" style="stop-color:#C0E6EC"/>
		</linearGradient>
		<path id="XMLID_34_" class="st13" d="M92.4,399.5c-2.7,6.8-10.8,31.6,9.2,47.5c1.1,0.9,2.6,1.1,3.9,0.5l29.8-13.5
			c2.2-1,2.9-3.8,1.4-5.7c-4.7-6.2-12.9-19.4-9.6-33c0.7-2.7-1.7-5.2-4.5-4.6l-27.6,6.6C93.8,397.5,92.8,398.4,92.4,399.5z"/>
		<linearGradient id="XMLID_22_" gradientUnits="userSpaceOnUse" x1="124.2508" y1="191.0278" x2="176.4856" y2="191.0278">
			<stop  offset="0" style="stop-color:#4D2E91"/>
			<stop  offset="1" style="stop-color:#62429A"/>
		</linearGradient>
		<circle id="XMLID_61_" class="st14" cx="150.4" cy="191" r="26.1"/>
		<linearGradient id="XMLID_23_" gradientUnits="userSpaceOnUse" x1="310.6057" y1="191.0278" x2="362.8406" y2="191.0278">
			<stop  offset="0" style="stop-color:#4D2E91"/>
			<stop  offset="1" style="stop-color:#62429A"/>
		</linearGradient>
		<circle id="XMLID_33_" class="st15" cx="336.7" cy="191" r="26.1"/>
		
			<ellipse id="XMLID_32_" transform="matrix(0.7071 -0.7071 0.7071 0.7071 -36.453 294.05)" class="st16" cx="336.7" cy="191" rx="20.1" ry="20.1"/>
		<linearGradient id="XMLID_24_" gradientUnits="userSpaceOnUse" x1="217.2286" y1="201.6333" x2="269.4619" y2="201.6333">
			<stop  offset="0" style="stop-color:#4D2E91"/>
			<stop  offset="1" style="stop-color:#62429A"/>
		</linearGradient>
		<circle id="XMLID_59_" class="st17" cx="243.3" cy="201.6" r="26.1"/>
		<g id="XMLID_29_">
			<g id="XMLID_63_">
				<linearGradient id="XMLID_25_" gradientUnits="userSpaceOnUse" x1="242.0916" y1="426.3369" x2="246.3509" y2="426.3369">
					<stop  offset="0" style="stop-color:#4D2E91"/>
					<stop  offset="1" style="stop-color:#62429A"/>
				</linearGradient>
				<path id="XMLID_227_" class="st18" d="M244.2,439.8c-1.2,0-2.1-1-2.1-2.1V415c0-1.2,1-2.1,2.1-2.1c1.2,0,2.1,1,2.1,2.1v22.7
					C246.4,438.9,245.4,439.8,244.2,439.8z"/>
			</g>
			<g id="XMLID_31_">
				<g id="XMLID_64_">
					<linearGradient id="XMLID_26_" gradientUnits="userSpaceOnUse" x1="263.3876" y1="412.8494" x2="267.6469" y2="412.8494">
						<stop  offset="0" style="stop-color:#4D2E91"/>
						<stop  offset="1" style="stop-color:#62429A"/>
					</linearGradient>
					<path id="XMLID_226_" class="st19" d="M265.5,421.4c-1.2,0-2.1-1-2.1-2.1v-12.8c0-1.2,1-2.1,2.1-2.1c1.2,0,2.1,1,2.1,2.1v12.8
						C267.6,420.4,266.7,421.4,265.5,421.4z"/>
				</g>
				<g id="XMLID_66_">
					<linearGradient id="XMLID_27_" gradientUnits="userSpaceOnUse" x1="263.3876" y1="434.8552" x2="267.6469" y2="434.8552">
						<stop  offset="0" style="stop-color:#4D2E91"/>
						<stop  offset="1" style="stop-color:#62429A"/>
					</linearGradient>
					<path id="XMLID_225_" class="st20" d="M265.5,439.8c-1.2,0-2.1-1-2.1-2.1V432c0-1.2,1-2.1,2.1-2.1c1.2,0,2.1,1,2.1,2.1v5.7
						C267.6,438.9,266.7,439.8,265.5,439.8z"/>
				</g>
			</g>
			<g id="XMLID_62_">
				<g id="XMLID_30_">
					<linearGradient id="XMLID_37_" gradientUnits="userSpaceOnUse" x1="220.7957" y1="411.4297" x2="225.0549" y2="411.4297">
						<stop  offset="0" style="stop-color:#4D2E91"/>
						<stop  offset="1" style="stop-color:#62429A"/>
					</linearGradient>
					<path id="XMLID_224_" class="st21" d="M222.9,419.9c-1.2,0-2.1-1-2.1-2.1V405c0-1.2,1-2.1,2.1-2.1c1.2,0,2.1,1,2.1,2.1v12.8
						C225.1,419,224.1,419.9,222.9,419.9z"/>
				</g>
				<g id="XMLID_67_">
					<linearGradient id="XMLID_44_" gradientUnits="userSpaceOnUse" x1="220.7957" y1="429.8862" x2="225.0549" y2="429.8862">
						<stop  offset="0" style="stop-color:#4D2E91"/>
						<stop  offset="1" style="stop-color:#62429A"/>
					</linearGradient>
					<path id="XMLID_200_" class="st22" d="M222.9,435.6c-1.2,0-2.1-1-2.1-2.1v-7.1c0-1.2,1-2.1,2.1-2.1c1.2,0,2.1,1,2.1,2.1v7.1
						C225.1,434.6,224.1,435.6,222.9,435.6z"/>
				</g>
			</g>
		</g>
		
			<ellipse id="XMLID_28_" transform="matrix(0.7071 -0.7071 0.7071 0.7071 24.4154 225.8622)" class="st23" cx="284.8" cy="83.5" rx="15.4" ry="15.4"/>
		<path id="XMLID_72_" class="st23" d="M322.2,113.3c0,4.2-3.4,7.6-7.6,7.6c-4.2,0-7.6-3.4-7.6-7.6c0-4.2,3.4-7.6,7.6-7.6
			C318.8,105.7,322.2,109.1,322.2,113.3z"/>
		<g id="XMLID_11_">
			<path id="XMLID_74_" class="st24" d="M242.8,167.3c-67.5,0-100.4-20.3-101.8-21.2c-2.7-1.7-3.4-5.2-1.8-7.8
				c1.7-2.7,5.2-3.4,7.8-1.8c0.3,0.2,31.8,19.4,95.7,19.4c64,0,96.3-19.3,96.6-19.5c2.7-1.6,6.2-0.8,7.8,1.9
				c1.6,2.7,0.8,6.2-1.9,7.8C344,147,310.3,167.3,242.8,167.3z"/>
		</g>
		<path id="XMLID_82_" class="st25" d="M336.7,171c-1,0-1.9,0.1-2.9,0.2l-16.3,25.6c1.3,4.3,4,8,7.6,10.5l21.5-33.8
			C343.7,171.9,340.3,171,336.7,171z"/>
		<path id="XMLID_81_" class="st25" d="M350.8,176.8l-21,33.1c2.2,0.8,4.5,1.3,7,1.3c0.3,0,0.6,0,0.9,0l17.6-27.7
			C354.2,180.8,352.7,178.6,350.8,176.8z"/>
		<g id="XMLID_73_">
			
				<ellipse id="XMLID_84_" transform="matrix(0.9509 -0.3096 0.3096 0.9509 -50.489 85.1557)" class="st16" cx="243" cy="201.6" rx="20.1" ry="20.1"/>
			<path id="XMLID_80_" class="st25" d="M243,181.6c-1,0-1.9,0.1-2.9,0.2l-16.3,25.6c1.3,4.3,4,8,7.6,10.5l21.5-33.8
				C250,182.5,246.6,181.6,243,181.6z"/>
			<path id="XMLID_75_" class="st25" d="M257.1,187.4l-21,33.1c2.2,0.8,4.5,1.3,7,1.3c0.3,0,0.6,0,0.9,0l17.6-27.7
				C260.5,191.4,259,189.2,257.1,187.4z"/>
		</g>
		<g id="XMLID_89_">
			
				<ellipse id="XMLID_93_" transform="matrix(0.9223 -0.3866 0.3866 0.9223 -62.1578 72.9817)" class="st16" cx="150.4" cy="191" rx="20.1" ry="20.1"/>
			<path id="XMLID_92_" class="st25" d="M150.4,171c-1,0-1.9,0.1-2.9,0.2l-16.3,25.6c1.3,4.3,4,8,7.6,10.5l21.5-33.8
				C157.3,171.9,154,171,150.4,171z"/>
			<path id="XMLID_10_" class="st25" d="M164.4,176.8l-21,33.1c2.2,0.8,4.5,1.3,7,1.3c0.3,0,0.6,0,0.9,0l17.6-27.7
				C167.8,180.8,166.3,178.6,164.4,176.8z"/>
		</g>
		<path id="XMLID_9_" class="st23" d="M243.5,42.3c-17.3,0-33.6,4.5-47.8,12.3c1.3-0.5,46.7-18.4,92,7c45.2,25.2,54.4,72.4,54.7,74
			C339.4,83.5,296.3,42.3,243.5,42.3z"/>
		<path id="XMLID_8_" class="st26" d="M456.4,197.1c0-20.2-89.2-48.3-109.8-54.5l0,0c0,0,89.6,33.9,91.8,51.2
			c2.1,17.2-45.8,31-45.9,31c0,0,0,0,0,0l32.6-8.1C444.3,210.7,456.4,204.1,456.4,197.1z"/>
		<path id="XMLID_7_" class="st26" d="M29.6,197.1c0-20.2,89.2-48.3,109.8-54.5l0,0c0,0-89.6,33.9-91.8,51.2
			c-2.1,17.2,45.8,31,45.9,31h0l-32.6-8.1C41.7,210.7,29.6,204.1,29.6,197.1z"/>
	</g>
	<g>
		<path class="st27" d="M208.2,114v-6.7h8.2v6.7h4.3v7.4h-4.3v9.2h-8.2v-9.2h-15.4v-6.5l13.7-22.6h9.3l-13,21.8H208.2z"/>
		<path class="st27" d="M242,131c-5.3,0-9.3-1.8-11.9-5.4c-2.6-3.6-3.9-8.4-3.9-14.4c0-6,1.3-10.8,3.9-14.4
			c2.6-3.6,6.6-5.4,11.9-5.4c5.3,0,9.3,1.8,11.9,5.4c2.6,3.6,3.9,8.4,3.9,14.4c0,6-1.3,10.8-3.9,14.4C251.3,129.2,247.3,131,242,131
			z M236.4,101.9c-1.2,2.3-1.8,5.4-1.8,9.3s0.6,6.9,1.8,9.3c1.2,2.3,3.1,3.5,5.6,3.5c2.6,0,4.4-1.2,5.6-3.5c1.2-2.3,1.8-5.4,1.8-9.3
			s-0.6-6.9-1.8-9.3c-1.2-2.3-3.1-3.5-5.6-3.5C239.5,98.4,237.6,99.6,236.4,101.9z"/>
		<path class="st27" d="M278.3,114v-6.7h8.2v6.7h4.3v7.4h-4.3v9.2h-8.2v-9.2h-15.4v-6.5l13.7-22.6h9.3l-13,21.8H278.3z"/>
	</g>
</g>
</svg>
