<?xml version="1.0" encoding="utf-8"?>
<!-- Generator: Adobe Illustrator 23.0.6, SVG Export Plug-In . SVG Version: 6.00 Build 0)  -->
<svg version="1.1" id="Layer_1" xmlns="http://www.w3.org/2000/svg" xmlns:xlink="http://www.w3.org/1999/xlink" x="0px" y="0px"
	 viewBox="0 0 567.2 150" style="enable-background:new 0 0 567.2 150;" xml:space="preserve">
<style type="text/css">
	.st0{fill:url(#SVGID_1_);}
	.st1{fill:url(#SVGID_2_);}
	.st2{fill:url(#SVGID_3_);}
	.st3{fill:url(#SVGID_4_);}
	.st4{fill:url(#SVGID_5_);}
	.st5{fill:url(#SVGID_6_);}
	.st6{fill:url(#SVGID_7_);}
	.st7{fill:url(#SVGID_8_);}
	.st8{fill:url(#SVGID_9_);}
	.st9{fill:url(#SVGID_10_);}
	.st10{fill:url(#SVGID_11_);}
	.st11{fill:url(#SVGID_12_);}
	.st12{fill:url(#SVGID_13_);}
	.st13{fill:url(#SVGID_14_);}
	.st14{fill:url(#SVGID_15_);}
	.st15{fill:url(#SVGID_16_);}
	.st16{fill:url(#SVGID_17_);}
	.st17{fill:url(#SVGID_18_);}
</style>
<g>
	
		<linearGradient id="SVGID_1_" gradientUnits="userSpaceOnUse" x1="12.2087" y1="89.5409" x2="114.29" y2="89.5409" gradientTransform="matrix(1 0 0 -1 0 150.5)">
		<stop  offset="7.051282e-03" style="stop-color:#086BB5"/>
		<stop  offset="0.2586" style="stop-color:#037BB5"/>
		<stop  offset="0.8094" style="stop-color:#00A7B8"/>
		<stop  offset="0.9993" style="stop-color:#00B9B6"/>
	</linearGradient>
	<path class="st0" d="M102.5,39.9H90.2V82h12.3c12.3,0,22.3-9.3,22.3-20.7v-0.8C124.8,49.1,114.8,39.9,102.5,39.9z"/>
	
		<linearGradient id="SVGID_2_" gradientUnits="userSpaceOnUse" x1="12.2087" y1="46.6877" x2="114.29" y2="46.6877" gradientTransform="matrix(1 0 0 -1 0 150.5)">
		<stop  offset="7.051282e-03" style="stop-color:#086BB5"/>
		<stop  offset="0.2586" style="stop-color:#037BB5"/>
		<stop  offset="0.8094" style="stop-color:#00A7B8"/>
		<stop  offset="0.9993" style="stop-color:#00B9B6"/>
	</linearGradient>
	<path class="st1" d="M43.6,98.8c0,12.3,9.3,22.3,20.7,22.3H65c11.4,0,20.7-10,20.7-22.3V86.5H43.6C43.6,86.5,43.6,98.8,43.6,98.8z"
		/>
	
		<linearGradient id="SVGID_3_" gradientUnits="userSpaceOnUse" x1="12.2087" y1="89.5409" x2="114.29" y2="89.5409" gradientTransform="matrix(1 0 0 -1 0 150.5)">
		<stop  offset="7.051282e-03" style="stop-color:#086BB5"/>
		<stop  offset="0.2586" style="stop-color:#037BB5"/>
		<stop  offset="0.8094" style="stop-color:#00A7B8"/>
		<stop  offset="0.9993" style="stop-color:#00B9B6"/>
	</linearGradient>
	<path class="st2" d="M4.5,60.6v0.8C4.5,72.8,14.5,82,26.8,82h12.3V39.9H26.8C14.5,39.9,4.5,49.1,4.5,60.6z"/>
	
		<linearGradient id="SVGID_4_" gradientUnits="userSpaceOnUse" x1="12.2087" y1="132.3941" x2="114.29" y2="132.3941" gradientTransform="matrix(1 0 0 -1 0 150.5)">
		<stop  offset="7.051282e-03" style="stop-color:#086BB5"/>
		<stop  offset="0.2586" style="stop-color:#037BB5"/>
		<stop  offset="0.8094" style="stop-color:#00A7B8"/>
		<stop  offset="0.9993" style="stop-color:#00B9B6"/>
	</linearGradient>
	<path class="st3" d="M85.7,23.1c0-12.3-9.3-22.3-20.7-22.3h-0.8c-11.4,0-20.7,9.9-20.7,22.3v12.3h42.2V23.1z"/>
	
		<linearGradient id="SVGID_5_" gradientUnits="userSpaceOnUse" x1="12.2087" y1="89.5409" x2="114.29" y2="89.5409" gradientTransform="matrix(1 0 0 -1 0 150.5)">
		<stop  offset="7.051282e-03" style="stop-color:#086BB5"/>
		<stop  offset="0.2586" style="stop-color:#037BB5"/>
		<stop  offset="0.8094" style="stop-color:#00A7B8"/>
		<stop  offset="0.9993" style="stop-color:#00B9B6"/>
	</linearGradient>
	<rect x="43.6" y="39.9" class="st4" width="42.2" height="42.2"/>
</g>
<g>
	
		<linearGradient id="SVGID_6_" gradientUnits="userSpaceOnUse" x1="480.6091" y1="95.135" x2="159.1308" y2="95.135" gradientTransform="matrix(1 0 0 -1 0 150.5)">
		<stop  offset="3.605769e-04" style="stop-color:#086BB5"/>
		<stop  offset="0.2538" style="stop-color:#037BB5"/>
		<stop  offset="0.8087" style="stop-color:#00A7B8"/>
		<stop  offset="1" style="stop-color:#00B9B6"/>
	</linearGradient>
	<path class="st5" d="M180.3,32v46.5h-4.2V71c-1.3,2.5-3,4.4-5.3,5.7c-2.3,1.4-4.9,2-7.9,2c-3.1,0-5.8-0.7-8.3-2.1
		c-2.4-1.4-4.3-3.4-5.6-6c-1.3-2.5-2-5.4-2-8.6c0-3.2,0.7-6.1,2-8.6s3.3-4.5,5.6-5.9c2.4-1.4,5.1-2.1,8.2-2.1c3,0,5.6,0.7,7.9,2.1
		c2.3,1.4,4,3.3,5.3,5.8V32H180.3z M170.1,73.5c1.9-1.1,3.3-2.6,4.4-4.6c1.1-2,1.6-4.2,1.6-6.7c0-2.5-0.5-4.8-1.6-6.7
		c-1.1-2-2.5-3.5-4.4-4.7c-1.9-1.1-4-1.7-6.4-1.7s-4.5,0.6-6.4,1.7c-1.9,1.1-3.4,2.7-4.5,4.7c-1.1,2-1.6,4.2-1.6,6.7
		c0,2.5,0.5,4.8,1.6,6.7c1.1,2,2.5,3.5,4.5,4.6c1.9,1.1,4,1.7,6.4,1.7S168.2,74.6,170.1,73.5z"/>
	
		<linearGradient id="SVGID_7_" gradientUnits="userSpaceOnUse" x1="480.6091" y1="88.4346" x2="159.1308" y2="88.4346" gradientTransform="matrix(1 0 0 -1 0 150.5)">
		<stop  offset="3.605769e-04" style="stop-color:#086BB5"/>
		<stop  offset="0.2538" style="stop-color:#037BB5"/>
		<stop  offset="0.8087" style="stop-color:#00A7B8"/>
		<stop  offset="1" style="stop-color:#00B9B6"/>
	</linearGradient>
	<path class="st6" d="M214.6,47.6c2.5,1.4,4.5,3.3,5.9,5.8c1.4,2.5,2.1,5.3,2.1,8.5c0,3.2-0.7,6.1-2.1,8.6c-1.4,2.5-3.4,4.5-5.9,5.9
		c-2.5,1.4-5.3,2.1-8.5,2.1c-3.2,0-6-0.7-8.5-2.1c-2.5-1.4-4.5-3.4-5.9-5.9c-1.4-2.5-2.1-5.4-2.1-8.6c0-3.2,0.7-6,2.1-8.5
		c1.4-2.5,3.4-4.5,5.9-5.8c2.5-1.4,5.3-2.1,8.5-2.1C209.3,45.6,212.1,46.2,214.6,47.6z M199.7,50.8c-1.9,1.1-3.3,2.6-4.4,4.6
		c-1,2-1.6,4.2-1.6,6.7c0,2.5,0.5,4.8,1.6,6.8s2.5,3.5,4.4,4.6c1.9,1.1,4,1.6,6.4,1.6c2.4,0,4.5-0.5,6.4-1.6
		c1.9-1.1,3.3-2.6,4.4-4.6s1.6-4.2,1.6-6.8c0-2.5-0.5-4.8-1.6-6.7c-1-2-2.5-3.5-4.4-4.6c-1.9-1.1-4-1.6-6.4-1.6
		C203.7,49.2,201.6,49.7,199.7,50.8z"/>
	
		<linearGradient id="SVGID_8_" gradientUnits="userSpaceOnUse" x1="480.6091" y1="88.3303" x2="159.1308" y2="88.3303" gradientTransform="matrix(1 0 0 -1 0 150.5)">
		<stop  offset="3.605769e-04" style="stop-color:#086BB5"/>
		<stop  offset="0.2538" style="stop-color:#037BB5"/>
		<stop  offset="0.8087" style="stop-color:#00A7B8"/>
		<stop  offset="1" style="stop-color:#00B9B6"/>
	</linearGradient>
	<path class="st7" d="M244.6,49.2c-2.3,0-4.5,0.5-6.3,1.6c-1.9,1.1-3.3,2.6-4.4,4.6s-1.6,4.2-1.6,6.7s0.5,4.8,1.6,6.7
		s2.5,3.5,4.4,4.6s4,1.6,6.3,1.6c2.1,0,4.1-0.4,5.8-1.1c1.8-0.8,3.3-1.8,4.5-3.3l2.4,2.5c-1.5,1.8-3.3,3.1-5.5,4.1
		c-2.2,1-4.7,1.5-7.4,1.5c-3.1,0-5.9-0.7-8.4-2.1c-2.5-1.4-4.4-3.4-5.8-5.9c-1.4-2.5-2.1-5.4-2.1-8.6c0-3.2,0.7-6,2.1-8.6
		c1.4-2.5,3.3-4.5,5.8-5.9c2.5-1.4,5.3-2.1,8.4-2.1c2.5,0,4.9,0.4,7,1.3c2.1,0.8,3.9,2,5.4,3.5l-2.4,2.8
		C251.8,50.5,248.5,49.2,244.6,49.2z"/>
	
		<linearGradient id="SVGID_9_" gradientUnits="userSpaceOnUse" x1="480.6091" y1="92.0875" x2="159.1308" y2="92.0875" gradientTransform="matrix(1 0 0 -1 0 150.5)">
		<stop  offset="3.605769e-04" style="stop-color:#086BB5"/>
		<stop  offset="0.2538" style="stop-color:#037BB5"/>
		<stop  offset="0.8087" style="stop-color:#00A7B8"/>
		<stop  offset="1" style="stop-color:#00B9B6"/>
	</linearGradient>
	<path class="st8" d="M283.2,76.2c-2.3,1.5-4.7,2.4-7.3,2.5c-2.5,0-4.5-0.8-6-2.3s-2.2-3.9-2.2-7V49.9h-4.7l-0.1-3.3h4.8v-8.5h4.2
		v8.5l10.6-0.1v3.3H272v18.9c0,4,1.5,6.1,4.5,6.1c1.7,0,3.5-0.6,5.5-1.8L283.2,76.2z"/>
	
		<linearGradient id="SVGID_10_" gradientUnits="userSpaceOnUse" x1="480.6091" y1="88.4346" x2="159.1308" y2="88.4346" gradientTransform="matrix(1 0 0 -1 0 150.5)">
		<stop  offset="3.605769e-04" style="stop-color:#086BB5"/>
		<stop  offset="0.2538" style="stop-color:#037BB5"/>
		<stop  offset="0.8087" style="stop-color:#00A7B8"/>
		<stop  offset="1" style="stop-color:#00B9B6"/>
	</linearGradient>
	<path class="st9" d="M312,47.6c2.5,1.4,4.5,3.3,5.9,5.8c1.4,2.5,2.1,5.3,2.1,8.5c0,3.2-0.7,6.1-2.1,8.6c-1.4,2.5-3.4,4.5-5.9,5.9
		c-2.5,1.4-5.3,2.1-8.5,2.1c-3.2,0-6-0.7-8.5-2.1c-2.5-1.4-4.5-3.4-5.9-5.9c-1.4-2.5-2.1-5.4-2.1-8.6c0-3.2,0.7-6,2.1-8.5
		c1.4-2.5,3.4-4.5,5.9-5.8c2.5-1.4,5.3-2.1,8.5-2.1C306.7,45.6,309.5,46.2,312,47.6z M297.1,50.8c-1.9,1.1-3.3,2.6-4.4,4.6
		c-1,2-1.6,4.2-1.6,6.7c0,2.5,0.5,4.8,1.6,6.8c1,2,2.5,3.5,4.4,4.6c1.9,1.1,4,1.6,6.4,1.6s4.5-0.5,6.4-1.6c1.9-1.1,3.3-2.6,4.4-4.6
		c1-2,1.6-4.2,1.6-6.8c0-2.5-0.5-4.8-1.6-6.7c-1-2-2.5-3.5-4.4-4.6c-1.9-1.1-4-1.6-6.4-1.6S299,49.7,297.1,50.8z"/>
	
		<linearGradient id="SVGID_11_" gradientUnits="userSpaceOnUse" x1="480.6091" y1="88.4972" x2="159.1308" y2="88.4972" gradientTransform="matrix(1 0 0 -1 0 150.5)">
		<stop  offset="3.605769e-04" style="stop-color:#086BB5"/>
		<stop  offset="0.2538" style="stop-color:#037BB5"/>
		<stop  offset="0.8087" style="stop-color:#00A7B8"/>
		<stop  offset="1" style="stop-color:#00B9B6"/>
	</linearGradient>
	<path class="st10" d="M337.8,47.6c2-1.3,4.5-2,7.3-2v4c-3.5,0-6.3,1-8.3,3c-2.1,2.1-3.3,4.9-3.6,8.4v17.5h-4.2V45.6h4.2v7.6
		C334.2,50.8,335.8,48.9,337.8,47.6z"/>
	
		<linearGradient id="SVGID_12_" gradientUnits="userSpaceOnUse" x1="480.6091" y1="95.2602" x2="159.1308" y2="95.2602" gradientTransform="matrix(1 0 0 -1 0 150.5)">
		<stop  offset="3.605769e-04" style="stop-color:#086BB5"/>
		<stop  offset="0.2538" style="stop-color:#037BB5"/>
		<stop  offset="0.8087" style="stop-color:#00A7B8"/>
		<stop  offset="1" style="stop-color:#00B9B6"/>
	</linearGradient>
	<path class="st11" d="M352.2,32h4.2v46.5h-4.2V32z"/>
	
		<linearGradient id="SVGID_13_" gradientUnits="userSpaceOnUse" x1="480.6091" y1="88.4346" x2="159.1308" y2="88.4346" gradientTransform="matrix(1 0 0 -1 0 150.5)">
		<stop  offset="3.605769e-04" style="stop-color:#086BB5"/>
		<stop  offset="0.2538" style="stop-color:#037BB5"/>
		<stop  offset="0.8087" style="stop-color:#00A7B8"/>
		<stop  offset="1" style="stop-color:#00B9B6"/>
	</linearGradient>
	<path class="st12" d="M390.7,47.6c2.5,1.4,4.5,3.3,5.9,5.8c1.4,2.5,2.1,5.3,2.1,8.5c0,3.2-0.7,6.1-2.1,8.6
		c-1.4,2.5-3.4,4.5-5.9,5.9c-2.5,1.4-5.3,2.1-8.5,2.1c-3.2,0-6-0.7-8.5-2.1c-2.5-1.4-4.5-3.4-5.9-5.9c-1.4-2.5-2.1-5.4-2.1-8.6
		c0-3.2,0.7-6,2.1-8.5c1.4-2.5,3.4-4.5,5.9-5.8c2.5-1.4,5.3-2.1,8.5-2.1C385.3,45.6,388.2,46.2,390.7,47.6z M375.8,50.8
		c-1.9,1.1-3.3,2.6-4.4,4.6c-1,2-1.6,4.2-1.6,6.7c0,2.5,0.5,4.8,1.6,6.8c1,2,2.5,3.5,4.4,4.6c1.9,1.1,4,1.6,6.4,1.6s4.5-0.5,6.4-1.6
		s3.3-2.6,4.4-4.6s1.6-4.2,1.6-6.8c0-2.5-0.5-4.8-1.6-6.7c-1-2-2.5-3.5-4.4-4.6s-4-1.6-6.4-1.6S377.7,49.7,375.8,50.8z"/>
	
		<linearGradient id="SVGID_14_" gradientUnits="userSpaceOnUse" x1="480.6091" y1="82.3187" x2="159.1308" y2="82.3187" gradientTransform="matrix(1 0 0 -1 0 150.5)">
		<stop  offset="3.605769e-04" style="stop-color:#086BB5"/>
		<stop  offset="0.2538" style="stop-color:#037BB5"/>
		<stop  offset="0.8087" style="stop-color:#00A7B8"/>
		<stop  offset="1" style="stop-color:#00B9B6"/>
	</linearGradient>
	<path class="st13" d="M436,45.7v29.4c0,3.2-0.7,6-2,8.3c-1.3,2.4-3.3,4.2-5.7,5.5c-2.5,1.3-5.3,1.9-8.6,1.9c-4.8,0-9.4-1.7-13.5-5
		l2-3c1.7,1.5,3.4,2.6,5.3,3.3c1.8,0.8,3.8,1.1,6,1.1c3.8,0,6.8-1.1,9-3.3c2.3-2.2,3.3-5.1,3.3-8.8v-5.3c-1.2,2.3-2.8,4.1-5,5.4
		s-4.7,2-7.5,2c-2.9,0-5.5-0.7-7.8-2c-2.3-1.4-4-3.3-5.3-5.6c-1.3-2.4-1.9-5.1-1.9-8.2s0.6-5.8,1.9-8.1c1.3-2.4,3-4.3,5.3-5.6
		c2.3-1.3,4.9-2,7.8-2c2.8,0,5.3,0.6,7.5,1.9c2.1,1.3,3.8,3.1,5,5.4v-7.2C431.8,45.7,436,45.7,436,45.7z M426.1,72.1
		c1.8-1.1,3.2-2.5,4.2-4.4s1.5-4,1.5-6.3c0-2.4-0.5-4.5-1.5-6.4c-1-1.9-2.4-3.3-4.2-4.4c-1.8-1.1-3.8-1.6-6.1-1.6
		c-2.3,0-4.3,0.5-6.1,1.6c-1.8,1.1-3.2,2.5-4.2,4.4c-1,1.9-1.5,4-1.5,6.4c0,2.4,0.5,4.5,1.5,6.3c1,1.9,2.4,3.3,4.2,4.4
		c1.8,1.1,3.8,1.6,6.1,1.6C422.3,73.7,424.3,73.2,426.1,72.1z"/>
	
		<linearGradient id="SVGID_15_" gradientUnits="userSpaceOnUse" x1="480.6091" y1="94.5943" x2="159.1308" y2="94.5943" gradientTransform="matrix(1 0 0 -1 0 150.5)">
		<stop  offset="3.605769e-04" style="stop-color:#086BB5"/>
		<stop  offset="0.2538" style="stop-color:#037BB5"/>
		<stop  offset="0.8087" style="stop-color:#00A7B8"/>
		<stop  offset="1" style="stop-color:#00B9B6"/>
	</linearGradient>
	<path class="st14" d="M451.6,34.1c0.5,0.6,0.8,1.3,0.8,2.1s-0.3,1.5-0.8,2.1c-0.6,0.6-1.3,0.9-2,0.9c-0.8,0-1.5-0.3-2.1-0.9
		c-0.6-0.6-0.8-1.3-0.8-2.1s0.3-1.5,0.8-2.1c0.6-0.6,1.3-0.8,2.1-0.8C450.4,33.2,451.1,33.5,451.6,34.1z M447.4,45.7h4.2v32.9h-4.2
		V45.7z"/>
	
		<linearGradient id="SVGID_16_" gradientUnits="userSpaceOnUse" x1="480.6091" y1="88.3303" x2="159.1308" y2="88.3303" gradientTransform="matrix(1 0 0 -1 0 150.5)">
		<stop  offset="3.605769e-04" style="stop-color:#086BB5"/>
		<stop  offset="0.2538" style="stop-color:#037BB5"/>
		<stop  offset="0.8087" style="stop-color:#00A7B8"/>
		<stop  offset="1" style="stop-color:#00B9B6"/>
	</linearGradient>
	<path class="st15" d="M476.9,49.2c-2.3,0-4.5,0.5-6.3,1.6c-1.9,1.1-3.3,2.6-4.4,4.6s-1.6,4.2-1.6,6.7s0.5,4.8,1.6,6.7
		s2.5,3.5,4.4,4.6c1.9,1.1,4,1.6,6.3,1.6c2.1,0,4.1-0.4,5.8-1.1c1.8-0.8,3.3-1.8,4.5-3.3l2.4,2.5c-1.5,1.8-3.3,3.1-5.5,4.1
		c-2.2,1-4.7,1.5-7.4,1.5c-3.1,0-5.9-0.7-8.4-2.1c-2.5-1.4-4.4-3.4-5.8-5.9c-1.4-2.5-2.1-5.4-2.1-8.6c0-3.2,0.7-6,2.1-8.6
		c1.4-2.5,3.3-4.5,5.8-5.9c2.5-1.4,5.3-2.1,8.4-2.1c2.5,0,4.9,0.4,7,1.3c2.1,0.8,3.9,2,5.4,3.5l-2.4,2.8
		C484,50.5,480.7,49.2,476.9,49.2z"/>
	
		<linearGradient id="SVGID_17_" gradientUnits="userSpaceOnUse" x1="493.1446" y1="114.2551" x2="139.9499" y2="114.2551" gradientTransform="matrix(1 0 0 -1 0 150.5)">
		<stop  offset="3.605769e-04" style="stop-color:#086BB5"/>
		<stop  offset="0.2538" style="stop-color:#037BB5"/>
		<stop  offset="0.8087" style="stop-color:#00A7B8"/>
		<stop  offset="1" style="stop-color:#00B9B6"/>
	</linearGradient>
	<path class="st16" d="M493.3,32.4c-2.1,0-3.8,1.7-3.8,3.8v0c0,2,1.6,3.8,3.8,3.8c2.1,0,3.8-1.7,3.8-3.8v0
		C497.1,34.2,495.5,32.4,493.3,32.4z M496.7,36.2c0,1.8-1.5,3.4-3.3,3.4c-1.9,0-3.3-1.5-3.3-3.3v0c0-1.8,1.5-3.4,3.3-3.4
		C495.3,32.9,496.7,34.4,496.7,36.2L496.7,36.2z"/>
	
		<linearGradient id="SVGID_18_" gradientUnits="userSpaceOnUse" x1="493.1446" y1="114.3386" x2="139.9499" y2="114.3386" gradientTransform="matrix(1 0 0 -1 0 150.5)">
		<stop  offset="3.605769e-04" style="stop-color:#086BB5"/>
		<stop  offset="0.2538" style="stop-color:#037BB5"/>
		<stop  offset="0.8087" style="stop-color:#00A7B8"/>
		<stop  offset="1" style="stop-color:#00B9B6"/>
	</linearGradient>
	<path class="st17" d="M495.2,35.5c0-0.9-0.7-1.3-1.6-1.3h-1.8v3.9h1v-1.2h0.6l0.8,1.2h1.1l-1-1.4C494.8,36.5,495.2,36.1,495.2,35.5
		z M493.6,36.1h-0.8V35h0.8c0.4,0,0.7,0.2,0.7,0.5C494.2,35.9,494,36.1,493.6,36.1z"/>
</g>
</svg>
