<?xml version="1.0" encoding="utf-8"?>
<!-- Generator: Adobe Illustrator 24.0.3, SVG Export Plug-In . SVG Version: 6.00 Build 0)  -->
<svg version="1.1" id="Layer_1" xmlns="http://www.w3.org/2000/svg" xmlns:xlink="http://www.w3.org/1999/xlink" x="0px" y="0px"
	 viewBox="0 0 1193.1 315.5" style="enable-background:new 0 0 1193.1 315.5;" xml:space="preserve">
<style type="text/css">
	.st0{fill:#FFFFFF;}
</style>
<g>
	<path class="st0" d="M240.8,108h-29.4v101h29.4c29.4,0,53.3-22.2,53.3-49.6v-1.8C294.1,130.2,270.2,108,240.8,108z"/>
	<path class="st0" d="M99.6,249.2c0,29.4,22.2,53.3,49.6,53.3h1.8c27.4,0,49.6-23.9,49.6-53.3v-29.4h-101
		C99.6,219.8,99.6,249.2,99.6,249.2z"/>
	<path class="st0" d="M6.1,157.6v1.8c0,27.4,23.8,49.6,53.3,49.6h29.4V108H59.4C30,108,6.1,130.2,6.1,157.6z"/>
	<path class="st0" d="M200.6,67.8c0-29.4-22.2-53.3-49.6-53.3h-1.8c-27.4,0-49.6,23.8-49.6,53.3v29.4h101V67.8z"/>
	<rect x="99.6" y="108" class="st0" width="101" height="101"/>
</g>
<g>
	<path class="st0" d="M427.2,89.1v111.4h-10.1v-18c-3,5.9-7.2,10.5-12.6,13.7c-5.4,3.3-11.7,4.9-18.9,4.9c-7.4,0-14-1.7-19.8-5.1
		c-5.8-3.4-10.3-8.2-13.5-14.3s-4.8-13-4.8-20.7s1.6-14.6,4.9-20.6s7.8-10.7,13.5-14.1c5.8-3.4,12.3-5.1,19.6-5.1
		c7.2,0,13.5,1.7,19,5s9.7,7.9,12.7,13.8V89.1H427.2z M402.7,188.5c4.5-2.7,8-6.3,10.6-11s3.8-10.1,3.8-16.1s-1.3-11.4-3.8-16.1
		c-2.6-4.8-6.1-8.5-10.6-11.2s-9.6-4.1-15.3-4.1s-10.8,1.4-15.3,4.1c-4.5,2.7-8.1,6.4-10.7,11.2s-3.9,10.1-3.9,16.1
		s1.3,11.4,3.8,16.1c2.6,4.7,6.1,8.4,10.7,11c4.6,2.7,9.7,4,15.4,4S398.2,191.1,402.7,188.5z"/>
	<path class="st0" d="M509.3,126.6c6,3.4,10.7,8,14.1,14c3.4,6,5.1,12.8,5.1,20.4c0,7.7-1.7,14.6-5.1,20.6
		c-3.4,6.1-8.1,10.8-14.1,14.1c-6,3.4-12.8,5-20.4,5s-14.4-1.7-20.4-5c-6-3.4-10.7-8.1-14.1-14.1c-3.4-6.1-5.1-12.9-5.1-20.6
		c0-7.6,1.7-14.4,5.1-20.4s8.1-10.7,14.1-14c6-3.4,12.8-5,20.4-5C496.5,121.6,503.3,123.2,509.3,126.6z M473.6,134.2
		c-4.5,2.6-8,6.3-10.5,11s-3.8,10.1-3.8,16.1c0,6.1,1.3,11.5,3.8,16.2s6,8.4,10.5,11s9.6,3.9,15.3,3.9s10.8-1.3,15.3-3.9
		c4.5-2.6,8-6.3,10.5-11s3.8-10.1,3.8-16.2c0-6-1.3-11.4-3.8-16.1c-2.5-4.7-6-8.4-10.5-11s-9.6-3.9-15.3-3.9
		S478.1,131.6,473.6,134.2z"/>
	<path class="st0" d="M581.1,130.4c-5.6,0-10.7,1.3-15.2,3.9c-4.5,2.6-8,6.2-10.5,10.9s-3.8,10-3.8,16s1.3,11.4,3.8,16.1
		c2.5,4.7,6,8.4,10.5,11s9.6,3.9,15.2,3.9c5.1,0,9.8-0.9,14-2.7c4.3-1.8,7.8-4.4,10.7-7.8l5.7,6c-3.5,4.2-7.9,7.5-13.2,9.8
		s-11.2,3.5-17.7,3.5c-7.5,0-14.2-1.7-20.1-5c-5.9-3.4-10.5-8.1-13.9-14.1c-3.4-6.1-5-12.9-5-20.5s1.7-14.4,5-20.5
		c3.4-6.1,8-10.8,13.9-14.1c5.9-3.4,12.6-5,20.1-5c6.1,0,11.7,1,16.7,3c5.1,2,9.4,4.8,13,8.4l-5.7,6.8
		C598.3,133.5,590.4,130.4,581.1,130.4z"/>
	<path class="st0" d="M673.7,195.1c-5.4,3.7-11.2,5.7-17.4,5.9c-6,0-10.8-1.9-14.3-5.6c-3.5-3.7-5.3-9.3-5.3-16.7v-46.8h-11.3
		l-0.2-7.8h11.4v-20.3h10.1v20.3l25.5-0.2v8h-25.5v45.2c0,9.7,3.6,14.6,10.8,14.6c4,0,8.4-1.4,13.1-4.2L673.7,195.1z"/>
	<path class="st0" d="M742.7,126.6c6,3.4,10.7,8,14.1,14c3.4,6,5.1,12.8,5.1,20.4c0,7.7-1.7,14.6-5.1,20.6
		c-3.4,6.1-8.1,10.8-14.1,14.1c-6,3.4-12.8,5-20.4,5c-7.6,0-14.4-1.7-20.4-5c-6-3.4-10.7-8.1-14.1-14.1c-3.4-6.1-5.1-12.9-5.1-20.6
		c0-7.6,1.7-14.4,5.1-20.4c3.4-6,8.1-10.7,14.1-14c6-3.4,12.8-5,20.4-5C729.8,121.6,736.7,123.2,742.7,126.6z M706.9,134.2
		c-4.5,2.6-8,6.3-10.5,11s-3.8,10.1-3.8,16.1c0,6.1,1.2,11.5,3.8,16.2c2.5,4.7,6,8.4,10.5,11s9.6,3.9,15.3,3.9s10.8-1.3,15.3-3.9
		c4.5-2.6,8-6.3,10.5-11s3.8-10.1,3.8-16.2c0-6-1.3-11.4-3.8-16.1c-2.5-4.7-6-8.4-10.5-11s-9.6-3.9-15.3-3.9
		S711.4,131.6,706.9,134.2z"/>
	<path class="st0" d="M804.4,126.4c4.9-3.2,10.7-4.8,17.5-4.9v9.5c-8.3-0.1-15,2.3-20,7.3c-5.1,5-7.9,11.7-8.6,20.2v42h-10.1v-78.7
		h10.1v18.3C795.9,134.2,799.6,129.6,804.4,126.4z"/>
	<path class="st0" d="M838.9,89.1H849v111.4h-10.1V89.1z"/>
	<path class="st0" d="M931.1,126.6c6,3.4,10.7,8,14.1,14c3.4,6,5.1,12.8,5.1,20.4c0,7.7-1.7,14.6-5.1,20.6
		c-3.4,6.1-8.1,10.8-14.1,14.1c-6,3.4-12.8,5-20.4,5c-7.6,0-14.4-1.7-20.4-5c-6-3.4-10.7-8.1-14.1-14.1c-3.4-6.1-5.1-12.9-5.1-20.6
		c0-7.6,1.7-14.4,5.1-20.4c3.4-6,8.1-10.7,14.1-14c6-3.4,12.8-5,20.4-5C918.3,121.6,925.1,123.2,931.1,126.6z M895.4,134.2
		c-4.5,2.6-8,6.3-10.5,11s-3.8,10.1-3.8,16.1c0,6.1,1.2,11.5,3.8,16.2c2.5,4.7,6,8.4,10.5,11s9.6,3.9,15.3,3.9s10.8-1.3,15.3-3.9
		c4.5-2.6,8-6.3,10.5-11s3.8-10.1,3.8-16.2c0-6-1.3-11.4-3.8-16.1c-2.5-4.7-6-8.4-10.5-11s-9.6-3.9-15.3-3.9
		S899.9,131.6,895.4,134.2z"/>
	<path class="st0" d="M1039.6,121.9v70.4c0,7.6-1.6,14.3-4.8,20c-3.2,5.7-7.8,10.1-13.7,13.1c-6,3.1-12.8,4.6-20.6,4.6
		c-11.6,0-22.4-4-32.3-12l4.8-7.2c4,3.5,8.2,6.2,12.6,8c4.4,1.8,9.2,2.7,14.4,2.7c9,0,16.2-2.6,21.5-7.9c5.4-5.3,8-12.3,8-21.1
		v-12.8c-2.8,5.5-6.8,9.8-12,12.9c-5.2,3.1-11.2,4.7-18,4.7c-7,0-13.2-1.6-18.7-4.9c-5.5-3.3-9.7-7.8-12.8-13.5
		c-3.1-5.8-4.6-12.3-4.6-19.6s1.5-13.8,4.6-19.5s7.3-10.2,12.8-13.4c5.5-3.2,11.8-4.8,18.8-4.8c6.8,0,12.8,1.5,17.9,4.6
		c5.1,3.1,9.1,7.4,12,13v-17.3C1029.5,121.9,1039.6,121.9,1039.6,121.9z M1015.9,185.3c4.3-2.6,7.7-6.1,10.1-10.6
		c2.4-4.5,3.6-9.6,3.6-15.2c0-5.7-1.2-10.8-3.6-15.3s-5.8-8-10.1-10.6s-9.2-3.8-14.6-3.8s-10.3,1.3-14.6,3.8
		c-4.3,2.6-7.7,6.1-10.1,10.6c-2.5,4.5-3.7,9.6-3.7,15.3s1.2,10.8,3.7,15.2c2.5,4.5,5.8,8,10.1,10.5c4.3,2.6,9.1,3.8,14.6,3.8
		C1006.8,189.1,1011.6,187.8,1015.9,185.3z"/>
	<path class="st0" d="M1077,94.2c1.3,1.4,2,3,2,5s-0.7,3.7-2,5.1c-1.4,1.4-3,2.1-4.9,2.1c-2,0-3.7-0.7-5-2.1c-1.4-1.4-2-3.1-2-5.1
		s0.7-3.7,2-5c1.4-1.4,3-2,5-2C1074.1,92.1,1075.7,92.8,1077,94.2z M1067,121.9h10.1v78.7H1067V121.9z"/>
	<path class="st0" d="M1137.5,130.4c-5.6,0-10.7,1.3-15.2,3.9c-4.5,2.6-8,6.2-10.5,10.9s-3.8,10-3.8,16s1.3,11.4,3.8,16.1
		c2.5,4.7,6,8.4,10.5,11s9.6,3.9,15.2,3.9c5.1,0,9.8-0.9,14-2.7c4.3-1.8,7.8-4.4,10.7-7.8l5.7,6c-3.5,4.2-7.9,7.5-13.2,9.8
		c-5.3,2.3-11.2,3.5-17.7,3.5c-7.5,0-14.2-1.7-20.1-5c-5.9-3.4-10.5-8.1-13.9-14.1c-3.4-6.1-5-12.9-5-20.5s1.7-14.4,5-20.5
		c3.4-6.1,8-10.8,13.9-14.1c5.9-3.4,12.6-5,20.1-5c6.1,0,11.7,1,16.7,3c5.1,2,9.4,4.8,13,8.4l-5.7,6.8
		C1154.7,133.5,1146.8,130.4,1137.5,130.4z"/>
	<path class="st0" d="M1177,90.2c-5,0-9,4.1-9,9.1v0.1c0,4.9,3.9,9,9,9c5,0,9-4.1,9-9.1v-0.1C1186,94.3,1182.1,90.2,1177,90.2z
		 M1185,99.3c0,4.4-3.5,8.1-8,8.1c-4.6,0-8-3.6-8-8v-0.1c0-4.4,3.5-8.1,8-8.1C1181.6,91.2,1185,94.8,1185,99.3L1185,99.3z"/>
	<path class="st0" d="M1181.5,97.5c0-2.1-1.6-3.1-3.8-3.1h-4.4v9.4h2.3v-2.9h1.4l2,2.9h2.7l-2.4-3.4
		C1180.6,100,1181.5,99,1181.5,97.5z M1177.5,99h-2v-2.6h2c1,0,1.6,0.5,1.6,1.3C1179.1,98.4,1178.6,99,1177.5,99z"/>
</g>
</svg>
