<?xml version="1.0" encoding="utf-8"?>
<!-- Generator: Adobe Illustrator 22.0.1, SVG Export Plug-In . SVG Version: 6.00 Build 0)  -->
<!DOCTYPE svg PUBLIC "-//W3C//DTD SVG 1.1//EN" "http://www.w3.org/Graphics/SVG/1.1/DTD/svg11.dtd">
<svg version="1.1" id="Layer_1" xmlns="http://www.w3.org/2000/svg" xmlns:xlink="http://www.w3.org/1999/xlink" x="0px" y="0px"
	 viewBox="0 0 1193.1 315.5" style="enable-background:new 0 0 1193.1 315.5;" xml:space="preserve">
<style type="text/css">
	.st0{fill:url(#SVGID_1_);}
	.st1{fill:url(#SVGID_2_);}
	.st2{fill:url(#SVGID_3_);}
	.st3{fill:url(#SVGID_4_);}
	.st4{fill:url(#SVGID_5_);}
	.st5{fill:url(#SVGID_6_);}
	.st6{fill:url(#SVGID_7_);}
	.st7{fill:url(#SVGID_8_);}
	.st8{fill:url(#SVGID_9_);}
	.st9{fill:url(#SVGID_10_);}
	.st10{fill:url(#SVGID_11_);}
	.st11{fill:url(#SVGID_12_);}
	.st12{fill:url(#SVGID_13_);}
	.st13{fill:url(#SVGID_14_);}
	.st14{fill:url(#SVGID_15_);}
	.st15{fill:url(#SVGID_16_);}
	.st16{fill:url(#SVGID_17_);}
	.st17{fill:url(#SVGID_18_);}
</style>
<g>
	<linearGradient id="SVGID_1_" gradientUnits="userSpaceOnUse" x1="24.4943" y1="158.5476" x2="269.0184" y2="158.5476">
		<stop  offset="7.051282e-03" style="stop-color:#086BB5"/>
		<stop  offset="0.2586" style="stop-color:#037BB5"/>
		<stop  offset="0.8094" style="stop-color:#00A7B8"/>
		<stop  offset="0.9993" style="stop-color:#00B9B6"/>
	</linearGradient>
	<path class="st0" d="M240.8,108h-29.4v101h29.4c29.4,0,53.3-22.2,53.3-49.6v-1.8C294.1,130.2,270.2,108,240.8,108z"/>
	<linearGradient id="SVGID_2_" gradientUnits="userSpaceOnUse" x1="24.4943" y1="261.1813" x2="269.0184" y2="261.1813">
		<stop  offset="7.051282e-03" style="stop-color:#086BB5"/>
		<stop  offset="0.2586" style="stop-color:#037BB5"/>
		<stop  offset="0.8094" style="stop-color:#00A7B8"/>
		<stop  offset="0.9993" style="stop-color:#00B9B6"/>
	</linearGradient>
	<path class="st1" d="M99.6,249.2c0,29.4,22.2,53.3,49.6,53.3h1.8c27.4,0,49.6-23.9,49.6-53.3v-29.4h-101V249.2z"/>
	<linearGradient id="SVGID_3_" gradientUnits="userSpaceOnUse" x1="24.4943" y1="158.5476" x2="269.0184" y2="158.5476">
		<stop  offset="7.051282e-03" style="stop-color:#086BB5"/>
		<stop  offset="0.2586" style="stop-color:#037BB5"/>
		<stop  offset="0.8094" style="stop-color:#00A7B8"/>
		<stop  offset="0.9993" style="stop-color:#00B9B6"/>
	</linearGradient>
	<path class="st2" d="M6.1,157.6v1.8c0,27.4,23.8,49.6,53.3,49.6h29.4V108H59.4C30,108,6.1,130.2,6.1,157.6z"/>
	<linearGradient id="SVGID_4_" gradientUnits="userSpaceOnUse" x1="24.4943" y1="55.8238" x2="269.0184" y2="55.8238">
		<stop  offset="7.051282e-03" style="stop-color:#086BB5"/>
		<stop  offset="0.2586" style="stop-color:#037BB5"/>
		<stop  offset="0.8094" style="stop-color:#00A7B8"/>
		<stop  offset="0.9993" style="stop-color:#00B9B6"/>
	</linearGradient>
	<path class="st3" d="M200.6,67.8c0-29.4-22.2-53.3-49.6-53.3h-1.8c-27.4,0-49.6,23.8-49.6,53.3v29.4h101V67.8z"/>
	<linearGradient id="SVGID_5_" gradientUnits="userSpaceOnUse" x1="24.4943" y1="158.5476" x2="269.0184" y2="158.5476">
		<stop  offset="7.051282e-03" style="stop-color:#086BB5"/>
		<stop  offset="0.2586" style="stop-color:#037BB5"/>
		<stop  offset="0.8094" style="stop-color:#00A7B8"/>
		<stop  offset="0.9993" style="stop-color:#00B9B6"/>
	</linearGradient>
	<rect x="99.6" y="108" class="st4" width="101" height="101"/>
</g>
<g>
	<linearGradient id="SVGID_6_" gradientUnits="userSpaceOnUse" x1="1146.4944" y1="145.1338" x2="376.4294" y2="145.1338">
		<stop  offset="3.605769e-04" style="stop-color:#086BB5"/>
		<stop  offset="0.2538" style="stop-color:#037BB5"/>
		<stop  offset="0.8087" style="stop-color:#00A7B8"/>
		<stop  offset="1" style="stop-color:#00B9B6"/>
	</linearGradient>
	<path class="st5" d="M427.2,89.1v111.4h-10.1v-18c-3,5.9-7.2,10.5-12.6,13.7c-5.4,3.3-11.7,4.9-18.9,4.9c-7.4,0-14-1.7-19.8-5.1
		c-5.8-3.4-10.3-8.2-13.5-14.3c-3.2-6.1-4.8-13-4.8-20.7c0-7.7,1.6-14.6,4.9-20.6c3.3-6,7.8-10.7,13.5-14.1
		c5.8-3.4,12.3-5.1,19.6-5.1c7.2,0,13.5,1.7,19,5c5.5,3.3,9.7,7.9,12.7,13.8V89.1H427.2z M402.7,188.5c4.5-2.7,8-6.3,10.6-11
		c2.6-4.7,3.8-10.1,3.8-16.1s-1.3-11.4-3.8-16.1c-2.6-4.8-6.1-8.5-10.6-11.2c-4.5-2.7-9.6-4.1-15.3-4.1s-10.8,1.4-15.3,4.1
		c-4.5,2.7-8.1,6.4-10.7,11.2c-2.6,4.8-3.9,10.1-3.9,16.1s1.3,11.4,3.8,16.1c2.6,4.7,6.1,8.4,10.7,11c4.6,2.7,9.7,4,15.4,4
		S398.2,191.1,402.7,188.5z"/>
	<linearGradient id="SVGID_7_" gradientUnits="userSpaceOnUse" x1="1146.4944" y1="161.199" x2="376.4294" y2="161.199">
		<stop  offset="3.605769e-04" style="stop-color:#086BB5"/>
		<stop  offset="0.2538" style="stop-color:#037BB5"/>
		<stop  offset="0.8087" style="stop-color:#00A7B8"/>
		<stop  offset="1" style="stop-color:#00B9B6"/>
	</linearGradient>
	<path class="st6" d="M509.3,126.6c6,3.4,10.7,8,14.1,14c3.4,6,5.1,12.8,5.1,20.4c0,7.7-1.7,14.6-5.1,20.6
		c-3.4,6.1-8.1,10.8-14.1,14.1c-6,3.4-12.8,5-20.4,5c-7.6,0-14.4-1.7-20.4-5c-6-3.4-10.7-8.1-14.1-14.1c-3.4-6.1-5.1-12.9-5.1-20.6
		c0-7.6,1.7-14.4,5.1-20.4c3.4-6,8.1-10.7,14.1-14c6-3.4,12.8-5,20.4-5C496.5,121.6,503.3,123.2,509.3,126.6z M473.6,134.2
		c-4.5,2.6-8,6.3-10.5,11c-2.5,4.7-3.8,10.1-3.8,16.1c0,6.1,1.3,11.5,3.8,16.2c2.5,4.7,6,8.4,10.5,11c4.5,2.6,9.6,3.9,15.3,3.9
		s10.8-1.3,15.3-3.9c4.5-2.6,8-6.3,10.5-11c2.5-4.7,3.8-10.1,3.8-16.2c0-6-1.3-11.4-3.8-16.1c-2.5-4.7-6-8.4-10.5-11
		c-4.5-2.6-9.6-3.9-15.3-3.9S478.1,131.6,473.6,134.2z"/>
	<linearGradient id="SVGID_8_" gradientUnits="userSpaceOnUse" x1="1146.4944" y1="161.199" x2="376.4294" y2="161.199">
		<stop  offset="3.605769e-04" style="stop-color:#086BB5"/>
		<stop  offset="0.2538" style="stop-color:#037BB5"/>
		<stop  offset="0.8087" style="stop-color:#00A7B8"/>
		<stop  offset="1" style="stop-color:#00B9B6"/>
	</linearGradient>
	<path class="st7" d="M581.1,130.4c-5.6,0-10.7,1.3-15.2,3.9c-4.5,2.6-8,6.2-10.5,10.9c-2.5,4.7-3.8,10-3.8,16
		c0,6,1.3,11.4,3.8,16.1c2.5,4.7,6,8.4,10.5,11c4.5,2.6,9.6,3.9,15.2,3.9c5.1,0,9.8-0.9,14-2.7c4.3-1.8,7.8-4.4,10.7-7.8l5.7,6
		c-3.5,4.2-7.9,7.5-13.2,9.8c-5.3,2.3-11.2,3.5-17.7,3.5c-7.5,0-14.2-1.7-20.1-5c-5.9-3.4-10.5-8.1-13.9-14.1
		c-3.4-6.1-5-12.9-5-20.5c0-7.6,1.7-14.4,5-20.5c3.4-6.1,8-10.8,13.9-14.1c5.9-3.4,12.6-5,20.1-5c6.1,0,11.7,1,16.7,3
		c5.1,2,9.4,4.8,13,8.4l-5.7,6.8C598.3,133.5,590.4,130.4,581.1,130.4z"/>
	<linearGradient id="SVGID_9_" gradientUnits="userSpaceOnUse" x1="1146.4944" y1="152.4156" x2="376.4294" y2="152.4156">
		<stop  offset="3.605769e-04" style="stop-color:#086BB5"/>
		<stop  offset="0.2538" style="stop-color:#037BB5"/>
		<stop  offset="0.8087" style="stop-color:#00A7B8"/>
		<stop  offset="1" style="stop-color:#00B9B6"/>
	</linearGradient>
	<path class="st8" d="M673.7,195.1c-5.4,3.7-11.2,5.7-17.4,5.9c-6,0-10.8-1.9-14.3-5.6c-3.5-3.7-5.3-9.3-5.3-16.7v-46.8h-11.3
		l-0.2-7.8h11.4v-20.3h10.1v20.3l25.5-0.2v8h-25.5v45.2c0,9.7,3.6,14.6,10.8,14.6c4,0,8.4-1.4,13.1-4.2L673.7,195.1z"/>
	<linearGradient id="SVGID_10_" gradientUnits="userSpaceOnUse" x1="1146.4944" y1="161.199" x2="376.4294" y2="161.199">
		<stop  offset="3.605769e-04" style="stop-color:#086BB5"/>
		<stop  offset="0.2538" style="stop-color:#037BB5"/>
		<stop  offset="0.8087" style="stop-color:#00A7B8"/>
		<stop  offset="1" style="stop-color:#00B9B6"/>
	</linearGradient>
	<path class="st9" d="M742.7,126.6c6,3.4,10.7,8,14.1,14c3.4,6,5.1,12.8,5.1,20.4c0,7.7-1.7,14.6-5.1,20.6
		c-3.4,6.1-8.1,10.8-14.1,14.1c-6,3.4-12.8,5-20.4,5c-7.6,0-14.4-1.7-20.4-5c-6-3.4-10.7-8.1-14.1-14.1c-3.4-6.1-5.1-12.9-5.1-20.6
		c0-7.6,1.7-14.4,5.1-20.4c3.4-6,8.1-10.7,14.1-14c6-3.4,12.8-5,20.4-5C729.8,121.6,736.7,123.2,742.7,126.6z M706.9,134.2
		c-4.5,2.6-8,6.3-10.5,11c-2.5,4.7-3.8,10.1-3.8,16.1c0,6.1,1.2,11.5,3.8,16.2c2.5,4.7,6,8.4,10.5,11c4.5,2.6,9.6,3.9,15.3,3.9
		s10.8-1.3,15.3-3.9c4.5-2.6,8-6.3,10.5-11c2.5-4.7,3.8-10.1,3.8-16.2c0-6-1.3-11.4-3.8-16.1c-2.5-4.7-6-8.4-10.5-11
		c-4.5-2.6-9.6-3.9-15.3-3.9S711.4,131.6,706.9,134.2z"/>
	<linearGradient id="SVGID_11_" gradientUnits="userSpaceOnUse" x1="1146.4944" y1="161.0489" x2="376.4294" y2="161.0489">
		<stop  offset="3.605769e-04" style="stop-color:#086BB5"/>
		<stop  offset="0.2538" style="stop-color:#037BB5"/>
		<stop  offset="0.8087" style="stop-color:#00A7B8"/>
		<stop  offset="1" style="stop-color:#00B9B6"/>
	</linearGradient>
	<path class="st10" d="M804.4,126.4c4.9-3.2,10.7-4.8,17.5-4.9v9.5c-8.3-0.1-15,2.3-20,7.3c-5.1,5-7.9,11.7-8.6,20.2v42h-10.1v-78.7
		h10.1v18.3C795.9,134.2,799.6,129.6,804.4,126.4z"/>
	<linearGradient id="SVGID_12_" gradientUnits="userSpaceOnUse" x1="1146.4944" y1="144.8335" x2="376.4294" y2="144.8335">
		<stop  offset="3.605769e-04" style="stop-color:#086BB5"/>
		<stop  offset="0.2538" style="stop-color:#037BB5"/>
		<stop  offset="0.8087" style="stop-color:#00A7B8"/>
		<stop  offset="1" style="stop-color:#00B9B6"/>
	</linearGradient>
	<path class="st11" d="M838.9,89.1H849v111.4h-10.1V89.1z"/>
	<linearGradient id="SVGID_13_" gradientUnits="userSpaceOnUse" x1="1146.4944" y1="161.199" x2="376.4294" y2="161.199">
		<stop  offset="3.605769e-04" style="stop-color:#086BB5"/>
		<stop  offset="0.2538" style="stop-color:#037BB5"/>
		<stop  offset="0.8087" style="stop-color:#00A7B8"/>
		<stop  offset="1" style="stop-color:#00B9B6"/>
	</linearGradient>
	<path class="st12" d="M931.1,126.6c6,3.4,10.7,8,14.1,14c3.4,6,5.1,12.8,5.1,20.4c0,7.7-1.7,14.6-5.1,20.6
		c-3.4,6.1-8.1,10.8-14.1,14.1c-6,3.4-12.8,5-20.4,5c-7.6,0-14.4-1.7-20.4-5c-6-3.4-10.7-8.1-14.1-14.1c-3.4-6.1-5.1-12.9-5.1-20.6
		c0-7.6,1.7-14.4,5.1-20.4c3.4-6,8.1-10.7,14.1-14c6-3.4,12.8-5,20.4-5C918.3,121.6,925.1,123.2,931.1,126.6z M895.4,134.2
		c-4.5,2.6-8,6.3-10.5,11c-2.5,4.7-3.8,10.1-3.8,16.1c0,6.1,1.2,11.5,3.8,16.2c2.5,4.7,6,8.4,10.5,11c4.5,2.6,9.6,3.9,15.3,3.9
		s10.8-1.3,15.3-3.9c4.5-2.6,8-6.3,10.5-11c2.5-4.7,3.8-10.1,3.8-16.2c0-6-1.3-11.4-3.8-16.1c-2.5-4.7-6-8.4-10.5-11
		c-4.5-2.6-9.6-3.9-15.3-3.9S899.9,131.6,895.4,134.2z"/>
	<linearGradient id="SVGID_14_" gradientUnits="userSpaceOnUse" x1="1146.4944" y1="175.763" x2="376.4294" y2="175.763">
		<stop  offset="3.605769e-04" style="stop-color:#086BB5"/>
		<stop  offset="0.2538" style="stop-color:#037BB5"/>
		<stop  offset="0.8087" style="stop-color:#00A7B8"/>
		<stop  offset="1" style="stop-color:#00B9B6"/>
	</linearGradient>
	<path class="st13" d="M1039.6,121.9v70.4c0,7.6-1.6,14.3-4.8,20c-3.2,5.7-7.8,10.1-13.7,13.1c-6,3.1-12.8,4.6-20.6,4.6
		c-11.6,0-22.4-4-32.3-12l4.8-7.2c4,3.5,8.2,6.2,12.6,8c4.4,1.8,9.2,2.7,14.4,2.7c9,0,16.2-2.6,21.5-7.9c5.4-5.3,8-12.3,8-21.1
		v-12.8c-2.8,5.5-6.8,9.8-12,12.9c-5.2,3.1-11.2,4.7-18,4.7c-7,0-13.2-1.6-18.7-4.9c-5.5-3.3-9.7-7.8-12.8-13.5
		c-3.1-5.8-4.6-12.3-4.6-19.6c0-7.3,1.5-13.8,4.6-19.5c3.1-5.7,7.3-10.2,12.8-13.4c5.5-3.2,11.8-4.8,18.8-4.8
		c6.8,0,12.8,1.5,17.9,4.6c5.1,3.1,9.1,7.4,12,13v-17.3H1039.6z M1015.9,185.3c4.3-2.6,7.7-6.1,10.1-10.6c2.4-4.5,3.6-9.6,3.6-15.2
		c0-5.7-1.2-10.8-3.6-15.3c-2.4-4.5-5.8-8-10.1-10.6c-4.3-2.6-9.2-3.8-14.6-3.8s-10.3,1.3-14.6,3.8c-4.3,2.6-7.7,6.1-10.1,10.6
		c-2.5,4.5-3.7,9.6-3.7,15.3c0,5.7,1.2,10.8,3.7,15.2c2.5,4.5,5.8,8,10.1,10.5c4.3,2.6,9.1,3.8,14.6,3.8
		C1006.8,189.1,1011.6,187.8,1015.9,185.3z"/>
	<linearGradient id="SVGID_15_" gradientUnits="userSpaceOnUse" x1="1146.4944" y1="146.335" x2="376.4294" y2="146.335">
		<stop  offset="3.605769e-04" style="stop-color:#086BB5"/>
		<stop  offset="0.2538" style="stop-color:#037BB5"/>
		<stop  offset="0.8087" style="stop-color:#00A7B8"/>
		<stop  offset="1" style="stop-color:#00B9B6"/>
	</linearGradient>
	<path class="st14" d="M1077,94.2c1.3,1.4,2,3,2,5c0,2-0.7,3.7-2,5.1c-1.4,1.4-3,2.1-4.9,2.1c-2,0-3.7-0.7-5-2.1
		c-1.4-1.4-2-3.1-2-5.1c0-2,0.7-3.7,2-5c1.4-1.4,3-2,5-2C1074.1,92.1,1075.7,92.8,1077,94.2z M1067,121.9h10.1v78.7H1067V121.9z"/>
	<linearGradient id="SVGID_16_" gradientUnits="userSpaceOnUse" x1="1146.4944" y1="161.199" x2="376.4294" y2="161.199">
		<stop  offset="3.605769e-04" style="stop-color:#086BB5"/>
		<stop  offset="0.2538" style="stop-color:#037BB5"/>
		<stop  offset="0.8087" style="stop-color:#00A7B8"/>
		<stop  offset="1" style="stop-color:#00B9B6"/>
	</linearGradient>
	<path class="st15" d="M1137.5,130.4c-5.6,0-10.7,1.3-15.2,3.9c-4.5,2.6-8,6.2-10.5,10.9c-2.5,4.7-3.8,10-3.8,16
		c0,6,1.3,11.4,3.8,16.1c2.5,4.7,6,8.4,10.5,11c4.5,2.6,9.6,3.9,15.2,3.9c5.1,0,9.8-0.9,14-2.7c4.3-1.8,7.8-4.4,10.7-7.8l5.7,6
		c-3.5,4.2-7.9,7.5-13.2,9.8c-5.3,2.3-11.2,3.5-17.7,3.5c-7.5,0-14.2-1.7-20.1-5c-5.9-3.4-10.5-8.1-13.9-14.1
		c-3.4-6.1-5-12.9-5-20.5c0-7.6,1.7-14.4,5-20.5c3.4-6.1,8-10.8,13.9-14.1c5.9-3.4,12.6-5,20.1-5c6.1,0,11.7,1,16.7,3
		c5.1,2,9.4,4.8,13,8.4l-5.7,6.8C1154.7,133.5,1146.8,130.4,1137.5,130.4z"/>
	<linearGradient id="SVGID_17_" gradientUnits="userSpaceOnUse" x1="1176.5217" y1="99.2652" x2="330.4839" y2="99.2652">
		<stop  offset="3.605769e-04" style="stop-color:#086BB5"/>
		<stop  offset="0.2538" style="stop-color:#037BB5"/>
		<stop  offset="0.8087" style="stop-color:#00A7B8"/>
		<stop  offset="1" style="stop-color:#00B9B6"/>
	</linearGradient>
	<path class="st16" d="M1177,90.2c-5,0-9,4.1-9,9.1v0.1c0,4.9,3.9,9,9,9c5,0,9-4.1,9-9.1v-0.1C1186,94.3,1182.1,90.2,1177,90.2z
		 M1185,99.3c0,4.4-3.5,8.1-8,8.1c-4.6,0-8-3.6-8-8v-0.1c0-4.4,3.5-8.1,8-8.1C1181.6,91.2,1185,94.8,1185,99.3L1185,99.3z"/>
	<linearGradient id="SVGID_18_" gradientUnits="userSpaceOnUse" x1="1176.5217" y1="99.084" x2="330.4839" y2="99.084">
		<stop  offset="3.605769e-04" style="stop-color:#086BB5"/>
		<stop  offset="0.2538" style="stop-color:#037BB5"/>
		<stop  offset="0.8087" style="stop-color:#00A7B8"/>
		<stop  offset="1" style="stop-color:#00B9B6"/>
	</linearGradient>
	<path class="st17" d="M1181.5,97.5c0-2.1-1.6-3.1-3.8-3.1h-4.4v9.4h2.3v-2.9h1.4l2,2.9h2.7l-2.4-3.4
		C1180.6,100,1181.5,99,1181.5,97.5z M1177.5,99h-2v-2.6h2c1,0,1.6,0.5,1.6,1.3C1179.1,98.4,1178.6,99,1177.5,99z"/>
</g>
</svg>
