<?xml version="1.0" encoding="utf-8"?>
<!-- Generator: Adobe Illustrator 23.0.2, SVG Export Plug-In . SVG Version: 6.00 Build 0)  -->
<svg version="1.1" id="Layer_1" xmlns="http://www.w3.org/2000/svg" xmlns:xlink="http://www.w3.org/1999/xlink" x="0px" y="0px"
	 viewBox="0 0 300 300" style="enable-background:new 0 0 300 300;" xml:space="preserve">
<style type="text/css">
	.st0{fill:url(#Path_1_);}
	.st1{opacity:0.1;fill:#373A5B;enable-background:new    ;}
	.st2{fill:#FFFFFF;}
	.st3{fill:#FB8FB4;}
	.st4{fill:#D9EFF3;}
	.st5{fill:#36B8E1;}
	.st6{opacity:0.2;fill:#FFFFFF;enable-background:new    ;}
	.st7{fill:#99FF87;}
	.st8{fill:#41B0C3;}
	.st9{fill:url(#Path_2_);}
	.st10{opacity:0.3;fill:#383B5C;enable-background:new    ;}
	.st11{fill:url(#Oval_1_);}
	.st12{fill:#CF78F6;}
</style>
<g id="Dashboard-2" transform="translate(201.468100, 556.736392)">
	
		<linearGradient id="Path_1_" gradientUnits="userSpaceOnUse" x1="-720.8391" y1="-70.7341" x2="-722.3287" y2="-73.8011" gradientTransform="matrix(76.9427 0 0 -51.024 55473.9375 -4099.1226)">
		<stop  offset="0" style="stop-color:#39ABC5"/>
		<stop  offset="1" style="stop-color:#A8EB9D"/>
	</linearGradient>
	<path id="Path_27_" class="st0" d="M-160.1-482.2H56.1c5,0,9.1,4.1,9.1,9.1v137.2c0,5-4.1,9.1-9.1,9.1h-216.2c-5,0-9.1-4.1-9.1-9.1
		v-137.2C-169.2-478.1-165.1-482.2-160.1-482.2z"/>
	<g id="Group-25" transform="translate(10.000000, 18.000000)">
		<path class="st1" d="M-143.4-437.3h67c3.4,0,6.1,2.7,6.1,6.1v60.9c0,3.4-2.7,6.1-6.1,6.1h-67c-3.4,0-6.1-2.7-6.1-6.1v-60.9
			C-149.5-434.6-146.8-437.3-143.4-437.3z"/>
		<path class="st2" d="M-143.4-443.4h67c3.4,0,6.1,2.7,6.1,6.1v60.9c0,3.4-2.7,6.1-6.1,6.1h-67c-3.4,0-6.1-2.7-6.1-6.1v-60.9
			C-149.5-440.7-146.8-443.4-143.4-443.4z"/>
		<path id="Oval_27_" class="st3" d="M-109.9-400c-8.2,0-14.9-6.7-14.9-14.9s6.7-14.9,14.9-14.9s14.9,6.7,14.9,14.9
			S-101.7-400-109.9-400z M-109.9-405.5c5.2,0,9.4-4.2,9.4-9.4s-4.2-9.4-9.4-9.4c-5.2,0-9.4,4.2-9.4,9.4S-115.1-405.5-109.9-405.5z"
			/>
		<path id="Path-130_8_" class="st4" d="M-123.4-386.3c-1.5,0-2.7-1.2-2.7-2.7c0-1.5,1.2-2.7,2.7-2.7h26.9c1.5,0,2.7,1.2,2.7,2.7
			c0,1.5-1.2,2.7-2.7,2.7H-123.4z"/>
	</g>
	<g id="Group-25-Copy" transform="translate(40.000000, 18.000000)">
		<path class="st1" d="M-82-437.3h67c3.4,0,6.1,2.7,6.1,6.1v60.9c0,3.4-2.7,6.1-6.1,6.1h-67c-3.4,0-6.1-2.7-6.1-6.1v-60.9
			C-88.1-434.6-85.4-437.3-82-437.3z"/>
		<path class="st2" d="M-82-443.4h67c3.4,0,6.1,2.7,6.1,6.1v60.9c0,3.4-2.7,6.1-6.1,6.1h-67c-3.4,0-6.1-2.7-6.1-6.1v-60.9
			C-88.1-440.7-85.4-443.4-82-443.4z"/>
		<path class="st5" d="M-48.5-400c-8.2,0-14.9-6.7-14.9-14.9s6.7-14.9,14.9-14.9s14.9,6.7,14.9,14.9S-40.3-400-48.5-400z
			 M-48.5-405.5c5.2,0,9.4-4.2,9.4-9.4s-4.2-9.4-9.4-9.4s-9.4,4.2-9.4,9.4S-53.7-405.5-48.5-405.5z"/>
		<path class="st4" d="M-62-386.3c-1.5,0-2.7-1.2-2.7-2.7c0-1.5,1.2-2.7,2.7-2.7h26.9c1.5,0,2.7,1.2,2.7,2.7c0,1.5-1.2,2.7-2.7,2.7
			H-62z"/>
	</g>
	<path class="st6" d="M-160.1-482.2H56.1c5,0,9.1,4.1,9.1,9.1v16.4h-234.5v-16.4C-169.2-478.1-165.1-482.2-160.1-482.2z"/>
	<circle class="st7" cx="-151.8" cy="-469.4" r="3"/>
	<circle id="Oval-Copy-58_1_" class="st8" cx="-139.7" cy="-469.4" r="3"/>
	<circle id="Oval-Copy-59_1_" class="st8" cx="-127.5" cy="-469.4" r="3"/>
	<path class="st2" d="M-136-436.2c-1.5,0-2.7-1.2-2.7-2.7c0-1.5,1.2-2.7,2.7-2.7h26.9c1.5,0,2.7,1.2,2.7,2.7c0,1.5-1.2,2.7-2.7,2.7
		H-136z"/>
</g>
<g id="Security" transform="translate(250.470033, 254.127794)">
	
		<linearGradient id="Path_2_" gradientUnits="userSpaceOnUse" x1="-1356.2213" y1="171.784" x2="-1356.2213" y2="173.651" gradientTransform="matrix(49.3573 0 0 59.2298 66932.6406 -10268.6035)">
		<stop  offset="0" style="stop-color:#6BCBDC"/>
		<stop  offset="1" style="stop-color:#4D82C3"/>
	</linearGradient>
	<path id="Path_77_" class="st9" d="M-4.4-91l32.5,19.4c1.5,0.9,2.3,2.5,2.2,4.2c-1,15.5-4.4,28.4-10.1,38.7
		c-6,11-13.8,19.2-23.3,24.8c-1.8,1.6-4.7,1.6-7,0.1c-11.1-6.9-19.5-15.8-25.1-26.8c-5.3-10.4-8.1-22.7-8.6-36.9l0,0
		c-0.1-1.7,0.8-3.2,2.2-4L-9-91C-7.6-91.9-5.8-91.9-4.4-91z"/>
	<circle id="Oval_55_" class="st10" cx="-6.7" cy="-49.5" r="18.7"/>
	<path id="Path-131_2_" class="st2" d="M-1.7-54.9c0.7-0.7,1.9-0.7,2.7,0c0.7,0.7,0.7,1.9,0,2.7l-7.4,7.4c-0.7,0.7-1.9,0.7-2.7,0
		l-4.9-4.9c-0.7-0.7-0.7-1.9,0-2.7c0.7-0.7,1.9-0.7,2.7,0l3.5,3.5L-1.7-54.9z"/>
</g>
<g id="Check-6" transform="translate(581.417540, 218.052018)">
	
		<linearGradient id="Oval_1_" gradientUnits="userSpaceOnUse" x1="-1091.9031" y1="265.0551" x2="-1093.2244" y2="263.687" gradientTransform="matrix(32 0 0 -32 34423.3633 8327.3359)">
		<stop  offset="0" style="stop-color:#F8E6FF"/>
		<stop  offset="1" style="stop-color:#CBDDFB"/>
	</linearGradient>
	<circle id="Oval_10_" class="st11" cx="-534.6" cy="-136.8" r="29.6"/>
	<path id="Path_14_" class="st12" d="M-526.5-142.8c0.7-0.7,1.9-0.7,2.6,0c0.7,0.7,0.7,1.9,0,2.6l-10.5,10.5c-0.7,0.7-1.9,0.7-2.6,0
		l-6.5-6.5c-0.7-0.7-0.7-1.9,0-2.6c0.7-0.7,1.9-0.7,2.6,0l5.2,5.2L-526.5-142.8z"/>
</g>
</svg>
