<?xml version="1.0" encoding="utf-8"?>
<!-- Generator: Adobe Illustrator 23.0.2, SVG Export Plug-In . SVG Version: 6.00 Build 0)  -->
<svg version="1.1" id="Layer_1" xmlns="http://www.w3.org/2000/svg" xmlns:xlink="http://www.w3.org/1999/xlink" x="0px" y="0px"
	 viewBox="0 0 1442.9 960.1" style="enable-background:new 0 0 1442.9 960.1;" xml:space="preserve">
<style type="text/css">
	.st0{opacity:0.2;fill:#D1D3D4;enable-background:new    ;}
	.st1{opacity:0.3;fill:#D1D3D4;enable-background:new    ;}
	.st2{opacity:0.4;fill:#D1D3D4;enable-background:new    ;}
</style>
<g id="Landingpage-background-7">
	<path id="Shape" class="st0" d="M1082.4,2C1021,63.7,983,148.8,983,242.6c0,188.5,153.1,341.3,341.9,341.3
		c40.6,0,79.5-7.1,115.6-20v258.3c-37.4,7.4-76,11.3-115.6,11.3C998,833.5,733,569,733,242.6C733,157,751.3,75.5,784.2,2L1082.4,2z"
		/>
	<path id="Path" class="st1" d="M456.9,960.4c-4.1-14.3-6.4-29.3-6.4-44.9c0-89,72.3-161.2,161.5-161.2s161.5,72.2,161.5,161.2
		c0,15.6-2.2,30.7-6.4,44.9h-88.4c8.7-12.8,13.8-28.3,13.8-44.9c0-44.4-36-80.4-80.5-80.4s-80.5,36-80.5,80.4
		c0,16.6,5.1,32.1,13.8,44.9H456.9z"/>
	<ellipse id="Oval_2_" class="st2" cx="1000.9" cy="152.5" rx="102.9" ry="102.7"/>
	<ellipse id="Oval-Copy_2_" class="st1" cx="199" cy="833.5" rx="52.6" ry="52.5"/>
	<path class="st0" d="M-0.1,433.1c45.9-28.1,76.6-78.6,76.6-136.3c0-57.6-30.5-108.1-76.3-136.2L-0.1,433.1z"/>
</g>
</svg>
