<?xml version="1.0" encoding="utf-8"?>
<!-- Generator: Adobe Illustrator 23.0.2, SVG Export Plug-In . SVG Version: 6.00 Build 0)  -->
<svg version="1.1" id="Layer_1" xmlns="http://www.w3.org/2000/svg" xmlns:xlink="http://www.w3.org/1999/xlink" x="0px" y="0px"
	 viewBox="0 0 300 300" style="enable-background:new 0 0 300 300;" xml:space="preserve">
<style type="text/css">
	.st0{fill:url(#SVGID_1_);}
	.st1{filter:url(#Adobe_OpacityMaskFilter);}
	.st2{fill-rule:evenodd;clip-rule:evenodd;fill:#FFFFFF;}
	.st3{mask:url(#mask-3_12_);fill:#FFFFFF;}
	.st4{filter:url(#Adobe_OpacityMaskFilter_1_);}
	.st5{mask:url(#mask-3_11_);fill:#FFFFFF;}
	.st6{filter:url(#Adobe_OpacityMaskFilter_2_);}
	.st7{mask:url(#mask-3_10_);fill:#FFFFFF;}
	.st8{filter:url(#Adobe_OpacityMaskFilter_3_);}
	.st9{mask:url(#mask-3_9_);fill:#FFFFFF;}
	.st10{filter:url(#Adobe_OpacityMaskFilter_4_);}
	.st11{mask:url(#mask-3_8_);fill:#93D4CA;}
	.st12{filter:url(#Adobe_OpacityMaskFilter_5_);}
	.st13{mask:url(#mask-3_7_);fill:url(#Path-Copy_1_);}
</style>
<g id="Stats-5" transform="translate(435.264720, 475.864185)">
	<g id="Path_84_">
		
			<linearGradient id="SVGID_1_" gradientUnits="userSpaceOnUse" x1="-950.9308" y1="12.0538" x2="-952.6973" y2="8.4169" gradientTransform="matrix(54.9942 0 0 -66.4765 52065.4844 342.2046)">
			<stop  offset="0" style="stop-color:#38ABC4"/>
			<stop  offset="1" style="stop-color:#AED79A"/>
		</linearGradient>
		<path class="st0" d="M-360.8-447.1h100.4c3.3,0,6.4,1.2,8.9,3.4l63.4,58.2c2.7,2.5,4.2,6,4.2,9.7v147.1c0,12.1-9.8,21.8-21.8,21.8
			h-155c-12.1,0-21.8-9.8-21.8-21.8v-196.5C-382.7-437.3-372.9-447.1-360.8-447.1z"/>
	</g>
	<defs>
		<filter id="Adobe_OpacityMaskFilter" filterUnits="userSpaceOnUse" x="-340.3" y="-276.9" width="28.9" height="43.4">
			<feColorMatrix  type="matrix" values="1 0 0 0 0  0 1 0 0 0  0 0 1 0 0  0 0 0 1 0"/>
		</filter>
	</defs>
	<mask maskUnits="userSpaceOnUse" x="-340.3" y="-276.9" width="28.9" height="43.4" id="mask-3_12_">
		<g class="st1">
			<path id="path-2_12_" class="st2" d="M-360.8-447.1h100.4c3.3,0,6.4,1.2,8.9,3.4l63.4,58.2c2.7,2.5,4.2,6,4.2,9.7v147.1
				c0,12.1-9.8,21.8-21.8,21.8h-155c-12.1,0-21.8-9.8-21.8-21.8v-196.5C-382.7-437.3-372.9-447.1-360.8-447.1z"/>
		</g>
	</mask>
	<path class="st3" d="M-336.7-276.9h21.7c2,0,3.6,1.6,3.6,3.6v36.1c0,2-1.6,3.6-3.6,3.6h-21.7c-2,0-3.6-1.6-3.6-3.6v-36.1
		C-340.3-275.3-338.7-276.9-336.7-276.9z"/>
	<defs>
		<filter id="Adobe_OpacityMaskFilter_1_" filterUnits="userSpaceOnUse" x="-296.9" y="-302.2" width="28.9" height="68.7">
			<feColorMatrix  type="matrix" values="1 0 0 0 0  0 1 0 0 0  0 0 1 0 0  0 0 0 1 0"/>
		</filter>
	</defs>
	<mask maskUnits="userSpaceOnUse" x="-296.9" y="-302.2" width="28.9" height="68.7" id="mask-3_11_">
		<g class="st4">
			<path id="path-2_11_" class="st2" d="M-360.8-447.1h100.4c3.3,0,6.4,1.2,8.9,3.4l63.4,58.2c2.7,2.5,4.2,6,4.2,9.7v147.1
				c0,12.1-9.8,21.8-21.8,21.8h-155c-12.1,0-21.8-9.8-21.8-21.8v-196.5C-382.7-437.3-372.9-447.1-360.8-447.1z"/>
		</g>
	</mask>
	<path class="st5" d="M-293.3-302.2h21.7c2,0,3.6,1.6,3.6,3.6v61.4c0,2-1.6,3.6-3.6,3.6h-21.7c-2,0-3.6-1.6-3.6-3.6v-61.4
		C-296.9-300.6-295.3-302.2-293.3-302.2z"/>
	<defs>
		<filter id="Adobe_OpacityMaskFilter_2_" filterUnits="userSpaceOnUse" x="-253.6" y="-334.7" width="28.9" height="101.2">
			<feColorMatrix  type="matrix" values="1 0 0 0 0  0 1 0 0 0  0 0 1 0 0  0 0 0 1 0"/>
		</filter>
	</defs>
	<mask maskUnits="userSpaceOnUse" x="-253.6" y="-334.7" width="28.9" height="101.2" id="mask-3_10_">
		<g class="st6">
			<path id="path-2_10_" class="st2" d="M-360.8-447.1h100.4c3.3,0,6.4,1.2,8.9,3.4l63.4,58.2c2.7,2.5,4.2,6,4.2,9.7v147.1
				c0,12.1-9.8,21.8-21.8,21.8h-155c-12.1,0-21.8-9.8-21.8-21.8v-196.5C-382.7-437.3-372.9-447.1-360.8-447.1z"/>
		</g>
	</mask>
	<path class="st7" d="M-250-334.7h21.7c2,0,3.6,1.6,3.6,3.6v93.9c0,2-1.6,3.6-3.6,3.6H-250c-2,0-3.6-1.6-3.6-3.6v-93.9
		C-253.6-333.1-252-334.7-250-334.7z"/>
	<defs>
		<filter id="Adobe_OpacityMaskFilter_3_" filterUnits="userSpaceOnUse" x="-352.5" y="-412.2" width="38.4" height="6.5">
			<feColorMatrix  type="matrix" values="1 0 0 0 0  0 1 0 0 0  0 0 1 0 0  0 0 0 1 0"/>
		</filter>
	</defs>
	<mask maskUnits="userSpaceOnUse" x="-352.5" y="-412.2" width="38.4" height="6.5" id="mask-3_9_">
		<g class="st8">
			<path id="path-2_9_" class="st2" d="M-360.8-447.1h100.4c3.3,0,6.4,1.2,8.9,3.4l63.4,58.2c2.7,2.5,4.2,6,4.2,9.7v147.1
				c0,12.1-9.8,21.8-21.8,21.8h-155c-12.1,0-21.8-9.8-21.8-21.8v-196.5C-382.7-437.3-372.9-447.1-360.8-447.1z"/>
		</g>
	</mask>
	<path id="Path-130_18_" class="st9" d="M-349.2-405.7c-1.8,0-3.3-1.5-3.3-3.3s1.5-3.3,3.3-3.3h31.9c1.8,0,3.3,1.5,3.3,3.3
		s-1.5,3.3-3.3,3.3H-349.2z"/>
	<defs>
		<filter id="Adobe_OpacityMaskFilter_4_" filterUnits="userSpaceOnUse" x="-352.5" y="-392.9" width="59.8" height="6.5">
			<feColorMatrix  type="matrix" values="1 0 0 0 0  0 1 0 0 0  0 0 1 0 0  0 0 0 1 0"/>
		</filter>
	</defs>
	<mask maskUnits="userSpaceOnUse" x="-352.5" y="-392.9" width="59.8" height="6.5" id="mask-3_8_">
		<g class="st10">
			<path id="path-2_8_" class="st2" d="M-360.8-447.1h100.4c3.3,0,6.4,1.2,8.9,3.4l63.4,58.2c2.7,2.5,4.2,6,4.2,9.7v147.1
				c0,12.1-9.8,21.8-21.8,21.8h-155c-12.1,0-21.8-9.8-21.8-21.8v-196.5C-382.7-437.3-372.9-447.1-360.8-447.1z"/>
		</g>
	</mask>
	<path id="Path-130-Copy_12_" class="st11" d="M-349.2-386.4c-1.8,0-3.3-1.5-3.3-3.3s1.5-3.3,3.3-3.3h53.2c1.8,0,3.3,1.5,3.3,3.3
		s-1.5,3.3-3.3,3.3H-349.2z"/>
	<defs>
		<filter id="Adobe_OpacityMaskFilter_5_" filterUnits="userSpaceOnUse" x="-258.2" y="-618.2" width="198.7" height="240.2">
			<feColorMatrix  type="matrix" values="1 0 0 0 0  0 1 0 0 0  0 0 1 0 0  0 0 0 1 0"/>
		</filter>
	</defs>
	<mask maskUnits="userSpaceOnUse" x="-258.2" y="-618.2" width="198.7" height="240.2" id="mask-3_7_">
		<g class="st12">
			<path id="path-2_7_" class="st2" d="M-360.8-447.1h100.4c3.3,0,6.4,1.2,8.9,3.4l63.4,58.2c2.7,2.5,4.2,6,4.2,9.7v147.1
				c0,12.1-9.8,21.8-21.8,21.8h-155c-12.1,0-21.8-9.8-21.8-21.8v-196.5C-382.7-437.3-372.9-447.1-360.8-447.1z"/>
		</g>
	</mask>
	
		<linearGradient id="Path-Copy_1_" gradientUnits="userSpaceOnUse" x1="-949.2944" y1="13.9157" x2="-951.0609" y2="10.2788" gradientTransform="matrix(54.9942 0 0 -66.4765 52099.918 294.8447)">
		<stop  offset="0" style="stop-color:#38ABC4"/>
		<stop  offset="1" style="stop-color:#AED79A"/>
	</linearGradient>
	<path id="Path-Copy_4_" class="st13" d="M-236.4-618.2H-136c3.3,0,6.4,1.2,8.9,3.4l63.4,58.2c2.7,2.5,4.2,6,4.2,9.7v147.1
		c0,12.1-9.8,21.8-21.8,21.8h-155c-12.1,0-21.8-9.8-21.8-21.8v-196.5C-258.2-608.4-248.5-618.2-236.4-618.2z"/>
</g>
</svg>
