<?xml version="1.0" encoding="utf-8"?>
<!-- Generator: Adobe Illustrator 23.0.2, SVG Export Plug-In . SVG Version: 6.00 Build 0)  -->
<svg version="1.1" id="Layer_1" xmlns="http://www.w3.org/2000/svg" xmlns:xlink="http://www.w3.org/1999/xlink" x="0px" y="0px"
	 viewBox="0 0 300 300" style="enable-background:new 0 0 300 300;" xml:space="preserve">
<style type="text/css">
	.st0{fill:url(#Path_2_);}
	.st1{fill:url(#SVGID_1_);}
	.st2{filter:url(#Adobe_OpacityMaskFilter);}
	.st3{fill-rule:evenodd;clip-rule:evenodd;fill:#FFFFFF;}
	.st4{opacity:0.1;mask:url(#mask-4_10_);fill:#FFFFFF;enable-background:new    ;}
	.st5{filter:url(#Adobe_OpacityMaskFilter_1_);}
	.st6{opacity:0.1;mask:url(#mask-4_9_);fill:#FFFFFF;enable-background:new    ;}
	.st7{filter:url(#Adobe_OpacityMaskFilter_2_);}
	.st8{mask:url(#mask-4_8_);fill:none;stroke:#FFFFFF;stroke-width:4;}
	.st9{filter:url(#Adobe_OpacityMaskFilter_3_);}
	.st10{mask:url(#mask-4_7_);fill:none;stroke:#FFFFFF;stroke-width:4;stroke-linecap:round;stroke-linejoin:round;}
	.st11{filter:url(#Adobe_OpacityMaskFilter_4_);}
	
		.st12{opacity:0.45;mask:url(#mask-4_6_);fill:none;stroke:#FFFFFF;stroke-width:4;stroke-linecap:round;stroke-linejoin:round;enable-background:new    ;}
	.st13{opacity:0.3;fill:#48B4BF;enable-background:new    ;}
	.st14{fill:url(#Path_4_);}
	.st15{opacity:0.4;fill:#FFFFFF;enable-background:new    ;}
	.st16{fill:url(#SVGID_2_);}
</style>
<g id="Page-1">
	<g id="Devices_1_" transform="translate(-921.000000, -610.000000)">
		<g id="Phone-5" transform="translate(921.911421, 610.494429)">
			
				<linearGradient id="Path_2_" gradientUnits="userSpaceOnUse" x1="-526.3257" y1="648.9507" x2="-525.9941" y2="649.4504" gradientTransform="matrix(183 0 0 -376 96444.7969 244241.0938)">
				<stop  offset="0" style="stop-color:#FAE6FF"/>
				<stop  offset="1" style="stop-color:#B2DDFF"/>
			</linearGradient>
			<path id="Path_1_" class="st0" d="M117.8,58.7h70c6.9,0,12.5,5.6,12.5,12.5v170.2c0,6.9-5.6,12.5-12.5,12.5h-70
				c-6.9,0-12.5-5.6-12.5-12.5V71.2C105.3,64.3,110.9,58.7,117.8,58.7z"/>
			<g id="Group-49_4_" transform="translate(7.000000, 6.000000)">
				<g>
					
						<linearGradient id="SVGID_1_" gradientUnits="userSpaceOnUse" x1="-533.1173" y1="642.8516" x2="-532.7094" y2="643.4091" gradientTransform="matrix(168.7264 0 0 -362.81 90062.3438 233484.6562)">
						<stop  offset="0" style="stop-color:#46E5F2"/>
						<stop  offset="1" style="stop-color:#9E66FF"/>
					</linearGradient>
					<path class="st1" d="M125.4,60.2c0,2.2,1.8,4,4,4h32.9c2.2,0,4-1.8,4-4c0-2.2,1.8-4,4-4h8.9c5.7,0,10.4,4.6,10.4,10.4V234
						c0,5.7-4.6,10.4-10.4,10.4h-66.8c-5.7,0-10.4-4.6-10.4-10.4V66.5c0-5.7,4.6-10.4,10.4-10.4h8.9C123.6,56.2,125.4,58,125.4,60.2
						z"/>
				</g>
				<defs>
					<filter id="Adobe_OpacityMaskFilter" filterUnits="userSpaceOnUse" x="49.3" y="151.3" width="157" height="144.3">
						<feColorMatrix  type="matrix" values="1 0 0 0 0  0 1 0 0 0  0 0 1 0 0  0 0 0 1 0"/>
					</filter>
				</defs>
				<mask maskUnits="userSpaceOnUse" x="49.3" y="151.3" width="157" height="144.3" id="mask-4_10_">
					<g class="st2">
						<path id="path-3_10_" class="st3" d="M125.4,60.2c0,2.2,1.8,4,4,4h32.9c2.2,0,4-1.8,4-4c0-2.2,1.8-4,4-4h8.9
							c5.7,0,10.4,4.6,10.4,10.4V234c0,5.7-4.6,10.4-10.4,10.4h-66.8c-5.7,0-10.4-4.6-10.4-10.4V66.5c0-5.7,4.6-10.4,10.4-10.4h8.9
							C123.6,56.2,125.4,58,125.4,60.2z"/>
					</g>
				</mask>
				
					<rect id="Rectangle" x="81.4" y="159.6" transform="matrix(0.5 -0.866 0.866 0.5 -129.5371 222.3926)" class="st4" width="92.9" height="127.6"/>
				<defs>
					<filter id="Adobe_OpacityMaskFilter_1_" filterUnits="userSpaceOnUse" x="80.7" y="132.1" width="134.7" height="100.5">
						<feColorMatrix  type="matrix" values="1 0 0 0 0  0 1 0 0 0  0 0 1 0 0  0 0 0 1 0"/>
					</filter>
				</defs>
				<mask maskUnits="userSpaceOnUse" x="80.7" y="132.1" width="134.7" height="100.5" id="mask-4_9_">
					<g class="st5">
						<path id="path-3_9_" class="st3" d="M125.4,60.2c0,2.2,1.8,4,4,4h32.9c2.2,0,4-1.8,4-4c0-2.2,1.8-4,4-4h8.9
							c5.7,0,10.4,4.6,10.4,10.4V234c0,5.7-4.6,10.4-10.4,10.4h-66.8c-5.7,0-10.4-4.6-10.4-10.4V66.5c0-5.7,4.6-10.4,10.4-10.4h8.9
							C123.6,56.2,125.4,58,125.4,60.2z"/>
					</g>
				</mask>
				
					<rect id="Rectangle-Copy-35" x="128.4" y="116" transform="matrix(0.5 -0.866 0.866 0.5 -83.907 219.4457)" class="st6" width="39.4" height="132.8"/>
				<defs>
					<filter id="Adobe_OpacityMaskFilter_2_" filterUnits="userSpaceOnUse" x="136.8" y="82.4" width="19.6" height="19.6">
						<feColorMatrix  type="matrix" values="1 0 0 0 0  0 1 0 0 0  0 0 1 0 0  0 0 0 1 0"/>
					</filter>
				</defs>
				<mask maskUnits="userSpaceOnUse" x="136.8" y="82.4" width="19.6" height="19.6" id="mask-4_8_">
					<g class="st7">
						<path id="path-3_8_" class="st3" d="M125.4,60.2c0,2.2,1.8,4,4,4h32.9c2.2,0,4-1.8,4-4c0-2.2,1.8-4,4-4h8.9
							c5.7,0,10.4,4.6,10.4,10.4V234c0,5.7-4.6,10.4-10.4,10.4h-66.8c-5.7,0-10.4-4.6-10.4-10.4V66.5c0-5.7,4.6-10.4,10.4-10.4h8.9
							C123.6,56.2,125.4,58,125.4,60.2z"/>
					</g>
				</mask>
				<circle id="Oval_5_" class="st8" cx="146.5" cy="92.2" r="7.8"/>
				<defs>
					<filter id="Adobe_OpacityMaskFilter_3_" filterUnits="userSpaceOnUse" x="139.9" y="109.9" width="13.2" height="4">
						<feColorMatrix  type="matrix" values="1 0 0 0 0  0 1 0 0 0  0 0 1 0 0  0 0 0 1 0"/>
					</filter>
				</defs>
				<mask maskUnits="userSpaceOnUse" x="139.9" y="109.9" width="13.2" height="4" id="mask-4_7_">
					<g class="st9">
						<path id="path-3_7_" class="st3" d="M125.4,60.2c0,2.2,1.8,4,4,4h32.9c2.2,0,4-1.8,4-4c0-2.2,1.8-4,4-4h8.9
							c5.7,0,10.4,4.6,10.4,10.4V234c0,5.7-4.6,10.4-10.4,10.4h-66.8c-5.7,0-10.4-4.6-10.4-10.4V66.5c0-5.7,4.6-10.4,10.4-10.4h8.9
							C123.6,56.2,125.4,58,125.4,60.2z"/>
					</g>
				</mask>
				<path id="Path-162_5_" class="st10" d="M141.9,111.9h9.2"/>
				<defs>
					<filter id="Adobe_OpacityMaskFilter_4_" filterUnits="userSpaceOnUse" x="134.7" y="115.1" width="23.6" height="4">
						<feColorMatrix  type="matrix" values="1 0 0 0 0  0 1 0 0 0  0 0 1 0 0  0 0 0 1 0"/>
					</filter>
				</defs>
				<mask maskUnits="userSpaceOnUse" x="134.7" y="115.1" width="23.6" height="4" id="mask-4_6_">
					<g class="st11">
						<path id="path-3_6_" class="st3" d="M125.4,60.2c0,2.2,1.8,4,4,4h32.9c2.2,0,4-1.8,4-4c0-2.2,1.8-4,4-4h8.9
							c5.7,0,10.4,4.6,10.4,10.4V234c0,5.7-4.6,10.4-10.4,10.4h-66.8c-5.7,0-10.4-4.6-10.4-10.4V66.5c0-5.7,4.6-10.4,10.4-10.4h8.9
							C123.6,56.2,125.4,58,125.4,60.2z"/>
					</g>
				</mask>
				<path id="Path-162-Copy_5_" class="st12" d="M136.7,117.1h19.6"/>
			</g>
			<path id="Path-163_4_" class="st13" d="M147.3,66.3c-0.4,0-0.8-0.3-0.8-0.8s0.3-0.8,0.8-0.8h11.6c0.4,0,0.8,0.3,0.8,0.8
				s-0.3,0.8-0.8,0.8H147.3z"/>
			<path id="Path-163-Copy_4_" class="st13" d="M162.9,66.3c-0.4,0-0.8-0.3-0.8-0.8s0.3-0.8,0.8-0.8h0.7c0.4,0,0.8,0.3,0.8,0.8
				s-0.3,0.8-0.8,0.8H162.9z"/>
		</g>
	</g>
</g>
<g id="Chat-1" transform="translate(1122.000000, 417.000000)">
	
		<linearGradient id="Path_4_" gradientUnits="userSpaceOnUse" x1="-1632.5118" y1="65.3423" x2="-1632.3442" y2="68.108" gradientTransform="matrix(40 0 0 -38.8718 64389 2270.5156)">
		<stop  offset="0" style="stop-color:#FF90D7"/>
		<stop  offset="1" style="stop-color:#906EFA"/>
	</linearGradient>
	<path id="Path_3_" class="st14" d="M-932.6-377.6h51.3c9.4,0,17.1,7.7,17.1,17.1v36.3c0,9.4-7.7,17.1-17.1,17.1H-928l-14.7,11.6
		c-1.9,1.5-4.5,1.1-6-0.7c-0.6-0.8-0.9-1.7-0.9-2.6v-61.7C-949.7-369.9-942-377.6-932.6-377.6z"/>
	<path id="Combined-Shape" class="st15" d="M-922.8-334.6c-3,0-5.5-2.4-5.5-5.5s2.4-5.5,5.5-5.5s5.5,2.4,5.5,5.5
		S-919.8-334.6-922.8-334.6z M-904.6-334.6c-3,0-5.5-2.4-5.5-5.5s2.4-5.5,5.5-5.5c3,0,5.5,2.4,5.5,5.5S-901.6-334.6-904.6-334.6z
		 M-886.4-334.6c-3,0-5.5-2.4-5.5-5.5s2.4-5.5,5.5-5.5s5.5,2.4,5.5,5.5S-883.4-334.6-886.4-334.6z"/>
	
		<linearGradient id="SVGID_2_" gradientUnits="userSpaceOnUse" x1="-1621.0282" y1="60.2028" x2="-1618.9327" y2="62.9156" gradientTransform="matrix(24 0 0 -22.4718 37992 1074.6901)">
		<stop  offset="0" style="stop-color:#FFCFAA"/>
		<stop  offset="1" style="stop-color:#FA6EB9"/>
	</linearGradient>
	<path class="st16" d="M-868-339.6c5.7,0,10.3,4.6,10.3,10.3v33.5c0,1-0.3,1.9-0.9,2.6c-1.5,1.9-4.2,2.2-6,0.7l-6.1-4.8h-28.1
		c-5.7,0-10.3-4.6-10.3-10.3v-21.8c0-5.7,4.6-10.3,10.3-10.3H-868z"/>
	<path class="st15" d="M-892.3-312.6c-3,0-5.5-2.4-5.5-5.5s2.4-5.5,5.5-5.5c3,0,5.5,2.4,5.5,5.5S-889.3-312.6-892.3-312.6z
		 M-874.1-312.6c-3,0-5.5-2.4-5.5-5.5s2.4-5.5,5.5-5.5s5.5,2.4,5.5,5.5S-871.1-312.6-874.1-312.6z"/>
</g>
</svg>
