<?xml version="1.0" encoding="utf-8"?>
<!-- Generator: Adobe Illustrator 23.0.2, SVG Export Plug-In . SVG Version: 6.00 Build 0)  -->
<svg version="1.1" id="Layer_1" xmlns="http://www.w3.org/2000/svg" xmlns:xlink="http://www.w3.org/1999/xlink" x="0px" y="0px"
	 viewBox="0 0 24 24" style="enable-background:new 0 0 24 24;" xml:space="preserve">
<style type="text/css">
	.st0{fill:#0B6CB5;}
</style>
<g>
	<path class="st0" d="M12,0C5.4,0,0,5.4,0,12s5.4,12,12,12s12-5.4,12-12S18.6,0,12,0z M8,10c0-2.2,1.8-4,4-4s4,1.8,4,4v1
		c0,2.2-1.8,4-4,4s-4-1.8-4-4V10z M12,22c-2.4,0-4.7-0.9-6.4-2.3C6.4,18.1,8.1,17,10,17h4c1.9,0,3.6,1.1,4.4,2.7
		C16.7,21.1,14.4,22,12,22z"/>
</g>
</svg>
