<?xml version="1.0" encoding="utf-8"?>
<!-- Generator: Adobe Illustrator 23.0.4, SVG Export Plug-In . SVG Version: 6.00 Build 0)  -->
<svg version="1.1" id="Layer_1" xmlns="http://www.w3.org/2000/svg" xmlns:xlink="http://www.w3.org/1999/xlink" x="0px" y="0px"
	 viewBox="0 0 184.6 30.5" style="enable-background:new 0 0 184.6 30.5;" xml:space="preserve">
<style type="text/css">
	.st0{fill:#FBB040;}
</style>
<polygon class="st0" points="16.7,0 21.4,9.6 32,11.2 24.4,18.6 26.2,29.2 16.7,24.2 7.2,29.2 9,18.6 1.3,11.2 11.9,9.6 "/>
<polygon class="st0" points="54.8,0 59.6,9.6 70.2,11.2 62.5,18.6 64.3,29.2 54.8,24.2 45.3,29.2 47.2,18.6 39.5,11.2 50.1,9.6 "/>
<polygon class="st0" points="93,0 97.7,9.6 108.3,11.2 100.6,18.6 102.5,29.2 93,24.2 83.5,29.2 85.3,18.6 77.6,11.2 88.2,9.6 "/>
<polygon class="st0" points="131.1,0 135.9,9.6 146.5,11.2 138.8,18.6 140.6,29.2 131.1,24.2 121.6,29.2 123.4,18.6 115.8,11.2 
	126.4,9.6 "/>
<polygon class="st0" points="169.3,0 174,9.6 184.6,11.2 176.9,18.6 178.7,29.2 169.3,24.2 159.8,29.2 161.6,18.6 153.9,11.2 
	164.5,9.6 "/>
</svg>
