<?xml version="1.0" encoding="utf-8"?>
<!-- Generator: Adobe Illustrator 23.0.4, SVG Export Plug-In . SVG Version: 6.00 Build 0)  -->
<svg version="1.1" id="Layer_1" xmlns="http://www.w3.org/2000/svg" xmlns:xlink="http://www.w3.org/1999/xlink" x="0px" y="0px"
	 viewBox="0 0 500 417.7" style="enable-background:new 0 0 500 417.7;" xml:space="preserve">
<style type="text/css">
	.st0{fill:url(#SVGID_1_);}
	.st1{fill:#AFB6BB;}
	.st2{fill:#FDB51E;}
	.st3{fill:#FFD311;}
	.st4{fill:#414042;}
	.st5{fill:#FFFFFF;}
	.st6{fill:url(#XMLID_2_);}
	.st7{fill:url(#XMLID_7_);}
	.st8{fill:url(#XMLID_8_);}
	.st9{fill:url(#XMLID_9_);}
	.st10{fill:url(#XMLID_10_);}
	.st11{fill:url(#XMLID_11_);}
	.st12{fill:url(#XMLID_12_);}
	.st13{fill:url(#XMLID_17_);}
	.st14{fill:url(#XMLID_18_);}
	.st15{fill:url(#XMLID_27_);}
	.st16{fill:url(#XMLID_28_);}
	.st17{fill:url(#XMLID_29_);}
	.st18{fill:url(#XMLID_30_);}
	.st19{fill:url(#XMLID_31_);}
	.st20{fill:url(#XMLID_32_);}
	.st21{fill:url(#XMLID_33_);}
	.st22{fill:url(#XMLID_34_);}
	.st23{fill:url(#XMLID_35_);}
</style>
<linearGradient id="SVGID_1_" gradientUnits="userSpaceOnUse" x1="82.7423" y1="338.3225" x2="417.1998" y2="338.3225">
	<stop  offset="3.605769e-04" style="stop-color:#086BB5"/>
	<stop  offset="0.4511" style="stop-color:#058CB5"/>
	<stop  offset="1" style="stop-color:#00B9B6"/>
</linearGradient>
<path class="st0" d="M411.8,279h-16.2h-75.5c-5.9,0-10.8,4.9-10.8,10.8v27H190.6v-27c0-5.9-4.9-10.8-10.8-10.8h-75.5H88.1h-5.4v10.8
	v107.9h21.6h291.3h21.6V289.8V279H411.8z"/>
<path class="st1" d="M142.1,214.2h215.8c3,0,5.4-2.4,5.4-5.4V95.6h21.6L417.2,279h-5.4h-16.2h-75.5c-5.9,0-10.8,4.9-10.8,10.8v27
	H190.6v-27c0-5.9-4.9-10.8-10.8-10.8h-75.5H88.1h-5.4l32.4-183.4h21.6v113.3C136.7,211.8,139.1,214.2,142.1,214.2z"/>
<path class="st2" d="M277.4,117.6l85.8-49v27v113.3c0,3-2.4,5.4-5.4,5.4H142.1c-3,0-5.4-2.4-5.4-5.4V95.6v-27l85.8,49l27.5,15.7
	L277.4,117.6z"/>
<path class="st3" d="M277.4,117.6L250,133.3l-27.5-15.7l-85.8-49c0-3,2.4-5.4,5.4-5.4h215.8c3,0,5.4,2.4,5.4,5.4L277.4,117.6z"/>
<path class="st4" d="M417.2,403.1H82.7c-3,0-5.4-2.4-5.4-5.4V279c0-3,2.4-5.4,5.4-5.4h97.1c8.9,0,16.2,7.3,16.2,16.2v21.6h107.9
	v-21.6c0-8.9,7.3-16.2,16.2-16.2h97.1c3,0,5.4,2.4,5.4,5.4v118.7C422.6,400.6,420.2,403.1,417.2,403.1z M88.1,392.3h323.7V284.4
	h-91.7c-3,0-5.4,2.4-5.4,5.4v27c0,3-2.4,5.4-5.4,5.4H190.6c-3,0-5.4-2.4-5.4-5.4v-27c0-3-2.4-5.4-5.4-5.4H88.1V392.3z"/>
<path class="st4" d="M411.9,279.9l-31.6-179h-17.1V90.2h21.6c2.6,0,4.9,1.9,5.3,4.5L422.5,278L411.9,279.9z"/>
<path class="st4" d="M88.1,279.9L77.4,278l32.4-183.4c0.5-2.6,2.7-4.5,5.3-4.5h21.6V101h-17.1L88.1,279.9z"/>
<rect x="190.6" y="349.1" class="st5" width="118.7" height="10.8"/>
<path class="st4" d="M250,138.7c-0.9,0-1.8-0.2-2.7-0.7L134,73.3l5.4-9.4L250,127.1l110.6-63.2l5.4,9.4L252.6,138
	C251.8,138.5,250.9,138.7,250,138.7z"/>
<path class="st4" d="M357.9,219.6H142.1c-6,0-10.8-4.8-10.8-10.8V68.6c0-6,4.8-10.8,10.8-10.8h215.8c5.9,0,10.8,4.8,10.8,10.8v140.3
	C368.6,214.8,363.8,219.6,357.9,219.6z M142.1,68.6v140.3h215.8V68.6H142.1z"/>
<rect x="244.6" y="230.4" class="st5" width="10.8" height="53.9"/>
<rect x="303.9" y="230.4" class="st5" width="10.8" height="27"/>
<rect x="185.2" y="230.4" class="st5" width="10.8" height="27"/>
<rect x="212.2" y="230.4" class="st5" width="10.8" height="59.3"/>
<rect x="276.9" y="230.4" class="st5" width="10.8" height="59.3"/>
<g id="XMLID_288_">
	<linearGradient id="XMLID_2_" gradientUnits="userSpaceOnUse" x1="99.8835" y1="107.4776" x2="117.7755" y2="107.4776">
		<stop  offset="3.605769e-04" style="stop-color:#EC0F79"/>
		<stop  offset="0.3917" style="stop-color:#EE3059"/>
		<stop  offset="1" style="stop-color:#F16A21"/>
	</linearGradient>
	<path id="XMLID_345_" class="st6" d="M96.8,110.2c5.5,2.6,11.1,5.2,16.6,7.8c0.4,0.2,7.3-13.3,7.5-13.2c-5.5-2.6-11.1-5.2-16.6-7.8
		C103.8,96.7,97,110.3,96.8,110.2L96.8,110.2z"/>
</g>
<g id="XMLID_323_">
	<linearGradient id="XMLID_7_" gradientUnits="userSpaceOnUse" x1="54.7482" y1="151.6073" x2="78.2586" y2="151.6073">
		<stop  offset="3.605769e-04" style="stop-color:#EC0F79"/>
		<stop  offset="0.3917" style="stop-color:#EE3059"/>
		<stop  offset="1" style="stop-color:#F16A21"/>
	</linearGradient>
	<path id="XMLID_380_" class="st7" d="M55.3,156c7.6,2.2,15.1,4.3,22.7,6.5c-0.2-0.1,0-7,0-7.6c0-0.7,0.3-7.5-0.2-7.6
		c-7.6-2.2-15.1-4.3-22.7-6.5c0.2,0.1,0,7,0,7.6C55.1,149,54.8,155.8,55.3,156L55.3,156z"/>
</g>
<g id="XMLID_245_">
	<linearGradient id="XMLID_8_" gradientUnits="userSpaceOnUse" x1="228.8305" y1="55.2293" x2="244.0276" y2="55.2293">
		<stop  offset="0" style="stop-color:#0F998E"/>
		<stop  offset="1" style="stop-color:#6FC171"/>
	</linearGradient>
	<path id="XMLID_248_" class="st8" d="M228.4,60.9c5.1,0,10.1,0,15.2,0c0.3,0,0.6-11.4,0.8-11.4c-5.1,0-10.1,0-15.2,0
		C228.9,49.6,228.6,60.9,228.4,60.9L228.4,60.9z"/>
</g>
<g id="XMLID_624_">
	<linearGradient id="XMLID_9_" gradientUnits="userSpaceOnUse" x1="212.8409" y1="130.0954" x2="232.3501" y2="130.0954">
		<stop  offset="3.605769e-04" style="stop-color:#066AB4"/>
		<stop  offset="0.4511" style="stop-color:#038BB4"/>
		<stop  offset="1" style="stop-color:#00B8B5"/>
	</linearGradient>
	<path id="XMLID_681_" class="st9" d="M212.1,130.4c3.3,7,10.6,11.1,18.3,10.2c0.4-0.1,1.6-4.9,1.8-5.4c0.2-0.5,1.3-5.4,1.7-5.4
		c-7.7,0.9-15-3.2-18.3-10.2c0.3,0.7-1.5,4.6-1.8,5.4C213.5,125.9,211.7,129.4,212.1,130.4L212.1,130.4z"/>
</g>
<g id="XMLID_187_">
	
		<linearGradient id="XMLID_10_" gradientUnits="userSpaceOnUse" x1="572.9503" y1="-471.2428" x2="592.4643" y2="-471.2428" gradientTransform="matrix(0.1455 0.9894 -0.9894 0.1455 -268.7678 -333.4704)">
		<stop  offset="3.605769e-04" style="stop-color:#066AB4"/>
		<stop  offset="0.4511" style="stop-color:#038BB4"/>
		<stop  offset="1" style="stop-color:#00B8B5"/>
	</linearGradient>
	<path id="XMLID_188_" class="st10" d="M299.1,169.2c-9.5-3.9-19-7.7-28.5-11.6c0.9,0.4-6.5,21.7-5.3,22.2c9.5,3.9,19,7.7,28.5,11.6
		C292.9,191,300.4,169.7,299.1,169.2L299.1,169.2z"/>
</g>
<g id="XMLID_175_">
	
		<linearGradient id="XMLID_11_" gradientUnits="userSpaceOnUse" x1="534.1015" y1="-360.7301" x2="555.0459" y2="-360.7301" gradientTransform="matrix(0.1455 0.9894 -0.9894 0.1455 -268.7678 -333.4704)">
		<stop  offset="3.605769e-04" style="stop-color:#EC0F79"/>
		<stop  offset="0.3917" style="stop-color:#EE3059"/>
		<stop  offset="1" style="stop-color:#F16A21"/>
	</linearGradient>
	<path id="XMLID_178_" class="st11" d="M163,142.9c-4.3,6-5,13.6-1.7,20.2c0.2,0.4,5.1,0,5.7,0c0.6,0,5.5-0.5,5.7-0.1
		c-3.3-6.6-2.6-14.2,1.7-20.2c-0.3,0.4-5,0-5.7,0C168,142.8,163.5,142.3,163,142.9L163,142.9z"/>
</g>
<g id="XMLID_173_">
	
		<linearGradient id="XMLID_12_" gradientUnits="userSpaceOnUse" x1="500.3004" y1="-478.9206" x2="507.6244" y2="-478.9206" gradientTransform="matrix(0.1455 0.9894 -0.9894 0.1455 -268.7678 -333.4704)">
		<stop  offset="3.605769e-04" style="stop-color:#EC0F79"/>
		<stop  offset="0.3917" style="stop-color:#EE3059"/>
		<stop  offset="1" style="stop-color:#F16A21"/>
	</linearGradient>
	<path id="XMLID_174_" class="st12" d="M289.5,91c-6.7-0.7-13.4-1.5-20.1-2.2c-0.3,0-1.8,11.2-2,11.2c6.7,0.7,13.4,1.5,20.1,2.2
		C287.8,102.2,289.3,90.9,289.5,91L289.5,91z"/>
</g>
<g id="XMLID_171_">
	
		<linearGradient id="XMLID_17_" gradientUnits="userSpaceOnUse" x1="449.6244" y1="-361.1382" x2="460.2994" y2="-361.1382" gradientTransform="matrix(0.1455 0.9894 -0.9894 0.1455 -268.7678 -333.4704)">
		<stop  offset="3.605769e-04" style="stop-color:#066AB4"/>
		<stop  offset="0.4511" style="stop-color:#038BB4"/>
		<stop  offset="1" style="stop-color:#00B8B5"/>
	</linearGradient>
	<path id="XMLID_172_" class="st13" d="M155.8,55.2c-3.6,3.5-7.3,7-10.9,10.5c0.3-0.2,8.4,7.6,8.8,7.2c3.6-3.5,7.3-7,10.9-10.5
		C164.4,62.7,156.2,54.9,155.8,55.2L155.8,55.2z"/>
</g>
<g id="XMLID_252_">
	
		<linearGradient id="XMLID_18_" gradientUnits="userSpaceOnUse" x1="396.7118" y1="-282.5154" x2="407.3868" y2="-282.5154" gradientTransform="matrix(0.1455 0.9894 -0.9894 0.1455 -268.7678 -333.4704)">
		<stop  offset="3.605769e-04" style="stop-color:#066AB4"/>
		<stop  offset="0.4511" style="stop-color:#038BB4"/>
		<stop  offset="1" style="stop-color:#00B8B5"/>
	</linearGradient>
	<path id="XMLID_255_" class="st14" d="M70.3,14.3c-3.6,3.5-7.3,7-10.9,10.5c0.3-0.2,8.4,7.6,8.8,7.2c3.6-3.5,7.3-7,10.9-10.5
		C78.9,21.8,70.7,14,70.3,14.3L70.3,14.3z"/>
</g>
<g id="XMLID_150_">
	
		<linearGradient id="XMLID_27_" gradientUnits="userSpaceOnUse" x1="471.1638" y1="-229.2904" x2="487.6187" y2="-229.2904" gradientTransform="matrix(0.1455 0.9894 -0.9894 0.1455 -268.7678 -333.4704)">
		<stop  offset="3.605769e-04" style="stop-color:#066AB4"/>
		<stop  offset="0.4511" style="stop-color:#038BB4"/>
		<stop  offset="1" style="stop-color:#00B8B5"/>
	</linearGradient>
	<path id="XMLID_164_" class="st15" d="M27.7,95.5c-2.8,5.5-5.6,11-8.4,16.5c-0.5,0.9,9,6.7,8.6,7.5c2.8-5.5,5.6-11,8.4-16.5
		C36.8,102.1,27.4,96.2,27.7,95.5L27.7,95.5z"/>
</g>
<g id="XMLID_25_">
	<linearGradient id="XMLID_28_" gradientUnits="userSpaceOnUse" x1="336.7209" y1="108.9759" x2="354.6129" y2="108.9759">
		<stop  offset="3.605769e-04" style="stop-color:#EC0F79"/>
		<stop  offset="0.3917" style="stop-color:#EE3059"/>
		<stop  offset="1" style="stop-color:#F16A21"/>
	</linearGradient>
	<path id="XMLID_26_" class="st16" d="M333.6,111.7c5.5,2.6,11.1,5.2,16.6,7.8c0.4,0.2,7.3-13.3,7.5-13.2
		c-5.5-2.6-11.1-5.2-16.6-7.8C340.7,98.2,333.9,111.8,333.6,111.7L333.6,111.7z"/>
</g>
<g id="XMLID_23_">
	<linearGradient id="XMLID_29_" gradientUnits="userSpaceOnUse" x1="318.0425" y1="146.9123" x2="341.553" y2="146.9123">
		<stop  offset="0" style="stop-color:#0F998E"/>
		<stop  offset="1" style="stop-color:#6FC171"/>
	</linearGradient>
	<path id="XMLID_24_" class="st17" d="M318.6,151.3c7.6,2.2,15.1,4.3,22.7,6.5c-0.2-0.1,0-7,0-7.6c0-0.7,0.3-7.5-0.2-7.6
		c-7.6-2.2-15.1-4.3-22.7-6.5c0.2,0.1,0,7,0,7.6C318.4,144.3,318.1,151.1,318.6,151.3L318.6,151.3z"/>
</g>
<g id="XMLID_21_">
	<linearGradient id="XMLID_30_" gradientUnits="userSpaceOnUse" x1="423.9753" y1="85.4881" x2="433.0901" y2="140.1768">
		<stop  offset="3.605769e-04" style="stop-color:#EC0F79"/>
		<stop  offset="0.3917" style="stop-color:#EE3059"/>
		<stop  offset="1" style="stop-color:#F16A21"/>
	</linearGradient>
	<path id="XMLID_22_" class="st18" d="M416.1,86.8c-2.3,8.5,0.4,17.3,7.1,23c1.1,0.9,6.2,0.3,7.6,0.3c1.8,0.1,3.6,0.1,5.4,0.1
		c0.4,0,2-0.2,2.2,0c-6.7-5.7-9.4-14.6-7.1-23C431,88.3,416.4,85.6,416.1,86.8L416.1,86.8z"/>
</g>
<g id="XMLID_19_">
	<linearGradient id="XMLID_31_" gradientUnits="userSpaceOnUse" x1="419.7621" y1="148.0053" x2="440.9042" y2="148.0053">
		<stop  offset="3.605769e-04" style="stop-color:#EC0F79"/>
		<stop  offset="0.3917" style="stop-color:#EE3059"/>
		<stop  offset="1" style="stop-color:#F16A21"/>
	</linearGradient>
	<path id="XMLID_20_" class="st19" d="M419.7,151.2c6.6,2.9,13.3,5.8,19.9,8.7c-0.3-0.1,0.7-6.9,0.8-7.6c0.1-0.7,1.1-7.4,0.6-7.6
		c-6.6-2.9-13.3-5.8-19.9-8.7c0.3,0.1-0.7,6.9-0.8,7.6C420.2,144.3,419.2,151,419.7,151.2L419.7,151.2z"/>
</g>
<g id="XMLID_15_">
	<linearGradient id="XMLID_32_" gradientUnits="userSpaceOnUse" x1="457.6888" y1="55.2293" x2="472.8859" y2="55.2293">
		<stop  offset="0" style="stop-color:#0F998E"/>
		<stop  offset="1" style="stop-color:#6FC171"/>
	</linearGradient>
	<path id="XMLID_16_" class="st20" d="M457.3,60.9c5.1,0,10.1,0,15.2,0c0.3,0,0.6-11.4,0.8-11.4c-5.1,0-10.1,0-15.2,0
		C457.7,49.6,457.5,60.9,457.3,60.9L457.3,60.9z"/>
</g>
<g id="XMLID_13_">
	<linearGradient id="XMLID_33_" gradientUnits="userSpaceOnUse" x1="392.3423" y1="182.1341" x2="411.8514" y2="182.1341">
		<stop  offset="3.605769e-04" style="stop-color:#066AB4"/>
		<stop  offset="0.4511" style="stop-color:#038BB4"/>
		<stop  offset="1" style="stop-color:#00B8B5"/>
	</linearGradient>
	<path id="XMLID_14_" class="st21" d="M391.6,182.4c3.3,7,10.6,11.1,18.3,10.2c0.4-0.1,1.6-4.9,1.8-5.4c0.2-0.5,1.3-5.4,1.7-5.4
		c-7.7,0.9-15-3.2-18.3-10.2c0.3,0.7-1.5,4.6-1.8,5.4C393,177.9,391.2,181.4,391.6,182.4L391.6,182.4z"/>
</g>
<g id="XMLID_5_">
	
		<linearGradient id="XMLID_34_" gradientUnits="userSpaceOnUse" x1="485.5637" y1="-595.2278" x2="496.2387" y2="-595.2278" gradientTransform="matrix(0.1455 0.9894 -0.9894 0.1455 -268.7678 -333.4704)">
		<stop  offset="3.605769e-04" style="stop-color:#066AB4"/>
		<stop  offset="0.4511" style="stop-color:#038BB4"/>
		<stop  offset="1" style="stop-color:#00B8B5"/>
	</linearGradient>
	<path id="XMLID_6_" class="st22" d="M392.7,56.7c-3.6,3.5-7.3,7-10.9,10.5c0.3-0.2,8.4,7.6,8.8,7.2c3.6-3.5,7.3-7,10.9-10.5
		C401.2,64.2,393,56.4,392.7,56.7L392.7,56.7z"/>
</g>
<g id="XMLID_3_">
	
		<linearGradient id="XMLID_35_" gradientUnits="userSpaceOnUse" x1="432.6511" y1="-516.605" x2="443.3261" y2="-516.605" gradientTransform="matrix(0.1455 0.9894 -0.9894 0.1455 -268.7678 -333.4704)">
		<stop  offset="3.605769e-04" style="stop-color:#066AB4"/>
		<stop  offset="0.4511" style="stop-color:#038BB4"/>
		<stop  offset="1" style="stop-color:#00B8B5"/>
	</linearGradient>
	<path id="XMLID_4_" class="st23" d="M307.2,15.8c-3.6,3.5-7.3,7-10.9,10.5c0.3-0.2,8.4,7.6,8.8,7.2c3.6-3.5,7.3-7,10.9-10.5
		C315.7,23.3,307.5,15.5,307.2,15.8L307.2,15.8z"/>
</g>
</svg>
