<?xml version="1.0" encoding="utf-8"?>
<!-- Generator: Adobe Illustrator 23.0.4, SVG Export Plug-In . SVG Version: 6.00 Build 0)  -->
<svg version="1.1" id="Layer_1" xmlns="http://www.w3.org/2000/svg" xmlns:xlink="http://www.w3.org/1999/xlink" x="0px" y="0px"
	 viewBox="0 0 32 32" style="enable-background:new 0 0 32 32;" xml:space="preserve">
<style type="text/css">
	.st0{fill:#086BB5;}
</style>
<g>
	<polygon class="st0" points="7,10 3,7 3,9 0,9 0,11 3,11 3,13 	"/>
	<path class="st0" d="M24,10c0-2.6,0.4-5.2,1.2-7.7c0.2-0.5-0.1-1.1-0.7-1.3c-0.5-0.2-1.1,0.1-1.3,0.7l0,0C22.5,4.4,22,7.2,22,10
		c0,1.8,0.4,3.6,1,5.2c-2.3,0.5-4.7,0.7-7,0.8c-2.4,0-4.7-0.3-7-0.8c0.7-1.7,1-3.4,1-5.2c0-2.8-0.5-5.6-1.3-8.3
		C8.5,1.2,7.9,0.9,7.4,1S6.6,1.8,6.8,2.3l0,0C7.6,4.8,8,7.4,8,10c0,1.7-0.4,3.3-1,4.8c-1,3-2.3,6.8-1,15.3c0.1,0.5,0.6,0.9,1.2,0.8
		c0.5-0.1,0.9-0.6,0.8-1.1c-0.5-2.8-0.6-5.6-0.5-8.3c3.5,0.5,6.7,3.9,7.5,4.9V30c0,0.6,0.4,1,1,1c0.6,0,1-0.4,1-1v-3.6
		c0.8-1,4-4.3,7.5-4.9c0.2,2.8,0,5.6-0.5,8.3c-0.1,0.5,0.3,1.1,0.8,1.2c0.5,0.1,1.1-0.3,1.2-0.8c0,0,0,0,0,0
		c1.3-8.5,0.1-12.3-1-15.3C24.4,13.3,24,11.7,24,10z"/>
	<circle class="st0" cx="16" cy="12" r="1"/>
	<polygon class="st0" points="32,9 29,9 29,7 25,10 29,13 29,11 32,11 	"/>
</g>
</svg>
