<?xml version="1.0" encoding="utf-8"?>
<!-- Generator: Adobe Illustrator 23.0.4, SVG Export Plug-In . SVG Version: 6.00 Build 0)  -->
<svg version="1.1" id="Layer_1" xmlns="http://www.w3.org/2000/svg" xmlns:xlink="http://www.w3.org/1999/xlink" x="0px" y="0px"
	 viewBox="0 0 32 32" style="enable-background:new 0 0 32 32;" xml:space="preserve">
<style type="text/css">
	.st0{fill:#086BB5;}
</style>
<g>
	<path class="st0" d="M30,6.9C30,4.2,27.8,2,25.1,2c-1,0-2.9,0.4-5.7,1.4c-2.2,0.7-4.6,0.7-6.8,0C9.8,2.4,7.9,2,6.9,2
		C4.2,2,2,4.2,2,6.9c0,2,1,5.7,1.3,6.6L2,26.5C2,28.4,3.6,30,5.5,30c1,0,2-0.5,2.9-1.6l5-5.9c0.6-0.7,1.5-1.6,2.6-1.6
		c0.9,0,1.7,0.5,2.6,1.6l5,5.9c0.5,0.6,1.5,1.6,2.9,1.6c1.9,0,3.5-1.6,3.5-3.6l-1.3-12.9C29,12.6,30,8.9,30,6.9z M20.1,10.6
		c-1.3,0.3-2.7,0.5-4.1,0.5s-2.8-0.2-4.1-0.5c-0.5-0.1-0.9-0.7-0.7-1.2c0.1-0.5,0.7-0.9,1.2-0.7C13.5,9,14.8,9.1,16,9.1
		s2.5-0.1,3.7-0.4c0.5-0.1,1.1,0.2,1.2,0.7C21,10,20.7,10.5,20.1,10.6z"/>
</g>
</svg>
