<?xml version="1.0" encoding="utf-8"?>
<!-- Generator: Adobe Illustrator 23.0.4, SVG Export Plug-In . SVG Version: 6.00 Build 0)  -->
<svg version="1.1" id="Layer_1" xmlns="http://www.w3.org/2000/svg" xmlns:xlink="http://www.w3.org/1999/xlink" x="0px" y="0px"
	 viewBox="0 0 48 48" style="enable-background:new 0 0 48 48;" xml:space="preserve">
<style type="text/css">
	.st0{fill:#086BB5;}
</style>
<g>
	<path class="st0" d="M28,16H10c-0.6,0-1,0.4-1,1v28c0,0.6,0.4,1,1,1h18c0.6,0,1-0.4,1-1V17C29,16.4,28.6,16,28,16z M23,38h-8
		c-0.6,0-1-0.4-1-1s0.4-1,1-1h8c0.6,0,1,0.4,1,1S23.6,38,23,38z M23,32h-8c-0.6,0-1-0.4-1-1s0.4-1,1-1h8c0.6,0,1,0.4,1,1
		S23.6,32,23,32z M23,26h-8c-0.6,0-1-0.4-1-1s0.4-1,1-1h8c0.6,0,1,0.4,1,1S23.6,26,23,26z"/>
	<path class="st0" d="M46.3,8l-22-6c-0.5-0.1-1.1,0.2-1.2,0.7c0,0.1,0,0.2,0,0.3v11h5c1.7,0,3,1.3,3,3v29h15c0.6,0,1-0.4,1-1V9
		C47,8.5,46.7,8.2,46.3,8z M37,37c0,0.6-0.4,1-1,1s-1-0.4-1-1V15c0-0.6,0.4-1,1-1s1,0.4,1,1V37z M43,37c0,0.6-0.4,1-1,1s-1-0.4-1-1
		V17c0-0.6,0.4-1,1-1s1,0.4,1,1V37z"/>
	<path class="st0" d="M2,24c-0.6,0-1,0.4-1,1v20c0,0.6,0.4,1,1,1h5V24H2z"/>
</g>
</svg>
