<?xml version="1.0" encoding="utf-8"?>
<!-- Generator: Adobe Illustrator 23.0.4, SVG Export Plug-In . SVG Version: 6.00 Build 0)  -->
<svg version="1.1" id="Layer_1" xmlns="http://www.w3.org/2000/svg" xmlns:xlink="http://www.w3.org/1999/xlink" x="0px" y="0px"
	 viewBox="0 0 64 64" style="enable-background:new 0 0 64 64;" xml:space="preserve">
<style type="text/css">
	.st0{fill:#086BB5;}
</style>
<g>
	<path class="st0" d="M62.3,29.7C50.2,12.8,37.1,11,32,11c-5.1,0-18.4,1.8-30.3,18.7c-1,1.4-0.9,3.2,0,4.5C4.9,38.7,16.3,53,32,53
		c5.1,0,18.1-1.8,30.3-18.7C63.2,32.9,63.2,31.1,62.3,29.7z M25,23c2.2,0,4,1.8,4,4s-1.8,4-4,4s-4-1.8-4-4c0,0,0,0,0,0
		C21,24.8,22.8,23,25,23C25,23,25,23,25,23z M60.6,33.1C57.6,37.3,46.6,51,32,51C17.2,51,6.3,37.3,3.4,33.1l0,0
		c-0.5-0.7-0.5-1.5,0-2.2C8.9,23,14.9,18.5,19.9,16.1c-6.6,6.7-6.5,17.4,0.1,24s17.4,6.5,24-0.1c6.5-6.6,6.6-17.2,0.1-23.8
		c5,2.5,10.9,6.9,16.5,14.8C61.1,31.6,61.1,32.4,60.6,33.1z"/>
</g>
</svg>
