<?xml version="1.0" encoding="utf-8"?>
<!-- Generator: Adobe Illustrator 23.0.4, SVG Export Plug-In . SVG Version: 6.00 Build 0)  -->
<svg version="1.1" id="Layer_1" xmlns="http://www.w3.org/2000/svg" xmlns:xlink="http://www.w3.org/1999/xlink" x="0px" y="0px"
	 viewBox="0 0 93 100.6" style="enable-background:new 0 0 93 100.6;" xml:space="preserve">
<style type="text/css">
	.st0{fill:url(#SVGID_1_);}
	.st1{fill:#FFFFFF;}
</style>
<g id="Growth_Accelerators">
	
		<linearGradient id="SVGID_1_" gradientUnits="userSpaceOnUse" x1="-1632.725" y1="-164.775" x2="-1568.3597" y2="-229.1402" gradientTransform="matrix(4.489700e-11 -1 -1 -4.489700e-11 -150.5 -1550.5)">
		<stop  offset="3.605769e-04" style="stop-color:#086BB5"/>
		<stop  offset="0.2538" style="stop-color:#037BB5"/>
		<stop  offset="0.8087" style="stop-color:#00A7B8"/>
		<stop  offset="1" style="stop-color:#00B9B6"/>
	</linearGradient>
	<polygon class="st0" points="5.6,26.4 5.6,73.6 46.5,97.1 87.3,73.6 87.3,26.4 46.5,2.9 	"/>
</g>
<g>
	<path class="st1" d="M62.1,41.6h-5.1V59h5.1c5.1,0,9.2-3.8,9.2-8.5v-0.3C71.3,45.4,67.2,41.6,62.1,41.6z"/>
	<path class="st1" d="M37.8,65.9c0,5.1,3.8,9.2,8.5,9.2h0.3c4.7,0,8.5-4.1,8.5-9.2v-5.1H37.8V65.9z"/>
	<path class="st1" d="M21.7,50.2v0.3c0,4.7,4.1,8.5,9.2,8.5h5.1V41.6h-5.1C25.8,41.6,21.7,45.4,21.7,50.2z"/>
	<path class="st1" d="M55.2,34.7c0-5.1-3.8-9.2-8.5-9.2h-0.3c-4.7,0-8.5,4.1-8.5,9.2v5.1h17.4L55.2,34.7L55.2,34.7z"/>
	<rect x="37.8" y="41.6" class="st1" width="17.4" height="17.4"/>
</g>
</svg>
