<?xml version="1.0" encoding="utf-8"?>
<!-- Generator: Adobe Illustrator 23.0.3, SVG Export Plug-In . SVG Version: 6.00 Build 0)  -->
<svg version="1.1" id="Layer_5" xmlns="http://www.w3.org/2000/svg" xmlns:xlink="http://www.w3.org/1999/xlink" x="0px" y="0px"
	 viewBox="0 0 149 140" style="enable-background:new 0 0 149 140;" xml:space="preserve">
<style type="text/css">
	.st0{fill:url(#SVGID_1_);}
	.st1{fill:#FFFFFF;}
	.st2{fill:#6A54A3;}
</style>
<g id="Lead_Generator">
	
		<linearGradient id="SVGID_1_" gradientUnits="userSpaceOnUse" x1="-2428.2534" y1="1124.5535" x2="-2363.8882" y2="1188.9186" gradientTransform="matrix(4.489700e-11 -1 1 4.489700e-11 -1082.4283 -2341.2285)">
		<stop  offset="3.605769e-04" style="stop-color:#6A53A3"/>
		<stop  offset="0.5806" style="stop-color:#8B52A1"/>
		<stop  offset="1" style="stop-color:#A5519F"/>
	</linearGradient>
	<polygon class="st0" points="33.5,31.2 33.5,78.4 74.3,101.9 115.2,78.4 115.2,31.2 74.3,7.7 	"/>
	<g>
		<path class="st1" d="M91.8,49.2c-0.6,9.2-9.8,16.5-21,16.5c-0.8,0-1.6,0-2.4-0.1c3.5,2.8,8.7,4.2,13.9,3.5l9.6,4.8v-9.1
			c2.3-2.2,3.5-4.9,3.5-7.7C95.4,54.1,94.1,51.4,91.8,49.2z"/>
		<path class="st1" d="M70.8,34.2c-9.7,0-17.5,6.3-17.5,14c0,3.2,1.3,6.1,3.5,8.4v9.1l8.5-4.2c1.7,0.5,3.6,0.7,5.6,0.7
			c9.7,0,17.5-6.3,17.5-14S80.5,34.2,70.8,34.2z"/>
	</g>
</g>
<g>
	<path class="st2" d="M58.9,120.3v-8.4h1.9v6.7h3.6v1.7H58.9z"/>
	<path class="st2" d="M71.8,111.9v1.7h-4.2v1.7h3.8v1.6h-3.8v1.7h4.3v1.7h-6.2v-8.4C65.7,111.9,71.8,111.9,71.8,111.9z"/>
	<path class="st2" d="M79.6,120.3l-0.8-1.8h-3.5l-0.8,1.8h-2l3.6-8.4h1.8l3.6,8.4H79.6z M77,114.4l-1.1,2.4H78L77,114.4z"/>
	<path class="st2" d="M89,113c0.8,0.7,1.2,1.8,1.2,3.1c0,1.3-0.4,2.3-1.2,3.1c-0.8,0.8-2,1.1-3.6,1.1h-2.9v-8.4h3
		C87,111.9,88.2,112.2,89,113z M87.6,118c0.5-0.4,0.7-1.1,0.7-1.9c0-0.8-0.2-1.5-0.7-1.9s-1.2-0.7-2.1-0.7h-1v5.1h1.2
		C86.5,118.6,87.1,118.4,87.6,118z"/>
	<path class="st2" d="M42.2,129h1.9v3c-0.8,0.9-2,1.4-3.5,1.4c-1.2,0-2.3-0.4-3.1-1.2s-1.3-1.8-1.3-3.1s0.4-2.3,1.3-3.1
		s1.9-1.2,3.1-1.2s2.2,0.4,3.1,1.2l-1,1.4c-0.4-0.3-0.7-0.6-1-0.7s-0.7-0.2-1-0.2c-0.7,0-1.3,0.2-1.8,0.7s-0.7,1.1-0.7,1.9
		s0.2,1.4,0.7,1.9s1,0.7,1.7,0.7s1.2-0.1,1.6-0.4V129z"/>
	<path class="st2" d="M51.8,124.9v1.7h-4.2v1.7h3.8v1.6h-3.8v1.7h4.3v1.7h-6.2v-8.4H51.8z"/>
	<path class="st2" d="M59.4,124.9h1.9v8.4h-1.9l-4-5.3v5.3h-1.9v-8.4h1.8l4.1,5.4C59.4,130.3,59.4,124.9,59.4,124.9z"/>
	<path class="st2" d="M69.4,124.9v1.7h-4.2v1.7H69v1.6h-3.8v1.7h4.3v1.7h-6.2v-8.4H69.4z"/>
	<path class="st2" d="M78,127.7c0,1.3-0.5,2.2-1.6,2.6l2.1,3h-2.3l-1.9-2.7H73v2.7h-1.9v-8.4h3.2c1.3,0,2.2,0.2,2.8,0.7
		C77.8,126,78,126.7,78,127.7z M75.8,128.7c0.2-0.2,0.3-0.5,0.3-1s-0.1-0.8-0.4-0.9c-0.2-0.2-0.7-0.3-1.3-0.3H73v2.5h1.4
		C75.1,129,75.5,128.9,75.8,128.7z"/>
	<path class="st2" d="M85.9,133.3l-0.8-1.8h-3.5l-0.8,1.8h-2l3.6-8.4h1.8l3.6,8.4H85.9z M83.4,127.4l-1.1,2.4h2.1L83.4,127.4z"/>
	<path class="st2" d="M91.8,126.5v6.8H90v-6.8h-2.4v-1.6h6.6v1.6H91.8z"/>
	<path class="st2" d="M102.4,132.1c-0.8,0.8-1.9,1.2-3.1,1.2s-2.3-0.4-3.1-1.2c-0.8-0.8-1.3-1.9-1.3-3.1c0-1.2,0.4-2.3,1.3-3.1
		c0.8-0.8,1.9-1.2,3.1-1.2s2.3,0.4,3.1,1.2c0.8,0.8,1.3,1.9,1.3,3.1C103.7,130.3,103.3,131.3,102.4,132.1z M101.8,129
		c0-0.7-0.2-1.4-0.7-1.9s-1.1-0.8-1.8-0.8s-1.3,0.3-1.8,0.8s-0.7,1.2-0.7,1.9s0.2,1.4,0.7,1.9s1.1,0.8,1.8,0.8s1.3-0.3,1.8-0.8
		C101.5,130.4,101.8,129.8,101.8,129z"/>
	<path class="st2" d="M112.1,127.7c0,1.3-0.5,2.2-1.6,2.6l2.1,3h-2.3l-1.9-2.7h-1.3v2.7h-1.9v-8.4h3.2c1.3,0,2.2,0.2,2.8,0.7
		C111.8,126,112.1,126.7,112.1,127.7z M109.8,128.7c0.2-0.2,0.3-0.5,0.3-1s-0.1-0.8-0.4-0.9s-0.7-0.3-1.3-0.3H107v2.5h1.4
		C109.1,129,109.6,128.9,109.8,128.7z"/>
</g>
</svg>
